<?xml version="1.0" standalone="no"?>
<!DOCTYPE svg PUBLIC "-//W3C//DTD SVG 1.1//EN" "http://www.w3.org/Graphics/SVG/1.1/DTD/svg11.dtd" >
<svg>
<metadata>
Created by FontForge 20120731 at Mon Sep 12 10:39:32 2016
 By ,,,
 The digitally encoded machine readable software for producing the  Typefaces licensed to you is copyrighted (c) 1991 Adobe Systems.  All Rights Reserved. This software is the property of Adobe Systems  Incorporated and its licensors, and may not be reproduced, used,   displayed, modified, disclosed or transferred without the express   written approval of Adobe.    The digitally encoded machine readable outline data for producing  the Typefaces licensed to you is copyrighted (c) 1981 Linotype-Hell AG  and/or its subsidiaries. All Rights Reserved.  This data is the property of Linotype-Hell AG and/or its subsidiaries  and may not be reproduced, used, displayed, modified, disclosed or   transferred without the express written approval of Linotype-Hell AG   and/or its subsidiaries.  12 Frutiger* 77 Black Condensed 25103 
</metadata>
<defs>
<font id="FrutigerCE-BlackCn" horiz-adv-x="537" >
  <font-face 
    font-family="Frutiger CE 57Cn"
    font-weight="900"
    font-stretch="condensed"
    units-per-em="1000"
    panose-1="0 0 0 0 0 0 0 0 0 0"
    ascent="800"
    descent="-200"
    x-height="521"
    cap-height="698"
    bbox="-119 -250 1000 917"
    underline-thickness="50"
    underline-position="-50"
    unicode-range="U+000D-FB02"
  />
<missing-glyph horiz-adv-x="260" 
 />
    <glyph glyph-name=".notdef" horiz-adv-x="260" 
 />
    <glyph glyph-name=".null" horiz-adv-x="0" 
 />
    <glyph glyph-name=".null" horiz-adv-x="0" 
 />
    <glyph glyph-name="nonmarkingreturn" unicode="&#xd;" horiz-adv-x="250" 
 />
    <glyph glyph-name="space" unicode=" " horiz-adv-x="260" 
 />
    <glyph glyph-name="exclam" unicode="!" horiz-adv-x="388" 
d="M122 150h144v-150h-144v150zM273 698l-20 -476h-118l-20 476h158z" />
    <glyph glyph-name="quotedbl" unicode="&#x22;" horiz-adv-x="520" 
d="M306 750h126v-260h-126v260zM88 750h126v-260h-126v260z" />
    <glyph glyph-name="numbersign" unicode="#" horiz-adv-x="520" 
d="M196 291h99l16 116h-99zM44 499h89l28 199h92l-28 -199h99l28 199h92l-27 -199h88v-92h-101l-16 -116h88v-92h-101l-28 -199h-92l27 199h-99l-27 -199h-92l27 199h-76v92h89l16 116h-76v92z" />
    <glyph glyph-name="dollar" unicode="$" horiz-adv-x="520" 
d="M280 99q33 8 51.5 33t18.5 60q0 9 -2 21.5t-9 25t-21 24t-38 18.5v-182zM235 599q-9 -1 -20 -4t-21 -11t-17 -22.5t-7 -39.5q0 -20 7 -34t17 -24t21.5 -15.5t19.5 -9.5v160zM235 795h45v-85q30 -2 50 -3.5t37.5 -4.5t35.5 -8t43 -13l-9 -124q-32 16 -74 29t-83 13v-172
q48 -10 86.5 -28t65.5 -45t41.5 -65t14.5 -89q0 -85 -51.5 -143.5t-156.5 -68.5v-89h-45v89q-22 1 -47.5 3t-51 5.5t-48.5 8.5t-40 11l11 133q39 -23 83.5 -36.5t92.5 -13.5v194q-24 6 -58.5 18.5t-67 37.5t-55 65.5t-22.5 102.5q0 22 7 53t29 60t61.5 52t105.5 28v85z" />
    <glyph glyph-name="percent" unicode="%" horiz-adv-x="852" 
d="M506 191q0 40 7 76.5t24 64.5t46 45t73 17t73 -17t46 -45t24 -64.5t7 -76.5t-7 -76.5t-24 -64.5t-46 -45t-73 -17t-73 17t-46 45t-24 64.5t-7 76.5zM610 191q0 -58 8.5 -90.5t37.5 -32.5t37.5 32.5t8.5 90.5t-8.5 90.5t-37.5 32.5t-37.5 -32.5t-8.5 -90.5zM46 507
q0 40 7 76.5t24 64.5t46 45t73 17t73 -17t46 -45t24 -64.5t7 -76.5t-7 -76.5t-24 -64.5t-46 -45t-73 -17t-73 17t-46 45t-24 64.5t-7 76.5zM150 507q0 -58 8.5 -90.5t37.5 -32.5t37.5 32.5t8.5 90.5t-8.5 90.5t-37.5 32.5t-37.5 -32.5t-8.5 -90.5zM540 731h90l-316 -764h-90
z" />
    <glyph glyph-name="ampersand" unicode="&#x26;" horiz-adv-x="704" 
d="M309 614q-34 0 -52.5 -19t-18.5 -49q0 -13 8.5 -29.5t19.5 -31t21.5 -26t13.5 -14.5q31 25 53 49t22 58q0 7 -2 17.5t-9 20.5t-20.5 17t-35.5 7zM254 300q-16 -17 -31.5 -38.5t-15.5 -60.5q0 -15 6.5 -32.5t19 -32t30.5 -24.5t40 -10q34 0 54 10.5t34 27.5zM479 252
q17 26 24 64.5t7 69.5h138q0 -67 -21 -128t-63 -112l111 -146h-172l-40 54q-30 -36 -76 -51t-92 -15q-57 0 -102 16.5t-76 45t-47.5 67t-16.5 83.5q0 15 2.5 39t14.5 51t37 54.5t70 49.5q-3 3 -15.5 17t-26 34.5t-24.5 46.5t-11 54q0 18 8 45.5t30.5 54t64 45.5t108.5 19
q37 0 73 -9t64 -28t45 -49t17 -72q0 -39 -17 -70.5t-39 -55.5t-42.5 -38.5t-26.5 -18.5z" />
    <glyph glyph-name="quotesingle" unicode="'" horiz-adv-x="260" 
d="M67 750h126v-260h-126v260z" />
    <glyph glyph-name="parenleft" unicode="(" horiz-adv-x="315" 
d="M303 756q-22 -36 -44 -84.5t-40 -106t-29 -122.5t-11 -135t11 -135t29 -122.5t40 -106t44 -84.5h-121q-25 45 -50 92.5t-44 101.5t-31 116.5t-12 137.5t12 137.5t31 116.5t44 101.5t50 92.5h121z" />
    <glyph glyph-name="parenright" unicode=")" horiz-adv-x="315" 
d="M133 756q26 -45 50.5 -92.5t43.5 -101.5t31 -116.5t12 -137.5t-12 -137.5t-31 -116.5t-43.5 -101.5t-50.5 -92.5h-121q22 36 44 84.5t40 106t29 122.5t11 135t-11 135t-29 122.5t-40 106t-44 84.5h121z" />
    <glyph glyph-name="asterisk" unicode="*" horiz-adv-x="519" 
d="M107 680l120 -64l-22 134h114l-21 -134l116 64l34 -109l-130 -23l96 -96l-96 -66l-57 120l-61 -120l-93 66l93 96l-129 23z" />
    <glyph glyph-name="plus" unicode="+" horiz-adv-x="600" 
d="M248 506h104v-201h201v-104h-201v-201h-104v201h-201v104h201v201z" />
    <glyph glyph-name="comma" unicode="," horiz-adv-x="260" 
d="M58 150h150l-80 -260h-118z" />
    <glyph glyph-name="hyphen" unicode="-" horiz-adv-x="333" 
d="M42 348h249v-122h-249v122z" />
    <glyph glyph-name="period" unicode="." horiz-adv-x="260" 
d="M58 150h144v-150h-144v150z" />
    <glyph glyph-name="slash" unicode="/" horiz-adv-x="296" 
d="M178 710h104l-164 -722h-104z" />
    <glyph glyph-name="zero" unicode="0" horiz-adv-x="520" 
d="M30 349q0 73 10 138.5t35.5 115t70 78.5t114.5 29t114.5 -29t70 -78.5t35.5 -115t10 -138.5t-10 -138.5t-35.5 -115t-70 -78.5t-114.5 -29t-114.5 29t-70 78.5t-35.5 115t-10 138.5zM184 349q0 -50 3 -95t11.5 -78.5t23 -53.5t38.5 -20t38.5 20t23 53.5t11.5 78.5t3 95
t-3 95t-11.5 79t-23 53.5t-38.5 19.5t-38.5 -19.5t-23 -53.5t-11.5 -79t-3 -95z" />
    <glyph glyph-name="one" unicode="1" horiz-adv-x="520" 
d="M246 698h126v-698h-158v514l-90 -87l-74 113z" />
    <glyph glyph-name="two" unicode="2" horiz-adv-x="520" 
d="M47 122l51 57q26 29 61 66t66.5 78t54 83t22.5 81q0 42 -26 67.5t-68 25.5q-16 0 -35 -5t-37.5 -13t-35.5 -17.5t-30 -19.5l-11 145q55 17 103.5 28.5t102.5 11.5q41 0 77.5 -14t64 -40t43.5 -62t16 -81q0 -54 -25 -109.5t-59.5 -105t-72 -89.5t-61.5 -63l-25 -24h250
v-122h-426v122z" />
    <glyph glyph-name="three" unicode="3" horiz-adv-x="520" 
d="M46 146q29 -10 48.5 -17t35 -11t28 -6t27.5 -2q36 0 59.5 10t37 24.5t19 31t5.5 29.5q0 33 -11.5 52t-29.5 28.5t-40.5 12t-43.5 2.5h-48v114q23 0 52.5 1.5t55.5 9.5t44.5 25t18.5 49q0 23 -8.5 39.5t-23 27.5t-33.5 16.5t-39 5.5q-35 0 -69.5 -11.5l-67.5 -22.5l-8 124
q59 17 106 24.5t101 7.5q34 0 69.5 -10.5t64.5 -33.5t47.5 -58.5t18.5 -85.5q0 -32 -11.5 -56.5t-30.5 -43.5t-44.5 -32.5t-52.5 -23.5v-2q28 -4 54.5 -15.5t47 -32.5t33 -52t12.5 -74q0 -42 -18 -79t-52.5 -64t-85.5 -43t-117 -16q-12 0 -34 2.5t-45 7t-45 9.5t-34 11z" />
    <glyph glyph-name="four" unicode="4" horiz-adv-x="520" 
d="M282 534h-2l-154 -285h156v285zM18 279l236 419h172v-449h76v-114h-76v-135h-150v135h-258v144z" />
    <glyph glyph-name="five" unicode="5" horiz-adv-x="520" 
d="M61 698h382v-118h-244v-130q15 2 30 3t30 1q103 0 159 -59.5t56 -172.5q0 -43 -16 -85t-48 -75t-80.5 -53.5t-113.5 -20.5q-33 0 -57 2.5t-43 6.5t-35.5 10t-34.5 13l8 124q40 -16 69 -25t61 -9q34 0 58 11t39 28.5t22 37.5t7 38q0 37 -15 60.5t-36.5 37t-45.5 18.5
t-42 5q-26 0 -53 -5.5t-57 -13.5v371z" />
    <glyph glyph-name="six" unicode="6" horiz-adv-x="520" 
d="M445 561q-22 9 -53 20t-63 11q-45 0 -73 -18t-44 -47.5t-22.5 -66t-8.5 -73.5h2q17 21 35 33t34.5 18t29.5 7.5t20 1.5q37 0 71 -15.5t59.5 -45.5t41 -74t15.5 -101q0 -16 -6.5 -53t-29.5 -74.5t-66.5 -66.5t-117.5 -29t-120.5 31t-72.5 80t-35.5 108t-9.5 116
q0 74 13.5 143.5t45.5 123.5t84.5 87t130.5 33q42 0 75.5 -7.5t73.5 -20.5zM260 329q-27 0 -41 -14t-21 -33.5t-8 -40.5t-1 -35q0 -7 1 -25t8 -36t21 -32t41 -14q24 0 38.5 13.5t21.5 33t9 40t2 33.5q0 12 -2 30.5t-9.5 36t-21.5 30.5t-38 13z" />
    <glyph glyph-name="seven" unicode="7" horiz-adv-x="520" 
d="M470 560l-205 -560h-172l223 576h-266v122h420v-138z" />
    <glyph glyph-name="eight" unicode="8" horiz-adv-x="520" 
d="M189 522q0 -35 21 -64.5t57 -42.5q28 18 43.5 43t15.5 60q0 6 -2 19.5t-9.5 27t-22 24t-38.5 10.5q-19 0 -31.5 -9t-20 -21t-10.5 -25t-3 -22zM181 189q0 -24 8 -41t20 -28t26.5 -16t26.5 -5q13 0 26.5 6t25 17t18.5 28t7 38q0 29 -8.5 49t-21.5 34t-28.5 23.5
t-28.5 16.5q-34 -20 -52.5 -50t-18.5 -72zM45 534q0 34 13.5 65.5t40.5 56t67.5 39.5t93.5 15q60 0 100.5 -19t64.5 -47t34.5 -58.5t10.5 -54.5q0 -25 -9 -50t-25 -46.5t-37 -37.5t-45 -24v-2q16 -3 39.5 -15.5t45.5 -35t38 -56.5t16 -81q0 -41 -15 -76.5t-44.5 -62
t-73.5 -41.5t-103 -15q-66 0 -110 20t-70.5 50t-38 64t-11.5 61q0 25 6.5 52.5t21.5 52t40.5 43.5t63.5 28v2q-25 7 -46 23.5t-36 39t-23.5 51t-8.5 59.5z" />
    <glyph glyph-name="nine" unicode="9" horiz-adv-x="520" 
d="M75 137q22 -9 53 -20t63 -11q45 0 73 18t44 47.5t22.5 66t8.5 73.5h-2q-17 -21 -35 -33t-34.5 -18t-29.5 -7.5t-20 -1.5q-37 0 -71 15.5t-59.5 45.5t-41 74t-15.5 101q0 16 6.5 53t29.5 74.5t66.5 66.5t117.5 29t120.5 -31t72.5 -80t35.5 -108t9.5 -116
q0 -74 -13.5 -143.5t-45.5 -123.5t-84.5 -87t-130.5 -33q-42 0 -75.5 7.5t-73.5 20.5zM260 369q27 0 41 14t21 33.5t8 40.5t1 35q0 8 -1 25.5t-8 35.5t-21 32t-41 14q-24 0 -38.5 -13.5t-21.5 -33t-9 -39.5t-2 -34q0 -12 2 -30.5t9.5 -36t21.5 -30.5t38 -13z" />
    <glyph glyph-name="colon" unicode=":" horiz-adv-x="260" 
d="M58 521h144v-150h-144v150zM58 150h144v-150h-144v150z" />
    <glyph glyph-name="semicolon" unicode=";" horiz-adv-x="260" 
d="M58 150h150l-80 -260h-118zM58 521h144v-150h-144v150z" />
    <glyph glyph-name="less" unicode="&#x3c;" horiz-adv-x="600" 
d="M553 -8l-506 218v86l506 218v-100l-372 -161l372 -161v-100z" />
    <glyph glyph-name="equal" unicode="=" horiz-adv-x="600" 
d="M553 310h-506v104h506v-104zM553 92h-506v104h506v-104z" />
    <glyph glyph-name="greater" unicode="&#x3e;" horiz-adv-x="600" 
d="M419 253l-372 161v100l506 -218v-86l-506 -218v100z" />
    <glyph glyph-name="question" unicode="?" horiz-adv-x="463" 
d="M166 257q0 35 16.5 63t36 55.5t36 57t16.5 67.5q0 45 -25.5 64.5t-71.5 19.5q-49 0 -76.5 -12t-41.5 -20l-6 129q19 8 62.5 18.5t99.5 10.5q46 0 86.5 -10t71 -31.5t48 -55.5t17.5 -82q0 -51 -21 -92t-46.5 -75.5t-46.5 -64.5t-21 -60v-16h-134v34zM160 150h144v-150
h-144v150z" />
    <glyph glyph-name="at" unicode="@" horiz-adv-x="800" 
d="M602 529l-41 -211q-2 -12 -4.5 -26.5t-2.5 -21.5q0 -15 8 -21t19 -6q14 0 31.5 7.5t32.5 27t25.5 52.5t10.5 83q0 63 -24 104t-61.5 65t-83.5 33t-90 9q-61 0 -112.5 -22t-88.5 -60t-57.5 -87.5t-20.5 -105.5q0 -60 19.5 -110.5t54 -87t82 -57t103.5 -20.5q30 0 61 2.5
t61 10t57.5 21t51.5 35.5h85q-56 -82 -137.5 -118.5t-178.5 -36.5q-65 0 -130 22.5t-116.5 67.5t-84 113t-32.5 158q0 75 29 140.5t80 114.5t121.5 77.5t152.5 28.5q60 0 120.5 -17t109 -53t79 -91.5t30.5 -132.5t-29 -126t-69 -77.5t-80.5 -39t-64.5 -10.5q-29 0 -45.5 14
t-22.5 35h-2q-17 -23 -41 -36t-57 -13q-29 0 -56 12t-47.5 34t-33 52.5t-12.5 67.5q0 44 12 82t36.5 66.5t61.5 45t86 16.5q26 0 53 -11.5t50 -38.5l7 40h95zM375 243q41 0 70 32t29 85q0 99 -87 99q-40 0 -68 -34t-28 -87q0 -27 7.5 -45t19.5 -29.5t27 -16t30 -4.5z" />
    <glyph glyph-name="A" unicode="A" horiz-adv-x="648" 
d="M431 156h-219l-48 -156h-158l232 698h180l224 -698h-168zM327 564h-2l-83 -290h157z" />
    <glyph glyph-name="B" unicode="B" horiz-adv-x="574" 
d="M66 698h260q55 0 92 -16.5t59.5 -42t32 -56.5t9.5 -59q0 -42 -14 -71.5t-34 -48.5t-41.5 -28.5t-36.5 -11.5v-2q30 -6 55.5 -17.5t44 -31.5t29.5 -49.5t11 -70.5q0 -66 -28 -104.5t-64.5 -58t-72.5 -25t-51 -5.5h-251v698zM224 414h40q35 0 54.5 11.5t29 26.5t11.5 29
t2 19q0 9 -3.5 23.5t-13.5 28t-28.5 23t-48.5 9.5h-43v-170zM224 118h46q8 0 25.5 1.5t35 10t31 26.5t13.5 52q0 46 -23.5 69t-64.5 23h-63v-182z" />
    <glyph glyph-name="C" unicode="C" horiz-adv-x="574" 
d="M536 540q-19 11 -52 25.5t-90 14.5q-41 0 -74.5 -16t-57 -46t-36 -72.5t-12.5 -95.5q0 -51 14 -93t38.5 -72t58 -46.5t72.5 -16.5q30 0 54 5t41.5 11t29.5 12l18 9l6 -146q-21 -7 -64.5 -16t-110.5 -9q-72 0 -131.5 26t-102.5 73.5t-67 114.5t-24 150q0 96 29 164
t74.5 111t101.5 63t109 20q78 0 121 -13t63 -21z" />
    <glyph glyph-name="D" unicode="D" horiz-adv-x="667" 
d="M66 698h248q59 0 115 -18.5t100 -60.5t70.5 -109.5t26.5 -166.5q0 -90 -27.5 -155t-73 -107t-106 -61.5t-126.5 -19.5h-227v698zM230 122h52q45 0 77.5 16.5t53.5 46t31 70t10 88.5q0 108 -43.5 170.5t-138.5 62.5h-42v-454z" />
    <glyph glyph-name="E" unicode="E" horiz-adv-x="519" 
d="M66 698h403v-122h-245v-156h233v-122h-233v-176h257v-122h-415v698z" />
    <glyph glyph-name="F" unicode="F" horiz-adv-x="481" 
d="M66 698h387v-122h-229v-162h220v-122h-220v-292h-158v698z" />
    <glyph glyph-name="G" unicode="G" horiz-adv-x="667" 
d="M364 400h246v-375q-28 -13 -87 -25t-144 -12q-49 0 -107 15t-108 55.5t-84 111.5t-34 183q0 64 19 128t62 115t112 82.5t169 31.5q62 0 106.5 -9.5t76.5 -18.5l-10 -137q-26 12 -66 25.5t-94 13.5q-65 0 -105.5 -26t-63 -63.5t-30.5 -78t-8 -70.5q0 -49 11.5 -91
t34.5 -73.5t57.5 -49.5t81.5 -18q37 0 57 10v158h-92v118z" />
    <glyph glyph-name="H" unicode="H" horiz-adv-x="630" 
d="M400 290h-170v-290h-164v698h164v-278h170v278h164v-698h-164v290z" />
    <glyph glyph-name="I" unicode="I" horiz-adv-x="296" 
d="M66 698h164v-698h-164v698z" />
    <glyph glyph-name="J" unicode="J" horiz-adv-x="389" 
d="M323 228q0 -50 -9.5 -93.5t-32 -76t-60.5 -51.5t-94 -19q-28 0 -59.5 6t-50.5 14l6 133q14 -5 27 -9t30 -4q45 0 62 28t17 72v470h164v-470z" />
    <glyph glyph-name="K" unicode="K" horiz-adv-x="611" 
d="M66 698h164v-288h2l172 288h184l-216 -327l233 -371h-196l-177 320h-2v-320h-164v698z" />
    <glyph glyph-name="L" unicode="L" horiz-adv-x="481" 
d="M66 698h164v-572h231v-126h-395v698z" />
    <glyph glyph-name="M" unicode="M" horiz-adv-x="852" 
d="M636 552h-2l-157 -552h-108l-151 552h-2v-552h-150v698h247l113 -449h2l122 449h236v-698h-150v552z" />
    <glyph glyph-name="N" unicode="N" horiz-adv-x="667" 
d="M63 698h192l203 -484h2v484h144v-698h-194l-201 505h-2v-505h-144v698z" />
    <glyph glyph-name="O" unicode="O" horiz-adv-x="685" 
d="M46 349q0 77 18 143t54.5 114.5t92.5 76t131 27.5t131 -27.5t93 -76t55 -114.5t18 -143t-18 -143t-55 -114.5t-93 -76t-131 -27.5t-131 27.5t-92.5 76t-54.5 114.5t-18 143zM214 349q0 -50 6.5 -94.5t21.5 -77.5t39.5 -52t60.5 -19t60.5 19t39.5 52t22 77.5t7 94.5
t-7 94.5t-22 77.5t-39.5 52t-60.5 19t-60.5 -19t-39.5 -52t-21.5 -77.5t-6.5 -94.5z" />
    <glyph glyph-name="P" unicode="P" horiz-adv-x="556" 
d="M276 377q38 0 63 25.5t25 74.5q0 52 -24 75.5t-73 23.5h-43v-199h52zM66 698h223q112 0 175.5 -54t63.5 -168q0 -45 -12.5 -85t-39.5 -70t-68.5 -48t-98.5 -18h-79v-255h-164v698z" />
    <glyph glyph-name="Q" unicode="Q" horiz-adv-x="685" 
d="M448 -137l-89 125h-17q-75 0 -131 27.5t-92.5 76t-54.5 114.5t-18 143t18 143t54.5 114.5t92.5 76t131 27.5t131 -27.5t93 -76t55 -114.5t18 -143q0 -54 -9.5 -103.5t-27.5 -92t-45.5 -75.5t-63.5 -54l137 -161h-182zM214 349q0 -50 6.5 -94.5t21.5 -77.5t39.5 -52
t60.5 -19t60.5 19t39.5 52t22 77.5t7 94.5t-7 94.5t-22 77.5t-39.5 52t-60.5 19t-60.5 -19t-39.5 -52t-21.5 -77.5t-6.5 -94.5z" />
    <glyph glyph-name="R" unicode="R" horiz-adv-x="593" 
d="M66 698h256q43 0 81.5 -10t68 -31.5t46.5 -56t17 -82.5q0 -11 -2.5 -35t-16 -51t-41.5 -51t-79 -34v-2q19 -2 33 -9t25 -20.5t20 -35t19 -52.5l72 -228h-172l-54 187q-10 36 -20 55t-22 28t-28 10.5t-39 1.5v-282h-164v698zM224 400h51q48 0 72 27t24 65q0 11 -3 26
t-12.5 29t-29 23.5t-52.5 9.5h-50v-180z" />
    <glyph glyph-name="S" unicode="S" 
d="M446 556q-29 15 -67 25.5t-71 10.5q-40 0 -66.5 -18.5t-26.5 -57.5q0 -32 20.5 -50.5t51 -33t66 -29.5t66 -39.5t51 -63t20.5 -100.5q0 -49 -18.5 -88.5t-51.5 -67t-77.5 -42t-96.5 -14.5q-64 0 -114.5 11t-73.5 18l9 136q37 -14 72 -28.5t81 -14.5q20 0 38 5t32.5 15
t23 26t8.5 37q0 34 -20.5 53.5t-51 34t-66 29t-66 38.5t-51 62.5t-20.5 100.5q0 5 1.5 22t9 39t22.5 46.5t42 44.5t68 33.5t99 13.5q48 0 83.5 -7t80.5 -17z" />
    <glyph glyph-name="T" unicode="T" horiz-adv-x="500" 
d="M168 572h-152v126h468v-126h-152v-572h-164v572z" />
    <glyph glyph-name="U" unicode="U" horiz-adv-x="630" 
d="M59 698h164v-471q0 -53 21 -83t71 -30t71 30t21 83v471h164v-445q0 -130 -69 -197.5t-187 -67.5t-187 67.5t-69 197.5v445z" />
    <glyph glyph-name="V" unicode="V" horiz-adv-x="611" 
d="M8 698h176l123 -509h2l126 509h168l-211 -698h-176z" />
    <glyph glyph-name="W" unicode="W" horiz-adv-x="852" 
d="M427 542h-2l-87 -542h-192l-140 698h158l84 -496h2l83 496h192l85 -496h2l90 496h144l-137 -698h-192z" />
    <glyph glyph-name="X" unicode="X" horiz-adv-x="611" 
d="M30 698h184l95 -219l105 219h176l-183 -328l197 -370h-184l-111 250l-126 -250h-176l202 370z" />
    <glyph glyph-name="Y" unicode="Y" horiz-adv-x="592" 
d="M214 267l-212 431h188l112 -270l104 270h184l-212 -434v-264h-164v267z" />
    <glyph glyph-name="Z" unicode="Z" horiz-adv-x="519" 
d="M30 134l271 438h-264v126h448v-128l-271 -444h275v-126h-459v134z" />
    <glyph glyph-name="bracketleft" unicode="[" horiz-adv-x="315" 
d="M72 756h213v-100h-91v-696h91v-100h-213v896z" />
    <glyph glyph-name="backslash" unicode="\" horiz-adv-x="296" 
d="M282 -12h-104l-164 722h104z" />
    <glyph glyph-name="bracketright" unicode="]" horiz-adv-x="315" 
d="M243 -140h-213v100h91v696h-91v100h213v-896z" />
    <glyph glyph-name="asciicircum" unicode="^" horiz-adv-x="600" 
d="M252 698h96l186 -385h-104l-130 281l-130 -281h-104z" />
    <glyph glyph-name="underscore" unicode="_" horiz-adv-x="500" 
d="M0 -125v50h500v-50h-500z" />
    <glyph glyph-name="grave" unicode="`" horiz-adv-x="222" 
d="M-3 729h138l54 -146h-92z" />
    <glyph glyph-name="a" unicode="a" 
d="M91 496q15 5 35.5 10.5t42.5 10.5t45.5 8.5t44.5 3.5q69 0 112.5 -13.5t68.5 -39t34.5 -60.5t9.5 -79v-190q0 -58 1 -89.5t3 -57.5h-144l-4 72h-2q-3 -12 -15 -26t-31 -26t-44 -20t-53 -8q-73 0 -117 43t-44 115q0 44 15.5 73.5t39.5 49t53.5 30t58 15.5t53 6t38.5 1h48
q0 38 -12 58t-28 29.5t-32 11t-25 1.5q-30 0 -64 -9t-81 -37zM340 251q-24 0 -52 -2t-52.5 -11t-41 -27t-16.5 -51q0 -25 9 -39t20.5 -20.5t22.5 -7.5t16 -1t20.5 2.5t32 14.5t29 38t12.5 74v30z" />
    <glyph glyph-name="b" unicode="b" horiz-adv-x="574" 
d="M55 750h158v-306h2q14 35 46.5 60t87.5 25q49 0 84 -20.5t57 -55t32 -81t10 -99.5q0 -62 -12 -114t-35.5 -89t-57.5 -57.5t-78 -20.5q-34 0 -58.5 9.5t-41 24t-26.5 30t-16 27.5h-2q0 -27 -1 -47.5t-3 -35.5h-150q2 18 3 42.5t1 74.5v633zM368 260q0 31 -2 60t-9.5 51.5
t-23 36t-41.5 13.5q-24 0 -39.5 -13.5t-24 -36t-12 -51.5t-3.5 -60q0 -22 3 -49t12 -50.5t24.5 -39t39.5 -15.5q27 0 42.5 16.5t23 40.5t9 50.5t1.5 46.5z" />
    <glyph glyph-name="c" unicode="c" horiz-adv-x="444" 
d="M423 14q-35 -9 -70 -15.5t-73 -6.5q-75 0 -123 27.5t-75.5 68t-37.5 86t-10 81.5q0 60 17 110.5t50 86.5t81 56.5t110 20.5q39 0 65.5 -8t60.5 -17l-8 -119q-22 8 -44.5 15t-47.5 7q-45 0 -69.5 -21t-35.5 -47.5t-13 -51t-2 -32.5q0 -41 11.5 -69t30 -45t41.5 -24t45 -7
q25 0 47.5 7.5t44.5 15.5z" />
    <glyph glyph-name="d" unicode="d" horiz-adv-x="574" 
d="M519 117q0 -50 1 -74.5t3 -42.5h-150q-2 15 -3 35.5t-1 47.5h-2q-6 -12 -16 -27.5t-26.5 -30t-41 -24t-58.5 -9.5q-44 0 -78 20.5t-57.5 57.5t-35.5 89t-12 114q0 53 10 99.5t32 81t57 55t84 20.5q55 0 87.5 -25t46.5 -60h2v306h158v-633zM206 260q0 -20 2 -46.5
t9.5 -50.5t22.5 -40.5t42 -16.5q24 0 39.5 15.5t24.5 39t12 50.5t3 49q0 31 -3.5 60t-12 51.5t-24 36t-39.5 13.5q-26 0 -41.5 -13.5t-23 -36t-9.5 -51.5t-2 -60z" />
    <glyph glyph-name="e" unicode="e" 
d="M355 305q0 25 -3.5 48t-13 41t-25.5 28.5t-40 10.5q-30 0 -46.5 -16t-24 -37.5t-9 -42.5t-1.5 -32h163zM499 219h-307q0 -23 7.5 -44.5t23.5 -38t40.5 -26.5t57.5 -10q41 0 79.5 12.5t67.5 28.5l3 -119q-38 -14 -81 -22t-84 -8q-69 0 -118.5 20t-82 55.5t-48 85
t-15.5 109.5q0 53 15 101t44.5 85t72.5 59t99 22q12 0 33 -1.5t46.5 -9t51.5 -23.5t47 -46.5t34.5 -77t13.5 -114.5v-38z" />
    <glyph glyph-name="f" unicode="f" horiz-adv-x="370" 
d="M9 521h91v85q0 31 7 59.5t25.5 50t50 34t80.5 12.5q42 0 66 -5t37 -7l-4 -110q-18 8 -41 8q-35 0 -49 -15t-14 -56v-56h95v-111h-95v-410h-158v410h-91v111z" />
    <glyph glyph-name="g" unicode="g" horiz-adv-x="574" 
d="M206 261q0 -15 2 -40.5t9.5 -50t23 -42t41.5 -17.5q24 0 39.5 13t24 34.5t12 48.5t3.5 54q0 23 -3 49.5t-12 50t-24 39t-39 15.5q-27 0 -42.5 -16.5t-23 -40.5t-9.5 -50.5t-2 -46.5zM519 63q0 -19 -1.5 -47.5t-9 -60t-23.5 -63.5t-45.5 -57t-74.5 -41t-111 -16
q-56 0 -103 10t-85 21l5 129q10 -5 27 -13t38.5 -15.5t46.5 -12.5t52 -5q47 0 73 16t39 43.5t15.5 64t2.5 76.5h-2q-3 -10 -12.5 -26t-26 -30.5t-41 -25t-57.5 -10.5q-34 0 -67 13t-59 43.5t-42 80.5t-16 123q0 125 48 197t137 72q34 0 58 -9.5t40.5 -24t26.5 -30t15 -27.5
h2l4 83h150q-2 -18 -3 -42.5t-1 -74.5v-341z" />
    <glyph glyph-name="h" unicode="h" horiz-adv-x="556" 
d="M55 750h158v-306h2q14 44 52 64.5t81 20.5t72.5 -14.5t47.5 -40t25.5 -60t7.5 -73.5v-341h-158v321q0 49 -18.5 65.5t-42.5 16.5q-38 0 -53.5 -30t-15.5 -81v-292h-158v750z" />
    <glyph glyph-name="i" unicode="i" horiz-adv-x="278" 
d="M60 521h158v-521h-158v521zM60 750h158v-140h-158v140z" />
    <glyph glyph-name="j" unicode="j" horiz-adv-x="278" 
d="M218 521v-551q0 -87 -35.5 -139.5t-116.5 -52.5q-32 0 -55.5 5t-35.5 10l4 104q10 -5 27 -5q9 0 18.5 2.5t17.5 10.5t13 22.5t5 38.5v555h158zM60 750h158v-140h-158v140z" />
    <glyph glyph-name="k" unicode="k" 
d="M60 750h158v-440h2l132 211h164l-163 -239l174 -282h-176l-131 247h-2v-247h-158v750z" />
    <glyph glyph-name="l" unicode="l" horiz-adv-x="278" 
d="M60 750h158v-750h-158v750z" />
    <glyph glyph-name="m" unicode="m" horiz-adv-x="834" 
d="M621 321q0 45 -17 63.5t-43 18.5q-35 0 -50 -22t-15 -51v-330h-158v321q0 25 -5 41t-13 25t-17.5 12.5t-19.5 3.5q-39 0 -54.5 -30.5t-15.5 -80.5v-292h-158v412q0 38 -1 63.5t-3 45.5h144q2 -17 3 -39t1 -48h2q18 43 51 69t96 26q57 0 87.5 -24t47.5 -63q17 37 49 62
t94 25q43 0 72.5 -14.5t47.5 -40t25.5 -60t7.5 -73.5v-341h-158v321z" />
    <glyph glyph-name="n" unicode="n" horiz-adv-x="556" 
d="M343 321q0 49 -18.5 65.5t-42.5 16.5q-38 0 -53.5 -30t-15.5 -81v-292h-158v412q0 38 -1 63.5t-3 45.5h144q2 -17 3 -39t1 -48h2q18 43 51 69t96 26q43 0 72.5 -14.5t47.5 -40t25.5 -60t7.5 -73.5v-341h-158v321z" />
    <glyph glyph-name="o" unicode="o" horiz-adv-x="574" 
d="M42 262q0 59 16 108t46.5 84t76.5 55t106 20t106 -20t76.5 -55t46.5 -84t16 -108t-16 -108.5t-46.5 -85.5t-76.5 -56t-106 -20t-106 20t-76.5 56t-46.5 85.5t-16 108.5zM206 262q0 -77 19.5 -119.5t61.5 -42.5t61.5 42.5t19.5 119.5t-19.5 118t-61.5 41t-61.5 -41
t-19.5 -118z" />
    <glyph glyph-name="p" unicode="p" horiz-adv-x="574" 
d="M55 404q0 50 -1 74.5t-3 42.5h150q2 -15 3 -35.5t1 -47.5h2q6 12 16 27.5t26.5 30t41 24t58.5 9.5q44 0 78 -20.5t57.5 -57.5t35.5 -89t12 -114q0 -52 -10 -99t-32 -81.5t-57 -55t-84 -20.5q-55 0 -87.5 25t-46.5 60h-2v-293h-158v620zM368 261q0 20 -1.5 46.5t-9 50.5
t-23 40.5t-42.5 16.5q-24 0 -39.5 -15.5t-24.5 -39t-12 -50t-3 -49.5q0 -31 3.5 -60t12 -51.5t24 -36t39.5 -13.5q26 0 41.5 13.5t23 36t9.5 51.5t2 60z" />
    <glyph glyph-name="q" unicode="q" horiz-adv-x="574" 
d="M519 -216h-158v293h-2q-14 -35 -46.5 -60t-87.5 -25q-49 0 -84 20.5t-57 55t-32 81.5t-10 99q0 62 12 114t35.5 89t57.5 57.5t78 20.5q34 0 58.5 -9.5t41 -24t26.5 -30t16 -27.5h2q0 27 1 47.5t3 35.5h150q-2 -18 -3 -42.5t-1 -74.5v-620zM206 261q0 -31 2 -60t9.5 -51.5
t23 -36t41.5 -13.5q24 0 39.5 13.5t24 36t12 51.5t3.5 60q0 23 -3 49.5t-12 50t-24.5 39t-39.5 15.5q-27 0 -42 -16.5t-22.5 -40.5t-9.5 -50.5t-2 -46.5z" />
    <glyph glyph-name="r" unicode="r" horiz-adv-x="389" 
d="M55 412q0 38 -1 63.5t-3 45.5h144q1 -23 2 -47t2 -47h2q12 21 23.5 39.5t27 32.5t38 22t56.5 8h23v-146q-13 3 -24.5 4.5t-28.5 1.5q-34 0 -54.5 -13.5t-31.5 -36t-14 -50t-3 -56.5v-233h-158v412z" />
    <glyph glyph-name="s" unicode="s" horiz-adv-x="426" 
d="M365 390q-32 13 -62 20.5t-65 7.5q-31 0 -45 -12t-14 -26q0 -12 5 -20.5t17.5 -17t33.5 -17t53 -20.5q20 -7 39.5 -18t35 -28.5t25 -43t9.5 -62.5q0 -43 -15 -74t-41.5 -50t-61.5 -28t-74 -9q-35 0 -82 5t-89 20l4 122q29 -17 63 -26.5t67 -9.5q28 0 43.5 4.5t23.5 11.5
t10 15.5t2 17.5q0 17 -29 28.5t-80 32.5q-21 9 -40.5 22t-34.5 32t-24.5 45t-9.5 61q0 21 8.5 48t30.5 51t60 40.5t96 16.5q49 0 87 -7t58 -14z" />
    <glyph glyph-name="t" unicode="t" horiz-adv-x="389" 
d="M14 521h90v107l154 49v-156h102v-111h-102v-239q0 -38 15 -51.5t38 -13.5q17 0 28.5 3t23.5 8v-111q-12 -5 -42 -9.5t-68 -4.5q-31 0 -58.5 8t-48.5 26t-33.5 47.5t-12.5 72.5v264h-86v111z" />
    <glyph glyph-name="u" unicode="u" horiz-adv-x="556" 
d="M501 109q0 -38 1 -63.5t3 -45.5h-144q-2 17 -3 39t-1 48h-2q-18 -43 -51 -69t-96 -26q-43 0 -72.5 15t-47.5 40.5t-25.5 59.5t-7.5 73v341h158v-321q0 -49 18.5 -65.5t42.5 -16.5q38 0 53.5 30t15.5 81v292h158v-412z" />
    <glyph glyph-name="v" unicode="v" horiz-adv-x="519" 
d="M4 521h164l96 -371h2l95 371h154l-163 -521h-186z" />
    <glyph glyph-name="w" unicode="w" horiz-adv-x="796" 
d="M163 521l76 -371h2l74 371h180l71 -371h2l73 371h150l-139 -521h-168l-85 381h-2l-80 -381h-172l-140 521h158z" />
    <glyph glyph-name="x" unicode="x" horiz-adv-x="519" 
d="M257 175l-88 -175h-164l163 278l-148 243h176l73 -156l71 156h164l-148 -243l158 -278h-176z" />
    <glyph glyph-name="y" unicode="y" horiz-adv-x="519" 
d="M330 -48q-29 -92 -72.5 -133t-109.5 -41q-21 0 -48 3.5t-47 9.5l5 117q8 -5 20.5 -8.5t29.5 -3.5q20 0 34.5 10t24.5 25t14.5 33.5t4.5 35.5l-181 521h164l97 -353h2l92 353h154z" />
    <glyph glyph-name="z" unicode="z" horiz-adv-x="426" 
d="M33 521h361v-129l-195 -274h200v-118h-372v130l199 273h-193v118z" />
    <glyph glyph-name="braceleft" unicode="{" horiz-adv-x="333" 
d="M18 351q14 0 29 4.5t27 15.5t20 28.5t8 44.5v177q0 35 12.5 60.5t33.5 42t47 24.5t53 8h75v-80h-45q-33 0 -41.5 -19.5t-8.5 -53.5v-173q0 -35 -11.5 -58t-28.5 -36.5t-36.5 -19t-35.5 -7.5v-2q16 -1 35.5 -6t36.5 -18.5t28.5 -38t11.5 -65.5v-166q0 -35 8.5 -54
t41.5 -19h45v-80h-75q-28 0 -54.5 8.5t-47 25t-32.5 42t-12 59.5v170q0 29 -8 48t-20 30.5t-27 16.5t-29 5v86z" />
    <glyph glyph-name="bar" unicode="|" horiz-adv-x="222" 
d="M59 750h104v-1000h-104v1000z" />
    <glyph glyph-name="braceright" unicode="}" horiz-adv-x="333" 
d="M315 265q-14 0 -29 -5t-27 -16.5t-20 -30.5t-8 -48v-170q0 -34 -12 -59.5t-32.5 -42t-46.5 -25t-55 -8.5h-75v80h45q33 0 41.5 19t8.5 54v166q0 41 11.5 65.5t28.5 38t36.5 18.5t35.5 6v2q-16 2 -35.5 7.5t-36.5 19t-28.5 36.5t-11.5 58v173q0 34 -8.5 53.5t-41.5 19.5
h-45v80h75q27 0 53 -8t47 -24.5t33.5 -42t12.5 -60.5v-177q0 -27 8 -44.5t20 -28.5t27 -15.5t29 -4.5v-86z" />
    <glyph glyph-name="asciitilde" unicode="~" horiz-adv-x="600" 
d="M69 252q8 16 19 31.5t26 28t33.5 20.5t42.5 8q38 0 65.5 -10.5t51.5 -23.5q26 -13 51.5 -24.5t53.5 -11.5q26 0 46 22.5t37 48.5l36 -87q-9 -16 -21 -31.5t-26.5 -28t-31 -20.5t-36.5 -8q-35 0 -62.5 10.5t-53.5 24.5t-51 24.5t-58 10.5q-35 0 -54.5 -22.5t-31.5 -48.5z
" />
    <glyph glyph-name="exclamdown" unicode="&#xa1;" horiz-adv-x="388" 
d="M266 371h-144v150h144v-150zM115 -177l20 476h118l20 -476h-158z" />
    <glyph glyph-name="cent" unicode="&#xa2;" horiz-adv-x="520" 
d="M320 403q-34 -7 -52 -29t-26.5 -46.5t-10 -46t-1.5 -28.5q0 -46 14 -75t36 -46zM332 110q12 -3 26 -3q25 0 47.5 7.5t43.5 15.5l5 -120q-33 -9 -67.5 -15t-72.5 -7l-18 -123h-54l19 127q-59 10 -97 40t-59.5 68t-30 79t-8.5 74q0 60 17 111t50 87.5t81 57t110 20.5h14
l17 114h54l-17 -122q14 -4 27.5 -8.5t30.5 -9.5l-8 -120q-16 6 -32.5 11.5t-34.5 8.5z" />
    <glyph glyph-name="sterling" unicode="&#xa3;" horiz-adv-x="520" 
d="M110 324h-70v90h70v63q0 49 12.5 91.5t40.5 74t73.5 49.5t111.5 18q41 0 72 -5t57 -12l-6 -118q-20 8 -44 14.5t-55 6.5q-63 0 -87.5 -33t-24.5 -96v-53h152v-90h-152v-206h220v-118h-440v118h70v206z" />
    <glyph glyph-name="currency" unicode="&#xa4;" horiz-adv-x="520" 
d="M502 536l-53 -53q42 -62 42 -134q0 -69 -42 -134l53 -53l-55 -55l-53 53q-64 -42 -134 -42t-134 42l-53 -53l-55 55l53 53q-42 63 -42 134q0 70 42 134l-53 53l55 55l53 -53q31 21 65 31.5t69 10.5q70 0 134 -42l53 53zM260 214q26 0 49.5 10.5t40.5 29t27 43t10 52.5
t-10 52.5t-27 43t-40.5 29t-49.5 10.5t-49 -10.5t-40.5 -29t-27.5 -43t-10 -52.5t10 -52.5t27.5 -43t40.5 -29t49 -10.5z" />
    <glyph glyph-name="yen" unicode="&#xa5;" horiz-adv-x="520" 
d="M46 386h93l-129 312h150l103 -292h2l95 292h150l-128 -312h92v-104h-135l-7 -18v-48h142v-104h-142v-112h-144v112h-142v104h142v51l-7 15h-135v104z" />
    <glyph glyph-name="brokenbar" unicode="&#xa6;" horiz-adv-x="222" 
d="M59 175h104v-350h-104v350zM59 675h104v-350h-104v350z" />
    <glyph glyph-name="section" unicode="&#xa7;" horiz-adv-x="519" 
d="M417 567q-26 12 -63 23.5t-66 11.5t-49 -13t-20 -39q0 -10 2.5 -17.5t11 -15t25 -17t44.5 -24.5q39 -21 69.5 -39t51.5 -38t32 -45t11 -61q0 -27 -8 -48t-19.5 -37.5t-25 -29.5t-25.5 -23q25 -15 43 -46.5t18 -69.5q0 -29 -11.5 -59t-36.5 -55t-65.5 -40.5t-99.5 -15.5
q-45 0 -91 11t-85 26l12 118q38 -17 72 -30.5t76 -13.5q33 0 54 17t21 42t-17 41t-46 32l-69 38q-21 12 -41 26.5t-35.5 33t-24.5 40.5t-9 48t9.5 49.5t23 41.5t28.5 29.5t26 14.5q-38 27 -54.5 56t-16.5 70q0 23 10 49.5t32.5 49t59.5 37.5t92 15q25 0 51 -3t48.5 -7.5
t40 -9.5t25.5 -8zM183 325q0 -34 29.5 -62t95.5 -59q17 17 22.5 38t5.5 29q0 33 -29 61t-94 59q-20 -20 -25 -38t-5 -28z" />
    <glyph glyph-name="dieresis" unicode="&#xa8;" horiz-adv-x="222" 
d="M-34 731h118v-126h-118v126zM138 731h118v-126h-118v126z" />
    <glyph glyph-name="copyright" unicode="&#xa9;" horiz-adv-x="800" 
d="M400 624q-54 0 -101 -20.5t-81.5 -57t-54.5 -87t-20 -110.5t20 -110.5t54.5 -87t81.5 -57t101 -20.5t100.5 20.5t81.5 57t55 87t20 110.5t-20 110.5t-55 87t-81.5 57t-100.5 20.5zM582 291q-6 -37 -21.5 -65t-39 -47.5t-52 -29.5t-59.5 -10q-43 0 -79.5 16.5t-62 45
t-40 67.5t-14.5 84q0 46 14 85t39.5 67.5t61.5 44.5t81 16q66 0 113.5 -38t58.5 -112h-80q-7 35 -33 52.5t-59 17.5q-52 0 -79 -36.5t-27 -95.5q0 -28 7.5 -52.5t21.5 -42.5t33.5 -28.5t43.5 -10.5q38 0 63 18.5t29 53.5h80zM39 349q0 75 28.5 140.5t77.5 114.5t114.5 77.5
t140.5 28.5t140.5 -28.5t114.5 -77.5t77.5 -114.5t28.5 -140.5t-28.5 -140.5t-77.5 -114.5t-114.5 -77.5t-140.5 -28.5t-140.5 28.5t-114.5 77.5t-77.5 114.5t-28.5 140.5z" />
    <glyph glyph-name="ordfeminine" unicode="&#xaa;" horiz-adv-x="349" 
d="M321 484q0 -35 0.5 -53.5t2.5 -34.5h-96l-3 42h-2q-1 -6 -9 -14t-20.5 -15t-28.5 -12t-35 -5q-48 0 -76.5 26t-28.5 68q0 38 21 59t49.5 30.5t56.5 11t41 1.5h32q0 21 -7.5 32.5t-17.5 16.5t-20 6t-16 1q-20 0 -42 -5.5t-52 -22.5l-5 75q20 5 50.5 12t58.5 7
q45 0 73.5 -8t45 -23t22.5 -36.5t6 -47.5v-111zM121 489q0 -14 5.5 -21.5t13 -11t15 -4t10.5 -0.5q33 0 46.5 22.5t13.5 51.5v17q-13 0 -31 -1.5t-34.5 -6.5t-27.5 -16t-11 -30z" />
    <glyph glyph-name="guillemotleft" unicode="&#xab;" horiz-adv-x="520" 
d="M135 467h125l-90 -207l90 -207h-125l-99 207zM340 467h125l-90 -207l90 -207h-125l-99 207z" />
    <glyph glyph-name="logicalnot" unicode="&#xac;" horiz-adv-x="600" 
d="M449 310h-402v104h506v-306h-104v202z" />
    <glyph glyph-name="registered" unicode="&#xae;" horiz-adv-x="800" 
d="M261 545h139q70 0 109 -25t39 -91q0 -53 -27 -76t-65 -27l98 -168h-92l-86 164h-35v-164h-80v387zM341 388h60q30 0 48.5 8.5t18.5 40.5q0 14 -7 22t-18 12.5t-24.5 6t-26.5 1.5h-51v-91zM143 349q0 -60 20 -110.5t54.5 -87t81.5 -57t101 -20.5t100.5 20.5t81.5 57t55 87
t20 110.5t-20 110.5t-55 87t-81.5 57t-100.5 20.5t-101 -20.5t-81.5 -57t-54.5 -87t-20 -110.5zM39 349q0 75 28.5 140.5t77.5 114.5t114.5 77.5t140.5 28.5t140.5 -28.5t114.5 -77.5t77.5 -114.5t28.5 -140.5t-28.5 -140.5t-77.5 -114.5t-114.5 -77.5t-140.5 -28.5
t-140.5 28.5t-114.5 77.5t-77.5 114.5t-28.5 140.5z" />
    <glyph glyph-name="macron" unicode="&#xaf;" horiz-adv-x="222" 
d="M-36 697h294v-86h-294v86z" />
    <glyph glyph-name="degree" unicode="&#xb0;" horiz-adv-x="400" 
d="M38 548q0 33 13 62.5t35 51.5t51.5 35t62.5 13t62.5 -13t51.5 -35t35 -51.5t13 -62.5t-13 -62.5t-35 -51.5t-51.5 -35t-62.5 -13t-62.5 13t-51.5 35t-35 51.5t-13 62.5zM118 548q0 -34 24 -58t58 -24t58 24t24 58t-24 58t-58 24t-58 -24t-24 -58z" />
    <glyph glyph-name="plusminus" unicode="&#xb1;" horiz-adv-x="600" 
d="M248 506h104v-132h201v-104h-201v-132h-104v132h-201v104h201v132zM47 104h506v-104h-506v104z" />
    <glyph glyph-name="twosuperior" unicode="&#xb2;" horiz-adv-x="338" 
d="M28 357l33 34q17 18 39.5 40t43 46t35 48.5t14.5 46.5q0 23 -16.5 37.5t-44.5 14.5q-21 0 -46.5 -10.5t-42.5 -22.5l-8 95q36 10 67.5 17t66.5 7q60 0 99 -32t39 -86q0 -33 -16.5 -66t-39 -62.5t-46.5 -53.5t-40 -38l-10 -10h155v-80h-282v75z" />
    <glyph glyph-name="threesuperior" unicode="&#xb3;" horiz-adv-x="338" 
d="M86 535q15 0 34 0.5t36.5 5t29.5 13.5t12 25q0 25 -21 38t-47 13q-23 0 -45 -7l-44 -14l-5 82q38 10 69.5 14.5t70.5 4.5q22 0 45 -6.5t42 -20t31 -35t12 -51.5q0 -38 -27.5 -60t-62.5 -33v-2q18 -2 35.5 -9t31 -19.5t21.5 -31t8 -44.5q0 -34 -17.5 -57t-44 -37t-58 -20
t-58.5 -6q-10 0 -25 1.5t-31 4t-30 6t-22 6.5l5 84q36 -13 53 -17.5t36 -4.5q23 0 38 6t24 14t12.5 17.5t3.5 15.5q0 17 -7.5 27t-19 15t-25.5 6.5t-28 1.5h-32v74z" />
    <glyph glyph-name="acute" unicode="&#xb4;" horiz-adv-x="222" 
d="M87 729h138l-100 -146h-92z" />
    <glyph glyph-name="mu" unicode="&#xb5;" horiz-adv-x="556" 
d="M55 521h158v-321q0 -49 18.5 -65.5t42.5 -16.5q38 0 53.5 30t15.5 81v292h158v-412q0 -38 1 -63.5t3 -45.5h-144q-2 17 -3 39t-1 48h-2q-7 -17 -17.5 -34t-24.5 -30.5t-31.5 -22t-37.5 -8.5q-33 0 -43 22h-2v-230h-144v737z" />
    <glyph glyph-name="paragraph" unicode="&#xb6;" horiz-adv-x="620" 
d="M221 341q-37 0 -69.5 12.5t-57 35.5t-38.5 55t-14 72q0 58 18 93.5t50 55t76 26.5t96 7h253v-822h-104v742h-106v-742h-104v465z" />
    <glyph glyph-name="periodcentered" unicode="&#xb7;" horiz-adv-x="260" 
d="M130 201q-35 0 -56 21.5t-21 55.5t21 55.5t56 21.5t56 -21.5t21 -55.5t-21 -55.5t-56 -21.5z" />
    <glyph glyph-name="cedilla" unicode="&#xb8;" horiz-adv-x="222" 
d="M147 7l-38 -63q15 5 34 5q37 0 60.5 -21.5t23.5 -58.5q0 -23 -10.5 -40t-28 -28.5t-39 -17t-42.5 -5.5q-35 0 -67 7.5t-40 13.5l19 46q7 -3 24.5 -10t46.5 -7q23 0 37 9.5t14 32.5q0 14 -13 23.5t-30 9.5q-15 0 -23 -2.5t-14 -5.5l-22 18l54 94h54z" />
    <glyph glyph-name="onesuperior" unicode="&#xb9;" horiz-adv-x="338" 
d="M234 282h-111v310l-57 -52l-49 68l127 98h90v-424z" />
    <glyph glyph-name="ordmasculine" unicode="&#xba;" horiz-adv-x="370" 
d="M185 710q79 0 119.5 -44t40.5 -112q0 -72 -40.5 -117t-119.5 -45q-78 0 -119 45t-41 117q0 68 41 112t119 44zM185 458q26 0 39 25.5t13 70.5q0 42 -13 66t-39 24t-39 -24t-13 -66q0 -45 13 -70.5t39 -25.5z" />
    <glyph glyph-name="guillemotright" unicode="&#xbb;" horiz-adv-x="520" 
d="M484 260l-99 -207h-125l90 207l-90 207h125zM279 260l-99 -207h-125l90 207l-90 207h125z" />
    <glyph glyph-name="onequarter" unicode="&#xbc;" horiz-adv-x="778" 
d="M592 316h-2l-89 -166h91v166zM421 167l153 257h122v-274h42v-74h-42v-76h-108v76h-167v91zM484 731h90l-315 -764h-90zM234 282h-111v310l-57 -52l-49 68l127 98h90v-424z" />
    <glyph glyph-name="onehalf" unicode="&#xbd;" horiz-adv-x="778" 
d="M466 731h90l-315 -764h-90zM234 282h-111v310l-57 -52l-49 68l127 98h90v-424zM456 75l33 34q17 18 39.5 40t43 46t35 48.5t14.5 46.5q0 23 -16.5 37.5t-44.5 14.5q-21 0 -46.5 -10.5t-42.5 -22.5l-8 95q36 10 67.5 17t66.5 7q60 0 99 -32t39 -86q0 -33 -16.5 -66
t-39 -62.5t-46.5 -53.5t-40 -38l-10 -10h155v-80h-282v75z" />
    <glyph glyph-name="threequarters" unicode="&#xbe;" horiz-adv-x="778" 
d="M592 316h-2l-89 -166h91v166zM421 167l153 257h122v-274h42v-74h-42v-76h-108v76h-167v91zM502 731h90l-315 -764h-90zM86 535q15 0 34 0.5t36.5 5t29.5 13.5t12 25q0 25 -21 38t-47 13q-23 0 -45 -7l-44 -14l-5 82q38 10 69.5 14.5t70.5 4.5q22 0 45 -6.5t42 -20t31 -35
t12 -51.5q0 -38 -27.5 -60t-62.5 -33v-2q18 -2 35.5 -9t31 -19.5t21.5 -31t8 -44.5q0 -34 -17.5 -57t-44 -37t-58 -20t-58.5 -6q-10 0 -25 1.5t-31 4t-30 6t-22 6.5l5 84q36 -13 53 -17.5t36 -4.5q23 0 38 6t24 14t12.5 17.5t3.5 15.5q0 17 -7.5 27t-19 15t-25.5 6.5
t-28 1.5h-32v74z" />
    <glyph glyph-name="questiondown" unicode="&#xbf;" horiz-adv-x="463" 
d="M297 264q0 -35 -16.5 -63t-36 -55.5t-36 -57t-16.5 -67.5q0 -45 25.5 -64.5t71.5 -19.5q49 0 76.5 12t41.5 20l6 -129q-19 -8 -62.5 -18.5t-99.5 -10.5q-46 0 -86.5 10t-71 31.5t-48 55.5t-17.5 82q0 51 21 92t46.5 75.5t46.5 64.5t21 60v16h134v-34zM303 371h-144v150
h144v-150z" />
    <glyph glyph-name="Agrave" unicode="&#xc0;" horiz-adv-x="648" 
d="M431 156h-219l-48 -156h-158l232 698h180l224 -698h-168zM327 564h-2l-83 -290h157zM290 738l-98 110h147l54 -110h-103z" />
    <glyph glyph-name="Aacute" unicode="&#xc1;" horiz-adv-x="648" 
d="M431 156h-219l-48 -156h-158l232 698h180l224 -698h-168zM327 564h-2l-83 -290h157zM313 848h147l-98 -110h-103z" />
    <glyph glyph-name="Acircumflex" unicode="&#xc2;" horiz-adv-x="648" 
d="M431 156h-219l-48 -156h-158l232 698h180l224 -698h-168zM327 564h-2l-83 -290h157zM403 848l77 -110h-107l-49 61l-49 -61h-107l77 110h158z" />
    <glyph glyph-name="Atilde" unicode="&#xc3;" horiz-adv-x="648" 
d="M431 156h-219l-48 -156h-158l232 698h180l224 -698h-168zM327 564h-2l-83 -290h157zM167 733q2 21 8 43t18 39.5t29 28.5t40 11q20 0 37 -5.5t31.5 -12.5t27 -12.5t22.5 -5.5q15 0 20 12.5t7 23.5h74q0 -3 -2 -22t-11.5 -41.5t-28.5 -40.5t-53 -18q-17 0 -34 5.5
t-32.5 12.5t-29 12.5t-22.5 5.5q-8 0 -13 -4.5t-8 -10.5t-4.5 -12t-1.5 -9h-74z" />
    <glyph glyph-name="Adieresis" unicode="&#xc4;" horiz-adv-x="648" 
d="M431 156h-219l-48 -156h-158l232 698h180l224 -698h-168zM327 564h-2l-83 -290h157zM179 861h118v-126h-118v126zM351 861h118v-126h-118v126z" />
    <glyph glyph-name="Aring" unicode="&#xc5;" horiz-adv-x="648" 
d="M431 156h-219l-48 -156h-158l232 698h180l224 -698h-168zM327 564h-2l-83 -290h157zM237 791q0 37 26 63t63 26t63 -26t26 -63t-26 -63t-63 -26t-63 26t-26 63zM280 791q0 -19 13.5 -32.5t32.5 -13.5t32.5 13.5t13.5 32.5t-13.5 32.5t-32.5 13.5t-32.5 -13.5t-13.5 -32.5
z" />
    <glyph glyph-name="AE" unicode="&#xc6;" horiz-adv-x="870" 
d="M432 156h-189l-65 -156h-172l319 698h489v-122h-228v-156h214v-122h-214v-176h238v-122h-392v156zM432 590h-2l-138 -316h140v316z" />
    <glyph glyph-name="Ccedilla" unicode="&#xc7;" horiz-adv-x="574" 
d="M308 -6q-59 11 -107 40.5t-82.5 75.5t-53.5 107.5t-19 134.5q0 96 29 164t74.5 111t101.5 63t109 20q78 0 121 -13t63 -21l-8 -136q-19 11 -52 25.5t-90 14.5q-41 0 -74.5 -16t-57 -46t-36 -72.5t-12.5 -95.5q0 -51 14 -93t38.5 -72t58 -46.5t72.5 -16.5q30 0 54 5
t41.5 11t29.5 12l18 9l6 -146q-21 -7 -64.5 -16t-110.5 -9h-13l-27 -44q15 5 34 5q37 0 60.5 -21.5t23.5 -58.5q0 -23 -10.5 -40t-28 -28.5t-39 -17t-42.5 -5.5q-35 0 -67 7.5t-40 13.5l19 46q7 -3 24.5 -10t46.5 -7q23 0 37 9.5t14 32.5q0 14 -13 23.5t-30 9.5
q-15 0 -23 -2.5t-14 -5.5l-22 18z" />
    <glyph glyph-name="Egrave" unicode="&#xc8;" horiz-adv-x="519" 
d="M66 698h403v-122h-245v-156h233v-122h-233v-176h257v-122h-415v698zM263 738l-98 110h147l54 -110h-103z" />
    <glyph glyph-name="Eacute" unicode="&#xc9;" horiz-adv-x="519" 
d="M66 698h403v-122h-245v-156h233v-122h-233v-176h257v-122h-415v698zM268 848h147l-98 -110h-103z" />
    <glyph glyph-name="Ecircumflex" unicode="&#xca;" horiz-adv-x="519" 
d="M66 698h403v-122h-245v-156h233v-122h-233v-176h257v-122h-415v698zM349 848l77 -110h-107l-49 61l-49 -61h-107l77 110h158z" />
    <glyph glyph-name="Edieresis" unicode="&#xcb;" horiz-adv-x="519" 
d="M66 698h403v-122h-245v-156h233v-122h-233v-176h257v-122h-415v698zM127 861h118v-126h-118v126zM299 861h118v-126h-118v126z" />
    <glyph glyph-name="Igrave" unicode="&#xcc;" horiz-adv-x="296" 
d="M66 698h164v-698h-164v698zM118 738l-98 110h147l54 -110h-103z" />
    <glyph glyph-name="Iacute" unicode="&#xcd;" horiz-adv-x="296" 
d="M66 698h164v-698h-164v698zM134 848h147l-98 -110h-103z" />
    <glyph glyph-name="Icircumflex" unicode="&#xce;" horiz-adv-x="296" 
d="M66 698h164v-698h-164v698zM227 848l77 -110h-107l-49 61l-49 -61h-107l77 110h158z" />
    <glyph glyph-name="Idieresis" unicode="&#xcf;" horiz-adv-x="296" 
d="M66 698h164v-698h-164v698zM3 861h118v-126h-118v126zM175 861h118v-126h-118v126z" />
    <glyph glyph-name="Eth" unicode="&#xd0;" horiz-adv-x="667" 
d="M0 414h66v284h248q59 0 115 -18.5t100 -60.5t70.5 -109.5t26.5 -166.5q0 -90 -27.5 -155t-73 -107t-106 -61.5t-126.5 -19.5h-227v300h-66v114zM332 300h-102v-178h52q45 0 77.5 16.5t53.5 46t31 70t10 88.5q0 108 -43.5 170.5t-138.5 62.5h-42v-162h102v-114z" />
    <glyph glyph-name="Ntilde" unicode="&#xd1;" horiz-adv-x="667" 
d="M63 698h192l203 -484h2v484h144v-698h-194l-201 505h-2v-505h-144v698zM177 733q2 21 8 43t18 39.5t29 28.5t40 11q20 0 37 -5.5t31.5 -12.5t27 -12.5t22.5 -5.5q15 0 20 12.5t7 23.5h74q0 -3 -2 -22t-11.5 -41.5t-28.5 -40.5t-53 -18q-17 0 -34 5.5t-32.5 12.5t-29 12.5
t-22.5 5.5q-8 0 -13 -4.5t-8 -10.5t-4.5 -12t-1.5 -9h-74z" />
    <glyph glyph-name="Ograve" unicode="&#xd2;" horiz-adv-x="685" 
d="M46 349q0 77 18 143t54.5 114.5t92.5 76t131 27.5t131 -27.5t93 -76t55 -114.5t18 -143t-18 -143t-55 -114.5t-93 -76t-131 -27.5t-131 27.5t-92.5 76t-54.5 114.5t-18 143zM214 349q0 -50 6.5 -94.5t21.5 -77.5t39.5 -52t60.5 -19t60.5 19t39.5 52t22 77.5t7 94.5
t-7 94.5t-22 77.5t-39.5 52t-60.5 19t-60.5 -19t-39.5 -52t-21.5 -77.5t-6.5 -94.5zM312 738l-98 110h147l54 -110h-103z" />
    <glyph glyph-name="Oacute" unicode="&#xd3;" horiz-adv-x="685" 
d="M46 349q0 77 18 143t54.5 114.5t92.5 76t131 27.5t131 -27.5t93 -76t55 -114.5t18 -143t-18 -143t-55 -114.5t-93 -76t-131 -27.5t-131 27.5t-92.5 76t-54.5 114.5t-18 143zM214 349q0 -50 6.5 -94.5t21.5 -77.5t39.5 -52t60.5 -19t60.5 19t39.5 52t22 77.5t7 94.5
t-7 94.5t-22 77.5t-39.5 52t-60.5 19t-60.5 -19t-39.5 -52t-21.5 -77.5t-6.5 -94.5zM334 848h147l-98 -110h-103z" />
    <glyph glyph-name="Ocircumflex" unicode="&#xd4;" horiz-adv-x="685" 
d="M46 349q0 77 18 143t54.5 114.5t92.5 76t131 27.5t131 -27.5t93 -76t55 -114.5t18 -143t-18 -143t-55 -114.5t-93 -76t-131 -27.5t-131 27.5t-92.5 76t-54.5 114.5t-18 143zM214 349q0 -50 6.5 -94.5t21.5 -77.5t39.5 -52t60.5 -19t60.5 19t39.5 52t22 77.5t7 94.5
t-7 94.5t-22 77.5t-39.5 52t-60.5 19t-60.5 -19t-39.5 -52t-21.5 -77.5t-6.5 -94.5zM419 848l77 -110h-107l-49 61l-49 -61h-107l77 110h158z" />
    <glyph glyph-name="Otilde" unicode="&#xd5;" horiz-adv-x="685" 
d="M46 349q0 77 18 143t54.5 114.5t92.5 76t131 27.5t131 -27.5t93 -76t55 -114.5t18 -143t-18 -143t-55 -114.5t-93 -76t-131 -27.5t-131 27.5t-92.5 76t-54.5 114.5t-18 143zM214 349q0 -50 6.5 -94.5t21.5 -77.5t39.5 -52t60.5 -19t60.5 19t39.5 52t22 77.5t7 94.5
t-7 94.5t-22 77.5t-39.5 52t-60.5 19t-60.5 -19t-39.5 -52t-21.5 -77.5t-6.5 -94.5zM186 733q2 21 8 43t18 39.5t29 28.5t40 11q20 0 37 -5.5t31.5 -12.5t27 -12.5t22.5 -5.5q15 0 20 12.5t7 23.5h74q0 -3 -2 -22t-11.5 -41.5t-28.5 -40.5t-53 -18q-17 0 -34 5.5t-32.5 12.5
t-29 12.5t-22.5 5.5q-8 0 -13 -4.5t-8 -10.5t-4.5 -12t-1.5 -9h-74z" />
    <glyph glyph-name="Odieresis" unicode="&#xd6;" horiz-adv-x="685" 
d="M46 349q0 77 18 143t54.5 114.5t92.5 76t131 27.5t131 -27.5t93 -76t55 -114.5t18 -143t-18 -143t-55 -114.5t-93 -76t-131 -27.5t-131 27.5t-92.5 76t-54.5 114.5t-18 143zM214 349q0 -50 6.5 -94.5t21.5 -77.5t39.5 -52t60.5 -19t60.5 19t39.5 52t22 77.5t7 94.5
t-7 94.5t-22 77.5t-39.5 52t-60.5 19t-60.5 -19t-39.5 -52t-21.5 -77.5t-6.5 -94.5zM198 861h118v-126h-118v126zM370 861h118v-126h-118v126z" />
    <glyph glyph-name="multiply" unicode="&#xd7;" horiz-adv-x="600" 
d="M65 414l74 74l161 -162l161 162l74 -74l-161 -161l161 -161l-74 -74l-161 161l-161 -161l-74 74l162 161z" />
    <glyph glyph-name="Oslash" unicode="&#xd8;" horiz-adv-x="685" 
d="M442 520q-14 33 -39 52.5t-61 19.5t-60.5 -19t-39.5 -52t-21.5 -77.5t-6.5 -94.5q0 -28 2 -54t6 -49zM243 177q15 -33 39.5 -52t59.5 -19q36 0 60.5 19t39.5 52t22 77.5t7 94.5q0 57 -9 103zM110 105q-32 48 -48 110t-16 134q0 77 18 143t54.5 114.5t92.5 76t131 27.5
q63 0 111 -18.5t83 -52.5l65 81l46 -36l-72 -91q32 -48 48 -110t16 -134q0 -77 -18 -143t-55 -114.5t-93 -76t-131 -27.5q-62 0 -110 18.5t-83 52.5l-65 -81l-46 36z" />
    <glyph glyph-name="Ugrave" unicode="&#xd9;" horiz-adv-x="630" 
d="M59 698h164v-471q0 -53 21 -83t71 -30t71 30t21 83v471h164v-445q0 -130 -69 -197.5t-187 -67.5t-187 67.5t-69 197.5v445zM292 738l-98 110h147l54 -110h-103z" />
    <glyph glyph-name="Uacute" unicode="&#xda;" horiz-adv-x="630" 
d="M59 698h164v-471q0 -53 21 -83t71 -30t71 30t21 83v471h164v-445q0 -130 -69 -197.5t-187 -67.5t-187 67.5t-69 197.5v445zM309 848h147l-98 -110h-103z" />
    <glyph glyph-name="Ucircumflex" unicode="&#xdb;" horiz-adv-x="630" 
d="M59 698h164v-471q0 -53 21 -83t71 -30t71 30t21 83v471h164v-445q0 -130 -69 -197.5t-187 -67.5t-187 67.5t-69 197.5v445zM396 848l77 -110h-107l-49 61l-49 -61h-107l77 110h158z" />
    <glyph glyph-name="Udieresis" unicode="&#xdc;" horiz-adv-x="630" 
d="M59 698h164v-471q0 -53 21 -83t71 -30t71 30t21 83v471h164v-445q0 -130 -69 -197.5t-187 -67.5t-187 67.5t-69 197.5v445zM170 861h118v-126h-118v126zM342 861h118v-126h-118v126z" />
    <glyph glyph-name="Yacute" unicode="&#xdd;" horiz-adv-x="592" 
d="M214 267l-212 431h188l112 -270l104 270h184l-212 -434v-264h-164v267zM289 848h147l-98 -110h-103z" />
    <glyph glyph-name="Thorn" unicode="&#xde;" horiz-adv-x="556" 
d="M224 293h52q38 0 63 25.5t25 74.5q0 52 -24 75.5t-73 23.5h-43v-199zM66 698h164v-84h59q112 0 175.5 -54t63.5 -168q0 -45 -12.5 -85t-39.5 -70t-68.5 -48t-98.5 -18h-79v-171h-164v698z" />
    <glyph glyph-name="germandbls" unicode="&#xdf;" horiz-adv-x="574" 
d="M60 539q0 47 14 87.5t43 70.5t72.5 47.5t102.5 17.5q73 0 116 -23t65.5 -54.5t29.5 -64t7 -51.5q0 -44 -12 -75.5t-31 -52.5t-41 -31.5t-42 -12.5v-2q76 -11 112 -60.5t36 -129.5q0 -36 -10 -74t-34 -68.5t-62.5 -50.5t-95.5 -20q-17 0 -38.5 2.5t-31.5 5.5l6 114
q4 -3 11.5 -5.5t18.5 -2.5q35 0 56.5 28t21.5 85q0 31 -5 52.5t-17 34.5t-32 19.5t-50 7.5v114q7 0 22.5 1.5t31 11.5t27.5 31.5t12 61.5q0 9 -1.5 26t-8 33.5t-21 29t-40.5 12.5q-28 0 -43 -12t-22 -32.5t-8 -46.5t-1 -53v-510h-158v539z" />
    <glyph glyph-name="agrave" unicode="&#xe0;" 
d="M91 496q15 5 35.5 10.5t42.5 10.5t45.5 8.5t44.5 3.5q69 0 112.5 -13.5t68.5 -39t34.5 -60.5t9.5 -79v-190q0 -58 1 -89.5t3 -57.5h-144l-4 72h-2q-3 -12 -15 -26t-31 -26t-44 -20t-53 -8q-73 0 -117 43t-44 115q0 44 15.5 73.5t39.5 49t53.5 30t58 15.5t53 6t38.5 1h48
q0 38 -12 58t-28 29.5t-32 11t-25 1.5q-30 0 -64 -9t-81 -37zM340 251q-24 0 -52 -2t-52.5 -11t-41 -27t-16.5 -51q0 -25 9 -39t20.5 -20.5t22.5 -7.5t16 -1t20.5 2.5t32 14.5t29 38t12.5 74v30zM155 729h138l54 -146h-92z" />
    <glyph glyph-name="aacute" unicode="&#xe1;" 
d="M91 496q15 5 35.5 10.5t42.5 10.5t45.5 8.5t44.5 3.5q69 0 112.5 -13.5t68.5 -39t34.5 -60.5t9.5 -79v-190q0 -58 1 -89.5t3 -57.5h-144l-4 72h-2q-3 -12 -15 -26t-31 -26t-44 -20t-53 -8q-73 0 -117 43t-44 115q0 44 15.5 73.5t39.5 49t53.5 30t58 15.5t53 6t38.5 1h48
q0 38 -12 58t-28 29.5t-32 11t-25 1.5q-30 0 -64 -9t-81 -37zM340 251q-24 0 -52 -2t-52.5 -11t-41 -27t-16.5 -51q0 -25 9 -39t20.5 -20.5t22.5 -7.5t16 -1t20.5 2.5t32 14.5t29 38t12.5 74v30zM274 729h138l-100 -146h-92z" />
    <glyph glyph-name="acircumflex" unicode="&#xe2;" 
d="M91 496q15 5 35.5 10.5t42.5 10.5t45.5 8.5t44.5 3.5q69 0 112.5 -13.5t68.5 -39t34.5 -60.5t9.5 -79v-190q0 -58 1 -89.5t3 -57.5h-144l-4 72h-2q-3 -12 -15 -26t-31 -26t-44 -20t-53 -8q-73 0 -117 43t-44 115q0 44 15.5 73.5t39.5 49t53.5 30t58 15.5t53 6t38.5 1h48
q0 38 -12 58t-28 29.5t-32 11t-25 1.5q-30 0 -64 -9t-81 -37zM340 251q-24 0 -52 -2t-52.5 -11t-41 -27t-16.5 -51q0 -25 9 -39t20.5 -20.5t22.5 -7.5t16 -1t20.5 2.5t32 14.5t29 38t12.5 74v30zM356 729l76 -146h-97l-54 86l-54 -86h-97l76 146h150z" />
    <glyph glyph-name="atilde" unicode="&#xe3;" 
d="M91 496q15 5 35.5 10.5t42.5 10.5t45.5 8.5t44.5 3.5q69 0 112.5 -13.5t68.5 -39t34.5 -60.5t9.5 -79v-190q0 -58 1 -89.5t3 -57.5h-144l-4 72h-2q-3 -12 -15 -26t-31 -26t-44 -20t-53 -8q-73 0 -117 43t-44 115q0 44 15.5 73.5t39.5 49t53.5 30t58 15.5t53 6t38.5 1h48
q0 38 -12 58t-28 29.5t-32 11t-25 1.5q-30 0 -64 -9t-81 -37zM340 251q-24 0 -52 -2t-52.5 -11t-41 -27t-16.5 -51q0 -25 9 -39t20.5 -20.5t22.5 -7.5t16 -1t20.5 2.5t32 14.5t29 38t12.5 74v30zM112 594q2 21 8 43t18 39.5t29 28.5t40 11q20 0 37 -5.5t31.5 -12.5t27 -12.5
t22.5 -5.5q15 0 20 12.5t7 23.5h74q0 -3 -2 -22t-11.5 -41.5t-28.5 -40.5t-53 -18q-17 0 -34 5.5t-32.5 12.5t-29 12.5t-22.5 5.5q-8 0 -13 -4.5t-8 -10.5t-4.5 -12t-1.5 -9h-74z" />
    <glyph glyph-name="adieresis" unicode="&#xe4;" 
d="M91 496q15 5 35.5 10.5t42.5 10.5t45.5 8.5t44.5 3.5q69 0 112.5 -13.5t68.5 -39t34.5 -60.5t9.5 -79v-190q0 -58 1 -89.5t3 -57.5h-144l-4 72h-2q-3 -12 -15 -26t-31 -26t-44 -20t-53 -8q-73 0 -117 43t-44 115q0 44 15.5 73.5t39.5 49t53.5 30t58 15.5t53 6t38.5 1h48
q0 38 -12 58t-28 29.5t-32 11t-25 1.5q-30 0 -64 -9t-81 -37zM340 251q-24 0 -52 -2t-52.5 -11t-41 -27t-16.5 -51q0 -25 9 -39t20.5 -20.5t22.5 -7.5t16 -1t20.5 2.5t32 14.5t29 38t12.5 74v30zM124 731h118v-126h-118v126zM296 731h118v-126h-118v126z" />
    <glyph glyph-name="aring" unicode="&#xe5;" 
d="M91 496q15 5 35.5 10.5t42.5 10.5t45.5 8.5t44.5 3.5q69 0 112.5 -13.5t68.5 -39t34.5 -60.5t9.5 -79v-190q0 -58 1 -89.5t3 -57.5h-144l-4 72h-2q-3 -12 -15 -26t-31 -26t-44 -20t-53 -8q-73 0 -117 43t-44 115q0 44 15.5 73.5t39.5 49t53.5 30t58 15.5t53 6t38.5 1h48
q0 38 -12 58t-28 29.5t-32 11t-25 1.5q-30 0 -64 -9t-81 -37zM340 251q-24 0 -52 -2t-52.5 -11t-41 -27t-16.5 -51q0 -25 9 -39t20.5 -20.5t22.5 -7.5t16 -1t20.5 2.5t32 14.5t29 38t12.5 74v30zM170 650q0 22 8.5 41t22.5 33.5t33 22.5t41 8t41 -8t33.5 -22.5t22.5 -33.5
t8 -41t-8 -41t-22.5 -33t-33.5 -22.5t-41 -8.5t-41 8.5t-33 22.5t-22.5 33t-8.5 41zM221 650q0 -22 16 -38t38 -16t38 16t16 38t-16 38t-38 16t-38 -16t-16 -38z" />
    <glyph glyph-name="ae" unicode="&#xe6;" horiz-adv-x="815" 
d="M93 496q15 5 35.5 10.5t42.5 10.5t45.5 8.5t44.5 3.5q38 0 79.5 -9.5t69.5 -38.5q23 19 58.5 33.5t84.5 14.5q12 0 33 -1.5t46.5 -9t51.5 -23.5t47 -46.5t34.5 -77t13.5 -114.5v-38h-307q0 -23 7.5 -44.5t23.5 -38t40.5 -26.5t57.5 -10q41 0 79.5 12.5t67.5 28.5l3 -119
q-38 -14 -81 -22t-84 -8q-28 0 -57.5 4t-57 14t-51.5 26t-41 41q-13 -23 -32 -39.5t-42 -26.5t-48.5 -14.5t-50.5 -4.5q-82 0 -126 43t-44 115q0 44 15.5 73.5t39.5 49t53.5 30t58 15.5t53 6t38.5 1h48q0 38 -12 58t-28 29.5t-32 11t-25 1.5q-30 0 -64 -9t-81 -37zM342 251
q-19 0 -46.5 -2t-52.5 -11t-42.5 -27t-17.5 -51q0 -28 16.5 -48t46.5 -20q28 0 46.5 13.5t29.5 33.5t15.5 45t4.5 47v20zM635 315q0 18 -3.5 39.5t-12.5 40t-24 30.5t-38 12q-13 0 -27.5 -5.5t-27.5 -19.5t-21.5 -37.5t-8.5 -59.5h163z" />
    <glyph glyph-name="ccedilla" unicode="&#xe7;" horiz-adv-x="444" 
d="M232 -4q-60 9 -98.5 38.5t-60.5 67.5t-30.5 79t-8.5 74q0 60 17 110.5t50 86.5t81 56.5t110 20.5q39 0 65.5 -8t60.5 -17l-8 -119q-22 8 -44.5 15t-47.5 7q-45 0 -69.5 -21t-35.5 -47.5t-13 -51t-2 -32.5q0 -41 11.5 -69t30 -45t41.5 -24t45 -7q25 0 47.5 7.5t44.5 15.5
l5 -119q-34 -9 -68.5 -15t-72.5 -7l-28 -48q15 5 34 5q37 0 60.5 -21.5t23.5 -58.5q0 -23 -10.5 -40t-28 -28.5t-39 -17t-42.5 -5.5q-35 0 -67 7.5t-40 13.5l19 46q7 -3 24.5 -10t46.5 -7q23 0 37 9.5t14 32.5q0 14 -13 23.5t-30 9.5q-15 0 -23 -2.5t-14 -5.5l-22 18z" />
    <glyph glyph-name="egrave" unicode="&#xe8;" 
d="M355 305q0 25 -3.5 48t-13 41t-25.5 28.5t-40 10.5q-30 0 -46.5 -16t-24 -37.5t-9 -42.5t-1.5 -32h163zM499 219h-307q0 -23 7.5 -44.5t23.5 -38t40.5 -26.5t57.5 -10q41 0 79.5 12.5t67.5 28.5l3 -119q-38 -14 -81 -22t-84 -8q-69 0 -118.5 20t-82 55.5t-48 85
t-15.5 109.5q0 53 15 101t44.5 85t72.5 59t99 22q12 0 33 -1.5t46.5 -9t51.5 -23.5t47 -46.5t34.5 -77t13.5 -114.5v-38zM166 729h138l54 -146h-92z" />
    <glyph glyph-name="eacute" unicode="&#xe9;" 
d="M355 305q0 25 -3.5 48t-13 41t-25.5 28.5t-40 10.5q-30 0 -46.5 -16t-24 -37.5t-9 -42.5t-1.5 -32h163zM499 219h-307q0 -23 7.5 -44.5t23.5 -38t40.5 -26.5t57.5 -10q41 0 79.5 12.5t67.5 28.5l3 -119q-38 -14 -81 -22t-84 -8q-69 0 -118.5 20t-82 55.5t-48 85
t-15.5 109.5q0 53 15 101t44.5 85t72.5 59t99 22q12 0 33 -1.5t46.5 -9t51.5 -23.5t47 -46.5t34.5 -77t13.5 -114.5v-38zM270 729h138l-100 -146h-92z" />
    <glyph glyph-name="ecircumflex" unicode="&#xea;" 
d="M355 305q0 25 -3.5 48t-13 41t-25.5 28.5t-40 10.5q-30 0 -46.5 -16t-24 -37.5t-9 -42.5t-1.5 -32h163zM499 219h-307q0 -23 7.5 -44.5t23.5 -38t40.5 -26.5t57.5 -10q41 0 79.5 12.5t67.5 28.5l3 -119q-38 -14 -81 -22t-84 -8q-69 0 -118.5 20t-82 55.5t-48 85
t-15.5 109.5q0 53 15 101t44.5 85t72.5 59t99 22q12 0 33 -1.5t46.5 -9t51.5 -23.5t47 -46.5t34.5 -77t13.5 -114.5v-38zM359 729l76 -146h-97l-54 86l-54 -86h-97l76 146h150z" />
    <glyph glyph-name="edieresis" unicode="&#xeb;" 
d="M355 305q0 25 -3.5 48t-13 41t-25.5 28.5t-40 10.5q-30 0 -46.5 -16t-24 -37.5t-9 -42.5t-1.5 -32h163zM499 219h-307q0 -23 7.5 -44.5t23.5 -38t40.5 -26.5t57.5 -10q41 0 79.5 12.5t67.5 28.5l3 -119q-38 -14 -81 -22t-84 -8q-69 0 -118.5 20t-82 55.5t-48 85
t-15.5 109.5q0 53 15 101t44.5 85t72.5 59t99 22q12 0 33 -1.5t46.5 -9t51.5 -23.5t47 -46.5t34.5 -77t13.5 -114.5v-38zM124 731h118v-126h-118v126zM296 731h118v-126h-118v126z" />
    <glyph glyph-name="igrave" unicode="&#xec;" horiz-adv-x="278" 
d="M60 521h158v-521h-158v521zM10 729h138l54 -146h-92z" />
    <glyph glyph-name="iacute" unicode="&#xed;" horiz-adv-x="278" 
d="M60 521h158v-521h-158v521zM130 729h138l-100 -146h-92z" />
    <glyph glyph-name="icircumflex" unicode="&#xee;" horiz-adv-x="278" 
d="M60 521h158v-521h-158v521zM214 729l76 -146h-97l-54 86l-54 -86h-97l76 146h150z" />
    <glyph glyph-name="idieresis" unicode="&#xef;" horiz-adv-x="278" 
d="M60 521h158v-521h-158v521zM-6 731h118v-126h-118v126zM166 731h118v-126h-118v126z" />
    <glyph glyph-name="eth" unicode="&#xf0;" horiz-adv-x="574" 
d="M206 262q0 -77 19.5 -119.5t61.5 -42.5t61.5 42.5t19.5 119.5t-19.5 118t-61.5 41t-61.5 -41t-19.5 -118zM101 614l102 48q-21 14 -42.5 23.5t-41.5 16.5l118 60q23 -6 45.5 -16t45.5 -25l86 41l54 -54l-78 -37q39 -38 66 -83.5t44 -96t24.5 -103.5t7.5 -106
q0 -67 -16 -120.5t-46.5 -91t-76.5 -58t-106 -20.5t-106 20t-76.5 56t-46.5 85.5t-16 108.5t15 108t42 84t64.5 55t81.5 20q32 0 60 -16.5t37 -36.5h2q-11 42 -32 76t-47 60l-109 -52z" />
    <glyph glyph-name="ntilde" unicode="&#xf1;" horiz-adv-x="556" 
d="M343 321q0 49 -18.5 65.5t-42.5 16.5q-38 0 -53.5 -30t-15.5 -81v-292h-158v412q0 38 -1 63.5t-3 45.5h144q2 -17 3 -39t1 -48h2q18 43 51 69t96 26q43 0 72.5 -14.5t47.5 -40t25.5 -60t7.5 -73.5v-341h-158v321zM124 594q2 21 8 43t18 39.5t29 28.5t40 11q20 0 37 -5.5
t31.5 -12.5t27 -12.5t22.5 -5.5q15 0 20 12.5t7 23.5h74q0 -3 -2 -22t-11.5 -41.5t-28.5 -40.5t-53 -18q-17 0 -34 5.5t-32.5 12.5t-29 12.5t-22.5 5.5q-8 0 -13 -4.5t-8 -10.5t-4.5 -12t-1.5 -9h-74z" />
    <glyph glyph-name="ograve" unicode="&#xf2;" horiz-adv-x="574" 
d="M42 262q0 59 16 108t46.5 84t76.5 55t106 20t106 -20t76.5 -55t46.5 -84t16 -108t-16 -108.5t-46.5 -85.5t-76.5 -56t-106 -20t-106 20t-76.5 56t-46.5 85.5t-16 108.5zM206 262q0 -77 19.5 -119.5t61.5 -42.5t61.5 42.5t19.5 119.5t-19.5 118t-61.5 41t-61.5 -41
t-19.5 -118zM176 729h138l54 -146h-92z" />
    <glyph glyph-name="oacute" unicode="&#xf3;" horiz-adv-x="574" 
d="M42 262q0 59 16 108t46.5 84t76.5 55t106 20t106 -20t76.5 -55t46.5 -84t16 -108t-16 -108.5t-46.5 -85.5t-76.5 -56t-106 -20t-106 20t-76.5 56t-46.5 85.5t-16 108.5zM206 262q0 -77 19.5 -119.5t61.5 -42.5t61.5 42.5t19.5 119.5t-19.5 118t-61.5 41t-61.5 -41
t-19.5 -118zM284 729h138l-100 -146h-92z" />
    <glyph glyph-name="ocircumflex" unicode="&#xf4;" horiz-adv-x="574" 
d="M42 262q0 59 16 108t46.5 84t76.5 55t106 20t106 -20t76.5 -55t46.5 -84t16 -108t-16 -108.5t-46.5 -85.5t-76.5 -56t-106 -20t-106 20t-76.5 56t-46.5 85.5t-16 108.5zM206 262q0 -77 19.5 -119.5t61.5 -42.5t61.5 42.5t19.5 119.5t-19.5 118t-61.5 41t-61.5 -41
t-19.5 -118zM362 729l76 -146h-97l-54 86l-54 -86h-97l76 146h150z" />
    <glyph glyph-name="otilde" unicode="&#xf5;" horiz-adv-x="574" 
d="M42 262q0 59 16 108t46.5 84t76.5 55t106 20t106 -20t76.5 -55t46.5 -84t16 -108t-16 -108.5t-46.5 -85.5t-76.5 -56t-106 -20t-106 20t-76.5 56t-46.5 85.5t-16 108.5zM206 262q0 -77 19.5 -119.5t61.5 -42.5t61.5 42.5t19.5 119.5t-19.5 118t-61.5 41t-61.5 -41
t-19.5 -118zM130 594q2 21 8 43t18 39.5t29 28.5t40 11q20 0 37 -5.5t31.5 -12.5t27 -12.5t22.5 -5.5q15 0 20 12.5t7 23.5h74q0 -3 -2 -22t-11.5 -41.5t-28.5 -40.5t-53 -18q-17 0 -34 5.5t-32.5 12.5t-29 12.5t-22.5 5.5q-8 0 -13 -4.5t-8 -10.5t-4.5 -12t-1.5 -9h-74z
" />
    <glyph glyph-name="odieresis" unicode="&#xf6;" horiz-adv-x="574" 
d="M42 262q0 59 16 108t46.5 84t76.5 55t106 20t106 -20t76.5 -55t46.5 -84t16 -108t-16 -108.5t-46.5 -85.5t-76.5 -56t-106 -20t-106 20t-76.5 56t-46.5 85.5t-16 108.5zM206 262q0 -77 19.5 -119.5t61.5 -42.5t61.5 42.5t19.5 119.5t-19.5 118t-61.5 41t-61.5 -41
t-19.5 -118zM142 731h118v-126h-118v126zM314 731h118v-126h-118v126z" />
    <glyph glyph-name="divide" unicode="&#xf7;" horiz-adv-x="600" 
d="M47 305h506v-104h-506v104zM300 529q35 0 56 -21.5t21 -55.5t-21 -55.5t-56 -21.5t-56 21.5t-21 55.5t21 55.5t56 21.5zM300 -23q-35 0 -56 21.5t-21 55.5t21 55.5t56 21.5t56 -21.5t21 -55.5t-21 -55.5t-56 -21.5z" />
    <glyph glyph-name="oslash" unicode="&#xf8;" horiz-adv-x="574" 
d="M350 374q-20 47 -63 47q-42 0 -61.5 -41t-19.5 -118q0 -17 1 -33t4 -30zM228 140q9 -18 23.5 -29t35.5 -11q42 0 61.5 42.5t19.5 119.5q0 32 -4 51zM106 67q-32 37 -48 86t-16 109q0 59 16 108t46.5 84t76.5 55t106 20q89 0 150 -45l44 56l40 -30l-48 -60q29 -35 44 -83
t15 -105q0 -59 -16 -108.5t-46.5 -85.5t-76.5 -56t-106 -20q-39 0 -75.5 9t-68.5 32l-50 -63l-40 30z" />
    <glyph glyph-name="ugrave" unicode="&#xf9;" horiz-adv-x="556" 
d="M501 109q0 -38 1 -63.5t3 -45.5h-144q-2 17 -3 39t-1 48h-2q-18 -43 -51 -69t-96 -26q-43 0 -72.5 15t-47.5 40.5t-25.5 59.5t-7.5 73v341h158v-321q0 -49 18.5 -65.5t42.5 -16.5q38 0 53.5 30t15.5 81v292h158v-412zM152 729h138l54 -146h-92z" />
    <glyph glyph-name="uacute" unicode="&#xfa;" horiz-adv-x="556" 
d="M501 109q0 -38 1 -63.5t3 -45.5h-144q-2 17 -3 39t-1 48h-2q-18 -43 -51 -69t-96 -26q-43 0 -72.5 15t-47.5 40.5t-25.5 59.5t-7.5 73v341h158v-321q0 -49 18.5 -65.5t42.5 -16.5q38 0 53.5 30t15.5 81v292h158v-412zM274 729h138l-100 -146h-92z" />
    <glyph glyph-name="ucircumflex" unicode="&#xfb;" horiz-adv-x="556" 
d="M501 109q0 -38 1 -63.5t3 -45.5h-144q-2 17 -3 39t-1 48h-2q-18 -43 -51 -69t-96 -26q-43 0 -72.5 15t-47.5 40.5t-25.5 59.5t-7.5 73v341h158v-321q0 -49 18.5 -65.5t42.5 -16.5q38 0 53.5 30t15.5 81v292h158v-412zM353 729l76 -146h-97l-54 86l-54 -86h-97l76 146h150
z" />
    <glyph glyph-name="udieresis" unicode="&#xfc;" horiz-adv-x="556" 
d="M501 109q0 -38 1 -63.5t3 -45.5h-144q-2 17 -3 39t-1 48h-2q-18 -43 -51 -69t-96 -26q-43 0 -72.5 15t-47.5 40.5t-25.5 59.5t-7.5 73v341h158v-321q0 -49 18.5 -65.5t42.5 -16.5q38 0 53.5 30t15.5 81v292h158v-412zM133 731h118v-126h-118v126zM305 731h118v-126h-118
v126z" />
    <glyph glyph-name="yacute" unicode="&#xfd;" horiz-adv-x="519" 
d="M330 -48q-29 -92 -72.5 -133t-109.5 -41q-21 0 -48 3.5t-47 9.5l5 117q8 -5 20.5 -8.5t29.5 -3.5q20 0 34.5 10t24.5 25t14.5 33.5t4.5 35.5l-181 521h164l97 -353h2l92 353h154zM260 729h138l-100 -146h-92z" />
    <glyph glyph-name="thorn" unicode="&#xfe;" horiz-adv-x="574" 
d="M55 750h158v-299h2q2 6 10.5 19t24.5 26t40.5 23t58.5 10q44 0 78 -20.5t57.5 -57.5t35.5 -89t12 -114q0 -52 -10 -99t-32 -81.5t-57 -55t-84 -20.5q-55 0 -87.5 25t-46.5 60h-2v-293h-158v966zM368 261q0 20 -1.5 46.5t-9 50.5t-23 40.5t-42.5 16.5q-24 0 -39.5 -15.5
t-24.5 -39t-12 -50t-3 -49.5q0 -31 3.5 -60t12 -51.5t24 -36t39.5 -13.5q26 0 41.5 13.5t23 36t9.5 51.5t2 60z" />
    <glyph glyph-name="ydieresis" unicode="&#xff;" horiz-adv-x="519" 
d="M330 -48q-29 -92 -72.5 -133t-109.5 -41q-21 0 -48 3.5t-47 9.5l5 117q8 -5 20.5 -8.5t29.5 -3.5q20 0 34.5 10t24.5 25t14.5 33.5t4.5 35.5l-181 521h164l97 -353h2l92 353h154zM115 731h118v-126h-118v126zM287 731h118v-126h-118v126z" />
    <glyph glyph-name="Amacron" unicode="&#x100;" horiz-adv-x="648" 
d="M431 156h-219l-48 -156h-158l232 698h180l224 -698h-168zM327 564h-2l-83 -290h157zM177 846h294v-86h-294v86z" />
    <glyph glyph-name="amacron" unicode="&#x101;" 
d="M91 496q15 5 35.5 10.5t42.5 10.5t45.5 8.5t44.5 3.5q69 0 112.5 -13.5t68.5 -39t34.5 -60.5t9.5 -79v-190q0 -58 1 -89.5t3 -57.5h-144l-4 72h-2q-3 -12 -15 -26t-31 -26t-44 -20t-53 -8q-73 0 -117 43t-44 115q0 44 15.5 73.5t39.5 49t53.5 30t58 15.5t53 6t38.5 1h48
q0 38 -12 58t-28 29.5t-32 11t-25 1.5q-30 0 -64 -9t-81 -37zM340 251q-24 0 -52 -2t-52.5 -11t-41 -27t-16.5 -51q0 -25 9 -39t20.5 -20.5t22.5 -7.5t16 -1t20.5 2.5t32 14.5t29 38t12.5 74v30zM122 697h294v-86h-294v86z" />
    <glyph glyph-name="Abreve" unicode="&#x102;" horiz-adv-x="648" 
d="M431 156h-219l-48 -156h-158l232 698h180l224 -698h-168zM327 564h-2l-83 -290h157zM327 809q24 0 39.5 3.5t24.5 9t12.5 12t4.5 11.5h65q-1 -19 -8.5 -39t-24.5 -35.5t-44.5 -25.5t-68.5 -10q-40 0 -68 10t-45 25.5t-24.5 35.5t-8.5 39h66q1 -5 4.5 -11.5t12.5 -12
t24 -9t39 -3.5z" />
    <glyph glyph-name="abreve" unicode="&#x103;" 
d="M91 496q15 5 35.5 10.5t42.5 10.5t45.5 8.5t44.5 3.5q69 0 112.5 -13.5t68.5 -39t34.5 -60.5t9.5 -79v-190q0 -58 1 -89.5t3 -57.5h-144l-4 72h-2q-3 -12 -15 -26t-31 -26t-44 -20t-53 -8q-73 0 -117 43t-44 115q0 44 15.5 73.5t39.5 49t53.5 30t58 15.5t53 6t38.5 1h48
q0 38 -12 58t-28 29.5t-32 11t-25 1.5q-30 0 -64 -9t-81 -37zM340 251q-24 0 -52 -2t-52.5 -11t-41 -27t-16.5 -51q0 -25 9 -39t20.5 -20.5t22.5 -7.5t16 -1t20.5 2.5t32 14.5t29 38t12.5 74v30zM284 659q23 0 37.5 7t22.5 17.5t11 22t3 20.5h66q0 -26 -7 -52t-23.5 -47
t-43.5 -34.5t-66 -13.5t-66 13.5t-43.5 34.5t-23.5 47t-7 52h66q0 -9 3 -20.5t11 -22t22.5 -17.5t37.5 -7z" />
    <glyph glyph-name="Aogonek" unicode="&#x104;" horiz-adv-x="648" 
d="M327 564h-2l-83 -290h157zM642 0q-28 0 -42 -7.5t-19 -12.5q-21 -21 -31.5 -43.5t-10.5 -42.5q0 -24 13.5 -37t31.5 -13q14 0 26.5 2.5t26.5 10.5v-67q-23 -9 -40 -10.5t-47 -1.5q-49 0 -79.5 25t-30.5 73q0 45 22.5 77t48.5 47h-37l-43 156h-219l-48 -156h-158l232 698
h180z" />
    <glyph glyph-name="aogonek" unicode="&#x105;" 
d="M340 251q-24 0 -52 -2t-52.5 -11t-41 -27t-16.5 -51q0 -25 9 -39t20.5 -20.5t22.5 -7.5t16 -1t20.5 2.5t32 14.5t29 38t12.5 74v30zM488 0q-14 0 -28.5 -7.5t-19.5 -12.5q-21 -21 -31.5 -43.5t-10.5 -42.5q0 -24 13.5 -37t31.5 -13q14 0 26.5 2.5t26.5 10.5v-67
q-23 -9 -40 -10.5t-47 -1.5q-49 0 -79.5 25t-30.5 73q0 45 22.5 77t48.5 47h-26l-4 72h-2q-3 -12 -15 -26t-31 -26t-44 -20t-53 -8q-73 0 -117 43t-44 115q0 44 15.5 73.5t39.5 49t53.5 30t58 15.5t53 6t38.5 1h48q0 38 -12 58t-28 29.5t-32 11t-25 1.5q-30 0 -64 -9
t-81 -37l-7 117q15 5 35.5 10.5t42.5 10.5t45.5 8.5t44.5 3.5q69 0 112.5 -13.5t68.5 -39t34.5 -60.5t9.5 -79v-190q0 -58 1 -89.5t3 -57.5z" />
    <glyph glyph-name="Cacute" unicode="&#x106;" horiz-adv-x="574" 
d="M536 540q-19 11 -52 25.5t-90 14.5q-41 0 -74.5 -16t-57 -46t-36 -72.5t-12.5 -95.5q0 -51 14 -93t38.5 -72t58 -46.5t72.5 -16.5q30 0 54 5t41.5 11t29.5 12l18 9l6 -146q-21 -7 -64.5 -16t-110.5 -9q-72 0 -131.5 26t-102.5 73.5t-67 114.5t-24 150q0 96 29 164
t74.5 111t101.5 63t109 20q78 0 121 -13t63 -21zM354 848h147l-98 -110h-103z" />
    <glyph glyph-name="cacute" unicode="&#x107;" horiz-adv-x="444" 
d="M423 14q-35 -9 -70 -15.5t-73 -6.5q-75 0 -123 27.5t-75.5 68t-37.5 86t-10 81.5q0 60 17 110.5t50 86.5t81 56.5t110 20.5q39 0 65.5 -8t60.5 -17l-8 -119q-22 8 -44.5 15t-47.5 7q-45 0 -69.5 -21t-35.5 -47.5t-13 -51t-2 -32.5q0 -41 11.5 -69t30 -45t41.5 -24t45 -7
q25 0 47.5 7.5t44.5 15.5zM265 729h138l-100 -146h-92z" />
    <glyph glyph-name="Ccaron" unicode="&#x10c;" horiz-adv-x="574" 
d="M536 540q-19 11 -52 25.5t-90 14.5q-41 0 -74.5 -16t-57 -46t-36 -72.5t-12.5 -95.5q0 -51 14 -93t38.5 -72t58 -46.5t72.5 -16.5q30 0 54 5t41.5 11t29.5 12l18 9l6 -146q-21 -7 -64.5 -16t-110.5 -9q-72 0 -131.5 26t-102.5 73.5t-67 114.5t-24 150q0 96 29 164
t74.5 111t101.5 63t109 20q78 0 121 -13t63 -21zM217 848h107l49 -61l49 61h107l-77 -110h-158z" />
    <glyph glyph-name="ccaron" unicode="&#x10d;" horiz-adv-x="444" 
d="M423 14q-35 -9 -70 -15.5t-73 -6.5q-75 0 -123 27.5t-75.5 68t-37.5 86t-10 81.5q0 60 17 110.5t50 86.5t81 56.5t110 20.5q39 0 65.5 -8t60.5 -17l-8 -119q-22 8 -44.5 15t-47.5 7q-45 0 -69.5 -21t-35.5 -47.5t-13 -51t-2 -32.5q0 -41 11.5 -69t30 -45t41.5 -24t45 -7
q25 0 47.5 7.5t44.5 15.5zM132 729h97l54 -86l54 86h97l-76 -146h-150z" />
    <glyph glyph-name="Dcaron" unicode="&#x10e;" horiz-adv-x="667" 
d="M66 698h248q59 0 115 -18.5t100 -60.5t70.5 -109.5t26.5 -166.5q0 -90 -27.5 -155t-73 -107t-106 -61.5t-126.5 -19.5h-227v698zM230 122h52q45 0 77.5 16.5t53.5 46t31 70t10 88.5q0 108 -43.5 170.5t-138.5 62.5h-42v-454zM132 848h107l49 -61l49 61h107l-77 -110h-158
z" />
    <glyph glyph-name="dcaron" unicode="&#x10f;" horiz-adv-x="644" 
d="M519 117q0 -50 1 -74.5t3 -42.5h-150q-2 15 -3 35.5t-1 47.5h-2q-6 -12 -16 -27.5t-26.5 -30t-41 -24t-58.5 -9.5q-44 0 -78 20.5t-57.5 57.5t-35.5 89t-12 114q0 53 10 99.5t32 81t57 55t84 20.5q55 0 87.5 -25t46.5 -60h2v306h158v-633zM206 260q0 -20 2 -46.5
t9.5 -50.5t22.5 -40.5t42 -16.5q24 0 39.5 15.5t24.5 39t12 50.5t3 49q0 31 -3.5 60t-12 51.5t-24 36t-39.5 13.5q-26 0 -41.5 -13.5t-23 -36t-9.5 -51.5t-2 -60zM594 750h98l-57 -172h-75z" />
    <glyph glyph-name="Dcroat" unicode="&#x110;" horiz-adv-x="667" 
d="M0 414h66v284h248q59 0 115 -18.5t100 -60.5t70.5 -109.5t26.5 -166.5q0 -90 -27.5 -155t-73 -107t-106 -61.5t-126.5 -19.5h-227v300h-66v114zM332 300h-102v-178h52q45 0 77.5 16.5t53.5 46t31 70t10 88.5q0 108 -43.5 170.5t-138.5 62.5h-42v-162h102v-114z" />
    <glyph glyph-name="dcroat" unicode="&#x111;" horiz-adv-x="574" 
d="M605 675v-114h-86v-444q0 -50 1 -74.5t3 -42.5h-150q-2 15 -3 35.5t-1 47.5h-2q-6 -12 -16 -27.5t-26.5 -30t-41 -24t-58.5 -9.5q-44 0 -78 20.5t-57.5 57.5t-35.5 89t-12 114q0 53 10 99.5t32 81t57 55t84 20.5q55 0 87.5 -25t46.5 -60h2v117h-127v114h127v75h158v-75
h86zM206 260q0 -20 2 -46.5t9.5 -50.5t22.5 -40.5t42 -16.5q24 0 39.5 15.5t24.5 39t12 50.5t3 49q0 31 -3.5 60t-12 51.5t-24 36t-39.5 13.5q-26 0 -41.5 -13.5t-23 -36t-9.5 -51.5t-2 -60z" />
    <glyph glyph-name="Emacron" unicode="&#x112;" horiz-adv-x="519" 
d="M66 698h403v-122h-245v-156h233v-122h-233v-176h257v-122h-415v698zM123 846h294v-86h-294v86z" />
    <glyph glyph-name="emacron" unicode="&#x113;" 
d="M355 305q0 25 -3.5 48t-13 41t-25.5 28.5t-40 10.5q-30 0 -46.5 -16t-24 -37.5t-9 -42.5t-1.5 -32h163zM499 219h-307q0 -23 7.5 -44.5t23.5 -38t40.5 -26.5t57.5 -10q41 0 79.5 12.5t67.5 28.5l3 -119q-38 -14 -81 -22t-84 -8q-69 0 -118.5 20t-82 55.5t-48 85
t-15.5 109.5q0 53 15 101t44.5 85t72.5 59t99 22q12 0 33 -1.5t46.5 -9t51.5 -23.5t47 -46.5t34.5 -77t13.5 -114.5v-38zM130 697h294v-86h-294v86z" />
    <glyph glyph-name="Edotaccent" unicode="&#x116;" horiz-adv-x="519" 
d="M66 698h403v-122h-245v-156h233v-122h-233v-176h257v-122h-415v698zM217 861h118v-126h-118v126z" />
    <glyph glyph-name="edotaccent" unicode="&#x117;" 
d="M355 305q0 25 -3.5 48t-13 41t-25.5 28.5t-40 10.5q-30 0 -46.5 -16t-24 -37.5t-9 -42.5t-1.5 -32h163zM499 219h-307q0 -23 7.5 -44.5t23.5 -38t40.5 -26.5t57.5 -10q41 0 79.5 12.5t67.5 28.5l3 -119q-38 -14 -81 -22t-84 -8q-69 0 -118.5 20t-82 55.5t-48 85
t-15.5 109.5q0 53 15 101t44.5 85t72.5 59t99 22q12 0 33 -1.5t46.5 -9t51.5 -23.5t47 -46.5t34.5 -77t13.5 -114.5v-38zM220 731h118v-126h-118v126z" />
    <glyph glyph-name="Eogonek" unicode="&#x118;" horiz-adv-x="519" 
d="M481 0q-28 0 -42 -7.5t-19 -12.5q-21 -21 -31.5 -43.5t-10.5 -42.5q0 -24 13.5 -37t31.5 -13q14 0 26.5 2.5t26.5 10.5v-67q-23 -9 -40 -10.5t-47 -1.5q-49 0 -79.5 25t-30.5 73q0 45 22.5 77t48.5 47h-284v698h403v-122h-245v-156h233v-122h-233v-176h257v-122z" />
    <glyph glyph-name="eogonek" unicode="&#x119;" 
d="M355 305q0 25 -3.5 48t-13 41t-25.5 28.5t-40 10.5q-30 0 -46.5 -16t-24 -37.5t-9 -42.5t-1.5 -32h163zM349 -20q-21 -21 -31.5 -43.5t-10.5 -42.5q0 -24 13.5 -37t31.5 -13q14 0 26.5 2.5t26.5 10.5v-67q-23 -9 -40 -10.5t-47 -1.5q-49 0 -79.5 25t-30.5 73q0 40 19 70
t42 47q-59 6 -102 27.5t-70.5 57t-41 82.5t-13.5 102q0 53 15 101t44.5 85t72.5 59t99 22q12 0 33 -1.5t46.5 -9t51.5 -23.5t47 -46.5t34.5 -77t13.5 -114.5v-38h-307q0 -23 7.5 -44.5t23.5 -38t40.5 -26.5t57.5 -10q41 0 79.5 12.5t67.5 28.5l3 -119q-15 -6 -31 -10.5
t-33 -8.5q-20 -5 -34.5 -9t-23.5 -14z" />
    <glyph glyph-name="Ecaron" unicode="&#x11a;" horiz-adv-x="519" 
d="M66 698h403v-122h-245v-156h233v-122h-233v-176h257v-122h-415v698zM123 848h107l49 -61l49 61h107l-77 -110h-158z" />
    <glyph glyph-name="ecaron" unicode="&#x11b;" 
d="M355 305q0 25 -3.5 48t-13 41t-25.5 28.5t-40 10.5q-30 0 -46.5 -16t-24 -37.5t-9 -42.5t-1.5 -32h163zM499 219h-307q0 -23 7.5 -44.5t23.5 -38t40.5 -26.5t57.5 -10q41 0 79.5 12.5t67.5 28.5l3 -119q-38 -14 -81 -22t-84 -8q-69 0 -118.5 20t-82 55.5t-48 85
t-15.5 109.5q0 53 15 101t44.5 85t72.5 59t99 22q12 0 33 -1.5t46.5 -9t51.5 -23.5t47 -46.5t34.5 -77t13.5 -114.5v-38zM129 729h97l54 -86l54 86h97l-76 -146h-150z" />
    <glyph glyph-name="Gbreve" unicode="&#x11e;" horiz-adv-x="667" 
d="M364 400h246v-375q-28 -13 -87 -25t-144 -12q-49 0 -107 15t-108 55.5t-84 111.5t-34 183q0 64 19 128t62 115t112 82.5t169 31.5q62 0 106.5 -9.5t76.5 -18.5l-10 -137q-26 12 -66 25.5t-94 13.5q-65 0 -105.5 -26t-63 -63.5t-30.5 -78t-8 -70.5q0 -49 11.5 -91
t34.5 -73.5t57.5 -49.5t81.5 -18q37 0 57 10v158h-92v118zM398 809q24 0 39.5 3.5t24.5 9t12.5 12t4.5 11.5h65q-1 -19 -8.5 -39t-24.5 -35.5t-44.5 -25.5t-68.5 -10q-40 0 -68 10t-45 25.5t-24.5 35.5t-8.5 39h66q1 -5 4.5 -11.5t12.5 -12t24 -9t39 -3.5z" />
    <glyph glyph-name="gbreve" unicode="&#x11f;" horiz-adv-x="574" 
d="M206 261q0 -15 2 -40.5t9.5 -50t23 -42t41.5 -17.5q24 0 39.5 13t24 34.5t12 48.5t3.5 54q0 23 -3 49.5t-12 50t-24 39t-39 15.5q-27 0 -42.5 -16.5t-23 -40.5t-9.5 -50.5t-2 -46.5zM519 63q0 -19 -1.5 -47.5t-9 -60t-23.5 -63.5t-45.5 -57t-74.5 -41t-111 -16
q-56 0 -103 10t-85 21l5 129q10 -5 27 -13t38.5 -15.5t46.5 -12.5t52 -5q47 0 73 16t39 43.5t15.5 64t2.5 76.5h-2q-3 -10 -12.5 -26t-26 -30.5t-41 -25t-57.5 -10.5q-34 0 -67 13t-59 43.5t-42 80.5t-16 123q0 125 48 197t137 72q34 0 58 -9.5t40.5 -24t26.5 -30t15 -27.5
h2l4 83h150q-2 -18 -3 -42.5t-1 -74.5v-341zM303 659q23 0 37.5 7t22.5 17.5t11 22t3 20.5h66q0 -26 -7 -52t-23.5 -47t-43.5 -34.5t-66 -13.5t-66 13.5t-43.5 34.5t-23.5 47t-7 52h66q0 -9 3 -20.5t11 -22t22.5 -17.5t37.5 -7z" />
    <glyph glyph-name="Gcommaaccent" unicode="&#x122;" horiz-adv-x="667" 
d="M364 400h246v-375q-28 -13 -87 -25t-144 -12q-49 0 -107 15t-108 55.5t-84 111.5t-34 183q0 64 19 128t62 115t112 82.5t169 31.5q62 0 106.5 -9.5t76.5 -18.5l-10 -137q-26 12 -66 25.5t-94 13.5q-65 0 -105.5 -26t-63 -63.5t-30.5 -78t-8 -70.5q0 -49 11.5 -91
t34.5 -73.5t57.5 -49.5t81.5 -18q37 0 57 10v158h-92v118zM347 -37h98l-41 -144h-86z" />
    <glyph glyph-name="gcommaaccent" unicode="&#x123;" horiz-adv-x="574" 
d="M206 261q0 -15 2 -40.5t9.5 -50t23 -42t41.5 -17.5q24 0 39.5 13t24 34.5t12 48.5t3.5 54q0 23 -3 49.5t-12 50t-24 39t-39 15.5q-27 0 -42.5 -16.5t-23 -40.5t-9.5 -50.5t-2 -46.5zM519 63q0 -19 -1.5 -47.5t-9 -60t-23.5 -63.5t-45.5 -57t-74.5 -41t-111 -16
q-56 0 -103 10t-85 21l5 129q10 -5 27 -13t38.5 -15.5t46.5 -12.5t52 -5q47 0 73 16t39 43.5t15.5 64t2.5 76.5h-2q-3 -10 -12.5 -26t-26 -30.5t-41 -25t-57.5 -10.5q-34 0 -67 13t-59 43.5t-42 80.5t-16 123q0 125 48 197t137 72q34 0 58 -9.5t40.5 -24t26.5 -30t15 -27.5
h2l4 83h150q-2 -18 -3 -42.5t-1 -74.5v-341zM349 584h-98l41 144h86z" />
    <glyph glyph-name="Imacron" unicode="&#x12a;" horiz-adv-x="296" 
d="M66 698h164v-698h-164v698zM18 846h255v-86h-255v86z" />
    <glyph glyph-name="imacron" unicode="&#x12b;" horiz-adv-x="278" 
d="M60 521h158v-521h-158v521zM12 697h255v-86h-255v86z" />
    <glyph glyph-name="Iogonek" unicode="&#x12e;" horiz-adv-x="296" 
d="M230 0q-16 0 -28 -7.5t-17 -12.5q-21 -20 -31.5 -43t-10.5 -43q0 -24 13.5 -37t31.5 -13q14 0 26.5 2.5t26.5 10.5v-67q-23 -9 -40 -10.5t-47 -1.5q-49 0 -79.5 25t-30.5 73q0 45 22.5 77t48.5 47h-49v698h164v-698z" />
    <glyph glyph-name="iogonek" unicode="&#x12f;" horiz-adv-x="278" 
d="M60 750h158v-140h-158v140zM218 0q-13 0 -24.5 -7.5t-16.5 -12.5q-21 -20 -31.5 -43t-10.5 -43q0 -24 13.5 -37t31.5 -13q14 0 26.5 2.5t26.5 10.5v-67q-23 -9 -40 -10.5t-47 -1.5q-49 0 -79.5 25t-30.5 73q0 45 22.5 77t48.5 47h-47v521h158v-521z" />
    <glyph glyph-name="Idotaccent" unicode="&#x130;" horiz-adv-x="296" 
d="M66 698h164v-698h-164v698zM87 861h118v-126h-118v126z" />
    <glyph glyph-name="dotlessi" unicode="&#x131;" horiz-adv-x="278" 
d="M60 521h158v-521h-158v521z" />
    <glyph glyph-name="Kcommaaccent" unicode="&#x136;" horiz-adv-x="611" 
d="M66 698h164v-288h2l172 288h184l-216 -327l233 -371h-196l-177 320h-2v-320h-164v698zM277 -37h98l-41 -144h-86z" />
    <glyph glyph-name="kcommaaccent" unicode="&#x137;" 
d="M60 750h158v-440h2l132 211h164l-163 -239l174 -282h-176l-131 247h-2v-247h-158v750zM245 -37h98l-41 -144h-86z" />
    <glyph glyph-name="Lacute" unicode="&#x139;" horiz-adv-x="481" 
d="M66 698h164v-572h231v-126h-395v698zM217 848h147l-98 -110h-103z" />
    <glyph glyph-name="lacute" unicode="&#x13a;" horiz-adv-x="278" 
d="M60 750h158v-750h-158v750zM116 848h147l-94 -86h-95z" />
    <glyph glyph-name="Lcommaaccent" unicode="&#x13b;" horiz-adv-x="481" 
d="M66 698h164v-572h231v-126h-395v698zM241 -37h98l-41 -144h-86z" />
    <glyph glyph-name="lcommaaccent" unicode="&#x13c;" horiz-adv-x="278" 
d="M60 750h158v-750h-158v750zM114 -37h98l-41 -144h-86z" />
    <glyph glyph-name="Lcaron" unicode="&#x13d;" horiz-adv-x="481" 
d="M66 698h164v-572h231v-126h-395v698zM311 750h98l-57 -172h-75z" />
    <glyph glyph-name="lcaron" unicode="&#x13e;" horiz-adv-x="348" 
d="M60 750h158v-750h-158v750zM293 750h98l-57 -172h-75z" />
    <glyph glyph-name="Lslash" unicode="&#x141;" horiz-adv-x="481" 
d="M66 173l-66 -55v118l66 55v407h164v-271l130 107v-118l-130 -107v-183h231v-126h-395v173z" />
    <glyph glyph-name="lslash" unicode="&#x142;" horiz-adv-x="278" 
d="M60 316l-60 -60v114l60 60v320h158v-162l60 60v-114l-60 -60v-474h-158v316z" />
    <glyph glyph-name="Nacute" unicode="&#x143;" horiz-adv-x="667" 
d="M63 698h192l203 -484h2v484h144v-698h-194l-201 505h-2v-505h-144v698zM331 848h147l-98 -110h-103z" />
    <glyph glyph-name="nacute" unicode="&#x144;" horiz-adv-x="556" 
d="M343 321q0 49 -18.5 65.5t-42.5 16.5q-38 0 -53.5 -30t-15.5 -81v-292h-158v412q0 38 -1 63.5t-3 45.5h144q2 -17 3 -39t1 -48h2q18 43 51 69t96 26q43 0 72.5 -14.5t47.5 -40t25.5 -60t7.5 -73.5v-341h-158v321zM276 729h138l-100 -146h-92z" />
    <glyph glyph-name="Ncommaaccent" unicode="&#x145;" horiz-adv-x="667" 
d="M63 698h192l203 -484h2v484h144v-698h-194l-201 505h-2v-505h-144v698zM307 -37h98l-41 -144h-86z" />
    <glyph glyph-name="ncommaaccent" unicode="&#x146;" horiz-adv-x="556" 
d="M343 321q0 49 -18.5 65.5t-42.5 16.5q-38 0 -53.5 -30t-15.5 -81v-292h-158v412q0 38 -1 63.5t-3 45.5h144q2 -17 3 -39t1 -48h2q18 43 51 69t96 26q43 0 72.5 -14.5t47.5 -40t25.5 -60t7.5 -73.5v-341h-158v321zM241 -37h98l-41 -144h-86z" />
    <glyph glyph-name="Ncaron" unicode="&#x147;" horiz-adv-x="667" 
d="M63 698h192l203 -484h2v484h144v-698h-194l-201 505h-2v-505h-144v698zM177 848h107l49 -61l49 61h107l-77 -110h-158z" />
    <glyph glyph-name="ncaron" unicode="&#x148;" horiz-adv-x="556" 
d="M343 321q0 49 -18.5 65.5t-42.5 16.5q-38 0 -53.5 -30t-15.5 -81v-292h-158v412q0 38 -1 63.5t-3 45.5h144q2 -17 3 -39t1 -48h2q18 43 51 69t96 26q43 0 72.5 -14.5t47.5 -40t25.5 -60t7.5 -73.5v-341h-158v321zM126 729h97l54 -86l54 86h97l-76 -146h-150z" />
    <glyph glyph-name="Omacron" unicode="&#x14c;" horiz-adv-x="685" 
d="M46 349q0 77 18 143t54.5 114.5t92.5 76t131 27.5t131 -27.5t93 -76t55 -114.5t18 -143t-18 -143t-55 -114.5t-93 -76t-131 -27.5t-131 27.5t-92.5 76t-54.5 114.5t-18 143zM214 349q0 -50 6.5 -94.5t21.5 -77.5t39.5 -52t60.5 -19t60.5 19t39.5 52t22 77.5t7 94.5
t-7 94.5t-22 77.5t-39.5 52t-60.5 19t-60.5 -19t-39.5 -52t-21.5 -77.5t-6.5 -94.5zM196 846h294v-86h-294v86z" />
    <glyph glyph-name="omacron" unicode="&#x14d;" horiz-adv-x="574" 
d="M42 262q0 59 16 108t46.5 84t76.5 55t106 20t106 -20t76.5 -55t46.5 -84t16 -108t-16 -108.5t-46.5 -85.5t-76.5 -56t-106 -20t-106 20t-76.5 56t-46.5 85.5t-16 108.5zM206 262q0 -77 19.5 -119.5t61.5 -42.5t61.5 42.5t19.5 119.5t-19.5 118t-61.5 41t-61.5 -41
t-19.5 -118zM139 697h294v-86h-294v86z" />
    <glyph glyph-name="Ohungarumlaut" unicode="&#x150;" horiz-adv-x="685" 
d="M46 349q0 77 18 143t54.5 114.5t92.5 76t131 27.5t131 -27.5t93 -76t55 -114.5t18 -143t-18 -143t-55 -114.5t-93 -76t-131 -27.5t-131 27.5t-92.5 76t-54.5 114.5t-18 143zM214 349q0 -50 6.5 -94.5t21.5 -77.5t39.5 -52t60.5 -19t60.5 19t39.5 52t22 77.5t7 94.5
t-7 94.5t-22 77.5t-39.5 52t-60.5 19t-60.5 -19t-39.5 -52t-21.5 -77.5t-6.5 -94.5zM436 848h137l-98 -110h-93zM250 848h132l-93 -110h-93z" />
    <glyph glyph-name="ohungarumlaut" unicode="&#x151;" horiz-adv-x="574" 
d="M42 262q0 59 16 108t46.5 84t76.5 55t106 20t106 -20t76.5 -55t46.5 -84t16 -108t-16 -108.5t-46.5 -85.5t-76.5 -56t-106 -20t-106 20t-76.5 56t-46.5 85.5t-16 108.5zM206 262q0 -77 19.5 -119.5t61.5 -42.5t61.5 42.5t19.5 119.5t-19.5 118t-61.5 41t-61.5 -41
t-19.5 -118zM197 729h138l-100 -146h-92zM379 729h138l-100 -146h-92z" />
    <glyph glyph-name="OE" unicode="&#x152;" horiz-adv-x="870" 
d="M838 122v-122h-324q-24 0 -47 -1.5t-47 -3.5q-46 -3 -97 -3q-81 0 -135.5 30.5t-88.5 81t-48.5 114.5t-14.5 131q0 75 18.5 140t57 113.5t98.5 76t143 27.5q24 0 47 -1t45 -3q23 -2 44 -3t41 -1h295v-122h-234v-156h221v-122h-221v-176h247zM204 349q0 -72 12 -117
t31.5 -70.5t45 -34.5t52.5 -9q31 0 50 2.5t32 6.5v444q-13 4 -32 6.5t-50 2.5q-75 0 -108 -62t-33 -169z" />
    <glyph glyph-name="oe" unicode="&#x153;" horiz-adv-x="870" 
d="M684 305q0 25 -3.5 48t-13 41t-26 28.5t-41.5 10.5q-31 0 -47.5 -16t-24 -37.5t-9 -42.5t-1.5 -32h166zM521 219q0 -23 7.5 -44.5t23.5 -38t40.5 -26.5t57.5 -10q41 0 79.5 12.5t67.5 28.5l3 -119q-38 -14 -81 -22t-84 -8q-60 0 -105.5 15t-77.5 43q-29 -28 -70.5 -43
t-94.5 -15q-60 0 -106 20t-76.5 56t-46.5 85.5t-16 108.5t16 108t46.5 84t76.5 55t106 20q53 0 94.5 -15t70.5 -42q29 26 66 41.5t84 15.5q12 0 33 -1.5t46.5 -9t51.5 -23.5t47 -46.5t34.5 -77t13.5 -114.5v-38h-307zM206 262q0 -77 19.5 -119.5t61.5 -42.5t61.5 42.5
t19.5 119.5t-19.5 118t-61.5 41t-61.5 -41t-19.5 -118z" />
    <glyph glyph-name="Racute" unicode="&#x154;" horiz-adv-x="593" 
d="M66 698h256q43 0 81.5 -10t68 -31.5t46.5 -56t17 -82.5q0 -11 -2.5 -35t-16 -51t-41.5 -51t-79 -34v-2q19 -2 33 -9t25 -20.5t20 -35t19 -52.5l72 -228h-172l-54 187q-10 36 -20 55t-22 28t-28 10.5t-39 1.5v-282h-164v698zM224 400h51q48 0 72 27t24 65q0 11 -3 26
t-12.5 29t-29 23.5t-52.5 9.5h-50v-180zM267 848h147l-98 -110h-103z" />
    <glyph glyph-name="racute" unicode="&#x155;" horiz-adv-x="389" 
d="M55 412q0 38 -1 63.5t-3 45.5h144q1 -23 2 -47t2 -47h2q12 21 23.5 39.5t27 32.5t38 22t56.5 8h23v-146q-13 3 -24.5 4.5t-28.5 1.5q-34 0 -54.5 -13.5t-31.5 -36t-14 -50t-3 -56.5v-233h-158v412zM206 729h138l-100 -146h-92z" />
    <glyph glyph-name="Rcommaaccent" unicode="&#x156;" horiz-adv-x="593" 
d="M66 698h256q43 0 81.5 -10t68 -31.5t46.5 -56t17 -82.5q0 -11 -2.5 -35t-16 -51t-41.5 -51t-79 -34v-2q19 -2 33 -9t25 -20.5t20 -35t19 -52.5l72 -228h-172l-54 187q-10 36 -20 55t-22 28t-28 10.5t-39 1.5v-282h-164v698zM224 400h51q48 0 72 27t24 65q0 11 -3 26
t-12.5 29t-29 23.5t-52.5 9.5h-50v-180zM268 -37h98l-41 -144h-86z" />
    <glyph glyph-name="rcommaaccent" unicode="&#x157;" horiz-adv-x="389" 
d="M55 412q0 38 -1 63.5t-3 45.5h144q1 -23 2 -47t2 -47h2q12 21 23.5 39.5t27 32.5t38 22t56.5 8h23v-146q-13 3 -24.5 4.5t-28.5 1.5q-34 0 -54.5 -13.5t-31.5 -36t-14 -50t-3 -56.5v-233h-158v412zM168 -37h98l-41 -144h-86z" />
    <glyph glyph-name="Rcaron" unicode="&#x158;" horiz-adv-x="593" 
d="M66 698h256q43 0 81.5 -10t68 -31.5t46.5 -56t17 -82.5q0 -11 -2.5 -35t-16 -51t-41.5 -51t-79 -34v-2q19 -2 33 -9t25 -20.5t20 -35t19 -52.5l72 -228h-172l-54 187q-10 36 -20 55t-22 28t-28 10.5t-39 1.5v-282h-164v698zM224 400h51q48 0 72 27t24 65q0 11 -3 26
t-12.5 29t-29 23.5t-52.5 9.5h-50v-180zM113 848h107l49 -61l49 61h107l-77 -110h-158z" />
    <glyph glyph-name="rcaron" unicode="&#x159;" horiz-adv-x="389" 
d="M55 412q0 38 -1 63.5t-3 45.5h144q1 -23 2 -47t2 -47h2q12 21 23.5 39.5t27 32.5t38 22t56.5 8h23v-146q-13 3 -24.5 4.5t-28.5 1.5q-34 0 -54.5 -13.5t-31.5 -36t-14 -50t-3 -56.5v-233h-158v412zM66 729h97l54 -86l54 86h97l-76 -146h-150z" />
    <glyph glyph-name="Sacute" unicode="&#x15a;" 
d="M446 556q-29 15 -67 25.5t-71 10.5q-40 0 -66.5 -18.5t-26.5 -57.5q0 -32 20.5 -50.5t51 -33t66 -29.5t66 -39.5t51 -63t20.5 -100.5q0 -49 -18.5 -88.5t-51.5 -67t-77.5 -42t-96.5 -14.5q-64 0 -114.5 11t-73.5 18l9 136q37 -14 72 -28.5t81 -14.5q20 0 38 5t32.5 15
t23 26t8.5 37q0 34 -20.5 53.5t-51 34t-66 29t-66 38.5t-51 62.5t-20.5 100.5q0 5 1.5 22t9 39t22.5 46.5t42 44.5t68 33.5t99 13.5q48 0 83.5 -7t80.5 -17zM281 848h147l-98 -110h-103z" />
    <glyph glyph-name="sacute" unicode="&#x15b;" horiz-adv-x="426" 
d="M365 390q-32 13 -62 20.5t-65 7.5q-31 0 -45 -12t-14 -26q0 -12 5 -20.5t17.5 -17t33.5 -17t53 -20.5q20 -7 39.5 -18t35 -28.5t25 -43t9.5 -62.5q0 -43 -15 -74t-41.5 -50t-61.5 -28t-74 -9q-35 0 -82 5t-89 20l4 122q29 -17 63 -26.5t67 -9.5q28 0 43.5 4.5t23.5 11.5
t10 15.5t2 17.5q0 17 -29 28.5t-80 32.5q-21 9 -40.5 22t-34.5 32t-24.5 45t-9.5 61q0 21 8.5 48t30.5 51t60 40.5t96 16.5q49 0 87 -7t58 -14zM219 729h138l-100 -146h-92z" />
    <glyph glyph-name="Scedilla" unicode="&#x15e;" 
d="M256 -56q15 5 34 5q37 0 60.5 -21.5t23.5 -58.5q0 -23 -10.5 -40t-28 -28.5t-39 -17t-42.5 -5.5q-35 0 -67 7.5t-40 13.5l19 46q7 -3 24.5 -10t46.5 -7q23 0 37 9.5t14 32.5q0 14 -13 23.5t-30 9.5q-15 0 -23 -2.5t-14 -5.5l-22 18l43 75q-59 2 -104.5 12.5t-66.5 16.5
l9 136q37 -14 72 -28.5t81 -14.5q20 0 38 5t32.5 15t23 26t8.5 37q0 34 -20.5 53.5t-51 34t-66 29t-66 38.5t-51 62.5t-20.5 100.5q0 5 1.5 22t9 39t22.5 46.5t42 44.5t68 33.5t99 13.5q48 0 83.5 -7t80.5 -17l-7 -130q-29 15 -67 25.5t-71 10.5q-40 0 -66.5 -18.5
t-26.5 -57.5q0 -32 20.5 -50.5t51 -33t66 -29.5t66 -39.5t51 -63t20.5 -100.5q0 -45 -15.5 -81t-42.5 -63t-65 -44t-83 -22z" />
    <glyph glyph-name="scedilla" unicode="&#x15f;" horiz-adv-x="426" 
d="M205 -56q15 5 34 5q37 0 60.5 -21.5t23.5 -58.5q0 -23 -10.5 -40t-28 -28.5t-39 -17t-42.5 -5.5q-35 0 -67 7.5t-40 13.5l19 46q7 -3 24.5 -10t46.5 -7q23 0 37 9.5t14 32.5q0 14 -13 23.5t-30 9.5q-15 0 -23 -2.5t-14 -5.5l-22 18l45 79q-33 2 -72 7t-74 18l4 122
q29 -17 63 -26.5t67 -9.5q28 0 43.5 4.5t23.5 11.5t10 15.5t2 17.5q0 17 -29 28.5t-80 32.5q-21 9 -40.5 22t-34.5 32t-24.5 45t-9.5 61q0 21 8.5 48t30.5 51t60 40.5t96 16.5q49 0 87 -7t58 -14l-4 -118q-32 13 -62 20.5t-65 7.5q-31 0 -45 -12t-14 -26q0 -12 5 -20.5
t17.5 -17t33.5 -17t53 -20.5q20 -7 39.5 -18t35 -28.5t25 -43t9.5 -62.5q0 -39 -12.5 -67.5t-34.5 -48t-51.5 -30.5t-63.5 -14z" />
    <glyph glyph-name="Scaron" unicode="&#x160;" 
d="M446 556q-29 15 -67 25.5t-71 10.5q-40 0 -66.5 -18.5t-26.5 -57.5q0 -32 20.5 -50.5t51 -33t66 -29.5t66 -39.5t51 -63t20.5 -100.5q0 -49 -18.5 -88.5t-51.5 -67t-77.5 -42t-96.5 -14.5q-64 0 -114.5 11t-73.5 18l9 136q37 -14 72 -28.5t81 -14.5q20 0 38 5t32.5 15
t23 26t8.5 37q0 34 -20.5 53.5t-51 34t-66 29t-66 38.5t-51 62.5t-20.5 100.5q0 5 1.5 22t9 39t22.5 46.5t42 44.5t68 33.5t99 13.5q48 0 83.5 -7t80.5 -17zM128 848h107l49 -61l49 61h107l-77 -110h-158z" />
    <glyph glyph-name="scaron" unicode="&#x161;" horiz-adv-x="426" 
d="M365 390q-32 13 -62 20.5t-65 7.5q-31 0 -45 -12t-14 -26q0 -12 5 -20.5t17.5 -17t33.5 -17t53 -20.5q20 -7 39.5 -18t35 -28.5t25 -43t9.5 -62.5q0 -43 -15 -74t-41.5 -50t-61.5 -28t-74 -9q-35 0 -82 5t-89 20l4 122q29 -17 63 -26.5t67 -9.5q28 0 43.5 4.5t23.5 11.5
t10 15.5t2 17.5q0 17 -29 28.5t-80 32.5q-21 9 -40.5 22t-34.5 32t-24.5 45t-9.5 61q0 21 8.5 48t30.5 51t60 40.5t96 16.5q49 0 87 -7t58 -14zM68 729h97l54 -86l54 86h97l-76 -146h-150z" />
    <glyph glyph-name="Tcommaaccent" unicode="&#x162;" horiz-adv-x="500" 
d="M168 572h-152v126h468v-126h-152v-572h-164v572zM229 -37h98l-41 -144h-86z" />
    <glyph glyph-name="tcommaaccent" unicode="&#x163;" horiz-adv-x="389" 
d="M14 521h90v107l154 49v-156h102v-111h-102v-239q0 -38 15 -51.5t38 -13.5q17 0 28.5 3t23.5 8v-111q-12 -5 -42 -9.5t-68 -4.5q-31 0 -58.5 8t-48.5 26t-33.5 47.5t-12.5 72.5v264h-86v111zM211 -37h98l-41 -144h-86z" />
    <glyph glyph-name="Tcaron" unicode="&#x164;" horiz-adv-x="500" 
d="M168 572h-152v126h468v-126h-152v-572h-164v572zM94 848h107l49 -61l49 61h107l-77 -110h-158z" />
    <glyph glyph-name="tcaron" unicode="&#x165;" horiz-adv-x="399" 
d="M14 521h90v107l154 49v-156h102v-111h-102v-239q0 -38 15 -51.5t38 -13.5q17 0 28.5 3t23.5 8v-111q-12 -5 -42 -9.5t-68 -4.5q-31 0 -58.5 8t-48.5 26t-33.5 47.5t-12.5 72.5v264h-86v111zM339 750h98l-57 -172h-75z" />
    <glyph glyph-name="Umacron" unicode="&#x16a;" horiz-adv-x="630" 
d="M59 698h164v-471q0 -53 21 -83t71 -30t71 30t21 83v471h164v-445q0 -130 -69 -197.5t-187 -67.5t-187 67.5t-69 197.5v445zM171 846h294v-86h-294v86z" />
    <glyph glyph-name="umacron" unicode="&#x16b;" horiz-adv-x="556" 
d="M501 109q0 -38 1 -63.5t3 -45.5h-144q-2 17 -3 39t-1 48h-2q-18 -43 -51 -69t-96 -26q-43 0 -72.5 15t-47.5 40.5t-25.5 59.5t-7.5 73v341h158v-321q0 -49 18.5 -65.5t42.5 -16.5q38 0 53.5 30t15.5 81v292h158v-412zM138 697h294v-86h-294v86z" />
    <glyph glyph-name="Uring" unicode="&#x16e;" horiz-adv-x="630" 
d="M59 698h164v-471q0 -53 21 -83t71 -30t71 30t21 83v471h164v-445q0 -130 -69 -197.5t-187 -67.5t-187 67.5t-69 197.5v445zM224 791q0 37 26 63t63 26t63 -26t26 -63t-26 -63t-63 -26t-63 26t-26 63zM267 791q0 -19 13.5 -32.5t32.5 -13.5t32.5 13.5t13.5 32.5
t-13.5 32.5t-32.5 13.5t-32.5 -13.5t-13.5 -32.5z" />
    <glyph glyph-name="uring" unicode="&#x16f;" horiz-adv-x="556" 
d="M501 109q0 -38 1 -63.5t3 -45.5h-144q-2 17 -3 39t-1 48h-2q-18 -43 -51 -69t-96 -26q-43 0 -72.5 15t-47.5 40.5t-25.5 59.5t-7.5 73v341h158v-321q0 -49 18.5 -65.5t42.5 -16.5q38 0 53.5 30t15.5 81v292h158v-412zM172 650q0 22 8.5 41t22.5 33.5t33 22.5t41 8t41 -8
t33.5 -22.5t22.5 -33.5t8 -41t-8 -41t-22.5 -33t-33.5 -22.5t-41 -8.5t-41 8.5t-33 22.5t-22.5 33t-8.5 41zM223 650q0 -22 16 -38t38 -16t38 16t16 38t-16 38t-38 16t-38 -16t-16 -38z" />
    <glyph glyph-name="Uhungarumlaut" unicode="&#x170;" horiz-adv-x="630" 
d="M59 698h164v-471q0 -53 21 -83t71 -30t71 30t21 83v471h164v-445q0 -130 -69 -197.5t-187 -67.5t-187 67.5t-69 197.5v445zM408 848h137l-98 -110h-93zM222 848h132l-93 -110h-93z" />
    <glyph glyph-name="uhungarumlaut" unicode="&#x171;" horiz-adv-x="556" 
d="M501 109q0 -38 1 -63.5t3 -45.5h-144q-2 17 -3 39t-1 48h-2q-18 -43 -51 -69t-96 -26q-43 0 -72.5 15t-47.5 40.5t-25.5 59.5t-7.5 73v341h158v-321q0 -49 18.5 -65.5t42.5 -16.5q38 0 53.5 30t15.5 81v292h158v-412zM197 729h138l-100 -146h-92zM379 729h138l-100 -146
h-92z" />
    <glyph glyph-name="Uogonek" unicode="&#x172;" horiz-adv-x="630" 
d="M371 -21q-20 -20 -30.5 -42.5t-10.5 -42.5q0 -24 13.5 -37t31.5 -13q14 0 26.5 2.5t26.5 10.5v-67q-23 -9 -40 -10.5t-47 -1.5q-49 0 -79.5 25t-30.5 73q0 38 17 67t39 46q-106 8 -167 74.5t-61 189.5v445h164v-471q0 -53 21 -83t71 -30t71 30t21 83v471h164v-445
q0 -97 -39 -159t-108 -88q-14 -5 -29.5 -11.5t-23.5 -15.5z" />
    <glyph glyph-name="uogonek" unicode="&#x173;" horiz-adv-x="556" 
d="M505 0q-20 0 -32.5 -7.5t-17.5 -12.5q-21 -20 -31.5 -43t-10.5 -43q0 -24 13.5 -37t31.5 -13q14 0 26.5 2.5t26.5 10.5v-67q-23 -9 -40 -10.5t-47 -1.5q-49 0 -79.5 25t-30.5 73q0 45 22.5 77t48.5 47h-24q-2 17 -3 39t-1 48h-2q-18 -43 -51 -69t-96 -26q-43 0 -72.5 15
t-47.5 40.5t-25.5 59.5t-7.5 73v341h158v-321q0 -49 18.5 -65.5t42.5 -16.5q38 0 53.5 30t15.5 81v292h158v-412q0 -38 1 -63.5t3 -45.5z" />
    <glyph glyph-name="Ydieresis" unicode="&#x178;" horiz-adv-x="592" 
d="M214 267l-212 431h188l112 -270l104 270h184l-212 -434v-264h-164v267zM151 861h118v-126h-118v126zM323 861h118v-126h-118v126z" />
    <glyph glyph-name="Zacute" unicode="&#x179;" horiz-adv-x="519" 
d="M30 134l271 438h-264v126h448v-128l-271 -444h275v-126h-459v134zM256 848h147l-98 -110h-103z" />
    <glyph glyph-name="zacute" unicode="&#x17a;" horiz-adv-x="426" 
d="M33 521h361v-129l-195 -274h200v-118h-372v130l199 273h-193v118zM214 729h138l-100 -146h-92z" />
    <glyph glyph-name="Zdotaccent" unicode="&#x17b;" horiz-adv-x="519" 
d="M30 134l271 438h-264v126h448v-128l-271 -444h275v-126h-459v134zM209 861h118v-126h-118v126z" />
    <glyph glyph-name="zdotaccent" unicode="&#x17c;" horiz-adv-x="426" 
d="M33 521h361v-129l-195 -274h200v-118h-372v130l199 273h-193v118zM160 731h118v-126h-118v126z" />
    <glyph glyph-name="Zcaron" unicode="&#x17d;" horiz-adv-x="519" 
d="M30 134l271 438h-264v126h448v-128l-271 -444h275v-126h-459v134zM111 848h107l49 -61l49 61h107l-77 -110h-158z" />
    <glyph glyph-name="zcaron" unicode="&#x17e;" horiz-adv-x="426" 
d="M33 521h361v-129l-195 -274h200v-118h-372v130l199 273h-193v118zM68 729h97l54 -86l54 86h97l-76 -146h-150z" />
    <glyph glyph-name="florin" unicode="&#x192;" horiz-adv-x="520" 
d="M85 414h101l21 118q7 38 18 70.5t30.5 56.5t48 37.5t70.5 13.5q35 0 61.5 -7.5t42.5 -13.5l-15 -103q-7 5 -19.5 10.5t-33.5 5.5q-30 0 -41 -27t-20 -83l-13 -78h96l-12 -111h-102l-46 -284q-8 -49 -20.5 -93t-33.5 -77t-52 -52t-76 -19q-35 0 -61 8.5t-38 15.5l11 106
q9 -8 22.5 -13.5t30.5 -5.5q27 0 40 24.5t19 62.5l54 327h-95z" />
    <glyph glyph-name="Scommaaccent" unicode="&#x218;" 
d="M446 556q-29 15 -67 25.5t-71 10.5q-40 0 -66.5 -18.5t-26.5 -57.5q0 -32 20.5 -50.5t51 -33t66 -29.5t66 -39.5t51 -63t20.5 -100.5q0 -49 -18.5 -88.5t-51.5 -67t-77.5 -42t-96.5 -14.5q-64 0 -114.5 11t-73.5 18l9 136q37 -14 72 -28.5t81 -14.5q20 0 38 5t32.5 15
t23 26t8.5 37q0 34 -20.5 53.5t-51 34t-66 29t-66 38.5t-51 62.5t-20.5 100.5q0 5 1.5 22t9 39t22.5 46.5t42 44.5t68 33.5t99 13.5q48 0 83.5 -7t80.5 -17zM230 -37h98l-41 -144h-86z" />
    <glyph glyph-name="scommaaccent" unicode="&#x219;" horiz-adv-x="426" 
d="M365 390q-32 13 -62 20.5t-65 7.5q-31 0 -45 -12t-14 -26q0 -12 5 -20.5t17.5 -17t33.5 -17t53 -20.5q20 -7 39.5 -18t35 -28.5t25 -43t9.5 -62.5q0 -43 -15 -74t-41.5 -50t-61.5 -28t-74 -9q-35 0 -82 5t-89 20l4 122q29 -17 63 -26.5t67 -9.5q28 0 43.5 4.5t23.5 11.5
t10 15.5t2 17.5q0 17 -29 28.5t-80 32.5q-21 9 -40.5 22t-34.5 32t-24.5 45t-9.5 61q0 21 8.5 48t30.5 51t60 40.5t96 16.5q49 0 87 -7t58 -14zM188 -37h98l-41 -144h-86z" />
    <glyph glyph-name="circumflex" unicode="&#x2c6;" horiz-adv-x="222" 
d="M186 729l76 -146h-97l-54 86l-54 -86h-97l76 146h150z" />
    <glyph glyph-name="caron" unicode="&#x2c7;" horiz-adv-x="222" 
d="M-40 729h97l54 -86l54 86h97l-76 -146h-150z" />
    <glyph glyph-name="breve" unicode="&#x2d8;" horiz-adv-x="222" 
d="M111 659q23 0 37.5 7t22.5 17.5t11 22t3 20.5h66q0 -26 -7 -52t-23.5 -47t-43.5 -34.5t-66 -13.5t-66 13.5t-43.5 34.5t-23.5 47t-7 52h66q0 -9 3 -20.5t11 -22t22.5 -17.5t37.5 -7z" />
    <glyph glyph-name="dotaccent" unicode="&#x2d9;" horiz-adv-x="222" 
d="M52 731h118v-126h-118v126z" />
    <glyph glyph-name="ring" unicode="&#x2da;" horiz-adv-x="222" 
d="M23 650q0 22 8.5 41t22.5 33.5t33 22.5t41 8t41 -8t33.5 -22.5t22.5 -33.5t8 -41t-8 -41t-22.5 -33t-33.5 -22.5t-41 -8.5t-41 8.5t-33 22.5t-22.5 33t-8.5 41zM74 650q0 -22 16 -38t38 -16t38 16t16 38t-16 38t-38 16t-38 -16t-16 -38z" />
    <glyph glyph-name="ogonek" unicode="&#x2db;" horiz-adv-x="222" 
d="M229 0q-33 -23 -49.5 -51.5t-16.5 -54.5q0 -24 13.5 -37t31.5 -13q14 0 26.5 2.5t26.5 10.5v-67q-23 -9 -40 -10.5t-47 -1.5q-49 0 -79.5 25t-30.5 73q0 45 22.5 77t48.5 47h94z" />
    <glyph glyph-name="tilde" unicode="&#x2dc;" horiz-adv-x="222" 
d="M-46 594q1 21 7.5 43t18.5 39.5t29 28.5t40 11q20 0 37 -5.5t31.5 -12.5t27 -12.5t22.5 -5.5q15 0 20 12.5t7 23.5h74q0 -3 -2 -22t-11.5 -41.5t-28.5 -40.5t-53 -18q-17 0 -34 5.5t-32.5 12.5t-29 12.5t-22.5 5.5q-8 0 -13 -4.5t-8 -10.5t-4.5 -12t-1.5 -9h-74z" />
    <glyph glyph-name="hungarumlaut" unicode="&#x2dd;" horiz-adv-x="222" 
d="M1 729h138l-100 -146h-92zM183 729h138l-100 -146h-92z" />
    <glyph glyph-name="endash" unicode="&#x2013;" horiz-adv-x="500" 
d="M0 342h500v-108h-500v108z" />
    <glyph glyph-name="emdash" unicode="&#x2014;" horiz-adv-x="1000" 
d="M0 342h1000v-108h-1000v108z" />
    <glyph glyph-name="quoteleft" unicode="&#x2018;" horiz-adv-x="260" 
d="M181 490h-150l80 260h118z" />
    <glyph glyph-name="quoteright" unicode="&#x2019;" horiz-adv-x="260" 
d="M79 750h150l-80 -260h-118z" />
    <glyph glyph-name="quotesinglbase" unicode="&#x201a;" horiz-adv-x="260" 
d="M79 150h150l-80 -260h-118z" />
    <glyph glyph-name="quotedblleft" unicode="&#x201c;" horiz-adv-x="520" 
d="M408 490h-150l80 260h118zM214 490h-150l80 260h118z" />
    <glyph glyph-name="quotedblright" unicode="&#x201d;" horiz-adv-x="520" 
d="M112 750h150l-80 -260h-118zM306 750h150l-80 -260h-118z" />
    <glyph glyph-name="quotedblbase" unicode="&#x201e;" horiz-adv-x="520" 
d="M112 150h150l-80 -260h-118zM306 150h150l-80 -260h-118z" />
    <glyph glyph-name="dagger" unicode="&#x2020;" horiz-adv-x="519" 
d="M195 411h-143v118h143v169h130v-169h142v-118h-142v-411h-130v411z" />
    <glyph glyph-name="daggerdbl" unicode="&#x2021;" horiz-adv-x="519" 
d="M196 142h-144v111h144v192h-144v111h144v142h126v-142h145v-111h-145v-192h145v-111h-145v-142h-126v142z" />
    <glyph glyph-name="bullet" unicode="&#x2022;" horiz-adv-x="500" 
d="M76 349q0 36 13.5 67.5t37.5 55.5t55.5 37.5t67.5 13.5t68 -13.5t55.5 -37.5t37.5 -55.5t14 -67.5t-14 -68t-37.5 -55.5t-55.5 -37.5t-68 -14t-67.5 14t-55.5 37.5t-37.5 55.5t-13.5 68z" />
    <glyph glyph-name="ellipsis" unicode="&#x2026;" horiz-adv-x="1000" 
d="M95 150h144v-150h-144v150zM428 150h144v-150h-144v150zM761 150h144v-150h-144v150z" />
    <glyph glyph-name="perthousand" unicode="&#x2030;" horiz-adv-x="944" 
d="M158 410q15 0 22.5 9t11.5 24.5t4.5 35.5t0.5 41q0 23 -0.5 43t-4.5 35t-11.5 23.5t-22.5 8.5t-22.5 -8.5t-11.5 -23.5t-4.5 -35t-0.5 -43q0 -21 0.5 -41t4.5 -35.5t11.5 -24.5t22.5 -9zM158 330q-34 0 -58 14t-39 39t-21.5 60t-6.5 77q0 41 6 75.5t20 60t38.5 40
t60.5 14.5t60.5 -14.5t38.5 -40t20 -60t6 -75.5q0 -42 -6.5 -77t-21.5 -60t-39 -39t-58 -14zM786 -12q-34 0 -58 14t-39 39t-21.5 60t-6.5 77q0 41 6 75.5t20 60t38.5 40t60.5 14.5t60.5 -14.5t38.5 -40t20 -60t6 -75.5q0 -42 -6.5 -77t-21.5 -60t-39 -39t-58 -14zM786 68
q15 0 22.5 9t11.5 24.5t4.5 35.5t0.5 41q0 23 -0.5 43t-4.5 35t-11.5 23.5t-22.5 8.5t-22.5 -8.5t-11.5 -23.5t-4.5 -35t-0.5 -43q0 -21 0.5 -41t4.5 -35.5t11.5 -24.5t22.5 -9zM499 -12q-34 0 -58 14t-39 39t-21.5 60t-6.5 77q0 41 6 75.5t20 60t38.5 40t60.5 14.5
t60.5 -14.5t38.5 -40t20 -60t6 -75.5q0 -42 -6.5 -77t-21.5 -60t-39 -39t-58 -14zM499 68q15 0 22.5 9t11.5 24.5t4.5 35.5t0.5 41q0 23 -0.5 43t-4.5 35t-11.5 23.5t-22.5 8.5t-22.5 -8.5t-11.5 -23.5t-4.5 -35t-0.5 -43q0 -21 0.5 -41t4.5 -35.5t11.5 -24.5t22.5 -9z
M447 731h74l-315 -764h-74z" />
    <glyph glyph-name="guilsinglleft" unicode="&#x2039;" horiz-adv-x="315" 
d="M135 467h125l-90 -207l90 -207h-125l-99 207z" />
    <glyph glyph-name="guilsinglright" unicode="&#x203a;" horiz-adv-x="315" 
d="M279 260l-99 -207h-125l90 207l-90 207h125z" />
    <glyph glyph-name="fraction" unicode="&#x2044;" horiz-adv-x="167" 
d="M196 731h90l-315 -764h-90z" />
    <glyph glyph-name="trademark" unicode="&#x2122;" horiz-adv-x="1000" 
d="M466 698h144l99 -260l99 260h144v-416h-96v294h-2l-108 -294h-74l-108 294h-2v-294h-96v416zM165 618h-117v80h338v-80h-117v-336h-104v336z" />
    <glyph glyph-name="partialdiff" unicode="&#x2202;" horiz-adv-x="494" 
d="M65 717q15 6 35.5 13t44.5 11t50 4.5t51 -5.5q46 -11 89 -41t79 -93q17 -30 26.5 -63.5t14.5 -63.5t6 -53.5t1 -32.5q0 -15 -2.5 -46t-8.5 -68t-16 -76.5t-25 -71.5q-20 -43 -41 -74t-63 -54q-52 -29 -104.5 -23.5t-90.5 31.5q-29 20 -54 54t-30 91q-3 30 2 57.5t14 50
t19.5 39.5t19.5 28q26 32 60 52.5t82 18.5q22 -1 39 -4.5t33 -11t34.5 -20t43.5 -32.5q6 32 8 59.5t3 56.5q0 18 -3 41t-8 45t-10.5 41.5t-10.5 31.5q-4 11 -13.5 25.5t-23.5 28t-33 23.5t-42 12q-27 2 -43 1t-29.5 -5t-28 -11t-36.5 -16zM366 299q-8 9 -17 20t-22 21
t-29.5 16.5t-39.5 6.5q-57 -2 -96 -54q-30 -42 -40 -82.5t-10 -78.5q0 -11 1 -27.5t5.5 -34.5t13.5 -35t26 -28q21 -14 41 -14.5t42 9.5q28 12 47 35t34 58q18 45 28 92t16 96z" />
    <glyph glyph-name="Delta" unicode="&#x2206;" horiz-adv-x="612" 
d="M608 0h-602l320 688zM72 49h412l-194 468z" />
    <glyph glyph-name="summation" unicode="&#x2211;" horiz-adv-x="713" 
d="M623 586h-20q-7 24 -14 45t-22 36.5t-42 24t-75 8.5h-263l273 -358l-294 -339h371q29 0 49 5t34.5 18t26.5 35t25 55h23q-9 -38 -15 -63.5t-10.5 -48.5t-8.5 -48.5t-9 -63.5q-20 3 -39 7t-38 4h-503q-15 0 -29 -1.5t-29 -1.5l349 398l-347 454q26 -2 52 -4.5t52 -2.5h497
z" />
    <glyph glyph-name="minus" unicode="&#x2212;" horiz-adv-x="600" 
d="M47 305h506v-104h-506v104z" />
    <glyph glyph-name="radical" unicode="&#x221a;" horiz-adv-x="549" 
d="M10 450l146 72l197 -403l127 798l35 -5l-150 -950l-243 502l-96 -47z" />
    <glyph glyph-name="notequal" unicode="&#x2260;" horiz-adv-x="549" 
d="M451 521l-76 -136h165v-55h-195l-78 -139h273v-55h-303l-90 -161l-49 28l74 133h-157v55h188l77 139h-265v55h296l91 164z" />
    <glyph glyph-name="lessequal" unicode="&#x2264;" horiz-adv-x="549" 
d="M29 55h497v-55h-497v55zM29 409l497 230v-62l-433 -199l433 -199v-62l-497 230v62z" />
    <glyph glyph-name="greaterequal" unicode="&#x2265;" horiz-adv-x="549" 
d="M526 0h-497v55h497v-55zM526 347l-497 -230v62l433 199l-433 199v62l497 -230v-62z" />
    <glyph glyph-name="lozenge" unicode="&#x25ca;" horiz-adv-x="494" 
d="M212 0l-194 377l194 368h60l194 -368l-194 -377h-60zM242 691l-164 -314l164 -323l164 323z" />
    <glyph glyph-name="fi" unicode="&#xfb01;" horiz-adv-x="630" 
d="M9 521h91v85q0 31 7 59.5t25.5 50t50 34t80.5 12.5q42 0 66 -5t37 -7l-4 -110q-18 8 -41 8q-35 0 -49 -15t-14 -56v-56h95v-111h-95v-410h-158v410h-91v111zM404 521h158v-521h-158v521zM404 750h158v-140h-158v140z" />
    <glyph glyph-name="fl" unicode="&#xfb02;" horiz-adv-x="630" 
d="M9 521h91v85q0 31 7 59.5t25.5 50t50 34t80.5 12.5q42 0 66 -5t37 -7l-4 -110q-18 8 -41 8q-35 0 -49 -15t-14 -56v-56h95v-111h-95v-410h-158v410h-91v111zM404 750h158v-750h-158v750z" />
    <glyph glyph-name="commaaccent" horiz-adv-x="260" 
d="M111 -37h98l-41 -144h-86z" />
  </font>
</defs>
</svg>
