<?xml version="1.0" standalone="no"?>
<!DOCTYPE svg PUBLIC "-//W3C//DTD SVG 1.1//EN" "http://www.w3.org/Graphics/SVG/1.1/DTD/svg11.dtd" >
<svg>
<metadata>
Created by FontForge 20120731 at Mon Sep 12 10:39:38 2016
 By ,,,
 The digitally encoded machine readable software for producing   the Typefaces licensed to you is copyrighted (c) 1988, 1990 Adobe  Systems. All Rights Reserved. This software is the property of  Adobe Systems Incorporated and its licensors, and may not be  reproduced, used, displayed, modified, disclosed or transferred  without the express written approval of Adobe. 
</metadata>
<defs>
<font id="FrutigerCE-LightItalic" horiz-adv-x="556" >
  <font-face 
    font-family="L Frutiger CE Light"
    font-weight="300"
    font-style="italic"
    font-stretch="normal"
    units-per-em="1000"
    panose-1="0 0 0 0 0 0 0 0 0 0"
    ascent="800"
    descent="-200"
    x-height="510"
    cap-height="698"
    bbox="-143 -216 1031 917"
    underline-thickness="50"
    underline-position="-50"
    slope="-12"
    unicode-range="U+000D-FB02"
  />
<missing-glyph horiz-adv-x="278" 
 />
    <glyph glyph-name=".notdef" horiz-adv-x="278" 
 />
    <glyph glyph-name=".null" horiz-adv-x="0" 
 />
    <glyph glyph-name=".null" horiz-adv-x="0" 
 />
    <glyph glyph-name="nonmarkingreturn" unicode="&#xd;" horiz-adv-x="250" 
 />
    <glyph glyph-name="space" unicode=" " horiz-adv-x="278" 
 />
    <glyph glyph-name="exclam" unicode="!" horiz-adv-x="389" 
d="M250 698h84l-125 -529h-59zM119 84h82l-17 -84h-82z" />
    <glyph glyph-name="quotedbl" unicode="&#x22;" horiz-adv-x="444" 
d="M179 698h63v-218h-63v218zM314 698h63v-218h-63v218z" />
    <glyph glyph-name="numbersign" unicode="#" 
d="M158 219h-112l8 54h111l22 152h-115l8 54h114l31 219h61l-31 -219h130l31 219h61l-31 -219h104l-8 -54h-103l-21 -152h104l-8 -54h-104l-31 -219h-61l31 219h-130l-31 -219h-61zM378 425h-130l-21 -152h130z" />
    <glyph glyph-name="dollar" unicode="$" 
d="M339 646q-24 -4 -46 -14t-39.5 -25t-27.5 -36.5t-10 -50.5q0 -32 20.5 -55t52.5 -44zM254 52q29 4 56 14t48 28t33.5 43.5t12.5 59.5q0 44 -26.5 73t-62.5 54zM418 786l-17 -76q79 -3 144 -31l-21 -63q-63 32 -136 34l-57 -256q25 -16 50.5 -33.5t45.5 -40t33 -50.5
t13 -64q0 -50 -19.5 -89t-52 -66t-74.5 -42.5t-87 -18.5l-18 -80h-48l18 78q-58 3 -94.5 15t-57.5 23l21 66q29 -20 67.5 -31.5t76.5 -12.5l68 304q-24 15 -46.5 31.5t-40.5 36t-28.5 42.5t-10.5 53q0 47 16.5 82t45 58.5t65.5 36.5t79 16l17 78h48z" />
    <glyph glyph-name="percent" unicode="%" horiz-adv-x="944" 
d="M700 47q33 0 56.5 17t38.5 43t22 56t7 57q0 35 -21.5 62.5t-62.5 27.5q-35 0 -59 -17t-39 -43.5t-21.5 -57.5t-6.5 -59q0 -38 22.5 -62t63.5 -24zM694 -7q-34 0 -60.5 11.5t-45 32t-28 48t-9.5 60.5q0 39 13.5 78t38.5 70.5t60 51t77 19.5q66 0 106.5 -39t40.5 -105
q0 -43 -13 -84t-37.5 -72.5t-60.5 -51t-82 -19.5zM238 388q33 0 56.5 17t38.5 43t22 56t7 57q0 35 -21.5 62.5t-62.5 27.5q-35 0 -59 -17t-39 -43.5t-21.5 -57.5t-6.5 -59q0 -38 22.5 -62t63.5 -24zM232 334q-34 0 -60.5 11.5t-45 32t-28 48t-9.5 60.5q0 39 13.5 78
t38.5 70.5t60 51t77 19.5q66 0 106.5 -39t40.5 -105q0 -43 -13 -84t-37.5 -72.5t-60.5 -51t-82 -19.5zM684 720h56l-445 -742h-56z" />
    <glyph glyph-name="ampersand" unicode="&#x26;" horiz-adv-x="667" 
d="M466 79q-54 -53 -109.5 -72t-112.5 -19q-48 0 -87.5 12.5t-68.5 36t-45 57.5t-16 76q0 48 19 85.5t50.5 65.5t72 47t83.5 30q-28 39 -47 73t-19 81q0 42 16.5 72t43.5 49t60.5 28t67.5 9q35 0 66 -9t54 -27t36.5 -45.5t13.5 -65.5q0 -40 -18.5 -70.5t-48 -54t-65.5 -40
t-71 -27.5l140 -200q43 46 64.5 100.5t36.5 110.5h60q-15 -72 -47.5 -138t-82.5 -122l80 -122h-75zM282 356q-35 -10 -68.5 -25.5t-59.5 -37.5t-42 -52t-16 -71q0 -31 13 -55t34 -40.5t47.5 -24.5t53.5 -8q55 0 104 23.5t90 61.5zM481 563q0 48 -31 70.5t-81 22.5
q-22 0 -43.5 -6.5t-38.5 -19.5t-27.5 -32.5t-10.5 -44.5q0 -28 16 -62t48 -78q27 9 56.5 21.5t54 30.5t41 42t16.5 56z" />
    <glyph glyph-name="quotesingle" unicode="'" horiz-adv-x="278" 
d="M166 698h63v-218h-63v218z" />
    <glyph glyph-name="parenleft" unicode="(" horiz-adv-x="278" 
d="M389 756q-52 -61 -98.5 -124.5t-82 -132t-56.5 -142.5t-21 -157q0 -88 18 -173.5t50 -166.5h-45q-35 83 -60.5 176t-25.5 184q0 81 23 152.5t60 136.5t84 126t95 121h59z" />
    <glyph glyph-name="parenright" unicode=")" horiz-adv-x="278" 
d="M-71 -140q52 61 98.5 124.5t82 132t56.5 143t21 156.5q0 88 -18 173.5t-50 166.5h45q35 -83 60.5 -176t25.5 -184q0 -81 -23 -152.5t-60 -136.5t-84 -126t-95 -121h-59z" />
    <glyph glyph-name="asterisk" unicode="*" 
d="M278 501l-148 42l19 58l144 -56l-6 153h57l-6 -153l148 56l17 -58l-150 -42l89 -122l-46 -35l-81 129l-90 -129l-46 35z" />
    <glyph glyph-name="plus" unicode="+" horiz-adv-x="600" 
d="M61 288h219v219h69v-219h219v-69h-219v-219h-69v219h-219v69z" />
    <glyph glyph-name="comma" unicode="," horiz-adv-x="278" 
d="M65 84h82l-123 -218h-61z" />
    <glyph glyph-name="hyphen" unicode="-" horiz-adv-x="333" 
d="M50 304h255l-11 -69h-255z" />
    <glyph glyph-name="period" unicode="." horiz-adv-x="278" 
d="M65 84h82l-17 -84h-82z" />
    <glyph glyph-name="slash" unicode="/" horiz-adv-x="278" 
d="M265 710h69l-273 -722h-67z" />
    <glyph glyph-name="zero" unicode="0" 
d="M54 225q0 36 7.5 85.5t23 102.5t40 105.5t58.5 94t78 67t98 25.5q52 0 88 -18.5t58.5 -50.5t32.5 -74t10 -89q0 -36 -7.5 -85.5t-23 -102.5t-40 -105.5t-58.5 -94t-78 -67t-98 -25.5q-52 0 -88 18.5t-58.5 50.5t-32.5 74t-10 89zM123 226q0 -28 4.5 -58.5t17 -56t35 -42
t58.5 -16.5q42 0 76 24t61 62t46.5 85t32.5 94t19 87.5t6 66.5q0 28 -4.5 58.5t-17.5 56t-37 42t-62 16.5q-40 0 -73.5 -24t-59.5 -62t-45 -85t-32 -94t-19 -87.5t-6 -66.5z" />
    <glyph glyph-name="one" unicode="1" 
d="M341 620l-133 -95l-32 47l196 126h52l-147 -698h-66z" />
    <glyph glyph-name="two" unicode="2" 
d="M17 54l186 162q32 28 74.5 65.5t80.5 79.5t64 86.5t26 87.5q0 51 -34.5 80.5t-87.5 29.5t-98.5 -17t-77.5 -43l6 73q34 20 79 33.5t91 13.5q91 0 141 -44.5t50 -119.5q0 -41 -15.5 -79t-39.5 -72t-53 -64t-56 -57l-240 -209h328l-14 -60h-425z" />
    <glyph glyph-name="three" unicode="3" 
d="M174 398h67q39 0 77 8t67.5 24.5t47.5 41t18 56.5t-13 54.5t-33 36.5t-45.5 20t-50.5 6q-28 0 -50.5 -2.5t-42 -7.5t-37.5 -12.5t-38 -17.5l5 67q37 17 79.5 25t83.5 8q40 0 78 -9.5t67.5 -30t47.5 -53t18 -78.5q0 -36 -15 -65.5t-40 -51t-58 -35.5t-68 -18v-2
q59 -12 87 -53t28 -93q0 -57 -25.5 -99t-66 -69.5t-91 -41t-100.5 -13.5q-43 0 -84 6.5t-88 24.5l16 60q28 -11 62 -21t94 -10q44 0 83 10.5t68 31.5t46 53t17 74q0 29 -14 50.5t-36.5 36t-52 22t-59.5 7.5h-64z" />
    <glyph glyph-name="four" unicode="4" 
d="M338 161h-337l15 66l416 471h89l-103 -477h103l-12 -60h-104l-35 -161h-66zM352 221l90 408h-2l-353 -408h265z" />
    <glyph glyph-name="five" unicode="5" 
d="M197 698h367l-12 -60h-305l-51 -221q22 5 44 8.5t45 3.5q45 0 82 -12.5t64 -35.5t42 -57t15 -77q0 -60 -23.5 -107.5t-62.5 -80t-88.5 -49.5t-102.5 -17t-93.5 7.5t-78.5 21.5l13 66q27 -14 63.5 -24.5t79.5 -10.5q48 0 89 13.5t71 38.5t47 60t17 78q0 31 -13 54.5
t-34.5 39.5t-51 24t-62.5 8q-36 0 -71.5 -6.5t-70.5 -17.5z" />
    <glyph glyph-name="six" unicode="6" 
d="M538 610q-26 14 -62 24.5t-78 10.5q-55 0 -100.5 -25.5t-79 -66t-54.5 -90.5t-27 -100h2q38 38 78 58t102 20q43 0 79 -15t61.5 -41t40 -61.5t14.5 -76.5q0 -52 -18 -98.5t-50 -81t-76 -54.5t-95 -20q-63 0 -104.5 21.5t-66 57.5t-34.5 83t-10 98q0 81 21 162t63.5 145.5
t106.5 104.5t151 40q42 0 82 -9t72 -25zM279 53q36 0 66.5 16.5t52.5 43t34.5 60t12.5 66.5q0 29 -9 54.5t-28.5 45t-48.5 31t-70 11.5q-33 0 -62 -14t-50.5 -37t-34.5 -54t-13 -66q0 -34 11 -64t30.5 -51.5t47.5 -32.5t61 -9z" />
    <glyph glyph-name="seven" unicode="7" 
d="M563 644l-413 -644h-79l414 638h-347l12 60h423z" />
    <glyph glyph-name="eight" unicode="8" 
d="M262 47q32 0 62.5 10t54.5 28.5t39 45.5t15 60q0 36 -15.5 61t-37.5 42.5t-47 29.5t-44 22q-13 -2 -43.5 -12.5t-61.5 -30.5t-54.5 -49t-23.5 -68q0 -34 13 -60t35 -43.5t50 -26.5t58 -9zM345 651q-28 0 -53.5 -8.5t-45 -25t-31 -41t-11.5 -55.5q0 -20 8.5 -39t22 -35.5
t30.5 -30.5t35 -26q27 9 59 21.5t59.5 30.5t46 42t18.5 56q0 30 -12.5 51t-32 34.5t-44.5 19.5t-49 6zM351 705q39 0 75.5 -9t64.5 -28.5t44.5 -51t16.5 -76.5q0 -37 -18 -66t-46.5 -51t-63 -36t-67.5 -21v-2q31 -11 57.5 -26.5t46 -36.5t30.5 -47.5t11 -61.5
q0 -50 -19 -87.5t-52 -62t-76.5 -37t-92.5 -12.5q-47 0 -88 11.5t-71.5 34.5t-48 59t-17.5 84q0 39 16.5 70t44.5 55t63.5 40t73.5 25v2q-39 24 -69.5 62t-30.5 85q0 45 18.5 79.5t49 58t69.5 35t79 11.5z" />
    <glyph glyph-name="nine" unicode="9" 
d="M60 88q26 -14 62 -24.5t78 -10.5q56 0 101 25.5t78.5 66t54.5 90.5t27 100h-2q-38 -37 -78 -57.5t-102 -20.5q-43 0 -79 15t-61.5 41t-40 61.5t-14.5 76.5q0 52 18 98.5t50 81t76 54.5t95 20q63 0 104.5 -21.5t66 -57.5t34.5 -83t10 -98q0 -81 -21 -161.5t-63.5 -145
t-106.5 -105t-151 -40.5q-42 0 -82 9t-72 25zM319 645q-36 0 -66.5 -16.5t-52.5 -43t-34.5 -60t-12.5 -66.5q0 -28 9 -54t28.5 -45.5t49 -31t69.5 -11.5q33 0 62 14t50.5 37t34.5 54.5t13 65.5q0 35 -11 64.5t-30.5 51t-47.5 32.5t-61 9z" />
    <glyph glyph-name="colon" unicode=":" horiz-adv-x="278" 
d="M154 510h82l-17 -84h-82zM65 84h82l-17 -84h-82z" />
    <glyph glyph-name="semicolon" unicode=";" horiz-adv-x="278" 
d="M65 84h82l-123 -218h-61zM154 510h82l-17 -84h-82z" />
    <glyph glyph-name="less" unicode="&#x3c;" horiz-adv-x="600" 
d="M568 448l-430 -195l430 -195v-66l-507 230v62l507 230v-66z" />
    <glyph glyph-name="equal" unicode="=" horiz-adv-x="600" 
d="M61 388h507v-69h-507v69zM61 187h507v-69h-507v69z" />
    <glyph glyph-name="greater" unicode="&#x3e;" horiz-adv-x="600" 
d="M62 58l431 195l-431 195v66l507 -230v-62l-507 -230v66z" />
    <glyph glyph-name="question" unicode="?" horiz-adv-x="500" 
d="M155 688q30 8 60.5 15t62.5 7q38 0 72 -9.5t60.5 -29t42 -50t15.5 -72.5q0 -30 -10 -55t-26 -47t-36.5 -40.5t-41.5 -36.5q-19 -16 -41.5 -34.5t-43.5 -40t-37.5 -45t-21.5 -49.5l-7 -32h-58l8 39q6 30 21 56.5t35.5 50t44 44t46.5 39.5q19 15 37 30.5t31.5 33.5t22 39
t8.5 48q0 28 -12.5 47t-32 31t-43.5 17.5t-46 5.5q-27 0 -61.5 -7.5t-59.5 -18.5zM121 84h82l-17 -84h-82z" />
    <glyph glyph-name="at" unicode="@" horiz-adv-x="800" 
d="M266 290q2 -46 21 -71t51 -25q36 0 66.5 21.5t52 53t33.5 68.5t12 68q0 26 -7.5 43.5t-19 28t-25.5 14.5t-28 4q-24 0 -51.5 -15t-50.5 -42.5t-38.5 -65t-15.5 -82.5zM531 266q-5 -13 -7.5 -25.5t-2.5 -23.5q0 -9 5 -16t17 -7q28 0 54.5 17t47 46.5t33 68.5t12.5 82
q0 58 -24 103t-64 76t-92 47t-109 16q-63 0 -117 -22.5t-93.5 -62.5t-62 -95t-22.5 -120q0 -66 22.5 -121t62 -95.5t93.5 -63t117 -22.5q85 0 153.5 30t110.5 81h61q-47 -81 -132 -126t-193 -45q-90 0 -157.5 31t-113 82t-68 116t-22.5 132q0 68 22.5 133t68 115.5t113 81.5
t157.5 31q66 0 129.5 -19.5t113.5 -57.5t81 -94.5t31 -130.5q0 -64 -23.5 -115t-58 -86t-73.5 -54t-71 -19q-67 0 -79 61h-2q-9 -11 -20 -22t-25.5 -19.5t-33 -14t-44.5 -5.5q-30 0 -54.5 12t-42.5 32.5t-28 47.5t-10 58q0 49 16.5 97.5t47 87t73 62.5t94.5 24q35 0 64 -18
t46 -59l21 60h63z" />
    <glyph glyph-name="A" unicode="A" horiz-adv-x="667" 
d="M420 629l-236 -382h309zM391 698h82l136 -698h-70l-35 187h-357l-115 -187h-74z" />
    <glyph glyph-name="B" unicode="B" 
d="M182 698h126q42 0 83 -5t73 -21.5t52 -46.5t20 -81q0 -37 -14 -68.5t-37 -55t-54 -38t-65 -17.5v-2q60 -8 90.5 -45t30.5 -98q0 -50 -21 -91t-58.5 -69.5t-88.5 -44t-111 -15.5h-176zM113 60h88q45 0 84.5 9.5t69 29t46.5 50t17 71.5q0 59 -36 86t-90 27h-119zM185 393
h89q34 0 68.5 8t62 25.5t45 45.5t17.5 69q0 33 -12 52.5t-33.5 29.5t-50.5 12.5t-62 2.5h-71z" />
    <glyph glyph-name="C" unicode="C" horiz-adv-x="611" 
d="M653 616q-38 20 -80.5 27t-87.5 7q-76 0 -139 -27.5t-108 -75.5t-70 -113t-25 -141q0 -51 19 -95.5t53 -78t80.5 -52.5t101.5 -19q33 0 54.5 2t37.5 5.5t29 7.5t28 8l-8 -61q-21 -6 -50.5 -14t-85.5 -8q-67 0 -126.5 21t-104.5 61t-71 96.5t-26 127.5q0 92 31 168
t86 131.5t131.5 86t166.5 30.5q57 0 100.5 -8t87.5 -28z" />
    <glyph glyph-name="D" unicode="D" horiz-adv-x="667" 
d="M119 60h123q79 0 141.5 24t106 70t66.5 112.5t23 151.5q0 59 -18 100.5t-50.5 68t-78.5 39t-102 12.5h-87zM185 698h124q70 0 132 -14t108 -46.5t72.5 -86t26.5 -133.5q0 -93 -26.5 -170t-77.5 -132t-125.5 -85.5t-170.5 -30.5h-211z" />
    <glyph glyph-name="E" unicode="E" horiz-adv-x="500" 
d="M181 698h344l-11 -60h-277l-51 -249h261l-11 -60h-262l-56 -269h287l-10 -60h-358z" />
    <glyph glyph-name="F" unicode="F" horiz-adv-x="444" 
d="M176 698h334l-13 -60h-267l-51 -249h256l-12 -60h-255l-71 -329h-69z" />
    <glyph glyph-name="G" unicode="G" horiz-adv-x="722" 
d="M682 610q-43 22 -91 31t-96 9q-75 0 -139 -25t-110 -70.5t-72 -109t-26 -140.5q0 -54 18 -101t51 -81.5t78 -54.5t99 -20q55 0 87 10.5t49 18.5l49 241h-167l14 60h237l-73 -355q-10 -3 -25 -8.5t-38 -11.5t-54.5 -10.5t-73.5 -4.5q-73 0 -132 23t-101 66t-64.5 103
t-22.5 133q0 88 32 161t87 125.5t129.5 81.5t159.5 29q53 0 106 -7.5t108 -27.5z" />
    <glyph glyph-name="H" unicode="H" horiz-adv-x="667" 
d="M185 698h68l-65 -309h357l66 309h68l-150 -698h-68l71 329h-357l-70 -329h-68z" />
    <glyph glyph-name="I" unicode="I" horiz-adv-x="222" 
d="M176 698h69l-148 -698h-69z" />
    <glyph glyph-name="J" unicode="J" horiz-adv-x="333" 
d="M-20 63q16 -7 32.5 -11t33.5 -4q39 0 63 19.5t39 48.5t23 63t14 63l96 456h69l-102 -468q-10 -46 -22 -89.5t-33 -77.5t-55 -54.5t-88 -20.5q-21 0 -45 2t-40 10z" />
    <glyph glyph-name="K" unicode="K" horiz-adv-x="611" 
d="M196 698h68l-65 -304h2l368 304h100l-411 -331l296 -367h-86l-279 349l-72 -349h-70z" />
    <glyph glyph-name="L" unicode="L" horiz-adv-x="444" 
d="M177 698h71l-137 -638h285l-11 -60h-357z" />
    <glyph glyph-name="M" unicode="M" horiz-adv-x="889" 
d="M185 698h96l128 -614l388 614h107l-148 -698h-68l135 623h-2l-398 -623h-57l-131 623h-2l-132 -623h-64z" />
    <glyph glyph-name="N" unicode="N" horiz-adv-x="667" 
d="M179 698h82l233 -614h2l130 614h63l-148 -698h-82l-233 614h-2l-132 -614h-64z" />
    <glyph glyph-name="O" unicode="O" horiz-adv-x="722" 
d="M67 273q0 83 25.5 161.5t73 140t116.5 98.5t156 37q65 0 114 -20.5t82.5 -58t50.5 -90t17 -116.5q0 -83 -25.5 -161.5t-73 -140t-116.5 -98.5t-156 -37q-64 0 -113.5 20.5t-83 58t-50.5 90t-17 116.5zM136 279q0 -49 12 -91t36.5 -73t61.5 -49t87 -18q70 0 125.5 34
t94.5 87t59.5 119.5t20.5 130.5q0 49 -12 91t-36.5 73t-61.5 49t-87 18q-70 0 -125.5 -34t-94.5 -87t-59.5 -119t-20.5 -131z" />
    <glyph glyph-name="P" unicode="P" horiz-adv-x="500" 
d="M185 362h78q40 0 77.5 8.5t67 27.5t47 49.5t17.5 75.5q0 36 -13 58.5t-34.5 35t-49.5 17t-58 4.5h-73zM187 698h119q49 0 91.5 -6.5t74.5 -25.5t50.5 -53.5t18.5 -89.5q0 -56 -23 -97.5t-61.5 -69t-87 -41t-99.5 -13.5h-98l-66 -302h-69z" />
    <glyph glyph-name="Q" unicode="Q" horiz-adv-x="722" 
d="M479 -132l-103 124q-19 -4 -45 -4q-64 0 -113.5 20.5t-83 58t-50.5 90t-17 116.5q0 83 25.5 161.5t73 140t116.5 98.5t156 37q65 0 114 -20.5t82.5 -58t50.5 -90t17 -116.5q0 -69 -17.5 -135t-51 -122t-82 -98.5t-110.5 -63.5l124 -138h-86zM136 279q0 -49 12 -91
t36.5 -73t61.5 -49t87 -18q70 0 125.5 34t94.5 87t59.5 119.5t20.5 130.5q0 49 -12 91t-36.5 73t-61.5 49t-87 18q-70 0 -125.5 -34t-94.5 -87t-59.5 -119t-20.5 -131z" />
    <glyph glyph-name="R" unicode="R" 
d="M189 698h158q42 1 77 -6.5t60.5 -25.5t40 -48.5t14.5 -75.5q0 -43 -15.5 -76.5t-42 -57.5t-62.5 -37.5t-77 -15.5v-2q22 -4 35 -12.5t20.5 -19.5t11.5 -25l8 -28l66 -268h-68l-61 259q-12 42 -33 56t-63 14h-81l-70 -329h-70zM190 389h73q35 0 71.5 7t66.5 23.5t49.5 44
t19.5 69.5q0 30 -9.5 50t-26.5 32t-40 17.5t-50 5.5h-101z" />
    <glyph glyph-name="S" unicode="S" horiz-adv-x="500" 
d="M498 616q-66 34 -141 34q-29 0 -58.5 -7t-53.5 -22.5t-39.5 -40.5t-15.5 -60q0 -30 19 -52.5t47.5 -42.5t62 -40t62 -44.5t47.5 -57t19 -77.5q0 -53 -22.5 -94t-58.5 -68.5t-82 -41.5t-94 -14q-69 0 -111 12.5t-65 25.5l21 66q31 -21 71 -32.5t78 -11.5q35 0 70 8
t62.5 26t44.5 46.5t17 68.5q0 36 -19 62.5t-47.5 48.5t-62 42t-62 43t-47.5 52.5t-19 69.5q0 51 19.5 88t52.5 60.5t75.5 35t88.5 11.5q90 0 162 -31z" />
    <glyph glyph-name="T" unicode="T" horiz-adv-x="500" 
d="M101 698h493l-12 -60h-212l-134 -638h-72l136 638h-212z" />
    <glyph glyph-name="U" unicode="U" horiz-adv-x="667" 
d="M594 266q-10 -61 -32.5 -112t-57.5 -88t-83 -57.5t-109 -20.5q-50 0 -92 14.5t-73 42t-48 68.5t-17 95q0 24 4 55t10 64t13 64.5t13 55.5l55 251h66l-71 -340q-3 -15 -6.5 -34t-7 -39t-5.5 -39t-2 -35q0 -77 42.5 -120t117.5 -43q45 0 80 15t61 41.5t43.5 62t26.5 76.5
l101 455h64z" />
    <glyph glyph-name="V" unicode="V" horiz-adv-x="611" 
d="M293 0h-75l-114 698h67l96 -629h2l361 629h71z" />
    <glyph glyph-name="W" unicode="W" horiz-adv-x="944" 
d="M104 698h67l49 -620h2l306 620h83l40 -620h2l310 620h68l-353 -698h-83l-38 620h-2l-306 -620h-83z" />
    <glyph glyph-name="X" unicode="X" horiz-adv-x="611" 
d="M293 367l-169 331h75l142 -287l260 287h84l-308 -333l179 -365h-76l-150 316l-286 -316h-87z" />
    <glyph glyph-name="Y" unicode="Y" horiz-adv-x="611" 
d="M283 295l-177 403h73l147 -346l294 346h83l-353 -403l-63 -295h-67z" />
    <glyph glyph-name="Z" unicode="Z" horiz-adv-x="500" 
d="M-19 61l489 577h-355l13 60h437l-13 -61l-488 -577h378l-13 -60h-460z" />
    <glyph glyph-name="bracketleft" unicode="[" horiz-adv-x="278" 
d="M205 756h158l-9 -48h-102l-170 -800h100l-9 -48h-158z" />
    <glyph glyph-name="backslash" unicode="\" horiz-adv-x="278" 
d="M334 -12h-71l-269 722h71z" />
    <glyph glyph-name="bracketright" unicode="]" horiz-adv-x="278" 
d="M116 -140h-158l9 48h102l170 800h-100l9 48h158z" />
    <glyph glyph-name="asciicircum" unicode="^" horiz-adv-x="600" 
d="M278 698h64l218 -433h-70l-181 364l-178 -364h-71z" />
    <glyph glyph-name="underscore" unicode="_" horiz-adv-x="500" 
d="M0 -125v50h500v-50h-500z" />
    <glyph glyph-name="grave" unicode="`" horiz-adv-x="222" 
d="M208 578h-42l-92 144h79z" />
    <glyph glyph-name="a" unicode="a" horiz-adv-x="500" 
d="M409 121q-8 -29 -12.5 -62t-6.5 -59h-63q2 20 4 39t6 36h-2q-32 -48 -74.5 -67.5t-99.5 -19.5q-30 0 -56.5 10.5t-46.5 29.5t-31.5 45.5t-11.5 57.5q0 56 28 91t71.5 55t95 27t98.5 7q20 0 37 -1t32 -3q2 11 2.5 23t0.5 28q0 53 -28 81.5t-81 28.5q-45 0 -85 -15.5
t-66 -28.5l7 64q27 11 68 22.5t86 11.5q83 0 125.5 -43t42.5 -123q0 -15 -3 -41t-10 -56zM84 132q0 -22 8.5 -38.5t22 -28t31.5 -17.5t37 -6q44 0 77 18t55.5 48t35.5 68.5t18 78.5q-16 0 -31 1t-31 1q-32 0 -71 -4t-72.5 -16.5t-56.5 -37.5t-23 -67z" />
    <glyph glyph-name="b" unicode="b" 
d="M181 442h2q28 36 66.5 58t101.5 22q44 0 76.5 -16.5t53.5 -45t31.5 -65.5t10.5 -79q0 -60 -16.5 -119t-49.5 -105.5t-81.5 -75t-112.5 -28.5q-39 0 -66.5 9.5t-45.5 24.5t-28.5 33t-16.5 35h-2q-2 -16 -9 -39.5t-13 -50.5h-65q8 27 15 52.5t12 51.5l138 646h66zM329 468
q-47 0 -83.5 -25.5t-61.5 -64.5t-38 -85.5t-13 -88.5q0 -33 6.5 -62t21.5 -51.5t40 -35.5t62 -13q49 0 85 26t59.5 66.5t35 89t11.5 92.5q0 32 -7 59.5t-22.5 48t-39 32.5t-56.5 12z" />
    <glyph glyph-name="c" unicode="c" horiz-adv-x="444" 
d="M449 445q-7 4 -21 8t-30.5 7.5t-34 5.5t-32.5 2q-54 0 -96 -18.5t-70 -51.5t-42.5 -77t-14.5 -95q0 -39 12.5 -73t34.5 -58.5t52 -38.5t66 -14q29 0 56.5 8t51.5 16l-8 -63q-18 -6 -47.5 -10.5t-68.5 -4.5q-55 0 -96 21t-68 54.5t-40.5 75t-13.5 82.5q0 68 19 123
t56.5 95t93.5 61.5t130 21.5q16 0 34.5 -1.5t36 -4.5t33 -6.5t25.5 -7.5z" />
    <glyph glyph-name="d" unicode="d" 
d="M454 100q-14 -64 -17 -100h-65q2 21 6.5 43.5t9.5 37.5h-2q-28 -42 -68.5 -67.5t-105.5 -25.5q-46 0 -79 18t-54 48t-30.5 69.5t-9.5 82.5q0 53 17 109t49.5 102t80 75.5t108.5 29.5q56 0 99 -26.5t57 -79.5h2l70 334h66zM108 194q0 -32 7 -59.5t22.5 -48t39 -32.5
t56.5 -12q43 0 79 25.5t62 64.5t40.5 85.5t14.5 88.5q0 34 -8 63.5t-24 51.5t-40.5 34.5t-57.5 12.5q-49 0 -85 -26t-59.5 -66.5t-35 -89t-11.5 -92.5z" />
    <glyph glyph-name="e" unicode="e" horiz-adv-x="500" 
d="M105 237q-3 -19 -3 -41q0 -74 43.5 -114t111.5 -40q48 0 83.5 10.5t65.5 23.5l-5 -61q-22 -8 -56 -17.5t-96 -9.5q-45 0 -83 13t-66.5 39.5t-44.5 65.5t-16 90q0 64 18 123t52.5 104t83.5 72t110 27q91 0 135.5 -51t44.5 -139q0 -23 -2.5 -47t-4.5 -48h-371zM417 291
q1 11 2 20.5t1 18.5q0 63 -27.5 100.5t-89.5 37.5q-37 0 -68.5 -14.5t-55.5 -39t-40.5 -56.5t-22.5 -67h301z" />
    <glyph glyph-name="f" unicode="f" horiz-adv-x="333" 
d="M171 456h-110l13 54h109l11 51q7 33 17.5 68.5t29.5 65t48 48.5t74 19q18 0 35.5 -2t34.5 -9l-15 -53q-4 2 -16 6t-35 4q-28 0 -46.5 -13.5t-30.5 -36t-19.5 -51.5t-13.5 -59l-8 -38h127l-13 -54h-126l-98 -456h-66z" />
    <glyph glyph-name="g" unicode="g" 
d="M10 -118q38 -25 76 -34.5t80 -9.5q55 0 91 13t60 38.5t38.5 62.5t25.5 85l8 37h-2q-67 -74 -171 -74q-45 0 -79.5 17t-57 45.5t-34 66.5t-11.5 79q0 60 16.5 117t49.5 100.5t81.5 70t112.5 26.5q30 0 57.5 -6.5t49 -20.5t37 -36t21.5 -53h2q9 52 24 104h63
q-4 -16 -10 -43.5t-14 -60.5l-76 -351q-14 -66 -31 -117t-47 -85t-78 -51.5t-126 -17.5q-45 0 -86 7t-87 27zM103 208q0 -32 8 -60t24.5 -49t42.5 -33t61 -12q48 0 84 23t60 59t36 81t12 89q0 34 -8.5 63.5t-25.5 51.5t-43 34.5t-61 12.5q-46 0 -81.5 -25t-59.5 -63
t-36.5 -84t-12.5 -88z" />
    <glyph glyph-name="h" unicode="h" 
d="M189 750h66l-76 -323h2q27 45 64.5 68t98.5 27q69 0 114.5 -38t45.5 -110q0 -26 -4.5 -52.5t-10.5 -52.5l-57 -269h-66l58 281q5 25 8 44t3 45q0 45 -25 71.5t-73 26.5q-41 0 -72.5 -19t-54 -49.5t-37.5 -69.5t-24 -80l-55 -250h-66z" />
    <glyph glyph-name="i" unicode="i" horiz-adv-x="222" 
d="M136 510h66l-108 -510h-66zM235 646h-75l18 84h75z" />
    <glyph glyph-name="j" unicode="j" horiz-adv-x="222" 
d="M84 -60q-6 -27 -14.5 -55t-24 -50.5t-40 -36.5t-61.5 -14q-17 0 -32.5 3t-31.5 6l17 57q8 -4 17 -5t18 -1q20 0 35 9t25.5 23t16.5 30.5t9 31.5l117 572h66zM233 646h-75l18 84h75z" />
    <glyph glyph-name="k" unicode="k" horiz-adv-x="500" 
d="M192 750h62l-96 -446h2l265 206h94l-307 -226l227 -284h-82l-207 262l-56 -262h-66z" />
    <glyph glyph-name="l" unicode="l" horiz-adv-x="222" 
d="M188 750h66l-160 -750h-66z" />
    <glyph glyph-name="m" unicode="m" horiz-adv-x="833" 
d="M115 424q5 19 8 42.5t5 43.5h63q-4 -48 -11 -77h2q36 48 71 68.5t87 20.5q54 0 90 -29t38 -85h2q25 54 68.5 84t104.5 30q66 0 105 -40t39 -110q0 -15 -4.5 -41.5t-10.5 -54.5l-58 -276h-66l57 270q5 23 9 46.5t4 52.5q0 42 -19.5 70.5t-65.5 28.5q-39 0 -68.5 -19.5
t-51 -50.5t-35.5 -67.5t-21 -71.5l-53 -259h-66l57 270q5 23 9 46.5t4 52.5q0 42 -19.5 70.5t-65.5 28.5q-39 0 -68.5 -19.5t-51 -50.5t-35.5 -67.5t-21 -71.5l-53 -259h-66z" />
    <glyph glyph-name="n" unicode="n" 
d="M116 429q5 26 7.5 44t4.5 37h63q-2 -24 -4.5 -43.5t-6.5 -33.5h2q26 41 70 65t92 24q69 0 114.5 -38t45.5 -110q0 -26 -5 -53.5t-10 -51.5l-57 -269h-66l58 281q5 25 8 44t3 45q0 45 -25 71.5t-73 26.5q-41 0 -73 -19t-55.5 -50.5t-39.5 -72t-25 -84.5l-50 -242h-66z" />
    <glyph glyph-name="o" unicode="o" 
d="M39 210q0 64 20 121t57 99.5t89.5 67t117.5 24.5q98 0 150.5 -60t52.5 -159q0 -64 -19.5 -121t-56 -100t-89 -68.5t-118.5 -25.5q-47 0 -85 17t-64.5 46.5t-40.5 70t-14 88.5zM108 200q0 -33 10 -62t28.5 -50t45 -33.5t59.5 -12.5q50 0 88 24t64.5 61.5t40 83.5t13.5 91
q0 36 -8.5 66.5t-25.5 52.5t-44 34.5t-64 12.5q-53 0 -92 -23.5t-64.5 -61.5t-38 -86t-12.5 -97z" />
    <glyph glyph-name="p" unicode="p" 
d="M107 391q6 29 11.5 59.5t8.5 59.5h63q-2 -23 -5 -42.5t-6 -33.5h2q26 41 70.5 64.5t96.5 23.5q44 0 76.5 -16t54.5 -44t33 -65.5t11 -80.5q0 -59 -16.5 -118t-48.5 -105.5t-80.5 -75.5t-113.5 -29q-54 0 -95 29t-57 82h-2l-62 -309h-66zM136 204q0 -30 7.5 -59t23 -52
t40 -37t57.5 -14q49 0 85 26t59 66.5t34.5 89t11.5 92.5q0 32 -7 59.5t-22 48t-38.5 32.5t-56.5 12q-45 0 -81 -26t-61 -65.5t-38.5 -85.5t-13.5 -87z" />
    <glyph glyph-name="q" unicode="q" 
d="M384 66h-2q-29 -37 -67.5 -57.5t-103.5 -20.5q-42 0 -74.5 16.5t-54 45t-32.5 65.5t-11 79q0 60 16.5 119t49.5 105.5t81.5 75t112.5 28.5q62 0 102.5 -32t51.5 -84h2q5 26 12 51.5t13 52.5h66q-8 -27 -14.5 -52.5t-13.5 -51.5l-132 -616h-66zM108 194q0 -32 7 -59.5
t22.5 -48t39 -32.5t56.5 -12q47 0 83.5 24t61.5 62.5t38 85.5t13 92q0 31 -8 60t-24 51.5t-40.5 36.5t-57.5 14q-49 0 -85 -26t-59.5 -66.5t-35 -89t-11.5 -92.5z" />
    <glyph glyph-name="r" unicode="r" horiz-adv-x="333" 
d="M114 419q5 22 8.5 44.5t5.5 46.5h63q-2 -24 -4.5 -43.5t-6.5 -33.5h2q24 38 58 63.5t84 25.5q16 0 29 -2.5t26 -4.5l-15 -67q-13 5 -26.5 6.5t-27.5 1.5q-39 0 -66.5 -19t-46.5 -49t-31 -66t-19 -71l-52 -251h-67z" />
    <glyph glyph-name="s" unicode="s" horiz-adv-x="389" 
d="M5 79q27 -17 58 -27t63 -10q23 0 48.5 5t46.5 16.5t35 31t14 49.5q0 28 -15 47t-37 34.5t-48.5 29.5t-48.5 31t-37 39.5t-15 54.5q0 38 18 65t46 44t61 25t64 8q69 0 131 -25l-21 -59q-25 14 -54.5 22t-58.5 8q-19 0 -40 -3.5t-39 -13.5t-29.5 -26.5t-11.5 -43.5
q0 -22 15 -38t38 -31t49 -29.5t49 -33.5t38 -43t15 -58q0 -43 -18 -73.5t-47.5 -50t-66 -28t-73.5 -8.5q-40 0 -75.5 6.5t-72.5 21.5z" />
    <glyph glyph-name="t" unicode="t" horiz-adv-x="333" 
d="M199 624l72 25l-31 -139h133l-13 -54h-131l-54 -252q-5 -26 -10 -50.5t-5 -49.5q0 -62 58 -62q29 0 54 14l-6 -54q-14 -7 -29 -10.5t-35 -3.5q-54 0 -82.5 26.5t-28.5 68.5q0 17 3 38.5t6.5 43t7.5 39.5t6 26l49 226h-102l14 54h100z" />
    <glyph glyph-name="u" unicode="u" 
d="M445 81q-5 -26 -7.5 -44t-4.5 -37h-63q2 24 4.5 43.5t6.5 33.5h-2q-26 -41 -70 -65t-92 -24q-69 0 -114.5 38t-45.5 110q0 26 5 53.5t10 51.5l57 269h66l-58 -281q-5 -25 -8 -44t-3 -45q0 -45 25 -71.5t73 -26.5q41 0 73 19t55.5 50.5t39.5 72t25 84.5l50 242h66z" />
    <glyph glyph-name="v" unicode="v" horiz-adv-x="444" 
d="M209 0h-76l-68 510h64l57 -441h2l235 441h71z" />
    <glyph glyph-name="w" unicode="w" horiz-adv-x="778" 
d="M65 510h65l38 -441h2l240 441h75l49 -441h2l221 441h71l-265 -510h-77l-52 441h-2l-239 -441h-75z" />
    <glyph glyph-name="x" unicode="x" horiz-adv-x="444" 
d="M193 269l-115 241h69l89 -190l162 190h80l-212 -241l121 -269h-72l-93 216l-186 -216h-77z" />
    <glyph glyph-name="y" unicode="y" horiz-adv-x="444" 
d="M139 -120q-23 -44 -54 -70t-83 -26q-17 0 -32 3t-29 11l15 54q8 -8 19 -11t22 -3q33 0 58 25t39 55l43 81l-72 511h66l52 -439h2l239 439h68z" />
    <glyph glyph-name="z" unicode="z" horiz-adv-x="444" 
d="M-8 58l380 398h-289l12 54h373l-12 -59l-385 -397h306l-10 -54h-387z" />
    <glyph glyph-name="braceleft" unicode="{" horiz-adv-x="278" 
d="M380 708h-33q-29 0 -47.5 -22.5t-28.5 -70.5l-34 -165q-7 -36 -22.5 -62t-32.5 -42.5t-33 -25.5t-25 -11v-2q7 -2 17 -8t19.5 -18t16 -30t6.5 -44q0 -10 -1.5 -20.5t-3.5 -22.5l-33 -162q-6 -27 -6 -49q0 -20 7.5 -32.5t22.5 -12.5h46l-10 -48h-50q-34 0 -56.5 21.5
t-22.5 61.5q0 9 0.5 18.5t2.5 20.5l35 170q6 27 6 50q0 36 -13.5 59t-48.5 23l10 48q23 0 41 10.5t31.5 29t23.5 43t16 52.5l34 168q12 58 48 89.5t79 31.5h49z" />
    <glyph glyph-name="bar" unicode="|" horiz-adv-x="222" 
d="M101 750h69v-762h-69v762z" />
    <glyph glyph-name="braceright" unicode="}" horiz-adv-x="278" 
d="M-51 -92h33q29 0 47.5 22.5t28.5 70.5l34 165q8 36 23 62t32 42.5t33 25.5t25 11v2q-7 2 -17 8t-19.5 18t-16 30.5t-6.5 43.5q0 10 1.5 20.5t3.5 22.5l33 162q6 27 6 49q0 20 -7.5 32.5t-22.5 12.5h-46l10 48h50q34 0 56.5 -21.5t22.5 -61.5q0 -9 -0.5 -18.5t-2.5 -20.5
l-35 -170q-6 -27 -6 -50q0 -36 13.5 -59t48.5 -23l-10 -48q-22 0 -40.5 -10.5t-32 -29t-23.5 -43t-16 -52.5l-34 -168q-12 -58 -48 -89.5t-79 -31.5h-49z" />
    <glyph glyph-name="asciitilde" unicode="~" horiz-adv-x="600" 
d="M531 273q-8 -16 -19.5 -32t-26.5 -29t-34.5 -21.5t-44.5 -8.5q-28 0 -57 11.5t-57 25t-53.5 25t-45.5 11.5q-30 0 -50.5 -23t-37.5 -50l-36 51q8 16 19.5 32t26.5 29t34.5 21.5t44.5 8.5q28 0 57 -11.5t57 -25t53.5 -25t45.5 -11.5q30 0 50.5 23t37.5 50z" />
    <glyph glyph-name="exclamdown" unicode="&#xa1;" horiz-adv-x="389" 
d="M179 341h60l-100 -529h-84zM270 426h-82l18 84h81z" />
    <glyph glyph-name="cent" unicode="&#xa2;" 
d="M377 468h-5q-54 0 -96 -18.5t-70 -51.5t-42.5 -77t-14.5 -95q0 -60 27 -105t72 -65zM469 630l-35 -113q22 -2 42 -6t32 -9l-18 -57q-10 5 -30 10.5t-43 8.5l-132 -419q12 -3 29 -3q29 0 56.5 8t51.5 16l-8 -63q-18 -6 -47.5 -10.5t-68.5 -4.5q-8 0 -15 0.5t-15 1.5
l-40 -127h-41l43 135q-38 12 -66 35.5t-47 54t-28 65t-9 68.5q0 68 19 123t56.5 95t93.5 61.5t130 21.5q10 0 15 -1l34 109h41z" />
    <glyph glyph-name="sterling" unicode="&#xa3;" 
d="M33 60h101l61 287h-90l11 54h89l13 56q12 53 29.5 98t46 78.5t71.5 52.5t106 19q13 0 30 -1.5t34.5 -5t33.5 -8.5t27 -11l-20 -58q-26 13 -52 18.5t-55 5.5q-46 0 -77.5 -16t-52.5 -43t-33 -62.5t-21 -74.5l-11 -48h171l-11 -54h-169l-61 -287h252l-13 -60h-423z" />
    <glyph glyph-name="currency" unicode="&#xa4;" 
d="M103 199q-52 64 -52 150q0 41 12 80.5t40 71.5l-56 55l45 45l56 -57q31 26 71 39.5t80 13.5q42 0 81 -13.5t69 -39.5l56 57l46 -45l-55 -55q26 -30 38.5 -70t12.5 -82q0 -41 -12.5 -79.5t-38.5 -70.5l55 -57l-46 -45l-56 59q-29 -28 -68 -41.5t-82 -13.5q-42 0 -81 13
t-70 42l-56 -59l-45 45zM120 349q0 -38 14 -72t38 -60t57 -41t70 -15q39 0 72 15.5t56.5 42t37 60.5t13.5 70t-13.5 70.5t-37.5 60.5t-56.5 41.5t-71.5 15.5q-38 0 -70.5 -15t-56.5 -41t-38 -60t-14 -72z" />
    <glyph glyph-name="yen" unicode="&#xa5;" 
d="M226 175h-137l11 48h136l18 81h-144l12 48h110l-139 346h69l134 -346l285 346h79l-295 -346h123l-14 -48h-153l-18 -81h157l-11 -48h-157l-39 -175h-64z" />
    <glyph glyph-name="brokenbar" unicode="&#xa6;" horiz-adv-x="222" 
d="M101 254h69v-266h-69v266zM101 750h69v-266h-69v266z" />
    <glyph glyph-name="section" unicode="&#xa7;" 
d="M500 621q-30 15 -60 25t-69 10q-59 0 -94.5 -24.5t-35.5 -76.5q0 -27 17.5 -45t44 -32.5t57.5 -27.5t57.5 -30t44 -40.5t17.5 -59.5q0 -27 -12 -52t-30 -46t-40.5 -38t-43.5 -30q63 -38 63 -113q0 -38 -18.5 -68t-48 -50.5t-66.5 -31.5t-75 -11q-31 0 -54 2.5t-43 7.5
t-39.5 12.5t-44.5 18.5l19 59q35 -22 75.5 -34t78.5 -12q27 0 53.5 5.5t47.5 18t33.5 33t12.5 49.5q0 33 -18 53t-45 34.5t-59 27t-59 30.5t-45 44.5t-18 69.5q0 30 11.5 54t30.5 43.5t43.5 34t49.5 23.5q-32 17 -49 45t-17 64t15 63t41.5 46t61.5 28.5t74 9.5q35 0 80 -9.5
t79 -26.5zM416 313q0 24 -16.5 41t-39.5 30.5t-47.5 24.5t-40.5 22q-17 -12 -35.5 -24t-34.5 -26.5t-26 -32.5t-10 -42q0 -28 15 -47t37 -33.5t47.5 -25.5t47.5 -23q15 11 33 26t33.5 33t26 37.5t10.5 39.5z" />
    <glyph glyph-name="dieresis" unicode="&#xa8;" horiz-adv-x="222" 
d="M66 690h77l-16 -84h-77zM241 690h77l-16 -84h-77z" />
    <glyph glyph-name="copyright" unicode="&#xa9;" horiz-adv-x="800" 
d="M131 349q0 -65 22 -121t61.5 -97.5t93 -65t116.5 -23.5q62 0 115.5 23.5t92.5 65t61 97.5t22 121t-22 121t-61 97.5t-92.5 65t-115.5 23.5q-63 0 -116.5 -23.5t-93 -65t-61.5 -97.5t-22 -121zM614 280q-15 -72 -63.5 -114t-114.5 -42q-49 0 -89 17.5t-68 47.5t-43.5 71
t-15.5 89q0 49 14.5 90.5t42 71.5t67 47t89.5 17q34 0 64.5 -9.5t54.5 -28.5t40 -47.5t21 -65.5h-60q-9 44 -40 70.5t-79 26.5q-35 0 -62 -13t-45.5 -35.5t-28 -54t-9.5 -68.5q0 -35 10 -66t29 -54.5t46.5 -37.5t61.5 -14q48 0 78.5 28t38.5 74h61zM62 349q0 75 28.5 140.5
t77.5 114.5t114.5 77.5t140.5 28.5t140.5 -28.5t114.5 -77.5t77.5 -114.5t28.5 -140.5t-28.5 -140.5t-77.5 -114.5t-114.5 -77.5t-140.5 -28.5t-140.5 28.5t-114.5 77.5t-77.5 114.5t-28.5 140.5z" />
    <glyph glyph-name="ordfeminine" unicode="&#xaa;" horiz-adv-x="325" 
d="M143 684q24 11 48.5 18.5t51.5 7.5q51 0 84 -25.5t33 -77.5q0 -9 -3.5 -27t-8.5 -38.5t-10 -39.5t-8 -29q-5 -17 -7 -35.5t-5 -41.5h-45q2 16 3 27.5t4 18.5h-2q-39 -54 -113 -54q-19 0 -37.5 6.5t-32.5 18t-22.5 28t-8.5 37.5q0 38 20.5 60t50.5 33.5t64.5 15t62.5 3.5
h45q1 0 1.5 6t0.5 12q0 30 -20.5 45t-52.5 15q-28 0 -51 -9.5t-47 -22.5zM115 479q0 -23 19.5 -36t44.5 -13q29 0 50 10.5t36 27t23.5 38t11.5 42.5h-40q-19 0 -44 -2t-47.5 -8.5t-38 -20.5t-15.5 -38z" />
    <glyph glyph-name="guillemotleft" unicode="&#xab;" horiz-adv-x="500" 
d="M215 269l190 205h72l-196 -205l153 -205h-66zM32 269l190 205h72l-196 -205l153 -205h-66z" />
    <glyph glyph-name="logicalnot" unicode="&#xac;" horiz-adv-x="600" 
d="M61 388h507v-274h-69v205h-438v69z" />
    <glyph glyph-name="registered" unicode="&#xae;" horiz-adv-x="800" 
d="M62 349q0 75 28.5 140.5t77.5 114.5t114.5 77.5t140.5 28.5t140.5 -28.5t114.5 -77.5t77.5 -114.5t28.5 -140.5t-28.5 -140.5t-77.5 -114.5t-114.5 -77.5t-140.5 -28.5t-140.5 28.5t-114.5 77.5t-77.5 114.5t-28.5 140.5zM131 349q0 -65 22 -121t61.5 -97.5t93 -65
t116.5 -23.5q62 0 115.5 23.5t92.5 65t61 97.5t22 121t-22 121t-61 97.5t-92.5 65t-115.5 23.5q-63 0 -116.5 -23.5t-93 -65t-61.5 -97.5t-22 -121zM285 561h162q145 0 145 -119q0 -51 -29.5 -84t-79.5 -33l120 -187h-73l-118 187h-58v-187h-69v423zM354 379h82
q40 0 63.5 12t23.5 54q0 18 -7.5 30t-19.5 19t-27.5 10t-32.5 3h-82v-128z" />
    <glyph glyph-name="macron" unicode="&#xaf;" horiz-adv-x="222" 
d="M299 622h-257l11 54h257z" />
    <glyph glyph-name="degree" unicode="&#xb0;" horiz-adv-x="400" 
d="M260 657q-46 0 -76.5 -26.5t-30.5 -74.5q0 -21 9 -39.5t24 -32t34 -21.5t40 -8t40 8t34 21.5t24 32t9 39.5q0 48 -30.5 74.5t-76.5 26.5zM260 705q32 0 60.5 -11t50.5 -30.5t34.5 -47t12.5 -60.5t-12.5 -60.5t-34.5 -47t-50.5 -30.5t-60.5 -11t-60.5 11t-50.5 30.5
t-34.5 47t-12.5 60.5t12.5 60.5t34.5 47t50.5 30.5t60.5 11z" />
    <glyph glyph-name="plusminus" unicode="&#xb1;" horiz-adv-x="600" 
d="M61 338h219v169h69v-169h219v-69h-219v-169h-69v169h-219v69zM61 69h507v-69h-507v69z" />
    <glyph glyph-name="twosuperior" unicode="&#xb2;" horiz-adv-x="361" 
d="M55 320l157 128q14 12 35 29t40.5 37t33.5 41t14 40q0 18 -7 29.5t-18.5 19t-25.5 10.5t-28 3q-36 0 -65 -12t-49 -26l3 53q27 15 56.5 24t60.5 9q25 0 48.5 -6t41.5 -19.5t29 -34.5t11 -50q0 -22 -11 -44t-28 -42t-37 -38t-38 -32l-135 -105v-2h187l-9 -48h-277z" />
    <glyph glyph-name="threesuperior" unicode="&#xb3;" horiz-adv-x="361" 
d="M132 524q22 0 53 1.5t59 9t48 22.5t20 42q0 15 -9.5 25.5t-23.5 18t-30 11t-30 3.5q-31 0 -57 -5.5t-54 -19.5l5 53q23 11 52 15.5t55 4.5q24 0 50.5 -4.5t48.5 -16t36 -32t14 -53.5q0 -24 -11 -41t-28.5 -28.5t-39.5 -17.5t-45 -8v-2q38 -5 59.5 -30.5t21.5 -63.5
q0 -36 -19 -60.5t-47.5 -40.5t-62.5 -23t-63 -7q-60 0 -120 17l12 50q26 -11 53.5 -15t55.5 -4q20 0 43.5 5t43.5 15.5t33.5 27t13.5 38.5q0 26 -15 39t-37 19t-47.5 6.5t-47.5 0.5z" />
    <glyph glyph-name="acute" unicode="&#xb4;" horiz-adv-x="222" 
d="M204 722h79l-117 -144h-47z" />
    <glyph glyph-name="mu" unicode="&#xb5;" 
d="M129 510h66l-58 -281q-5 -25 -8 -44t-3 -45q0 -45 25 -71.5t73 -26.5q41 0 73 19t55.5 50.5t39.5 72t25 84.5l50 242h66l-88 -429q-5 -26 -7.5 -44t-4.5 -37h-63q2 24 4.5 43.5t6.5 33.5h-2q-26 -41 -70 -65t-92 -24q-88 0 -127 50l-53 -248h-66z" />
    <glyph glyph-name="paragraph" unicode="&#xb6;" horiz-adv-x="600" 
d="M283 320q-39 0 -74.5 12.5t-62.5 35.5t-43 55.5t-16 72.5q0 41 15.5 77.5t46.5 64.5t76.5 44t106.5 16h288l-165 -806h-63l154 752h-133l-154 -752h-63z" />
    <glyph glyph-name="periodcentered" unicode="&#xb7;" horiz-adv-x="278" 
d="M111 310q0 20 14.5 34.5t34.5 14.5t35 -14.5t15 -34.5t-15 -35t-35 -15t-34.5 15t-14.5 35z" />
    <glyph glyph-name="cedilla" unicode="&#xb8;" horiz-adv-x="222" 
d="M-8 -127q14 -10 37 -19t51 -9q18 0 36 10t18 36q0 19 -13 27.5t-27 8.5q-8 0 -20.5 -1.5t-20.5 -5.5l38 80h32l-24 -47v-2q7 4 14.5 5t17.5 1q28 0 47 -15.5t19 -47.5q0 -23 -10.5 -38t-26.5 -24t-35.5 -13t-37.5 -4q-35 0 -58 8t-44 19z" />
    <glyph glyph-name="onesuperior" unicode="&#xb9;" horiz-adv-x="361" 
d="M251 650l-86 -56l-21 34l122 77h53l-96 -421h-57z" />
    <glyph glyph-name="ordmasculine" unicode="&#xba;" horiz-adv-x="361" 
d="M80 524q0 36 14 70t39 59.5t60 41t77 15.5q32 0 57.5 -10t43.5 -28t27.5 -42t9.5 -52q0 -36 -13.5 -70.5t-38.5 -61t-60 -42.5t-78 -16q-31 0 -56.5 11t-43.5 29.5t-28 43.5t-10 52zM131 518q0 -35 24.5 -61.5t68.5 -26.5q32 0 56.5 14t41.5 35.5t26 47.5t9 50
q0 38 -22 64.5t-70 26.5q-34 0 -59.5 -13.5t-42 -35.5t-24.5 -48.5t-8 -52.5z" />
    <glyph glyph-name="guillemotright" unicode="&#xbb;" horiz-adv-x="500" 
d="M285 269l-190 -205h-72l196 205l-153 205h66zM468 269l-190 -205h-72l196 205l-153 205h66z" />
    <glyph glyph-name="onequarter" unicode="&#xbc;" horiz-adv-x="834" 
d="M570 720h57l-445 -742h-57zM205 650l-86 -56l-21 34l122 77h53l-96 -421h-57zM633 91h-225l7 45l273 285h79l-66 -282h52l-10 -48h-52l-22 -91h-57zM699 366h-2l-216 -227h165z" />
    <glyph glyph-name="onehalf" unicode="&#xbd;" horiz-adv-x="834" 
d="M548 720h57l-445 -742h-57zM221 650l-86 -56l-21 34l122 77h53l-96 -421h-57zM438 36l157 128q14 12 35 29t40.5 37t33.5 41t14 40q0 18 -7 29.5t-18.5 19t-25.5 10.5t-28 3q-36 0 -65 -12t-49 -26l3 53q27 15 56.5 24t60.5 9q25 0 48.5 -6t41.5 -19.5t29 -34.5t11 -50
q0 -22 -11 -44t-28 -42t-37 -38t-38 -32l-135 -105v-2h187l-9 -48h-277z" />
    <glyph glyph-name="threequarters" unicode="&#xbe;" horiz-adv-x="834" 
d="M650 720h57l-445 -742h-57zM145 524q22 0 53 1.5t59 9t48 22.5t20 42q0 15 -9.5 25.5t-23.5 18t-30 11t-30 3.5q-31 0 -57 -5.5t-54 -19.5l5 53q23 11 52 15.5t55 4.5q24 0 50.5 -4.5t48.5 -16t36 -32t14 -53.5q0 -24 -11 -41t-28.5 -28.5t-39.5 -17.5t-45 -8v-2
q38 -5 59.5 -30.5t21.5 -63.5q0 -36 -19 -60.5t-47.5 -40.5t-62.5 -23t-63 -7q-60 0 -120 17l12 50q26 -11 53.5 -15t55.5 -4q20 0 43.5 5t43.5 15.5t33.5 27t13.5 38.5q0 26 -15 39t-37 19t-47.5 6.5t-47.5 0.5zM673 91h-225l7 45l273 285h79l-66 -282h52l-10 -48h-52
l-22 -91h-57zM739 366h-2l-216 -227h165z" />
    <glyph glyph-name="questiondown" unicode="&#xbf;" horiz-adv-x="500" 
d="M345 -178q-30 -8 -60.5 -15t-62.5 -7q-37 0 -71.5 9.5t-61 29t-42 50t-15.5 72.5q0 30 10 55t26 47t36.5 40.5t41.5 36.5q19 16 42 34.5t44 40t37 45t21 49.5l7 32h58l-8 -39q-6 -30 -21 -56.5t-35 -50t-44 -44t-47 -39.5q-19 -15 -37 -30.5t-31.5 -33.5t-22 -39
t-8.5 -48q0 -28 12.5 -47t32 -31t43.5 -17.5t46 -5.5q27 0 61.5 7.5t59.5 18.5zM380 426h-83l17 84h82z" />
    <glyph glyph-name="Agrave" unicode="&#xc0;" horiz-adv-x="667" 
d="M420 629l-236 -382h309zM391 698h82l136 -698h-70l-35 187h-357l-115 -187h-74zM431 737l-95 108h85l63 -108h-53z" />
    <glyph glyph-name="Aacute" unicode="&#xc1;" horiz-adv-x="667" 
d="M420 629l-236 -382h309zM391 698h82l136 -698h-70l-35 187h-357l-115 -187h-74zM483 845h85l-117 -108h-53z" />
    <glyph glyph-name="Acircumflex" unicode="&#xc2;" horiz-adv-x="667" 
d="M420 629l-236 -382h309zM391 698h82l136 -698h-70l-35 187h-357l-115 -187h-74zM412 846h82l77 -108h-47l-74 74l-106 -74h-47z" />
    <glyph glyph-name="Atilde" unicode="&#xc3;" horiz-adv-x="667" 
d="M420 629l-236 -382h309zM391 698h82l136 -698h-70l-35 187h-357l-115 -187h-74zM575 840q0 -17 -6 -33.5t-17 -29t-26 -20.5t-33 -8q-15 0 -29 5l-28 10t-27.5 9.5t-27.5 4.5q-18 0 -27 -11.5t-11 -25.5h-36q0 17 6 33.5t17 29.5t26 20.5t33 7.5q16 0 29.5 -4t27.5 -10
t27.5 -10.5t27.5 -4.5q18 0 27 10t11 27h36z" />
    <glyph glyph-name="Adieresis" unicode="&#xc4;" horiz-adv-x="667" 
d="M420 629l-236 -382h309zM391 698h82l136 -698h-70l-35 187h-357l-115 -187h-74zM327 833h77l-16 -84h-77zM502 833h77l-16 -84h-77z" />
    <glyph glyph-name="Aring" unicode="&#xc5;" horiz-adv-x="667" 
d="M420 629l-236 -382h309zM391 698h82l136 -698h-70l-35 187h-357l-115 -187h-74zM359 779q0 34 23.5 57.5t58.5 23.5t58.5 -23.5t23.5 -57.5q0 -35 -23.5 -58t-58.5 -23t-58.5 23t-23.5 58zM390 779q0 -22 15.5 -36t35.5 -14q22 0 36.5 14t14.5 36q0 21 -14.5 35.5
t-36.5 14.5q-20 0 -35.5 -14.5t-15.5 -35.5z" />
    <glyph glyph-name="AE" unicode="&#xc6;" horiz-adv-x="889" 
d="M486 698h428l-12 -60h-306l-28 -249h264l-13 -60h-258l-35 -269h265l-14 -60h-327l24 187h-293l-143 -187h-80zM531 644h-2l-304 -397h256z" />
    <glyph glyph-name="Ccedilla" unicode="&#xc7;" horiz-adv-x="611" 
d="M342 -47v-2q7 4 14.5 5t17.5 1q28 0 47 -15.5t19 -47.5q0 -23 -10.5 -38t-26.5 -24t-35.5 -13t-37.5 -4q-35 0 -58 8t-44 19l7 31q14 -10 37 -19t51 -9q18 0 36 10t18 36q0 19 -13 27.5t-27 8.5q-8 0 -20.5 -1.5t-20.5 -5.5l35 74q-54 10 -101 35t-81.5 63t-54.5 89
t-20 113q0 92 31 168t86 131.5t131.5 86t166.5 30.5q57 0 100.5 -8t87.5 -28l-24 -58q-38 20 -80.5 27t-87.5 7q-76 0 -139 -27.5t-108 -75.5t-70 -113t-25 -141q0 -51 19 -95.5t53 -78t80.5 -52.5t101.5 -19q33 0 54.5 2t37.5 5.5t29 7.5t28 8l-8 -61q-21 -6 -50.5 -14
t-85.5 -8q-10 0 -20 0.5t-21 1.5z" />
    <glyph glyph-name="Egrave" unicode="&#xc8;" horiz-adv-x="500" 
d="M181 698h344l-11 -60h-277l-51 -249h261l-11 -60h-262l-56 -269h287l-10 -60h-358zM367 737l-95 108h85l63 -108h-53z" />
    <glyph glyph-name="Eacute" unicode="&#xc9;" horiz-adv-x="500" 
d="M181 698h344l-11 -60h-277l-51 -249h261l-11 -60h-262l-56 -269h287l-10 -60h-358zM414 845h85l-117 -108h-53z" />
    <glyph glyph-name="Ecircumflex" unicode="&#xca;" horiz-adv-x="500" 
d="M181 698h344l-11 -60h-277l-51 -249h261l-11 -60h-262l-56 -269h287l-10 -60h-358zM342 846h82l77 -108h-47l-74 74l-106 -74h-47z" />
    <glyph glyph-name="Edieresis" unicode="&#xcb;" horiz-adv-x="500" 
d="M181 698h344l-11 -60h-277l-51 -249h261l-11 -60h-262l-56 -269h287l-10 -60h-358zM253 833h77l-16 -84h-77zM428 833h77l-16 -84h-77z" />
    <glyph glyph-name="Igrave" unicode="&#xcc;" horiz-adv-x="222" 
d="M176 698h69l-148 -698h-69zM208 737l-95 108h85l63 -108h-53z" />
    <glyph glyph-name="Iacute" unicode="&#xcd;" horiz-adv-x="222" 
d="M176 698h69l-148 -698h-69zM264 845h85l-117 -108h-53z" />
    <glyph glyph-name="Icircumflex" unicode="&#xce;" horiz-adv-x="222" 
d="M176 698h69l-148 -698h-69zM198 846h82l77 -108h-47l-74 74l-106 -74h-47z" />
    <glyph glyph-name="Idieresis" unicode="&#xcf;" horiz-adv-x="222" 
d="M176 698h69l-148 -698h-69zM114 833h77l-16 -84h-77zM289 833h77l-16 -84h-77z" />
    <glyph glyph-name="Eth" unicode="&#xd0;" horiz-adv-x="667" 
d="M107 329h-67l12 60h68l65 309h124q70 0 132 -14t108 -46.5t72.5 -86t26.5 -133.5q0 -93 -26.5 -170t-77.5 -132t-125.5 -85.5t-170.5 -30.5h-211zM190 389h194l-14 -60h-193l-58 -269h123q79 0 141.5 24t106 70t66.5 112.5t23 151.5q0 59 -18 100.5t-50.5 68t-78.5 39
t-102 12.5h-87z" />
    <glyph glyph-name="Ntilde" unicode="&#xd1;" horiz-adv-x="667" 
d="M179 698h82l233 -614h2l130 614h63l-148 -698h-82l-233 614h-2l-132 -614h-64zM578 840q0 -17 -6 -33.5t-17 -29t-26 -20.5t-33 -8q-15 0 -29 5l-28 10t-27.5 9.5t-27.5 4.5q-18 0 -27 -11.5t-11 -25.5h-36q0 17 6 33.5t17 29.5t26 20.5t33 7.5q16 0 29.5 -4t27.5 -10
t27.5 -10.5t27.5 -4.5q18 0 27 10t11 27h36z" />
    <glyph glyph-name="Ograve" unicode="&#xd2;" horiz-adv-x="722" 
d="M67 273q0 83 25.5 161.5t73 140t116.5 98.5t156 37q65 0 114 -20.5t82.5 -58t50.5 -90t17 -116.5q0 -83 -25.5 -161.5t-73 -140t-116.5 -98.5t-156 -37q-64 0 -113.5 20.5t-83 58t-50.5 90t-17 116.5zM136 279q0 -49 12 -91t36.5 -73t61.5 -49t87 -18q70 0 125.5 34
t94.5 87t59.5 119.5t20.5 130.5q0 49 -12 91t-36.5 73t-61.5 49t-87 18q-70 0 -125.5 -34t-94.5 -87t-59.5 -119t-20.5 -131zM459 737l-95 108h85l63 -108h-53z" />
    <glyph glyph-name="Oacute" unicode="&#xd3;" horiz-adv-x="722" 
d="M67 273q0 83 25.5 161.5t73 140t116.5 98.5t156 37q65 0 114 -20.5t82.5 -58t50.5 -90t17 -116.5q0 -83 -25.5 -161.5t-73 -140t-116.5 -98.5t-156 -37q-64 0 -113.5 20.5t-83 58t-50.5 90t-17 116.5zM136 279q0 -49 12 -91t36.5 -73t61.5 -49t87 -18q70 0 125.5 34
t94.5 87t59.5 119.5t20.5 130.5q0 49 -12 91t-36.5 73t-61.5 49t-87 18q-70 0 -125.5 -34t-94.5 -87t-59.5 -119t-20.5 -131zM505 845h85l-117 -108h-53z" />
    <glyph glyph-name="Ocircumflex" unicode="&#xd4;" horiz-adv-x="722" 
d="M67 273q0 83 25.5 161.5t73 140t116.5 98.5t156 37q65 0 114 -20.5t82.5 -58t50.5 -90t17 -116.5q0 -83 -25.5 -161.5t-73 -140t-116.5 -98.5t-156 -37q-64 0 -113.5 20.5t-83 58t-50.5 90t-17 116.5zM136 279q0 -49 12 -91t36.5 -73t61.5 -49t87 -18q70 0 125.5 34
t94.5 87t59.5 119.5t20.5 130.5q0 49 -12 91t-36.5 73t-61.5 49t-87 18q-70 0 -125.5 -34t-94.5 -87t-59.5 -119t-20.5 -131zM426 846h82l77 -108h-47l-74 74l-106 -74h-47z" />
    <glyph glyph-name="Otilde" unicode="&#xd5;" horiz-adv-x="722" 
d="M67 273q0 83 25.5 161.5t73 140t116.5 98.5t156 37q65 0 114 -20.5t82.5 -58t50.5 -90t17 -116.5q0 -83 -25.5 -161.5t-73 -140t-116.5 -98.5t-156 -37q-64 0 -113.5 20.5t-83 58t-50.5 90t-17 116.5zM136 279q0 -49 12 -91t36.5 -73t61.5 -49t87 -18q70 0 125.5 34
t94.5 87t59.5 119.5t20.5 130.5q0 49 -12 91t-36.5 73t-61.5 49t-87 18q-70 0 -125.5 -34t-94.5 -87t-59.5 -119t-20.5 -131zM604 840q0 -17 -6 -33.5t-17 -29t-26 -20.5t-33 -8q-15 0 -29 5l-28 10t-27.5 9.5t-27.5 4.5q-18 0 -27 -11.5t-11 -25.5h-36q0 17 6 33.5t17 29.5
t26 20.5t33 7.5q16 0 29.5 -4t27.5 -10t27.5 -10.5t27.5 -4.5q18 0 27 10t11 27h36z" />
    <glyph glyph-name="Odieresis" unicode="&#xd6;" horiz-adv-x="722" 
d="M67 273q0 83 25.5 161.5t73 140t116.5 98.5t156 37q65 0 114 -20.5t82.5 -58t50.5 -90t17 -116.5q0 -83 -25.5 -161.5t-73 -140t-116.5 -98.5t-156 -37q-64 0 -113.5 20.5t-83 58t-50.5 90t-17 116.5zM136 279q0 -49 12 -91t36.5 -73t61.5 -49t87 -18q70 0 125.5 34
t94.5 87t59.5 119.5t20.5 130.5q0 49 -12 91t-36.5 73t-61.5 49t-87 18q-70 0 -125.5 -34t-94.5 -87t-59.5 -119t-20.5 -131zM356 833h77l-16 -84h-77zM531 833h77l-16 -84h-77z" />
    <glyph glyph-name="multiply" unicode="&#xd7;" horiz-adv-x="600" 
d="M86 437l49 49l181 -181l179 181l50 -49l-180 -180l180 -181l-50 -50l-179 182l-181 -182l-49 50l181 181z" />
    <glyph glyph-name="Oslash" unicode="&#xd8;" horiz-adv-x="722" 
d="M585 581q-25 32 -61.5 50.5t-87.5 18.5q-70 0 -125.5 -34t-94.5 -87t-59.5 -119t-20.5 -131q0 -35 6 -66t19 -57zM184 117q24 -32 61 -50.5t88 -18.5q70 0 125.5 34t94.5 87t59.5 119.5t20.5 130.5q0 70 -25 123zM749 683l-88 -88q41 -68 41 -170q0 -83 -25.5 -161.5
t-73 -140t-116.5 -98.5t-156 -37q-65 0 -114 20.5t-83 58.5l-81 -81l-33 29l88 88q-41 68 -41 170q0 83 25.5 161.5t73 140t116.5 98.5t156 37q65 0 114 -20.5t83 -58.5l81 81z" />
    <glyph glyph-name="Ugrave" unicode="&#xd9;" horiz-adv-x="667" 
d="M594 266q-10 -61 -32.5 -112t-57.5 -88t-83 -57.5t-109 -20.5q-50 0 -92 14.5t-73 42t-48 68.5t-17 95q0 24 4 55t10 64t13 64.5t13 55.5l55 251h66l-71 -340q-3 -15 -6.5 -34t-7 -39t-5.5 -39t-2 -35q0 -77 42.5 -120t117.5 -43q45 0 80 15t61 41.5t43.5 62t26.5 76.5
l101 455h64zM442 737l-95 108h85l63 -108h-53z" />
    <glyph glyph-name="Uacute" unicode="&#xda;" horiz-adv-x="667" 
d="M594 266q-10 -61 -32.5 -112t-57.5 -88t-83 -57.5t-109 -20.5q-50 0 -92 14.5t-73 42t-48 68.5t-17 95q0 24 4 55t10 64t13 64.5t13 55.5l55 251h66l-71 -340q-3 -15 -6.5 -34t-7 -39t-5.5 -39t-2 -35q0 -77 42.5 -120t117.5 -43q45 0 80 15t61 41.5t43.5 62t26.5 76.5
l101 455h64zM478 845h85l-117 -108h-53z" />
    <glyph glyph-name="Ucircumflex" unicode="&#xdb;" horiz-adv-x="667" 
d="M594 266q-10 -61 -32.5 -112t-57.5 -88t-83 -57.5t-109 -20.5q-50 0 -92 14.5t-73 42t-48 68.5t-17 95q0 24 4 55t10 64t13 64.5t13 55.5l55 251h66l-71 -340q-3 -15 -6.5 -34t-7 -39t-5.5 -39t-2 -35q0 -77 42.5 -120t117.5 -43q45 0 80 15t61 41.5t43.5 62t26.5 76.5
l101 455h64zM417 846h82l77 -108h-47l-74 74l-106 -74h-47z" />
    <glyph glyph-name="Udieresis" unicode="&#xdc;" horiz-adv-x="667" 
d="M594 266q-10 -61 -32.5 -112t-57.5 -88t-83 -57.5t-109 -20.5q-50 0 -92 14.5t-73 42t-48 68.5t-17 95q0 24 4 55t10 64t13 64.5t13 55.5l55 251h66l-71 -340q-3 -15 -6.5 -34t-7 -39t-5.5 -39t-2 -35q0 -77 42.5 -120t117.5 -43q45 0 80 15t61 41.5t43.5 62t26.5 76.5
l101 455h64zM328 833h77l-16 -84h-77zM503 833h77l-16 -84h-77z" />
    <glyph glyph-name="Yacute" unicode="&#xdd;" horiz-adv-x="611" 
d="M283 295l-177 403h73l147 -346l294 346h83l-353 -403l-63 -295h-67zM455 845h85l-117 -108h-53z" />
    <glyph glyph-name="Thorn" unicode="&#xde;" horiz-adv-x="500" 
d="M157 232h78q40 0 77.5 8.5t67 27.5t47 49.5t17.5 75.5q0 36 -13 58.5t-34.5 35t-49.5 17t-58 4.5h-73zM187 698h69l-28 -130h50q49 0 91.5 -6.5t74.5 -25.5t50.5 -53.5t18.5 -89.5q0 -56 -23 -97.5t-61.5 -69t-87 -41t-99.5 -13.5h-99l-37 -172h-69z" />
    <glyph glyph-name="germandbls" unicode="&#xdf;" 
d="M282 421q39 0 74.5 9.5t63 30t43.5 51.5t16 73q0 56 -29.5 89.5t-84.5 33.5q-34 0 -60 -17t-45 -43t-31 -58t-18 -62l-111 -528h-66l107 509q14 68 34 116t47.5 78.5t63.5 44.5t83 14q81 0 130 -43t49 -129q0 -38 -13.5 -72t-37 -60t-56 -42t-71.5 -18v-2
q67 -8 103.5 -49t36.5 -104q0 -57 -17 -103t-48.5 -78.5t-76 -50.5t-98.5 -18q-35 0 -62 4.5t-48 12.5l18 59q37 -22 90 -22q41 0 73.5 14.5t54.5 40t33.5 59.5t11.5 73q0 37 -12.5 62.5t-35 41t-53.5 22.5t-67 7z" />
    <glyph glyph-name="agrave" unicode="&#xe0;" horiz-adv-x="500" 
d="M409 121q-8 -29 -12.5 -62t-6.5 -59h-63q2 20 4 39t6 36h-2q-32 -48 -74.5 -67.5t-99.5 -19.5q-30 0 -56.5 10.5t-46.5 29.5t-31.5 45.5t-11.5 57.5q0 56 28 91t71.5 55t95 27t98.5 7q20 0 37 -1t32 -3q2 11 2.5 23t0.5 28q0 53 -28 81.5t-81 28.5q-45 0 -85 -15.5
t-66 -28.5l7 64q27 11 68 22.5t86 11.5q83 0 125.5 -43t42.5 -123q0 -15 -3 -41t-10 -56zM84 132q0 -22 8.5 -38.5t22 -28t31.5 -17.5t37 -6q44 0 77 18t55.5 48t35.5 68.5t18 78.5q-16 0 -31 1t-31 1q-32 0 -71 -4t-72.5 -16.5t-56.5 -37.5t-23 -67zM349 578h-42l-92 144
h79z" />
    <glyph glyph-name="aacute" unicode="&#xe1;" horiz-adv-x="500" 
d="M409 121q-8 -29 -12.5 -62t-6.5 -59h-63q2 20 4 39t6 36h-2q-32 -48 -74.5 -67.5t-99.5 -19.5q-30 0 -56.5 10.5t-46.5 29.5t-31.5 45.5t-11.5 57.5q0 56 28 91t71.5 55t95 27t98.5 7q20 0 37 -1t32 -3q2 11 2.5 23t0.5 28q0 53 -28 81.5t-81 28.5q-45 0 -85 -15.5
t-66 -28.5l7 64q27 11 68 22.5t86 11.5q83 0 125.5 -43t42.5 -123q0 -15 -3 -41t-10 -56zM84 132q0 -22 8.5 -38.5t22 -28t31.5 -17.5t37 -6q44 0 77 18t55.5 48t35.5 68.5t18 78.5q-16 0 -31 1t-31 1q-32 0 -71 -4t-72.5 -16.5t-56.5 -37.5t-23 -67zM358 722h79l-117 -144
h-47z" />
    <glyph glyph-name="acircumflex" unicode="&#xe2;" horiz-adv-x="500" 
d="M409 121q-8 -29 -12.5 -62t-6.5 -59h-63q2 20 4 39t6 36h-2q-32 -48 -74.5 -67.5t-99.5 -19.5q-30 0 -56.5 10.5t-46.5 29.5t-31.5 45.5t-11.5 57.5q0 56 28 91t71.5 55t95 27t98.5 7q20 0 37 -1t32 -3q2 11 2.5 23t0.5 28q0 53 -28 81.5t-81 28.5q-45 0 -85 -15.5
t-66 -28.5l7 64q27 11 68 22.5t86 11.5q83 0 125.5 -43t42.5 -123q0 -15 -3 -41t-10 -56zM84 132q0 -22 8.5 -38.5t22 -28t31.5 -17.5t37 -6q44 0 77 18t55.5 48t35.5 68.5t18 78.5q-16 0 -31 1t-31 1q-32 0 -71 -4t-72.5 -16.5t-56.5 -37.5t-23 -67zM291 722h76l69 -144
h-44l-65 102l-115 -102h-44z" />
    <glyph glyph-name="atilde" unicode="&#xe3;" horiz-adv-x="500" 
d="M409 121q-8 -29 -12.5 -62t-6.5 -59h-63q2 20 4 39t6 36h-2q-32 -48 -74.5 -67.5t-99.5 -19.5q-30 0 -56.5 10.5t-46.5 29.5t-31.5 45.5t-11.5 57.5q0 56 28 91t71.5 55t95 27t98.5 7q20 0 37 -1t32 -3q2 11 2.5 23t0.5 28q0 53 -28 81.5t-81 28.5q-45 0 -85 -15.5
t-66 -28.5l7 64q27 11 68 22.5t86 11.5q83 0 125.5 -43t42.5 -123q0 -15 -3 -41t-10 -56zM84 132q0 -22 8.5 -38.5t22 -28t31.5 -17.5t37 -6q44 0 77 18t55.5 48t35.5 68.5t18 78.5q-16 0 -31 1t-31 1q-32 0 -71 -4t-72.5 -16.5t-56.5 -37.5t-23 -67zM445 693
q0 -17 -6 -33.5t-17 -29t-26 -20.5t-33 -8q-15 0 -29 5l-28 10t-27.5 9.5t-27.5 4.5q-18 0 -27 -11.5t-11 -25.5h-36q0 17 6 33.5t17 29.5t26 20.5t33 7.5q16 0 29.5 -4t27.5 -10t27.5 -10.5t27.5 -4.5q18 0 27 10t11 27h36z" />
    <glyph glyph-name="adieresis" unicode="&#xe4;" horiz-adv-x="500" 
d="M409 121q-8 -29 -12.5 -62t-6.5 -59h-63q2 20 4 39t6 36h-2q-32 -48 -74.5 -67.5t-99.5 -19.5q-30 0 -56.5 10.5t-46.5 29.5t-31.5 45.5t-11.5 57.5q0 56 28 91t71.5 55t95 27t98.5 7q20 0 37 -1t32 -3q2 11 2.5 23t0.5 28q0 53 -28 81.5t-81 28.5q-45 0 -85 -15.5
t-66 -28.5l7 64q27 11 68 22.5t86 11.5q83 0 125.5 -43t42.5 -123q0 -15 -3 -41t-10 -56zM84 132q0 -22 8.5 -38.5t22 -28t31.5 -17.5t37 -6q44 0 77 18t55.5 48t35.5 68.5t18 78.5q-16 0 -31 1t-31 1q-32 0 -71 -4t-72.5 -16.5t-56.5 -37.5t-23 -67zM205 690h77l-16 -84
h-77zM380 690h77l-16 -84h-77z" />
    <glyph glyph-name="aring" unicode="&#xe5;" horiz-adv-x="500" 
d="M409 121q-8 -29 -12.5 -62t-6.5 -59h-63q2 20 4 39t6 36h-2q-32 -48 -74.5 -67.5t-99.5 -19.5q-30 0 -56.5 10.5t-46.5 29.5t-31.5 45.5t-11.5 57.5q0 56 28 91t71.5 55t95 27t98.5 7q20 0 37 -1t32 -3q2 11 2.5 23t0.5 28q0 53 -28 81.5t-81 28.5q-45 0 -85 -15.5
t-66 -28.5l7 64q27 11 68 22.5t86 11.5q83 0 125.5 -43t42.5 -123q0 -15 -3 -41t-10 -56zM84 132q0 -22 8.5 -38.5t22 -28t31.5 -17.5t37 -6q44 0 77 18t55.5 48t35.5 68.5t18 78.5q-16 0 -31 1t-31 1q-32 0 -71 -4t-72.5 -16.5t-56.5 -37.5t-23 -67zM215 647q0 20 8 38
t22 31.5t32 21.5t38 8t38 -8t31.5 -21.5t21.5 -31.5t8 -38t-7.5 -38.5t-21 -32t-31.5 -21.5t-39 -8q-20 0 -38.5 8t-32 21.5t-21.5 32t-8 38.5zM251 647q0 -26 17.5 -45t46.5 -19t46 19t17 45t-17 44.5t-46 18.5t-46.5 -18t-17.5 -45z" />
    <glyph glyph-name="ae" unicode="&#xe6;" horiz-adv-x="778" 
d="M415 237q-2 -9 -3 -19.5t-1 -25.5q0 -27 8.5 -54t25.5 -48t44 -34.5t63 -13.5q32 0 65.5 7.5t61.5 18.5l-6 -60q-32 -11 -55.5 -15.5t-56.5 -4.5q-36 0 -68 7t-58.5 23t-45 41.5t-27.5 62.5h-2q-17 -70 -67.5 -102t-117.5 -32q-32 0 -61.5 9t-52.5 26.5t-37 42.5t-14 57
q0 78 66 123t200 45h81l2 24t1 27q3 59 -23.5 92.5t-78.5 33.5q-35 0 -71 -12.5t-65 -29.5l9 65q33 14 69 22.5t72 8.5q25 0 48 -5.5t42.5 -17.5t33 -31.5t18.5 -47.5h3q25 53 74 77.5t103 24.5q89 0 130.5 -47t41.5 -128q0 -41 -3 -65t-5 -45h-343zM79 131q0 -22 8.5 -38.5
t22 -27.5t31 -17t36.5 -6q42 0 72 16.5t50.5 44t32.5 62.5t17 72h-47q-35 0 -74 -4t-72 -15.5t-55 -32.5t-22 -54zM698 291q2 11 3.5 23t1.5 32q0 56 -24.5 89t-84.5 33q-40 0 -69.5 -14.5t-50 -39t-32.5 -56.5t-18 -67h274z" />
    <glyph glyph-name="ccedilla" unicode="&#xe7;" horiz-adv-x="444" 
d="M228 -47v-2q7 4 14.5 5t17.5 1q28 0 47 -15.5t19 -47.5q0 -23 -10.5 -38t-26.5 -24t-35.5 -13t-37.5 -4q-35 0 -58 8t-44 19l7 31q14 -10 37 -19t51 -9q18 0 36 10t18 36q0 19 -13 27.5t-27 8.5q-8 0 -20.5 -1.5t-20.5 -5.5l34 72q-44 6 -77.5 28.5t-55.5 54.5t-33 70
t-11 76q0 68 19 123t56.5 95t93.5 61.5t130 21.5q16 0 34.5 -1.5t36 -4.5t33 -6.5t25.5 -7.5l-18 -57q-7 4 -21 8t-30.5 7.5t-34 5.5t-32.5 2q-54 0 -96 -18.5t-70 -51.5t-42.5 -77t-14.5 -95q0 -39 12.5 -73t34.5 -58.5t52 -38.5t66 -14q29 0 56.5 8t51.5 16l-8 -63
q-18 -6 -47.5 -10.5t-68.5 -4.5h-11z" />
    <glyph glyph-name="egrave" unicode="&#xe8;" horiz-adv-x="500" 
d="M105 237q-3 -19 -3 -41q0 -74 43.5 -114t111.5 -40q48 0 83.5 10.5t65.5 23.5l-5 -61q-22 -8 -56 -17.5t-96 -9.5q-45 0 -83 13t-66.5 39.5t-44.5 65.5t-16 90q0 64 18 123t52.5 104t83.5 72t110 27q91 0 135.5 -51t44.5 -139q0 -23 -2.5 -47t-4.5 -48h-371zM417 291
q1 11 2 20.5t1 18.5q0 63 -27.5 100.5t-89.5 37.5q-37 0 -68.5 -14.5t-55.5 -39t-40.5 -56.5t-22.5 -67h301zM365 578h-42l-92 144h79z" />
    <glyph glyph-name="eacute" unicode="&#xe9;" horiz-adv-x="500" 
d="M105 237q-3 -19 -3 -41q0 -74 43.5 -114t111.5 -40q48 0 83.5 10.5t65.5 23.5l-5 -61q-22 -8 -56 -17.5t-96 -9.5q-45 0 -83 13t-66.5 39.5t-44.5 65.5t-16 90q0 64 18 123t52.5 104t83.5 72t110 27q91 0 135.5 -51t44.5 -139q0 -23 -2.5 -47t-4.5 -48h-371zM417 291
q1 11 2 20.5t1 18.5q0 63 -27.5 100.5t-89.5 37.5q-37 0 -68.5 -14.5t-55.5 -39t-40.5 -56.5t-22.5 -67h301zM368 722h79l-117 -144h-47z" />
    <glyph glyph-name="ecircumflex" unicode="&#xea;" horiz-adv-x="500" 
d="M105 237q-3 -19 -3 -41q0 -74 43.5 -114t111.5 -40q48 0 83.5 10.5t65.5 23.5l-5 -61q-22 -8 -56 -17.5t-96 -9.5q-45 0 -83 13t-66.5 39.5t-44.5 65.5t-16 90q0 64 18 123t52.5 104t83.5 72t110 27q91 0 135.5 -51t44.5 -139q0 -23 -2.5 -47t-4.5 -48h-371zM417 291
q1 11 2 20.5t1 18.5q0 63 -27.5 100.5t-89.5 37.5q-37 0 -68.5 -14.5t-55.5 -39t-40.5 -56.5t-22.5 -67h301zM297 722h76l69 -144h-44l-65 102l-115 -102h-44z" />
    <glyph glyph-name="edieresis" unicode="&#xeb;" horiz-adv-x="500" 
d="M105 237q-3 -19 -3 -41q0 -74 43.5 -114t111.5 -40q48 0 83.5 10.5t65.5 23.5l-5 -61q-22 -8 -56 -17.5t-96 -9.5q-45 0 -83 13t-66.5 39.5t-44.5 65.5t-16 90q0 64 18 123t52.5 104t83.5 72t110 27q91 0 135.5 -51t44.5 -139q0 -23 -2.5 -47t-4.5 -48h-371zM417 291
q1 11 2 20.5t1 18.5q0 63 -27.5 100.5t-89.5 37.5q-37 0 -68.5 -14.5t-55.5 -39t-40.5 -56.5t-22.5 -67h301zM208 690h77l-16 -84h-77zM383 690h77l-16 -84h-77z" />
    <glyph glyph-name="igrave" unicode="&#xec;" horiz-adv-x="222" 
d="M136 510h66l-108 -510h-66zM220 578h-42l-92 144h79z" />
    <glyph glyph-name="iacute" unicode="&#xed;" horiz-adv-x="222" 
d="M136 510h66l-108 -510h-66zM230 722h79l-117 -144h-47z" />
    <glyph glyph-name="icircumflex" unicode="&#xee;" horiz-adv-x="222" 
d="M136 510h66l-108 -510h-66zM167 722h76l69 -144h-44l-65 102l-115 -102h-44z" />
    <glyph glyph-name="idieresis" unicode="&#xef;" horiz-adv-x="222" 
d="M136 510h66l-108 -510h-66zM73 690h77l-16 -84h-77zM248 690h77l-16 -84h-77z" />
    <glyph glyph-name="eth" unicode="&#xf0;" 
d="M108 200q0 -33 10 -62t28.5 -50t45 -33.5t59.5 -12.5q50 0 88 24t64.5 61.5t40 83.5t13.5 91q0 36 -8.5 66.5t-25.5 52.5t-44 34.5t-64 12.5q-53 0 -92 -23.5t-64.5 -61.5t-38 -86t-12.5 -97zM308 673q-51 36 -105 51l26 38q77 -21 133 -59l108 59l32 -34l-101 -56
q64 -59 94.5 -143.5t30.5 -190.5q0 -76 -18 -140.5t-54 -111t-89 -72.5t-122 -26q-47 0 -85 17t-64.5 46.5t-40.5 70t-14 88.5q0 64 20 121t57 99.5t89.5 67t117.5 24.5q51 -5 80 -21.5t48 -46.5h2q-11 57 -39.5 105t-66.5 82l-113 -63l-34 36z" />
    <glyph glyph-name="ntilde" unicode="&#xf1;" 
d="M116 429q5 26 7.5 44t4.5 37h63q-2 -24 -4.5 -43.5t-6.5 -33.5h2q26 41 70 65t92 24q69 0 114.5 -38t45.5 -110q0 -26 -5 -53.5t-10 -51.5l-57 -269h-66l58 281q5 25 8 44t3 45q0 45 -25 71.5t-73 26.5q-41 0 -73 -19t-55.5 -50.5t-39.5 -72t-25 -84.5l-50 -242h-66z
M473 693q0 -17 -6 -33.5t-17 -29t-26 -20.5t-33 -8q-15 0 -29 5l-28 10t-27.5 9.5t-27.5 4.5q-18 0 -27 -11.5t-11 -25.5h-36q0 17 6 33.5t17 29.5t26 20.5t33 7.5q16 0 29.5 -4t27.5 -10t27.5 -10.5t27.5 -4.5q18 0 27 10t11 27h36z" />
    <glyph glyph-name="ograve" unicode="&#xf2;" 
d="M39 210q0 64 20 121t57 99.5t89.5 67t117.5 24.5q98 0 150.5 -60t52.5 -159q0 -64 -19.5 -121t-56 -100t-89 -68.5t-118.5 -25.5q-47 0 -85 17t-64.5 46.5t-40.5 70t-14 88.5zM108 200q0 -33 10 -62t28.5 -50t45 -33.5t59.5 -12.5q50 0 88 24t64.5 61.5t40 83.5t13.5 91
q0 36 -8.5 66.5t-25.5 52.5t-44 34.5t-64 12.5q-53 0 -92 -23.5t-64.5 -61.5t-38 -86t-12.5 -97zM398 578h-42l-92 144h79z" />
    <glyph glyph-name="oacute" unicode="&#xf3;" 
d="M39 210q0 64 20 121t57 99.5t89.5 67t117.5 24.5q98 0 150.5 -60t52.5 -159q0 -64 -19.5 -121t-56 -100t-89 -68.5t-118.5 -25.5q-47 0 -85 17t-64.5 46.5t-40.5 70t-14 88.5zM108 200q0 -33 10 -62t28.5 -50t45 -33.5t59.5 -12.5q50 0 88 24t64.5 61.5t40 83.5t13.5 91
q0 36 -8.5 66.5t-25.5 52.5t-44 34.5t-64 12.5q-53 0 -92 -23.5t-64.5 -61.5t-38 -86t-12.5 -97zM389 722h79l-117 -144h-47z" />
    <glyph glyph-name="ocircumflex" unicode="&#xf4;" 
d="M39 210q0 64 20 121t57 99.5t89.5 67t117.5 24.5q98 0 150.5 -60t52.5 -159q0 -64 -19.5 -121t-56 -100t-89 -68.5t-118.5 -25.5q-47 0 -85 17t-64.5 46.5t-40.5 70t-14 88.5zM108 200q0 -33 10 -62t28.5 -50t45 -33.5t59.5 -12.5q50 0 88 24t64.5 61.5t40 83.5t13.5 91
q0 36 -8.5 66.5t-25.5 52.5t-44 34.5t-64 12.5q-53 0 -92 -23.5t-64.5 -61.5t-38 -86t-12.5 -97zM322 722h76l69 -144h-44l-65 102l-115 -102h-44z" />
    <glyph glyph-name="otilde" unicode="&#xf5;" 
d="M39 210q0 64 20 121t57 99.5t89.5 67t117.5 24.5q98 0 150.5 -60t52.5 -159q0 -64 -19.5 -121t-56 -100t-89 -68.5t-118.5 -25.5q-47 0 -85 17t-64.5 46.5t-40.5 70t-14 88.5zM108 200q0 -33 10 -62t28.5 -50t45 -33.5t59.5 -12.5q50 0 88 24t64.5 61.5t40 83.5t13.5 91
q0 36 -8.5 66.5t-25.5 52.5t-44 34.5t-64 12.5q-53 0 -92 -23.5t-64.5 -61.5t-38 -86t-12.5 -97zM476 693q0 -17 -6 -33.5t-17 -29t-26 -20.5t-33 -8q-15 0 -29 5l-28 10t-27.5 9.5t-27.5 4.5q-18 0 -27 -11.5t-11 -25.5h-36q0 17 6 33.5t17 29.5t26 20.5t33 7.5
q16 0 29.5 -4t27.5 -10t27.5 -10.5t27.5 -4.5q18 0 27 10t11 27h36z" />
    <glyph glyph-name="odieresis" unicode="&#xf6;" 
d="M39 210q0 64 20 121t57 99.5t89.5 67t117.5 24.5q98 0 150.5 -60t52.5 -159q0 -64 -19.5 -121t-56 -100t-89 -68.5t-118.5 -25.5q-47 0 -85 17t-64.5 46.5t-40.5 70t-14 88.5zM108 200q0 -33 10 -62t28.5 -50t45 -33.5t59.5 -12.5q50 0 88 24t64.5 61.5t40 83.5t13.5 91
q0 36 -8.5 66.5t-25.5 52.5t-44 34.5t-64 12.5q-53 0 -92 -23.5t-64.5 -61.5t-38 -86t-12.5 -97zM233 690h77l-16 -84h-77zM408 690h77l-16 -84h-77z" />
    <glyph glyph-name="divide" unicode="&#xf7;" horiz-adv-x="600" 
d="M61 288h507v-69h-507v69zM251 450q0 26 19 45t45 19t45 -19t19 -45q0 -24 -19 -44t-45 -20t-45 19t-19 45zM251 57q0 26 19 45t45 19t45 -19t19 -45q0 -24 -19 -44t-45 -20t-45 19t-19 45z" />
    <glyph glyph-name="oslash" unicode="&#xf8;" 
d="M422 421q-18 23 -44 35t-63 12q-53 0 -92 -23.5t-64.5 -61.5t-38 -86t-12.5 -97q0 -45 18 -81zM146 89q17 -22 44 -34.5t61 -12.5q50 0 88 24t64.5 61.5t40 83.5t13.5 91q0 25 -4 47.5t-12 40.5zM546 498l-57 -58q37 -54 37 -137q0 -64 -19.5 -121t-56 -100t-89 -68.5
t-118.5 -25.5q-85 0 -141 56l-58 -59l-26 23l61 63q-40 57 -40 139q0 64 20 121t57 99.5t89.5 67t117.5 24.5q91 0 144 -55l53 54z" />
    <glyph glyph-name="ugrave" unicode="&#xf9;" 
d="M445 81q-5 -26 -7.5 -44t-4.5 -37h-63q2 24 4.5 43.5t6.5 33.5h-2q-26 -41 -70 -65t-92 -24q-69 0 -114.5 38t-45.5 110q0 26 5 53.5t10 51.5l57 269h66l-58 -281q-5 -25 -8 -44t-3 -45q0 -45 25 -71.5t73 -26.5q41 0 73 19t55.5 50.5t39.5 72t25 84.5l50 242h66z
M396 578h-42l-92 144h79z" />
    <glyph glyph-name="uacute" unicode="&#xfa;" 
d="M445 81q-5 -26 -7.5 -44t-4.5 -37h-63q2 24 4.5 43.5t6.5 33.5h-2q-26 -41 -70 -65t-92 -24q-69 0 -114.5 38t-45.5 110q0 26 5 53.5t10 51.5l57 269h66l-58 -281q-5 -25 -8 -44t-3 -45q0 -45 25 -71.5t73 -26.5q41 0 73 19t55.5 50.5t39.5 72t25 84.5l50 242h66z
M395 722h79l-117 -144h-47z" />
    <glyph glyph-name="ucircumflex" unicode="&#xfb;" 
d="M445 81q-5 -26 -7.5 -44t-4.5 -37h-63q2 24 4.5 43.5t6.5 33.5h-2q-26 -41 -70 -65t-92 -24q-69 0 -114.5 38t-45.5 110q0 26 5 53.5t10 51.5l57 269h66l-58 -281q-5 -25 -8 -44t-3 -45q0 -45 25 -71.5t73 -26.5q41 0 73 19t55.5 50.5t39.5 72t25 84.5l50 242h66z
M328 722h76l69 -144h-44l-65 102l-115 -102h-44z" />
    <glyph glyph-name="udieresis" unicode="&#xfc;" 
d="M445 81q-5 -26 -7.5 -44t-4.5 -37h-63q2 24 4.5 43.5t6.5 33.5h-2q-26 -41 -70 -65t-92 -24q-69 0 -114.5 38t-45.5 110q0 26 5 53.5t10 51.5l57 269h66l-58 -281q-5 -25 -8 -44t-3 -45q0 -45 25 -71.5t73 -26.5q41 0 73 19t55.5 50.5t39.5 72t25 84.5l50 242h66z
M234 690h77l-16 -84h-77zM409 690h77l-16 -84h-77z" />
    <glyph glyph-name="yacute" unicode="&#xfd;" horiz-adv-x="444" 
d="M139 -120q-23 -44 -54 -70t-83 -26q-17 0 -32 3t-29 11l15 54q8 -8 19 -11t22 -3q33 0 58 25t39 55l43 81l-72 511h66l52 -439h2l239 439h68zM345 722h79l-117 -144h-47z" />
    <glyph glyph-name="thorn" unicode="&#xfe;" 
d="M184 750h66l-74 -324h2q28 47 73 71.5t97 24.5q44 0 76.5 -16t54.5 -44t33 -65.5t11 -80.5q0 -59 -16.5 -118t-48.5 -105.5t-80.5 -75.5t-113.5 -29q-54 0 -95 29t-57 82h-2l-62 -309h-66zM136 204q0 -30 7.5 -59t23 -52t40 -37t57.5 -14q49 0 85 26t59 66.5t34.5 89
t11.5 92.5q0 32 -7 59.5t-22 48t-38.5 32.5t-56.5 12q-45 0 -81 -26t-61 -65.5t-38.5 -85.5t-13.5 -87z" />
    <glyph glyph-name="ydieresis" unicode="&#xff;" horiz-adv-x="444" 
d="M139 -120q-23 -44 -54 -70t-83 -26q-17 0 -32 3t-29 11l15 54q8 -8 19 -11t22 -3q33 0 58 25t39 55l43 81l-72 511h66l52 -439h2l239 439h68zM180 690h77l-16 -84h-77zM355 690h77l-16 -84h-77z" />
    <glyph glyph-name="Amacron" unicode="&#x100;" horiz-adv-x="667" 
d="M420 629l-236 -382h309zM391 698h82l136 -698h-70l-35 187h-357l-115 -187h-74zM563 763h-257l11 54h257z" />
    <glyph glyph-name="amacron" unicode="&#x101;" horiz-adv-x="500" 
d="M409 121q-8 -29 -12.5 -62t-6.5 -59h-63q2 20 4 39t6 36h-2q-32 -48 -74.5 -67.5t-99.5 -19.5q-30 0 -56.5 10.5t-46.5 29.5t-31.5 45.5t-11.5 57.5q0 56 28 91t71.5 55t95 27t98.5 7q20 0 37 -1t32 -3q2 11 2.5 23t0.5 28q0 53 -28 81.5t-81 28.5q-45 0 -85 -15.5
t-66 -28.5l7 64q27 11 68 22.5t86 11.5q83 0 125.5 -43t42.5 -123q0 -15 -3 -41t-10 -56zM84 132q0 -22 8.5 -38.5t22 -28t31.5 -17.5t37 -6q44 0 77 18t55.5 48t35.5 68.5t18 78.5q-16 0 -31 1t-31 1q-32 0 -71 -4t-72.5 -16.5t-56.5 -37.5t-23 -67zM429 622h-257l11 54
h257z" />
    <glyph glyph-name="Abreve" unicode="&#x102;" horiz-adv-x="667" 
d="M420 629l-236 -382h309zM391 698h82l136 -698h-70l-35 187h-357l-115 -187h-74zM362 844q0 -21 21.5 -35t51.5 -14q42 0 78 12t63 37h35q-13 -18 -30.5 -36.5t-39 -33t-46 -24t-53.5 -9.5q-60 0 -85 29t-25 74h30z" />
    <glyph glyph-name="abreve" unicode="&#x103;" horiz-adv-x="500" 
d="M409 121q-8 -29 -12.5 -62t-6.5 -59h-63q2 20 4 39t6 36h-2q-32 -48 -74.5 -67.5t-99.5 -19.5q-30 0 -56.5 10.5t-46.5 29.5t-31.5 45.5t-11.5 57.5q0 56 28 91t71.5 55t95 27t98.5 7q20 0 37 -1t32 -3q2 11 2.5 23t0.5 28q0 53 -28 81.5t-81 28.5q-45 0 -85 -15.5
t-66 -28.5l7 64q27 11 68 22.5t86 11.5q83 0 125.5 -43t42.5 -123q0 -15 -3 -41t-10 -56zM84 132q0 -22 8.5 -38.5t22 -28t31.5 -17.5t37 -6q44 0 77 18t55.5 48t35.5 68.5t18 78.5q-16 0 -31 1t-31 1q-32 0 -71 -4t-72.5 -16.5t-56.5 -37.5t-23 -67zM232 711
q0 -32 21.5 -49.5t51.5 -17.5q42 0 78 18t63 49h35q-13 -22 -30.5 -44.5t-39 -41t-46 -30t-53.5 -11.5q-60 0 -85 35.5t-25 91.5h30z" />
    <glyph glyph-name="Aogonek" unicode="&#x104;" horiz-adv-x="667" 
d="M420 629l-236 -382h309zM539 0l-35 187h-357l-115 -187h-74l433 698h82l136 -698q-6 0 -21 -9.5t-25 -16.5q-42 -29 -66.5 -57.5t-24.5 -52.5q0 -18 10 -27t39 -9q11 0 24 2t28 10l-10 -41q-29 -7 -45.5 -8t-39.5 -1q-27 0 -48.5 14t-21.5 45q0 25 15 49t37 44.5t45.5 35
t41.5 22.5h-8z" />
    <glyph glyph-name="aogonek" unicode="&#x105;" horiz-adv-x="500" 
d="M84 132q0 -22 8.5 -38.5t22 -28t31.5 -17.5t37 -6q44 0 77 18t55.5 48t35.5 68.5t18 78.5q-16 0 -31 1t-31 1q-32 0 -71 -4t-72.5 -16.5t-56.5 -37.5t-23 -67zM390 0q-58 -34 -95 -70.5t-37 -65.5q0 -18 10 -27t39 -9q11 0 24 2t28 10l-10 -41q-29 -7 -45.5 -8t-39.5 -1
q-27 0 -48.5 14t-21.5 45q0 25 15 49t37 44.5t45.5 35t41.5 22.5h-6q2 20 4 39t6 36h-2q-32 -48 -74.5 -67.5t-99.5 -19.5q-30 0 -56.5 10.5t-46.5 29.5t-31.5 45.5t-11.5 57.5q0 56 28 91t71.5 55t95 27t98.5 7q20 0 37 -1t32 -3q2 11 2.5 23t0.5 28q0 53 -28 81.5
t-81 28.5q-45 0 -85 -15.5t-66 -28.5l7 64q27 11 68 22.5t86 11.5q83 0 125.5 -43t42.5 -123q0 -15 -3 -41t-10 -56l-27 -138q-8 -29 -12.5 -62t-6.5 -59z" />
    <glyph glyph-name="Cacute" unicode="&#x106;" horiz-adv-x="611" 
d="M653 616q-38 20 -80.5 27t-87.5 7q-76 0 -139 -27.5t-108 -75.5t-70 -113t-25 -141q0 -51 19 -95.5t53 -78t80.5 -52.5t101.5 -19q33 0 54.5 2t37.5 5.5t29 7.5t28 8l-8 -61q-21 -6 -50.5 -14t-85.5 -8q-67 0 -126.5 21t-104.5 61t-71 96.5t-26 127.5q0 92 31 168
t86 131.5t131.5 86t166.5 30.5q57 0 100.5 -8t87.5 -28zM536 845h85l-117 -108h-53z" />
    <glyph glyph-name="cacute" unicode="&#x107;" horiz-adv-x="444" 
d="M449 445q-7 4 -21 8t-30.5 7.5t-34 5.5t-32.5 2q-54 0 -96 -18.5t-70 -51.5t-42.5 -77t-14.5 -95q0 -39 12.5 -73t34.5 -58.5t52 -38.5t66 -14q29 0 56.5 8t51.5 16l-8 -63q-18 -6 -47.5 -10.5t-68.5 -4.5q-55 0 -96 21t-68 54.5t-40.5 75t-13.5 82.5q0 68 19 123
t56.5 95t93.5 61.5t130 21.5q16 0 34.5 -1.5t36 -4.5t33 -6.5t25.5 -7.5zM392 722h79l-117 -144h-47z" />
    <glyph glyph-name="Ccaron" unicode="&#x10c;" horiz-adv-x="611" 
d="M653 616q-38 20 -80.5 27t-87.5 7q-76 0 -139 -27.5t-108 -75.5t-70 -113t-25 -141q0 -51 19 -95.5t53 -78t80.5 -52.5t101.5 -19q33 0 54.5 2t37.5 5.5t29 7.5t28 8l-8 -61q-21 -6 -50.5 -14t-85.5 -8q-67 0 -126.5 21t-104.5 61t-71 96.5t-26 127.5q0 92 31 168
t86 131.5t131.5 86t166.5 30.5q57 0 100.5 -8t87.5 -28zM533 738h-82l-77 108h47l74 -74l106 74h47z" />
    <glyph glyph-name="ccaron" unicode="&#x10d;" horiz-adv-x="444" 
d="M449 445q-7 4 -21 8t-30.5 7.5t-34 5.5t-32.5 2q-54 0 -96 -18.5t-70 -51.5t-42.5 -77t-14.5 -95q0 -39 12.5 -73t34.5 -58.5t52 -38.5t66 -14q29 0 56.5 8t51.5 16l-8 -63q-18 -6 -47.5 -10.5t-68.5 -4.5q-55 0 -96 21t-68 54.5t-40.5 75t-13.5 82.5q0 68 19 123
t56.5 95t93.5 61.5t130 21.5q16 0 34.5 -1.5t36 -4.5t33 -6.5t25.5 -7.5zM380 578h-76l-69 144h44l65 -102l115 102h44z" />
    <glyph glyph-name="Dcaron" unicode="&#x10e;" horiz-adv-x="667" 
d="M119 60h123q79 0 141.5 24t106 70t66.5 112.5t23 151.5q0 59 -18 100.5t-50.5 68t-78.5 39t-102 12.5h-87zM185 698h124q70 0 132 -14t108 -46.5t72.5 -86t26.5 -133.5q0 -93 -26.5 -170t-77.5 -132t-125.5 -85.5t-170.5 -30.5h-211zM406 738h-82l-77 108h47l74 -74
l106 74h47z" />
    <glyph glyph-name="dcaron" unicode="&#x10f;" horiz-adv-x="596" 
d="M454 100q-14 -64 -17 -100h-65q2 21 6.5 43.5t9.5 37.5h-2q-28 -42 -68.5 -67.5t-105.5 -25.5q-46 0 -79 18t-54 48t-30.5 69.5t-9.5 82.5q0 53 17 109t49.5 102t80 75.5t108.5 29.5q56 0 99 -26.5t57 -79.5h2l70 334h66zM108 194q0 -32 7 -59.5t22.5 -48t39 -32.5
t56.5 -12q43 0 79 25.5t62 64.5t40.5 85.5t14.5 88.5q0 34 -8 63.5t-24 51.5t-40.5 34.5t-57.5 12.5q-49 0 -85 -26t-59.5 -66.5t-35 -89t-11.5 -92.5zM680 750h65l-92 -172h-47z" />
    <glyph glyph-name="Dcroat" unicode="&#x110;" horiz-adv-x="667" 
d="M107 329h-67l12 60h68l65 309h124q70 0 132 -14t108 -46.5t72.5 -86t26.5 -133.5q0 -93 -26.5 -170t-77.5 -132t-125.5 -85.5t-170.5 -30.5h-211zM190 389h194l-14 -60h-193l-58 -269h123q79 0 141.5 24t106 70t66.5 112.5t23 151.5q0 59 -18 100.5t-50.5 68t-78.5 39
t-102 12.5h-87z" />
    <glyph glyph-name="dcroat" unicode="&#x111;" 
d="M307 608l12 60h186l17 82h66l-17 -82h101l-14 -60h-99l-105 -508q-14 -64 -17 -100h-65q2 21 6.5 43.5t9.5 37.5h-2q-28 -42 -68.5 -67.5t-105.5 -25.5q-46 0 -79 18t-54 48t-30.5 69.5t-9.5 82.5q0 53 17 109t49.5 102t80 75.5t108.5 29.5q56 0 99 -26.5t57 -79.5h2
l40 192h-185zM108 194q0 -32 7 -59.5t22.5 -48t39 -32.5t56.5 -12q43 0 79 25.5t62 64.5t40.5 85.5t14.5 88.5q0 34 -8 63.5t-24 51.5t-40.5 34.5t-57.5 12.5q-49 0 -85 -26t-59.5 -66.5t-35 -89t-11.5 -92.5z" />
    <glyph glyph-name="Emacron" unicode="&#x112;" horiz-adv-x="500" 
d="M181 698h344l-11 -60h-277l-51 -249h261l-11 -60h-262l-56 -269h287l-10 -60h-358zM496 763h-257l11 54h257z" />
    <glyph glyph-name="emacron" unicode="&#x113;" horiz-adv-x="500" 
d="M105 237q-3 -19 -3 -41q0 -74 43.5 -114t111.5 -40q48 0 83.5 10.5t65.5 23.5l-5 -61q-22 -8 -56 -17.5t-96 -9.5q-45 0 -83 13t-66.5 39.5t-44.5 65.5t-16 90q0 64 18 123t52.5 104t83.5 72t110 27q91 0 135.5 -51t44.5 -139q0 -23 -2.5 -47t-4.5 -48h-371zM417 291
q1 11 2 20.5t1 18.5q0 63 -27.5 100.5t-89.5 37.5q-37 0 -68.5 -14.5t-55.5 -39t-40.5 -56.5t-22.5 -67h301zM454 622h-257l11 54h257z" />
    <glyph glyph-name="Edotaccent" unicode="&#x116;" horiz-adv-x="500" 
d="M181 698h344l-11 -60h-277l-51 -249h261l-11 -60h-262l-56 -269h287l-10 -60h-358zM348 833h77l-16 -84h-77z" />
    <glyph glyph-name="edotaccent" unicode="&#x117;" horiz-adv-x="500" 
d="M105 237q-3 -19 -3 -41q0 -74 43.5 -114t111.5 -40q48 0 83.5 10.5t65.5 23.5l-5 -61q-22 -8 -56 -17.5t-96 -9.5q-45 0 -83 13t-66.5 39.5t-44.5 65.5t-16 90q0 64 18 123t52.5 104t83.5 72t110 27q91 0 135.5 -51t44.5 -139q0 -23 -2.5 -47t-4.5 -48h-371zM417 291
q1 11 2 20.5t1 18.5q0 63 -27.5 100.5t-89.5 37.5q-37 0 -68.5 -14.5t-55.5 -39t-40.5 -56.5t-22.5 -67h301zM311 690h77l-16 -84h-77z" />
    <glyph glyph-name="Eogonek" unicode="&#x118;" horiz-adv-x="500" 
d="M389 0q-6 0 -21 -9.5t-25 -16.5q-42 -29 -66.5 -57.5t-24.5 -52.5q0 -18 10 -27t39 -9q11 0 24 2t28 10l-10 -41q-29 -7 -45.5 -8t-39.5 -1q-27 0 -48.5 14t-21.5 45q0 25 15 49t37 44.5t45.5 35t41.5 22.5h-290l144 698h344l-11 -60h-277l-51 -249h261l-11 -60h-262
l-56 -269h287l-10 -60h-6z" />
    <glyph glyph-name="eogonek" unicode="&#x119;" horiz-adv-x="500" 
d="M291 -26q-42 -29 -66.5 -57.5t-24.5 -52.5q0 -18 10 -27t39 -9q11 0 24 2t28 10l-10 -41q-29 -7 -45.5 -8t-39.5 -1q-27 0 -48.5 14t-21.5 45q0 22 11 42.5t28 38.5t37.5 33t38.5 25h-2q-45 0 -83 13t-66.5 39.5t-44.5 65.5t-16 90q0 64 18 123t52.5 104t83.5 72t110 27
q91 0 135.5 -51t44.5 -139q0 -23 -2.5 -47t-4.5 -48h-371q-3 -19 -3 -41q0 -74 43.5 -114t111.5 -40q48 0 83.5 10.5t65.5 23.5l-5 -61q-11 -4 -23.5 -8.5t-29.5 -8.5q-18 -4 -32 -10t-25 -14zM417 291q1 11 2 20.5t1 18.5q0 63 -27.5 100.5t-89.5 37.5q-37 0 -68.5 -14.5
t-55.5 -39t-40.5 -56.5t-22.5 -67h301z" />
    <glyph glyph-name="Ecaron" unicode="&#x11a;" horiz-adv-x="500" 
d="M181 698h344l-11 -60h-277l-51 -249h261l-11 -60h-262l-56 -269h287l-10 -60h-358zM406 738h-82l-77 108h47l74 -74l106 74h47z" />
    <glyph glyph-name="ecaron" unicode="&#x11b;" horiz-adv-x="500" 
d="M105 237q-3 -19 -3 -41q0 -74 43.5 -114t111.5 -40q48 0 83.5 10.5t65.5 23.5l-5 -61q-22 -8 -56 -17.5t-96 -9.5q-45 0 -83 13t-66.5 39.5t-44.5 65.5t-16 90q0 64 18 123t52.5 104t83.5 72t110 27q91 0 135.5 -51t44.5 -139q0 -23 -2.5 -47t-4.5 -48h-371zM417 291
q1 11 2 20.5t1 18.5q0 63 -27.5 100.5t-89.5 37.5q-37 0 -68.5 -14.5t-55.5 -39t-40.5 -56.5t-22.5 -67h301zM357 578h-76l-69 144h44l65 -102l115 102h44z" />
    <glyph glyph-name="Gbreve" unicode="&#x11e;" horiz-adv-x="722" 
d="M682 610q-43 22 -91 31t-96 9q-75 0 -139 -25t-110 -70.5t-72 -109t-26 -140.5q0 -54 18 -101t51 -81.5t78 -54.5t99 -20q55 0 87 10.5t49 18.5l49 241h-167l14 60h237l-73 -355q-10 -3 -25 -8.5t-38 -11.5t-54.5 -10.5t-73.5 -4.5q-73 0 -132 23t-101 66t-64.5 103
t-22.5 133q0 88 32 161t87 125.5t129.5 81.5t159.5 29q53 0 106 -7.5t108 -27.5zM431 844q0 -21 21.5 -35t51.5 -14q42 0 78 12t63 37h35q-13 -18 -30.5 -36.5t-39 -33t-46 -24t-53.5 -9.5q-60 0 -85 29t-25 74h30z" />
    <glyph glyph-name="gbreve" unicode="&#x11f;" 
d="M10 -118q38 -25 76 -34.5t80 -9.5q55 0 91 13t60 38.5t38.5 62.5t25.5 85l8 37h-2q-67 -74 -171 -74q-45 0 -79.5 17t-57 45.5t-34 66.5t-11.5 79q0 60 16.5 117t49.5 100.5t81.5 70t112.5 26.5q30 0 57.5 -6.5t49 -20.5t37 -36t21.5 -53h2q9 52 24 104h63
q-4 -16 -10 -43.5t-14 -60.5l-76 -351q-14 -66 -31 -117t-47 -85t-78 -51.5t-126 -17.5q-45 0 -86 7t-87 27zM103 208q0 -32 8 -60t24.5 -49t42.5 -33t61 -12q48 0 84 23t60 59t36 81t12 89q0 34 -8.5 63.5t-25.5 51.5t-43 34.5t-61 12.5q-46 0 -81.5 -25t-59.5 -63
t-36.5 -84t-12.5 -88zM272 711q0 -32 21.5 -49.5t51.5 -17.5q42 0 78 18t63 49h35q-13 -22 -30.5 -44.5t-39 -41t-46 -30t-53.5 -11.5q-60 0 -85 35.5t-25 91.5h30z" />
    <glyph glyph-name="Gcommaaccent" unicode="&#x122;" horiz-adv-x="722" 
d="M682 610q-43 22 -91 31t-96 9q-75 0 -139 -25t-110 -70.5t-72 -109t-26 -140.5q0 -54 18 -101t51 -81.5t78 -54.5t99 -20q55 0 87 10.5t49 18.5l49 241h-167l14 60h237l-73 -355q-10 -3 -25 -8.5t-38 -11.5t-54.5 -10.5t-73.5 -4.5q-73 0 -132 23t-101 66t-64.5 103
t-22.5 133q0 88 32 161t87 125.5t129.5 81.5t159.5 29q53 0 106 -7.5t108 -27.5zM358 -37h65l-85 -144h-48z" />
    <glyph glyph-name="gcommaaccent" unicode="&#x123;" 
d="M10 -118q38 -25 76 -34.5t80 -9.5q55 0 91 13t60 38.5t38.5 62.5t25.5 85l8 37h-2q-67 -74 -171 -74q-45 0 -79.5 17t-57 45.5t-34 66.5t-11.5 79q0 60 16.5 117t49.5 100.5t81.5 70t112.5 26.5q30 0 57.5 -6.5t49 -20.5t37 -36t21.5 -53h2q9 52 24 104h63
q-4 -16 -10 -43.5t-14 -60.5l-76 -351q-14 -66 -31 -117t-47 -85t-78 -51.5t-126 -17.5q-45 0 -86 7t-87 27zM103 208q0 -32 8 -60t24.5 -49t42.5 -33t61 -12q48 0 84 23t60 59t36 81t12 89q0 34 -8.5 63.5t-25.5 51.5t-43 34.5t-61 12.5q-46 0 -81.5 -25t-59.5 -63
t-36.5 -84t-12.5 -88zM391 722h48l-68 -144h-65z" />
    <glyph glyph-name="Imacron" unicode="&#x12a;" horiz-adv-x="222" 
d="M176 698h69l-148 -698h-69zM325 763h-204l11 54h204z" />
    <glyph glyph-name="imacron" unicode="&#x12b;" horiz-adv-x="222" 
d="M136 510h66l-108 -510h-66zM290 622h-204l11 54h204z" />
    <glyph glyph-name="Iogonek" unicode="&#x12e;" horiz-adv-x="222" 
d="M28 0l148 698h69l-148 -698q-6 0 -21 -9.5t-25 -16.5q-42 -29 -66.5 -57.5t-24.5 -52.5q0 -18 10 -27t39 -9q11 0 24 2t28 10l-10 -41q-29 -7 -45.5 -8t-39.5 -1q-27 0 -48.5 14t-21.5 45q0 25 15 49t37 44.5t45.5 35t41.5 22.5h-7z" />
    <glyph glyph-name="iogonek" unicode="&#x12f;" horiz-adv-x="222" 
d="M235 646h-75l18 84h75zM94 0q-5 0 -19.5 -9.5t-24.5 -16.5q-42 -29 -66.5 -57.5t-24.5 -52.5q0 -18 10 -27t39 -9q11 0 24 2t28 10l-10 -41q-29 -7 -45.5 -8t-39.5 -1q-27 0 -48.5 14t-21.5 45q0 25 15 49t37 44.5t45.5 35t41.5 22.5h-6l108 510h66z" />
    <glyph glyph-name="Idotaccent" unicode="&#x130;" horiz-adv-x="222" 
d="M176 698h69l-148 -698h-69zM199 833h77l-16 -84h-77z" />
    <glyph glyph-name="dotlessi" unicode="&#x131;" horiz-adv-x="222" 
d="M136 510h66l-108 -510h-66z" />
    <glyph glyph-name="Kcommaaccent" unicode="&#x136;" horiz-adv-x="611" 
d="M196 698h68l-65 -304h2l368 304h100l-411 -331l296 -367h-86l-279 349l-72 -349h-70zM250 -37h65l-85 -144h-48z" />
    <glyph glyph-name="kcommaaccent" unicode="&#x137;" horiz-adv-x="500" 
d="M192 750h62l-96 -446h2l265 206h94l-307 -226l227 -284h-82l-207 262l-56 -262h-66zM187 -37h65l-85 -144h-48z" />
    <glyph glyph-name="Lacute" unicode="&#x139;" horiz-adv-x="444" 
d="M177 698h71l-137 -638h285l-11 -60h-357zM328 845h85l-117 -108h-53z" />
    <glyph glyph-name="lacute" unicode="&#x13a;" horiz-adv-x="222" 
d="M188 750h66l-160 -750h-66zM255 845h85l-102 -83h-48z" />
    <glyph glyph-name="Lcommaaccent" unicode="&#x13b;" horiz-adv-x="444" 
d="M177 698h71l-137 -638h285l-11 -60h-357zM195 -37h65l-85 -144h-48z" />
    <glyph glyph-name="lcommaaccent" unicode="&#x13c;" horiz-adv-x="222" 
d="M188 750h66l-160 -750h-66zM48 -37h65l-85 -144h-48z" />
    <glyph glyph-name="Lcaron" unicode="&#x13d;" horiz-adv-x="444" 
d="M177 698h71l-137 -638h285l-11 -60h-357zM348 750h65l-92 -172h-47z" />
    <glyph glyph-name="lcaron" unicode="&#x13e;" horiz-adv-x="262" 
d="M188 750h66l-160 -750h-66zM345 750h65l-92 -172h-47z" />
    <glyph glyph-name="Lslash" unicode="&#x141;" horiz-adv-x="444" 
d="M79 237l-70 -43l17 72l68 42l83 390h71l-73 -340l187 115l-17 -72l-185 -114l-49 -227h285l-11 -60h-357z" />
    <glyph glyph-name="lslash" unicode="&#x142;" horiz-adv-x="222" 
d="M115 408l-72 -44l14 67l72 43l59 276h66l-48 -226l72 47l-14 -66l-72 -47l-98 -458h-66z" />
    <glyph glyph-name="Nacute" unicode="&#x143;" horiz-adv-x="667" 
d="M179 698h82l233 -614h2l130 614h63l-148 -698h-82l-233 614h-2l-132 -614h-64zM481 845h85l-117 -108h-53z" />
    <glyph glyph-name="nacute" unicode="&#x144;" 
d="M116 429q5 26 7.5 44t4.5 37h63q-2 -24 -4.5 -43.5t-6.5 -33.5h2q26 41 70 65t92 24q69 0 114.5 -38t45.5 -110q0 -26 -5 -53.5t-10 -51.5l-57 -269h-66l58 281q5 25 8 44t3 45q0 45 -25 71.5t-73 26.5q-41 0 -73 -19t-55.5 -50.5t-39.5 -72t-25 -84.5l-50 -242h-66z
M397 722h79l-117 -144h-47z" />
    <glyph glyph-name="Ncommaaccent" unicode="&#x145;" horiz-adv-x="667" 
d="M179 698h82l233 -614h2l130 614h63l-148 -698h-82l-233 614h-2l-132 -614h-64zM262 -37h65l-85 -144h-48z" />
    <glyph glyph-name="ncommaaccent" unicode="&#x146;" 
d="M116 429q5 26 7.5 44t4.5 37h63q-2 -24 -4.5 -43.5t-6.5 -33.5h2q26 41 70 65t92 24q69 0 114.5 -38t45.5 -110q0 -26 -5 -53.5t-10 -51.5l-57 -269h-66l58 281q5 25 8 44t3 45q0 45 -25 71.5t-73 26.5q-41 0 -73 -19t-55.5 -50.5t-39.5 -72t-25 -84.5l-50 -242h-66z
M211 -37h65l-85 -144h-48z" />
    <glyph glyph-name="Ncaron" unicode="&#x147;" horiz-adv-x="667" 
d="M179 698h82l233 -614h2l130 614h63l-148 -698h-82l-233 614h-2l-132 -614h-64zM481 738h-82l-77 108h47l74 -74l106 74h47z" />
    <glyph glyph-name="ncaron" unicode="&#x148;" 
d="M116 429q5 26 7.5 44t4.5 37h63q-2 -24 -4.5 -43.5t-6.5 -33.5h2q26 41 70 65t92 24q69 0 114.5 -38t45.5 -110q0 -26 -5 -53.5t-10 -51.5l-57 -269h-66l58 281q5 25 8 44t3 45q0 45 -25 71.5t-73 26.5q-41 0 -73 -19t-55.5 -50.5t-39.5 -72t-25 -84.5l-50 -242h-66z
M380 578h-76l-69 144h44l65 -102l115 102h44z" />
    <glyph glyph-name="Omacron" unicode="&#x14c;" horiz-adv-x="722" 
d="M67 273q0 83 25.5 161.5t73 140t116.5 98.5t156 37q65 0 114 -20.5t82.5 -58t50.5 -90t17 -116.5q0 -83 -25.5 -161.5t-73 -140t-116.5 -98.5t-156 -37q-64 0 -113.5 20.5t-83 58t-50.5 90t-17 116.5zM136 279q0 -49 12 -91t36.5 -73t61.5 -49t87 -18q70 0 125.5 34
t94.5 87t59.5 119.5t20.5 130.5q0 49 -12 91t-36.5 73t-61.5 49t-87 18q-70 0 -125.5 -34t-94.5 -87t-59.5 -119t-20.5 -131zM598 763h-257l11 54h257z" />
    <glyph glyph-name="omacron" unicode="&#x14d;" 
d="M39 210q0 64 20 121t57 99.5t89.5 67t117.5 24.5q98 0 150.5 -60t52.5 -159q0 -64 -19.5 -121t-56 -100t-89 -68.5t-118.5 -25.5q-47 0 -85 17t-64.5 46.5t-40.5 70t-14 88.5zM108 200q0 -33 10 -62t28.5 -50t45 -33.5t59.5 -12.5q50 0 88 24t64.5 61.5t40 83.5t13.5 91
q0 36 -8.5 66.5t-25.5 52.5t-44 34.5t-64 12.5q-53 0 -92 -23.5t-64.5 -61.5t-38 -86t-12.5 -97zM475 622h-257l11 54h257z" />
    <glyph glyph-name="Ohungarumlaut" unicode="&#x150;" horiz-adv-x="722" 
d="M67 273q0 83 25.5 161.5t73 140t116.5 98.5t156 37q65 0 114 -20.5t82.5 -58t50.5 -90t17 -116.5q0 -83 -25.5 -161.5t-73 -140t-116.5 -98.5t-156 -37q-64 0 -113.5 20.5t-83 58t-50.5 90t-17 116.5zM136 279q0 -49 12 -91t36.5 -73t61.5 -49t87 -18q70 0 125.5 34
t94.5 87t59.5 119.5t20.5 130.5q0 49 -12 91t-36.5 73t-61.5 49t-87 18q-70 0 -125.5 -34t-94.5 -87t-59.5 -119t-20.5 -131zM585 845h83l-117 -108h-51zM418 845h83l-117 -108h-51z" />
    <glyph glyph-name="ohungarumlaut" unicode="&#x151;" 
d="M39 210q0 64 20 121t57 99.5t89.5 67t117.5 24.5q98 0 150.5 -60t52.5 -159q0 -64 -19.5 -121t-56 -100t-89 -68.5t-118.5 -25.5q-47 0 -85 17t-64.5 46.5t-40.5 70t-14 88.5zM108 200q0 -33 10 -62t28.5 -50t45 -33.5t59.5 -12.5q50 0 88 24t64.5 61.5t40 83.5t13.5 91
q0 36 -8.5 66.5t-25.5 52.5t-44 34.5t-64 12.5q-53 0 -92 -23.5t-64.5 -61.5t-38 -86t-12.5 -97zM312 722h79l-117 -144h-47zM464 722h79l-117 -144h-47z" />
    <glyph glyph-name="OE" unicode="&#x152;" horiz-adv-x="889" 
d="M556 633q-23 4 -45 8t-45 4q-75 0 -135.5 -25t-104 -70t-67 -107t-23.5 -136q0 -50 13.5 -96t40 -81t67 -56t94.5 -21q20 0 40.5 2t40.5 8zM902 638h-278l-52 -249h262l-14 -60h-260l-59 -269h287l-12 -60h-327q-22 0 -43 -3.5t-43 -3.5q-71 0 -126 22t-93 62t-57.5 96.5
t-19.5 125.5q0 87 28 161.5t79.5 129t124 85t161.5 30.5q25 0 49 -3.5t49 -3.5h356z" />
    <glyph glyph-name="oe" unicode="&#x153;" horiz-adv-x="833" 
d="M479 237q-2 -8 -2.5 -18t-0.5 -20q0 -69 32.5 -113t102.5 -44q33 0 65 8t61 22l-6 -61q-30 -9 -60.5 -16t-62.5 -7q-69 0 -116 28.5t-68 95.5h-2q-25 -53 -72.5 -88.5t-113.5 -35.5q-48 0 -85.5 17.5t-63 47.5t-39 70.5t-13.5 86.5q0 58 17 114t50 100t82.5 71t113.5 27
q63 0 108 -32.5t62 -90.5h2q25 56 72.5 89.5t112.5 33.5q85 0 122 -48.5t37 -128.5q0 -35 -2.5 -59t-4.5 -49h-328zM748 291q3 29 3 53q0 25 -4 47.5t-15 39.5t-29.5 27t-47.5 10q-34 0 -62 -15t-48.5 -39.5t-34.5 -56.5t-21 -66h259zM104 207q0 -31 8 -60.5t24.5 -52.5
t41 -37.5t58.5 -14.5q48 0 82.5 27t57 66.5t33 84.5t10.5 82q0 33 -7.5 63.5t-22 53t-36.5 36t-51 13.5q-55 0 -92.5 -23.5t-61 -61t-34 -84t-10.5 -92.5z" />
    <glyph glyph-name="Racute" unicode="&#x154;" 
d="M189 698h158q42 1 77 -6.5t60.5 -25.5t40 -48.5t14.5 -75.5q0 -43 -15.5 -76.5t-42 -57.5t-62.5 -37.5t-77 -15.5v-2q22 -4 35 -12.5t20.5 -19.5t11.5 -25l8 -28l66 -268h-68l-61 259q-12 42 -33 56t-63 14h-81l-70 -329h-70zM190 389h73q35 0 71.5 7t66.5 23.5t49.5 44
t19.5 69.5q0 30 -9.5 50t-26.5 32t-40 17.5t-50 5.5h-101zM403 845h85l-117 -108h-53z" />
    <glyph glyph-name="racute" unicode="&#x155;" horiz-adv-x="333" 
d="M114 419q5 22 8.5 44.5t5.5 46.5h63q-2 -24 -4.5 -43.5t-6.5 -33.5h2q24 38 58 63.5t84 25.5q16 0 29 -2.5t26 -4.5l-15 -67q-13 5 -26.5 6.5t-27.5 1.5q-39 0 -66.5 -19t-46.5 -49t-31 -66t-19 -71l-52 -251h-67zM317 722h79l-117 -144h-47z" />
    <glyph glyph-name="Rcommaaccent" unicode="&#x156;" 
d="M189 698h158q42 1 77 -6.5t60.5 -25.5t40 -48.5t14.5 -75.5q0 -43 -15.5 -76.5t-42 -57.5t-62.5 -37.5t-77 -15.5v-2q22 -4 35 -12.5t20.5 -19.5t11.5 -25l8 -28l66 -268h-68l-61 259q-12 42 -33 56t-63 14h-81l-70 -329h-70zM190 389h73q35 0 71.5 7t66.5 23.5t49.5 44
t19.5 69.5q0 30 -9.5 50t-26.5 32t-40 17.5t-50 5.5h-101zM228 -37h65l-85 -144h-48z" />
    <glyph glyph-name="rcommaaccent" unicode="&#x157;" horiz-adv-x="333" 
d="M114 419q5 22 8.5 44.5t5.5 46.5h63q-2 -24 -4.5 -43.5t-6.5 -33.5h2q24 38 58 63.5t84 25.5q16 0 29 -2.5t26 -4.5l-15 -67q-13 5 -26.5 6.5t-27.5 1.5q-39 0 -66.5 -19t-46.5 -49t-31 -66t-19 -71l-52 -251h-67zM87 -37h65l-85 -144h-48z" />
    <glyph glyph-name="Rcaron" unicode="&#x158;" 
d="M189 698h158q42 1 77 -6.5t60.5 -25.5t40 -48.5t14.5 -75.5q0 -43 -15.5 -76.5t-42 -57.5t-62.5 -37.5t-77 -15.5v-2q22 -4 35 -12.5t20.5 -19.5t11.5 -25l8 -28l66 -268h-68l-61 259q-12 42 -33 56t-63 14h-81l-70 -329h-70zM190 389h73q35 0 71.5 7t66.5 23.5t49.5 44
t19.5 69.5q0 30 -9.5 50t-26.5 32t-40 17.5t-50 5.5h-101zM388 738h-82l-77 108h47l74 -74l106 74h47z" />
    <glyph glyph-name="rcaron" unicode="&#x159;" horiz-adv-x="333" 
d="M114 419q5 22 8.5 44.5t5.5 46.5h63q-2 -24 -4.5 -43.5t-6.5 -33.5h2q24 38 58 63.5t84 25.5q16 0 29 -2.5t26 -4.5l-15 -67q-13 5 -26.5 6.5t-27.5 1.5q-39 0 -66.5 -19t-46.5 -49t-31 -66t-19 -71l-52 -251h-67zM303 578h-76l-69 144h44l65 -102l115 102h44z" />
    <glyph glyph-name="Sacute" unicode="&#x15a;" horiz-adv-x="500" 
d="M498 616q-66 34 -141 34q-29 0 -58.5 -7t-53.5 -22.5t-39.5 -40.5t-15.5 -60q0 -30 19 -52.5t47.5 -42.5t62 -40t62 -44.5t47.5 -57t19 -77.5q0 -53 -22.5 -94t-58.5 -68.5t-82 -41.5t-94 -14q-69 0 -111 12.5t-65 25.5l21 66q31 -21 71 -32.5t78 -11.5q35 0 70 8
t62.5 26t44.5 46.5t17 68.5q0 36 -19 62.5t-47.5 48.5t-62 42t-62 43t-47.5 52.5t-19 69.5q0 51 19.5 88t52.5 60.5t75.5 35t88.5 11.5q90 0 162 -31zM410 845h85l-117 -108h-53z" />
    <glyph glyph-name="sacute" unicode="&#x15b;" horiz-adv-x="389" 
d="M5 79q27 -17 58 -27t63 -10q23 0 48.5 5t46.5 16.5t35 31t14 49.5q0 28 -15 47t-37 34.5t-48.5 29.5t-48.5 31t-37 39.5t-15 54.5q0 38 18 65t46 44t61 25t64 8q69 0 131 -25l-21 -59q-25 14 -54.5 22t-58.5 8q-19 0 -40 -3.5t-39 -13.5t-29.5 -26.5t-11.5 -43.5
q0 -22 15 -38t38 -31t49 -29.5t49 -33.5t38 -43t15 -58q0 -43 -18 -73.5t-47.5 -50t-66 -28t-73.5 -8.5q-40 0 -75.5 6.5t-72.5 21.5zM316 722h79l-117 -144h-47z" />
    <glyph glyph-name="Scedilla" unicode="&#x15e;" horiz-adv-x="500" 
d="M187 -47v-2q7 4 14.5 5t17.5 1q28 0 47 -15.5t19 -47.5q0 -23 -10.5 -38t-26.5 -24t-35.5 -13t-37.5 -4q-35 0 -58 8t-44 19l7 31q14 -10 37 -19t51 -9q18 0 36 10t18 36q0 19 -13 27.5t-27 8.5q-8 0 -20.5 -1.5t-20.5 -5.5l32 68q-61 2 -99 14t-60 24l21 66
q31 -21 71 -32.5t78 -11.5q35 0 70 8t62.5 26t44.5 46.5t17 68.5q0 36 -19 62.5t-47.5 48.5t-62 42t-62 43t-47.5 52.5t-19 69.5q0 51 19.5 88t52.5 60.5t75.5 35t88.5 11.5q90 0 162 -31l-21 -63q-66 34 -141 34q-29 0 -58.5 -7t-53.5 -22.5t-39.5 -40.5t-15.5 -60
q0 -30 19 -52.5t47.5 -42.5t62 -40t62 -44.5t47.5 -57t19 -77.5q0 -51 -20.5 -90.5t-54.5 -67t-77.5 -43t-89.5 -17.5z" />
    <glyph glyph-name="scedilla" unicode="&#x15f;" horiz-adv-x="389" 
d="M137 -47v-2q7 4 14.5 5t17.5 1q28 0 47 -15.5t19 -47.5q0 -23 -10.5 -38t-26.5 -24t-35.5 -13t-37.5 -4q-35 0 -58 8t-44 19l7 31q14 -10 37 -19t51 -9q18 0 36 10t18 36q0 19 -13 27.5t-27 8.5q-8 0 -20.5 -1.5t-20.5 -5.5l32 68q-37 1 -69.5 7.5t-67.5 20.5l19 63
q27 -17 58 -27t63 -10q23 0 48.5 5t46.5 16.5t35 31t14 49.5q0 28 -15 47t-37 34.5t-48.5 29.5t-48.5 31t-37 39.5t-15 54.5q0 38 18 65t46 44t61 25t64 8q69 0 131 -25l-21 -59q-25 14 -54.5 22t-58.5 8q-19 0 -40 -3.5t-39 -13.5t-29.5 -26.5t-11.5 -43.5q0 -22 15 -38
t38 -31t49 -29.5t49 -33.5t38 -43t15 -58q0 -40 -15.5 -69t-41.5 -48.5t-59 -29.5t-68 -12z" />
    <glyph glyph-name="Scaron" unicode="&#x160;" horiz-adv-x="500" 
d="M498 616q-66 34 -141 34q-29 0 -58.5 -7t-53.5 -22.5t-39.5 -40.5t-15.5 -60q0 -30 19 -52.5t47.5 -42.5t62 -40t62 -44.5t47.5 -57t19 -77.5q0 -53 -22.5 -94t-58.5 -68.5t-82 -41.5t-94 -14q-69 0 -111 12.5t-65 25.5l21 66q31 -21 71 -32.5t78 -11.5q35 0 70 8
t62.5 26t44.5 46.5t17 68.5q0 36 -19 62.5t-47.5 48.5t-62 42t-62 43t-47.5 52.5t-19 69.5q0 51 19.5 88t52.5 60.5t75.5 35t88.5 11.5q90 0 162 -31zM407 738h-82l-77 108h47l74 -74l106 74h47z" />
    <glyph glyph-name="scaron" unicode="&#x161;" horiz-adv-x="389" 
d="M5 79q27 -17 58 -27t63 -10q23 0 48.5 5t46.5 16.5t35 31t14 49.5q0 28 -15 47t-37 34.5t-48.5 29.5t-48.5 31t-37 39.5t-15 54.5q0 38 18 65t46 44t61 25t64 8q69 0 131 -25l-21 -59q-25 14 -54.5 22t-58.5 8q-19 0 -40 -3.5t-39 -13.5t-29.5 -26.5t-11.5 -43.5
q0 -22 15 -38t38 -31t49 -29.5t49 -33.5t38 -43t15 -58q0 -43 -18 -73.5t-47.5 -50t-66 -28t-73.5 -8.5q-40 0 -75.5 6.5t-72.5 21.5zM304 578h-76l-69 144h44l65 -102l115 102h44z" />
    <glyph glyph-name="Tcommaaccent" unicode="&#x162;" horiz-adv-x="500" 
d="M101 698h493l-12 -60h-212l-134 -638h-72l136 638h-212zM184 -37h65l-85 -144h-48z" />
    <glyph glyph-name="tcommaaccent" unicode="&#x163;" horiz-adv-x="333" 
d="M199 624l72 25l-31 -139h133l-13 -54h-131l-54 -252q-5 -26 -10 -50.5t-5 -49.5q0 -62 58 -62q29 0 54 14l-6 -54q-14 -7 -29 -10.5t-35 -3.5q-54 0 -82.5 26.5t-28.5 68.5q0 17 3 38.5t6.5 43t7.5 39.5t6 26l49 226h-102l14 54h100zM132 -37h65l-85 -144h-48z" />
    <glyph glyph-name="Tcaron" unicode="&#x164;" horiz-adv-x="500" 
d="M101 698h493l-12 -60h-212l-134 -638h-72l136 638h-212zM394 738h-82l-77 108h47l74 -74l106 74h47z" />
    <glyph glyph-name="tcaron" unicode="&#x165;" horiz-adv-x="333" 
d="M199 624l72 25l-31 -139h133l-13 -54h-131l-54 -252q-5 -26 -10 -50.5t-5 -49.5q0 -62 58 -62q29 0 54 14l-6 -54q-14 -7 -29 -10.5t-35 -3.5q-54 0 -82.5 26.5t-28.5 68.5q0 17 3 38.5t6.5 43t7.5 39.5t6 26l49 226h-102l14 54h100zM390 750h65l-92 -172h-47z" />
    <glyph glyph-name="Umacron" unicode="&#x16a;" horiz-adv-x="667" 
d="M594 266q-10 -61 -32.5 -112t-57.5 -88t-83 -57.5t-109 -20.5q-50 0 -92 14.5t-73 42t-48 68.5t-17 95q0 24 4 55t10 64t13 64.5t13 55.5l55 251h66l-71 -340q-3 -15 -6.5 -34t-7 -39t-5.5 -39t-2 -35q0 -77 42.5 -120t117.5 -43q45 0 80 15t61 41.5t43.5 62t26.5 76.5
l101 455h64zM573 763h-257l11 54h257z" />
    <glyph glyph-name="umacron" unicode="&#x16b;" 
d="M445 81q-5 -26 -7.5 -44t-4.5 -37h-63q2 24 4.5 43.5t6.5 33.5h-2q-26 -41 -70 -65t-92 -24q-69 0 -114.5 38t-45.5 110q0 26 5 53.5t10 51.5l57 269h66l-58 -281q-5 -25 -8 -44t-3 -45q0 -45 25 -71.5t73 -26.5q41 0 73 19t55.5 50.5t39.5 72t25 84.5l50 242h66z
M480 622h-257l11 54h257z" />
    <glyph glyph-name="Uring" unicode="&#x16e;" horiz-adv-x="667" 
d="M594 266q-10 -61 -32.5 -112t-57.5 -88t-83 -57.5t-109 -20.5q-50 0 -92 14.5t-73 42t-48 68.5t-17 95q0 24 4 55t10 64t13 64.5t13 55.5l55 251h66l-71 -340q-3 -15 -6.5 -34t-7 -39t-5.5 -39t-2 -35q0 -77 42.5 -120t117.5 -43q45 0 80 15t61 41.5t43.5 62t26.5 76.5
l101 455h64zM351 779q0 34 23.5 57.5t58.5 23.5t58.5 -23.5t23.5 -57.5q0 -35 -23.5 -58t-58.5 -23t-58.5 23t-23.5 58zM382 779q0 -22 15.5 -36t35.5 -14q22 0 36.5 14t14.5 36q0 21 -14.5 35.5t-36.5 14.5q-20 0 -35.5 -14.5t-15.5 -35.5z" />
    <glyph glyph-name="uring" unicode="&#x16f;" 
d="M445 81q-5 -26 -7.5 -44t-4.5 -37h-63q2 24 4.5 43.5t6.5 33.5h-2q-26 -41 -70 -65t-92 -24q-69 0 -114.5 38t-45.5 110q0 26 5 53.5t10 51.5l57 269h66l-58 -281q-5 -25 -8 -44t-3 -45q0 -45 25 -71.5t73 -26.5q41 0 73 19t55.5 50.5t39.5 72t25 84.5l50 242h66z
M250 647q0 20 8 38t22 31.5t32 21.5t38 8t38 -8t31.5 -21.5t21.5 -31.5t8 -38t-7.5 -38.5t-21 -32t-31.5 -21.5t-39 -8q-20 0 -38.5 8t-32 21.5t-21.5 32t-8 38.5zM286 647q0 -26 17.5 -45t46.5 -19t46 19t17 45t-17 44.5t-46 18.5t-46.5 -18t-17.5 -45z" />
    <glyph glyph-name="Uhungarumlaut" unicode="&#x170;" horiz-adv-x="667" 
d="M594 266q-10 -61 -32.5 -112t-57.5 -88t-83 -57.5t-109 -20.5q-50 0 -92 14.5t-73 42t-48 68.5t-17 95q0 24 4 55t10 64t13 64.5t13 55.5l55 251h66l-71 -340q-3 -15 -6.5 -34t-7 -39t-5.5 -39t-2 -35q0 -77 42.5 -120t117.5 -43q45 0 80 15t61 41.5t43.5 62t26.5 76.5
l101 455h64zM571 845h83l-117 -108h-51zM404 845h83l-117 -108h-51z" />
    <glyph glyph-name="uhungarumlaut" unicode="&#x171;" 
d="M445 81q-5 -26 -7.5 -44t-4.5 -37h-63q2 24 4.5 43.5t6.5 33.5h-2q-26 -41 -70 -65t-92 -24q-69 0 -114.5 38t-45.5 110q0 26 5 53.5t10 51.5l57 269h66l-58 -281q-5 -25 -8 -44t-3 -45q0 -45 25 -71.5t73 -26.5q41 0 73 19t55.5 50.5t39.5 72t25 84.5l50 242h66z
M319 722h79l-117 -144h-47zM471 722h79l-117 -144h-47z" />
    <glyph glyph-name="Uogonek" unicode="&#x172;" horiz-adv-x="667" 
d="M327 -26q-42 -29 -66.5 -57.5t-24.5 -52.5q0 -18 10 -27t39 -9q11 0 24 2t28 10l-10 -41q-29 -7 -45.5 -8t-39.5 -1q-27 0 -48.5 14t-21.5 45q0 22 11.5 42.5t28.5 39t38 33.5t39 25q-45 3 -83 18.5t-65.5 43.5t-43 67t-15.5 90q0 24 4 55t10 64t13 64.5t13 55.5l55 251
h66l-71 -340q-3 -15 -6.5 -34t-7 -39t-5.5 -39t-2 -35q0 -77 42.5 -120t117.5 -43q45 0 80 15t61 41.5t43.5 62t26.5 76.5l101 455h64l-93 -432q-16 -96 -62.5 -166t-125.5 -97q-25 -8 -44.5 -13t-34.5 -16z" />
    <glyph glyph-name="uogonek" unicode="&#x173;" 
d="M433 0q-58 -34 -95 -70.5t-37 -65.5q0 -18 10 -27t39 -9q11 0 24 2t28 10l-10 -41q-29 -7 -45.5 -8t-39.5 -1q-27 0 -48.5 14t-21.5 45q0 25 15 49t37 44.5t45.5 35t41.5 22.5h-6q2 24 4.5 43.5t6.5 33.5h-2q-26 -41 -70 -65t-92 -24q-69 0 -114.5 38t-45.5 110
q0 26 5 53.5t10 51.5l57 269h66l-58 -281q-5 -25 -8 -44t-3 -45q0 -45 25 -71.5t73 -26.5q41 0 73 19t55.5 50.5t39.5 72t25 84.5l50 242h66l-88 -429q-5 -26 -7.5 -44t-4.5 -37z" />
    <glyph glyph-name="Ydieresis" unicode="&#x178;" horiz-adv-x="611" 
d="M283 295l-177 403h73l147 -346l294 346h83l-353 -403l-63 -295h-67zM305 833h77l-16 -84h-77zM480 833h77l-16 -84h-77z" />
    <glyph glyph-name="Zacute" unicode="&#x179;" horiz-adv-x="500" 
d="M-19 61l489 577h-355l13 60h437l-13 -61l-488 -577h378l-13 -60h-460zM398 845h85l-117 -108h-53z" />
    <glyph glyph-name="zacute" unicode="&#x17a;" horiz-adv-x="444" 
d="M-8 58l380 398h-289l12 54h373l-12 -59l-385 -397h306l-10 -54h-387zM343 722h79l-117 -144h-47z" />
    <glyph glyph-name="Zdotaccent" unicode="&#x17b;" horiz-adv-x="500" 
d="M-19 61l489 577h-355l13 60h437l-13 -61l-488 -577h378l-13 -60h-460zM326 833h77l-16 -84h-77z" />
    <glyph glyph-name="zdotaccent" unicode="&#x17c;" horiz-adv-x="444" 
d="M-8 58l380 398h-289l12 54h373l-12 -59l-385 -397h306l-10 -54h-387zM273 690h77l-16 -84h-77z" />
    <glyph glyph-name="Zcaron" unicode="&#x17d;" horiz-adv-x="500" 
d="M-19 61l489 577h-355l13 60h437l-13 -61l-488 -577h378l-13 -60h-460zM395 738h-82l-77 108h47l74 -74l106 74h47z" />
    <glyph glyph-name="zcaron" unicode="&#x17e;" horiz-adv-x="444" 
d="M-8 58l380 398h-289l12 54h373l-12 -59l-385 -397h306l-10 -54h-387zM331 578h-76l-69 144h44l65 -102l115 102h44z" />
    <glyph glyph-name="florin" unicode="&#x192;" 
d="M441 365h-112l-44 -267q-9 -53 -20 -109t-31.5 -101.5t-53.5 -74.5t-85 -29q-32 0 -45.5 3t-23.5 7l18 58q9 -6 20 -10t24 -4q33 1 55 24t37 62.5t25 92t20 111.5l39 237h-112l12 54h110l13 66q10 50 24 90.5t35 69t50 44.5t68 16q20 0 37.5 -4.5t31.5 -11.5l-14 -53
q-22 15 -55 15q-28 0 -48 -19t-34 -46t-22 -57t-12 -52l-10 -58h115z" />
    <glyph glyph-name="Scommaaccent" unicode="&#x218;" horiz-adv-x="500" 
d="M498 616q-66 34 -141 34q-29 0 -58.5 -7t-53.5 -22.5t-39.5 -40.5t-15.5 -60q0 -30 19 -52.5t47.5 -42.5t62 -40t62 -44.5t47.5 -57t19 -77.5q0 -53 -22.5 -94t-58.5 -68.5t-82 -41.5t-94 -14q-69 0 -111 12.5t-65 25.5l21 66q31 -21 71 -32.5t78 -11.5q35 0 70 8
t62.5 26t44.5 46.5t17 68.5q0 36 -19 62.5t-47.5 48.5t-62 42t-62 43t-47.5 52.5t-19 69.5q0 51 19.5 88t52.5 60.5t75.5 35t88.5 11.5q90 0 162 -31zM173 -37h65l-85 -144h-48z" />
    <glyph glyph-name="scommaaccent" unicode="&#x219;" horiz-adv-x="389" 
d="M5 79q27 -17 58 -27t63 -10q23 0 48.5 5t46.5 16.5t35 31t14 49.5q0 28 -15 47t-37 34.5t-48.5 29.5t-48.5 31t-37 39.5t-15 54.5q0 38 18 65t46 44t61 25t64 8q69 0 131 -25l-21 -59q-25 14 -54.5 22t-58.5 8q-19 0 -40 -3.5t-39 -13.5t-29.5 -26.5t-11.5 -43.5
q0 -22 15 -38t38 -31t49 -29.5t49 -33.5t38 -43t15 -58q0 -43 -18 -73.5t-47.5 -50t-66 -28t-73.5 -8.5q-40 0 -75.5 6.5t-72.5 21.5zM120 -37h65l-85 -144h-48z" />
    <glyph glyph-name="circumflex" unicode="&#x2c6;" horiz-adv-x="222" 
d="M167 722h76l69 -144h-44l-65 102l-115 -102h-44z" />
    <glyph glyph-name="caron" unicode="&#x2c7;" horiz-adv-x="222" 
d="M208 578h-76l-69 144h44l65 -102l115 102h44z" />
    <glyph glyph-name="breve" unicode="&#x2d8;" horiz-adv-x="222" 
d="M101 711q0 -32 21.5 -49.5t51.5 -17.5q42 0 78 18t63 49h35q-13 -22 -30.5 -44.5t-39 -41t-46 -30t-53.5 -11.5q-60 0 -85 35.5t-25 91.5h30z" />
    <glyph glyph-name="dotaccent" unicode="&#x2d9;" horiz-adv-x="222" 
d="M153 690h77l-16 -84h-77z" />
    <glyph glyph-name="ring" unicode="&#x2da;" horiz-adv-x="222" 
d="M97 647q0 20 8 38t22 31.5t32 21.5t38 8t38 -8t31.5 -21.5t21.5 -31.5t8 -38t-7.5 -38.5t-21 -32t-31.5 -21.5t-39 -8q-20 0 -38.5 8t-32 21.5t-21.5 32t-8 38.5zM133 647q0 -26 17.5 -45t46.5 -19t46 19t17 45t-17 44.5t-46 18.5t-46.5 -18t-17.5 -45z" />
    <glyph glyph-name="ogonek" unicode="&#x2db;" horiz-adv-x="222" 
d="M151 -201q-29 -7 -45.5 -8t-39.5 -1q-27 0 -48.5 14t-21.5 45q0 25 15 49t37 44.5t45.5 35t41.5 22.5h57q-58 -34 -95 -70.5t-37 -65.5q0 -18 10 -27t39 -9q11 0 24 2t28 10z" />
    <glyph glyph-name="tilde" unicode="&#x2dc;" horiz-adv-x="222" 
d="M303 693q0 -17 -6 -33.5t-17 -29t-26 -20.5t-33 -8q-15 0 -29 5l-28 10t-27.5 9.5t-27.5 4.5q-18 0 -27 -11.5t-11 -25.5h-36q0 17 6 33.5t17 29.5t26 20.5t33 7.5q16 0 29.5 -4t27.5 -10t27.5 -10.5t27.5 -4.5q18 0 27 10t11 27h36z" />
    <glyph glyph-name="hungarumlaut" unicode="&#x2dd;" horiz-adv-x="222" 
d="M129 722h79l-117 -144h-47zM281 722h79l-117 -144h-47z" />
    <glyph glyph-name="endash" unicode="&#x2013;" horiz-adv-x="500" 
d="M11 296h500l-11 -54h-500z" />
    <glyph glyph-name="emdash" unicode="&#x2014;" horiz-adv-x="1000" 
d="M11 296h1000l-11 -54h-1000z" />
    <glyph glyph-name="quoteleft" unicode="&#x2018;" horiz-adv-x="278" 
d="M245 698h61l-102 -218h-80z" />
    <glyph glyph-name="quoteright" unicode="&#x2019;" horiz-adv-x="278" 
d="M215 698h80l-121 -218h-61z" />
    <glyph glyph-name="quotesinglbase" unicode="&#x201a;" horiz-adv-x="278" 
d="M83 84h80l-121 -218h-61z" />
    <glyph glyph-name="quotedblleft" unicode="&#x201c;" horiz-adv-x="444" 
d="M239 698h61l-102 -218h-80zM406 698h61l-102 -218h-80z" />
    <glyph glyph-name="quotedblright" unicode="&#x201d;" horiz-adv-x="444" 
d="M387 698h80l-121 -218h-61zM220 698h80l-121 -218h-61z" />
    <glyph glyph-name="quotedblbase" unicode="&#x201e;" horiz-adv-x="444" 
d="M83 84h80l-121 -218h-61zM250 84h80l-121 -218h-61z" />
    <glyph glyph-name="dagger" unicode="&#x2020;" 
d="M128 510h171l39 188h62l-39 -188h174l-12 -54h-173l-95 -456h-62l95 456h-172z" />
    <glyph glyph-name="daggerdbl" unicode="&#x2021;" 
d="M233 188h-174l11 54h173l45 214h-174l11 54h175l40 188h62l-40 -188h176l-11 -54h-175l-45 -214h174l-11 -54h-175l-40 -188h-62z" />
    <glyph glyph-name="bullet" unicode="&#x2022;" horiz-adv-x="500" 
d="M87 349q0 36 13.5 68t37.5 55.5t55.5 37.5t67.5 14t68 -14t55.5 -37.5t37.5 -55.5t14 -68t-14 -67.5t-37.5 -55.5t-55.5 -37.5t-68 -13.5t-67.5 13.5t-55.5 37.5t-37.5 55.5t-13.5 67.5z" />
    <glyph glyph-name="ellipsis" unicode="&#x2026;" horiz-adv-x="1000" 
d="M94 84h82l-17 -84h-82zM427 84h82l-17 -84h-82zM760 84h82l-17 -84h-82z" />
    <glyph glyph-name="perthousand" unicode="&#x2030;" horiz-adv-x="1000" 
d="M204 435q24 0 41.5 14.5t29.5 36.5t17.5 46.5t5.5 45.5q0 32 -16.5 55.5t-48.5 23.5q-27 0 -45.5 -14t-30.5 -36t-17.5 -47.5t-5.5 -48.5q0 -33 19 -54.5t51 -21.5zM806 -7q-59 0 -91.5 37t-32.5 94q0 34 11.5 67.5t32.5 60t50.5 43t66.5 16.5q58 0 93.5 -33.5
t35.5 -92.5q0 -36 -11.5 -70.5t-32.5 -61.5t-52 -43.5t-70 -16.5zM815 41q24 0 41.5 14.5t29.5 36.5t17.5 46.5t5.5 45.5q0 32 -16.5 55.5t-48.5 23.5q-27 0 -45.5 -14t-30.5 -36t-17.5 -47.5t-5.5 -48.5q0 -33 19 -54.5t51 -21.5zM464 -7q-59 0 -91.5 37t-32.5 94
q0 34 11.5 67.5t32.5 60t50.5 43t66.5 16.5q58 0 93.5 -33.5t35.5 -92.5q0 -36 -11.5 -70.5t-32.5 -61.5t-52 -43.5t-70 -16.5zM473 41q24 0 41.5 14.5t29.5 36.5t17.5 46.5t5.5 45.5q0 32 -16.5 55.5t-48.5 23.5q-27 0 -45.5 -14t-30.5 -36t-17.5 -47.5t-5.5 -48.5
q0 -33 19 -54.5t51 -21.5zM195 387q-59 0 -91.5 37t-32.5 94q0 34 11.5 67.5t32.5 60t50.5 43t66.5 16.5q58 0 93.5 -33.5t35.5 -92.5q0 -36 -11.5 -70.5t-32.5 -61.5t-52 -43.5t-70 -16.5zM545 720h56l-445 -742h-56z" />
    <glyph glyph-name="guilsinglleft" unicode="&#x2039;" horiz-adv-x="333" 
d="M34 269l190 205h72l-196 -205l153 -205h-66z" />
    <glyph glyph-name="guilsinglright" unicode="&#x203a;" horiz-adv-x="333" 
d="M299 269l-190 -205h-72l196 205l-153 205h66z" />
    <glyph glyph-name="fraction" unicode="&#x2044;" horiz-adv-x="167" 
d="M302 720h57l-445 -742h-57z" />
    <glyph glyph-name="trademark" unicode="&#x2122;" horiz-adv-x="990" 
d="M225 650h-131v48h325v-48h-131v-366h-63v366zM505 698h102l122 -319l122 319h102v-414h-63v360h-2l-138 -360h-43l-137 360h-2v-360h-63v414z" />
    <glyph glyph-name="partialdiff" unicode="&#x2202;" horiz-adv-x="494" 
d="M65 717q15 6 35.5 13t44.5 11t50 4.5t51 -5.5q46 -11 89 -41t79 -93q17 -30 26.5 -63.5t14.5 -63.5t6 -53.5t1 -32.5q0 -15 -2.5 -46t-8.5 -68t-16 -76.5t-25 -71.5q-20 -43 -41 -74t-63 -54q-52 -29 -104.5 -23.5t-90.5 31.5q-29 20 -54 54t-30 91q-3 30 2 57.5t14 50
t19.5 39.5t19.5 28q26 32 60 52.5t82 18.5q22 -1 39 -4.5t33 -11t34.5 -20t43.5 -32.5q6 32 8 59.5t3 56.5q0 18 -3 41t-8 45t-10.5 41.5t-10.5 31.5q-4 11 -13.5 25.5t-23.5 28t-33 23.5t-42 12q-27 2 -43 1t-29.5 -5t-28 -11t-36.5 -16zM366 299q-8 9 -17 20t-22 21
t-29.5 16.5t-39.5 6.5q-57 -2 -96 -54q-30 -42 -40 -82.5t-10 -78.5q0 -11 1 -27.5t5.5 -34.5t13.5 -35t26 -28q21 -14 41 -14.5t42 9.5q28 12 47 35t34 58q18 45 28 92t16 96z" />
    <glyph glyph-name="Delta" unicode="&#x2206;" horiz-adv-x="612" 
d="M608 0h-602l320 688zM72 49h412l-194 468z" />
    <glyph glyph-name="summation" unicode="&#x2211;" horiz-adv-x="713" 
d="M623 586h-20q-7 24 -14 45t-22 36.5t-42 24t-75 8.5h-263l273 -358l-294 -339h371q29 0 49 5t34.5 18t26.5 35t25 55h23q-9 -38 -15 -63.5t-10.5 -48.5t-8.5 -48.5t-9 -63.5q-20 3 -39 7t-38 4h-503q-15 0 -29 -1.5t-29 -1.5l349 398l-347 454q26 -2 52 -4.5t52 -2.5h497
z" />
    <glyph glyph-name="minus" unicode="&#x2212;" horiz-adv-x="600" 
d="M61 288h507v-69h-507v69z" />
    <glyph glyph-name="radical" unicode="&#x221a;" horiz-adv-x="549" 
d="M10 450l146 72l197 -403l127 798l35 -5l-150 -950l-243 502l-96 -47z" />
    <glyph glyph-name="notequal" unicode="&#x2260;" horiz-adv-x="549" 
d="M451 521l-76 -136h165v-55h-195l-78 -139h273v-55h-303l-90 -161l-49 28l74 133h-157v55h188l77 139h-265v55h296l91 164z" />
    <glyph glyph-name="lessequal" unicode="&#x2264;" horiz-adv-x="549" 
d="M29 55h497v-55h-497v55zM29 409l497 230v-62l-433 -199l433 -199v-62l-497 230v62z" />
    <glyph glyph-name="greaterequal" unicode="&#x2265;" horiz-adv-x="549" 
d="M526 0h-497v55h497v-55zM526 347l-497 -230v62l433 199l-433 199v62l497 -230v-62z" />
    <glyph glyph-name="lozenge" unicode="&#x25ca;" horiz-adv-x="494" 
d="M212 0l-194 377l194 368h60l194 -368l-194 -377h-60zM242 691l-164 -314l164 -323l164 323z" />
    <glyph glyph-name="fi" unicode="&#xfb01;" 
d="M171 456h-110l13 54h109l11 51q7 33 17.5 68.5t29.5 65t48 48.5t74 19q18 0 35.5 -2t34.5 -9l-15 -53q-4 2 -16 6t-35 4q-28 0 -46.5 -13.5t-30.5 -36t-19.5 -51.5t-13.5 -59l-8 -38h127l-13 -54h-126l-98 -456h-66zM470 510h66l-108 -510h-66zM569 646h-76l18 84h76z
" />
    <glyph glyph-name="fl" unicode="&#xfb02;" 
d="M171 456h-110l13 54h109l11 51q7 33 17.5 68.5t29.5 65t48 48.5t74 19q18 0 35.5 -2t34.5 -9l-15 -53q-4 2 -16 6t-35 4q-28 0 -46.5 -13.5t-30.5 -36t-19.5 -51.5t-13.5 -59l-8 -38h127l-13 -54h-126l-98 -456h-66zM522 750h66l-160 -750h-66z" />
    <glyph glyph-name="commaaccent" horiz-adv-x="278" 
d="M126 -37h65l-85 -144h-48z" />
  </font>
</defs>
</svg>
