<?xml version="1.0" standalone="no"?>
<!DOCTYPE svg PUBLIC "-//W3C//DTD SVG 1.1//EN" "http://www.w3.org/Graphics/SVG/1.1/DTD/svg11.dtd" >
<svg>
<metadata>
Created by FontForge 20120731 at Mon Sep 12 10:39:30 2016
 By ,,,
 The digitally encoded machine readable software for producing   the Typefaces licensed to you is copyrighted (c) 1988, 1990 Adobe  Systems. All Rights Reserved. This software is the property of  Adobe Systems Incorporated and its licensors, and may not be  reproduced, used, displayed, modified, disclosed or transferred  without the express written approval of Adobe. 
</metadata>
<defs>
<font id="FrutigerCE-Bold" horiz-adv-x="556" >
  <font-face 
    font-family="B Frutiger CE Bold"
    font-weight="700"
    font-stretch="normal"
    units-per-em="1000"
    panose-1="0 0 0 0 0 0 0 0 0 0"
    ascent="800"
    descent="-200"
    x-height="515"
    cap-height="698"
    bbox="-166 -222 1000 917"
    underline-thickness="50"
    underline-position="-50"
    unicode-range="U+000D-FB02"
  />
<missing-glyph horiz-adv-x="278" 
 />
    <glyph glyph-name=".notdef" horiz-adv-x="278" 
 />
    <glyph glyph-name=".null" horiz-adv-x="0" 
 />
    <glyph glyph-name=".null" horiz-adv-x="0" 
 />
    <glyph glyph-name="nonmarkingreturn" unicode="&#xd;" horiz-adv-x="250" 
 />
    <glyph glyph-name="space" unicode=" " horiz-adv-x="278" 
 />
    <glyph glyph-name="exclam" unicode="!" horiz-adv-x="389" 
d="M118 698h154l-21 -493h-114zM125 140h140v-140h-140v140z" />
    <glyph glyph-name="quotedbl" unicode="&#x22;" horiz-adv-x="481" 
d="M271 698h122v-250h-122v250zM88 698h122v-250h-122v250z" />
    <glyph glyph-name="numbersign" unicode="#" 
d="M494 205h-92l-29 -205h-88l29 205h-102l-30 -205h-88l29 205h-90v80h101l17 128h-88v80h100l28 205h89l-28 -205h102l28 205h88l-28 -205h81v-80h-93l-17 -128h81v-80zM240 413l-17 -128h102l17 128h-102z" />
    <glyph glyph-name="dollar" unicode="$" 
d="M259 590q-23 -11 -39 -31.5t-16 -55.5q0 -24 15 -40t40 -29v156zM306 112q25 11 41.5 29.5t16.5 46.5t-16 46t-42 31v-153zM306 782v-72q89 0 163 -25l-13 -115q-33 14 -69 22t-73 8q-5 0 -8 -1v-185q33 -13 69 -28t66 -38.5t49.5 -59t19.5 -89.5q0 -49 -15.5 -85.5
t-43 -62t-65 -40t-80.5 -19.5v-82h-47v79q-4 -1 -11 -1q-28 0 -50 2t-42 5.5t-40.5 8.5t-46.5 11l13 126q36 -20 76 -31.5t82 -11.5h9.5t9.5 2v187q-34 13 -69.5 28t-64.5 38t-48 57.5t-19 86.5q0 51 16.5 89t44 63.5t64 39.5t76.5 19v74h47z" />
    <glyph glyph-name="percent" unicode="%" horiz-adv-x="1000" 
d="M729 68q20 0 32 10t19 25.5t9 34t2 34.5t-2 34.5t-9 34t-19 25.5t-32 10t-32.5 -10t-19.5 -25.5t-9.5 -34t-2.5 -34.5t2.5 -34.5t9.5 -34t19.5 -25.5t32.5 -10zM677 720h82l-432 -742h-82zM274 342q-81 0 -124.5 48t-43.5 136t43.5 136t124.5 48t123.5 -48t42.5 -136
t-42.5 -136t-123.5 -48zM274 422q20 0 32 10t19 25.5t9 34t2 34.5t-2 34.5t-9 34t-19 25.5t-32 10t-32.5 -10t-19.5 -25.5t-9.5 -34t-2.5 -34.5t2.5 -34.5t9.5 -34t19.5 -25.5t32.5 -10zM729 -12q-81 0 -124.5 48t-43.5 136t43.5 136t124.5 48t123.5 -48t42.5 -136
t-42.5 -136t-123.5 -48z" />
    <glyph glyph-name="ampersand" unicode="&#x26;" horiz-adv-x="722" 
d="M279 307q-35 -18 -60 -44t-25 -68q0 -23 9.5 -42t25.5 -32.5t37.5 -21t45.5 -7.5q35 0 67 9.5t55 32.5zM310 439q13 7 29 17.5t29.5 24t23 29t9.5 30.5q0 37 -23.5 54.5t-53.5 17.5t-55 -18t-25 -56q0 -15 6.5 -28.5t16.5 -25.5t21.5 -23.5zM516 227q26 29 34 70t10 82
h122q-3 -67 -25 -127.5t-64 -111.5l125 -140h-172l-47 62q-37 -38 -87.5 -56t-102.5 -18t-97 13.5t-79 39t-53.5 63.5t-19.5 87q0 63 32 110t115 82q-20 19 -38 36.5t-31 36.5t-20.5 42t-7.5 53q0 40 19.5 69.5t50 49.5t68 30t74.5 10t73 -9t64.5 -28t46 -49t17.5 -72
q0 -36 -10.5 -63t-28.5 -49t-42.5 -39t-53.5 -34z" />
    <glyph glyph-name="quotesingle" unicode="'" horiz-adv-x="278" 
d="M78 698h122v-250h-122v250z" />
    <glyph glyph-name="parenleft" unicode="(" horiz-adv-x="333" 
d="M326 756q-32 -51 -59 -101.5t-46 -104.5t-29.5 -113.5t-10.5 -128.5q0 -128 40.5 -237t104.5 -211h-127q-75 102 -117.5 211t-42.5 237q0 69 11 128.5t31.5 113.5t50.5 104.5t67 101.5h127z" />
    <glyph glyph-name="parenright" unicode=")" horiz-adv-x="333" 
d="M7 -140q64 102 104.5 211t40.5 237q0 69 -10.5 128.5t-30 113.5t-46 104.5t-58.5 101.5h126q37 -51 67 -101.5t51 -104.5t32 -113.5t11 -128.5q0 -128 -43.5 -237t-117.5 -211h-126z" />
    <glyph glyph-name="asterisk" unicode="*" 
d="M345 475l96 -107l-92 -66l-71 124l-76 -124l-91 66l98 107l-137 31l33 104l133 -57l-16 145h114l-17 -144l133 56l32 -104z" />
    <glyph glyph-name="plus" unicode="+" horiz-adv-x="600" 
d="M248 506h104v-201h202v-104h-202v-201h-104v201h-202v104h202v201z" />
    <glyph glyph-name="comma" unicode="," horiz-adv-x="278" 
d="M87 140h145l-91 -250h-118z" />
    <glyph glyph-name="hyphen" unicode="-" horiz-adv-x="333" 
d="M35 214v110h263v-110h-263z" />
    <glyph glyph-name="period" unicode="." horiz-adv-x="278" 
d="M69 140h140v-140h-140v140z" />
    <glyph glyph-name="slash" unicode="/" horiz-adv-x="389" 
d="M265 710h104l-244 -722h-104z" />
    <glyph glyph-name="zero" unicode="0" 
d="M277 92q39 0 60.5 27.5t31 67t11 83.5t1.5 77q0 34 -1.5 78.5t-11.5 84.5t-31 68t-60 28q-38 0 -59 -28t-30.5 -68t-11 -84.5t-1.5 -78.5q0 -33 1.5 -77t11 -83.5t30 -67t59.5 -27.5zM277 -12q-81 0 -128.5 35.5t-73 89t-33 116.5t-7.5 118q0 66 11 130.5t39 116.5
t74.5 84t117.5 32q77 0 124.5 -34t74 -87t36 -117t9.5 -125t-9.5 -124.5t-36.5 -115.5t-74.5 -85.5t-123.5 -33.5z" />
    <glyph glyph-name="one" unicode="1" 
d="M283 698h124v-698h-140v539l-118 -96l-70 91z" />
    <glyph glyph-name="two" unicode="2" 
d="M41 0v117q16 16 45 42t62.5 58.5t68 69.5t62.5 75t46 75t18 69q0 24 -10 41.5t-26 29.5t-36.5 17.5t-41.5 5.5q-45 0 -85.5 -16.5t-75.5 -39.5l-11 116q48 24 100.5 37t106.5 13q100 0 159.5 -50.5t59.5 -153.5q0 -55 -25 -108.5t-63.5 -103t-85 -96t-89.5 -88.5h285
v-110h-464z" />
    <glyph glyph-name="three" unicode="3" 
d="M53 130q36 -14 74.5 -23t80.5 -9q22 0 47.5 5.5t47.5 17.5t37 30.5t15 45.5q0 31 -11.5 52t-32 33.5t-49 18t-61.5 5.5h-68v110h64q71 0 113 23t42 69q0 26 -10 44t-26.5 28.5t-38 15t-45.5 4.5q-81 0 -157 -37l-8 112q42 17 91.5 26t103.5 9q32 0 72 -7t75 -26.5
t59 -54.5t24 -91q0 -36 -10.5 -62.5t-28 -46.5t-41 -34t-50.5 -24v-2q67 -9 100 -55.5t33 -110.5q0 -62 -25.5 -102.5t-64.5 -64t-86 -32.5t-91 -9q-46 0 -95 6t-88 17z" />
    <glyph glyph-name="four" unicode="4" 
d="M317 249v303h-2l-173 -303h175zM16 258l261 440h174v-449h89v-104h-89v-145h-134v145h-301v113z" />
    <glyph glyph-name="five" unicode="5" 
d="M490 594h-269l-3 -149q12 2 28 4.5t36 2.5q37 0 76.5 -10t72.5 -35.5t54.5 -69.5t21.5 -112q0 -49 -17 -92t-51.5 -75.5t-85 -51t-118.5 -18.5q-41 0 -84.5 6t-78.5 14l3 125q26 -11 61.5 -23t81.5 -12q27 0 54 6.5t48 21.5t34 38.5t13 56.5q0 34 -13.5 57t-36 37.5
t-51.5 20.5t-59 6q-65 0 -125 -19l7 375h401v-104z" />
    <glyph glyph-name="six" unicode="6" 
d="M460 572q-28 12 -57.5 20t-64.5 8q-45 0 -76 -19t-50.5 -50t-28.5 -69.5t-11 -77.5l2 -2q48 70 135 70q100 0 152 -58t52 -155q0 -57 -14 -103t-42.5 -79t-72.5 -51t-103 -18q-73 0 -119 27.5t-72 73.5t-36 104.5t-10 119.5q0 71 13 142t45.5 127.5t88 92t140.5 35.5
q76 0 147 -25zM278 348q-25 0 -43 -11t-29.5 -29t-16.5 -42t-5 -50q0 -25 5.5 -47.5t17 -39.5t30 -27t44.5 -10q24 0 41.5 11t29 28.5t16.5 40t5 45.5q0 26 -5.5 49.5t-17 41.5t-29.5 29t-43 11z" />
    <glyph glyph-name="seven" unicode="7" 
d="M50 698h450v-116l-248 -582h-152l259 588h-309v110z" />
    <glyph glyph-name="eight" unicode="8" 
d="M291 417q15 5 29 15.5t25 24t17.5 29.5t6.5 32q0 39 -23 63.5t-63 24.5q-19 0 -37.5 -5t-32.5 -15.5t-23 -26.5t-9 -37q0 -22 10.5 -39t26.5 -29.5t35.5 -21t37.5 -15.5zM387 376v-2q69 -32 101.5 -77.5t32.5 -105.5q0 -53 -18 -91.5t-50 -63t-76 -36.5t-96 -12
q-51 0 -96 11.5t-78 36t-52.5 62.5t-19.5 91q0 59 32.5 100.5t95.5 72.5v2q-53 23 -84.5 65t-31.5 97q0 47 17 81.5t46.5 57.5t70 34t88.5 11q46 0 88.5 -10t74.5 -30.5t51.5 -52t19.5 -75.5q0 -24 -7.5 -48.5t-22 -47t-36 -41t-50.5 -30.5v1zM264 306q-38 -18 -63.5 -44
t-25.5 -71q0 -22 8.5 -40t23.5 -31t34 -20.5t40 -7.5q42 0 71 24.5t29 68.5q0 26 -10 45.5t-26.5 34t-37.5 24.5t-43 17z" />
    <glyph glyph-name="nine" unicode="9" 
d="M97 126q28 -12 57.5 -20t64.5 -8q45 0 76 19t50.5 50t29 69.5t10.5 77.5l-2 2q-25 -37 -57.5 -53.5t-77.5 -16.5q-100 0 -152 58t-52 155q0 57 14 103t42.5 79t72.5 51t103 18q73 0 119 -27.5t72.5 -73.5t36 -104t9.5 -120q0 -71 -13 -142t-45.5 -127.5t-88 -92
t-140.5 -35.5q-76 0 -147 25zM279 350q26 0 43.5 11t29 29t16.5 42t5 50q0 25 -5.5 47.5t-17 39.5t-30 27t-44.5 10q-24 0 -41.5 -11t-29 -28.5t-16.5 -40t-5 -45.5q0 -25 5.5 -49t17 -42t29.5 -29t43 -11z" />
    <glyph glyph-name="colon" unicode=":" horiz-adv-x="278" 
d="M69 515h140v-140h-140v140zM69 140h140v-140h-140v140z" />
    <glyph glyph-name="semicolon" unicode=";" horiz-adv-x="278" 
d="M87 140h145l-91 -250h-118zM69 515h140v-140h-140v140z" />
    <glyph glyph-name="less" unicode="&#x3c;" horiz-adv-x="600" 
d="M554 -8l-508 218v86l508 218v-102l-373 -159l373 -159v-102z" />
    <glyph glyph-name="equal" unicode="=" horiz-adv-x="600" 
d="M554 310h-508v104h508v-104zM554 92h-508v104h508v-104z" />
    <glyph glyph-name="greater" unicode="&#x3e;" horiz-adv-x="600" 
d="M419 253l-373 159v102l508 -218v-86l-508 -218v102z" />
    <glyph glyph-name="question" unicode="?" horiz-adv-x="500" 
d="M50 677q48 14 97.5 23.5t100.5 9.5q43 0 84 -10t73 -31.5t51.5 -55.5t19.5 -82q0 -35 -13.5 -63.5t-33.5 -54t-42.5 -49t-41.5 -48.5t-30.5 -52t-8.5 -60h-123q0 36 6.5 64t16.5 50.5t23.5 40.5t26.5 33q14 15 27 29t23.5 28.5t17 30.5t6.5 35q0 25 -10 42t-26 28
t-36.5 16t-42.5 5q-40 0 -79 -11.5t-75 -28.5zM175 140h140v-140h-140v140z" />
    <glyph glyph-name="at" unicode="@" horiz-adv-x="800" 
d="M415 446q-25 0 -45.5 -11.5t-35.5 -30t-23 -41t-8 -45.5q0 -35 20 -58.5t55 -23.5q24 0 44.5 11.5t35 30t23 41.5t8.5 47q0 35 -20 57.5t-54 22.5zM716 143q-56 -82 -137.5 -118.5t-178.5 -36.5q-65 0 -130 22.5t-116.5 67.5t-84 113t-32.5 158q0 75 29 140.5t80.5 114.5
t122.5 77.5t155 28.5q60 0 120.5 -17t109 -53t79 -91.5t30.5 -132.5t-30 -130t-71 -86t-83.5 -47.5t-67.5 -14.5q-21 0 -37 13t-17 39h-2q-19 -21 -44.5 -36.5t-56.5 -15.5t-59 12t-49.5 34t-34 52.5t-12.5 66.5q0 50 16 93.5t44 76.5t65.5 52t80.5 19q73 0 116 -64l12 48
h84l-55 -243q-2 -8 -4.5 -17.5t-2.5 -16.5q0 -15 15 -15q19 0 39 10t36.5 32t27 55.5t10.5 79.5q0 61 -24 100.5t-61.5 63t-83.5 32.5t-90 9q-63 0 -115 -22t-89.5 -59t-58 -86t-20.5 -102q0 -58 19.5 -107.5t54 -85.5t82 -56t103.5 -20q30 0 61 2.5t61 9t57.5 19t51.5 32.5
h85z" />
    <glyph glyph-name="A" unicode="A" horiz-adv-x="722" 
d="M358 558h-2l-101 -288h204zM281 698h158l274 -698h-155l-60 160h-283l-61 -160h-145z" />
    <glyph glyph-name="B" unicode="B" horiz-adv-x="611" 
d="M221 110h66q24 0 49.5 4t46.5 14.5t34.5 29.5t13.5 49q0 34 -12.5 54.5t-33 32t-46.5 15t-52 3.5h-66v-202zM221 416h57q22 0 45.5 3t42.5 12.5t31.5 26t12.5 43.5q0 30 -12 47.5t-31.5 26.5t-43.5 11t-48 2h-54v-172zM81 698h244q34 0 73.5 -6.5t73 -25.5t56 -54.5
t22.5 -92.5q0 -63 -38 -104t-101 -52v-2q36 -3 65.5 -16.5t50.5 -34.5t32.5 -48.5t11.5 -59.5q0 -66 -26 -106t-64 -61t-80.5 -28t-75.5 -7h-244v698z" />
    <glyph glyph-name="C" unicode="C" horiz-adv-x="611" 
d="M589 10q-38 -9 -78.5 -15.5t-80.5 -6.5q-85 0 -155.5 21.5t-121 64.5t-78.5 109t-28 154q0 90 26.5 159.5t76 117t120.5 72t160 24.5q35 0 77.5 -7t80.5 -22l-10 -118q-40 23 -76.5 30t-74.5 7q-54 0 -97.5 -19.5t-73.5 -53.5t-46.5 -80t-16.5 -100q0 -53 16 -98.5
t46.5 -79t74.5 -52.5t100 -19q42 0 85 8t68 21z" />
    <glyph glyph-name="D" unicode="D" horiz-adv-x="722" 
d="M81 698h191q80 0 153 -15.5t128.5 -55t88.5 -107t33 -171.5t-33 -171.5t-88.5 -107t-128.5 -55t-153 -15.5h-191v698zM221 110h78q44 0 85.5 16t73.5 46.5t51.5 75t19.5 101.5t-19.5 101.5t-51.5 75t-73.5 46.5t-85.5 16h-78v-478z" />
    <glyph glyph-name="E" unicode="E" 
d="M81 698h412v-110h-272v-172h249v-110h-249v-196h274v-110h-414v698z" />
    <glyph glyph-name="F" unicode="F" horiz-adv-x="500" 
d="M81 698h388v-110h-248v-172h236v-110h-236v-306h-140v698z" />
    <glyph glyph-name="G" unicode="G" horiz-adv-x="722" 
d="M626 563q-41 19 -89.5 28t-90.5 9q-61 0 -108 -19.5t-79.5 -53.5t-49 -80t-16.5 -100q0 -53 16 -98.5t46.5 -79t74.5 -52.5t100 -19q29 0 51.5 2.5t40.5 7.5v182h-148v110h282v-376q-56 -15 -112.5 -25.5t-113.5 -10.5q-85 0 -155.5 21.5t-121 64.5t-78.5 109t-28 154
q0 90 26.5 159.5t76 117t120.5 72t160 24.5q61 0 110.5 -7.5t94.5 -21.5z" />
    <glyph glyph-name="H" unicode="H" horiz-adv-x="722" 
d="M81 698h140v-282h280v282h140v-698h-140v306h-280v-306h-140v698z" />
    <glyph glyph-name="I" unicode="I" horiz-adv-x="278" 
d="M69 698h140v-698h-140v698z" />
    <glyph glyph-name="J" unicode="J" horiz-adv-x="389" 
d="M22 122q14 -5 30 -8.5t37 -3.5q34 0 52.5 12t27 30.5t10 40t1.5 40.5v465h140v-532q0 -28 -9.5 -59t-32 -57.5t-59 -44t-90.5 -17.5q-29 0 -53.5 2.5t-53.5 10.5v121z" />
    <glyph glyph-name="K" unicode="K" horiz-adv-x="667" 
d="M81 698h140v-300l252 300h172l-287 -329l299 -369h-183l-251 324h-2v-324h-140v698z" />
    <glyph glyph-name="L" unicode="L" horiz-adv-x="500" 
d="M81 698h140v-588h271v-110h-411v698z" />
    <glyph glyph-name="M" unicode="M" horiz-adv-x="944" 
d="M81 698h224l166 -529h2l166 529h224v-698h-134v576h-2l-188 -576h-134l-188 576l-2 -2v-574h-134v698z" />
    <glyph glyph-name="N" unicode="N" horiz-adv-x="722" 
d="M74 698h172l266 -522h2v522h134v-698h-171l-267 522h-2v-522h-134v698z" />
    <glyph glyph-name="O" unicode="O" horiz-adv-x="778" 
d="M47 351q0 80 22 146.5t65.5 113.5t107.5 73t147 26q82 0 146 -26.5t107.5 -74t66 -113.5t22.5 -145t-22.5 -145.5t-66 -115t-107 -75.5t-146.5 -27q-84 0 -148 26.5t-107 74.5t-65 115t-22 147zM193 351q0 -47 10.5 -92.5t34 -81t60.5 -57.5t91 -22t91 22t60.5 57.5
t34 81t10.5 92.5q0 46 -11 90.5t-35 80t-61 57t-89 21.5t-89 -21.5t-61 -57t-35 -80t-11 -90.5z" />
    <glyph glyph-name="P" unicode="P" 
d="M209 375h49q26 0 50 5t42.5 17t29.5 32t11 50t-10.5 51t-29 34t-42.5 18.5t-51 5.5h-49v-213zM69 698h177q57 0 109.5 -9.5t93 -33.5t64.5 -64.5t24 -103.5q0 -61 -21 -103.5t-57.5 -68.5t-85.5 -38t-105 -12h-59v-265h-140v698z" />
    <glyph glyph-name="Q" unicode="Q" horiz-adv-x="778" 
d="M544 -132l-122 122q-8 -2 -16 -2h-17q-84 0 -148 26.5t-107 74.5t-65 115t-22 147t22 146.5t65.5 113.5t107.5 73t147 26q82 0 146 -26.5t107.5 -74t66 -113.5t22.5 -145q0 -113 -44.5 -198.5t-131.5 -127.5l158 -157h-169zM193 351q0 -47 10.5 -92.5t34 -81t60.5 -57.5
t91 -22t91 22t60.5 57.5t34 81t10.5 92.5q0 46 -11 90.5t-35 80t-61 57t-89 21.5t-89 -21.5t-61 -57t-35 -80t-11 -90.5z" />
    <glyph glyph-name="R" unicode="R" horiz-adv-x="611" 
d="M209 400h46q26 0 52.5 3t47.5 13t34.5 29t13.5 52q0 32 -13.5 50t-34.5 27t-47.5 11.5t-52.5 2.5h-46v-188zM69 698h151q56 0 114.5 -2t106 -19.5t78 -56t30.5 -111.5q0 -62 -38.5 -107.5t-105.5 -54.5v-2q29 -2 46 -25.5t28 -46.5l112 -273h-156l-84 218
q-15 39 -34 55.5t-63 16.5h-45v-290h-140v698z" />
    <glyph glyph-name="S" unicode="S" 
d="M456 570q-33 14 -69 22t-73 8q-18 0 -37.5 -4.5t-35.5 -15.5t-26.5 -29.5t-10.5 -47.5q0 -30 22.5 -48t56.5 -32.5t74 -29t74 -38.5t56.5 -60.5t22.5 -95.5q0 -57 -21 -97.5t-57 -65.5t-83.5 -36.5t-100.5 -11.5q-28 0 -50 2t-42 5.5t-40.5 8.5t-46.5 11l13 126
q36 -20 76 -31.5t82 -11.5q20 0 42 5t40 16t30 28t12 41q0 33 -22.5 53t-56.5 35t-74 30t-74 38t-56.5 59t-22.5 94q0 59 21 99.5t55 65.5t78 36.5t90 11.5q92 0 167 -25z" />
    <glyph glyph-name="T" unicode="T" 
d="M208 588h-200v110h540v-110h-200v-588h-140v588z" />
    <glyph glyph-name="U" unicode="U" horiz-adv-x="722" 
d="M76 698h140v-403q0 -45 7.5 -81t25 -62t45 -40t67.5 -14t67.5 14t45 40t25 62t7.5 81v403h140v-446q0 -70 -19.5 -120t-56 -82t-89.5 -47t-120 -15t-120 15t-89.5 47t-56 82t-19.5 120v446z" />
    <glyph glyph-name="V" unicode="V" horiz-adv-x="667" 
d="M10 698h150l179 -548h2l177 548h139l-235 -698h-172z" />
    <glyph glyph-name="W" unicode="W" horiz-adv-x="1000" 
d="M10 698h147l130 -558h2l119 558h190l123 -558h2l131 558h136l-182 -698h-180l-126 558h-2l-124 -558h-181z" />
    <glyph glyph-name="X" unicode="X" horiz-adv-x="667" 
d="M239 363l-208 335h162l146 -249l149 249h150l-210 -335l229 -363h-165l-161 272l-163 -272h-158z" />
    <glyph glyph-name="Y" unicode="Y" horiz-adv-x="667" 
d="M266 276l-255 422h164l165 -293l168 293h148l-250 -422v-276h-140v276z" />
    <glyph glyph-name="Z" unicode="Z" 
d="M36 114l328 474h-315v110h464v-114l-331 -474h338v-110h-484v114z" />
    <glyph glyph-name="bracketleft" unicode="[" horiz-adv-x="333" 
d="M72 756h224v-98h-96v-700h96v-98h-224v896z" />
    <glyph glyph-name="backslash" unicode="\" horiz-adv-x="389" 
d="M20 710h104l244 -722h-104z" />
    <glyph glyph-name="bracketright" unicode="]" horiz-adv-x="333" 
d="M261 756v-896h-224v98h96v700h-96v98h224z" />
    <glyph glyph-name="asciicircum" unicode="^" horiz-adv-x="600" 
d="M66 313l187 385h94l187 -385h-104l-130 280l-130 -280h-104z" />
    <glyph glyph-name="underscore" unicode="_" horiz-adv-x="500" 
d="M0 -125v50h500v-50h-500z" />
    <glyph glyph-name="grave" unicode="`" horiz-adv-x="278" 
d="M249 585h-83l-137 146h137z" />
    <glyph glyph-name="a" unicode="a" 
d="M92 488q39 18 87.5 28.5t91.5 10.5q118 0 170 -51.5t52 -165.5v-66q0 -39 0.5 -69.5t1.5 -59.5t2.5 -57t3.5 -58h-118q-4 20 -4.5 42.5t-1.5 34.5h-2q-23 -43 -68 -66t-91 -23q-34 0 -66.5 10t-57.5 29.5t-40.5 48t-15.5 65.5q0 58 25 93t63 54t84.5 24.5t88.5 5.5h74
q0 63 -28 87t-88 24q-43 0 -84 -15t-75 -41zM164 149q0 -33 24.5 -48t60.5 -15q31 0 54.5 12.5t39.5 33.5q17 22 22.5 49t5.5 57h-58q-22 0 -48.5 -3t-48.5 -12t-37 -26.5t-15 -47.5z" />
    <glyph glyph-name="b" unicode="b" horiz-adv-x="611" 
d="M204 259q0 -27 6 -56.5t19.5 -54t36.5 -40.5t56 -16t55 16t34.5 41t18 54t5.5 56q0 26 -5 55t-18 53t-34 40t-54 16q-32 0 -55 -15.5t-37.5 -39.5t-21 -53t-6.5 -56zM69 750h134v-301h2q28 37 64.5 57.5t89.5 20.5q59 0 100.5 -22t67 -59t37 -85.5t11.5 -101.5
t-11.5 -102t-37 -86.5t-67 -60t-100.5 -22.5q-43 0 -86 16.5t-72 58.5h-2v-63h-130v750z" />
    <glyph glyph-name="c" unicode="c" horiz-adv-x="444" 
d="M403 404q-18 8 -39 13.5t-52 5.5q-63 0 -99.5 -45t-36.5 -118q0 -36 8.5 -66.5t26 -53t43.5 -35.5t61 -13q29 0 57.5 8t45.5 16l6 -111q-29 -9 -60.5 -13t-73.5 -4q-63 0 -111 20.5t-79.5 56.5t-47.5 86t-16 109q0 56 16.5 104.5t48 84.5t78 57t106.5 21q41 0 71.5 -4.5
t58.5 -12.5z" />
    <glyph glyph-name="d" unicode="d" horiz-adv-x="611" 
d="M176 259q0 -27 5.5 -56t18 -54t34.5 -41t55 -16t56 16t36.5 40.5t19.5 54t6 56.5t-6.5 56t-21 53t-37.5 39.5t-55 15.5q-33 0 -54 -16t-34 -40t-18 -53t-5 -55zM412 58h-2q-30 -38 -70 -54t-88 -16q-59 0 -100.5 22.5t-67 60t-37 86.5t-11.5 102t11.5 101.5t37 85.5
t67 59t100.5 22q51 0 87.5 -17.5t66.5 -54.5h2v295h134v-750h-130v58z" />
    <glyph glyph-name="e" unicode="e" 
d="M392 308q-1 24 -8 46t-20 38.5t-33 26.5t-48 10q-57 0 -85.5 -34.5t-33.5 -86.5h228zM482 29q-37 -20 -80 -30.5t-97 -10.5q-128 0 -198.5 69.5t-70.5 197.5q0 56 15 105.5t44.5 86.5t74.5 58.5t105 21.5q72 0 119 -23.5t75 -64.5t39.5 -98t11.5 -125h-356
q5 -63 44.5 -96.5t102.5 -33.5q49 0 91 15.5t80 36.5v-109z" />
    <glyph glyph-name="f" unicode="f" horiz-adv-x="389" 
d="M118 417h-99v98h99v72q0 78 42 126.5t122 48.5q26 0 52 -3t46 -8l-11 -111q-9 5 -22.5 11.5t-35.5 6.5q-34 0 -46.5 -24.5t-12.5 -54.5v-64h117v-98h-117v-417h-134v417z" />
    <glyph glyph-name="g" unicode="g" horiz-adv-x="611" 
d="M290 104q32 0 54 13t36.5 34.5t21 50.5t6.5 61q0 33 -6.5 62t-20 51t-35 34.5t-50.5 12.5q-34 0 -57 -14.5t-37 -37.5t-20 -52t-6 -59q0 -26 7 -54t21 -50.5t35.5 -37t50.5 -14.5zM542 515v-465q0 -53 -12 -102t-43 -86.5t-83.5 -60.5t-133.5 -23q-40 0 -85 7.5t-93 27.5
l11 114q15 -8 34.5 -16t40 -14.5t40 -10.5t35.5 -4q56 0 87 18.5t46 48t18.5 65t3.5 68.5h-2q-19 -33 -61 -57.5t-99 -24.5t-97 21t-65 57t-36.5 83t-11.5 99q0 47 12.5 94.5t39 85.5t67.5 62.5t99 24.5q51 0 90.5 -18.5t67.5 -63.5h2v70h128z" />
    <glyph glyph-name="h" unicode="h" horiz-adv-x="611" 
d="M69 750h134v-305h2q26 38 67.5 60t94.5 22q46 0 79 -15t54.5 -42t31.5 -64t10 -81v-325h-134v275q0 24 -1.5 50t-9.5 47.5t-26 36t-50 14.5q-36 0 -59 -17.5t-36 -43.5t-18 -55.5t-5 -54.5v-252h-134v750z" />
    <glyph glyph-name="i" unicode="i" horiz-adv-x="278" 
d="M72 515h134v-515h-134v515zM72 737h134v-128h-134v128z" />
    <glyph glyph-name="j" unicode="j" horiz-adv-x="278" 
d="M-10 -118q27 1 43 5.5t25 15t11.5 29t2.5 48.5v535h134v-553q0 -27 -5.5 -59.5t-22 -60t-47 -46t-80.5 -18.5q-17 0 -35 2t-31 6zM72 737h134v-128h-134v128z" />
    <glyph glyph-name="k" unicode="k" 
d="M72 750h134v-441h2l160 206h158l-192 -230l216 -285h-170l-172 250h-2v-250h-134v750z" />
    <glyph glyph-name="l" unicode="l" horiz-adv-x="278" 
d="M72 750h134v-750h-134v750z" />
    <glyph glyph-name="m" unicode="m" horiz-adv-x="889" 
d="M67 515h125v-72h2q32 48 73.5 66t79.5 18q54 0 92 -21.5t60 -69.5q23 47 68 69t93 22t79 -15.5t50 -42.5t26.5 -64t7.5 -80v-325h-134v307q0 18 -1 38.5t-8.5 37.5t-23 28.5t-44.5 11.5q-33 0 -53 -17.5t-30.5 -44t-13.5 -56.5t-3 -55v-250h-134v307q0 18 -1 38.5
t-8.5 37.5t-23 28.5t-44.5 11.5q-33 0 -53 -17.5t-30.5 -44t-13.5 -56.5t-3 -55v-250h-134v515z" />
    <glyph glyph-name="n" unicode="n" horiz-adv-x="611" 
d="M69 515h127v-70h2q32 45 74 63.5t95 18.5q46 0 79 -15t54.5 -42t31.5 -64t10 -81v-325h-134v275q0 24 -1.5 50t-9.5 47.5t-26 36t-50 14.5q-36 0 -59 -17.5t-36 -43.5t-18 -55.5t-5 -54.5v-252h-134v515z" />
    <glyph glyph-name="o" unicode="o" horiz-adv-x="611" 
d="M36 254q0 64 20.5 114.5t57 86t85.5 54t106 18.5t106.5 -18.5t86 -54t57 -86t20.5 -114.5q0 -55 -18 -103.5t-52.5 -84.5t-85 -57t-114.5 -21t-114 21t-84.5 57t-52.5 84.5t-18 103.5zM176 270q0 -32 6 -63.5t20.5 -57t39.5 -41.5t63 -16q39 0 64 15.5t39.5 41t20.5 57.5
t6 64q0 30 -8 57.5t-24 48.5t-40.5 34t-57.5 13t-57 -13t-40 -34.5t-24 -49t-8 -56.5z" />
    <glyph glyph-name="p" unicode="p" horiz-adv-x="611" 
d="M69 515h128v-73h2q23 38 61.5 61.5t98.5 23.5q59 0 100.5 -22t67 -59t37 -85.5t11.5 -101.5t-11.5 -102t-37.5 -86.5t-68 -60t-102 -22.5q-43 0 -79.5 14t-71.5 57h-2v-269h-134v725zM324 423q-32 0 -55 -15.5t-37.5 -39.5t-21 -53t-6.5 -56t6 -56.5t19.5 -54t36.5 -40.5
t56 -16t55 16t34.5 41t18 54t5.5 56q0 26 -5 55t-18 53t-34 40t-54 16z" />
    <glyph glyph-name="q" unicode="q" horiz-adv-x="611" 
d="M408 59h-2q-35 -43 -71.5 -57t-79.5 -14q-60 0 -102 22.5t-68 60t-37.5 86.5t-11.5 102t11.5 101.5t37.5 85.5t68 59t102 22q57 0 95 -22.5t62 -62.5h2v73h128v-725h-134v269zM287 423q-33 0 -54 -16t-34 -40t-18 -53t-5 -55q0 -27 5.5 -56t18 -54t34.5 -41t55 -16t56 16
t36.5 40.5t19.5 54t6 56.5t-6.5 56t-21 53t-37.5 39.5t-55 15.5z" />
    <glyph glyph-name="r" unicode="r" horiz-adv-x="389" 
d="M72 515h119v-117h2q2 18 13 40.5t29.5 42t43.5 33t55 13.5q10 0 20 -0.5t21 -3.5v-135q-9 5 -25.5 8t-34.5 3q-41 0 -63 -22.5t-32.5 -55t-12 -68.5t-1.5 -64v-189h-134v515z" />
    <glyph glyph-name="s" unicode="s" horiz-adv-x="444" 
d="M375 407q-31 11 -57 16.5t-63 5.5q-13 0 -27.5 -2.5t-25.5 -9.5t-18.5 -17.5t-7.5 -27.5q0 -20 17.5 -31.5t43 -20t56 -17.5t56 -26.5t43 -46t17.5 -74.5q0 -45 -18.5 -77t-48.5 -52t-69 -29.5t-80 -9.5q-38 0 -76.5 6t-75.5 16l8 110q32 -16 64.5 -25t67.5 -9q13 0 28 3
t28.5 10t22.5 19t9 31q0 25 -17.5 38t-43 22t-56 17t-56 24t-43 43.5t-17.5 73.5q0 42 17 72t45 49.5t64.5 29t75.5 9.5q48 0 81 -6t65 -13z" />
    <glyph glyph-name="t" unicode="t" horiz-adv-x="389" 
d="M113 417h-99v98h99v103l134 43v-146h119v-98h-119v-240q0 -16 2.5 -31.5t9.5 -27.5t19.5 -19t31.5 -7q18 0 34 3.5t27 10.5l4 -106q-21 -6 -45 -9t-54 -3q-79 0 -121 45t-42 122v262z" />
    <glyph glyph-name="u" unicode="u" horiz-adv-x="611" 
d="M542 0h-127v70h-2q-31 -38 -73.5 -60t-95.5 -22q-46 0 -79 15.5t-54.5 42.5t-31.5 64t-10 80v325h134v-275q0 -24 1.5 -50t10 -47.5t26 -36t49.5 -14.5q36 0 59 17.5t36 43.5t18 55.5t5 54.5v252h134v-515z" />
    <glyph glyph-name="v" unicode="v" 
d="M12 515h144l128 -375h2l124 375h134l-190 -515h-151z" />
    <glyph glyph-name="w" unicode="w" horiz-adv-x="889" 
d="M11 515h142l114 -381h2l104 381h156l112 -381h2l107 381h128l-158 -515h-158l-112 393h-2l-110 -393h-153z" />
    <glyph glyph-name="x" unicode="x" 
d="M27 515h158l101 -168l99 168h142l-154 -245l174 -270h-160l-115 192l-116 -192h-147l177 270z" />
    <glyph glyph-name="y" unicode="y" 
d="M283 139h2l124 376h136l-193 -511q-16 -43 -32 -83.5t-39 -72t-56.5 -51t-86.5 -19.5q-47 0 -95 14l9 99q13 -5 28.5 -7t40.5 -2q41 0 64 25t23 67l-197 541h148z" />
    <glyph glyph-name="z" unicode="z" horiz-adv-x="500" 
d="M47 515h408v-110l-256 -301h265v-104h-428v109l261 302h-250v104z" />
    <glyph glyph-name="braceleft" unicode="{" horiz-adv-x="333" 
d="M18 351q14 0 28.5 4.5t26.5 15.5t19.5 28.5t7.5 44.5v177q0 35 13 60.5t34 42t47.5 24.5t53.5 8h75v-80h-45q-33 0 -41.5 -19.5t-8.5 -53.5v-173q0 -35 -11.5 -58t-28.5 -36.5t-36.5 -19t-35.5 -7.5v-2q16 -1 35.5 -6t36.5 -18.5t28.5 -38t11.5 -65.5v-166q0 -35 8.5 -54
t41.5 -19h45v-80h-75q-28 0 -55 8.5t-47.5 25t-33 42t-12.5 59.5v170q0 29 -7.5 48t-19.5 30.5t-26.5 16.5t-28.5 5v86z" />
    <glyph glyph-name="bar" unicode="|" horiz-adv-x="222" 
d="M59 750h104v-762h-104v762z" />
    <glyph glyph-name="braceright" unicode="}" horiz-adv-x="333" 
d="M315 265q-14 0 -28.5 -5t-26.5 -16.5t-19.5 -30.5t-7.5 -48v-170q0 -35 -12.5 -60.5t-33 -42t-47 -24.5t-55.5 -8h-75v80h45q33 0 41.5 19t8.5 54v166q0 41 11.5 65.5t28.5 38t36.5 18.5t35.5 6v2q-16 2 -35.5 7.5t-36.5 19t-28.5 36.5t-11.5 58v173q0 34 -8.5 53.5
t-41.5 19.5h-45v80h75q29 0 55.5 -8t47 -24.5t33 -42t12.5 -60.5v-177q0 -27 7.5 -44.5t19.5 -28.5t26.5 -15.5t28.5 -4.5v-86z" />
    <glyph glyph-name="asciitilde" unicode="~" horiz-adv-x="600" 
d="M69 252q8 16 19 31.5t26 28t33.5 20.5t42.5 8q38 0 65.5 -10.5t51.5 -23.5q26 -13 51.5 -24.5t53.5 -11.5q26 0 46 23t37 49l36 -88q-9 -16 -21 -31.5t-26.5 -28t-31 -20.5t-36.5 -8q-35 0 -62.5 10.5t-53.5 24.5t-51 24.5t-58 10.5q-35 0 -54.5 -23t-31.5 -49z" />
    <glyph glyph-name="exclamdown" unicode="&#xa1;" horiz-adv-x="389" 
d="M138 310h111l22 -493h-154zM123 515h140v-140h-140v140z" />
    <glyph glyph-name="cent" unicode="&#xa2;" 
d="M343 423q-54 -7 -85.5 -51.5t-31.5 -111.5q0 -34 7.5 -63t24.5 -52zM459 608l-28 -91q9 -1 17.5 -3t16.5 -4l-12 -106q-11 5 -24 9.5t-28 6.5l-97 -315q25 -13 61 -13q29 0 57.5 8t45.5 16l6 -111q-29 -9 -60.5 -13t-73.5 -4q-19 0 -36 1.5t-34 6.5l-27 -86h-58l32 104
q-66 32 -98.5 96.5t-32.5 149.5q0 56 16.5 104.5t48 84.5t78 57t106.5 21h21t19 -2l26 83h58z" />
    <glyph glyph-name="sterling" unicode="&#xa3;" 
d="M54 104h88v219h-76v80h76v84q0 50 19 91.5t51.5 70.5t76 45t93.5 16q42 0 72 -4.5t58 -12.5l-7 -110q-22 6 -44.5 11.5t-52.5 5.5q-33 0 -57 -11t-39 -29t-22.5 -41.5t-7.5 -48.5v-67h147v-80h-147v-219h223v-104h-451v104z" />
    <glyph glyph-name="currency" unicode="&#xa4;" 
d="M538 552l-58 -58q46 -64 46 -142q0 -77 -46 -144l58 -58l-59 -59l-58 58q-66 -46 -143 -46t-143 46l-58 -58l-59 59l58 58q-23 33 -34.5 69.5t-11.5 73.5q0 77 46 143l-58 58l59 59l58 -58q32 23 68.5 34.5t74.5 11.5q77 0 143 -46l58 58zM140 351q0 -30 11 -56
t29.5 -45.5t44 -31t53.5 -11.5q29 0 54 11.5t43.5 31t29.5 45.5t11 56t-11 56t-29.5 45.5t-43.5 31t-54 11.5q-28 0 -53.5 -11.5t-44 -31t-29.5 -45.5t-11 -56z" />
    <glyph glyph-name="yen" unicode="&#xa5;" 
d="M394 369h98v-80h-140l-7 -13v-49h147v-80h-147v-147h-134v147h-147v80h147v49l-8 13h-139v80h100l-174 329h141l151 -308l154 308h131z" />
    <glyph glyph-name="brokenbar" unicode="&#xa6;" horiz-adv-x="222" 
d="M59 263h104v-275h-104v275zM59 750h104v-275h-104v275z" />
    <glyph glyph-name="section" unicode="&#xa7;" 
d="M170 309q0 -24 21.5 -41.5t50.5 -30.5t59.5 -23.5t49.5 -22.5q16 14 26 33t10 42q0 26 -17 42t-43 28t-58.5 22t-62.5 25q-14 -10 -25 -30t-11 -44zM440 581q-34 13 -70 19t-73 6q-19 0 -36 -3t-30.5 -10.5t-21.5 -21t-8 -33.5q-1 -26 20 -42t53.5 -28.5t70 -25t70 -32
t54.5 -48.5t22 -75q0 -40 -19.5 -74t-54.5 -54q32 -19 50 -49t18 -65q0 -45 -19.5 -78.5t-50.5 -56.5t-70.5 -34.5t-80.5 -11.5q-48 0 -93.5 9t-91.5 20l9 114q38 -16 82 -27.5t86 -11.5q41 0 71 14.5t30 54.5q0 26 -21.5 42t-54 29t-70 26t-70 32t-54 47t-21.5 72
q0 48 20 80.5t57 54.5q-34 23 -52 50t-18 69q0 44 19.5 76.5t50.5 53.5t70 31t78 10q41 0 80.5 -6t79.5 -14z" />
    <glyph glyph-name="dieresis" unicode="&#xa8;" horiz-adv-x="278" 
d="M300 725v-116h-116v116h116zM-22 609v116h116v-116h-116z" />
    <glyph glyph-name="copyright" unicode="&#xa9;" horiz-adv-x="800" 
d="M657 349q0 62 -20 114t-55 89t-81.5 57.5t-100.5 20.5t-101 -20.5t-81.5 -57.5t-54.5 -89t-20 -114q0 -63 20 -114.5t54.5 -88.5t81.5 -57.5t101 -20.5t100.5 20.5t81.5 57.5t55 88.5t20 114.5zM589 291q-6 -37 -22 -65t-39 -47.5t-52.5 -29.5t-61.5 -10q-46 0 -84 16.5
t-64.5 45t-41 67.5t-14.5 84q0 46 14 85t40 67.5t63.5 44.5t84.5 16q67 0 115 -38t59 -112h-80q-7 35 -33 52.5t-61 17.5q-51 0 -77.5 -36.5t-26.5 -95.5q0 -28 7.5 -52.5t21.5 -42.5t33.5 -28.5t43.5 -10.5q38 0 63 18.5t29 53.5h83zM39 349q0 75 28.5 140.5t77.5 114.5
t114.5 77.5t140.5 28.5t140.5 -28.5t114.5 -77.5t77.5 -114.5t28.5 -140.5t-28.5 -140.5t-77.5 -114.5t-114.5 -77.5t-140.5 -28.5t-140.5 28.5t-114.5 77.5t-77.5 114.5t-28.5 140.5z" />
    <glyph glyph-name="ordfeminine" unicode="&#xaa;" horiz-adv-x="361" 
d="M249 392l-3 42h-2q-12 -29 -38.5 -39.5t-55.5 -10.5q-20 0 -41.5 4.5t-39.5 15t-29.5 27.5t-11.5 41q0 38 16.5 60t42.5 33.5t57.5 15t60.5 3.5h37q0 40 -19.5 53t-53.5 13q-28 0 -55 -8.5t-50 -22.5v66q25 13 57 19t63 6q75 0 109.5 -30.5t34.5 -105.5q0 -48 1 -94.5
t4 -87.5h-84zM114 477q0 -10 5.5 -16t13 -10t17 -5.5t16.5 -1.5q38 0 57.5 25.5t19.5 60.5h-30q-14 0 -31.5 -1t-32.5 -6t-25 -15.5t-10 -30.5z" />
    <glyph glyph-name="guillemotleft" unicode="&#xab;" 
d="M390 474h126l-110 -205l110 -205h-126l-118 205zM167 474h126l-110 -205l110 -205h-126l-118 205z" />
    <glyph glyph-name="logicalnot" unicode="&#xac;" horiz-adv-x="600" 
d="M450 310h-404v104h508v-306h-104v202z" />
    <glyph glyph-name="registered" unicode="&#xae;" horiz-adv-x="800" 
d="M39 349q0 75 28.5 140.5t77.5 114.5t114.5 77.5t140.5 28.5t140.5 -28.5t114.5 -77.5t77.5 -114.5t28.5 -140.5t-28.5 -140.5t-77.5 -114.5t-114.5 -77.5t-140.5 -28.5t-140.5 28.5t-114.5 77.5t-77.5 114.5t-28.5 140.5zM143 349q0 -63 20 -114.5t54.5 -88.5t81.5 -57.5
t101 -20.5t100.5 20.5t81.5 57.5t55 88.5t20 114.5q0 62 -20 114t-55 89t-81.5 57.5t-100.5 20.5t-101 -20.5t-81.5 -57.5t-54.5 -89t-20 -114zM255 551h151q77 0 118.5 -26t41.5 -94q0 -55 -29.5 -79t-76.5 -28l106 -174h-88l-96 170h-41v-170h-86v401zM411 386q31 0 50 9
t19 44q0 15 -7.5 24.5t-19 14t-25 6t-26.5 1.5h-61v-99h70z" />
    <glyph glyph-name="macron" unicode="&#xaf;" horiz-adv-x="278" 
d="M-5 618v80h288v-80h-288z" />
    <glyph glyph-name="degree" unicode="&#xb0;" horiz-adv-x="400" 
d="M200 637q-39 0 -63.5 -24.5t-24.5 -63.5t24.5 -63.5t63.5 -24.5t63.5 24.5t24.5 63.5t-24.5 63.5t-63.5 24.5zM200 710q33 0 62.5 -12.5t51.5 -34.5t34.5 -51.5t12.5 -62.5q0 -34 -12.5 -63.5t-34 -51t-51 -34t-63.5 -12.5q-35 0 -64.5 12t-51 33.5t-33.5 51t-12 64.5
q0 33 12.5 62.5t34.5 51.5t51.5 34.5t62.5 12.5z" />
    <glyph glyph-name="plusminus" unicode="&#xb1;" horiz-adv-x="600" 
d="M248 506h104v-132h202v-104h-202v-133h-104v133h-202v104h202v132zM46 104h508v-104h-508v104z" />
    <glyph glyph-name="twosuperior" unicode="&#xb2;" horiz-adv-x="361" 
d="M30 282v82q15 5 46 29.5t62 56.5q31 33 53.5 66.5t22.5 55.5q0 52 -61 52q-57 0 -105 -34l-7 87q31 17 65.5 25t69.5 8q32 0 60 -7t49 -22.5t33 -40t12 -59.5q0 -30 -17.5 -62.5t-43.5 -62.5q-27 -30 -56.5 -53t-51.5 -33v-2h171v-86h-302z" />
    <glyph glyph-name="threesuperior" unicode="&#xb3;" horiz-adv-x="361" 
d="M41 686q35 12 66 18t63 6q24 0 52 -5t51.5 -17t39.5 -31.5t16 -49.5q0 -40 -20.5 -67t-62.5 -38v-2q44 -3 66.5 -30.5t22.5 -65.5q0 -35 -17 -59.5t-44 -39.5t-59.5 -22t-62.5 -7q-29 0 -60 4t-66 13l5 83q31 -9 56 -14.5t52 -5.5q14 0 28.5 3t26 9.5t18.5 16t7 22.5
q0 29 -22 39t-51 10q-36 0 -56 -3v84q12 1 25 0t33 -1q11 0 23 2.5t23 8.5t18 15t7 22q0 26 -18.5 36t-45.5 10q-25 0 -54.5 -6t-54.5 -20z" />
    <glyph glyph-name="acute" unicode="&#xb4;" horiz-adv-x="278" 
d="M112 731h137l-137 -146h-83z" />
    <glyph glyph-name="mu" unicode="&#xb5;" horiz-adv-x="611" 
d="M69 515h134v-275q0 -24 1.5 -50t10 -47.5t26 -36t49.5 -14.5q36 0 59 17.5t36 43.5t18 55.5t5 54.5v252h134v-515h-127v70h-2q-6 -14 -16.5 -28.5t-25.5 -26.5t-32.5 -19.5t-36.5 -7.5q-24 0 -49.5 5t-47.5 29h-2v-232h-134v725z" />
    <glyph glyph-name="paragraph" unicode="&#xb6;" horiz-adv-x="620" 
d="M221 341q-105 0 -162 47.5t-57 127.5q0 53 18 88t50 56t76 29.5t96 8.5h293v-822h-104v742h-106v-742h-104v465z" />
    <glyph glyph-name="periodcentered" unicode="&#xb7;" horiz-adv-x="278" 
d="M139 207q-35 0 -56 21.5t-21 55.5t21 55.5t56 21.5t56 -21.5t21 -55.5t-21 -55.5t-56 -21.5z" />
    <glyph glyph-name="cedilla" unicode="&#xb8;" horiz-adv-x="278" 
d="M95 -147q14 -5 31.5 -10t38.5 -5q19 0 36 7.5t17 27.5t-13.5 28t-30.5 8q-11 0 -22.5 -3t-19.5 -6l-15 26l59 74h63l-46 -53l2 -2q9 2 19.5 4t21.5 2q29 0 54.5 -17t25.5 -52q0 -29 -11 -49t-29 -32t-40.5 -17.5t-44.5 -5.5q-43 0 -69.5 6t-46.5 15z" />
    <glyph glyph-name="onesuperior" unicode="&#xb9;" horiz-adv-x="361" 
d="M151 704h94v-422h-104v320l-77 -59l-52 61z" />
    <glyph glyph-name="ordmasculine" unicode="&#xba;" horiz-adv-x="397" 
d="M200 710q36 0 68 -11.5t56 -32.5t38 -51t14 -67q0 -38 -14 -68.5t-38 -51.5t-56 -32.5t-69 -11.5t-69.5 11.5t-56.5 32.5t-38 51.5t-14 68.5t14.5 68t39.5 51t57 32t68 11zM202 650q-23 0 -39 -8.5t-25.5 -22.5t-14 -32.5t-4.5 -38.5q0 -21 3.5 -40t12.5 -33t25 -22.5
t40 -8.5t39 9t23.5 23.5t12 33t3.5 38.5q0 18 -4 36.5t-13 33t-23.5 23.5t-35.5 9z" />
    <glyph glyph-name="guillemotright" unicode="&#xbb;" 
d="M166 64h-126l110 205l-110 205h126l118 -205zM389 64h-126l110 205l-110 205h126l118 -205z" />
    <glyph glyph-name="onequarter" unicode="&#xbc;" horiz-adv-x="834" 
d="M581 720h82l-417 -742h-82zM159 704h94v-422h-104v320l-77 -59l-52 61zM656 159v171h-2l-114 -171h116zM455 164l180 258h125v-263h48v-80h-48v-79h-104v79h-201v85z" />
    <glyph glyph-name="onehalf" unicode="&#xbd;" horiz-adv-x="834" 
d="M551 720h82l-417 -742h-82zM149 704h94v-422h-104v320l-77 -60l-52 61zM499 82q15 5 46 29.5t62 56.5q31 33 53.5 66.5t22.5 55.5q0 52 -61 52q-57 0 -105 -34l-7 87q31 17 65.5 25t69.5 8q32 0 60 -7t49 -22.5t33 -40t12 -59.5q0 -30 -17.5 -62.5t-43.5 -62.5
q-27 -30 -56.5 -53t-51.5 -33v-2h171v-86h-302v82z" />
    <glyph glyph-name="threequarters" unicode="&#xbe;" horiz-adv-x="834" 
d="M593 720h82l-417 -742h-82zM29 686q35 12 66 18t63 6q24 0 52 -5t51.5 -17t39.5 -31.5t16 -49.5q0 -40 -20.5 -67t-62.5 -38v-2q44 -3 66.5 -30.5t22.5 -65.5q0 -35 -17 -59.5t-44 -39.5t-59.5 -22t-62.5 -7q-29 0 -60 4t-66 13l5 83q31 -9 56.5 -14.5t57.5 -5.5
q14 0 28.5 3t26 9.5t18.5 16t7 22.5q0 14 -7 23.5t-18 15t-25.5 8t-28.5 2.5q-36 0 -56 -3v84q12 1 25 0t33 -1q13 0 26.5 2.5t25 8.5t18.5 15t7 22q0 26 -21.5 36t-48.5 10q-25 0 -54.5 -6t-54.5 -20zM668 330h-2l-112 -171h114v171zM772 0h-104v79h-201v85l180 258h125
v-263h48v-80h-48v-79z" />
    <glyph glyph-name="questiondown" unicode="&#xbf;" horiz-adv-x="500" 
d="M450 -162q-46 -20 -97.5 -26.5t-100.5 -6.5q-44 0 -85 10t-73 31.5t-51 55.5t-19 82q0 35 13.5 63.5t33.5 54t42.5 49t41.5 48.5t30.5 52t8.5 60h123q0 -35 -6 -63t-16.5 -50.5t-23.5 -40.5t-27 -33q-13 -15 -26.5 -29t-24 -28.5t-17 -30.5t-6.5 -36q0 -26 10.5 -43.5
t27 -28t37 -15t40.5 -4.5q40 0 79.5 10.5t74.5 29.5zM324 375h-140v140h140v-140z" />
    <glyph glyph-name="Agrave" unicode="&#xc0;" horiz-adv-x="722" 
d="M358 558h-2l-101 -288h204zM281 698h158l274 -698h-155l-60 160h-283l-61 -160h-145zM341 738l-137 110h143l83 -110h-89z" />
    <glyph glyph-name="Aacute" unicode="&#xc1;" horiz-adv-x="722" 
d="M358 558h-2l-101 -288h204zM281 698h158l274 -698h-155l-60 160h-283l-61 -160h-145zM378 848h143l-137 -110h-89z" />
    <glyph glyph-name="Acircumflex" unicode="&#xc2;" horiz-adv-x="722" 
d="M358 558h-2l-101 -288h204zM281 698h158l274 -698h-155l-60 160h-283l-61 -160h-145zM520 738h-95l-64 65l-64 -65h-93l93 110h130z" />
    <glyph glyph-name="Atilde" unicode="&#xc3;" horiz-adv-x="722" 
d="M358 558h-2l-101 -288h204zM281 698h158l274 -698h-155l-60 160h-283l-61 -160h-145zM184 720q0 23 7.5 44.5t21 38.5t32.5 27.5t41 10.5t41.5 -6t39.5 -14t36.5 -15t36.5 -7q23 0 33.5 14.5t10.5 34.5h54q0 -51 -25 -86t-72 -35q-28 0 -47 5t-39 13q-19 8 -36.5 13.5
t-31.5 5.5q-26 0 -37.5 -15t-11.5 -29h-54z" />
    <glyph glyph-name="Adieresis" unicode="&#xc4;" horiz-adv-x="722" 
d="M358 558h-2l-101 -288h204zM281 698h158l274 -698h-155l-60 160h-283l-61 -160h-145zM518 854v-116h-116v116h116zM196 738v116h116v-116h-116z" />
    <glyph glyph-name="Aring" unicode="&#xc5;" horiz-adv-x="722" 
d="M358 558h-2l-101 -288h204zM281 698h158l274 -698h-155l-60 160h-283l-61 -160h-145zM271 784q0 35 25.5 60.5t60.5 25.5t60 -25.5t25 -60.5t-25 -60t-60 -25t-60.5 25t-25.5 60zM314 784q0 -17 12.5 -29.5t30.5 -12.5q17 0 29 12.5t12 29.5q0 18 -12 30t-29 12
q-18 0 -30.5 -12t-12.5 -30z" />
    <glyph glyph-name="AE" unicode="&#xc6;" horiz-adv-x="944" 
d="M480 594h-2l-173 -324h198zM391 698h499v-110h-271l14 -172h235v-110h-223l16 -196h233v-110h-369l-12 160h-268l-86 -160h-150z" />
    <glyph glyph-name="Ccedilla" unicode="&#xc7;" horiz-adv-x="611" 
d="M366 -9q-72 7 -130.5 32t-100.5 68t-65 104.5t-23 141.5q0 90 26.5 159.5t76 117t120.5 72t160 24.5q35 0 77.5 -7t80.5 -22l-10 -118q-40 23 -76.5 30t-74.5 7q-54 0 -97.5 -19.5t-73.5 -53.5t-46.5 -80t-16.5 -100q0 -53 16 -98.5t46.5 -79t74.5 -52.5t100 -19
q42 0 85 8t68 21l6 -117q-38 -9 -78.5 -15.5t-80.5 -6.5h-4l-36 -41l2 -2q9 2 19.5 4t21.5 2q29 0 54.5 -17t25.5 -52q0 -29 -11 -49t-29 -32t-40.5 -17.5t-44.5 -5.5q-43 0 -69.5 6t-46.5 15l20 54q14 -5 31.5 -10t38.5 -5q19 0 36 7.5t17 27.5t-13.5 28t-30.5 8
q-11 0 -22.5 -3t-19.5 -6l-15 26z" />
    <glyph glyph-name="Egrave" unicode="&#xc8;" 
d="M81 698h412v-110h-272v-172h249v-110h-249v-196h274v-110h-414v698zM294 738l-137 110h143l83 -110h-89z" />
    <glyph glyph-name="Eacute" unicode="&#xc9;" 
d="M81 698h412v-110h-272v-172h249v-110h-249v-196h274v-110h-414v698zM320 848h143l-137 -110h-89z" />
    <glyph glyph-name="Ecircumflex" unicode="&#xca;" 
d="M81 698h412v-110h-272v-172h249v-110h-249v-196h274v-110h-414v698zM457 738h-95l-64 65l-64 -65h-93l93 110h130z" />
    <glyph glyph-name="Edieresis" unicode="&#xcb;" 
d="M81 698h412v-110h-272v-172h249v-110h-249v-196h274v-110h-414v698zM460 854v-116h-116v116h116zM138 738v116h116v-116h-116z" />
    <glyph glyph-name="Igrave" unicode="&#xcc;" horiz-adv-x="278" 
d="M69 698h140v-698h-140v698zM121 738l-137 110h143l83 -110h-89z" />
    <glyph glyph-name="Iacute" unicode="&#xcd;" horiz-adv-x="278" 
d="M69 698h140v-698h-140v698zM157 848h143l-137 -110h-89z" />
    <glyph glyph-name="Icircumflex" unicode="&#xce;" horiz-adv-x="278" 
d="M69 698h140v-698h-140v698zM297 738h-95l-64 65l-64 -65h-93l93 110h130z" />
    <glyph glyph-name="Idieresis" unicode="&#xcf;" horiz-adv-x="278" 
d="M69 698h140v-698h-140v698zM300 854v-116h-116v116h116zM-22 738v116h116v-116h-116z" />
    <glyph glyph-name="Eth" unicode="&#xd0;" horiz-adv-x="722" 
d="M81 336h-64v86h64v276h191q80 0 153 -15.5t128.5 -55t88.5 -107t33 -171.5t-33 -171.5t-88.5 -107t-128.5 -55t-153 -15.5h-191v336zM221 110h78q44 0 85.5 16t73.5 46.5t51.5 75t19.5 101.5t-19.5 101.5t-51.5 75t-73.5 46.5t-85.5 16h-78v-166h146v-86h-146v-226z" />
    <glyph glyph-name="Ntilde" unicode="&#xd1;" horiz-adv-x="722" 
d="M74 698h172l266 -522h2v522h134v-698h-171l-267 522h-2v-522h-134v698zM200 720q0 23 7.5 44.5t21 38.5t32.5 27.5t41 10.5t41.5 -6t39.5 -14t36.5 -15t36.5 -7q23 0 33.5 14.5t10.5 34.5h54q0 -51 -25 -86t-72 -35q-28 0 -47 5t-39 13q-19 8 -36.5 13.5t-31.5 5.5
q-26 0 -37.5 -15t-11.5 -29h-54z" />
    <glyph glyph-name="Ograve" unicode="&#xd2;" horiz-adv-x="778" 
d="M47 351q0 80 22 146.5t65.5 113.5t107.5 73t147 26q82 0 146 -26.5t107.5 -74t66 -113.5t22.5 -145t-22.5 -145.5t-66 -115t-107 -75.5t-146.5 -27q-84 0 -148 26.5t-107 74.5t-65 115t-22 147zM193 351q0 -47 10.5 -92.5t34 -81t60.5 -57.5t91 -22t91 22t60.5 57.5
t34 81t10.5 92.5q0 46 -11 90.5t-35 80t-61 57t-89 21.5t-89 -21.5t-61 -57t-35 -80t-11 -90.5zM385 738l-137 110h143l83 -110h-89z" />
    <glyph glyph-name="Oacute" unicode="&#xd3;" horiz-adv-x="778" 
d="M47 351q0 80 22 146.5t65.5 113.5t107.5 73t147 26q82 0 146 -26.5t107.5 -74t66 -113.5t22.5 -145t-22.5 -145.5t-66 -115t-107 -75.5t-146.5 -27q-84 0 -148 26.5t-107 74.5t-65 115t-22 147zM193 351q0 -47 10.5 -92.5t34 -81t60.5 -57.5t91 -22t91 22t60.5 57.5
t34 81t10.5 92.5q0 46 -11 90.5t-35 80t-61 57t-89 21.5t-89 -21.5t-61 -57t-35 -80t-11 -90.5zM410 848h143l-137 -110h-89z" />
    <glyph glyph-name="Ocircumflex" unicode="&#xd4;" horiz-adv-x="778" 
d="M47 351q0 80 22 146.5t65.5 113.5t107.5 73t147 26q82 0 146 -26.5t107.5 -74t66 -113.5t22.5 -145t-22.5 -145.5t-66 -115t-107 -75.5t-146.5 -27q-84 0 -148 26.5t-107 74.5t-65 115t-22 147zM193 351q0 -47 10.5 -92.5t34 -81t60.5 -57.5t91 -22t91 22t60.5 57.5
t34 81t10.5 92.5q0 46 -11 90.5t-35 80t-61 57t-89 21.5t-89 -21.5t-61 -57t-35 -80t-11 -90.5zM546 738h-95l-64 65l-64 -65h-93l93 110h130z" />
    <glyph glyph-name="Otilde" unicode="&#xd5;" horiz-adv-x="778" 
d="M47 351q0 80 22 146.5t65.5 113.5t107.5 73t147 26q82 0 146 -26.5t107.5 -74t66 -113.5t22.5 -145t-22.5 -145.5t-66 -115t-107 -75.5t-146.5 -27q-84 0 -148 26.5t-107 74.5t-65 115t-22 147zM193 351q0 -47 10.5 -92.5t34 -81t60.5 -57.5t91 -22t91 22t60.5 57.5
t34 81t10.5 92.5q0 46 -11 90.5t-35 80t-61 57t-89 21.5t-89 -21.5t-61 -57t-35 -80t-11 -90.5zM212 720q0 23 7.5 44.5t21 38.5t32.5 27.5t41 10.5t41.5 -6t39.5 -14t36.5 -15t36.5 -7q23 0 33.5 14.5t10.5 34.5h54q0 -51 -25 -86t-72 -35q-28 0 -47 5t-39 13
q-19 8 -36.5 13.5t-31.5 5.5q-26 0 -37.5 -15t-11.5 -29h-54z" />
    <glyph glyph-name="Odieresis" unicode="&#xd6;" horiz-adv-x="778" 
d="M47 351q0 80 22 146.5t65.5 113.5t107.5 73t147 26q82 0 146 -26.5t107.5 -74t66 -113.5t22.5 -145t-22.5 -145.5t-66 -115t-107 -75.5t-146.5 -27q-84 0 -148 26.5t-107 74.5t-65 115t-22 147zM193 351q0 -47 10.5 -92.5t34 -81t60.5 -57.5t91 -22t91 22t60.5 57.5
t34 81t10.5 92.5q0 46 -11 90.5t-35 80t-61 57t-89 21.5t-89 -21.5t-61 -57t-35 -80t-11 -90.5zM550 854v-116h-116v116h116zM228 738v116h116v-116h-116z" />
    <glyph glyph-name="multiply" unicode="&#xd7;" horiz-adv-x="600" 
d="M66 415l72 72l162 -162l162 162l72 -72l-163 -162l163 -162l-72 -72l-162 163l-162 -163l-72 72l162 162z" />
    <glyph glyph-name="Oslash" unicode="&#xd8;" horiz-adv-x="778" 
d="M509 556q-23 20 -52.5 32t-67.5 12q-52 0 -89 -21.5t-61 -57t-35 -80t-11 -90.5q0 -42 8.5 -83t26.5 -74zM264 146q23 -23 53.5 -35.5t71.5 -12.5q54 0 91 22t60.5 57.5t34 81t10.5 92.5q0 43 -9.5 84t-29.5 74zM686 690l-54 -70q49 -48 74 -116.5t25 -152.5
q0 -79 -22.5 -145.5t-66 -115t-107 -75.5t-146.5 -27q-122 0 -204 57l-57 -74l-45 36l59 76q-48 47 -71.5 115t-23.5 153q0 80 22 146.5t65.5 113.5t107.5 73t147 26q60 0 109 -13.5t89 -39.5l54 70z" />
    <glyph glyph-name="Ugrave" unicode="&#xd9;" horiz-adv-x="722" 
d="M76 698h140v-403q0 -45 7.5 -81t25 -62t45 -40t67.5 -14t67.5 14t45 40t25 62t7.5 81v403h140v-446q0 -70 -19.5 -120t-56 -82t-89.5 -47t-120 -15t-120 15t-89.5 47t-56 82t-19.5 120v446zM356 738l-137 110h143l83 -110h-89z" />
    <glyph glyph-name="Uacute" unicode="&#xda;" horiz-adv-x="722" 
d="M76 698h140v-403q0 -45 7.5 -81t25 -62t45 -40t67.5 -14t67.5 14t45 40t25 62t7.5 81v403h140v-446q0 -70 -19.5 -120t-56 -82t-89.5 -47t-120 -15t-120 15t-89.5 47t-56 82t-19.5 120v446zM388 848h143l-137 -110h-89z" />
    <glyph glyph-name="Ucircumflex" unicode="&#xdb;" horiz-adv-x="722" 
d="M76 698h140v-403q0 -45 7.5 -81t25 -62t45 -40t67.5 -14t67.5 14t45 40t25 62t7.5 81v403h140v-446q0 -70 -19.5 -120t-56 -82t-89.5 -47t-120 -15t-120 15t-89.5 47t-56 82t-19.5 120v446zM517 738h-95l-64 65l-64 -65h-93l93 110h130z" />
    <glyph glyph-name="Udieresis" unicode="&#xdc;" horiz-adv-x="722" 
d="M76 698h140v-403q0 -45 7.5 -81t25 -62t45 -40t67.5 -14t67.5 14t45 40t25 62t7.5 81v403h140v-446q0 -70 -19.5 -120t-56 -82t-89.5 -47t-120 -15t-120 15t-89.5 47t-56 82t-19.5 120v446zM522 854v-116h-116v116h116zM200 738v116h116v-116h-116z" />
    <glyph glyph-name="Yacute" unicode="&#xdd;" horiz-adv-x="667" 
d="M266 276l-255 422h164l165 -293l168 293h148l-250 -422v-276h-140v276zM357 848h143l-137 -110h-89z" />
    <glyph glyph-name="Thorn" unicode="&#xde;" 
d="M69 0v698h140v-116h37q57 0 109.5 -9.5t93 -33.5t64.5 -65t24 -104q0 -61 -21 -103t-57.5 -68.5t-85.5 -38t-105 -11.5h-59v-149h-140zM209 259h49q26 0 50 5t42.5 17t29.5 32t11 50t-10.5 51t-29 34t-42.5 18.5t-51 5.5h-49v-213z" />
    <glyph glyph-name="germandbls" unicode="&#xdf;" horiz-adv-x="611" 
d="M72 0v505q0 57 15.5 104t46 81t77 53t107.5 19q42 0 82.5 -11.5t72.5 -34.5t52 -57.5t20 -80.5q0 -68 -33.5 -114t-99.5 -63v-2q38 -5 69 -21t53 -40.5t34.5 -56t12.5 -66.5q0 -51 -17.5 -92t-49 -69.5t-74 -44t-93.5 -15.5q-28 0 -49 4t-38 7l4 104q13 -5 30 -8t40 -3
q14 0 32.5 4.5t35 18.5t28 39.5t11.5 68.5q0 34 -12.5 56t-34.5 34.5t-50 17.5t-60 5v104q56 0 88.5 26t32.5 83q0 42 -21.5 72.5t-67.5 30.5q-29 0 -50 -12.5t-34.5 -33t-19.5 -45.5t-6 -51v-516h-134z" />
    <glyph glyph-name="agrave" unicode="&#xe0;" 
d="M92 488q39 18 87.5 28.5t91.5 10.5q118 0 170 -51.5t52 -165.5v-66q0 -39 0.5 -69.5t1.5 -59.5t2.5 -57t3.5 -58h-118q-4 20 -4.5 42.5t-1.5 34.5h-2q-23 -43 -68 -66t-91 -23q-34 0 -66.5 10t-57.5 29.5t-40.5 48t-15.5 65.5q0 58 25 93t63 54t84.5 24.5t88.5 5.5h74
q0 63 -28 87t-88 24q-43 0 -84 -15t-75 -41zM164 149q0 -33 24.5 -48t60.5 -15q31 0 54.5 12.5t39.5 33.5q17 22 22.5 49t5.5 57h-58q-22 0 -48.5 -3t-48.5 -12t-37 -26.5t-15 -47.5zM348 585h-83l-137 146h137z" />
    <glyph glyph-name="aacute" unicode="&#xe1;" 
d="M92 488q39 18 87.5 28.5t91.5 10.5q118 0 170 -51.5t52 -165.5v-66q0 -39 0.5 -69.5t1.5 -59.5t2.5 -57t3.5 -58h-118q-4 20 -4.5 42.5t-1.5 34.5h-2q-23 -43 -68 -66t-91 -23q-34 0 -66.5 10t-57.5 29.5t-40.5 48t-15.5 65.5q0 58 25 93t63 54t84.5 24.5t88.5 5.5h74
q0 63 -28 87t-88 24q-43 0 -84 -15t-75 -41zM164 149q0 -33 24.5 -48t60.5 -15q31 0 54.5 12.5t39.5 33.5q17 22 22.5 49t5.5 57h-58q-22 0 -48.5 -3t-48.5 -12t-37 -26.5t-15 -47.5zM309 731h137l-137 -146h-83z" />
    <glyph glyph-name="acircumflex" unicode="&#xe2;" 
d="M92 488q39 18 87.5 28.5t91.5 10.5q118 0 170 -51.5t52 -165.5v-66q0 -39 0.5 -69.5t1.5 -59.5t2.5 -57t3.5 -58h-118q-4 20 -4.5 42.5t-1.5 34.5h-2q-23 -43 -68 -66t-91 -23q-34 0 -66.5 10t-57.5 29.5t-40.5 48t-15.5 65.5q0 58 25 93t63 54t84.5 24.5t88.5 5.5h74
q0 63 -28 87t-88 24q-43 0 -84 -15t-75 -41zM164 149q0 -33 24.5 -48t60.5 -15q31 0 54.5 12.5t39.5 33.5q17 22 22.5 49t5.5 57h-58q-22 0 -48.5 -3t-48.5 -12t-37 -26.5t-15 -47.5zM440 585h-91l-68 88l-68 -88h-89l99 146h118z" />
    <glyph glyph-name="atilde" unicode="&#xe3;" 
d="M92 488q39 18 87.5 28.5t91.5 10.5q118 0 170 -51.5t52 -165.5v-66q0 -39 0.5 -69.5t1.5 -59.5t2.5 -57t3.5 -58h-118q-4 20 -4.5 42.5t-1.5 34.5h-2q-23 -43 -68 -66t-91 -23q-34 0 -66.5 10t-57.5 29.5t-40.5 48t-15.5 65.5q0 58 25 93t63 54t84.5 24.5t88.5 5.5h74
q0 63 -28 87t-88 24q-43 0 -84 -15t-75 -41zM164 149q0 -33 24.5 -48t60.5 -15q31 0 54.5 12.5t39.5 33.5q17 22 22.5 49t5.5 57h-58q-22 0 -48.5 -3t-48.5 -12t-37 -26.5t-15 -47.5zM104 603q0 23 7.5 44.5t21 38.5t32.5 27.5t41 10.5t41.5 -6t39.5 -14t36.5 -15t36.5 -7
q23 0 33.5 14.5t10.5 34.5h54q0 -51 -25 -86t-72 -35q-28 0 -47 5t-39 13q-19 8 -36.5 13.5t-31.5 5.5q-26 0 -37.5 -15t-11.5 -29h-54z" />
    <glyph glyph-name="adieresis" unicode="&#xe4;" 
d="M92 488q39 18 87.5 28.5t91.5 10.5q118 0 170 -51.5t52 -165.5v-66q0 -39 0.5 -69.5t1.5 -59.5t2.5 -57t3.5 -58h-118q-4 20 -4.5 42.5t-1.5 34.5h-2q-23 -43 -68 -66t-91 -23q-34 0 -66.5 10t-57.5 29.5t-40.5 48t-15.5 65.5q0 58 25 93t63 54t84.5 24.5t88.5 5.5h74
q0 63 -28 87t-88 24q-43 0 -84 -15t-75 -41zM164 149q0 -33 24.5 -48t60.5 -15q31 0 54.5 12.5t39.5 33.5q17 22 22.5 49t5.5 57h-58q-22 0 -48.5 -3t-48.5 -12t-37 -26.5t-15 -47.5zM443 725v-116h-116v116h116zM121 609v116h116v-116h-116z" />
    <glyph glyph-name="aring" unicode="&#xe5;" 
d="M92 488q39 18 87.5 28.5t91.5 10.5q118 0 170 -51.5t52 -165.5v-66q0 -39 0.5 -69.5t1.5 -59.5t2.5 -57t3.5 -58h-118q-4 20 -4.5 42.5t-1.5 34.5h-2q-23 -43 -68 -66t-91 -23q-34 0 -66.5 10t-57.5 29.5t-40.5 48t-15.5 65.5q0 58 25 93t63 54t84.5 24.5t88.5 5.5h74
q0 63 -28 87t-88 24q-43 0 -84 -15t-75 -41zM164 149q0 -33 24.5 -48t60.5 -15q31 0 54.5 12.5t39.5 33.5q17 22 22.5 49t5.5 57h-58q-22 0 -48.5 -3t-48.5 -12t-37 -26.5t-15 -47.5zM179 651q0 22 8.5 41.5t23 34t34 23t41.5 8.5t41.5 -8.5t33.5 -23t22.5 -34t8.5 -41.5
t-8.5 -41.5t-22.5 -33.5t-33.5 -22.5t-41.5 -8.5t-41.5 8.5t-34 22.5t-23 33.5t-8.5 41.5zM233 651q0 -22 15 -37t38 -15q22 0 37 15t15 37q0 23 -15 38t-37 15q-23 0 -38 -15t-15 -38z" />
    <glyph glyph-name="ae" unicode="&#xe6;" horiz-adv-x="889" 
d="M725 308q0 24 -6 45.5t-18.5 38.5t-32.5 27t-48 10q-60 0 -90.5 -35t-30.5 -86h226zM818 29q-37 -20 -80 -30.5t-97 -10.5q-62 0 -120.5 20.5t-95.5 72.5q-15 -24 -36.5 -42t-47 -29.5t-53.5 -17t-55 -4.5q-37 0 -72 8t-63 26.5t-45 47.5t-17 71q0 53 23.5 87.5t61 54.5
t83.5 27.5t90 7.5h77q0 55 -25.5 83.5t-93.5 28.5q-43 0 -84 -15.5t-75 -41.5l-4 115q39 18 88 28.5t95 10.5q55 0 96 -11.5t79 -53.5q29 31 71.5 48t104.5 17q69 0 113.5 -26t70.5 -69.5t36 -99.5t10 -116h-354q0 -31 11.5 -55.5t31.5 -41t47 -25t58 -8.5q49 0 91 15.5
t80 36.5v-109zM164 141q0 -23 20 -39t56 -16q72 0 101.5 37.5t29.5 114.5h-58q-24 0 -50 -4t-48 -14.5t-36.5 -29.5t-14.5 -49z" />
    <glyph glyph-name="ccedilla" unicode="&#xe7;" horiz-adv-x="444" 
d="M251 -10q-54 6 -94 29t-67 58t-40.5 82t-13.5 101q0 56 16.5 104.5t48 84.5t78 57t106.5 21q41 0 71.5 -4.5t58.5 -12.5l-12 -106q-18 8 -39 13.5t-52 5.5q-63 0 -99.5 -45t-36.5 -118q0 -36 8.5 -66.5t26 -53t43.5 -35.5t61 -13q29 0 57.5 8t45.5 16l6 -111
q-26 -8 -52.5 -11.5t-59.5 -5.5l-36 -41l2 -2q9 2 19.5 4t21.5 2q29 0 54.5 -17t25.5 -52q0 -29 -11 -49t-29 -32t-40.5 -17.5t-44.5 -5.5q-43 0 -69.5 6t-46.5 15l20 54q14 -5 31.5 -10t38.5 -5q19 0 36 7.5t17 27.5t-13.5 28t-30.5 8q-11 0 -22.5 -3t-19.5 -6l-15 26z" />
    <glyph glyph-name="egrave" unicode="&#xe8;" 
d="M392 308q-1 24 -8 46t-20 38.5t-33 26.5t-48 10q-57 0 -85.5 -34.5t-33.5 -86.5h228zM482 29q-37 -20 -80 -30.5t-97 -10.5q-128 0 -198.5 69.5t-70.5 197.5q0 56 15 105.5t44.5 86.5t74.5 58.5t105 21.5q72 0 119 -23.5t75 -64.5t39.5 -98t11.5 -125h-356
q5 -63 44.5 -96.5t102.5 -33.5q49 0 91 15.5t80 36.5v-109zM352 585h-83l-137 146h137z" />
    <glyph glyph-name="eacute" unicode="&#xe9;" 
d="M392 308q-1 24 -8 46t-20 38.5t-33 26.5t-48 10q-57 0 -85.5 -34.5t-33.5 -86.5h228zM482 29q-37 -20 -80 -30.5t-97 -10.5q-128 0 -198.5 69.5t-70.5 197.5q0 56 15 105.5t44.5 86.5t74.5 58.5t105 21.5q72 0 119 -23.5t75 -64.5t39.5 -98t11.5 -125h-356
q5 -63 44.5 -96.5t102.5 -33.5q49 0 91 15.5t80 36.5v-109zM305 731h137l-137 -146h-83z" />
    <glyph glyph-name="ecircumflex" unicode="&#xea;" 
d="M392 308q-1 24 -8 46t-20 38.5t-33 26.5t-48 10q-57 0 -85.5 -34.5t-33.5 -86.5h228zM482 29q-37 -20 -80 -30.5t-97 -10.5q-128 0 -198.5 69.5t-70.5 197.5q0 56 15 105.5t44.5 86.5t74.5 58.5t105 21.5q72 0 119 -23.5t75 -64.5t39.5 -98t11.5 -125h-356
q5 -63 44.5 -96.5t102.5 -33.5q49 0 91 15.5t80 36.5v-109zM442 585h-91l-68 88l-68 -88h-89l99 146h118z" />
    <glyph glyph-name="edieresis" unicode="&#xeb;" 
d="M392 308q-1 24 -8 46t-20 38.5t-33 26.5t-48 10q-57 0 -85.5 -34.5t-33.5 -86.5h228zM482 29q-37 -20 -80 -30.5t-97 -10.5q-128 0 -198.5 69.5t-70.5 197.5q0 56 15 105.5t44.5 86.5t74.5 58.5t105 21.5q72 0 119 -23.5t75 -64.5t39.5 -98t11.5 -125h-356
q5 -63 44.5 -96.5t102.5 -33.5q49 0 91 15.5t80 36.5v-109zM439 725v-116h-116v116h116zM117 609v116h116v-116h-116z" />
    <glyph glyph-name="igrave" unicode="&#xec;" horiz-adv-x="278" 
d="M72 0v515h134v-515h-134zM216 585h-83l-137 146h137z" />
    <glyph glyph-name="iacute" unicode="&#xed;" horiz-adv-x="278" 
d="M72 0v515h134v-515h-134zM162 731h137l-137 -146h-83z" />
    <glyph glyph-name="icircumflex" unicode="&#xee;" horiz-adv-x="278" 
d="M72 0v515h134v-515h-134zM299 585h-91l-68 88l-68 -88h-89l99 146h118z" />
    <glyph glyph-name="idieresis" unicode="&#xef;" horiz-adv-x="278" 
d="M72 0v515h134v-515h-134zM300 725v-116h-116v116h116zM-22 609v116h116v-116h-116z" />
    <glyph glyph-name="eth" unicode="&#xf0;" horiz-adv-x="611" 
d="M307 411q-33 0 -58 -14.5t-41 -38t-24 -52t-8 -55.5t7 -55.5t22 -51.5t40 -37.5t61 -14.5q34 0 58 13.5t39 35.5t22 51t7 59q0 26 -7 54.5t-22 52t-39 38.5t-57 15zM228 648q-26 17 -51.5 28.5t-47.5 19.5l61 68q66 -24 127 -59l92 59l51 -47l-83 -53
q88 -68 141.5 -163.5t53.5 -218.5q0 -143 -69.5 -218.5t-197.5 -75.5q-64 0 -114 21t-84.5 57t-52.5 84.5t-18 103.5q-1 52 14.5 99t45.5 83t74 57.5t99 21.5q43 0 71.5 -8.5t51.5 -23.5h2q-17 35 -44.5 66.5t-61.5 57.5l-92 -60l-51 47z" />
    <glyph glyph-name="ntilde" unicode="&#xf1;" horiz-adv-x="611" 
d="M69 515h127v-70h2q32 45 74 63.5t95 18.5q46 0 79 -15t54.5 -42t31.5 -64t10 -81v-325h-134v275q0 24 -1.5 50t-9.5 47.5t-26 36t-50 14.5q-36 0 -59 -17.5t-36 -43.5t-18 -55.5t-5 -54.5v-252h-134v515zM140 603q0 23 7.5 44.5t21 38.5t32.5 27.5t41 10.5t41.5 -6
t39.5 -14t36.5 -15t36.5 -7q23 0 33.5 14.5t10.5 34.5h54q0 -51 -25 -86t-72 -35q-28 0 -47 5t-39 13q-19 8 -36.5 13.5t-31.5 5.5q-26 0 -37.5 -15t-11.5 -29h-54z" />
    <glyph glyph-name="ograve" unicode="&#xf2;" horiz-adv-x="611" 
d="M36 254q0 64 20.5 114.5t57 86t85.5 54t106 18.5t106.5 -18.5t86 -54t57 -86t20.5 -114.5q0 -55 -18 -103.5t-52.5 -84.5t-85 -57t-114.5 -21t-114 21t-84.5 57t-52.5 84.5t-18 103.5zM176 270q0 -32 6 -63.5t20.5 -57t39.5 -41.5t63 -16q39 0 64 15.5t39.5 41t20.5 57.5
t6 64q0 30 -8 57.5t-24 48.5t-40.5 34t-57.5 13t-57 -13t-40 -34.5t-24 -49t-8 -56.5zM374 585h-83l-137 146h137z" />
    <glyph glyph-name="oacute" unicode="&#xf3;" horiz-adv-x="611" 
d="M36 254q0 64 20.5 114.5t57 86t85.5 54t106 18.5t106.5 -18.5t86 -54t57 -86t20.5 -114.5q0 -55 -18 -103.5t-52.5 -84.5t-85 -57t-114.5 -21t-114 21t-84.5 57t-52.5 84.5t-18 103.5zM176 270q0 -32 6 -63.5t20.5 -57t39.5 -41.5t63 -16q39 0 64 15.5t39.5 41t20.5 57.5
t6 64q0 30 -8 57.5t-24 48.5t-40.5 34t-57.5 13t-57 -13t-40 -34.5t-24 -49t-8 -56.5zM327 731h137l-137 -146h-83z" />
    <glyph glyph-name="ocircumflex" unicode="&#xf4;" horiz-adv-x="611" 
d="M36 254q0 64 20.5 114.5t57 86t85.5 54t106 18.5t106.5 -18.5t86 -54t57 -86t20.5 -114.5q0 -55 -18 -103.5t-52.5 -84.5t-85 -57t-114.5 -21t-114 21t-84.5 57t-52.5 84.5t-18 103.5zM176 270q0 -32 6 -63.5t20.5 -57t39.5 -41.5t63 -16q39 0 64 15.5t39.5 41t20.5 57.5
t6 64q0 30 -8 57.5t-24 48.5t-40.5 34t-57.5 13t-57 -13t-40 -34.5t-24 -49t-8 -56.5zM466 585h-91l-68 88l-68 -88h-89l99 146h118z" />
    <glyph glyph-name="otilde" unicode="&#xf5;" horiz-adv-x="611" 
d="M36 254q0 64 20.5 114.5t57 86t85.5 54t106 18.5t106.5 -18.5t86 -54t57 -86t20.5 -114.5q0 -55 -18 -103.5t-52.5 -84.5t-85 -57t-114.5 -21t-114 21t-84.5 57t-52.5 84.5t-18 103.5zM176 270q0 -32 6 -63.5t20.5 -57t39.5 -41.5t63 -16q39 0 64 15.5t39.5 41t20.5 57.5
t6 64q0 30 -8 57.5t-24 48.5t-40.5 34t-57.5 13t-57 -13t-40 -34.5t-24 -49t-8 -56.5zM129 603q0 23 7.5 44.5t21 38.5t32.5 27.5t41 10.5t41.5 -6t39.5 -14t36.5 -15t36.5 -7q23 0 33.5 14.5t10.5 34.5h54q0 -51 -25 -86t-72 -35q-28 0 -47 5t-39 13q-19 8 -36.5 13.5
t-31.5 5.5q-26 0 -37.5 -15t-11.5 -29h-54z" />
    <glyph glyph-name="odieresis" unicode="&#xf6;" horiz-adv-x="611" 
d="M36 254q0 64 20.5 114.5t57 86t85.5 54t106 18.5t106.5 -18.5t86 -54t57 -86t20.5 -114.5q0 -55 -18 -103.5t-52.5 -84.5t-85 -57t-114.5 -21t-114 21t-84.5 57t-52.5 84.5t-18 103.5zM176 270q0 -32 6 -63.5t20.5 -57t39.5 -41.5t63 -16q39 0 64 15.5t39.5 41t20.5 57.5
t6 64q0 30 -8 57.5t-24 48.5t-40.5 34t-57.5 13t-57 -13t-40 -34.5t-24 -49t-8 -56.5zM467 725v-116h-116v116h116zM145 609v116h116v-116h-116z" />
    <glyph glyph-name="divide" unicode="&#xf7;" horiz-adv-x="600" 
d="M46 201v104h508v-104h-508zM300 529q35 0 56 -21.5t21 -55.5t-21 -55.5t-56 -21.5t-56 21.5t-21 55.5t21 55.5t56 21.5zM300 -23q-35 0 -56 21.5t-21 55.5t21 55.5t56 21.5t56 -21.5t21 -55.5t-21 -55.5t-56 -21.5z" />
    <glyph glyph-name="oslash" unicode="&#xf8;" horiz-adv-x="611" 
d="M384 396q-14 12 -34 19.5t-45 7.5q-33 0 -57 -13t-40 -34.5t-24 -49t-8 -56.5q0 -26 4 -52.5t14 -49.5zM224 122q15 -14 35 -22t46 -8q39 0 64 15.5t39.5 41t20.5 57.5t6 64q0 47 -18 84zM553 517l-54 -65q36 -35 56 -85t20 -113q0 -55 -18 -103.5t-52.5 -84.5t-85 -57
t-114.5 -21q-47 0 -86 11.5t-71 31.5l-55 -66l-41 33l56 67q-35 35 -53.5 83.5t-18.5 105.5q0 64 20.5 114.5t57 86t85.5 54t106 18.5q87 0 154 -42l54 65z" />
    <glyph glyph-name="ugrave" unicode="&#xf9;" horiz-adv-x="611" 
d="M542 0h-127v70h-2q-31 -38 -73.5 -60t-95.5 -22q-46 0 -79 15.5t-54.5 42.5t-31.5 64t-10 80v325h134v-275q0 -24 1.5 -50t10 -47.5t26 -36t49.5 -14.5q36 0 59 17.5t36 43.5t18 55.5t5 54.5v252h134v-515zM384 585h-83l-137 146h137z" />
    <glyph glyph-name="uacute" unicode="&#xfa;" horiz-adv-x="611" 
d="M542 0h-127v70h-2q-31 -38 -73.5 -60t-95.5 -22q-46 0 -79 15.5t-54.5 42.5t-31.5 64t-10 80v325h134v-275q0 -24 1.5 -50t10 -47.5t26 -36t49.5 -14.5q36 0 59 17.5t36 43.5t18 55.5t5 54.5v252h134v-515zM338 731h137l-137 -146h-83z" />
    <glyph glyph-name="ucircumflex" unicode="&#xfb;" horiz-adv-x="611" 
d="M542 0h-127v70h-2q-31 -38 -73.5 -60t-95.5 -22q-46 0 -79 15.5t-54.5 42.5t-31.5 64t-10 80v325h134v-275q0 -24 1.5 -50t10 -47.5t26 -36t49.5 -14.5q36 0 59 17.5t36 43.5t18 55.5t5 54.5v252h134v-515zM467 585h-91l-68 88l-68 -88h-89l99 146h118z" />
    <glyph glyph-name="udieresis" unicode="&#xfc;" horiz-adv-x="611" 
d="M542 0h-127v70h-2q-31 -38 -73.5 -60t-95.5 -22q-46 0 -79 15.5t-54.5 42.5t-31.5 64t-10 80v325h134v-275q0 -24 1.5 -50t10 -47.5t26 -36t49.5 -14.5q36 0 59 17.5t36 43.5t18 55.5t5 54.5v252h134v-515zM467 725v-116h-116v116h116zM145 609v116h116v-116h-116z" />
    <glyph glyph-name="yacute" unicode="&#xfd;" 
d="M283 139h2l124 376h136l-193 -511q-16 -43 -32 -83.5t-39 -72t-56.5 -51t-86.5 -19.5q-47 0 -95 14l9 99q13 -5 28.5 -7t40.5 -2q41 0 64 25t23 67l-197 541h148zM312 731h137l-137 -146h-83z" />
    <glyph glyph-name="thorn" unicode="&#xfe;" horiz-adv-x="611" 
d="M69 750h134v-302h2q19 32 56.5 55.5t97.5 23.5q59 0 100.5 -22t67 -59t37 -85.5t11.5 -101.5t-11.5 -102t-37 -86.5t-67 -60t-100.5 -22.5q-58 0 -94 19.5t-60 50.5h-2v-268h-134v960zM324 423q-32 0 -55 -15.5t-37.5 -39.5t-21 -53t-6.5 -56t6 -56.5t19.5 -54
t36.5 -40.5t56 -16t55 16t34.5 41t18 54t5.5 56q0 26 -5 55t-18 53t-34 40t-54 16z" />
    <glyph glyph-name="ydieresis" unicode="&#xff;" 
d="M283 139h2l124 376h136l-193 -511q-16 -43 -32 -83.5t-39 -72t-56.5 -51t-86.5 -19.5q-47 0 -95 14l9 99q13 -5 28.5 -7t40.5 -2q41 0 64 25t23 67l-197 541h148zM439 725v-116h-116v116h116zM117 609v116h116v-116h-116z" />
    <glyph glyph-name="Amacron" unicode="&#x100;" horiz-adv-x="722" 
d="M358 558h-2l-101 -288h204zM281 698h158l274 -698h-155l-60 160h-283l-61 -160h-145zM215 753v80h288v-80h-288z" />
    <glyph glyph-name="amacron" unicode="&#x101;" 
d="M92 488q39 18 87.5 28.5t91.5 10.5q118 0 170 -51.5t52 -165.5v-66q0 -39 0.5 -69.5t1.5 -59.5t2.5 -57t3.5 -58h-118q-4 20 -4.5 42.5t-1.5 34.5h-2q-23 -43 -68 -66t-91 -23q-34 0 -66.5 10t-57.5 29.5t-40.5 48t-15.5 65.5q0 58 25 93t63 54t84.5 24.5t88.5 5.5h74
q0 63 -28 87t-88 24q-43 0 -84 -15t-75 -41zM164 149q0 -33 24.5 -48t60.5 -15q31 0 54.5 12.5t39.5 33.5q17 22 22.5 49t5.5 57h-58q-22 0 -48.5 -3t-48.5 -12t-37 -26.5t-15 -47.5zM142 618v80h288v-80h-288z" />
    <glyph glyph-name="Abreve" unicode="&#x102;" horiz-adv-x="722" 
d="M358 558h-2l-101 -288h204zM281 698h158l274 -698h-155l-60 160h-283l-61 -160h-145zM258 846q5 -28 34 -37t71 -9t71.5 9t35.5 37h62q-2 -24 -15.5 -44.5t-36 -35.5t-52.5 -23t-65 -8q-34 0 -64 8t-52.5 23t-35.5 35.5t-15 44.5h62z" />
    <glyph glyph-name="abreve" unicode="&#x103;" 
d="M92 488q39 18 87.5 28.5t91.5 10.5q118 0 170 -51.5t52 -165.5v-66q0 -39 0.5 -69.5t1.5 -59.5t2.5 -57t3.5 -58h-118q-4 20 -4.5 42.5t-1.5 34.5h-2q-23 -43 -68 -66t-91 -23q-34 0 -66.5 10t-57.5 29.5t-40.5 48t-15.5 65.5q0 58 25 93t63 54t84.5 24.5t88.5 5.5h74
q0 63 -28 87t-88 24q-43 0 -84 -15t-75 -41zM164 149q0 -33 24.5 -48t60.5 -15q31 0 54.5 12.5t39.5 33.5q17 22 22.5 49t5.5 57h-58q-22 0 -48.5 -3t-48.5 -12t-37 -26.5t-15 -47.5zM193 730q8 -38 34 -59t66 -21t66.5 21t35.5 59h62q-2 -34 -15.5 -62t-35 -48t-50.5 -31
t-63 -11q-33 0 -62 11t-51 31t-34.5 48t-14.5 62h62z" />
    <glyph glyph-name="Aogonek" unicode="&#x104;" horiz-adv-x="722" 
d="M358 558h-2l-101 -288h204zM713 0q-31 0 -48.5 -13.5t-28.5 -23.5q-20 -19 -32.5 -39.5t-12.5 -46.5q0 -20 15 -32.5t38 -12.5q14 0 29 2t37 10v-59q-29 -5 -46 -6t-36 -1q-58 0 -90.5 22.5t-32.5 67.5q0 48 29 80t65 52h-41l-60 160h-283l-61 -160h-145l272 698h158z
" />
    <glyph glyph-name="aogonek" unicode="&#x105;" 
d="M501 0q-34 0 -52 -13.5t-29 -23.5q-20 -19 -32.5 -39.5t-12.5 -46.5q0 -20 15 -32.5t38 -12.5q14 0 29 2t37 10v-59q-29 -5 -46 -6t-36 -1q-58 0 -90.5 22.5t-32.5 67.5q0 48 29 80t65 52q-4 20 -4.5 42.5t-1.5 34.5h-2q-23 -43 -68 -66t-91 -23q-34 0 -66.5 10
t-57.5 29.5t-40.5 48t-15.5 65.5q0 58 25 93t63 54t84.5 24.5t88.5 5.5h74q0 63 -28 87t-88 24q-43 0 -84 -15t-75 -41l-4 115q39 18 87.5 28.5t91.5 10.5q118 0 170 -51.5t52 -165.5v-66q0 -39 0.5 -69.5t1.5 -59.5t2.5 -57t3.5 -58zM164 149q0 -33 24.5 -48t60.5 -15
q31 0 54.5 12.5t39.5 33.5q17 22 22.5 49t5.5 57h-58q-22 0 -48.5 -3t-48.5 -12t-37 -26.5t-15 -47.5z" />
    <glyph glyph-name="Cacute" unicode="&#x106;" horiz-adv-x="611" 
d="M589 10q-38 -9 -78.5 -15.5t-80.5 -6.5q-85 0 -155.5 21.5t-121 64.5t-78.5 109t-28 154q0 90 26.5 159.5t76 117t120.5 72t160 24.5q35 0 77.5 -7t80.5 -22l-10 -118q-40 23 -76.5 30t-74.5 7q-54 0 -97.5 -19.5t-73.5 -53.5t-46.5 -80t-16.5 -100q0 -53 16 -98.5
t46.5 -79t74.5 -52.5t100 -19q42 0 85 8t68 21zM426 848h143l-137 -110h-89z" />
    <glyph glyph-name="cacute" unicode="&#x107;" horiz-adv-x="444" 
d="M403 404q-18 8 -39 13.5t-52 5.5q-63 0 -99.5 -45t-36.5 -118q0 -36 8.5 -66.5t26 -53t43.5 -35.5t61 -13q29 0 57.5 8t45.5 16l6 -111q-29 -9 -60.5 -13t-73.5 -4q-63 0 -111 20.5t-79.5 56.5t-47.5 86t-16 109q0 56 16.5 104.5t48 84.5t78 57t106.5 21q41 0 71.5 -4.5
t58.5 -12.5zM307 731h137l-137 -146h-83z" />
    <glyph glyph-name="Ccaron" unicode="&#x10c;" horiz-adv-x="611" 
d="M589 10q-38 -9 -78.5 -15.5t-80.5 -6.5q-85 0 -155.5 21.5t-121 64.5t-78.5 109t-28 154q0 90 26.5 159.5t76 117t120.5 72t160 24.5q35 0 77.5 -7t80.5 -22l-10 -118q-40 23 -76.5 30t-74.5 7q-54 0 -97.5 -19.5t-73.5 -53.5t-46.5 -80t-16.5 -100q0 -53 16 -98.5
t46.5 -79t74.5 -52.5t100 -19q42 0 85 8t68 21zM350 738l-93 110h95l64 -65l64 65h93l-93 -110h-130z" />
    <glyph glyph-name="ccaron" unicode="&#x10d;" horiz-adv-x="444" 
d="M403 404q-18 8 -39 13.5t-52 5.5q-63 0 -99.5 -45t-36.5 -118q0 -36 8.5 -66.5t26 -53t43.5 -35.5t61 -13q29 0 57.5 8t45.5 16l6 -111q-29 -9 -60.5 -13t-73.5 -4q-63 0 -111 20.5t-79.5 56.5t-47.5 86t-16 109q0 56 16.5 104.5t48 84.5t78 57t106.5 21q41 0 71.5 -4.5
t58.5 -12.5zM224 585l-99 146h91l68 -88l68 88h89l-99 -146h-118z" />
    <glyph glyph-name="Dcaron" unicode="&#x10e;" horiz-adv-x="722" 
d="M81 698h191q80 0 153 -15.5t128.5 -55t88.5 -107t33 -171.5t-33 -171.5t-88.5 -107t-128.5 -55t-153 -15.5h-191v698zM221 110h78q44 0 85.5 16t73.5 46.5t51.5 75t19.5 101.5t-19.5 101.5t-51.5 75t-73.5 46.5t-85.5 16h-78v-478zM243 738l-93 110h95l64 -65l64 65h93
l-93 -110h-130z" />
    <glyph glyph-name="dcaron" unicode="&#x10f;" horiz-adv-x="671" 
d="M176 259q0 -27 5.5 -56t18 -54t34.5 -41t55 -16t56 16t36.5 40.5t19.5 54t6 56.5t-6.5 56t-21 53t-37.5 39.5t-55 15.5q-33 0 -54 -16t-34 -40t-18 -53t-5 -55zM412 58h-2q-30 -38 -70 -54t-88 -16q-59 0 -100.5 22.5t-67 60t-37 86.5t-11.5 102t11.5 101.5t37 85.5
t67 59t100.5 22q51 0 87.5 -17.5t66.5 -54.5h2v295h134v-750h-130v58zM629 750h89l-54 -172h-71z" />
    <glyph glyph-name="Dcroat" unicode="&#x110;" horiz-adv-x="722" 
d="M81 336h-64v86h64v276h191q80 0 153 -15.5t128.5 -55t88.5 -107t33 -171.5t-33 -171.5t-88.5 -107t-128.5 -55t-153 -15.5h-191v336zM221 110h78q44 0 85.5 16t73.5 46.5t51.5 75t19.5 101.5t-19.5 101.5t-51.5 75t-73.5 46.5t-85.5 16h-78v-166h146v-86h-146v-226z" />
    <glyph glyph-name="dcroat" unicode="&#x111;" horiz-adv-x="611" 
d="M176 259q0 -27 5.5 -56t18 -54t34.5 -41t55 -16t56 16t36.5 40.5t19.5 54t6 56.5t-6.5 56t-21 53t-37.5 39.5t-55 15.5q-33 0 -54 -16t-34 -40t-18 -53t-5 -55zM643 650v-86h-101v-564h-130v58h-2q-30 -38 -70 -54t-88 -16q-59 0 -100.5 22.5t-67 60t-37 86.5t-11.5 102
t11.5 101.5t37 85.5t67 59t100.5 22q51 0 87.5 -17.5t66.5 -54.5h2v109h-157v86h157v100h134v-100h101z" />
    <glyph glyph-name="Emacron" unicode="&#x112;" 
d="M81 698h412v-110h-272v-172h249v-110h-249v-196h274v-110h-414v698zM152 753v80h288v-80h-288z" />
    <glyph glyph-name="emacron" unicode="&#x113;" 
d="M392 308q-1 24 -8 46t-20 38.5t-33 26.5t-48 10q-57 0 -85.5 -34.5t-33.5 -86.5h228zM482 29q-37 -20 -80 -30.5t-97 -10.5q-128 0 -198.5 69.5t-70.5 197.5q0 56 15 105.5t44.5 86.5t74.5 58.5t105 21.5q72 0 119 -23.5t75 -64.5t39.5 -98t11.5 -125h-356
q5 -63 44.5 -96.5t102.5 -33.5q49 0 91 15.5t80 36.5v-109zM139 618v80h288v-80h-288z" />
    <glyph glyph-name="Edotaccent" unicode="&#x116;" 
d="M81 698h412v-110h-272v-172h249v-110h-249v-196h274v-110h-414v698zM237 738v116h116v-116h-116z" />
    <glyph glyph-name="edotaccent" unicode="&#x117;" 
d="M392 308q-1 24 -8 46t-20 38.5t-33 26.5t-48 10q-57 0 -85.5 -34.5t-33.5 -86.5h228zM482 29q-37 -20 -80 -30.5t-97 -10.5q-128 0 -198.5 69.5t-70.5 197.5q0 56 15 105.5t44.5 86.5t74.5 58.5t105 21.5q72 0 119 -23.5t75 -64.5t39.5 -98t11.5 -125h-356
q5 -63 44.5 -96.5t102.5 -33.5q49 0 91 15.5t80 36.5v-109zM223 609v116h116v-116h-116z" />
    <glyph glyph-name="Eogonek" unicode="&#x118;" 
d="M495 0q-29 0 -46.5 -13.5t-28.5 -23.5q-20 -19 -32.5 -39.5t-12.5 -46.5q0 -20 15 -32.5t38 -12.5q14 0 29 2t37 10v-59q-29 -5 -46 -6t-36 -1q-58 0 -90.5 22.5t-32.5 67.5q0 48 29 80t65 52h-302v698h412v-110h-272v-172h249v-110h-249v-196h274v-110z" />
    <glyph glyph-name="eogonek" unicode="&#x119;" 
d="M392 308q-1 24 -8 46t-20 38.5t-33 26.5t-48 10q-57 0 -85.5 -34.5t-33.5 -86.5h228zM333 -37q-20 -19 -32.5 -39.5t-12.5 -46.5q0 -20 15 -32.5t38 -12.5q14 0 29 2t37 10v-59q-29 -5 -46 -6t-36 -1q-58 0 -90.5 22.5t-32.5 67.5q0 42 22.5 71.5t53.5 49.5
q-115 8 -178.5 76.5t-63.5 189.5q0 56 15 105.5t44.5 86.5t74.5 58.5t105 21.5q72 0 119 -23.5t75 -64.5t39.5 -98t11.5 -125h-356q5 -63 44.5 -96.5t102.5 -33.5q49 0 91 15.5t80 36.5v-109q-34 -19 -75 -30q-26 -5 -42.5 -13.5t-31.5 -22.5z" />
    <glyph glyph-name="Ecaron" unicode="&#x11a;" 
d="M81 698h412v-110h-272v-172h249v-110h-249v-196h274v-110h-414v698zM235 738l-93 110h95l64 -65l64 65h93l-93 -110h-130z" />
    <glyph glyph-name="ecaron" unicode="&#x11b;" 
d="M392 308q-1 24 -8 46t-20 38.5t-33 26.5t-48 10q-57 0 -85.5 -34.5t-33.5 -86.5h228zM482 29q-37 -20 -80 -30.5t-97 -10.5q-128 0 -198.5 69.5t-70.5 197.5q0 56 15 105.5t44.5 86.5t74.5 58.5t105 21.5q72 0 119 -23.5t75 -64.5t39.5 -98t11.5 -125h-356
q5 -63 44.5 -96.5t102.5 -33.5q49 0 91 15.5t80 36.5v-109zM225 585l-99 146h91l68 -88l68 88h89l-99 -146h-118z" />
    <glyph glyph-name="Gbreve" unicode="&#x11e;" horiz-adv-x="722" 
d="M626 563q-41 19 -89.5 28t-90.5 9q-61 0 -108 -19.5t-79.5 -53.5t-49 -80t-16.5 -100q0 -53 16 -98.5t46.5 -79t74.5 -52.5t100 -19q29 0 51.5 2.5t40.5 7.5v182h-148v110h282v-376q-56 -15 -112.5 -25.5t-113.5 -10.5q-85 0 -155.5 21.5t-121 64.5t-78.5 109t-28 154
q0 90 26.5 159.5t76 117t120.5 72t160 24.5q61 0 110.5 -7.5t94.5 -21.5zM316 846q5 -28 34 -37t71 -9t71.5 9t35.5 37h62q-2 -24 -15.5 -44.5t-36 -35.5t-52.5 -23t-65 -8q-34 0 -64 8t-52.5 23t-35.5 35.5t-15 44.5h62z" />
    <glyph glyph-name="gbreve" unicode="&#x11f;" horiz-adv-x="611" 
d="M290 104q32 0 54 13t36.5 34.5t21 50.5t6.5 61q0 33 -6.5 62t-20 51t-35 34.5t-50.5 12.5q-34 0 -57 -14.5t-37 -37.5t-20 -52t-6 -59q0 -26 7 -54t21 -50.5t35.5 -37t50.5 -14.5zM542 515v-465q0 -53 -12 -102t-43 -86.5t-83.5 -60.5t-133.5 -23q-40 0 -85 7.5t-93 27.5
l11 114q15 -8 34.5 -16t40 -14.5t40 -10.5t35.5 -4q56 0 87 18.5t46 48t18.5 65t3.5 68.5h-2q-19 -33 -61 -57.5t-99 -24.5t-97 21t-65 57t-36.5 83t-11.5 99q0 47 12.5 94.5t39 85.5t67.5 62.5t99 24.5q51 0 90.5 -18.5t67.5 -63.5h2v70h128zM206 730q8 -38 34 -59t66 -21
t66.5 21t35.5 59h62q-2 -34 -15.5 -62t-35 -48t-50.5 -31t-63 -11q-33 0 -62 11t-51 31t-34.5 48t-14.5 62h62z" />
    <glyph glyph-name="Gcommaaccent" unicode="&#x122;" horiz-adv-x="722" 
d="M626 563q-41 19 -89.5 28t-90.5 9q-61 0 -108 -19.5t-79.5 -53.5t-49 -80t-16.5 -100q0 -53 16 -98.5t46.5 -79t74.5 -52.5t100 -19q29 0 51.5 2.5t40.5 7.5v182h-148v110h282v-376q-56 -15 -112.5 -25.5t-113.5 -10.5q-85 0 -155.5 21.5t-121 64.5t-78.5 109t-28 154
q0 90 26.5 159.5t76 117t120.5 72t160 24.5q61 0 110.5 -7.5t94.5 -21.5zM363 -37h98l-51 -144h-83z" />
    <glyph glyph-name="gcommaaccent" unicode="&#x123;" horiz-adv-x="611" 
d="M290 104q32 0 54 13t36.5 34.5t21 50.5t6.5 61q0 33 -6.5 62t-20 51t-35 34.5t-50.5 12.5q-34 0 -57 -14.5t-37 -37.5t-20 -52t-6 -59q0 -26 7 -54t21 -50.5t35.5 -37t50.5 -14.5zM542 515v-465q0 -53 -12 -102t-43 -86.5t-83.5 -60.5t-133.5 -23q-40 0 -85 7.5t-93 27.5
l11 114q15 -8 34.5 -16t40 -14.5t40 -10.5t35.5 -4q56 0 87 18.5t46 48t18.5 65t3.5 68.5h-2q-19 -33 -61 -57.5t-99 -24.5t-97 21t-65 57t-36.5 83t-11.5 99q0 47 12.5 94.5t39 85.5t67.5 62.5t99 24.5q51 0 90.5 -18.5t67.5 -63.5h2v70h128zM297 731h83l-36 -144h-98z" />
    <glyph glyph-name="Imacron" unicode="&#x12a;" horiz-adv-x="278" 
d="M69 698h140v-698h-140v698zM13 753v80h253v-80h-253z" />
    <glyph glyph-name="imacron" unicode="&#x12b;" horiz-adv-x="278" 
d="M72 0v515h134v-515h-134zM13 618v80h253v-80h-253z" />
    <glyph glyph-name="Iogonek" unicode="&#x12e;" horiz-adv-x="278" 
d="M209 0q-19 0 -35 -13.5t-27 -23.5q-20 -19 -32.5 -39.5t-12.5 -46.5q0 -20 15 -32.5t38 -12.5q14 0 29 2t37 10v-59q-29 -5 -46 -6t-36 -1q-58 0 -90.5 22.5t-32.5 67.5q0 48 29 80t65 52h-41v698h140v-698z" />
    <glyph glyph-name="iogonek" unicode="&#x12f;" horiz-adv-x="278" 
d="M72 737h134v-128h-134v128zM206 0q-18 0 -34 -13.5t-27 -23.5q-20 -19 -32.5 -39.5t-12.5 -46.5q0 -20 15 -32.5t38 -12.5q14 0 29 2t37 10v-59q-29 -5 -46 -6t-36 -1q-58 0 -90.5 22.5t-32.5 67.5q0 48 29 80t65 52h-36v515h134v-515z" />
    <glyph glyph-name="Idotaccent" unicode="&#x130;" horiz-adv-x="278" 
d="M69 698h140v-698h-140v698zM79 738v116h116v-116h-116z" />
    <glyph glyph-name="dotlessi" unicode="&#x131;" horiz-adv-x="278" 
d="M72 0v515h134v-515h-134z" />
    <glyph glyph-name="Kcommaaccent" unicode="&#x136;" horiz-adv-x="667" 
d="M81 698h140v-300l252 300h172l-287 -329l299 -369h-183l-251 324h-2v-324h-140v698zM305 -37h98l-51 -144h-83z" />
    <glyph glyph-name="kcommaaccent" unicode="&#x137;" 
d="M72 750h134v-441h2l160 206h158l-192 -230l216 -285h-170l-172 250h-2v-250h-134v750zM245 -37h98l-51 -144h-83z" />
    <glyph glyph-name="Lacute" unicode="&#x139;" horiz-adv-x="500" 
d="M81 698h140v-588h271v-110h-411v698zM281 848h143l-137 -110h-89z" />
    <glyph glyph-name="lacute" unicode="&#x13a;" horiz-adv-x="278" 
d="M72 750h134v-750h-134v750zM144 848h138l-114 -86h-89z" />
    <glyph glyph-name="Lcommaaccent" unicode="&#x13b;" horiz-adv-x="500" 
d="M81 698h140v-588h271v-110h-411v698zM264 -37h98l-51 -144h-83z" />
    <glyph glyph-name="lcommaaccent" unicode="&#x13c;" horiz-adv-x="278" 
d="M72 750h134v-750h-134v750zM113 -37h98l-51 -144h-83z" />
    <glyph glyph-name="Lcaron" unicode="&#x13d;" horiz-adv-x="500" 
d="M81 698h140v-588h271v-110h-411v698zM307 750h89l-54 -172h-71z" />
    <glyph glyph-name="lcaron" unicode="&#x13e;" horiz-adv-x="328" 
d="M72 750h134v-750h-134v750zM292 750h89l-54 -172h-71z" />
    <glyph glyph-name="Lslash" unicode="&#x141;" horiz-adv-x="500" 
d="M81 227l-73 -44v92l73 44v379h140v-296l168 100v-92l-168 -100v-200h271v-110h-411v227z" />
    <glyph glyph-name="lslash" unicode="&#x142;" horiz-adv-x="278" 
d="M72 363l-72 -43v92l72 43v295h134v-215l72 43v-92l-72 -43v-443h-134v363z" />
    <glyph glyph-name="Nacute" unicode="&#x143;" horiz-adv-x="722" 
d="M74 698h172l266 -522h2v522h134v-698h-171l-267 522h-2v-522h-134v698zM388 848h143l-137 -110h-89z" />
    <glyph glyph-name="nacute" unicode="&#x144;" horiz-adv-x="611" 
d="M69 515h127v-70h2q32 45 74 63.5t95 18.5q46 0 79 -15t54.5 -42t31.5 -64t10 -81v-325h-134v275q0 24 -1.5 50t-9.5 47.5t-26 36t-50 14.5q-36 0 -59 -17.5t-36 -43.5t-18 -55.5t-5 -54.5v-252h-134v515zM339 731h137l-137 -146h-83z" />
    <glyph glyph-name="Ncommaaccent" unicode="&#x145;" horiz-adv-x="722" 
d="M74 698h172l266 -522h2v522h134v-698h-171l-267 522h-2v-522h-134v698zM340 -37h98l-51 -144h-83z" />
    <glyph glyph-name="ncommaaccent" unicode="&#x146;" horiz-adv-x="611" 
d="M69 515h127v-70h2q32 45 74 63.5t95 18.5q46 0 79 -15t54.5 -42t31.5 -64t10 -81v-325h-134v275q0 24 -1.5 50t-9.5 47.5t-26 36t-50 14.5q-36 0 -59 -17.5t-36 -43.5t-18 -55.5t-5 -54.5v-252h-134v515zM267 -37h98l-51 -144h-83z" />
    <glyph glyph-name="Ncaron" unicode="&#x147;" horiz-adv-x="722" 
d="M74 698h172l266 -522h2v522h134v-698h-171l-267 522h-2v-522h-134v698zM296 738l-93 110h95l64 -65l64 65h93l-93 -110h-130z" />
    <glyph glyph-name="ncaron" unicode="&#x148;" horiz-adv-x="611" 
d="M69 515h127v-70h2q32 45 74 63.5t95 18.5q46 0 79 -15t54.5 -42t31.5 -64t10 -81v-325h-134v275q0 24 -1.5 50t-9.5 47.5t-26 36t-50 14.5q-36 0 -59 -17.5t-36 -43.5t-18 -55.5t-5 -54.5v-252h-134v515zM253 585l-99 146h91l68 -88l68 88h89l-99 -146h-118z" />
    <glyph glyph-name="Omacron" unicode="&#x14c;" horiz-adv-x="778" 
d="M47 351q0 80 22 146.5t65.5 113.5t107.5 73t147 26q82 0 146 -26.5t107.5 -74t66 -113.5t22.5 -145t-22.5 -145.5t-66 -115t-107 -75.5t-146.5 -27q-84 0 -148 26.5t-107 74.5t-65 115t-22 147zM193 351q0 -47 10.5 -92.5t34 -81t60.5 -57.5t91 -22t91 22t60.5 57.5
t34 81t10.5 92.5q0 46 -11 90.5t-35 80t-61 57t-89 21.5t-89 -21.5t-61 -57t-35 -80t-11 -90.5zM247 753v80h288v-80h-288z" />
    <glyph glyph-name="omacron" unicode="&#x14d;" horiz-adv-x="611" 
d="M36 254q0 64 20.5 114.5t57 86t85.5 54t106 18.5t106.5 -18.5t86 -54t57 -86t20.5 -114.5q0 -55 -18 -103.5t-52.5 -84.5t-85 -57t-114.5 -21t-114 21t-84.5 57t-52.5 84.5t-18 103.5zM176 270q0 -32 6 -63.5t20.5 -57t39.5 -41.5t63 -16q39 0 64 15.5t39.5 41t20.5 57.5
t6 64q0 30 -8 57.5t-24 48.5t-40.5 34t-57.5 13t-57 -13t-40 -34.5t-24 -49t-8 -56.5zM164 618v80h288v-80h-288z" />
    <glyph glyph-name="Ohungarumlaut" unicode="&#x150;" horiz-adv-x="778" 
d="M47 351q0 80 22 146.5t65.5 113.5t107.5 73t147 26q82 0 146 -26.5t107.5 -74t66 -113.5t22.5 -145t-22.5 -145.5t-66 -115t-107 -75.5t-146.5 -27q-84 0 -148 26.5t-107 74.5t-65 115t-22 147zM193 351q0 -47 10.5 -92.5t34 -81t60.5 -57.5t91 -22t91 22t60.5 57.5
t34 81t10.5 92.5q0 46 -11 90.5t-35 80t-61 57t-89 21.5t-89 -21.5t-61 -57t-35 -80t-11 -90.5zM309 848h140l-137 -110h-86zM520 848h141l-137 -110h-87z" />
    <glyph glyph-name="ohungarumlaut" unicode="&#x151;" horiz-adv-x="611" 
d="M36 254q0 64 20.5 114.5t57 86t85.5 54t106 18.5t106.5 -18.5t86 -54t57 -86t20.5 -114.5q0 -55 -18 -103.5t-52.5 -84.5t-85 -57t-114.5 -21t-114 21t-84.5 57t-52.5 84.5t-18 103.5zM176 270q0 -32 6 -63.5t20.5 -57t39.5 -41.5t63 -16q39 0 64 15.5t39.5 41t20.5 57.5
t6 64q0 30 -8 57.5t-24 48.5t-40.5 34t-57.5 13t-57 -13t-40 -34.5t-24 -49t-8 -56.5zM235 731h137l-137 -146h-83zM432 731h137l-137 -146h-83z" />
    <glyph glyph-name="OE" unicode="&#x152;" horiz-adv-x="944" 
d="M490 588q-16 2 -34 4t-40 2q-53 0 -94.5 -18t-70 -50.5t-43.5 -78.5t-15 -102q0 -51 14.5 -95t43 -76.5t71 -51t98.5 -18.5q23 0 39 2t31 4v478zM890 588h-260v-172h238v-110h-238v-196h264v-110h-265q-57 0 -112 -3t-112 -3q-64 0 -128 13.5t-115 52t-83 107t-32 178.5
q0 90 26.5 157.5t76 112t119 67t154.5 22.5q52 0 103 -3t103 -3h261v-110z" />
    <glyph glyph-name="oe" unicode="&#x153;" horiz-adv-x="944" 
d="M176 257q0 -31 6.5 -61.5t21.5 -55t39.5 -39.5t61.5 -15t62.5 14.5t41 38t22.5 54t7 62.5t-6.5 63.5t-22.5 56t-41 39.5t-63 15q-34 0 -58.5 -16t-40.5 -41t-23 -55.5t-7 -59.5zM572 216q2 -66 42 -98t101 -32q83 0 153 51l4 -109q-6 -4 -18.5 -10.5t-32 -13t-47 -11.5
t-63.5 -5q-65 0 -120.5 17t-88.5 68q-19 -27 -44 -44t-51 -26t-52.5 -12t-49.5 -3q-64 0 -114 21t-84.5 57t-52.5 84.5t-18 103.5q0 64 20.5 114.5t57 86t85.5 54t106 18.5q60 0 110 -21.5t82 -66.5q30 45 78.5 66.5t101.5 21.5q70 0 115 -26t70.5 -69t35.5 -99t10 -117
h-336zM780 308q-1 24 -6.5 46t-17.5 38.5t-31.5 26.5t-46.5 10q-25 0 -45 -10t-33.5 -27t-20.5 -39t-7 -45h208z" />
    <glyph glyph-name="Racute" unicode="&#x154;" horiz-adv-x="611" 
d="M209 400h46q26 0 52.5 3t47.5 13t34.5 29t13.5 52q0 32 -13.5 50t-34.5 27t-47.5 11.5t-52.5 2.5h-46v-188zM69 698h151q56 0 114.5 -2t106 -19.5t78 -56t30.5 -111.5q0 -62 -38.5 -107.5t-105.5 -54.5v-2q29 -2 46 -25.5t28 -46.5l112 -273h-156l-84 218
q-15 39 -34 55.5t-63 16.5h-45v-290h-140v698zM311 848h143l-137 -110h-89z" />
    <glyph glyph-name="racute" unicode="&#x155;" horiz-adv-x="389" 
d="M72 515h119v-117h2q2 18 13 40.5t29.5 42t43.5 33t55 13.5q10 0 20 -0.5t21 -3.5v-135q-9 5 -25.5 8t-34.5 3q-41 0 -63 -22.5t-32.5 -55t-12 -68.5t-1.5 -64v-189h-134v515zM249 731h137l-137 -146h-83z" />
    <glyph glyph-name="Rcommaaccent" unicode="&#x156;" horiz-adv-x="611" 
d="M209 400h46q26 0 52.5 3t47.5 13t34.5 29t13.5 52q0 32 -13.5 50t-34.5 27t-47.5 11.5t-52.5 2.5h-46v-188zM69 698h151q56 0 114.5 -2t106 -19.5t78 -56t30.5 -111.5q0 -62 -38.5 -107.5t-105.5 -54.5v-2q29 -2 46 -25.5t28 -46.5l112 -273h-156l-84 218
q-15 39 -34 55.5t-63 16.5h-45v-290h-140v698zM281 -37h98l-51 -144h-83z" />
    <glyph glyph-name="rcommaaccent" unicode="&#x157;" horiz-adv-x="389" 
d="M72 515h119v-117h2q2 18 13 40.5t29.5 42t43.5 33t55 13.5q10 0 20 -0.5t21 -3.5v-135q-9 5 -25.5 8t-34.5 3q-41 0 -63 -22.5t-32.5 -55t-12 -68.5t-1.5 -64v-189h-134v515zM179 -37h98l-51 -144h-83z" />
    <glyph glyph-name="Rcaron" unicode="&#x158;" horiz-adv-x="611" 
d="M209 400h46q26 0 52.5 3t47.5 13t34.5 29t13.5 52q0 32 -13.5 50t-34.5 27t-47.5 11.5t-52.5 2.5h-46v-188zM69 698h151q56 0 114.5 -2t106 -19.5t78 -56t30.5 -111.5q0 -62 -38.5 -107.5t-105.5 -54.5v-2q29 -2 46 -25.5t28 -46.5l112 -273h-156l-84 218
q-15 39 -34 55.5t-63 16.5h-45v-290h-140v698zM214 738l-93 110h95l64 -65l64 65h93l-93 -110h-130z" />
    <glyph glyph-name="rcaron" unicode="&#x159;" horiz-adv-x="389" 
d="M72 515h119v-117h2q2 18 13 40.5t29.5 42t43.5 33t55 13.5q10 0 20 -0.5t21 -3.5v-135q-9 5 -25.5 8t-34.5 3q-41 0 -63 -22.5t-32.5 -55t-12 -68.5t-1.5 -64v-189h-134v515zM169 585l-99 146h91l68 -88l68 88h89l-99 -146h-118z" />
    <glyph glyph-name="Sacute" unicode="&#x15a;" 
d="M456 570q-33 14 -69 22t-73 8q-18 0 -37.5 -4.5t-35.5 -15.5t-26.5 -29.5t-10.5 -47.5q0 -30 22.5 -48t56.5 -32.5t74 -29t74 -38.5t56.5 -60.5t22.5 -95.5q0 -57 -21 -97.5t-57 -65.5t-83.5 -36.5t-100.5 -11.5q-28 0 -50 2t-42 5.5t-40.5 8.5t-46.5 11l13 126
q36 -20 76 -31.5t82 -11.5q20 0 42 5t40 16t30 28t12 41q0 33 -22.5 53t-56.5 35t-74 30t-74 38t-56.5 59t-22.5 94q0 59 21 99.5t55 65.5t78 36.5t90 11.5q92 0 167 -25zM325 848h143l-137 -110h-89z" />
    <glyph glyph-name="sacute" unicode="&#x15b;" horiz-adv-x="444" 
d="M375 407q-31 11 -57 16.5t-63 5.5q-13 0 -27.5 -2.5t-25.5 -9.5t-18.5 -17.5t-7.5 -27.5q0 -20 17.5 -31.5t43 -20t56 -17.5t56 -26.5t43 -46t17.5 -74.5q0 -45 -18.5 -77t-48.5 -52t-69 -29.5t-80 -9.5q-38 0 -76.5 6t-75.5 16l8 110q32 -16 64.5 -25t67.5 -9q13 0 28 3
t28.5 10t22.5 19t9 31q0 25 -17.5 38t-43 22t-56 17t-56 24t-43 43.5t-17.5 73.5q0 42 17 72t45 49.5t64.5 29t75.5 9.5q48 0 81 -6t65 -13zM254 731h137l-137 -146h-83z" />
    <glyph glyph-name="Scedilla" unicode="&#x15e;" 
d="M271 -53l2 -2q9 2 19.5 4t21.5 2q29 0 54.5 -17t25.5 -52q0 -29 -11 -49t-29 -32t-40.5 -17.5t-44.5 -5.5q-43 0 -69.5 6t-46.5 15l20 54q14 -5 31.5 -10t38.5 -5q19 0 36 7.5t17 27.5t-13.5 28t-30.5 8q-11 0 -22.5 -3t-19.5 -6l-15 26l49 62q-27 0 -48.5 2t-41 5.5
t-39.5 8.5t-46 11l13 126q36 -20 76 -31.5t82 -11.5q20 0 42 5t40 16t30 28t12 41q0 33 -22.5 53t-56.5 35t-74 30t-74 38t-56.5 59t-22.5 94q0 59 21 99.5t55 65.5t78 36.5t90 11.5q92 0 167 -25l-13 -115q-33 14 -69 22t-73 8q-18 0 -37.5 -4.5t-35.5 -15.5t-26.5 -29.5
t-10.5 -47.5q0 -30 22.5 -48t56.5 -32.5t74 -29t74 -38.5t56.5 -60.5t22.5 -95.5q0 -49 -15.5 -85t-42.5 -61t-63.5 -40t-78.5 -21z" />
    <glyph glyph-name="scedilla" unicode="&#x15f;" horiz-adv-x="444" 
d="M218 -53l2 -2q9 2 19.5 4t21.5 2q29 0 54.5 -17t25.5 -52q0 -29 -11 -49t-29 -32t-40.5 -17.5t-44.5 -5.5q-43 0 -69.5 6t-46.5 15l20 54q14 -5 31.5 -10t38.5 -5q19 0 36 7.5t17 27.5t-13.5 28t-30.5 8q-11 0 -22.5 -3t-19.5 -6l-15 26l49 62q-38 0 -76 6t-74 16l8 110
q32 -16 64.5 -25t67.5 -9q13 0 28 3t28.5 10t22.5 19t9 31q0 25 -17.5 38t-43 22t-56 17t-56 24t-43 43.5t-17.5 73.5q0 42 17 72t45 49.5t64.5 29t75.5 9.5q48 0 81 -6t65 -13l-9 -101q-31 11 -57 16.5t-63 5.5q-13 0 -27.5 -2.5t-25.5 -9.5t-18.5 -17.5t-7.5 -27.5
q0 -20 17.5 -31.5t43 -20t56 -17.5t56 -26.5t43 -46t17.5 -74.5q0 -36 -12 -63t-32.5 -47t-47.5 -33t-58 -19z" />
    <glyph glyph-name="Scaron" unicode="&#x160;" 
d="M456 570q-33 14 -69 22t-73 8q-18 0 -37.5 -4.5t-35.5 -15.5t-26.5 -29.5t-10.5 -47.5q0 -30 22.5 -48t56.5 -32.5t74 -29t74 -38.5t56.5 -60.5t22.5 -95.5q0 -57 -21 -97.5t-57 -65.5t-83.5 -36.5t-100.5 -11.5q-28 0 -50 2t-42 5.5t-40.5 8.5t-46.5 11l13 126
q36 -20 76 -31.5t82 -11.5q20 0 42 5t40 16t30 28t12 41q0 33 -22.5 53t-56.5 35t-74 30t-74 38t-56.5 59t-22.5 94q0 59 21 99.5t55 65.5t78 36.5t90 11.5q92 0 167 -25zM230 738l-93 110h95l64 -65l64 65h93l-93 -110h-130z" />
    <glyph glyph-name="scaron" unicode="&#x161;" horiz-adv-x="444" 
d="M375 407q-31 11 -57 16.5t-63 5.5q-13 0 -27.5 -2.5t-25.5 -9.5t-18.5 -17.5t-7.5 -27.5q0 -20 17.5 -31.5t43 -20t56 -17.5t56 -26.5t43 -46t17.5 -74.5q0 -45 -18.5 -77t-48.5 -52t-69 -29.5t-80 -9.5q-38 0 -76.5 6t-75.5 16l8 110q32 -16 64.5 -25t67.5 -9q13 0 28 3
t28.5 10t22.5 19t9 31q0 25 -17.5 38t-43 22t-56 17t-56 24t-43 43.5t-17.5 73.5q0 42 17 72t45 49.5t64.5 29t75.5 9.5q48 0 81 -6t65 -13zM169 585l-99 146h91l68 -88l68 88h89l-99 -146h-118z" />
    <glyph glyph-name="Tcommaaccent" unicode="&#x162;" 
d="M208 588h-200v110h540v-110h-200v-588h-140v588zM249 -37h98l-51 -144h-83z" />
    <glyph glyph-name="tcommaaccent" unicode="&#x163;" horiz-adv-x="389" 
d="M113 417h-99v98h99v103l134 43v-146h119v-98h-119v-240q0 -16 2.5 -31.5t9.5 -27.5t19.5 -19t31.5 -7q18 0 34 3.5t27 10.5l4 -106q-21 -6 -45 -9t-54 -3q-79 0 -121 45t-42 122v262zM215 -37h98l-51 -144h-83z" />
    <glyph glyph-name="Tcaron" unicode="&#x164;" 
d="M208 588h-200v110h540v-110h-200v-588h-140v588zM213 738l-93 110h95l64 -65l64 65h93l-93 -110h-130z" />
    <glyph glyph-name="tcaron" unicode="&#x165;" horiz-adv-x="389" 
d="M113 417h-99v98h99v103l134 43v-146h119v-98h-119v-240q0 -16 2.5 -31.5t9.5 -27.5t19.5 -19t31.5 -7q18 0 34 3.5t27 10.5l4 -106q-21 -6 -45 -9t-54 -3q-79 0 -121 45t-42 122v262zM337 750h89l-54 -172h-71z" />
    <glyph glyph-name="Umacron" unicode="&#x16a;" horiz-adv-x="722" 
d="M76 698h140v-403q0 -45 7.5 -81t25 -62t45 -40t67.5 -14t67.5 14t45 40t25 62t7.5 81v403h140v-446q0 -70 -19.5 -120t-56 -82t-89.5 -47t-120 -15t-120 15t-89.5 47t-56 82t-19.5 120v446zM219 753v80h288v-80h-288z" />
    <glyph glyph-name="umacron" unicode="&#x16b;" horiz-adv-x="611" 
d="M542 0h-127v70h-2q-31 -38 -73.5 -60t-95.5 -22q-46 0 -79 15.5t-54.5 42.5t-31.5 64t-10 80v325h134v-275q0 -24 1.5 -50t10 -47.5t26 -36t49.5 -14.5q36 0 59 17.5t36 43.5t18 55.5t5 54.5v252h134v-515zM174 618v80h288v-80h-288z" />
    <glyph glyph-name="Uring" unicode="&#x16e;" horiz-adv-x="722" 
d="M76 698h140v-403q0 -45 7.5 -81t25 -62t45 -40t67.5 -14t67.5 14t45 40t25 62t7.5 81v403h140v-446q0 -70 -19.5 -120t-56 -82t-89.5 -47t-120 -15t-120 15t-89.5 47t-56 82t-19.5 120v446zM275 784q0 35 25.5 60.5t60.5 25.5t60 -25.5t25 -60.5t-25 -60t-60 -25
t-60.5 25t-25.5 60zM318 784q0 -17 12.5 -29.5t30.5 -12.5q17 0 29 12.5t12 29.5q0 18 -12 30t-29 12q-18 0 -30.5 -12t-12.5 -30z" />
    <glyph glyph-name="uring" unicode="&#x16f;" horiz-adv-x="611" 
d="M542 0h-127v70h-2q-31 -38 -73.5 -60t-95.5 -22q-46 0 -79 15.5t-54.5 42.5t-31.5 64t-10 80v325h134v-275q0 -24 1.5 -50t10 -47.5t26 -36t49.5 -14.5q36 0 59 17.5t36 43.5t18 55.5t5 54.5v252h134v-515zM202 651q0 22 8.5 41.5t23 34t34 23t41.5 8.5t41.5 -8.5
t33.5 -23t22.5 -34t8.5 -41.5t-8.5 -41.5t-22.5 -33.5t-33.5 -22.5t-41.5 -8.5t-41.5 8.5t-34 22.5t-23 33.5t-8.5 41.5zM256 651q0 -22 15 -37t38 -15q22 0 37 15t15 37q0 23 -15 38t-37 15q-23 0 -38 -15t-15 -38z" />
    <glyph glyph-name="Uhungarumlaut" unicode="&#x170;" horiz-adv-x="722" 
d="M76 698h140v-403q0 -45 7.5 -81t25 -62t45 -40t67.5 -14t67.5 14t45 40t25 62t7.5 81v403h140v-446q0 -70 -19.5 -120t-56 -82t-89.5 -47t-120 -15t-120 15t-89.5 47t-56 82t-19.5 120v446zM284 848h140l-137 -110h-86zM495 848h141l-137 -110h-87z" />
    <glyph glyph-name="uhungarumlaut" unicode="&#x171;" horiz-adv-x="611" 
d="M542 0h-127v70h-2q-31 -38 -73.5 -60t-95.5 -22q-46 0 -79 15.5t-54.5 42.5t-31.5 64t-10 80v325h134v-275q0 -24 1.5 -50t10 -47.5t26 -36t49.5 -14.5q36 0 59 17.5t36 43.5t18 55.5t5 54.5v252h134v-515zM245 731h137l-137 -146h-83zM442 731h137l-137 -146h-83z" />
    <glyph glyph-name="Uogonek" unicode="&#x172;" horiz-adv-x="722" 
d="M398 -37q-20 -19 -32.5 -39.5t-12.5 -46.5q0 -20 15 -32.5t38 -12.5q14 0 29 2t37 10v-59q-29 -5 -46 -6t-36 -1q-58 0 -90.5 22.5t-32.5 67.5q0 42 22.5 71.5t51.5 48.5q-59 2 -108 17t-84 46.5t-54 81t-19 119.5v446h140v-403q0 -45 7.5 -81t25 -62t45 -40t67.5 -14
t67.5 14t45 40t25 62t7.5 81v403h140v-446q0 -106 -43 -166t-123 -83q-29 -8 -48 -17t-34 -23z" />
    <glyph glyph-name="uogonek" unicode="&#x173;" horiz-adv-x="611" 
d="M541 0q-31 0 -48.5 -13.5t-28.5 -23.5q-20 -18 -32.5 -39t-12.5 -47q0 -20 15 -32.5t38 -12.5q14 0 29 2t37 10v-59q-29 -5 -46 -6t-36 -1q-58 0 -90.5 22.5t-32.5 67.5q0 48 29 80t65 52h-12v70h-2q-31 -38 -73.5 -60t-95.5 -22q-46 0 -79 15.5t-54.5 42.5t-31.5 64
t-10 80v325h134v-275q0 -24 1.5 -50t10 -47.5t26 -36t49.5 -14.5q36 0 59 17.5t36 43.5t18 55.5t5 54.5v252h134v-515h-1z" />
    <glyph glyph-name="Ydieresis" unicode="&#x178;" horiz-adv-x="667" 
d="M266 276l-255 422h164l165 -293l168 293h148l-250 -422v-276h-140v276zM498 854v-116h-116v116h116zM176 738v116h116v-116h-116z" />
    <glyph glyph-name="Zacute" unicode="&#x179;" 
d="M36 114l328 474h-315v110h464v-114l-331 -474h338v-110h-484v114zM307 848h143l-137 -110h-89z" />
    <glyph glyph-name="zacute" unicode="&#x17a;" horiz-adv-x="500" 
d="M47 515h408v-110l-256 -301h265v-104h-428v109l261 302h-250v104zM284 731h137l-137 -146h-83z" />
    <glyph glyph-name="Zdotaccent" unicode="&#x17b;" 
d="M36 114l328 474h-315v110h464v-114l-331 -474h338v-110h-484v114zM224 738v116h116v-116h-116z" />
    <glyph glyph-name="zdotaccent" unicode="&#x17c;" horiz-adv-x="500" 
d="M47 515h408v-110l-256 -301h265v-104h-428v109l261 302h-250v104zM198 609v116h116v-116h-116z" />
    <glyph glyph-name="Zcaron" unicode="&#x17d;" 
d="M36 114l328 474h-315v110h464v-114l-331 -474h338v-110h-484v114zM225 738l-93 110h95l64 -65l64 65h93l-93 -110h-130z" />
    <glyph glyph-name="zcaron" unicode="&#x17e;" horiz-adv-x="500" 
d="M47 515h408v-110l-256 -301h265v-104h-428v109l261 302h-250v104zM204 585l-99 146h91l68 -88l68 88h89l-99 -146h-118z" />
    <glyph glyph-name="florin" unicode="&#x192;" 
d="M238 406l31 140q18 83 61 123.5t133 40.5q44 0 84 -9l-18 -106q-12 3 -25 7t-33 4q-34 0 -48 -23.5t-22 -58.5l-25 -118h121l-13 -80h-124l-61 -329q-4 -26 -13.5 -63t-29.5 -72t-54.5 -59.5t-89.5 -24.5q-26 0 -52.5 1t-51.5 9l20 99q13 -3 25.5 -4t26.5 -1q22 0 35 9.5
t20.5 24t11 30t5.5 27.5l70 353h-113l15 80h114z" />
    <glyph glyph-name="Scommaaccent" unicode="&#x218;" 
d="M456 570q-33 14 -69 22t-73 8q-18 0 -37.5 -4.5t-35.5 -15.5t-26.5 -29.5t-10.5 -47.5q0 -30 22.5 -48t56.5 -32.5t74 -29t74 -38.5t56.5 -60.5t22.5 -95.5q0 -57 -21 -97.5t-57 -65.5t-83.5 -36.5t-100.5 -11.5q-28 0 -50 2t-42 5.5t-40.5 8.5t-46.5 11l13 126
q36 -20 76 -31.5t82 -11.5q20 0 42 5t40 16t30 28t12 41q0 33 -22.5 53t-56.5 35t-74 30t-74 38t-56.5 59t-22.5 94q0 59 21 99.5t55 65.5t78 36.5t90 11.5q92 0 167 -25zM237 -37h98l-51 -144h-83z" />
    <glyph glyph-name="scommaaccent" unicode="&#x219;" horiz-adv-x="444" 
d="M375 407q-31 11 -57 16.5t-63 5.5q-13 0 -27.5 -2.5t-25.5 -9.5t-18.5 -17.5t-7.5 -27.5q0 -20 17.5 -31.5t43 -20t56 -17.5t56 -26.5t43 -46t17.5 -74.5q0 -45 -18.5 -77t-48.5 -52t-69 -29.5t-80 -9.5q-38 0 -76.5 6t-75.5 16l8 110q32 -16 64.5 -25t67.5 -9q13 0 28 3
t28.5 10t22.5 19t9 31q0 25 -17.5 38t-43 22t-56 17t-56 24t-43 43.5t-17.5 73.5q0 42 17 72t45 49.5t64.5 29t75.5 9.5q48 0 81 -6t65 -13zM177 -37h98l-51 -144h-83z" />
    <glyph glyph-name="circumflex" unicode="&#x2c6;" horiz-adv-x="278" 
d="M299 585h-91l-68 88l-68 -88h-89l99 146h118z" />
    <glyph glyph-name="caron" unicode="&#x2c7;" horiz-adv-x="278" 
d="M80 585l-99 146h91l68 -88l68 88h89l-99 -146h-118z" />
    <glyph glyph-name="breve" unicode="&#x2d8;" horiz-adv-x="278" 
d="M38 730q8 -38 34 -59t66 -21t66.5 21t35.5 59h62q-2 -34 -15.5 -62t-35 -48t-50.5 -31t-63 -11q-33 0 -62 11t-51 31t-35 48t-14 62h62z" />
    <glyph glyph-name="dotaccent" unicode="&#x2d9;" horiz-adv-x="278" 
d="M81 609v116h116v-116h-116z" />
    <glyph glyph-name="ring" unicode="&#x2da;" horiz-adv-x="278" 
d="M60 651q0 22 8.5 41.5t23 34t34 23t41.5 8.5t41.5 -8.5t33.5 -23t22.5 -34t8.5 -41.5t-8.5 -41.5t-22.5 -33.5t-33.5 -22.5t-41.5 -8.5t-41.5 8.5t-34 22.5t-23 33.5t-8.5 41.5zM114 651q0 -22 15 -37t38 -15q22 0 37 15t15 37q0 23 -15 38t-37 15q-23 0 -38 -15t-15 -38
z" />
    <glyph glyph-name="ogonek" unicode="&#x2db;" horiz-adv-x="278" 
d="M238 0q-35 -26 -63 -54.5t-28 -68.5q0 -20 15 -32.5t38 -12.5q14 0 29 2t37 10v-59q-29 -5 -46 -6t-36 -1q-58 0 -90.5 22.5t-32.5 67.5q0 48 29 80t65 52h83z" />
    <glyph glyph-name="tilde" unicode="&#x2dc;" horiz-adv-x="278" 
d="M-38 603q0 23 7.5 44.5t21 38.5t32.5 27.5t41 10.5t41.5 -6t39.5 -14t36.5 -15t36.5 -7q23 0 33.5 14.5t10.5 34.5h54q0 -51 -25 -86t-72 -35q-28 0 -47 5t-39 13q-19 8 -36.5 13.5t-31.5 5.5q-26 0 -37.5 -15t-11.5 -29h-54z" />
    <glyph glyph-name="hungarumlaut" unicode="&#x2dd;" horiz-adv-x="278" 
d="M13 731h137l-137 -146h-83zM210 731h137l-137 -146h-83z" />
    <glyph glyph-name="endash" unicode="&#x2013;" horiz-adv-x="500" 
d="M0 315h500v-92h-500v92z" />
    <glyph glyph-name="emdash" unicode="&#x2014;" horiz-adv-x="1000" 
d="M0 315h1000v-92h-1000v92z" />
    <glyph glyph-name="quoteleft" unicode="&#x2018;" horiz-adv-x="278" 
d="M125 698h119l-63 -250h-147z" />
    <glyph glyph-name="quoteright" unicode="&#x2019;" horiz-adv-x="278" 
d="M98 698h146l-92 -250h-118z" />
    <glyph glyph-name="quotesinglbase" unicode="&#x201a;" horiz-adv-x="278" 
d="M98 140h146l-92 -250h-118z" />
    <glyph glyph-name="quotedblleft" unicode="&#x201c;" horiz-adv-x="481" 
d="M125 698h119l-63 -250h-147zM328 698h119l-63 -250h-147z" />
    <glyph glyph-name="quotedblright" unicode="&#x201d;" horiz-adv-x="481" 
d="M98 698h146l-92 -250h-118zM301 698h146l-92 -250h-118z" />
    <glyph glyph-name="quotedblbase" unicode="&#x201e;" horiz-adv-x="481" 
d="M301 140h146l-92 -250h-118zM98 140h146l-92 -250h-118z" />
    <glyph glyph-name="dagger" unicode="&#x2020;" 
d="M59 539h155v159h128v-159h155v-104h-155v-435h-128v435h-155v104z" />
    <glyph glyph-name="daggerdbl" unicode="&#x2021;" 
d="M59 555h155v143h128v-143h155v-98h-155v-212h155v-98h-155v-147h-128v147h-155v98h155v212h-155v98z" />
    <glyph glyph-name="bullet" unicode="&#x2022;" horiz-adv-x="500" 
d="M76 349q0 36 13.5 67.5t37.5 55.5t55.5 37.5t67.5 13.5t68 -13.5t55.5 -37.5t37.5 -55.5t14 -67.5t-14 -68t-37.5 -55.5t-55.5 -37.5t-68 -14t-67.5 14t-55.5 37.5t-37.5 55.5t-13.5 68z" />
    <glyph glyph-name="ellipsis" unicode="&#x2026;" horiz-adv-x="1000" 
d="M97 0v140h140v-140h-140zM430 0v140h140v-140h-140zM763 0v140h140v-140h-140z" />
    <glyph glyph-name="perthousand" unicode="&#x2030;" horiz-adv-x="1000" 
d="M151 436q18 0 28 8.5t14.5 23t5.5 32.5t1 37t-1 37t-5.5 32.5t-14.5 23t-28 8.5q-19 0 -29 -8.5t-14.5 -23t-5.5 -32.5t-1 -37t1 -37t5.5 -32.5t14.5 -23t29 -8.5zM502 720h82l-429 -742h-82zM151 364q-41 0 -68.5 14t-44 38t-23 56t-6.5 68q0 37 6.5 68t23 53.5t44 35.5
t68.5 13t68 -13t43.5 -35.5t23 -53.5t6.5 -68q0 -36 -6.5 -68t-23 -56t-43.5 -38t-68 -14zM515 60q18 0 28 8.5t14.5 23t5.5 32.5t1 37t-1 37t-5.5 32.5t-14.5 23t-28 8.5q-19 0 -29 -8.5t-14.5 -23t-5.5 -32.5t-1 -37t1 -37t5.5 -32.5t14.5 -23t29 -8.5zM515 -12
q-41 0 -68.5 14t-44 38t-23 56t-6.5 68q0 37 6.5 68t23 53.5t44 35.5t68.5 13t68 -13t43.5 -35.5t23 -53.5t6.5 -68q0 -36 -6.5 -68t-23 -56t-43.5 -38t-68 -14zM851 -12q-41 0 -68.5 14t-44 38t-23 56t-6.5 68q0 37 6.5 68t23 53.5t44 35.5t68.5 13t68 -13t43.5 -35.5
t23 -53.5t6.5 -68q0 -36 -6.5 -68t-23 -56t-43.5 -38t-68 -14zM851 60q18 0 28 8.5t14.5 23t5.5 32.5t1 37t-1 37t-5.5 32.5t-14.5 23t-28 8.5q-19 0 -29 -8.5t-14.5 -23t-5.5 -32.5t-1 -37t1 -37t5.5 -32.5t14.5 -23t29 -8.5z" />
    <glyph glyph-name="guilsinglleft" unicode="&#x2039;" horiz-adv-x="333" 
d="M167 474h126l-110 -205l110 -205h-126l-118 205z" />
    <glyph glyph-name="guilsinglright" unicode="&#x203a;" horiz-adv-x="333" 
d="M166 64h-126l110 205l-110 205h126l118 -205z" />
    <glyph glyph-name="fraction" unicode="&#x2044;" horiz-adv-x="167" 
d="M251 720h82l-417 -742h-82z" />
    <glyph glyph-name="trademark" unicode="&#x2122;" horiz-adv-x="1000" 
d="M465 698h145l99 -260l98 260h145v-416h-98v294h-2l-106 -294h-75l-106 294h-2v-294h-98v416zM165 618h-117v80h338v-80h-117v-336h-104v336z" />
    <glyph glyph-name="partialdiff" unicode="&#x2202;" horiz-adv-x="494" 
d="M65 717q15 6 35.5 13t44.5 11t50 4.5t51 -5.5q46 -11 89 -41t79 -93q17 -30 26.5 -63.5t14.5 -63.5t6 -53.5t1 -32.5q0 -15 -2.5 -46t-8.5 -68t-16 -76.5t-25 -71.5q-20 -43 -41 -74t-63 -54q-52 -29 -104.5 -23.5t-90.5 31.5q-29 20 -54 54t-30 91q-3 30 2 57.5t14 50
t19.5 39.5t19.5 28q26 32 60 52.5t82 18.5q22 -1 39 -4.5t33 -11t34.5 -20t43.5 -32.5q6 32 8 59.5t3 56.5q0 18 -3 41t-8 45t-10.5 41.5t-10.5 31.5q-4 11 -13.5 25.5t-23.5 28t-33 23.5t-42 12q-27 2 -43 1t-29.5 -5t-28 -11t-36.5 -16zM366 299q-8 9 -17 20t-22 21
t-29.5 16.5t-39.5 6.5q-57 -2 -96 -54q-30 -42 -40 -82.5t-10 -78.5q0 -11 1 -27.5t5.5 -34.5t13.5 -35t26 -28q21 -14 41 -14.5t42 9.5q28 12 47 35t34 58q18 45 28 92t16 96z" />
    <glyph glyph-name="Delta" unicode="&#x2206;" horiz-adv-x="612" 
d="M608 0h-602l320 688zM72 49h412l-194 468z" />
    <glyph glyph-name="summation" unicode="&#x2211;" horiz-adv-x="713" 
d="M623 586h-20q-7 24 -14 45t-22 36.5t-42 24t-75 8.5h-263l273 -358l-294 -339h371q29 0 49 5t34.5 18t26.5 35t25 55h23q-9 -38 -15 -63.5t-10.5 -48.5t-8.5 -48.5t-9 -63.5q-20 3 -39 7t-38 4h-503q-15 0 -29 -1.5t-29 -1.5l349 398l-347 454q26 -2 52 -4.5t52 -2.5h497
z" />
    <glyph glyph-name="minus" unicode="&#x2212;" horiz-adv-x="600" 
d="M46 201v104h508v-104h-508z" />
    <glyph glyph-name="radical" unicode="&#x221a;" horiz-adv-x="549" 
d="M10 450l146 72l197 -403l127 798l35 -5l-150 -950l-243 502l-96 -47z" />
    <glyph glyph-name="notequal" unicode="&#x2260;" horiz-adv-x="549" 
d="M451 521l-76 -136h165v-55h-195l-78 -139h273v-55h-303l-90 -161l-49 28l74 133h-157v55h188l77 139h-265v55h296l91 164z" />
    <glyph glyph-name="lessequal" unicode="&#x2264;" horiz-adv-x="549" 
d="M29 55h497v-55h-497v55zM29 409l497 230v-62l-433 -199l433 -199v-62l-497 230v62z" />
    <glyph glyph-name="greaterequal" unicode="&#x2265;" horiz-adv-x="549" 
d="M526 0h-497v55h497v-55zM526 347l-497 -230v62l433 199l-433 199v62l497 -230v-62z" />
    <glyph glyph-name="lozenge" unicode="&#x25ca;" horiz-adv-x="494" 
d="M212 0l-194 377l194 368h60l194 -368l-194 -377h-60zM242 691l-164 -314l164 -323l164 323z" />
    <glyph glyph-name="fi" unicode="&#xfb01;" horiz-adv-x="667" 
d="M461 515h134v-515h-134v515zM461 737h134v-128h-134v128zM118 417h-99v98h99v72q0 78 42 126.5t122 48.5q26 0 52 -3t46 -8l-11 -111q-9 5 -22.5 11.5t-35.5 6.5q-34 0 -46.5 -24.5t-12.5 -54.5v-64h117v-98h-117v-417h-134v417z" />
    <glyph glyph-name="fl" unicode="&#xfb02;" horiz-adv-x="667" 
d="M461 750h134v-750h-134v750zM118 417h-99v98h99v72q0 78 42 126.5t122 48.5q26 0 52 -3t46 -8l-11 -111q-9 5 -22.5 11.5t-35.5 6.5q-34 0 -46.5 -24.5t-12.5 -54.5v-64h117v-98h-117v-417h-134v417z" />
    <glyph glyph-name="commaaccent" horiz-adv-x="278" 
d="M111 -37h98l-51 -144h-83z" />
  </font>
</defs>
</svg>
