<?xml version="1.0" standalone="no"?>
<!DOCTYPE svg PUBLIC "-//W3C//DTD SVG 1.1//EN" "http://www.w3.org/Graphics/SVG/1.1/DTD/svg11.dtd" >
<svg>
<metadata>
Created by FontForge 20120731 at Mon Sep 12 10:39:40 2016
 By ,,,
 The digitally encoded machine readable software for producing   the Typefaces licensed to you is copyrighted (c) 1988, 1990 Adobe  Systems. All Rights Reserved. This software is the property of  Adobe Systems Incorporated and its licensors, and may not be  reproduced, used, displayed, modified, disclosed or transferred  without the express written approval of Adobe. 
</metadata>
<defs>
<font id="FrutigerCE-BlackItalic" horiz-adv-x="611" >
  <font-face 
    font-family="R Frutiger CE Roman"
    font-weight="900"
    font-style="italic"
    font-stretch="normal"
    units-per-em="1000"
    panose-1="0 0 0 0 0 0 0 0 0 0"
    ascent="800"
    descent="-200"
    x-height="521"
    cap-height="698"
    bbox="-192 -222 1090 917"
    underline-thickness="50"
    underline-position="-50"
    slope="-12"
    unicode-range="U+000D-FB02"
  />
<missing-glyph horiz-adv-x="306" 
 />
    <glyph glyph-name=".notdef" horiz-adv-x="306" 
 />
    <glyph glyph-name=".null" horiz-adv-x="0" 
 />
    <glyph glyph-name=".null" horiz-adv-x="0" 
 />
    <glyph glyph-name="nonmarkingreturn" unicode="&#xd;" horiz-adv-x="250" 
 />
    <glyph glyph-name="space" unicode=" " horiz-adv-x="306" 
 />
    <glyph glyph-name="exclam" unicode="!" horiz-adv-x="444" 
d="M229 698h186l-124 -469h-138zM123 162h169l-34 -162h-169z" />
    <glyph glyph-name="quotedbl" unicode="&#x22;" 
d="M408 698h132v-271h-132v271zM213 698h132v-271h-132v271z" />
    <glyph glyph-name="numbersign" unicode="#" horiz-adv-x="612" 
d="M87 295h89l15 110h-84l10 108h89l26 185h106l-26 -185h87l25 185h105l-25 -185h79l-10 -108h-84l-15 -110h79l-10 -108h-84l-26 -187h-105l26 187h-87l-26 -187h-106l26 187h-84zM384 405h-87l-15 -110h87z" />
    <glyph glyph-name="dollar" unicode="$" horiz-adv-x="612" 
d="M353 584q-41 -4 -66.5 -25t-25.5 -53q0 -23 16 -37t45 -22zM318 123q18 3 36 9.5t31.5 17t22 26t8.5 37.5q0 26 -18.5 41t-43.5 26zM218 -12q-62 0 -116 10.5t-83 23.5l44 138q43 -21 87.5 -29t96.5 -11l40 177q-36 11 -70 26t-61 37t-42.5 52.5t-14.5 73.5q0 57 25 99
t65 70t90.5 41.5t101.5 13.5l18 80h70l-18 -80q51 -2 95 -12t76 -21l-44 -133q-37 17 -76 27.5t-80 12.5l-34 -150q34 -10 68 -23t61 -34.5t44 -53.5t17 -80q0 -66 -23.5 -113t-63 -78t-92 -46.5t-111.5 -17.5l-19 -81h-70z" />
    <glyph glyph-name="percent" unicode="%" horiz-adv-x="1000" 
d="M576 143q0 42 12.5 82.5t37.5 72t61.5 50.5t84.5 19q75 0 117 -42t42 -116q0 -42 -12.5 -81.5t-37.5 -70.5t-62.5 -50t-87.5 -19q-74 0 -114.5 42.5t-40.5 112.5zM702 124q0 -5 1 -13t4 -15.5t9 -12.5t16 -5q18 0 32 18t23 42t13.5 48t4.5 36q0 6 -0.5 15.5t-4 18.5
t-10.5 15t-20 6q-18 0 -31 -19t-21.5 -44t-12 -50.5t-3.5 -39.5zM120 486q0 42 12.5 82.5t37.5 72t61.5 50.5t84.5 19q75 0 117 -42t42 -116q0 -42 -12.5 -81.5t-37.5 -70.5t-62.5 -50t-87.5 -19q-74 0 -114.5 42.5t-40.5 112.5zM741 720h110l-540 -742h-110zM246 467
q0 -5 1 -13t4 -15.5t9 -12.5t16 -5q18 0 32 16.5t23 40t13.5 48t4.5 39.5q0 6 -0.5 15.5t-4 18.5t-10.5 15t-20 6q-18 0 -31 -19t-21.5 -44t-12 -50.5t-3.5 -39.5z" />
    <glyph glyph-name="ampersand" unicode="&#x26;" horiz-adv-x="778" 
d="M316 529q0 -27 14.5 -50.5t28.5 -37.5q17 4 36 12.5t36 20.5t28 28t11 35q0 29 -20.5 46t-49.5 17q-38 0 -61 -19t-23 -52zM497 41q-21 -16 -47 -26t-54 -16t-56 -8.5t-53 -2.5q-52 0 -96.5 12t-77.5 37t-51.5 64t-18.5 93q0 41 14 74t38 57.5t57 40.5t70 25
q-28 27 -45 58t-17 76q0 46 22 80.5t56.5 58t78 35t85.5 11.5q41 0 80 -9t69.5 -29t49.5 -52t19 -78q0 -38 -16.5 -68.5t-43 -54t-60.5 -40t-69 -27.5q28 -31 53.5 -62.5t50.5 -64.5q32 27 53.5 66.5t30.5 85.5h143q-6 -36 -18.5 -72.5t-30.5 -70t-42.5 -62t-54.5 -47.5
l102 -125h-190zM205 186q0 -38 26 -58t74 -20q37 0 65.5 9.5t54.5 23.5q-31 38 -63.5 76t-66.5 79q-35 -16 -62.5 -42t-27.5 -68z" />
    <glyph glyph-name="quotesingle" unicode="'" horiz-adv-x="333" 
d="M159 698h132v-271h-132v271z" />
    <glyph glyph-name="parenleft" unicode="(" horiz-adv-x="389" 
d="M501 756q-119 -121 -187 -264.5t-68 -316.5q0 -79 16.5 -158t52.5 -157h-136q-43 85 -69 167t-26 170q0 176 73.5 313t207.5 246h136z" />
    <glyph glyph-name="parenright" unicode=")" horiz-adv-x="389" 
d="M-54 -140q119 121 187 265t68 316q0 79 -16.5 158t-52.5 157h136q43 -85 69 -167t26 -170q0 -175 -73.5 -312.5t-207.5 -246.5h-136z" />
    <glyph glyph-name="asterisk" unicode="*" 
d="M338 425l-100 -118l-80 88l125 85l-138 53l59 105l121 -90l4 150l120 -21l-48 -140l140 36l16 -117h-145l74 -117l-105 -49z" />
    <glyph glyph-name="plus" unicode="+" horiz-adv-x="600" 
d="M62 316h190v190h126v-190h190v-126h-190v-190h-126v190h-190v126z" />
    <glyph glyph-name="comma" unicode="," horiz-adv-x="306" 
d="M54 162h178l-149 -271h-144z" />
    <glyph glyph-name="hyphen" unicode="-" horiz-adv-x="333" 
d="M56 335h271l-27 -132h-270z" />
    <glyph glyph-name="period" unicode="." horiz-adv-x="306" 
d="M54 162h169l-34 -162h-169z" />
    <glyph glyph-name="slash" unicode="/" horiz-adv-x="278" 
d="M196 710h126l-194 -722h-126z" />
    <glyph glyph-name="zero" unicode="0" horiz-adv-x="612" 
d="M446 494q0 88 -62 90q-30 0 -54.5 -23t-43 -59t-31.5 -80.5t-21 -86.5t-12 -77.5t-4 -54.5q0 -89 68 -89q31 0 54.5 23t41 59t30 80t20 86.5t11 77.5t3.5 54zM48 241q0 90 21 174.5t62.5 150t104 105t145.5 39.5q114 0 174.5 -65t60.5 -188q0 -94 -21.5 -179.5
t-63.5 -149.5t-104.5 -102t-143.5 -38q-114 0 -174.5 65.5t-60.5 187.5z" />
    <glyph glyph-name="one" unicode="1" horiz-adv-x="612" 
d="M324 514l-138 -94l-68 127l260 151h161l-147 -698h-186z" />
    <glyph glyph-name="two" unicode="2" horiz-adv-x="612" 
d="M23 121q99 70 171 122t118.5 92.5t69 73t22.5 64.5q0 53 -28.5 76t-69.5 23q-42 0 -87.5 -15.5t-81.5 -35.5l18 158q46 14 95 22.5t106 8.5q44 0 86 -11t75 -35t53 -62t20 -92q0 -67 -29 -121t-74 -99t-99 -83t-104 -73v-2h246l-27 -132h-502z" />
    <glyph glyph-name="three" unicode="3" horiz-adv-x="612" 
d="M201 419q15 -3 34 -3.5t38 -0.5q18 0 43 2t47.5 10.5t38 25t15.5 44.5q0 22 -10 36.5t-26.5 23t-37 12t-40.5 3.5q-39 0 -84 -9.5t-75 -22.5l18 145q39 10 93.5 17.5t105.5 7.5q42 0 85.5 -9t78 -29.5t56.5 -53.5t22 -82q0 -40 -14 -72.5t-38.5 -55.5t-58.5 -36.5
t-73 -17.5v-2q60 -14 93.5 -47t33.5 -95q0 -65 -29 -108t-75 -68.5t-101.5 -35.5t-109.5 -10q-58 0 -118 10.5t-106 33.5l35 134q46 -21 89 -30.5t94 -9.5q24 0 48 4.5t43.5 15.5t31.5 29.5t12 45.5q0 26 -11.5 40.5t-29 22t-38.5 9.5t-40 2q-15 0 -32.5 -0.5t-32.5 -2.5z
" />
    <glyph glyph-name="four" unicode="4" horiz-adv-x="612" 
d="M405 554h-2l-237 -295h168zM299 133h-305l21 126l375 439h207l-95 -439h98l-25 -126h-100l-29 -133h-175z" />
    <glyph glyph-name="five" unicode="5" horiz-adv-x="612" 
d="M616 572h-300l-22 -112q126 0 198.5 -50.5t72.5 -160.5q0 -64 -28.5 -113t-75 -82t-104 -49.5t-116.5 -16.5q-48 0 -104.5 10.5t-101.5 30.5l28 137q42 -24 82.5 -32t75.5 -8q31 0 59.5 6.5t50.5 20t35 35t13 51.5q0 29 -12 48t-31.5 31t-45 17t-52.5 5q-35 0 -68.5 -4
t-65.5 -11l79 373h456z" />
    <glyph glyph-name="six" unicode="6" horiz-adv-x="612" 
d="M406 231q0 38 -20 65.5t-58 27.5q-27 0 -46.5 -11.5t-32 -29t-18 -38.5t-5.5 -40q0 -38 19.5 -67.5t65.5 -29.5q24 0 42 11.5t29.5 29t17.5 39.5t6 43zM591 533q-32 22 -71.5 33.5t-78.5 11.5q-45 0 -76.5 -14t-53.5 -37.5t-34.5 -54.5t-20.5 -65l2 -2q26 20 56.5 29.5
t62.5 9.5q44 0 81 -14t63 -41t40.5 -65.5t14.5 -87.5q0 -57 -18.5 -103t-52 -78.5t-81 -49.5t-104.5 -17q-61 0 -108.5 18t-80.5 51.5t-50 81t-17 106.5q0 90 20 173.5t64.5 148.5t115.5 104t172 39q51 0 102 -13t96 -39z" />
    <glyph glyph-name="seven" unicode="7" horiz-adv-x="612" 
d="M612 540l-354 -540h-212l378 566h-312l27 132h507z" />
    <glyph glyph-name="eight" unicode="8" horiz-adv-x="612" 
d="M108 502q0 49 19.5 87.5t54 65.5t83.5 41t107 14q46 0 89.5 -9.5t77.5 -31t54.5 -56t20.5 -84.5q0 -34 -14 -64t-37.5 -53.5t-54 -39t-64.5 -21.5v1v-2q55 -19 87 -56.5t32 -97.5q0 -25 -10 -60.5t-39.5 -68.5t-83.5 -56t-142 -23q-50 0 -96.5 12.5t-82.5 36.5t-57.5 58
t-21.5 77q0 45 14 77t37.5 55t54 38.5t63.5 26.5q-42 20 -66.5 55t-24.5 78zM393 203q0 35 -22.5 58t-60.5 40q-21 -7 -40.5 -17.5t-35 -24.5t-25 -32t-9.5 -39q0 -33 26 -53.5t65 -20.5q42 0 72 25t30 64zM278 510q0 -29 18 -53t41 -41q20 7 39 17t34 23t24.5 29t9.5 35
q0 36 -22.5 53t-53.5 17q-17 0 -33 -6.5t-29 -18t-20.5 -26t-7.5 -29.5z" />
    <glyph glyph-name="nine" unicode="9" horiz-adv-x="612" 
d="M253 467q0 -38 20 -65.5t58 -27.5q27 0 46.5 11.5t32 29t18 38.5t5.5 40q0 38 -19 67.5t-66 29.5q-24 0 -42 -11.5t-29.5 -29t-17.5 -39.5t-6 -43zM68 165q32 -22 71.5 -33.5t78.5 -11.5q45 0 76.5 14t53.5 37.5t35 54.5t20 65l-2 2q-26 -20 -56.5 -29.5t-62.5 -9.5
q-44 0 -80.5 14t-63 41t-41 65.5t-14.5 87.5q0 57 18.5 103t52 78.5t81 49.5t104.5 17q61 0 108.5 -18t80.5 -51.5t50 -81t17 -106.5q0 -90 -20 -173.5t-64.5 -148.5t-115.5 -104t-172 -39q-51 0 -102 13t-96 39z" />
    <glyph glyph-name="colon" unicode=":" horiz-adv-x="306" 
d="M129 521h169l-34 -162h-169zM54 162h169l-34 -162h-169z" />
    <glyph glyph-name="semicolon" unicode=";" horiz-adv-x="306" 
d="M54 162h178l-149 -271h-144zM129 521h169l-34 -162h-169z" />
    <glyph glyph-name="less" unicode="&#x3c;" horiz-adv-x="600" 
d="M568 392l-341 -139l341 -139v-122l-506 208v106l506 208v-122z" />
    <glyph glyph-name="equal" unicode="=" horiz-adv-x="600" 
d="M62 431h506v-126h-506v126zM62 201h506v-126h-506v126z" />
    <glyph glyph-name="greater" unicode="&#x3e;" horiz-adv-x="600" 
d="M62 114l341 139l-341 139v122l506 -208v-106l-506 -208v122z" />
    <glyph glyph-name="question" unicode="?" horiz-adv-x="556" 
d="M138 686q42 10 83.5 17t84.5 7t88 -8.5t82 -28t60.5 -50.5t23.5 -77q0 -43 -14 -75t-36 -58t-49 -47.5t-52 -43t-46 -45t-31 -53.5h-142q3 40 18 70t36.5 54.5t45 45t44 40t33.5 40t13 44.5q0 12 -8 24t-22.5 21t-34 15t-42.5 6q-34 0 -76.5 -9t-79.5 -26zM165 162h169
l-34 -162h-169z" />
    <glyph glyph-name="at" unicode="@" horiz-adv-x="800" 
d="M392 235q44 0 68.5 30.5t24.5 78.5q0 41 -22.5 67t-60.5 26q-22 0 -39.5 -9t-29.5 -24t-18.5 -34t-6.5 -39q0 -41 21 -68.5t63 -27.5zM715 137q-53 -73 -126.5 -111t-164.5 -38q-82 0 -153 27t-123 75t-81.5 114t-29.5 145q0 77 28.5 143t79 114.5t120.5 76t153 27.5
q69 0 132 -20.5t110 -58.5t75 -92t28 -121q0 -83 -32 -137t-74.5 -85.5t-85 -44t-63.5 -12.5q-20 0 -35 12t-16 37h-2q-18 -20 -44.5 -34.5t-56.5 -14.5q-31 0 -59 14.5t-49 40t-33.5 61t-12.5 77.5q0 39 13.5 75.5t38.5 64t60 44.5t78 17q37 0 67.5 -13.5t52.5 -43.5l9 47
h94l-34 -209q-4 -20 -7 -33.5t-3 -21.5t2.5 -13.5t10.5 -5.5q14 0 29 8.5t27 26t20.5 45.5t8.5 67q1 107 -61 167t-196 60q-59 0 -107 -20t-81.5 -55.5t-52 -84.5t-18.5 -107q0 -64 19.5 -113t55.5 -82.5t86 -50.5t110 -17q63 0 111 15t80 38h102z" />
    <glyph glyph-name="A" unicode="A" horiz-adv-x="778" 
d="M374 698h234l114 -698h-188l-19 149h-271l-83 -149h-202zM467 554h-2l-148 -273h180z" />
    <glyph glyph-name="B" unicode="B" horiz-adv-x="667" 
d="M288 422h70q59 0 91.5 21.5t32.5 57.5q0 42 -31.5 53.5t-84.5 11.5h-48zM161 698h310q27 0 61 -6.5t64.5 -24t51 -48.5t20.5 -81q0 -35 -13 -65.5t-37 -53.5t-58 -38t-75 -20v-2q60 -9 97.5 -43t37.5 -92q0 -55 -22.5 -96.5t-61 -68.5t-91 -40.5t-112.5 -14.5l-318 -4z
M227 132h50q71 0 114 21.5t43 72.5q0 46 -32.5 58t-95.5 12h-45z" />
    <glyph glyph-name="C" unicode="C" horiz-adv-x="667" 
d="M693 530q-45 26 -87 34t-87 8q-70 0 -120 -22.5t-81.5 -60t-46 -84.5t-14.5 -97q0 -46 14 -80.5t39.5 -57t60.5 -33.5t77 -11q51 0 95.5 10t81.5 29l-20 -150q-17 -6 -39 -10.5t-47 -8.5t-50.5 -6t-49.5 -2q-84 0 -150 24t-111.5 66.5t-69 102.5t-23.5 132q0 87 29.5 160
t84.5 125.5t134 82t177 29.5q101 0 160 -13t87 -24z" />
    <glyph glyph-name="D" unicode="D" horiz-adv-x="778" 
d="M163 698h242q83 0 149 -17.5t112 -52.5t70.5 -87.5t24.5 -122.5q0 -109 -32.5 -188t-91.5 -130t-141 -75.5t-180 -24.5h-301zM233 138h82q69 0 117 23.5t78.5 61.5t44.5 85.5t14 96.5q0 48 -15.5 78t-42.5 47.5t-64 23.5t-80 6h-46z" />
    <glyph glyph-name="E" unicode="E" 
d="M165 698h491l-27 -132h-307l-32 -144h291l-29 -132h-290l-34 -158h319l-27 -132h-505z" />
    <glyph glyph-name="F" unicode="F" horiz-adv-x="556" 
d="M153 698h467l-26 -132h-284l-35 -153h274l-27 -132h-270l-59 -281h-188z" />
    <glyph glyph-name="G" unicode="G" horiz-adv-x="778" 
d="M721 534q-46 20 -93.5 29t-108.5 9q-70 0 -120 -22.5t-81.5 -60t-46 -84.5t-14.5 -97q0 -46 14 -80.5t37.5 -57t55 -33.5t67.5 -11q35 0 74 12l31 138h-111l27 132h293l-83 -389q-26 -8 -59 -14t-66.5 -9.5t-64 -5.5t-53.5 -2q-84 0 -150 24t-111.5 66.5t-69 102.5
t-23.5 132q0 87 27 160t83 125.5t144 82t209 29.5q64 0 120 -9.5t113 -24.5z" />
    <glyph glyph-name="H" unicode="H" horiz-adv-x="722" 
d="M160 698h187l-55 -267h221l55 267h187l-145 -698h-187l62 299h-221l-62 -299h-187z" />
    <glyph glyph-name="I" unicode="I" horiz-adv-x="333" 
d="M168 698h188l-145 -698h-188z" />
    <glyph glyph-name="J" unicode="J" horiz-adv-x="444" 
d="M388 262q-10 -46 -20 -87.5t-26.5 -75t-44 -59t-72.5 -39.5q-32 -8 -62 -10.5t-60 -2.5q-40 0 -74.5 7.5t-61.5 15.5l38 151q39 -18 84 -18q36 0 57.5 16.5t34.5 42t19 55.5t12 57l82 383h189z" />
    <glyph glyph-name="K" unicode="K" horiz-adv-x="722" 
d="M162 698h188l-60 -285h2l252 285h241l-332 -339l206 -359h-215l-172 317h-2l-67 -317h-188z" />
    <glyph glyph-name="L" unicode="L" horiz-adv-x="556" 
d="M160 698h189l-116 -560h292l-29 -138h-481z" />
    <glyph glyph-name="M" unicode="M" horiz-adv-x="944" 
d="M158 698h292l11 -469h2l219 469h298l-148 -698h-182l127 572h-2l-274 -572h-176l-26 572h-2l-121 -572h-170z" />
    <glyph glyph-name="N" unicode="N" horiz-adv-x="778" 
d="M162 698h233l143 -484h2l98 484h176l-148 -698h-232l-146 483h-2l-97 -483h-176z" />
    <glyph glyph-name="O" unicode="O" horiz-adv-x="778" 
d="M773 425q0 -99 -26 -179.5t-77 -138t-127.5 -88.5t-177.5 -31q-85 0 -144 24.5t-96 64t-53.5 90.5t-16.5 105q0 99 26 180t77 138.5t127.5 88.5t177.5 31q85 0 144 -24.5t96 -64t53.5 -91t16.5 -105.5zM581 410q0 33 -6.5 62.5t-22 51.5t-40.5 35t-61 13q-54 0 -92.5 -28
t-63.5 -70.5t-36.5 -92.5t-11.5 -94q0 -33 6.5 -62.5t22 -51t40.5 -34.5t61 -13q54 0 92.5 28t63.5 70t36.5 92t11.5 94z" />
    <glyph glyph-name="P" unicode="P" 
d="M269 376h50q28 0 53.5 5.5t45 18t31 33.5t11.5 52q0 25 -8 41t-21.5 25t-30.5 12t-36 3h-55zM153 698h186q57 0 112.5 -5t98.5 -24.5t69.5 -58t26.5 -104.5q0 -65 -25 -114t-67 -82t-98.5 -49.5t-119.5 -16.5h-95l-52 -244h-186z" />
    <glyph glyph-name="Q" unicode="Q" horiz-adv-x="778" 
d="M581 410q0 33 -6.5 62.5t-22 51.5t-40.5 35t-61 13q-54 0 -92.5 -28t-63.5 -70.5t-36.5 -92.5t-11.5 -94q0 -33 6.5 -62.5t22 -51t40.5 -34.5t61 -13q54 0 92.5 28t63.5 70t36.5 92t11.5 94zM384 -12h-19q-64 0 -120.5 17t-98.5 51.5t-66.5 88.5t-24.5 127q0 99 26 180
t77 138.5t127.5 88.5t177.5 31q85 0 144 -24.5t96 -64t53.5 -90.5t16.5 -105q0 -148 -56.5 -252.5t-168.5 -151.5l132 -154h-218z" />
    <glyph glyph-name="R" unicode="R" horiz-adv-x="667" 
d="M285 408h63q30 0 56.5 4t46 14t30.5 26.5t11 41.5q0 38 -22 54.5t-64 17.5h-89zM162 698h223q50 0 102 -3.5t94.5 -21t69.5 -53t27 -100.5q0 -46 -16.5 -78t-44.5 -53t-65 -32t-77 -16v-2q21 -2 35 -15t23.5 -32t15 -39.5t9.5 -37.5l50 -215h-186l-36 178q-7 34 -13 53.5
t-16.5 29.5t-28.5 12.5t-50 2.5h-20l-56 -276h-187z" />
    <glyph glyph-name="S" unicode="S" 
d="M583 540q-27 13 -64.5 22.5t-89.5 9.5q-28 0 -52.5 -2.5t-42.5 -10t-28.5 -20.5t-10.5 -34q0 -25 20 -40t50 -28t65.5 -27t65.5 -36t50 -56t20 -87q0 -72 -30.5 -119t-79 -74.5t-109.5 -38.5t-122 -11q-54 0 -112 11t-104 25l44 142q14 -9 34 -16.5t43 -12.5t47.5 -8
t47.5 -3q22 0 48 3t48.5 11.5t37.5 25t15 43.5q0 28 -20 45t-50 30t-65.5 26.5t-65.5 33.5t-50 51.5t-20 80.5q0 68 27 113t71 72t100 38t113 11q65 0 122 -7t92 -24z" />
    <glyph glyph-name="T" unicode="T" horiz-adv-x="556" 
d="M253 560h-174l30 138h537l-30 -138h-174l-119 -560h-189z" />
    <glyph glyph-name="U" unicode="U" horiz-adv-x="722" 
d="M697 373q-17 -83 -39 -153.5t-60 -122t-99 -80.5t-156 -29q-59 0 -110 11.5t-89 37t-59.5 68t-21.5 103.5q0 42 5 75t10 57l79 358h189l-84 -395q-5 -25 -9 -44.5t-4 -31.5q0 -43 24.5 -72t74.5 -29q45 0 72.5 24.5t45 62t27 82.5t18.5 87l69 316h185z" />
    <glyph glyph-name="V" unicode="V" horiz-adv-x="722" 
d="M426 0h-230l-91 698h187l47 -528h2l270 528h201z" />
    <glyph glyph-name="W" unicode="W" horiz-adv-x="1000" 
d="M109 698h184l-24 -536h2l207 536h238l-16 -536h2l200 536h188l-299 -698h-240l14 548h-2l-210 -548h-240z" />
    <glyph glyph-name="X" unicode="X" horiz-adv-x="722" 
d="M270 370l-143 328h203l74 -222l163 222h226l-280 -333l154 -365h-203l-87 250l-189 -250h-226z" />
    <glyph glyph-name="Y" unicode="Y" horiz-adv-x="722" 
d="M271 258l-163 440h196l87 -281l193 281h229l-352 -440l-54 -258h-190z" />
    <glyph glyph-name="Z" unicode="Z" 
d="M137 698h538l-31 -148l-403 -412h319l-26 -138h-552l32 148l396 412h-301z" />
    <glyph glyph-name="bracketleft" unicode="[" horiz-adv-x="444" 
d="M236 756h265l-23 -110h-115l-140 -676h115l-23 -110h-265z" />
    <glyph glyph-name="backslash" unicode="\" horiz-adv-x="278" 
d="M2 710h126l194 -722h-126z" />
    <glyph glyph-name="bracketright" unicode="]" horiz-adv-x="444" 
d="M239 -140h-265l23 110h115l140 676h-115l23 110h265z" />
    <glyph glyph-name="asciicircum" unicode="^" horiz-adv-x="600" 
d="M284 698h112l174 -365h-122l-108 227l-108 -227h-122z" />
    <glyph glyph-name="underscore" unicode="_" horiz-adv-x="500" 
d="M0 -125v50h500v-50h-500z" />
    <glyph glyph-name="grave" unicode="`" horiz-adv-x="278" 
d="M208 585l-136 144h187l75 -144h-126z" />
    <glyph glyph-name="a" unicode="a" 
d="M367 73l-2 2v-2q-29 -45 -75.5 -65t-99.5 -20q-85 0 -129.5 37.5t-44.5 113.5q0 48 22.5 84t61.5 59.5t91 35.5t112 12q27 0 52.5 -1.5t44.5 -3.5q2 5 2 10.5v10.5q0 28 -25.5 47.5t-70.5 19.5q-49 0 -86.5 -9t-82.5 -32l18 131q40 14 85 22t106 8q47 0 88 -9.5t71.5 -31
t48.5 -55t18 -81.5q0 -31 -7.5 -68.5t-18 -81.5t-21.5 -95.5t-19 -110.5h-147zM186 160q0 -18 16 -35t45 -17q58 0 92 35t44 88q-11 2 -25.5 2.5t-22.5 0.5q-64 2 -106.5 -18.5t-42.5 -55.5z" />
    <glyph glyph-name="b" unicode="b" horiz-adv-x="667" 
d="M-15 0q9 25 18 58t18 72l138 620h177l-65 -292h2q34 36 75.5 55.5t92.5 19.5q48 0 84.5 -17t60.5 -46.5t36.5 -68.5t12.5 -83q0 -64 -16.5 -123.5t-50 -105.5t-85 -73.5t-122.5 -27.5q-133 0 -181 110h-2l-26 -98h-167zM227 232q0 -20 5 -39t15.5 -34t27 -24t38.5 -9
q32 0 57 14t42.5 36.5t27 52t9.5 59.5q0 48 -21.5 77.5t-64.5 29.5q-32 0 -57 -16t-42.5 -40t-27 -52.5t-9.5 -54.5z" />
    <glyph glyph-name="c" unicode="c" horiz-adv-x="500" 
d="M432 8q-27 -9 -64 -14.5t-90 -5.5q-57 0 -102.5 19t-77.5 51t-49 75.5t-17 92.5q0 64 24.5 120t68.5 97.5t106 65.5t137 24q33 0 78.5 -9t85.5 -26l-39 -125q-28 13 -57 20.5t-59 7.5q-70 0 -114.5 -43.5t-44.5 -124.5q0 -47 33.5 -80t90.5 -33q34 0 60.5 5.5t55.5 17.5z
" />
    <glyph glyph-name="d" unicode="d" horiz-adv-x="667" 
d="M417 83h-2q-17 -22 -34.5 -39.5t-39.5 -30t-49.5 -19t-65.5 -6.5q-42 0 -77.5 17t-61.5 46.5t-40.5 68.5t-14.5 83q0 64 16 123.5t49 105.5t82.5 73.5t116.5 27.5q69 0 115 -27t66 -69h2l63 313h177l-140 -672q-5 -23 -7 -42.5t-4 -35.5h-165zM304 126q32 0 57 16
t42.5 40t27 52.5t9.5 54.5q0 20 -5 39t-15.5 34t-26.5 24t-39 9q-32 0 -57 -14t-42.5 -36.5t-27 -52t-9.5 -59.5q0 -48 21.5 -77.5t64.5 -29.5z" />
    <glyph glyph-name="e" unicode="e" 
d="M482 17q-48 -14 -95.5 -21.5t-86.5 -7.5q-65 0 -115 19t-84 51t-51.5 75.5t-17.5 92.5q0 45 16 99t53 100t96.5 77t146.5 31q51 0 95 -13t76.5 -41t50.5 -71t18 -102q0 -16 -4 -45.5t-9 -52.5h-369q1 -21 7.5 -39t22 -31.5t42.5 -21.5t68 -8q36 0 80.5 9t82.5 27z
M434 310q0 42 -19 72.5t-69 30.5q-29 0 -51.5 -9t-39 -23.5t-27 -33t-15.5 -37.5h221z" />
    <glyph glyph-name="f" unicode="f" horiz-adv-x="444" 
d="M157 395h-113l28 126h109l14 66q17 81 71 128t142 47q34 0 69.5 -4t64.5 -12l-34 -123q-14 5 -28 9t-29 4q-32 0 -52.5 -20t-30.5 -64l-7 -31h134l-28 -126h-132l-82 -395h-180z" />
    <glyph glyph-name="g" unicode="g" horiz-adv-x="667" 
d="M67 -49q69 -40 151 -41q47 -1 80 8.5t56 30.5t38 55.5t25 84.5l-2 2q-30 -44 -73 -67.5t-97 -23.5t-94 17.5t-66.5 49t-39.5 75t-13 95.5q0 60 20 114t56.5 94.5t88 64t114.5 23.5q60 0 108.5 -25t71.5 -82h2l23 95h167q-5 -21 -14 -52t-19 -73l-80 -355
q-17 -76 -41 -126.5t-62 -81t-94 -43t-137 -12.5q-68 0 -115 10t-89 23zM444 301q0 42 -24 68t-72 26q-34 0 -58.5 -15t-40.5 -38t-23.5 -52t-7.5 -56q0 -41 25.5 -68.5t68.5 -27.5q35 0 59.5 16t41 40t24 53t7.5 54z" />
    <glyph glyph-name="h" unicode="h" horiz-adv-x="667" 
d="M165 750h182l-64 -305h2q28 37 73 62.5t108 25.5q39 0 69.5 -14t51 -38t31 -57t10.5 -71q0 -13 -0.5 -24t-2 -23.5t-4.5 -27t-7 -35.5l-48 -243h-186l50 244q4 20 8 39.5t4 39.5q0 23 -16 42.5t-54 17.5q-28 0 -51 -11.5t-39.5 -31t-27.5 -45.5t-16 -55l-51 -240h-180z
" />
    <glyph glyph-name="i" unicode="i" horiz-adv-x="333" 
d="M134 521h182l-108 -521h-182zM180 738h182l-28 -132h-182z" />
    <glyph glyph-name="j" unicode="j" horiz-adv-x="333" 
d="M-93 -92q8 -4 20.5 -7t27.5 -3q32 0 46 24.5t25 79.5l108 519h182l-108 -519q-12 -59 -29.5 -101t-45 -69.5t-68.5 -40.5t-100 -13q-23 0 -44.5 4t-42.5 11zM180 738h182l-28 -132h-182z" />
    <glyph glyph-name="k" unicode="k" 
d="M168 750h182l-96 -448h2l173 219h205l-215 -251l135 -270h-200l-107 258h-2l-55 -258h-183z" />
    <glyph glyph-name="l" unicode="l" horiz-adv-x="333" 
d="M182 750h182l-156 -750h-182z" />
    <glyph glyph-name="m" unicode="m" horiz-adv-x="944" 
d="M88 385q7 34 12.5 67.5t9.5 68.5h160l-20 -95l2 1q33 50 81 78t103 28q23 0 45 -6.5t41 -20t32.5 -33t18.5 -46.5q33 50 81 78t105 28q30 0 59 -8t52 -26t37 -47.5t14 -73.5q0 -26 -3 -57.5t-9 -59.5l-54 -261h-180l52 253q5 20 7.5 40t2.5 36q0 26 -13 40t-45 14
q-28 0 -46.5 -14.5t-30.5 -36t-18.5 -46.5t-11.5 -46l-51 -240h-180l52 253q5 20 7.5 40t2.5 36q0 26 -13 40t-45 14q-28 0 -46.5 -14.5t-30.5 -36t-18.5 -46.5t-11.5 -46l-51 -240h-180z" />
    <glyph glyph-name="n" unicode="n" horiz-adv-x="667" 
d="M88 385q7 34 12.5 67.5t9.5 68.5h167l-14 -85h2q39 44 84.5 70.5t116.5 26.5q39 0 69.5 -14t51 -38t31 -57t10.5 -71q0 -13 -0.5 -24t-2 -23.5t-4.5 -27t-7 -35.5l-48 -243h-186l50 244q4 20 8 39.5t4 39.5q0 23 -16 42.5t-54 17.5q-28 0 -51 -11.5t-39.5 -31
t-27.5 -45.5t-16 -55l-51 -240h-180z" />
    <glyph glyph-name="o" unicode="o" horiz-adv-x="667" 
d="M453 302q0 20 -5 39t-16 33.5t-29 23.5t-44 9q-33 0 -59 -16t-44 -41.5t-28 -57t-10 -62.5q0 -53 26 -85t72 -31q63 0 100 49.5t37 138.5zM639 300q0 -81 -25 -140t-70 -97.5t-106.5 -56.5t-134.5 -18q-72 0 -123.5 19t-84.5 51t-48 75.5t-15 92.5q0 69 24 125.5t67.5 97
t106 62.5t138.5 22q66 0 117 -18t85 -49.5t51.5 -74t17.5 -91.5z" />
    <glyph glyph-name="p" unicode="p" horiz-adv-x="667" 
d="M90 443q5 23 7 42.5t4 35.5h165l-14 -83h2q42 51 90 73t97 22q48 0 84.5 -17t60.5 -46.5t36.5 -68.5t12.5 -83q0 -64 -16.5 -123.5t-50 -105.5t-85 -73.5t-122.5 -27.5q-60 0 -99.5 25t-68.5 74l-66 -297h-182zM227 232q0 -20 5 -39t15.5 -34t27 -24t38.5 -9q32 0 57 14
t42.5 36.5t27 52t9.5 59.5q0 48 -21.5 77.5t-64.5 29.5q-32 0 -57 -16t-42.5 -40t-27 -52.5t-9.5 -54.5z" />
    <glyph glyph-name="q" unicode="q" horiz-adv-x="667" 
d="M396 62h-2q-34 -35 -75.5 -54.5t-92.5 -19.5q-42 0 -77.5 17t-61.5 46.5t-40.5 68.5t-14.5 83q0 64 16 123.5t49 105.5t82.5 73.5t116.5 27.5q75 0 120 -30t69 -92h2l28 110h167q-8 -20 -16 -50t-16 -66l-129 -615h-182zM304 126q32 0 57 16t42.5 40t27 52.5t9.5 54.5
q0 20 -5 39t-15.5 34t-26.5 24t-39 9q-32 0 -57 -14t-42.5 -36.5t-27 -52t-9.5 -59.5q0 -48 21.5 -77.5t64.5 -29.5z" />
    <glyph glyph-name="r" unicode="r" horiz-adv-x="444" 
d="M277 521l-20 -107h2q11 23 27 44.5t36.5 38t45 26.5t52.5 10q18 0 38 -2.5t38 -10.5l-41 -159q-17 14 -37 18t-46 4q-28 0 -51 -11.5t-39.5 -31t-27.5 -45.5t-16 -55l-51 -240h-180l81 385q7 34 12.5 67.5t9.5 68.5h167z" />
    <glyph glyph-name="s" unicode="s" horiz-adv-x="500" 
d="M32 138q69 -30 146 -30q11 0 28 1t33.5 5.5t28 14t11.5 25.5q0 19 -16 29.5t-40 19t-51.5 18.5t-51.5 27t-40 44t-16 70q0 46 24 78.5t62 53t85 30t92 9.5q34 0 79 -7.5t94 -23.5l-38 -118q-35 14 -69 21.5t-75 7.5q-15 0 -30 -2t-27 -7t-19.5 -13.5t-7.5 -22.5
t16.5 -24.5t41.5 -20t54.5 -20.5t54.5 -26.5t41.5 -38t16.5 -55.5q0 -48 -19 -84.5t-52 -60.5t-77.5 -36.5t-95.5 -13.5q-60 -1 -118.5 7t-100.5 20z" />
    <glyph glyph-name="t" unicode="t" horiz-adv-x="444" 
d="M73 521h103l25 112l190 51l-36 -163h124l-22 -126h-131l-31 -145q-6 -29 -10.5 -50t-4.5 -40q0 -26 16 -42t43 -16q14 0 29 5t29 10l-20 -119q-29 -5 -57 -7.5t-55 -2.5q-34 0 -64.5 8.5t-52.5 27.5t-35 48t-13 70q0 20 3.5 42.5t12.5 64.5l31 146h-96z" />
    <glyph glyph-name="u" unicode="u" horiz-adv-x="667" 
d="M579 136q-7 -34 -12.5 -67.5t-9.5 -68.5h-167l14 85h-2q-39 -43 -84.5 -70t-116.5 -27q-39 0 -69.5 14t-51 38t-31 57t-10.5 71q0 13 0.5 24t2 23.5t4.5 27t7 35.5l48 243h186l-50 -244q-4 -20 -8 -39.5t-4 -39.5q0 -23 16 -42.5t54 -17.5q29 0 51.5 11.5t39 31
t27.5 45.5t16 55l51 240h180z" />
    <glyph glyph-name="v" unicode="v" 
d="M358 0h-205l-85 521h181l36 -371h2l183 371h194z" />
    <glyph glyph-name="w" unicode="w" horiz-adv-x="944" 
d="M725 0h-209l-7 377h-2l-179 -377h-210l-50 521h179l5 -377h2l171 377h218l4 -377h2l167 377h182z" />
    <glyph glyph-name="x" unicode="x" 
d="M194 272l-111 249h190l57 -156l110 156h213l-221 -256l123 -265h-195l-60 162l-120 -162h-222z" />
    <glyph glyph-name="y" unicode="y" 
d="M324 -69q-20 -35 -41.5 -63t-48.5 -48t-60.5 -31t-76.5 -11q-48 0 -81.5 7t-59.5 15l38 131q17 -5 36.5 -10t45.5 -5q38 0 63.5 23t41.5 63l-115 519h183l47 -329h2l177 329h191z" />
    <glyph glyph-name="z" unicode="z" horiz-adv-x="500" 
d="M2 136l284 253h-223l27 132h442l-28 -136l-286 -253h238l-27 -132h-453z" />
    <glyph glyph-name="braceleft" unicode="{" horiz-adv-x="389" 
d="M444 666h-54q-18 0 -30 -5.5t-19 -14.5t-10.5 -20.5t-6.5 -24.5l-41 -195q-6 -29 -20.5 -47.5t-33.5 -29t-40 -15t-41 -5.5v-2q17 -1 34.5 -3.5t31.5 -10t23 -21.5t9 -38q0 -8 -2.5 -21.5t-5.5 -27.5l-31 -153q-3 -16 -5 -28t-2 -20q0 -14 9 -24t32 -10h54l-18 -90h-86
q-27 0 -51 5.5t-41 18t-27 32.5t-10 50q0 9 3 24t6 31l30 145q7 31 7 48t-9 26.5t-22 14.5t-26 6.5t-21 1.5l18 90q14 0 30 1.5t31.5 8t27.5 19.5t17 37l41 199q15 75 61 106.5t121 31.5h86z" />
    <glyph glyph-name="bar" unicode="|" horiz-adv-x="222" 
d="M73 750h126v-762h-126v762z" />
    <glyph glyph-name="braceright" unicode="}" horiz-adv-x="389" 
d="M-25 -50h54q18 0 30 5.5t19 14.5t10.5 20.5t6.5 24.5l41 195q6 29 20.5 47.5t33.5 29t40 15t41 5.5v2q-17 1 -34.5 3.5t-31.5 10t-23 21.5t-9 38q0 8 2.5 21.5t5.5 27.5l31 153q3 16 5 28t2 20q0 14 -9 24t-32 10h-54l18 90h86q27 0 51 -5.5t41 -18t27 -32.5t10 -50
q0 -9 -3 -24t-6 -31l-30 -145q-7 -31 -7 -48t9 -26.5t22 -14.5t26 -6.5t21 -1.5l-18 -90q-13 0 -29.5 -1.5t-32 -8t-27.5 -19.5t-17 -37l-41 -199q-15 -75 -61 -106.5t-121 -31.5h-86z" />
    <glyph glyph-name="asciitilde" unicode="~" horiz-adv-x="600" 
d="M546 244q-8 -16 -19.5 -31.5t-26.5 -27.5t-34.5 -19.5t-44.5 -7.5q-30 0 -58.5 10t-55 22t-51 22t-48.5 10q-30 0 -50.5 -21.5t-37.5 -47.5l-36 109q8 16 19.5 31.5t26.5 27.5t34.5 19.5t44.5 7.5q30 0 58.5 -10t55 -22t51 -22t48.5 -10q30 0 50.5 21.5t37.5 47.5z" />
    <glyph glyph-name="exclamdown" unicode="&#xa1;" horiz-adv-x="444" 
d="M226 -177h-186l124 469h138zM332 359h-169l34 162h169z" />
    <glyph glyph-name="cent" unicode="&#xa2;" horiz-adv-x="612" 
d="M407 401q-65 -5 -104.5 -47.5t-39.5 -120.5q0 -32 17 -58.5t46 -40.5zM283 -8q-48 6 -86.5 26.5t-65 52t-40.5 71t-14 84.5q0 64 24.5 120t68.5 97.5t106 65.5t137 24q14 0 33 -3l36 118h70l-39 -130q32 -7 64 -20l-39 -125q-15 8 -30 13t-32 10l-83 -276q32 1 57 6.5
t53 16.5l-26 -135q-23 -8 -52.5 -13t-71.5 -7l-39 -128h-71z" />
    <glyph glyph-name="sterling" unicode="&#xa3;" horiz-adv-x="612" 
d="M21 132h99l41 190h-86l21 90h84l21 83q13 50 34.5 90t55.5 67.5t83 42.5t117 15q43 0 84 -6t83 -17l-40 -131q-24 7 -59 11.5t-76 4.5q-30 0 -48.5 -7t-30 -21.5t-18.5 -35.5t-13 -49l-10 -47h151l-19 -90h-151l-40 -190h226l-28 -132h-507z" />
    <glyph glyph-name="currency" unicode="&#xa4;" horiz-adv-x="612" 
d="M104 208q-26 26 -36 66t-10 75t10 75t36 66l-58 57l63 62l57 -54q26 21 66.5 31.5t73.5 10.5t73.5 -10.5t66.5 -31.5l57 54l63 -62l-58 -57q26 -26 36 -66t10 -75t-10 -75t-36 -66l58 -57l-63 -62l-57 54q-26 -21 -66.5 -31.5t-73.5 -10.5t-73.5 10.5t-66.5 31.5l-57 -54
l-63 62zM306 227q51 0 83.5 34.5t32.5 87.5t-32.5 87.5t-83.5 34.5t-83.5 -34.5t-32.5 -87.5t32.5 -87.5t83.5 -34.5z" />
    <glyph glyph-name="yen" unicode="&#xa5;" horiz-adv-x="612" 
d="M195 138h-141l19 84h138l7 36l-7 24h-133l19 84h88l-101 332h186l62 -281l174 281h197l-230 -332h96l-19 -84h-135l-17 -24l-7 -36h144l-19 -84h-141l-28 -138h-180z" />
    <glyph glyph-name="brokenbar" unicode="&#xa6;" horiz-adv-x="222" 
d="M73 272h126v-284h-126v284zM73 750h126v-284h-126v284z" />
    <glyph glyph-name="section" unicode="&#xa7;" 
d="M558 544q-15 9 -35.5 17t-43 14.5t-44.5 10.5t-41 4q-41 0 -67 -9.5t-26 -38.5q0 -19 19 -35t47 -32t61.5 -33t61.5 -37.5t47 -47t19 -61.5q0 -61 -34 -100.5t-91 -52.5q22 -19 37.5 -46.5t15.5 -54.5q0 -44 -19.5 -77.5t-53.5 -56t-80 -34.5t-99 -12q-58 0 -116 15.5
t-109 44.5l37 112q42 -23 85.5 -37.5t91.5 -14.5q50 0 71.5 11.5t21.5 37.5q0 21 -17.5 37.5t-44 32.5t-57 33.5t-57 39.5t-44 51t-17.5 68q0 57 34.5 92t87.5 50q-30 25 -45 50.5t-15 58.5q0 38 20 69t53.5 52.5t76 33t87.5 11.5q66 0 119.5 -12.5t99.5 -38.5zM221 306
q0 -16 16 -32t37.5 -30.5t43 -27t32.5 -20.5q25 19 40.5 35.5t15.5 45.5q0 17 -14.5 33t-34.5 30t-40.5 25t-31.5 17q-26 -13 -45 -28.5t-19 -47.5z" />
    <glyph glyph-name="dieresis" unicode="&#xa8;" horiz-adv-x="278" 
d="M400 585h-138l30 144h138zM183 585h-138l30 144h138z" />
    <glyph glyph-name="copyright" unicode="&#xa9;" horiz-adv-x="800" 
d="M573 292q-2 -71 -46 -111t-122 -40q-45 0 -81 16t-61 43.5t-38.5 65.5t-13.5 83q0 44 13.5 82t38.5 66t61 43.5t81 15.5q78 0 122 -40t46 -111h-96q-8 27 -23 41t-49 14q-38 0 -59 -30t-21 -81t21 -81.5t59 -30.5q34 0 49 14t23 41h96zM39 349q0 75 28.5 140.5
t77.5 114.5t114.5 77.5t140.5 28.5t140.5 -28.5t114.5 -77.5t77.5 -114.5t28.5 -140.5t-28.5 -140.5t-77.5 -114.5t-114.5 -77.5t-140.5 -28.5t-140.5 28.5t-114.5 77.5t-77.5 114.5t-28.5 140.5zM153 349q0 -55 19.5 -102.5t53 -82.5t78.5 -54.5t96 -19.5t96 19.5
t78.5 54.5t53 82.5t19.5 102.5q0 56 -19.5 103t-53 82t-78.5 54.5t-96 19.5t-96 -19.5t-78.5 -54.5t-53 -82t-19.5 -103z" />
    <glyph glyph-name="ordfeminine" unicode="&#xaa;" horiz-adv-x="397" 
d="M166 685q56 25 119 25q27 0 55 -4.5t50.5 -16.5t37 -32t14.5 -51q0 -17 -3 -34t-8 -37l-23 -101q-2 -11 -3 -21.5t-2 -24.5h-105l6 49h-2q-27 -32 -62 -44.5t-75 -12.5q-46 0 -71.5 25t-25.5 61q0 38 19.5 61.5t47.5 36.5t57.5 17.5t49.5 4.5q29 0 48.5 -0.5t38.5 -1.5
q1 6 2 11t1 10q0 11 -7 17.5t-17.5 10.5t-22 5.5t-21.5 1.5q-29 0 -57 -6.5t-53 -16.5zM178 486q0 -36 46 -36q19 0 36 6.5t30.5 17t22 23.5t9.5 27q-14 1 -31.5 1.5t-38.5 0.5q-32 0 -53 -8.5t-21 -31.5z" />
    <glyph glyph-name="guillemotleft" unicode="&#xab;" horiz-adv-x="667" 
d="M25 269l188 204h176l-199 -204l161 -204h-163zM303 269l188 204h176l-199 -204l149 -204h-163z" />
    <glyph glyph-name="logicalnot" unicode="&#xac;" horiz-adv-x="600" 
d="M62 431h506v-323h-126v197h-380v126z" />
    <glyph glyph-name="registered" unicode="&#xae;" horiz-adv-x="800" 
d="M400 -12q-75 0 -140.5 28.5t-114.5 77.5t-77.5 114.5t-28.5 140.5t28.5 140.5t77.5 114.5t114.5 77.5t140.5 28.5t140.5 -28.5t114.5 -77.5t77.5 -114.5t28.5 -140.5t-28.5 -140.5t-77.5 -114.5t-114.5 -77.5t-140.5 -28.5zM400 90q51 0 96 19.5t78.5 54.5t53 82.5
t19.5 102.5q0 56 -19.5 103t-53 82t-78.5 54.5t-96 19.5t-96 -19.5t-78.5 -54.5t-53 -82t-19.5 -103q0 -55 19.5 -102.5t53 -82.5t78.5 -54.5t96 -19.5zM257 547h160q74 0 112.5 -24.5t38.5 -90.5q0 -56 -31 -81t-79 -27l94 -170h-96l-86 164h-17v-164h-96v393zM353 394h58
q27 0 44 9.5t17 33.5q0 11 -6.5 18t-16.5 10.5t-22.5 4.5t-23.5 1h-50v-77z" />
    <glyph glyph-name="macron" unicode="&#xaf;" horiz-adv-x="278" 
d="M28 623l16 84h375l-16 -84h-375z" />
    <glyph glyph-name="degree" unicode="&#xb0;" horiz-adv-x="400" 
d="M108 563q0 30 11.5 57t31.5 47t47 31.5t57 11.5t57 -11.5t47 -31.5t31.5 -47t11.5 -57t-11.5 -57t-31.5 -47t-47 -31.5t-57 -11.5t-57 11.5t-47 31.5t-31.5 47t-11.5 57zM186 563q0 -29 20 -49t49 -20t49 20t20 49t-20 49t-49 20t-49 -20t-20 -49z" />
    <glyph glyph-name="plusminus" unicode="&#xb1;" horiz-adv-x="600" 
d="M62 394h190v112h126v-112h190v-126h-190v-112h-126v112h-190v126zM62 126h506v-126h-506v126z" />
    <glyph glyph-name="twosuperior" unicode="&#xb2;" horiz-adv-x="398" 
d="M49 354l79 53q31 21 59.5 41.5t51 40.5t36 38.5t13.5 35.5q0 26 -17.5 38.5t-37.5 12.5q-27 0 -57 -8.5t-53 -19.5l12 102q29 11 61.5 16.5t74.5 5.5q30 0 59 -6.5t51.5 -21.5t36.5 -39t14 -59q0 -36 -16 -65t-44 -53.5t-65.5 -46.5t-80.5 -45v-2h167l-19 -90h-338z" />
    <glyph glyph-name="threesuperior" unicode="&#xb3;" horiz-adv-x="398" 
d="M142 695q26 6 62.5 10.5t76.5 4.5q29 0 57.5 -5.5t51 -18t37 -33t14.5 -51.5q0 -27 -11 -47.5t-29.5 -35.5t-42.5 -24t-49 -11v-2q44 -8 69.5 -27.5t25.5 -57.5q0 -36 -19.5 -59.5t-50.5 -37.5t-68 -20t-73 -6q-95 0 -150 26l22 94q29 -12 57 -18t61 -6q15 0 30 2.5
t26.5 8t19 13.5t7.5 19q0 12 -6.5 19t-16 11t-21 5t-20.5 1q-16 0 -28.5 -0.5t-22.5 -0.5l17 86q10 -1 23 -1h33q13 0 27 2.5t25.5 8t19 14.5t7.5 22q0 21 -19.5 27.5t-48.5 6.5q-26 0 -55 -5.5t-49 -13.5z" />
    <glyph glyph-name="acute" unicode="&#xb4;" horiz-adv-x="278" 
d="M229 729h187l-168 -144h-126z" />
    <glyph glyph-name="mu" unicode="&#xb5;" horiz-adv-x="667" 
d="M579 136q-7 -34 -12.5 -67.5t-9.5 -68.5h-167l14 85h-2q-39 -43 -84.5 -70t-116.5 -27q-6 0 -13 0.5t-12 1.5l-38 -200h-179l142 731h186l-50 -244q-4 -20 -8 -39.5t-4 -39.5q0 -23 16 -42.5t54 -17.5q29 0 51.5 11.5t39 31t27.5 45.5t16 55l51 240h180z" />
    <glyph glyph-name="paragraph" unicode="&#xb6;" horiz-adv-x="620" 
d="M282 -126h-120l99 475q-42 0 -77 8.5t-60 26.5t-39 47t-14 70q0 60 27.5 98.5t69.5 60t93 30t98 8.5h312l-172 -824h-120l153 734h-97z" />
    <glyph glyph-name="periodcentered" unicode="&#xb7;" horiz-adv-x="306" 
d="M170 179q-38 0 -65.5 27.5t-27.5 65.5t27.5 65.5t65.5 27.5t65.5 -27.5t27.5 -65.5t-27.5 -65.5t-65.5 -27.5z" />
    <glyph glyph-name="cedilla" unicode="&#xb8;" horiz-adv-x="278" 
d="M103 0h72l-53 -63l2 -2q9 4 20.5 5t29.5 1q29 0 52 -19.5t23 -59.5q0 -24 -11.5 -40t-30 -25.5t-40.5 -14t-43 -4.5q-38 0 -70 6t-61 21l22 42q20 -9 38.5 -16t40.5 -7q19 0 36 7t17 23q0 23 -10.5 32t-24.5 9q-9 0 -18 -2l-18 -4l-37 23z" />
    <glyph glyph-name="onesuperior" unicode="&#xb9;" horiz-adv-x="398" 
d="M219 570l-83 -48l-38 83l170 97h115l-87 -420h-140z" />
    <glyph glyph-name="ordmasculine" unicode="&#xba;" horiz-adv-x="434" 
d="M194 528q0 -28 15.5 -46t47.5 -18q42 0 65.5 26.5t23.5 60.5q0 31 -12.5 53t-48.5 22q-20 0 -37 -8.5t-29 -22t-18.5 -31.5t-6.5 -36zM472 560q0 -42 -16 -75t-44.5 -56.5t-69 -36t-90.5 -12.5q-37 0 -70.5 6.5t-58.5 22.5t-40 41.5t-15 63.5q0 48 16.5 84.5t46.5 61
t71.5 37.5t91.5 13q38 0 70.5 -9.5t56.5 -28.5t37.5 -47t13.5 -65z" />
    <glyph glyph-name="guillemotright" unicode="&#xbb;" horiz-adv-x="667" 
d="M364 269l-188 -204h-176l199 204l-147 204h163zM642 269l-188 -204h-176l199 204l-147 204h163z" />
    <glyph glyph-name="onequarter" unicode="&#xbc;" horiz-adv-x="916" 
d="M638 720h110l-494 -742h-110zM168 570l-83 -48l-38 83l170 97h115l-87 -420h-140zM728 300h-2l-126 -139h99zM680 71h-200l16 82l243 267h146l-53 -259h59l-17 -90h-60l-15 -71h-135z" />
    <glyph glyph-name="onehalf" unicode="&#xbd;" horiz-adv-x="916" 
d="M616 720h110l-494 -742h-110zM168 570l-83 -48l-38 83l170 97h115l-87 -420h-140zM515 72l79 53q31 21 59.5 41.5t51 40.5t36 38.5t13.5 35.5q0 26 -17.5 38.5t-37.5 12.5q-27 0 -57 -8.5t-53 -19.5l12 102q29 11 61.5 16.5t74.5 5.5q30 0 59 -6.5t51.5 -21.5t36.5 -39
t14 -59q0 -36 -16 -65t-44 -53.5t-65.5 -46.5t-80.5 -45v-2h167l-19 -90h-338z" />
    <glyph glyph-name="threequarters" unicode="&#xbe;" horiz-adv-x="916" 
d="M716 720h110l-494 -742h-110zM142 695q26 6 62.5 10.5t76.5 4.5q29 0 57.5 -5.5t51 -18t37 -33t14.5 -51.5q0 -27 -11 -47.5t-29.5 -35.5t-42.5 -24t-49 -11v-2q44 -8 69.5 -27.5t25.5 -57.5q0 -36 -19.5 -59.5t-50.5 -37.5t-68 -20t-73 -6q-95 0 -150 26l22 94
q29 -12 57 -18t61 -6q15 0 30 2.5t26.5 8t19 13.5t7.5 19q0 12 -6.5 19t-16 11t-21 5t-20.5 1q-16 0 -28.5 -0.5t-22.5 -0.5l17 86q10 -1 23 -1h33q13 0 27 2.5t25.5 8t19 14.5t7.5 22q0 21 -19.5 27.5t-48.5 6.5q-26 0 -55 -5.5t-49 -13.5zM760 300h-2l-126 -139h99z
M712 71h-200l16 82l243 267h146l-53 -259h59l-17 -90h-60l-15 -71h-135z" />
    <glyph glyph-name="questiondown" unicode="&#xbf;" horiz-adv-x="556" 
d="M418 -165q-42 -10 -83.5 -17t-84.5 -7t-88 8.5t-82 28t-60.5 50.5t-23.5 77q0 43 14 75t36 58t49 47.5t52 43t46 45t31 53.5h142q-3 -39 -18 -69.5t-36.5 -55t-45 -45t-44 -40t-33.5 -40t-13 -44.5q0 -12 8 -24t22.5 -21t34 -15t42.5 -6q34 0 76.5 9t79.5 26zM391 359
h-169l34 162h169z" />
    <glyph glyph-name="Agrave" unicode="&#xc0;" horiz-adv-x="778" 
d="M374 698h234l114 -698h-188l-19 149h-271l-83 -149h-202zM467 554h-2l-148 -273h180zM444 738l-144 108h195l83 -108h-134z" />
    <glyph glyph-name="Aacute" unicode="&#xc1;" horiz-adv-x="778" 
d="M374 698h234l114 -698h-188l-19 149h-271l-83 -149h-202zM467 554h-2l-148 -273h180zM512 846h195l-168 -108h-134z" />
    <glyph glyph-name="Acircumflex" unicode="&#xc2;" horiz-adv-x="778" 
d="M374 698h234l114 -698h-188l-19 149h-271l-83 -149h-202zM467 554h-2l-148 -273h180zM422 846h182l86 -108h-123l-59 53l-96 -53h-132z" />
    <glyph glyph-name="Atilde" unicode="&#xc3;" horiz-adv-x="778" 
d="M374 698h234l114 -698h-188l-19 149h-271l-83 -149h-202zM467 554h-2l-148 -273h180zM700 869q-3 -28 -12 -54t-25 -45t-38.5 -30.5t-53.5 -11.5q-19 0 -39 5.5t-39 12.5t-35.5 12.5t-28.5 5.5q-23 0 -33.5 -10t-15.5 -29h-72q3 26 12 51.5t24.5 45.5t38 32t52.5 12
q20 0 39.5 -5.5t38 -12.5t35.5 -12.5t30 -5.5q43 0 50 39h72z" />
    <glyph glyph-name="Adieresis" unicode="&#xc4;" horiz-adv-x="778" 
d="M374 698h234l114 -698h-188l-19 149h-271l-83 -149h-202zM467 554h-2l-148 -273h180zM671 735h-138l30 144h138zM454 735h-138l30 144h138z" />
    <glyph glyph-name="Aring" unicode="&#xc5;" horiz-adv-x="778" 
d="M374 698h234l114 -698h-188l-19 149h-271l-83 -149h-202zM467 554h-2l-148 -273h180zM404 797q0 20 7.5 37t20.5 30t30.5 20.5t36.5 7.5q40 0 67.5 -28t27.5 -67t-27.5 -67t-67.5 -28q-19 0 -36.5 7.5t-30.5 20.5t-20.5 30.5t-7.5 36.5zM455 797q0 -18 13 -31t31 -13
t31 13t13 31t-13 31t-31 13t-31 -13t-13 -31z" />
    <glyph glyph-name="AE" unicode="&#xc6;" horiz-adv-x="944" 
d="M427 698h534l-28 -132h-237l-22 -144h211l-27 -132h-201l-24 -158h219l-28 -132h-388l22 149h-197l-85 -149h-204zM520 564h-2l-177 -283h136z" />
    <glyph glyph-name="Ccedilla" unicode="&#xc7;" horiz-adv-x="667" 
d="M388 -63l2 -2q9 4 20.5 5t29.5 1q29 0 52 -19.5t23 -59.5q0 -24 -11.5 -40t-30 -25.5t-40.5 -14t-43 -4.5q-38 0 -70 6t-61 21l22 42q20 -9 38.5 -16t40.5 -7q19 0 36 7t17 23q0 23 -10.5 32t-24.5 9q-9 0 -18 -2l-18 -4l-37 23l57 79q-71 8 -126.5 34.5t-93.5 68.5
t-57.5 97.5t-19.5 121.5q0 87 29.5 160t84.5 125.5t134 82t177 29.5q101 0 160 -13t87 -24l-44 -143q-45 26 -87 34t-87 8q-70 0 -120 -22.5t-81.5 -60t-46 -84.5t-14.5 -97q0 -46 14 -80.5t39.5 -57t60.5 -33.5t77 -11q51 0 95.5 10t81.5 29l-20 -150q-32 -11 -80 -18
t-94 -9z" />
    <glyph glyph-name="Egrave" unicode="&#xc8;" 
d="M165 698h491l-27 -132h-307l-32 -144h291l-29 -132h-290l-34 -158h319l-27 -132h-505zM393 738l-144 108h195l83 -108h-134z" />
    <glyph glyph-name="Eacute" unicode="&#xc9;" 
d="M165 698h491l-27 -132h-307l-32 -144h291l-29 -132h-290l-34 -158h319l-27 -132h-505zM436 846h195l-168 -108h-134z" />
    <glyph glyph-name="Ecircumflex" unicode="&#xca;" 
d="M165 698h491l-27 -132h-307l-32 -144h291l-29 -132h-290l-34 -158h319l-27 -132h-505zM355 846h182l86 -108h-123l-59 53l-96 -53h-132z" />
    <glyph glyph-name="Edieresis" unicode="&#xcb;" 
d="M165 698h491l-27 -132h-307l-32 -144h291l-29 -132h-290l-34 -158h319l-27 -132h-505zM592 735h-138l30 144h138zM375 735h-138l30 144h138z" />
    <glyph glyph-name="Igrave" unicode="&#xcc;" horiz-adv-x="333" 
d="M168 698h188l-145 -698h-188zM211 738l-144 108h195l83 -108h-134z" />
    <glyph glyph-name="Iacute" unicode="&#xcd;" horiz-adv-x="333" 
d="M168 698h188l-145 -698h-188zM294 846h195l-168 -108h-134z" />
    <glyph glyph-name="Icircumflex" unicode="&#xce;" horiz-adv-x="333" 
d="M168 698h188l-145 -698h-188zM198 846h182l86 -108h-123l-59 53l-96 -53h-132z" />
    <glyph glyph-name="Idieresis" unicode="&#xcf;" horiz-adv-x="333" 
d="M168 698h188l-145 -698h-188zM448 735h-138l30 144h138zM231 735h-138l30 144h138z" />
    <glyph glyph-name="Eth" unicode="&#xd0;" horiz-adv-x="778" 
d="M81 312h-68l22 102h68l60 284h242q83 0 149 -18t112 -55.5t70.5 -95.5t24.5 -138q0 -99 -34 -172.5t-94 -122t-141 -72.5t-176 -24h-301zM290 414h166l-22 -102h-165l-36 -174h61q139 0 207 68.5t68 187.5q0 49 -14 81t-41 51t-66.5 26.5t-90.5 7.5h-36z" />
    <glyph glyph-name="Ntilde" unicode="&#xd1;" horiz-adv-x="778" 
d="M162 698h233l143 -484h2l98 484h176l-148 -698h-232l-146 483h-2l-97 -483h-176zM701 869q-3 -28 -12 -54t-25 -45t-38.5 -30.5t-53.5 -11.5q-19 0 -39 5.5t-39 12.5t-35.5 12.5t-28.5 5.5q-23 0 -33.5 -10t-15.5 -29h-72q3 26 12 51.5t24.5 45.5t38 32t52.5 12
q20 0 39.5 -5.5t38 -12.5t35.5 -12.5t30 -5.5q43 0 50 39h72z" />
    <glyph glyph-name="Ograve" unicode="&#xd2;" horiz-adv-x="778" 
d="M773 425q0 -99 -26 -179.5t-77 -138t-127.5 -88.5t-177.5 -31q-85 0 -144 24.5t-96 64t-53.5 90.5t-16.5 105q0 99 26 180t77 138.5t127.5 88.5t177.5 31q85 0 144 -24.5t96 -64t53.5 -91t16.5 -105.5zM581 410q0 33 -6.5 62.5t-22 51.5t-40.5 35t-61 13q-54 0 -92.5 -28
t-63.5 -70.5t-36.5 -92.5t-11.5 -94q0 -33 6.5 -62.5t22 -51t40.5 -34.5t61 -13q54 0 92.5 28t63.5 70t36.5 92t11.5 94zM446 738l-144 108h195l83 -108h-134z" />
    <glyph glyph-name="Oacute" unicode="&#xd3;" horiz-adv-x="778" 
d="M773 425q0 -99 -26 -179.5t-77 -138t-127.5 -88.5t-177.5 -31q-85 0 -144 24.5t-96 64t-53.5 90.5t-16.5 105q0 99 26 180t77 138.5t127.5 88.5t177.5 31q85 0 144 -24.5t96 -64t53.5 -91t16.5 -105.5zM581 410q0 33 -6.5 62.5t-22 51.5t-40.5 35t-61 13q-54 0 -92.5 -28
t-63.5 -70.5t-36.5 -92.5t-11.5 -94q0 -33 6.5 -62.5t22 -51t40.5 -34.5t61 -13q54 0 92.5 28t63.5 70t36.5 92t11.5 94zM505 846h195l-168 -108h-134z" />
    <glyph glyph-name="Ocircumflex" unicode="&#xd4;" horiz-adv-x="778" 
d="M773 425q0 -99 -26 -179.5t-77 -138t-127.5 -88.5t-177.5 -31q-85 0 -144 24.5t-96 64t-53.5 90.5t-16.5 105q0 99 26 180t77 138.5t127.5 88.5t177.5 31q85 0 144 -24.5t96 -64t53.5 -91t16.5 -105.5zM581 410q0 33 -6.5 62.5t-22 51.5t-40.5 35t-61 13q-54 0 -92.5 -28
t-63.5 -70.5t-36.5 -92.5t-11.5 -94q0 -33 6.5 -62.5t22 -51t40.5 -34.5t61 -13q54 0 92.5 28t63.5 70t36.5 92t11.5 94zM401 846h182l86 -108h-123l-59 53l-96 -53h-132z" />
    <glyph glyph-name="Otilde" unicode="&#xd5;" horiz-adv-x="778" 
d="M773 425q0 -99 -26 -179.5t-77 -138t-127.5 -88.5t-177.5 -31q-85 0 -144 24.5t-96 64t-53.5 90.5t-16.5 105q0 99 26 180t77 138.5t127.5 88.5t177.5 31q85 0 144 -24.5t96 -64t53.5 -91t16.5 -105.5zM581 410q0 33 -6.5 62.5t-22 51.5t-40.5 35t-61 13q-54 0 -92.5 -28
t-63.5 -70.5t-36.5 -92.5t-11.5 -94q0 -33 6.5 -62.5t22 -51t40.5 -34.5t61 -13q54 0 92.5 28t63.5 70t36.5 92t11.5 94zM680 869q-3 -28 -12 -54t-25 -45t-38.5 -30.5t-53.5 -11.5q-19 0 -39 5.5t-39 12.5t-35.5 12.5t-28.5 5.5q-23 0 -33.5 -10t-15.5 -29h-72
q3 26 12 51.5t24.5 45.5t38 32t52.5 12q20 0 39.5 -5.5t38 -12.5t35.5 -12.5t30 -5.5q43 0 50 39h72z" />
    <glyph glyph-name="Odieresis" unicode="&#xd6;" horiz-adv-x="778" 
d="M773 425q0 -99 -26 -179.5t-77 -138t-127.5 -88.5t-177.5 -31q-85 0 -144 24.5t-96 64t-53.5 90.5t-16.5 105q0 99 26 180t77 138.5t127.5 88.5t177.5 31q85 0 144 -24.5t96 -64t53.5 -91t16.5 -105.5zM581 410q0 33 -6.5 62.5t-22 51.5t-40.5 35t-61 13q-54 0 -92.5 -28
t-63.5 -70.5t-36.5 -92.5t-11.5 -94q0 -33 6.5 -62.5t22 -51t40.5 -34.5t61 -13q54 0 92.5 28t63.5 70t36.5 92t11.5 94zM650 735h-138l30 144h138zM433 735h-138l30 144h138z" />
    <glyph glyph-name="multiply" unicode="&#xd7;" horiz-adv-x="600" 
d="M77 405l86 86l152 -152l152 152l86 -86l-153 -152l153 -152l-86 -86l-152 153l-152 -153l-86 86l152 152z" />
    <glyph glyph-name="Oslash" unicode="&#xd8;" horiz-adv-x="778" 
d="M318 138q24 -12 59 -12q54 0 92.5 28t63.5 70t36.5 92t11.5 94q0 20 -2.5 38t-7.5 34zM501 564q-24 8 -50 8q-54 0 -92.5 -28t-63.5 -70.5t-36.5 -92.5t-11.5 -94q0 -33 6 -60zM135 67q-43 41 -61.5 94.5t-18.5 110.5q0 99 26 180t77 138.5t127.5 88.5t177.5 31
q76 0 131 -20l82 111l86 -61l-76 -102q47 -42 67 -97.5t20 -115.5q0 -99 -26 -179.5t-77 -138t-127.5 -88.5t-177.5 -31q-42 0 -76.5 6t-64.5 17l-84 -114l-85 61z" />
    <glyph glyph-name="Ugrave" unicode="&#xd9;" horiz-adv-x="722" 
d="M697 373q-17 -83 -39 -153.5t-60 -122t-99 -80.5t-156 -29q-59 0 -110 11.5t-89 37t-59.5 68t-21.5 103.5q0 42 5 75t10 57l79 358h189l-84 -395q-5 -25 -9 -44.5t-4 -31.5q0 -43 24.5 -72t74.5 -29q45 0 72.5 24.5t45 62t27 82.5t18.5 87l69 316h185zM430 738l-144 108
h195l83 -108h-134z" />
    <glyph glyph-name="Uacute" unicode="&#xda;" horiz-adv-x="722" 
d="M697 373q-17 -83 -39 -153.5t-60 -122t-99 -80.5t-156 -29q-59 0 -110 11.5t-89 37t-59.5 68t-21.5 103.5q0 42 5 75t10 57l79 358h189l-84 -395q-5 -25 -9 -44.5t-4 -31.5q0 -43 24.5 -72t74.5 -29q45 0 72.5 24.5t45 62t27 82.5t18.5 87l69 316h185zM493 846h195
l-168 -108h-134z" />
    <glyph glyph-name="Ucircumflex" unicode="&#xdb;" horiz-adv-x="722" 
d="M697 373q-17 -83 -39 -153.5t-60 -122t-99 -80.5t-156 -29q-59 0 -110 11.5t-89 37t-59.5 68t-21.5 103.5q0 42 5 75t10 57l79 358h189l-84 -395q-5 -25 -9 -44.5t-4 -31.5q0 -43 24.5 -72t74.5 -29q45 0 72.5 24.5t45 62t27 82.5t18.5 87l69 316h185zM399 846h182
l86 -108h-123l-59 53l-96 -53h-132z" />
    <glyph glyph-name="Udieresis" unicode="&#xdc;" horiz-adv-x="722" 
d="M697 373q-17 -83 -39 -153.5t-60 -122t-99 -80.5t-156 -29q-59 0 -110 11.5t-89 37t-59.5 68t-21.5 103.5q0 42 5 75t10 57l79 358h189l-84 -395q-5 -25 -9 -44.5t-4 -31.5q0 -43 24.5 -72t74.5 -29q45 0 72.5 24.5t45 62t27 82.5t18.5 87l69 316h185zM645 735h-138
l30 144h138zM428 735h-138l30 144h138z" />
    <glyph glyph-name="Yacute" unicode="&#xdd;" horiz-adv-x="722" 
d="M271 258l-163 440h196l87 -281l193 281h229l-352 -440l-54 -258h-190zM481 846h195l-168 -108h-134z" />
    <glyph glyph-name="Thorn" unicode="&#xde;" 
d="M250 289h50q28 0 53.5 5.5t45 18t31 33.5t11.5 52q0 25 -8 41t-21.5 25t-30.5 12t-36 3h-55zM153 698h186l-19 -87q57 0 112.5 -5.5t98.5 -26.5t69.5 -62t26.5 -113q0 -60 -25 -106t-67 -77.5t-98.5 -47.5t-119.5 -16h-95l-33 -157h-186z" />
    <glyph glyph-name="germandbls" unicode="&#xdf;" horiz-adv-x="667" 
d="M112 493q14 69 36 119.5t58 83.5t87.5 49.5t123.5 16.5q43 0 89 -7.5t84 -27.5t62.5 -55t24.5 -89q0 -88 -49.5 -135.5t-137.5 -56.5v-2q69 -16 104 -58.5t35 -99.5q0 -51 -18.5 -94.5t-54 -75t-86 -49.5t-114.5 -18q-31 0 -64 2.5t-55 5.5l28 129q28 -11 61 -11
q21 0 43 8t39.5 24t29 39.5t11.5 53.5q0 29 -9.5 45t-26 24.5t-38.5 10.5t-46 2l26 126h35q18 0 37 6.5t34.5 19t25.5 32t10 45.5q0 43 -22.5 64.5t-58.5 21.5q-25 0 -44.5 -12.5t-34.5 -32t-25 -43.5t-15 -48l-109 -506h-181z" />
    <glyph glyph-name="agrave" unicode="&#xe0;" 
d="M367 73l-2 2v-2q-29 -45 -75.5 -65t-99.5 -20q-85 0 -129.5 37.5t-44.5 113.5q0 48 22.5 84t61.5 59.5t91 35.5t112 12q27 0 52.5 -1.5t44.5 -3.5q2 5 2 10.5v10.5q0 28 -25.5 47.5t-70.5 19.5q-49 0 -86.5 -9t-82.5 -32l18 131q40 14 85 22t106 8q47 0 88 -9.5t71.5 -31
t48.5 -55t18 -81.5q0 -31 -7.5 -68.5t-18 -81.5t-21.5 -95.5t-19 -110.5h-147zM186 160q0 -18 16 -35t45 -17q58 0 92 35t44 88q-11 2 -25.5 2.5t-22.5 0.5q-64 2 -106.5 -18.5t-42.5 -55.5zM345 585l-136 144h187l75 -144h-126z" />
    <glyph glyph-name="aacute" unicode="&#xe1;" 
d="M367 73l-2 2v-2q-29 -45 -75.5 -65t-99.5 -20q-85 0 -129.5 37.5t-44.5 113.5q0 48 22.5 84t61.5 59.5t91 35.5t112 12q27 0 52.5 -1.5t44.5 -3.5q2 5 2 10.5v10.5q0 28 -25.5 47.5t-70.5 19.5q-49 0 -86.5 -9t-82.5 -32l18 131q40 14 85 22t106 8q47 0 88 -9.5t71.5 -31
t48.5 -55t18 -81.5q0 -31 -7.5 -68.5t-18 -81.5t-21.5 -95.5t-19 -110.5h-147zM186 160q0 -18 16 -35t45 -17q58 0 92 35t44 88q-11 2 -25.5 2.5t-22.5 0.5q-64 2 -106.5 -18.5t-42.5 -55.5zM396 729h187l-168 -144h-126z" />
    <glyph glyph-name="acircumflex" unicode="&#xe2;" 
d="M367 73l-2 2v-2q-29 -45 -75.5 -65t-99.5 -20q-85 0 -129.5 37.5t-44.5 113.5q0 48 22.5 84t61.5 59.5t91 35.5t112 12q27 0 52.5 -1.5t44.5 -3.5q2 5 2 10.5v10.5q0 28 -25.5 47.5t-70.5 19.5q-49 0 -86.5 -9t-82.5 -32l18 131q40 14 85 22t106 8q47 0 88 -9.5t71.5 -31
t48.5 -55t18 -81.5q0 -31 -7.5 -68.5t-18 -81.5t-21.5 -95.5t-19 -110.5h-147zM186 160q0 -18 16 -35t45 -17q58 0 92 35t44 88q-11 2 -25.5 2.5t-22.5 0.5q-64 2 -106.5 -18.5t-42.5 -55.5zM311 729h162l84 -144h-113l-58 78l-101 -78h-118z" />
    <glyph glyph-name="atilde" unicode="&#xe3;" 
d="M367 73l-2 2v-2q-29 -45 -75.5 -65t-99.5 -20q-85 0 -129.5 37.5t-44.5 113.5q0 48 22.5 84t61.5 59.5t91 35.5t112 12q27 0 52.5 -1.5t44.5 -3.5q2 5 2 10.5v10.5q0 28 -25.5 47.5t-70.5 19.5q-49 0 -86.5 -9t-82.5 -32l18 131q40 14 85 22t106 8q47 0 88 -9.5t71.5 -31
t48.5 -55t18 -81.5q0 -31 -7.5 -68.5t-18 -81.5t-21.5 -95.5t-19 -110.5h-147zM186 160q0 -18 16 -35t45 -17q58 0 92 35t44 88q-11 2 -25.5 2.5t-22.5 0.5q-64 2 -106.5 -18.5t-42.5 -55.5zM584 729q-3 -28 -12 -54t-25 -45t-38.5 -30.5t-53.5 -11.5q-19 0 -39 5.5
t-39 12.5t-35.5 12.5t-28.5 5.5q-23 0 -33.5 -10t-15.5 -29h-72q3 26 12 51.5t24.5 45.5t38 32t52.5 12q20 0 39.5 -5.5t38 -12.5t35.5 -12.5t30 -5.5q43 0 50 39h72z" />
    <glyph glyph-name="adieresis" unicode="&#xe4;" 
d="M367 73l-2 2v-2q-29 -45 -75.5 -65t-99.5 -20q-85 0 -129.5 37.5t-44.5 113.5q0 48 22.5 84t61.5 59.5t91 35.5t112 12q27 0 52.5 -1.5t44.5 -3.5q2 5 2 10.5v10.5q0 28 -25.5 47.5t-70.5 19.5q-49 0 -86.5 -9t-82.5 -32l18 131q40 14 85 22t106 8q47 0 88 -9.5t71.5 -31
t48.5 -55t18 -81.5q0 -31 -7.5 -68.5t-18 -81.5t-21.5 -95.5t-19 -110.5h-147zM186 160q0 -18 16 -35t45 -17q58 0 92 35t44 88q-11 2 -25.5 2.5t-22.5 0.5q-64 2 -106.5 -18.5t-42.5 -55.5zM562 585h-138l30 144h138zM345 585h-138l30 144h138z" />
    <glyph glyph-name="aring" unicode="&#xe5;" 
d="M367 73l-2 2v-2q-29 -45 -75.5 -65t-99.5 -20q-85 0 -129.5 37.5t-44.5 113.5q0 48 22.5 84t61.5 59.5t91 35.5t112 12q27 0 52.5 -1.5t44.5 -3.5q2 5 2 10.5v10.5q0 28 -25.5 47.5t-70.5 19.5q-49 0 -86.5 -9t-82.5 -32l18 131q40 14 85 22t106 8q47 0 88 -9.5t71.5 -31
t48.5 -55t18 -81.5q0 -31 -7.5 -68.5t-18 -81.5t-21.5 -95.5t-19 -110.5h-147zM186 160q0 -18 16 -35t45 -17q58 0 92 35t44 88q-11 2 -25.5 2.5t-22.5 0.5q-64 2 -106.5 -18.5t-42.5 -55.5zM276 669q0 23 9 43.5t24 35.5t35.5 24t43.5 9t43.5 -9t35.5 -24t24 -35.5t9 -43.5
t-9 -43.5t-24 -35.5t-35.5 -24t-43.5 -9t-43.5 9t-35.5 24t-24 35.5t-9 43.5zM336 669q0 -21 15.5 -36.5t36.5 -15.5t36.5 15.5t15.5 36.5t-15.5 36.5t-36.5 15.5t-36.5 -15.5t-15.5 -36.5z" />
    <glyph glyph-name="ae" unicode="&#xe6;" horiz-adv-x="889" 
d="M517 208q-1 -16 4 -34t19.5 -32.5t39.5 -24t64 -9.5q36 0 80.5 9t82.5 27l-23 -127q-48 -14 -95.5 -21.5t-86.5 -7.5q-23 0 -48.5 4.5t-50.5 16t-47 32.5t-39 54q-43 -54 -102 -80.5t-138 -26.5q-85 0 -129.5 37.5t-44.5 113.5q0 48 22.5 84t61.5 59.5t91 35.5t112 12
q27 0 52.5 -1.5t44.5 -3.5q2 5 2 10.5v10.5q0 28 -25.5 47.5t-70.5 19.5q-49 0 -86.5 -9t-82.5 -32l18 131q40 14 85 22t106 8q45 0 87 -11t80 -46q31 26 70 41.5t100 15.5q41 0 80 -13t69 -41t48.5 -71t18.5 -102q0 -16 -4 -45.5t-9 -52.5h-356zM175 160q0 -18 16 -35
t45 -17q58 0 92 35t44 88q-11 2 -25.5 2.5t-22.5 0.5q-64 2 -106.5 -18.5t-42.5 -55.5zM742 310q0 42 -19 72.5t-66 30.5q-29 0 -50.5 -9t-35.5 -23.5t-22 -33t-10 -37.5h203z" />
    <glyph glyph-name="ccedilla" unicode="&#xe7;" horiz-adv-x="500" 
d="M264 -63l2 -2q9 4 20.5 5t29.5 1q29 0 52 -19.5t23 -59.5q0 -24 -11.5 -40t-30 -25.5t-40.5 -14t-43 -4.5q-38 0 -70 6t-61 21l22 42q20 -9 38.5 -16t40.5 -7q19 0 36 7t17 23q0 23 -10.5 32t-24.5 9q-9 0 -18 -2l-18 -4l-37 23l57 78q-48 6 -86 27t-65 52.5t-41 71.5
t-14 85q0 64 24.5 120t68.5 97.5t106 65.5t137 24q33 0 78.5 -9t85.5 -26l-39 -125q-28 13 -57 20.5t-59 7.5q-70 0 -114.5 -43.5t-44.5 -124.5q0 -47 33.5 -80t90.5 -33q34 0 60.5 5.5t55.5 17.5l-26 -135q-23 -8 -53.5 -13t-71.5 -7z" />
    <glyph glyph-name="egrave" unicode="&#xe8;" 
d="M482 17q-48 -14 -95.5 -21.5t-86.5 -7.5q-65 0 -115 19t-84 51t-51.5 75.5t-17.5 92.5q0 45 16 99t53 100t96.5 77t146.5 31q51 0 95 -13t76.5 -41t50.5 -71t18 -102q0 -16 -4 -45.5t-9 -52.5h-369q1 -21 7.5 -39t22 -31.5t42.5 -21.5t68 -8q36 0 80.5 9t82.5 27z
M434 310q0 42 -19 72.5t-69 30.5q-29 0 -51.5 -9t-39 -23.5t-27 -33t-15.5 -37.5h221zM340 585l-136 144h187l75 -144h-126z" />
    <glyph glyph-name="eacute" unicode="&#xe9;" 
d="M482 17q-48 -14 -95.5 -21.5t-86.5 -7.5q-65 0 -115 19t-84 51t-51.5 75.5t-17.5 92.5q0 45 16 99t53 100t96.5 77t146.5 31q51 0 95 -13t76.5 -41t50.5 -71t18 -102q0 -16 -4 -45.5t-9 -52.5h-369q1 -21 7.5 -39t22 -31.5t42.5 -21.5t68 -8q36 0 80.5 9t82.5 27z
M434 310q0 42 -19 72.5t-69 30.5q-29 0 -51.5 -9t-39 -23.5t-27 -33t-15.5 -37.5h221zM383 729h187l-168 -144h-126z" />
    <glyph glyph-name="ecircumflex" unicode="&#xea;" 
d="M482 17q-48 -14 -95.5 -21.5t-86.5 -7.5q-65 0 -115 19t-84 51t-51.5 75.5t-17.5 92.5q0 45 16 99t53 100t96.5 77t146.5 31q51 0 95 -13t76.5 -41t50.5 -71t18 -102q0 -16 -4 -45.5t-9 -52.5h-369q1 -21 7.5 -39t22 -31.5t42.5 -21.5t68 -8q36 0 80.5 9t82.5 27z
M434 310q0 42 -19 72.5t-69 30.5q-29 0 -51.5 -9t-39 -23.5t-27 -33t-15.5 -37.5h221zM306 729h162l84 -144h-113l-58 78l-101 -78h-118z" />
    <glyph glyph-name="edieresis" unicode="&#xeb;" 
d="M482 17q-48 -14 -95.5 -21.5t-86.5 -7.5q-65 0 -115 19t-84 51t-51.5 75.5t-17.5 92.5q0 45 16 99t53 100t96.5 77t146.5 31q51 0 95 -13t76.5 -41t50.5 -71t18 -102q0 -16 -4 -45.5t-9 -52.5h-369q1 -21 7.5 -39t22 -31.5t42.5 -21.5t68 -8q36 0 80.5 9t82.5 27z
M434 310q0 42 -19 72.5t-69 30.5q-29 0 -51.5 -9t-39 -23.5t-27 -33t-15.5 -37.5h221zM549 585h-138l30 144h138zM332 585h-138l30 144h138z" />
    <glyph glyph-name="igrave" unicode="&#xec;" horiz-adv-x="333" 
d="M134 521h182l-108 -521h-182zM186 585l-136 144h187l75 -144h-126z" />
    <glyph glyph-name="iacute" unicode="&#xed;" horiz-adv-x="333" 
d="M134 521h182l-108 -521h-182zM259 729h187l-168 -144h-126z" />
    <glyph glyph-name="icircumflex" unicode="&#xee;" horiz-adv-x="333" 
d="M134 521h182l-108 -521h-182zM184 729h162l84 -144h-113l-58 78l-101 -78h-118z" />
    <glyph glyph-name="idieresis" unicode="&#xef;" horiz-adv-x="333" 
d="M134 521h182l-108 -521h-182zM417 585h-138l30 144h138zM200 585h-138l30 144h138z" />
    <glyph glyph-name="eth" unicode="&#xf0;" horiz-adv-x="667" 
d="M218 230q0 -54 21.5 -85t76.5 -31q32 0 57 12.5t43 34.5t27.5 52t9.5 66q0 17 -4.5 35t-15 33t-29 24.5t-45.5 9.5q-31 0 -57 -14t-45 -35.5t-29 -48.5t-10 -53zM294 651q-22 17 -43 30t-39 23l128 82q27 -14 56 -33t58 -44l118 43l40 -64l-99 -35q53 -57 89.5 -130.5
t36.5 -162.5q0 -96 -24.5 -166.5t-68.5 -116t-104.5 -67.5t-133.5 -22q-60 0 -110.5 16t-87.5 45.5t-57.5 72t-20.5 94.5q0 71 23 125t60.5 91t86 56t100.5 19q47 0 78 -13.5t65 -48.5h2q-14 47 -38 84.5t-53 66.5l-125 -45l-39 63z" />
    <glyph glyph-name="ntilde" unicode="&#xf1;" horiz-adv-x="667" 
d="M88 385q7 34 12.5 67.5t9.5 68.5h167l-14 -85h2q39 44 84.5 70.5t116.5 26.5q39 0 69.5 -14t51 -38t31 -57t10.5 -71q0 -13 -0.5 -24t-2 -23.5t-4.5 -27t-7 -35.5l-48 -243h-186l50 244q4 20 8 39.5t4 39.5q0 23 -16 42.5t-54 17.5q-28 0 -51 -11.5t-39.5 -31
t-27.5 -45.5t-16 -55l-51 -240h-180zM614 729q-3 -28 -12 -54t-25 -45t-38.5 -30.5t-53.5 -11.5q-19 0 -39 5.5t-39 12.5t-35.5 12.5t-28.5 5.5q-23 0 -33.5 -10t-15.5 -29h-72q3 26 12 51.5t24.5 45.5t38 32t52.5 12q20 0 39.5 -5.5t38 -12.5t35.5 -12.5t30 -5.5
q43 0 50 39h72z" />
    <glyph glyph-name="ograve" unicode="&#xf2;" horiz-adv-x="667" 
d="M453 302q0 20 -5 39t-16 33.5t-29 23.5t-44 9q-33 0 -59 -16t-44 -41.5t-28 -57t-10 -62.5q0 -53 26 -85t72 -31q63 0 100 49.5t37 138.5zM639 300q0 -81 -25 -140t-70 -97.5t-106.5 -56.5t-134.5 -18q-72 0 -123.5 19t-84.5 51t-48 75.5t-15 92.5q0 69 24 125.5t67.5 97
t106 62.5t138.5 22q66 0 117 -18t85 -49.5t51.5 -74t17.5 -91.5zM359 585l-136 144h187l75 -144h-126z" />
    <glyph glyph-name="oacute" unicode="&#xf3;" horiz-adv-x="667" 
d="M453 302q0 20 -5 39t-16 33.5t-29 23.5t-44 9q-33 0 -59 -16t-44 -41.5t-28 -57t-10 -62.5q0 -53 26 -85t72 -31q63 0 100 49.5t37 138.5zM639 300q0 -81 -25 -140t-70 -97.5t-106.5 -56.5t-134.5 -18q-72 0 -123.5 19t-84.5 51t-48 75.5t-15 92.5q0 69 24 125.5t67.5 97
t106 62.5t138.5 22q66 0 117 -18t85 -49.5t51.5 -74t17.5 -91.5zM403 729h187l-168 -144h-126z" />
    <glyph glyph-name="ocircumflex" unicode="&#xf4;" horiz-adv-x="667" 
d="M453 302q0 20 -5 39t-16 33.5t-29 23.5t-44 9q-33 0 -59 -16t-44 -41.5t-28 -57t-10 -62.5q0 -53 26 -85t72 -31q63 0 100 49.5t37 138.5zM639 300q0 -81 -25 -140t-70 -97.5t-106.5 -56.5t-134.5 -18q-72 0 -123.5 19t-84.5 51t-48 75.5t-15 92.5q0 69 24 125.5t67.5 97
t106 62.5t138.5 22q66 0 117 -18t85 -49.5t51.5 -74t17.5 -91.5zM339 729h162l84 -144h-113l-58 78l-101 -78h-118z" />
    <glyph glyph-name="otilde" unicode="&#xf5;" horiz-adv-x="667" 
d="M453 302q0 20 -5 39t-16 33.5t-29 23.5t-44 9q-33 0 -59 -16t-44 -41.5t-28 -57t-10 -62.5q0 -53 26 -85t72 -31q63 0 100 49.5t37 138.5zM639 300q0 -81 -25 -140t-70 -97.5t-106.5 -56.5t-134.5 -18q-72 0 -123.5 19t-84.5 51t-48 75.5t-15 92.5q0 69 24 125.5t67.5 97
t106 62.5t138.5 22q66 0 117 -18t85 -49.5t51.5 -74t17.5 -91.5zM606 729q-3 -28 -12 -54t-25 -45t-38.5 -30.5t-53.5 -11.5q-19 0 -39 5.5t-39 12.5t-35.5 12.5t-28.5 5.5q-23 0 -33.5 -10t-15.5 -29h-72q3 26 12 51.5t24.5 45.5t38 32t52.5 12q20 0 39.5 -5.5t38 -12.5
t35.5 -12.5t30 -5.5q43 0 50 39h72z" />
    <glyph glyph-name="odieresis" unicode="&#xf6;" horiz-adv-x="667" 
d="M453 302q0 20 -5 39t-16 33.5t-29 23.5t-44 9q-33 0 -59 -16t-44 -41.5t-28 -57t-10 -62.5q0 -53 26 -85t72 -31q63 0 100 49.5t37 138.5zM639 300q0 -81 -25 -140t-70 -97.5t-106.5 -56.5t-134.5 -18q-72 0 -123.5 19t-84.5 51t-48 75.5t-15 92.5q0 69 24 125.5t67.5 97
t106 62.5t138.5 22q66 0 117 -18t85 -49.5t51.5 -74t17.5 -91.5zM570 585h-138l30 144h138zM353 585h-138l30 144h138z" />
    <glyph glyph-name="divide" unicode="&#xf7;" horiz-adv-x="600" 
d="M62 316h506v-126h-506v126zM221 461q0 38 27.5 65.5t65.5 27.5t65.5 -27.5t27.5 -65.5t-27.5 -65.5t-65.5 -27.5t-65.5 27.5t-27.5 65.5zM221 45q0 38 27.5 65.5t65.5 27.5t65.5 -27.5t27.5 -65.5t-27.5 -65.5t-65.5 -27.5t-65.5 27.5t-27.5 65.5z" />
    <glyph glyph-name="oslash" unicode="&#xf8;" horiz-adv-x="667" 
d="M284 119q8 -3 16 -4t16 -1q63 0 100 49.5t37 138.5q0 11 -1 20.5t-4 18.5zM382 404q-9 3 -23 3q-33 0 -59 -16t-44 -41.5t-28 -57t-10 -62.5q0 -19 5 -41zM114 42q-43 32 -62.5 79.5t-19.5 104.5q0 69 24 125.5t67.5 97t106 62.5t138.5 22q28 0 52.5 -3.5t47.5 -9.5
l67 90l72 -54l-56 -75q44 -32 66 -78.5t22 -102.5q0 -81 -25 -140t-70 -97.5t-106.5 -56.5t-134.5 -18q-59 0 -106 14l-64 -86l-72 54z" />
    <glyph glyph-name="ugrave" unicode="&#xf9;" horiz-adv-x="667" 
d="M579 136q-7 -34 -12.5 -67.5t-9.5 -68.5h-167l14 85h-2q-39 -43 -84.5 -70t-116.5 -27q-39 0 -69.5 14t-51 38t-31 57t-10.5 71q0 13 0.5 24t2 23.5t4.5 27t7 35.5l48 243h186l-50 -244q-4 -20 -8 -39.5t-4 -39.5q0 -23 16 -42.5t54 -17.5q29 0 51.5 11.5t39 31
t27.5 45.5t16 55l51 240h180zM358 585l-136 144h187l75 -144h-126z" />
    <glyph glyph-name="uacute" unicode="&#xfa;" horiz-adv-x="667" 
d="M579 136q-7 -34 -12.5 -67.5t-9.5 -68.5h-167l14 85h-2q-39 -43 -84.5 -70t-116.5 -27q-39 0 -69.5 14t-51 38t-31 57t-10.5 71q0 13 0.5 24t2 23.5t4.5 27t7 35.5l48 243h186l-50 -244q-4 -20 -8 -39.5t-4 -39.5q0 -23 16 -42.5t54 -17.5q29 0 51.5 11.5t39 31
t27.5 45.5t16 55l51 240h180zM421 729h187l-168 -144h-126z" />
    <glyph glyph-name="ucircumflex" unicode="&#xfb;" horiz-adv-x="667" 
d="M579 136q-7 -34 -12.5 -67.5t-9.5 -68.5h-167l14 85h-2q-39 -43 -84.5 -70t-116.5 -27q-39 0 -69.5 14t-51 38t-31 57t-10.5 71q0 13 0.5 24t2 23.5t4.5 27t7 35.5l48 243h186l-50 -244q-4 -20 -8 -39.5t-4 -39.5q0 -23 16 -42.5t54 -17.5q29 0 51.5 11.5t39 31
t27.5 45.5t16 55l51 240h180zM342 729h162l84 -144h-113l-58 78l-101 -78h-118z" />
    <glyph glyph-name="udieresis" unicode="&#xfc;" horiz-adv-x="667" 
d="M579 136q-7 -34 -12.5 -67.5t-9.5 -68.5h-167l14 85h-2q-39 -43 -84.5 -70t-116.5 -27q-39 0 -69.5 14t-51 38t-31 57t-10.5 71q0 13 0.5 24t2 23.5t4.5 27t7 35.5l48 243h186l-50 -244q-4 -20 -8 -39.5t-4 -39.5q0 -23 16 -42.5t54 -17.5q29 0 51.5 11.5t39 31
t27.5 45.5t16 55l51 240h180zM576 585h-138l30 144h138zM359 585h-138l30 144h138z" />
    <glyph glyph-name="yacute" unicode="&#xfd;" 
d="M324 -69q-20 -35 -41.5 -63t-48.5 -48t-60.5 -31t-76.5 -11q-48 0 -81.5 7t-59.5 15l38 131q17 -5 36.5 -10t45.5 -5q38 0 63.5 23t41.5 63l-115 519h183l47 -329h2l177 329h191zM399 729h187l-168 -144h-126z" />
    <glyph glyph-name="thorn" unicode="&#xfe;" horiz-adv-x="667" 
d="M159 750h177l-65 -292h2q34 36 75.5 55.5t92.5 19.5q48 0 84.5 -17t60.5 -46.5t36.5 -68.5t12.5 -83q0 -64 -16.5 -123.5t-50 -105.5t-85 -73.5t-122.5 -27.5q-60 0 -99.5 25t-68.5 74l-66 -297h-182zM227 232q0 -20 5 -39t15.5 -34t27 -24t38.5 -9q32 0 57 14t42.5 36.5
t27 52t9.5 59.5q0 48 -21.5 77.5t-64.5 29.5q-32 0 -57 -16t-42.5 -40t-27 -52.5t-9.5 -54.5z" />
    <glyph glyph-name="ydieresis" unicode="&#xff;" 
d="M324 -69q-20 -35 -41.5 -63t-48.5 -48t-60.5 -31t-76.5 -11q-48 0 -81.5 7t-59.5 15l38 131q17 -5 36.5 -10t45.5 -5q38 0 63.5 23t41.5 63l-115 519h183l47 -329h2l177 329h191zM549 585h-138l30 144h138zM332 585h-138l30 144h138z" />
    <glyph glyph-name="Amacron" unicode="&#x100;" horiz-adv-x="778" 
d="M374 698h234l114 -698h-188l-19 149h-271l-83 -149h-202zM467 554h-2l-148 -273h180zM309 761l16 84h375l-16 -84h-375z" />
    <glyph glyph-name="amacron" unicode="&#x101;" 
d="M367 73l-2 2v-2q-29 -45 -75.5 -65t-99.5 -20q-85 0 -129.5 37.5t-44.5 113.5q0 48 22.5 84t61.5 59.5t91 35.5t112 12q27 0 52.5 -1.5t44.5 -3.5q2 5 2 10.5v10.5q0 28 -25.5 47.5t-70.5 19.5q-49 0 -86.5 -9t-82.5 -32l18 131q40 14 85 22t106 8q47 0 88 -9.5t71.5 -31
t48.5 -55t18 -81.5q0 -31 -7.5 -68.5t-18 -81.5t-21.5 -95.5t-19 -110.5h-147zM186 160q0 -18 16 -35t45 -17q58 0 92 35t44 88q-11 2 -25.5 2.5t-22.5 0.5q-64 2 -106.5 -18.5t-42.5 -55.5zM195 623l16 84h375l-16 -84h-375z" />
    <glyph glyph-name="Abreve" unicode="&#x102;" horiz-adv-x="778" 
d="M374 698h234l114 -698h-188l-19 149h-271l-83 -149h-202zM467 554h-2l-148 -273h180zM402 846q3 -29 32 -36.5t74 -7.5q17 0 35.5 2.5t34.5 7.5t28 13.5t15 20.5h88q-50 -121 -221 -121q-35 0 -66 8.5t-53.5 24.5t-35.5 38.5t-13 49.5h82z" />
    <glyph glyph-name="abreve" unicode="&#x103;" 
d="M367 73l-2 2v-2q-29 -45 -75.5 -65t-99.5 -20q-85 0 -129.5 37.5t-44.5 113.5q0 48 22.5 84t61.5 59.5t91 35.5t112 12q27 0 52.5 -1.5t44.5 -3.5q2 5 2 10.5v10.5q0 28 -25.5 47.5t-70.5 19.5q-49 0 -86.5 -9t-82.5 -32l18 131q40 14 85 22t106 8q47 0 88 -9.5t71.5 -31
t48.5 -55t18 -81.5q0 -31 -7.5 -68.5t-18 -81.5t-21.5 -95.5t-19 -110.5h-147zM186 160q0 -18 16 -35t45 -17q58 0 92 35t44 88q-11 2 -25.5 2.5t-22.5 0.5q-64 2 -106.5 -18.5t-42.5 -55.5zM291 729q6 -43 32 -58t69 -15q17 0 34 5.5t32 15.5t26.5 23t15.5 29h88
q-49 -157 -215 -157q-34 0 -64 11t-52 31.5t-34.5 49.5t-12.5 65h81z" />
    <glyph glyph-name="Aogonek" unicode="&#x104;" horiz-adv-x="778" 
d="M467 554h-2l-148 -273h180zM534 0l-19 149h-271l-83 -149h-202l415 698h234l114 -698h-9q-16 0 -33 -8t-35 -21q-33 -23 -52 -49t-19 -40q0 -22 13.5 -30t33.5 -8q13 0 29.5 2.5t39.5 10.5l-17 -67q-21 -5 -36 -7t-27 -3.5t-23.5 -1.5h-25.5q-56 0 -86 19t-30 64
q0 22 12 43.5t31 40t43 33t49 22.5h-46z" />
    <glyph glyph-name="aogonek" unicode="&#x105;" 
d="M186 160q0 -18 16 -35t45 -17q58 0 92 35t44 88q-11 2 -25.5 2.5t-22.5 0.5q-64 2 -106.5 -18.5t-42.5 -55.5zM359 0l8 73l-2 2v-2q-29 -45 -75.5 -65t-99.5 -20q-85 0 -129.5 37.5t-44.5 113.5q0 48 22.5 84t61.5 59.5t91 35.5t112 12q27 0 52.5 -1.5t44.5 -3.5
q2 5 2 10.5v10.5q0 28 -25.5 47.5t-70.5 19.5q-49 0 -86.5 -9t-82.5 -32l18 131q40 14 85 22t106 8q47 0 88 -9.5t71.5 -31t48.5 -55t18 -81.5q0 -31 -7.5 -68.5t-18 -81.5t-21.5 -95.5t-19 -110.5q-8 0 -24 -8t-34 -21q-33 -23 -52 -49t-19 -40q0 -22 13.5 -30t33.5 -8
q13 0 29.5 2.5t39.5 10.5l-17 -67q-21 -5 -36 -7t-27 -3.5t-23.5 -1.5h-25.5q-56 0 -86 19t-30 64q0 22 12 43.5t31 40t43 33t49 22.5h-24z" />
    <glyph glyph-name="Cacute" unicode="&#x106;" horiz-adv-x="667" 
d="M693 530q-45 26 -87 34t-87 8q-70 0 -120 -22.5t-81.5 -60t-46 -84.5t-14.5 -97q0 -46 14 -80.5t39.5 -57t60.5 -33.5t77 -11q51 0 95.5 10t81.5 29l-20 -150q-17 -6 -39 -10.5t-47 -8.5t-50.5 -6t-49.5 -2q-84 0 -150 24t-111.5 66.5t-69 102.5t-23.5 132q0 87 29.5 160
t84.5 125.5t134 82t177 29.5q101 0 160 -13t87 -24zM521 846h195l-168 -108h-134z" />
    <glyph glyph-name="cacute" unicode="&#x107;" horiz-adv-x="500" 
d="M432 8q-27 -9 -64 -14.5t-90 -5.5q-57 0 -102.5 19t-77.5 51t-49 75.5t-17 92.5q0 64 24.5 120t68.5 97.5t106 65.5t137 24q33 0 78.5 -9t85.5 -26l-39 -125q-28 13 -57 20.5t-59 7.5q-70 0 -114.5 -43.5t-44.5 -124.5q0 -47 33.5 -80t90.5 -33q34 0 60.5 5.5t55.5 17.5z
M388 729h187l-168 -144h-126z" />
    <glyph glyph-name="Ccaron" unicode="&#x10c;" horiz-adv-x="667" 
d="M693 530q-45 26 -87 34t-87 8q-70 0 -120 -22.5t-81.5 -60t-46 -84.5t-14.5 -97q0 -46 14 -80.5t39.5 -57t60.5 -33.5t77 -11q51 0 95.5 10t81.5 29l-20 -150q-17 -6 -39 -10.5t-47 -8.5t-50.5 -6t-49.5 -2q-84 0 -150 24t-111.5 66.5t-69 102.5t-23.5 132q0 87 29.5 160
t84.5 125.5t134 82t177 29.5q101 0 160 -13t87 -24zM604 738h-182l-86 108h123l59 -53l96 53h132z" />
    <glyph glyph-name="ccaron" unicode="&#x10d;" horiz-adv-x="500" 
d="M432 8q-27 -9 -64 -14.5t-90 -5.5q-57 0 -102.5 19t-77.5 51t-49 75.5t-17 92.5q0 64 24.5 120t68.5 97.5t106 65.5t137 24q33 0 78.5 -9t85.5 -26l-39 -125q-28 13 -57 20.5t-59 7.5q-70 0 -114.5 -43.5t-44.5 -124.5q0 -47 33.5 -80t90.5 -33q34 0 60.5 5.5t55.5 17.5z
M451 585h-162l-84 144h113l58 -78l101 78h118z" />
    <glyph glyph-name="Dcaron" unicode="&#x10e;" horiz-adv-x="778" 
d="M163 698h242q83 0 149 -17.5t112 -52.5t70.5 -87.5t24.5 -122.5q0 -109 -32.5 -188t-91.5 -130t-141 -75.5t-180 -24.5h-301zM233 138h82q69 0 117 23.5t78.5 61.5t44.5 85.5t14 96.5q0 48 -15.5 78t-42.5 47.5t-64 23.5t-80 6h-46zM499 738h-182l-86 108h123l59 -53
l96 53h132z" />
    <glyph glyph-name="dcaron" unicode="&#x10f;" horiz-adv-x="757" 
d="M417 83h-2q-17 -22 -34.5 -39.5t-39.5 -30t-49.5 -19t-65.5 -6.5q-42 0 -77.5 17t-61.5 46.5t-40.5 68.5t-14.5 83q0 64 16 123.5t49 105.5t82.5 73.5t116.5 27.5q69 0 115 -27t66 -69h2l63 313h177l-140 -672q-5 -23 -7 -42.5t-4 -35.5h-165zM304 126q32 0 57 16
t42.5 40t27 52.5t9.5 54.5q0 20 -5 39t-15.5 34t-26.5 24t-39 9q-32 0 -57 -14t-42.5 -36.5t-27 -52t-9.5 -59.5q0 -48 21.5 -77.5t64.5 -29.5zM798 750h107l-91 -172h-88z" />
    <glyph glyph-name="Dcroat" unicode="&#x110;" horiz-adv-x="778" 
d="M81 312h-68l22 102h68l60 284h242q83 0 149 -18t112 -55.5t70.5 -95.5t24.5 -138q0 -99 -34 -172.5t-94 -122t-141 -72.5t-176 -24h-301zM290 414h166l-22 -102h-165l-36 -174h61q139 0 207 68.5t68 187.5q0 49 -14 81t-41 51t-66.5 26.5t-90.5 7.5h-36z" />
    <glyph glyph-name="dcroat" unicode="&#x111;" horiz-adv-x="667" 
d="M804 669l-22 -102h-101l-102 -489q-5 -23 -7 -42.5t-4 -35.5h-165l14 83h-2q-17 -22 -34.5 -39.5t-39.5 -30t-49.5 -19t-65.5 -6.5q-42 0 -77.5 17t-61.5 46.5t-40.5 68.5t-14.5 83q0 64 16 123.5t49 105.5t82.5 73.5t116.5 27.5q69 0 115 -27t66 -69h2l26 130h-180
l22 102h179l16 81h177l-17 -81h102zM304 126q32 0 57 16t42.5 40t27 52.5t9.5 54.5q0 20 -5 39t-15.5 34t-26.5 24t-39 9q-32 0 -57 -14t-42.5 -36.5t-27 -52t-9.5 -59.5q0 -48 21.5 -77.5t64.5 -29.5z" />
    <glyph glyph-name="Emacron" unicode="&#x112;" 
d="M165 698h491l-27 -132h-307l-32 -144h291l-29 -132h-290l-34 -158h319l-27 -132h-505zM230 761l16 84h375l-16 -84h-375z" />
    <glyph glyph-name="emacron" unicode="&#x113;" 
d="M482 17q-48 -14 -95.5 -21.5t-86.5 -7.5q-65 0 -115 19t-84 51t-51.5 75.5t-17.5 92.5q0 45 16 99t53 100t96.5 77t146.5 31q51 0 95 -13t76.5 -41t50.5 -71t18 -102q0 -16 -4 -45.5t-9 -52.5h-369q1 -21 7.5 -39t22 -31.5t42.5 -21.5t68 -8q36 0 80.5 9t82.5 27z
M434 310q0 42 -19 72.5t-69 30.5q-29 0 -51.5 -9t-39 -23.5t-27 -33t-15.5 -37.5h221zM192 623l16 84h375l-16 -84h-375z" />
    <glyph glyph-name="Edotaccent" unicode="&#x116;" 
d="M165 698h491l-27 -132h-307l-32 -144h291l-29 -132h-290l-34 -158h319l-27 -132h-505zM490 735h-138l30 144h138z" />
    <glyph glyph-name="edotaccent" unicode="&#x117;" 
d="M482 17q-48 -14 -95.5 -21.5t-86.5 -7.5q-65 0 -115 19t-84 51t-51.5 75.5t-17.5 92.5q0 45 16 99t53 100t96.5 77t146.5 31q51 0 95 -13t76.5 -41t50.5 -71t18 -102q0 -16 -4 -45.5t-9 -52.5h-369q1 -21 7.5 -39t22 -31.5t42.5 -21.5t68 -8q36 0 80.5 9t82.5 27z
M434 310q0 42 -19 72.5t-69 30.5q-29 0 -51.5 -9t-39 -23.5t-27 -33t-15.5 -37.5h221zM425 585h-138l30 144h138z" />
    <glyph glyph-name="Eogonek" unicode="&#x118;" 
d="M512 0q-16 0 -33 -8t-35 -21q-33 -23 -52 -49t-19 -40q0 -22 13.5 -30t33.5 -8q13 0 29.5 2.5t39.5 10.5l-17 -67q-21 -5 -36 -7t-27 -3.5t-23.5 -1.5h-25.5q-56 0 -86 19t-30 64q0 22 12 43.5t31 40t43 33t49 22.5h-364l150 698h491l-27 -132h-307l-32 -144h291
l-29 -132h-290l-34 -158h319l-27 -132h-8z" />
    <glyph glyph-name="eogonek" unicode="&#x119;" 
d="M348 -29q-33 -23 -52 -49t-19 -40q0 -22 13.5 -30t33.5 -8q13 0 29.5 2.5t39.5 10.5l-17 -67q-21 -5 -36 -7t-27 -3.5t-23.5 -1.5h-25.5q-56 0 -86 19t-30 64q0 19 9 38t24.5 36t35.5 31t41 24q-55 6 -97.5 27t-71 52.5t-43 71.5t-14.5 85t16 99t53 100t96.5 77t146.5 31
q51 0 95 -13t76.5 -41t50.5 -71t18 -102q0 -16 -4 -45.5t-9 -52.5h-369q1 -21 7.5 -39t22 -31.5t42.5 -21.5t68 -8q36 0 80.5 9t82.5 27l-23 -127q-14 -4 -28.5 -8t-31.5 -7q-23 -5 -39.5 -11.5t-34.5 -19.5zM434 310q0 42 -19 72.5t-69 30.5q-29 0 -51.5 -9t-39 -23.5
t-27 -33t-15.5 -37.5h221z" />
    <glyph glyph-name="Ecaron" unicode="&#x11a;" 
d="M165 698h491l-27 -132h-307l-32 -144h291l-29 -132h-290l-34 -158h319l-27 -132h-505zM510 738h-182l-86 108h123l59 -53l96 53h132z" />
    <glyph glyph-name="ecaron" unicode="&#x11b;" 
d="M482 17q-48 -14 -95.5 -21.5t-86.5 -7.5q-65 0 -115 19t-84 51t-51.5 75.5t-17.5 92.5q0 45 16 99t53 100t96.5 77t146.5 31q51 0 95 -13t76.5 -41t50.5 -71t18 -102q0 -16 -4 -45.5t-9 -52.5h-369q1 -21 7.5 -39t22 -31.5t42.5 -21.5t68 -8q36 0 80.5 9t82.5 27z
M434 310q0 42 -19 72.5t-69 30.5q-29 0 -51.5 -9t-39 -23.5t-27 -33t-15.5 -37.5h221zM432 585h-162l-84 144h113l58 -78l101 78h118z" />
    <glyph glyph-name="Gbreve" unicode="&#x11e;" horiz-adv-x="778" 
d="M721 534q-46 20 -93.5 29t-108.5 9q-70 0 -120 -22.5t-81.5 -60t-46 -84.5t-14.5 -97q0 -46 14 -80.5t37.5 -57t55 -33.5t67.5 -11q35 0 74 12l31 138h-111l27 132h293l-83 -389q-26 -8 -59 -14t-66.5 -9.5t-64 -5.5t-53.5 -2q-84 0 -150 24t-111.5 66.5t-69 102.5
t-23.5 132q0 87 27 160t83 125.5t144 82t209 29.5q64 0 120 -9.5t113 -24.5zM424 846q3 -29 32 -36.5t74 -7.5q17 0 35.5 2.5t34.5 7.5t28 13.5t15 20.5h88q-50 -121 -221 -121q-35 0 -66 8.5t-53.5 24.5t-35.5 38.5t-13 49.5h82z" />
    <glyph glyph-name="gbreve" unicode="&#x11f;" horiz-adv-x="667" 
d="M67 -49q69 -40 151 -41q47 -1 80 8.5t56 30.5t38 55.5t25 84.5l-2 2q-30 -44 -73 -67.5t-97 -23.5t-94 17.5t-66.5 49t-39.5 75t-13 95.5q0 60 20 114t56.5 94.5t88 64t114.5 23.5q60 0 108.5 -25t71.5 -82h2l23 95h167q-5 -21 -14 -52t-19 -73l-80 -355
q-17 -76 -41 -126.5t-62 -81t-94 -43t-137 -12.5q-68 0 -115 10t-89 23zM444 301q0 42 -24 68t-72 26q-34 0 -58.5 -15t-40.5 -38t-23.5 -52t-7.5 -56q0 -41 25.5 -68.5t68.5 -27.5q35 0 59.5 16t41 40t24 53t7.5 54zM313 729q6 -43 32 -58t69 -15q17 0 34 5.5t32 15.5
t26.5 23t15.5 29h88q-49 -157 -215 -157q-34 0 -64 11t-52 31.5t-34.5 49.5t-12.5 65h81z" />
    <glyph glyph-name="Gcommaaccent" unicode="&#x122;" horiz-adv-x="778" 
d="M721 534q-46 20 -93.5 29t-108.5 9q-70 0 -120 -22.5t-81.5 -60t-46 -84.5t-14.5 -97q0 -46 14 -80.5t37.5 -57t55 -33.5t67.5 -11q35 0 74 12l31 138h-111l27 132h293l-83 -389q-26 -8 -59 -14t-66.5 -9.5t-64 -5.5t-53.5 -2q-84 0 -150 24t-111.5 66.5t-69 102.5
t-23.5 132q0 87 27 160t83 125.5t144 82t209 29.5q64 0 120 -9.5t113 -24.5zM342 -37h124l-83 -144h-109z" />
    <glyph glyph-name="gcommaaccent" unicode="&#x123;" horiz-adv-x="667" 
d="M67 -49q69 -40 151 -41q47 -1 80 8.5t56 30.5t38 55.5t25 84.5l-2 2q-30 -44 -73 -67.5t-97 -23.5t-94 17.5t-66.5 49t-39.5 75t-13 95.5q0 60 20 114t56.5 94.5t88 64t114.5 23.5q60 0 108.5 -25t71.5 -82h2l23 95h167q-5 -21 -14 -52t-19 -73l-80 -355
q-17 -76 -41 -126.5t-62 -81t-94 -43t-137 -12.5q-68 0 -115 10t-89 23zM444 301q0 42 -24 68t-72 26q-34 0 -58.5 -15t-40.5 -38t-23.5 -52t-7.5 -56q0 -41 25.5 -68.5t68.5 -27.5q35 0 59.5 16t41 40t24 53t7.5 54zM467 585h-124l83 144h109z" />
    <glyph glyph-name="Imacron" unicode="&#x12a;" horiz-adv-x="333" 
d="M168 698h188l-145 -698h-188zM117 761l16 84h303l-16 -84h-303z" />
    <glyph glyph-name="imacron" unicode="&#x12b;" horiz-adv-x="333" 
d="M134 521h182l-108 -521h-182zM86 623l16 84h303l-16 -84h-303z" />
    <glyph glyph-name="Iogonek" unicode="&#x12e;" horiz-adv-x="333" 
d="M211 0q-13 0 -29.5 -8t-34.5 -21q-33 -23 -52 -49t-19 -40q0 -22 13.5 -30t33.5 -8q13 0 29.5 2.5t39.5 10.5l-17 -67q-21 -5 -36 -7t-27 -3.5t-23.5 -1.5h-25.5q-56 0 -86 19t-30 64q0 22 12 43.5t31 40t43 33t49 22.5h-59l145 698h188z" />
    <glyph glyph-name="iogonek" unicode="&#x12f;" horiz-adv-x="333" 
d="M180 738h182l-28 -132h-182zM26 0l108 521h182l-108 -521q-9 0 -25 -8t-34 -21q-33 -23 -52 -49t-19 -40q0 -22 13.5 -30t33.5 -8q13 0 29.5 2.5t39.5 10.5l-17 -67q-21 -5 -36 -7t-27 -3.5t-23.5 -1.5h-25.5q-56 0 -86 19t-30 64q0 22 12 43.5t31 40t43 33t49 22.5h-58z
" />
    <glyph glyph-name="Idotaccent" unicode="&#x130;" horiz-adv-x="333" 
d="M168 698h188l-145 -698h-188zM340 735h-138l30 144h138z" />
    <glyph glyph-name="dotlessi" unicode="&#x131;" horiz-adv-x="333" 
d="M134 521h182l-108 -521h-182z" />
    <glyph glyph-name="Kcommaaccent" unicode="&#x136;" horiz-adv-x="722" 
d="M162 698h188l-60 -285h2l252 285h241l-332 -339l206 -359h-215l-172 317h-2l-67 -317h-188zM270 -37h124l-83 -144h-109z" />
    <glyph glyph-name="kcommaaccent" unicode="&#x137;" 
d="M168 750h182l-96 -448h2l173 219h205l-215 -251l135 -270h-200l-107 258h-2l-55 -258h-183zM218 -37h124l-83 -144h-109z" />
    <glyph glyph-name="Lacute" unicode="&#x139;" horiz-adv-x="556" 
d="M160 698h189l-116 -560h292l-29 -138h-481zM373 846h195l-168 -108h-134z" />
    <glyph glyph-name="lacute" unicode="&#x13a;" horiz-adv-x="333" 
d="M182 750h182l-156 -750h-182zM279 846h195l-149 -84h-129z" />
    <glyph glyph-name="Lcommaaccent" unicode="&#x13b;" horiz-adv-x="556" 
d="M160 698h189l-116 -560h292l-29 -138h-481zM220 -37h124l-83 -144h-109z" />
    <glyph glyph-name="lcommaaccent" unicode="&#x13c;" horiz-adv-x="333" 
d="M182 750h182l-156 -750h-182zM73 -37h124l-83 -144h-109z" />
    <glyph glyph-name="Lcaron" unicode="&#x13d;" horiz-adv-x="556" 
d="M160 698h189l-116 -560h292l-29 -138h-481zM438 750h107l-91 -172h-88z" />
    <glyph glyph-name="lcaron" unicode="&#x13e;" horiz-adv-x="403" 
d="M182 750h182l-156 -750h-182zM441 750h107l-91 -172h-88z" />
    <glyph glyph-name="Lslash" unicode="&#x141;" horiz-adv-x="556" 
d="M58 208l-73 -38l23 109l73 38l79 381h189l-56 -269l202 106l-23 -110l-202 -106l-37 -181h292l-29 -138h-481z" />
    <glyph glyph-name="lslash" unicode="&#x142;" horiz-adv-x="333" 
d="M100 357l-87 -46l22 101l86 45l61 293h182l-39 -186l85 44l-21 -99l-85 -44l-96 -465h-182z" />
    <glyph glyph-name="Nacute" unicode="&#x143;" horiz-adv-x="778" 
d="M162 698h233l143 -484h2l98 484h176l-148 -698h-232l-146 483h-2l-97 -483h-176zM507 846h195l-168 -108h-134z" />
    <glyph glyph-name="nacute" unicode="&#x144;" horiz-adv-x="667" 
d="M88 385q7 34 12.5 67.5t9.5 68.5h167l-14 -85h2q39 44 84.5 70.5t116.5 26.5q39 0 69.5 -14t51 -38t31 -57t10.5 -71q0 -13 -0.5 -24t-2 -23.5t-4.5 -27t-7 -35.5l-48 -243h-186l50 244q4 20 8 39.5t4 39.5q0 23 -16 42.5t-54 17.5q-28 0 -51 -11.5t-39.5 -31
t-27.5 -45.5t-16 -55l-51 -240h-180zM433 729h187l-168 -144h-126z" />
    <glyph glyph-name="Ncommaaccent" unicode="&#x145;" horiz-adv-x="778" 
d="M162 698h233l143 -484h2l98 484h176l-148 -698h-232l-146 483h-2l-97 -483h-176zM315 -37h124l-83 -144h-109z" />
    <glyph glyph-name="ncommaaccent" unicode="&#x146;" horiz-adv-x="667" 
d="M88 385q7 34 12.5 67.5t9.5 68.5h167l-14 -85h2q39 44 84.5 70.5t116.5 26.5q39 0 69.5 -14t51 -38t31 -57t10.5 -71q0 -13 -0.5 -24t-2 -23.5t-4.5 -27t-7 -35.5l-48 -243h-186l50 244q4 20 8 39.5t4 39.5q0 23 -16 42.5t-54 17.5q-28 0 -51 -11.5t-39.5 -31
t-27.5 -45.5t-16 -55l-51 -240h-180zM238 -37h124l-83 -144h-109z" />
    <glyph glyph-name="Ncaron" unicode="&#x147;" horiz-adv-x="778" 
d="M162 698h233l143 -484h2l98 484h176l-148 -698h-232l-146 483h-2l-97 -483h-176zM575 738h-182l-86 108h123l59 -53l96 53h132z" />
    <glyph glyph-name="ncaron" unicode="&#x148;" horiz-adv-x="667" 
d="M88 385q7 34 12.5 67.5t9.5 68.5h167l-14 -85h2q39 44 84.5 70.5t116.5 26.5q39 0 69.5 -14t51 -38t31 -57t10.5 -71q0 -13 -0.5 -24t-2 -23.5t-4.5 -27t-7 -35.5l-48 -243h-186l50 244q4 20 8 39.5t4 39.5q0 23 -16 42.5t-54 17.5q-28 0 -51 -11.5t-39.5 -31
t-27.5 -45.5t-16 -55l-51 -240h-180zM476 585h-162l-84 144h113l58 -78l101 78h118z" />
    <glyph glyph-name="Omacron" unicode="&#x14c;" horiz-adv-x="778" 
d="M773 425q0 -99 -26 -179.5t-77 -138t-127.5 -88.5t-177.5 -31q-85 0 -144 24.5t-96 64t-53.5 90.5t-16.5 105q0 99 26 180t77 138.5t127.5 88.5t177.5 31q85 0 144 -24.5t96 -64t53.5 -91t16.5 -105.5zM581 410q0 33 -6.5 62.5t-22 51.5t-40.5 35t-61 13q-54 0 -92.5 -28
t-63.5 -70.5t-36.5 -92.5t-11.5 -94q0 -33 6.5 -62.5t22 -51t40.5 -34.5t61 -13q54 0 92.5 28t63.5 70t36.5 92t11.5 94zM290 761l16 84h375l-16 -84h-375z" />
    <glyph glyph-name="omacron" unicode="&#x14d;" horiz-adv-x="667" 
d="M453 302q0 20 -5 39t-16 33.5t-29 23.5t-44 9q-33 0 -59 -16t-44 -41.5t-28 -57t-10 -62.5q0 -53 26 -85t72 -31q63 0 100 49.5t37 138.5zM639 300q0 -81 -25 -140t-70 -97.5t-106.5 -56.5t-134.5 -18q-72 0 -123.5 19t-84.5 51t-48 75.5t-15 92.5q0 69 24 125.5t67.5 97
t106 62.5t138.5 22q66 0 117 -18t85 -49.5t51.5 -74t17.5 -91.5zM211 623l16 84h375l-16 -84h-375z" />
    <glyph glyph-name="Ohungarumlaut" unicode="&#x150;" horiz-adv-x="778" 
d="M773 425q0 -99 -26 -179.5t-77 -138t-127.5 -88.5t-177.5 -31q-85 0 -144 24.5t-96 64t-53.5 90.5t-16.5 105q0 99 26 180t77 138.5t127.5 88.5t177.5 31q85 0 144 -24.5t96 -64t53.5 -91t16.5 -105.5zM581 410q0 33 -6.5 62.5t-22 51.5t-40.5 35t-61 13q-54 0 -92.5 -28
t-63.5 -70.5t-36.5 -92.5t-11.5 -94q0 -33 6.5 -62.5t22 -51t40.5 -34.5t61 -13q54 0 92.5 28t63.5 70t36.5 92t11.5 94zM625 846h185l-168 -108h-124zM376 846h177l-160 -108h-124z" />
    <glyph glyph-name="ohungarumlaut" unicode="&#x151;" horiz-adv-x="667" 
d="M453 302q0 20 -5 39t-16 33.5t-29 23.5t-44 9q-33 0 -59 -16t-44 -41.5t-28 -57t-10 -62.5q0 -53 26 -85t72 -31q63 0 100 49.5t37 138.5zM639 300q0 -81 -25 -140t-70 -97.5t-106.5 -56.5t-134.5 -18q-72 0 -123.5 19t-84.5 51t-48 75.5t-15 92.5q0 69 24 125.5t67.5 97
t106 62.5t138.5 22q66 0 117 -18t85 -49.5t51.5 -74t17.5 -91.5zM535 729h187l-168 -144h-126zM283 729h183l-164 -144h-126z" />
    <glyph glyph-name="OE" unicode="&#x152;" horiz-adv-x="963" 
d="M985 566h-251l-30 -144h234l-26 -132h-234l-31 -158h260l-26 -132h-402q-35 0 -70 -3t-71 -3q-74 0 -130.5 25t-94.5 68t-57 101t-19 125q0 82 31 153t85 124t126.5 83.5t154.5 30.5q45 0 88.5 -3t88.5 -3h402zM554 562q-20 2 -46.5 3t-51.5 1q-51 0 -93 -22t-72 -59.5
t-46 -87t-16 -103.5q0 -81 42.5 -121.5t124.5 -40.5q20 0 35.5 1t30.5 3z" />
    <glyph glyph-name="oe" unicode="&#x153;" horiz-adv-x="944" 
d="M839 17q-48 -14 -95.5 -21.5t-86.5 -7.5q-44 0 -87.5 16t-77.5 51q-44 -36 -99.5 -51.5t-114.5 -15.5q-57 0 -102.5 19t-77.5 51t-49 75.5t-17 92.5q0 84 28.5 142t73.5 95t101 53.5t111 16.5q21 0 46.5 -3.5t51 -12.5t49 -23.5t40.5 -36.5q16 15 34.5 29t41.5 24.5
t51.5 16.5t64.5 6q41 0 80 -13t69 -41t48.5 -71t18.5 -102q0 -16 -4 -45.5t-9 -52.5h-356q-1 -16 4 -34t19.5 -32.5t39.5 -24t64 -9.5q36 0 80.5 9t82.5 27zM202 230q0 -54 21 -84.5t69 -31.5q60 0 96 48.5t36 131.5q0 60 -23 86.5t-69 26.5q-28 0 -52 -14.5t-41.5 -38.5
t-27 -56t-9.5 -68zM797 310q0 42 -19 72.5t-66 30.5q-29 0 -50.5 -9t-35.5 -23.5t-22 -33t-10 -37.5h203z" />
    <glyph glyph-name="Racute" unicode="&#x154;" horiz-adv-x="667" 
d="M285 408h63q30 0 56.5 4t46 14t30.5 26.5t11 41.5q0 38 -22 54.5t-64 17.5h-89zM162 698h223q50 0 102 -3.5t94.5 -21t69.5 -53t27 -100.5q0 -46 -16.5 -78t-44.5 -53t-65 -32t-77 -16v-2q21 -2 35 -15t23.5 -32t15 -39.5t9.5 -37.5l50 -215h-186l-36 178q-7 34 -13 53.5
t-16.5 29.5t-28.5 12.5t-50 2.5h-20l-56 -276h-187zM421 846h195l-168 -108h-134z" />
    <glyph glyph-name="racute" unicode="&#x155;" horiz-adv-x="444" 
d="M277 521l-20 -107h2q11 23 27 44.5t36.5 38t45 26.5t52.5 10q18 0 38 -2.5t38 -10.5l-41 -159q-17 14 -37 18t-46 4q-28 0 -51 -11.5t-39.5 -31t-27.5 -45.5t-16 -55l-51 -240h-180l81 385q7 34 12.5 67.5t9.5 68.5h167zM340 729h187l-168 -144h-126z" />
    <glyph glyph-name="Rcommaaccent" unicode="&#x156;" horiz-adv-x="667" 
d="M285 408h63q30 0 56.5 4t46 14t30.5 26.5t11 41.5q0 38 -22 54.5t-64 17.5h-89zM162 698h223q50 0 102 -3.5t94.5 -21t69.5 -53t27 -100.5q0 -46 -16.5 -78t-44.5 -53t-65 -32t-77 -16v-2q21 -2 35 -15t23.5 -32t15 -39.5t9.5 -37.5l50 -215h-186l-36 178q-7 34 -13 53.5
t-16.5 29.5t-28.5 12.5t-50 2.5h-20l-56 -276h-187zM253 -37h124l-83 -144h-109z" />
    <glyph glyph-name="rcommaaccent" unicode="&#x157;" horiz-adv-x="444" 
d="M277 521l-20 -107h2q11 23 27 44.5t36.5 38t45 26.5t52.5 10q18 0 38 -2.5t38 -10.5l-41 -159q-17 14 -37 18t-46 4q-28 0 -51 -11.5t-39.5 -31t-27.5 -45.5t-16 -55l-51 -240h-180l81 385q7 34 12.5 67.5t9.5 68.5h167zM130 -37h124l-83 -144h-109z" />
    <glyph glyph-name="Rcaron" unicode="&#x158;" horiz-adv-x="667" 
d="M285 408h63q30 0 56.5 4t46 14t30.5 26.5t11 41.5q0 38 -22 54.5t-64 17.5h-89zM162 698h223q50 0 102 -3.5t94.5 -21t69.5 -53t27 -100.5q0 -46 -16.5 -78t-44.5 -53t-65 -32t-77 -16v-2q21 -2 35 -15t23.5 -32t15 -39.5t9.5 -37.5l50 -215h-186l-36 178q-7 34 -13 53.5
t-16.5 29.5t-28.5 12.5t-50 2.5h-20l-56 -276h-187zM488 738h-182l-86 108h123l59 -53l96 53h132z" />
    <glyph glyph-name="rcaron" unicode="&#x159;" horiz-adv-x="444" 
d="M277 521l-20 -107h2q11 23 27 44.5t36.5 38t45 26.5t52.5 10q18 0 38 -2.5t38 -10.5l-41 -159q-17 14 -37 18t-46 4q-28 0 -51 -11.5t-39.5 -31t-27.5 -45.5t-16 -55l-51 -240h-180l81 385q7 34 12.5 67.5t9.5 68.5h167zM394 585h-162l-84 144h113l58 -78l101 78h118z
" />
    <glyph glyph-name="Sacute" unicode="&#x15a;" 
d="M583 540q-27 13 -64.5 22.5t-89.5 9.5q-28 0 -52.5 -2.5t-42.5 -10t-28.5 -20.5t-10.5 -34q0 -25 20 -40t50 -28t65.5 -27t65.5 -36t50 -56t20 -87q0 -72 -30.5 -119t-79 -74.5t-109.5 -38.5t-122 -11q-54 0 -112 11t-104 25l44 142q14 -9 34 -16.5t43 -12.5t47.5 -8
t47.5 -3q22 0 48 3t48.5 11.5t37.5 25t15 43.5q0 28 -20 45t-50 30t-65.5 26.5t-65.5 33.5t-50 51.5t-20 80.5q0 68 27 113t71 72t100 38t113 11q65 0 122 -7t92 -24zM426 846h195l-168 -108h-134z" />
    <glyph glyph-name="sacute" unicode="&#x15b;" horiz-adv-x="500" 
d="M32 138q69 -30 146 -30q11 0 28 1t33.5 5.5t28 14t11.5 25.5q0 19 -16 29.5t-40 19t-51.5 18.5t-51.5 27t-40 44t-16 70q0 46 24 78.5t62 53t85 30t92 9.5q34 0 79 -7.5t94 -23.5l-38 -118q-35 14 -69 21.5t-75 7.5q-15 0 -30 -2t-27 -7t-19.5 -13.5t-7.5 -22.5
t16.5 -24.5t41.5 -20t54.5 -20.5t54.5 -26.5t41.5 -38t16.5 -55.5q0 -48 -19 -84.5t-52 -60.5t-77.5 -36.5t-95.5 -13.5q-60 -1 -118.5 7t-100.5 20zM344 729h187l-168 -144h-126z" />
    <glyph glyph-name="Scedilla" unicode="&#x15e;" 
d="M251 -63l2 -2q9 4 20.5 5t29.5 1q29 0 52 -19.5t23 -59.5q0 -24 -11.5 -40t-30 -25.5t-40.5 -14t-43 -4.5q-38 0 -70 6t-61 21l22 42q20 -9 38.5 -16t40.5 -7q19 0 36 7t17 23q0 23 -10.5 32t-24.5 9q-9 0 -18 -2l-18 -4l-37 23l55 76q-54 0 -111 11t-103 25l44 142
q14 -9 34 -16.5t43 -12.5t47.5 -8t47.5 -3q22 0 48 3t48.5 11.5t37.5 25t15 43.5q0 28 -20 45t-50 30t-65.5 26.5t-65.5 33.5t-50 51.5t-20 80.5q0 68 27 113t71 72t100 38t113 11q65 0 122 -7t92 -24l-45 -139q-27 13 -64.5 22.5t-89.5 9.5q-28 0 -52.5 -2.5t-42.5 -10
t-28.5 -20.5t-10.5 -34q0 -25 20 -40t50 -28t65.5 -27t65.5 -36t50 -56t20 -87q0 -61 -22.5 -104.5t-60 -71.5t-86 -43t-101.5 -21z" />
    <glyph glyph-name="scedilla" unicode="&#x15f;" horiz-adv-x="500" 
d="M208 -63l2 -2q9 4 20.5 5t29.5 1q29 0 52 -19.5t23 -59.5q0 -24 -11.5 -40t-30 -25.5t-40.5 -14t-43 -4.5q-38 0 -70 6t-61 21l22 42q20 -9 38.5 -16t40.5 -7q19 0 36 7t17 23q0 23 -10.5 32t-24.5 9q-9 0 -18 -2l-18 -4l-37 23l55 76q-51 2 -99.5 9t-84.5 18l36 123
q69 -30 146 -30q11 0 28 1t33.5 5.5t28 14t11.5 25.5q0 19 -16 29.5t-40 19t-51.5 18.5t-51.5 27t-40 44t-16 70q0 46 24 78.5t62 53t85 30t92 9.5q34 0 79 -7.5t94 -23.5l-38 -118q-35 14 -69 21.5t-75 7.5q-15 0 -30 -2t-27 -7t-19.5 -13.5t-7.5 -22.5t16.5 -24.5
t41.5 -20t54.5 -20.5t54.5 -26.5t41.5 -38t16.5 -55.5q0 -43 -15.5 -77t-43.5 -58t-65.5 -38.5t-81.5 -19.5z" />
    <glyph glyph-name="Scaron" unicode="&#x160;" 
d="M583 540q-27 13 -64.5 22.5t-89.5 9.5q-28 0 -52.5 -2.5t-42.5 -10t-28.5 -20.5t-10.5 -34q0 -25 20 -40t50 -28t65.5 -27t65.5 -36t50 -56t20 -87q0 -72 -30.5 -119t-79 -74.5t-109.5 -38.5t-122 -11q-54 0 -112 11t-104 25l44 142q14 -9 34 -16.5t43 -12.5t47.5 -8
t47.5 -3q22 0 48 3t48.5 11.5t37.5 25t15 43.5q0 28 -20 45t-50 30t-65.5 26.5t-65.5 33.5t-50 51.5t-20 80.5q0 68 27 113t71 72t100 38t113 11q65 0 122 -7t92 -24zM511 738h-182l-86 108h123l59 -53l96 53h132z" />
    <glyph glyph-name="scaron" unicode="&#x161;" horiz-adv-x="500" 
d="M32 138q69 -30 146 -30q11 0 28 1t33.5 5.5t28 14t11.5 25.5q0 19 -16 29.5t-40 19t-51.5 18.5t-51.5 27t-40 44t-16 70q0 46 24 78.5t62 53t85 30t92 9.5q34 0 79 -7.5t94 -23.5l-38 -118q-35 14 -69 21.5t-75 7.5q-15 0 -30 -2t-27 -7t-19.5 -13.5t-7.5 -22.5
t16.5 -24.5t41.5 -20t54.5 -20.5t54.5 -26.5t41.5 -38t16.5 -55.5q0 -48 -19 -84.5t-52 -60.5t-77.5 -36.5t-95.5 -13.5q-60 -1 -118.5 7t-100.5 20zM399 585h-162l-84 144h113l58 -78l101 78h118z" />
    <glyph glyph-name="Tcommaaccent" unicode="&#x162;" horiz-adv-x="556" 
d="M253 560h-174l30 138h537l-30 -138h-174l-119 -560h-189zM188 -37h124l-83 -144h-109z" />
    <glyph glyph-name="tcommaaccent" unicode="&#x163;" horiz-adv-x="444" 
d="M73 521h103l25 112l190 51l-36 -163h124l-22 -126h-131l-31 -145q-6 -29 -10.5 -50t-4.5 -40q0 -26 16 -42t43 -16q14 0 29 5t29 10l-20 -119q-29 -5 -57 -7.5t-55 -2.5q-34 0 -64.5 8.5t-52.5 27.5t-35 48t-13 70q0 20 3.5 42.5t12.5 64.5l31 146h-96zM177 -37h124
l-83 -144h-109z" />
    <glyph glyph-name="Tcaron" unicode="&#x164;" horiz-adv-x="556" 
d="M253 560h-174l30 138h537l-30 -138h-174l-119 -560h-189zM471 738h-182l-86 108h123l59 -53l96 53h132z" />
    <glyph glyph-name="tcaron" unicode="&#x165;" horiz-adv-x="444" 
d="M73 521h103l25 112l190 51l-36 -163h124l-22 -126h-131l-31 -145q-6 -29 -10.5 -50t-4.5 -40q0 -26 16 -42t43 -16q14 0 29 5t29 10l-20 -119q-29 -5 -57 -7.5t-55 -2.5q-34 0 -64.5 8.5t-52.5 27.5t-35 48t-13 70q0 20 3.5 42.5t12.5 64.5l31 146h-96zM490 750h107
l-91 -172h-88z" />
    <glyph glyph-name="Umacron" unicode="&#x16a;" horiz-adv-x="722" 
d="M697 373q-17 -83 -39 -153.5t-60 -122t-99 -80.5t-156 -29q-59 0 -110 11.5t-89 37t-59.5 68t-21.5 103.5q0 42 5 75t10 57l79 358h189l-84 -395q-5 -25 -9 -44.5t-4 -31.5q0 -43 24.5 -72t74.5 -29q45 0 72.5 24.5t45 62t27 82.5t18.5 87l69 316h185zM284 761l16 84h375
l-16 -84h-375z" />
    <glyph glyph-name="umacron" unicode="&#x16b;" horiz-adv-x="667" 
d="M579 136q-7 -34 -12.5 -67.5t-9.5 -68.5h-167l14 85h-2q-39 -43 -84.5 -70t-116.5 -27q-39 0 -69.5 14t-51 38t-31 57t-10.5 71q0 13 0.5 24t2 23.5t4.5 27t7 35.5l48 243h186l-50 -244q-4 -20 -8 -39.5t-4 -39.5q0 -23 16 -42.5t54 -17.5q29 0 51.5 11.5t39 31
t27.5 45.5t16 55l51 240h180zM212 623l16 84h375l-16 -84h-375z" />
    <glyph glyph-name="Uring" unicode="&#x16e;" horiz-adv-x="722" 
d="M697 373q-17 -83 -39 -153.5t-60 -122t-99 -80.5t-156 -29q-59 0 -110 11.5t-89 37t-59.5 68t-21.5 103.5q0 42 5 75t10 57l79 358h189l-84 -395q-5 -25 -9 -44.5t-4 -31.5q0 -43 24.5 -72t74.5 -29q45 0 72.5 24.5t45 62t27 82.5t18.5 87l69 316h185zM374 797
q0 20 7.5 37t20.5 30t30.5 20.5t36.5 7.5q40 0 67.5 -28t27.5 -67t-27.5 -67t-67.5 -28q-19 0 -36.5 7.5t-30.5 20.5t-20.5 30.5t-7.5 36.5zM425 797q0 -18 13 -31t31 -13t31 13t13 31t-13 31t-31 13t-31 -13t-13 -31z" />
    <glyph glyph-name="uring" unicode="&#x16f;" horiz-adv-x="667" 
d="M579 136q-7 -34 -12.5 -67.5t-9.5 -68.5h-167l14 85h-2q-39 -43 -84.5 -70t-116.5 -27q-39 0 -69.5 14t-51 38t-31 57t-10.5 71q0 13 0.5 24t2 23.5t4.5 27t7 35.5l48 243h186l-50 -244q-4 -20 -8 -39.5t-4 -39.5q0 -23 16 -42.5t54 -17.5q29 0 51.5 11.5t39 31
t27.5 45.5t16 55l51 240h180zM289 669q0 23 9 43.5t24 35.5t35.5 24t43.5 9t43.5 -9t35.5 -24t24 -35.5t9 -43.5t-9 -43.5t-24 -35.5t-35.5 -24t-43.5 -9t-43.5 9t-35.5 24t-24 35.5t-9 43.5zM349 669q0 -21 15.5 -36.5t36.5 -15.5t36.5 15.5t15.5 36.5t-15.5 36.5
t-36.5 15.5t-36.5 -15.5t-15.5 -36.5z" />
    <glyph glyph-name="Uhungarumlaut" unicode="&#x170;" horiz-adv-x="722" 
d="M697 373q-17 -83 -39 -153.5t-60 -122t-99 -80.5t-156 -29q-59 0 -110 11.5t-89 37t-59.5 68t-21.5 103.5q0 42 5 75t10 57l79 358h189l-84 -395q-5 -25 -9 -44.5t-4 -31.5q0 -43 24.5 -72t74.5 -29q45 0 72.5 24.5t45 62t27 82.5t18.5 87l69 316h185zM617 846h185
l-168 -108h-124zM368 846h177l-160 -108h-124z" />
    <glyph glyph-name="uhungarumlaut" unicode="&#x171;" horiz-adv-x="667" 
d="M579 136q-7 -34 -12.5 -67.5t-9.5 -68.5h-167l14 85h-2q-39 -43 -84.5 -70t-116.5 -27q-39 0 -69.5 14t-51 38t-31 57t-10.5 71q0 13 0.5 24t2 23.5t4.5 27t7 35.5l48 243h186l-50 -244q-4 -20 -8 -39.5t-4 -39.5q0 -23 16 -42.5t54 -17.5q29 0 51.5 11.5t39 31
t27.5 45.5t16 55l51 240h180zM547 729h187l-168 -144h-126zM295 729h183l-164 -144h-126z" />
    <glyph glyph-name="Uogonek" unicode="&#x172;" horiz-adv-x="722" 
d="M370 -29q-33 -23 -52 -49t-19 -40q0 -22 13.5 -30t33.5 -8q13 0 29.5 2.5t39.5 10.5l-17 -67q-21 -5 -36 -7t-27 -3.5t-23.5 -1.5h-25.5q-56 0 -86 19t-30 64q0 19 9.5 38.5t25 36.5t35.5 31t42 24q-47 5 -87 19.5t-69.5 40.5t-46 64.5t-16.5 92.5q0 42 5 75t10 57
l79 358h189l-84 -395q-5 -25 -9 -44.5t-4 -31.5q0 -43 24.5 -72t74.5 -29q45 0 72.5 24.5t45 62t27 82.5t18.5 87l69 316h185l-68 -325q-14 -69 -31.5 -130t-44.5 -109.5t-67 -82.5t-100 -50q-30 -8 -47.5 -12t-36.5 -18z" />
    <glyph glyph-name="uogonek" unicode="&#x173;" horiz-adv-x="667" 
d="M555 0q-16 0 -33 -8t-35 -21q-33 -23 -52 -49t-19 -40q0 -22 13.5 -30t33.5 -8q13 0 29.5 2.5t39.5 10.5l-17 -67q-21 -5 -36 -7t-27 -3.5t-23.5 -1.5h-25.5q-56 0 -86 19t-30 64q0 22 12 43.5t31 40t43 33t49 22.5h-32l14 85h-2q-39 -43 -84.5 -70t-116.5 -27
q-39 0 -69.5 14t-51 38t-31 57t-10.5 71q0 13 0.5 24t2 23.5t4.5 27t7 35.5l48 243h186l-50 -244q-4 -20 -8 -39.5t-4 -39.5q0 -23 16 -42.5t54 -17.5q29 0 51.5 11.5t39 31t27.5 45.5t16 55l51 240h180l-81 -385q-7 -34 -12.5 -67.5t-9.5 -68.5h-2z" />
    <glyph glyph-name="Ydieresis" unicode="&#x178;" horiz-adv-x="722" 
d="M271 258l-163 440h196l87 -281l193 281h229l-352 -440l-54 -258h-190zM637 735h-138l30 144h138zM420 735h-138l30 144h138z" />
    <glyph glyph-name="Zacute" unicode="&#x179;" 
d="M137 698h538l-31 -148l-403 -412h319l-26 -138h-552l32 148l396 412h-301zM424 846h195l-168 -108h-134z" />
    <glyph glyph-name="zacute" unicode="&#x17a;" horiz-adv-x="500" 
d="M2 136l284 253h-223l27 132h442l-28 -136l-286 -253h238l-27 -132h-453zM341 729h187l-168 -144h-126z" />
    <glyph glyph-name="Zdotaccent" unicode="&#x17b;" 
d="M137 698h538l-31 -148l-403 -412h319l-26 -138h-552l32 148l396 412h-301zM472 735h-138l30 144h138z" />
    <glyph glyph-name="zdotaccent" unicode="&#x17c;" horiz-adv-x="500" 
d="M2 136l284 253h-223l27 132h442l-28 -136l-286 -253h238l-27 -132h-453zM382 585h-138l30 144h138z" />
    <glyph glyph-name="Zcaron" unicode="&#x17d;" 
d="M137 698h538l-31 -148l-403 -412h319l-26 -138h-552l32 148l396 412h-301zM502 738h-182l-86 108h123l59 -53l96 53h132z" />
    <glyph glyph-name="zcaron" unicode="&#x17e;" horiz-adv-x="500" 
d="M2 136l284 253h-223l27 132h442l-28 -136l-286 -253h238l-27 -132h-453zM402 585h-162l-84 144h113l58 -78l101 78h118z" />
    <glyph glyph-name="florin" unicode="&#x192;" horiz-adv-x="612" 
d="M121 422h126l15 78q8 42 22 80.5t37 67t56 45.5t79 17q35 0 70.5 -8.5t60.5 -21.5l-24 -121q-11 8 -26.5 16.5t-37.5 8.5q-17 0 -28 -8t-18 -22t-11.5 -33t-8.5 -41l-11 -58h124l-21 -108h-121l-55 -287q-9 -48 -23.5 -93t-39 -79.5t-61 -55.5t-90.5 -21q-35 0 -69 8.5
t-51 17.5l24 122q10 -10 25.5 -16t36.5 -6t36.5 17.5t25.5 70.5l62 322h-125z" />
    <glyph glyph-name="Scommaaccent" unicode="&#x218;" 
d="M583 540q-27 13 -64.5 22.5t-89.5 9.5q-28 0 -52.5 -2.5t-42.5 -10t-28.5 -20.5t-10.5 -34q0 -25 20 -40t50 -28t65.5 -27t65.5 -36t50 -56t20 -87q0 -72 -30.5 -119t-79 -74.5t-109.5 -38.5t-122 -11q-54 0 -112 11t-104 25l44 142q14 -9 34 -16.5t43 -12.5t47.5 -8
t47.5 -3q22 0 48 3t48.5 11.5t37.5 25t15 43.5q0 28 -20 45t-50 30t-65.5 26.5t-65.5 33.5t-50 51.5t-20 80.5q0 68 27 113t71 72t100 38t113 11q65 0 122 -7t92 -24zM220 -37h124l-83 -144h-109z" />
    <glyph glyph-name="scommaaccent" unicode="&#x219;" horiz-adv-x="500" 
d="M32 138q69 -30 146 -30q11 0 28 1t33.5 5.5t28 14t11.5 25.5q0 19 -16 29.5t-40 19t-51.5 18.5t-51.5 27t-40 44t-16 70q0 46 24 78.5t62 53t85 30t92 9.5q34 0 79 -7.5t94 -23.5l-38 -118q-35 14 -69 21.5t-75 7.5q-15 0 -30 -2t-27 -7t-19.5 -13.5t-7.5 -22.5
t16.5 -24.5t41.5 -20t54.5 -20.5t54.5 -26.5t41.5 -38t16.5 -55.5q0 -48 -19 -84.5t-52 -60.5t-77.5 -36.5t-95.5 -13.5q-60 -1 -118.5 7t-100.5 20zM164 -37h124l-83 -144h-109z" />
    <glyph glyph-name="circumflex" unicode="&#x2c6;" horiz-adv-x="278" 
d="M144 729h162l84 -144h-113l-58 78l-101 -78h-118z" />
    <glyph glyph-name="caron" unicode="&#x2c7;" horiz-adv-x="278" 
d="M246 585h-162l-84 144h113l58 -78l101 78h118z" />
    <glyph glyph-name="breve" unicode="&#x2d8;" horiz-adv-x="278" 
d="M124 729q6 -43 32 -58t69 -15q17 0 34 5.5t32 15.5t26.5 23t15.5 29h88q-49 -157 -215 -157q-34 0 -64 11t-52 31.5t-34.5 49.5t-12.5 65h81z" />
    <glyph glyph-name="dotaccent" unicode="&#x2d9;" horiz-adv-x="278" 
d="M307 585h-138l30 144h138z" />
    <glyph glyph-name="ring" unicode="&#x2da;" horiz-adv-x="278" 
d="M115 669q0 23 9 43.5t24 35.5t35.5 24t43.5 9t43.5 -9t35.5 -24t24 -35.5t9 -43.5t-9 -43.5t-24 -35.5t-35.5 -24t-43.5 -9t-43.5 9t-35.5 24t-24 35.5t-9 43.5zM175 669q0 -21 15.5 -36.5t36.5 -15.5t36.5 15.5t15.5 36.5t-15.5 36.5t-36.5 15.5t-36.5 -15.5
t-15.5 -36.5z" />
    <glyph glyph-name="ogonek" unicode="&#x2db;" horiz-adv-x="278" 
d="M314 0q-28 -11 -50.5 -27.5t-39 -33t-25.5 -32t-9 -25.5q0 -22 13.5 -30t33.5 -8q13 0 29.5 2.5t39.5 10.5l-17 -67q-21 -5 -36 -7t-27 -3.5t-23.5 -1.5h-25.5q-56 0 -86 19t-30 64q0 22 12 43.5t31 40t43 33t49 22.5h118z" />
    <glyph glyph-name="tilde" unicode="&#x2dc;" horiz-adv-x="278" 
d="M417 729q-3 -28 -12 -54t-25 -45t-38.5 -30.5t-53.5 -11.5q-19 0 -39 5.5t-39 12.5t-35.5 12.5t-28.5 5.5q-23 0 -33.5 -10t-15.5 -29h-72q3 26 12 51.5t24.5 45.5t38 32t52.5 12q20 0 39.5 -5.5t38 -12.5t35.5 -12.5t30 -5.5q43 0 50 39h72z" />
    <glyph glyph-name="hungarumlaut" unicode="&#x2dd;" horiz-adv-x="278" 
d="M364 729h187l-168 -144h-126zM112 729h183l-164 -144h-126z" />
    <glyph glyph-name="endash" unicode="&#x2013;" horiz-adv-x="500" 
d="M28 332h500l-28 -126h-500z" />
    <glyph glyph-name="emdash" unicode="&#x2014;" horiz-adv-x="1000" 
d="M28 332h1000l-28 -126h-1000z" />
    <glyph glyph-name="quoteleft" unicode="&#x2018;" horiz-adv-x="333" 
d="M264 427h-178l149 271h144z" />
    <glyph glyph-name="quoteright" unicode="&#x2019;" horiz-adv-x="333" 
d="M198 698h178l-149 -271h-144z" />
    <glyph glyph-name="quotesinglbase" unicode="&#x201a;" horiz-adv-x="333" 
d="M85 162h178l-149 -271h-144z" />
    <glyph glyph-name="quotedblleft" unicode="&#x201c;" 
d="M284 427h-178l149 271h144zM519 427h-178l149 271h144z" />
    <glyph glyph-name="quotedblright" unicode="&#x201d;" 
d="M456 698h178l-149 -271h-144zM221 698h178l-149 -271h-144z" />
    <glyph glyph-name="quotedblbase" unicode="&#x201e;" 
d="M113 162h178l-149 -271h-144zM348 162h178l-149 -271h-144z" />
    <glyph glyph-name="dagger" unicode="&#x2020;" 
d="M106 531h174l34 167h165l-34 -167h174l-28 -132h-174l-83 -399h-165l83 399h-174z" />
    <glyph glyph-name="daggerdbl" unicode="&#x2021;" 
d="M116 562h172l28 136h165l-28 -136h172l-25 -120h-172l-39 -187h172l-25 -120h-172l-28 -135h-165l28 135h-172l25 120h172l39 187h-172z" />
    <glyph glyph-name="bullet" unicode="&#x2022;" horiz-adv-x="500" 
d="M92 349q0 36 13.5 67.5t37.5 55.5t55.5 37.5t67.5 13.5t68 -13.5t55.5 -37.5t37.5 -55.5t14 -67.5t-14 -68t-37.5 -55.5t-55.5 -37.5t-68 -14t-67.5 14t-55.5 37.5t-37.5 55.5t-13.5 68z" />
    <glyph glyph-name="ellipsis" unicode="&#x2026;" horiz-adv-x="1000" 
d="M68 162h169l-34 -162h-169zM401 162h169l-34 -162h-169zM734 162h169l-34 -162h-169z" />
    <glyph glyph-name="perthousand" unicode="&#x2030;" horiz-adv-x="1000" 
d="M496 72q18 0 30 18.5t20 42.5t11.5 47.5t3.5 34.5q0 14 -6 25t-24 11t-29.5 -18t-19 -41.5t-10.5 -46.5t-3 -34t5 -25t22 -14zM493 -12q-66 0 -96 38.5t-30 98.5q0 37 10 74.5t29.5 67.5t50 49t70.5 19q77 0 106.5 -37.5t29.5 -99.5q0 -41 -10.5 -79t-32 -67t-53.5 -46.5
t-74 -17.5zM595 720h104l-571 -742h-105zM191 363q-66 0 -96 38.5t-30 98.5q0 37 10 74.5t29.5 67.5t50 49t70.5 19q77 0 106.5 -37.5t29.5 -99.5q0 -41 -10.5 -79t-32 -67t-53.5 -46.5t-74 -17.5zM194 447q18 0 30 18.5t20 42.5t11.5 47.5t3.5 34.5q0 14 -6 25t-24 11
t-29.5 -18t-19 -41.5t-10.5 -46.5t-3 -34t5 -25t22 -14zM816 -12q-66 0 -96 38.5t-30 98.5q0 37 10 74.5t29.5 67.5t50 49t70.5 19q77 0 106.5 -37.5t29.5 -99.5q0 -41 -10.5 -79t-32 -67t-53.5 -46.5t-74 -17.5zM819 72q18 0 30 18.5t20 42.5t11.5 47.5t3.5 34.5
q0 14 -6 25t-24 11t-29.5 -18t-19 -41.5t-10.5 -46.5t-3 -34t5 -25t22 -14z" />
    <glyph glyph-name="guilsinglleft" unicode="&#x2039;" horiz-adv-x="389" 
d="M25 269l188 204h176l-199 -204l149 -204h-163z" />
    <glyph glyph-name="guilsinglright" unicode="&#x203a;" horiz-adv-x="389" 
d="M364 269l-188 -204h-176l199 204l-147 204h163z" />
    <glyph glyph-name="fraction" unicode="&#x2044;" horiz-adv-x="167" 
d="M302 720h110l-494 -742h-110z" />
    <glyph glyph-name="trademark" unicode="&#x2122;" horiz-adv-x="1000" 
d="M154 608h-117v90h344v-90h-117v-326h-110v326zM477 698h156l86 -242h2l86 242h156v-416h-110v272h-2l-88 -272h-86l-88 272h-2v-272h-110v416z" />
    <glyph glyph-name="partialdiff" unicode="&#x2202;" horiz-adv-x="494" 
d="M65 717q15 6 35.5 13t44.5 11t50 4.5t51 -5.5q46 -11 89 -41t79 -93q17 -30 26.5 -63.5t14.5 -63.5t6 -53.5t1 -32.5q0 -15 -2.5 -46t-8.5 -68t-16 -76.5t-25 -71.5q-20 -43 -41 -74t-63 -54q-52 -29 -104.5 -23.5t-90.5 31.5q-29 20 -54 54t-30 91q-3 30 2 57.5t14 50
t19.5 39.5t19.5 28q26 32 60 52.5t82 18.5q22 -1 39 -4.5t33 -11t34.5 -20t43.5 -32.5q6 32 8 59.5t3 56.5q0 18 -3 41t-8 45t-10.5 41.5t-10.5 31.5q-4 11 -13.5 25.5t-23.5 28t-33 23.5t-42 12q-27 2 -43 1t-29.5 -5t-28 -11t-36.5 -16zM366 299q-8 9 -17 20t-22 21
t-29.5 16.5t-39.5 6.5q-57 -2 -96 -54q-30 -42 -40 -82.5t-10 -78.5q0 -11 1 -27.5t5.5 -34.5t13.5 -35t26 -28q21 -14 41 -14.5t42 9.5q28 12 47 35t34 58q18 45 28 92t16 96z" />
    <glyph glyph-name="Delta" unicode="&#x2206;" horiz-adv-x="612" 
d="M608 0h-602l320 688zM72 49h412l-194 468z" />
    <glyph glyph-name="summation" unicode="&#x2211;" horiz-adv-x="713" 
d="M623 586h-20q-7 24 -14 45t-22 36.5t-42 24t-75 8.5h-263l273 -358l-294 -339h371q29 0 49 5t34.5 18t26.5 35t25 55h23q-9 -38 -15 -63.5t-10.5 -48.5t-8.5 -48.5t-9 -63.5q-20 3 -39 7t-38 4h-503q-15 0 -29 -1.5t-29 -1.5l349 398l-347 454q26 -2 52 -4.5t52 -2.5h497
z" />
    <glyph glyph-name="minus" unicode="&#x2212;" horiz-adv-x="600" 
d="M62 316h506v-126h-506v126z" />
    <glyph glyph-name="radical" unicode="&#x221a;" horiz-adv-x="549" 
d="M10 450l146 72l197 -403l127 798l35 -5l-150 -950l-243 502l-96 -47z" />
    <glyph glyph-name="notequal" unicode="&#x2260;" horiz-adv-x="549" 
d="M451 521l-76 -136h165v-55h-195l-78 -139h273v-55h-303l-90 -161l-49 28l74 133h-157v55h188l77 139h-265v55h296l91 164z" />
    <glyph glyph-name="lessequal" unicode="&#x2264;" horiz-adv-x="549" 
d="M29 55h497v-55h-497v55zM29 409l497 230v-62l-433 -199l433 -199v-62l-497 230v62z" />
    <glyph glyph-name="greaterequal" unicode="&#x2265;" horiz-adv-x="549" 
d="M526 0h-497v55h497v-55zM526 347l-497 -230v62l433 199l-433 199v62l497 -230v-62z" />
    <glyph glyph-name="lozenge" unicode="&#x25ca;" horiz-adv-x="494" 
d="M212 0l-194 377l194 368h60l194 -368l-194 -377h-60zM242 691l-164 -314l164 -323l164 323z" />
    <glyph glyph-name="fi" unicode="&#xfb01;" horiz-adv-x="778" 
d="M625 738h182l-28 -132h-182zM579 521h182l-108 -521h-182zM157 395h-113l28 126h109l14 66q17 81 71 128t142 47q34 0 69.5 -4t64.5 -12l-34 -123q-14 5 -28 9t-29 4q-32 0 -52.5 -20t-30.5 -64l-7 -31h134l-28 -126h-132l-82 -395h-180z" />
    <glyph glyph-name="fl" unicode="&#xfb02;" horiz-adv-x="778" 
d="M627 750h182l-156 -750h-182zM157 395h-113l28 126h109l14 66q17 81 71 128t142 47q34 0 69.5 -4t64.5 -12l-34 -123q-14 5 -28 9t-29 4q-32 0 -52.5 -20t-30.5 -64l-7 -31h134l-28 -126h-132l-82 -395h-180z" />
    <glyph glyph-name="commaaccent" horiz-adv-x="306" 
d="M-50 -37h124l-83 -144h-109z" />
  </font>
</defs>
</svg>
