<?xml version="1.0" standalone="no"?>
<!DOCTYPE svg PUBLIC "-//W3C//DTD SVG 1.1//EN" "http://www.w3.org/Graphics/SVG/1.1/DTD/svg11.dtd" >
<svg>
<metadata>
Created by FontForge 20120731 at Mon Sep 12 10:39:41 2016
 By ,,,
 The digitally encoded machine readable software for producing   the Typefaces licensed to you is copyrighted (c) 1988, 1990 Adobe  Systems. All Rights Reserved. This software is the property of  Adobe Systems Incorporated and its licensors, and may not be  reproduced, used, displayed, modified, disclosed or transferred  without the express written approval of Adobe. 
</metadata>
<defs>
<font id="FrutigerCE-Black" horiz-adv-x="611" >
  <font-face 
    font-family="R Frutiger CE Roman"
    font-weight="900"
    font-stretch="normal"
    units-per-em="1000"
    panose-1="0 0 0 0 0 0 0 0 0 0"
    ascent="800"
    descent="-200"
    x-height="521"
    cap-height="698"
    bbox="-164 -222 1000 917"
    underline-thickness="50"
    underline-position="-50"
    unicode-range="U+000D-FB02"
  />
<missing-glyph horiz-adv-x="306" 
 />
    <glyph glyph-name=".notdef" horiz-adv-x="306" 
 />
    <glyph glyph-name=".null" horiz-adv-x="0" 
 />
    <glyph glyph-name=".null" horiz-adv-x="0" 
 />
    <glyph glyph-name="nonmarkingreturn" unicode="&#xd;" horiz-adv-x="250" 
 />
    <glyph glyph-name="space" unicode=" " horiz-adv-x="306" 
 />
    <glyph glyph-name="exclam" unicode="!" horiz-adv-x="444" 
d="M289 237h-134l-26 461h186zM138 162h168v-162h-168v162z" />
    <glyph glyph-name="quotedbl" unicode="&#x22;" 
d="M337 698h132v-271h-132v271zM142 698h132v-271h-132v271z" />
    <glyph glyph-name="numbersign" unicode="#" horiz-adv-x="612" 
d="M58 295h99l15 110h-84v108h99l26 185h106l-26 -185h87l25 185h105l-25 -185h69v-108h-84l-15 -110h69v-108h-84l-26 -187h-105l26 187h-87l-26 -187h-106l26 187h-84v108zM365 405h-87l-15 -110h87z" />
    <glyph glyph-name="dollar" unicode="$" horiz-adv-x="612" 
d="M266 289q-42 6 -83 22t-73 42t-52 62.5t-20 84.5q0 54 19 92.5t52 64t77 38.5t93 15v85h60v-85q47 0 98.5 -7t86.5 -24l-12 -135q-34 17 -82 28.5t-91 11.5v-151q48 -10 90.5 -24.5t75 -40t51.5 -65t19 -99.5q0 -55 -21.5 -95t-57 -67t-80 -40t-90.5 -14v-86h-60v86
q-24 0 -53 2t-57 5t-52.5 8t-39.5 11l13 142q47 -19 95 -27.5t94 -8.5v169zM279 584q-34 -2 -56.5 -20.5t-22.5 -47.5q0 -33 23.5 -50t55.5 -21v139zM326 120q40 4 63.5 23.5t23.5 62.5q0 18 -8 31t-20.5 21.5t-28 13.5t-30.5 8v-160z" />
    <glyph glyph-name="percent" unicode="%" horiz-adv-x="1000" 
d="M602 195q0 43 9 81t29.5 66t54 44t82.5 16t82.5 -16t54 -44t29.5 -66t9 -81q0 -45 -9 -83t-29.5 -65.5t-54 -43t-82.5 -15.5t-82.5 15.5t-54 43t-29.5 65.5t-9 83zM728 195q0 -19 1 -39.5t5.5 -38t14.5 -28.5t28 -11t28 11t14.5 28.5t5.5 38t1 39.5t-1 39.5t-5.5 38
t-14.5 28.5t-28 11t-28 -11t-14.5 -28.5t-5.5 -38t-1 -39.5zM635 720h109l-381 -742h-110zM48 503q0 43 9 81t29.5 66t54 44t82.5 16t82.5 -16t54 -44t29.5 -66t9 -81q0 -45 -9 -83t-29.5 -65.5t-54 -43t-82.5 -15.5t-82.5 15.5t-54 43t-29.5 65.5t-9 83zM174 503
q0 -19 1 -39.5t5.5 -38t14.5 -28.5t28 -11t28 11t14.5 28.5t5.5 38t1 39.5t-1 39.5t-5.5 38t-14.5 28.5t-28 11t-28 -11t-14.5 -28.5t-5.5 -38t-1 -39.5z" />
    <glyph glyph-name="ampersand" unicode="&#x26;" horiz-adv-x="778" 
d="M749 377q-3 -67 -30.5 -129t-76.5 -110l124 -138h-199q-11 14 -21 27.5t-21 25.5q-45 -39 -102.5 -52t-114.5 -13q-50 0 -97.5 13t-84.5 39t-59.5 66t-22.5 94q0 73 36 116.5t101 73.5q-42 33 -63 70t-21 83t21 78t54 51.5t74.5 28.5t82.5 9q46 0 89.5 -8.5t77.5 -28.5
t54.5 -53t20.5 -82q0 -33 -13 -58.5t-34 -46.5t-48 -38t-55 -33q62 -54 120 -111q24 26 34 59t12 67h162zM214 204q0 -22 9.5 -40t25.5 -30.5t36 -19t41 -6.5q32 0 56 9t50 29q-38 42 -76.5 79.5t-78.5 74.5q-29 -16 -46 -37t-17 -59zM257 534q0 -15 6.5 -28.5t16.5 -25.5
t22 -22t22 -18q13 8 28 17t27.5 20.5t21 25.5t8.5 31q0 31 -23 46.5t-55 15.5t-53 -18t-21 -44z" />
    <glyph glyph-name="quotesingle" unicode="'" horiz-adv-x="333" 
d="M101 698h132v-271h-132v271z" />
    <glyph glyph-name="parenleft" unicode="(" horiz-adv-x="389" 
d="M375 756q-66 -103 -105 -214t-39 -234q0 -121 38 -233t99 -215h-142q-74 100 -115.5 211.5t-41.5 236.5q0 123 45 235.5t114 212.5h147z" />
    <glyph glyph-name="parenright" unicode=")" horiz-adv-x="389" 
d="M14 -140q65 102 104.5 214.5t39.5 233.5t-39.5 234t-104.5 214h147q75 -97 117 -210.5t42 -237.5q0 -122 -45 -235.5t-114 -212.5h-147z" />
    <glyph glyph-name="asterisk" unicode="*" 
d="M238 475l-142 27l38 116l133 -66l-21 146h122l-20 -144l130 64l37 -117l-144 -25l102 -103l-101 -73l-67 129l-72 -128l-98 71z" />
    <glyph glyph-name="plus" unicode="+" horiz-adv-x="600" 
d="M47 316h190v190h126v-190h190v-126h-190v-190h-126v190h-190v126z" />
    <glyph glyph-name="comma" unicode="," horiz-adv-x="306" 
d="M69 162h168l-98 -271h-137z" />
    <glyph glyph-name="hyphen" unicode="-" horiz-adv-x="333" 
d="M31 335h271v-132h-271v132z" />
    <glyph glyph-name="period" unicode="." horiz-adv-x="306" 
d="M69 162h168v-162h-168v162z" />
    <glyph glyph-name="slash" unicode="/" horiz-adv-x="278" 
d="M173 710h126l-194 -722h-126z" />
    <glyph glyph-name="zero" unicode="0" horiz-adv-x="612" 
d="M306 -12q-87 0 -140 31t-82 81.5t-39 115.5t-10 133t10 133t39 115.5t82 81.5t140 31t140 -31t82 -81.5t39 -115.5t10 -133t-10 -133t-39 -115.5t-82 -81.5t-140 -31zM306 114q32 0 50 21t27 55t11.5 75.5t2.5 83.5t-2.5 83.5t-11.5 75.5t-27 55t-50 21q-31 0 -49.5 -21
t-27.5 -55t-11.5 -75.5t-2.5 -83.5t2.5 -83.5t11.5 -75.5t27.5 -55t49.5 -21z" />
    <glyph glyph-name="one" unicode="1" horiz-adv-x="612" 
d="M280 512l-132 -94l-83 126l237 154h164v-698h-186v512z" />
    <glyph glyph-name="two" unicode="2" horiz-adv-x="612" 
d="M42 133q53 46 107.5 93.5t98.5 93t72 87.5t28 77q0 47 -28.5 67.5t-70.5 20.5q-22 0 -47.5 -4t-50.5 -10.5t-47 -15.5t-38 -18l-7 145q75 27 125.5 34t81.5 7q59 0 108 -12.5t84.5 -38t55.5 -64t20 -90.5q0 -51 -24 -101t-57.5 -93.5t-70 -79t-61.5 -56.5l-50 -43h276
v-132h-505v133z" />
    <glyph glyph-name="three" unicode="3" horiz-adv-x="612" 
d="M63 681q48 14 96.5 21.5t106.5 7.5q49 0 98 -8.5t88 -30t63.5 -58.5t24.5 -94q0 -60 -35 -98.5t-93 -54.5v-2q63 -13 101 -53t38 -106q0 -64 -28.5 -106t-73 -67t-98.5 -34.5t-105 -9.5q-59 0 -112.5 5t-91.5 19l9 147q34 -20 78.5 -26.5t94.5 -6.5q21 0 45.5 4
t45.5 13.5t35.5 27t14.5 44.5t-13.5 43t-33.5 24t-41.5 10.5t-38.5 2.5q-23 0 -42 -0.5t-36 -1.5v124q24 -2 42 -2h38q16 0 36 4t37 13t29 24t12 36q0 25 -11 40.5t-28 24.5t-38.5 12t-42.5 3q-47 0 -89.5 -7t-72.5 -21z" />
    <glyph glyph-name="four" unicode="4" horiz-adv-x="612" 
d="M320 133h-312v148l280 417h206v-439h99v-126h-99v-133h-174v133zM332 554h-2l-190 -295h192v295z" />
    <glyph glyph-name="five" unicode="5" horiz-adv-x="612" 
d="M80 698h455v-126h-295v-116q20 2 33 3t22 1q53 0 101.5 -12t85.5 -38t58.5 -67t21.5 -99q0 -73 -26 -122t-69 -79t-98 -42.5t-114 -12.5q-52 0 -98 7t-89 18l3 151q40 -20 82.5 -29t87.5 -9q26 0 51 5t45 17.5t32.5 34.5t12.5 55q0 29 -14 48.5t-36 31.5t-49.5 17
t-55.5 5q-38 0 -76 -3.5t-76 -13.5z" />
    <glyph glyph-name="six" unicode="6" horiz-adv-x="612" 
d="M519 541q-23 15 -59.5 26t-87.5 11q-46 0 -77.5 -14.5t-50 -41.5t-27 -65t-8.5 -84h2q25 35 61.5 53t89.5 18q48 0 86.5 -17t66 -46.5t42 -69.5t14.5 -87q0 -48 -19.5 -91t-54 -75.5t-82.5 -51t-106 -18.5q-75 0 -126 27t-82.5 73t-45.5 105.5t-14 125.5q0 80 15.5 151.5
t51.5 124.5t95 84t146 31q54 0 97.5 -8t83.5 -24zM217 215q0 -43 23 -75t68 -32q44 0 66.5 29t22.5 70q0 22 -5 42t-15.5 35.5t-27.5 24.5t-41 9q-46 0 -68.5 -31t-22.5 -72z" />
    <glyph glyph-name="seven" unicode="7" horiz-adv-x="612" 
d="M362 566h-312v132h502v-151l-250 -547h-200z" />
    <glyph glyph-name="eight" unicode="8" horiz-adv-x="612" 
d="M51 509q0 56 21.5 94.5t57.5 62t83.5 34t99.5 10.5t96 -10.5t76 -32.5t50 -56t18 -80q0 -32 -9.5 -58t-25 -45.5t-36.5 -33.5t-44 -23v-2q29 -9 54.5 -22t44.5 -33.5t30.5 -49t11.5 -67.5q0 -56 -22.5 -96t-60 -65t-87 -36.5t-104.5 -11.5q-56 0 -105.5 11t-86.5 35
t-58.5 61.5t-21.5 91.5q0 38 11 66.5t30 49.5t44 34.5t53 21.5v-1v2q-24 8 -46 22.5t-38.5 34t-26 43t-9.5 49.5zM399 204q0 23 -10 40t-25 28.5t-33.5 19.5t-36.5 13q-34 -16 -57.5 -39.5t-23.5 -64.5q0 -38 26.5 -62.5t63.5 -24.5q40 0 68 23.5t28 66.5zM219 508
q0 -20 7.5 -34t20 -24.5t28 -18.5t31.5 -15q37 21 58 43t21 57q0 38 -26.5 56t-57.5 18q-34 0 -58 -23t-24 -59z" />
    <glyph glyph-name="nine" unicode="9" horiz-adv-x="612" 
d="M93 157q23 -15 59.5 -26t87.5 -11q47 0 78 14.5t49.5 41.5t27 65t8.5 84h-2q-25 -35 -61.5 -53t-89.5 -18q-48 0 -86.5 17t-66 46.5t-42 69.5t-14.5 87q0 48 19.5 91t54 75.5t82.5 51t106 18.5q75 0 126 -27t82.5 -73t45.5 -105.5t14 -125.5q0 -80 -15.5 -151
t-51.5 -124.5t-95 -84.5t-146 -31q-54 0 -97.5 8t-83.5 24zM395 483q0 43 -23 75t-68 32q-44 0 -66.5 -29t-22.5 -70q0 -22 5 -42t15.5 -35.5t27.5 -24.5t41 -9q46 0 68.5 31.5t22.5 71.5z" />
    <glyph glyph-name="colon" unicode=":" horiz-adv-x="306" 
d="M69 521h168v-162h-168v162zM69 162h168v-162h-168v162z" />
    <glyph glyph-name="semicolon" unicode=";" horiz-adv-x="306" 
d="M69 162h168l-98 -271h-137zM69 521h168v-162h-168v162z" />
    <glyph glyph-name="less" unicode="&#x3c;" horiz-adv-x="600" 
d="M553 392l-341 -139l341 -139v-122l-506 208v106l506 208v-122z" />
    <glyph glyph-name="equal" unicode="=" horiz-adv-x="600" 
d="M47 431h506v-126h-506v126zM47 201h506v-126h-506v126z" />
    <glyph glyph-name="greater" unicode="&#x3e;" horiz-adv-x="600" 
d="M47 114l341 139l-341 139v122l506 -208v-106l-506 -208v122z" />
    <glyph glyph-name="question" unicode="?" horiz-adv-x="556" 
d="M65 681q51 16 103.5 22.5t106.5 6.5q41 0 84 -8.5t78 -28.5t57 -52t22 -79q0 -51 -24 -86.5t-53.5 -67.5t-55.5 -66.5t-30 -84.5h-146q0 48 20 83.5t44.5 65.5t44.5 58.5t20 61.5q0 19 -10.5 32.5t-26.5 22.5t-35.5 13t-37.5 4q-84 0 -157 -37zM196 162h168v-162h-168
v162z" />
    <glyph glyph-name="at" unicode="@" horiz-adv-x="800" 
d="M392 235q44 0 68.5 30.5t24.5 78.5q0 41 -22.5 67t-60.5 26q-22 0 -39.5 -9t-29.5 -24t-18.5 -34t-6.5 -39q0 -41 21 -68.5t63 -27.5zM715 137q-53 -73 -126.5 -111t-164.5 -38q-82 0 -153 27t-123 75t-81.5 114t-29.5 145q0 77 28.5 143t79 114.5t120.5 76t153 27.5
q69 0 132 -20.5t110 -58.5t75 -92t28 -121q0 -83 -32 -137t-74.5 -85.5t-85 -44t-63.5 -12.5q-20 0 -35 12t-16 37h-2q-18 -20 -44.5 -34.5t-56.5 -14.5q-31 0 -59 14.5t-49 40t-33.5 61t-12.5 77.5q0 39 13.5 75.5t38.5 64t60 44.5t78 17q37 0 67.5 -13.5t52.5 -43.5l9 47
h94l-34 -209q-4 -20 -7 -33.5t-3 -21.5t2.5 -13.5t10.5 -5.5q14 0 29 8.5t27 26t20.5 45.5t8.5 67q1 107 -61 167t-196 60q-59 0 -107 -20t-81.5 -55.5t-52 -84.5t-18.5 -107q0 -64 19.5 -113t55.5 -82.5t86 -50.5t110 -17q63 0 111 15t80 38h102z" />
    <glyph glyph-name="A" unicode="A" horiz-adv-x="778" 
d="M273 698h228l269 -698h-204l-52 149h-262l-55 -149h-189zM387 554h-2l-90 -273h175z" />
    <glyph glyph-name="B" unicode="B" horiz-adv-x="667" 
d="M60 698h321q49 0 90.5 -11t72 -32.5t47.5 -55t17 -78.5q0 -66 -32 -104.5t-91 -58.5v-2q141 -29 141 -154q0 -63 -25 -102t-64 -61.5t-87.5 -30.5t-95.5 -8h-294v698zM246 132h55q26 0 50.5 2.5t44.5 11t32 24.5t12 43q0 29 -12.5 45.5t-32 24.5t-44 10.5t-48.5 2.5h-57
v-164zM246 422h52q23 0 45 3.5t39.5 11.5t28.5 22.5t11 36.5q0 24 -10.5 38t-27.5 21t-39 9t-45 2h-54v-144z" />
    <glyph glyph-name="C" unicode="C" horiz-adv-x="667" 
d="M647 16q-40 -10 -87.5 -19t-119.5 -9q-70 0 -141 19t-129 61t-94.5 110.5t-36.5 167.5q0 91 30 159.5t83.5 114t127 68t159.5 22.5q54 0 105 -10.5t102 -25.5l-15 -151q-45 25 -89.5 37t-92.5 12q-49 0 -89.5 -17t-69 -47t-44 -71.5t-15.5 -90.5q0 -51 17.5 -92t48 -69.5
t73.5 -43.5t94 -15q46 0 91 10.5t83 25.5z" />
    <glyph glyph-name="D" unicode="D" horiz-adv-x="778" 
d="M65 698h254q91 0 167 -16t130.5 -55.5t85 -106.5t30.5 -168q0 -98 -31 -165t-86 -108.5t-131 -60t-165 -18.5h-254v698zM251 138h72q105 0 161 53t56 158t-57 158t-160 53h-72v-422z" />
    <glyph glyph-name="E" unicode="E" 
d="M60 698h492v-132h-306v-144h289v-132h-289v-158h317v-132h-503v698z" />
    <glyph glyph-name="F" unicode="F" horiz-adv-x="556" 
d="M60 698h467v-132h-281v-153h269v-132h-269v-281h-186v698z" />
    <glyph glyph-name="G" unicode="G" horiz-adv-x="778" 
d="M710 20q-89 -23 -155.5 -27.5t-114.5 -4.5q-70 0 -141 19t-129 61t-94.5 110.5t-36.5 167.5t33 168t91.5 112.5t139.5 63.5t177 20q17 0 42.5 -1t54.5 -4.5t59 -9.5t55 -16l-15 -152q-44 26 -90.5 35.5t-79.5 9.5q-57 0 -107 -12.5t-87.5 -39.5t-59 -70t-21.5 -104
q0 -51 17.5 -92t48 -69.5t73.5 -43.5t94 -15q19 0 36 3t30 9v138h-109v132h289v-388z" />
    <glyph glyph-name="H" unicode="H" horiz-adv-x="722" 
d="M65 698h186v-267h220v267h186v-698h-186v299h-220v-299h-186v698z" />
    <glyph glyph-name="I" unicode="I" horiz-adv-x="334" 
d="M74 698h186v-698h-186v698z" />
    <glyph glyph-name="J" unicode="J" horiz-adv-x="444" 
d="M14 161q36 -17 84 -17q41 0 68 34t27 119v401h186v-457q0 -56 -12.5 -102.5t-41.5 -80t-77 -52t-119 -18.5q-31 0 -61 6.5t-54 12.5v154z" />
    <glyph glyph-name="K" unicode="K" horiz-adv-x="722" 
d="M65 698h186v-285h2l210 285h224l-258 -325l278 -373h-237l-217 317h-2v-317h-186v698z" />
    <glyph glyph-name="L" unicode="L" horiz-adv-x="556" 
d="M65 698h186v-560h288v-138h-474v698z" />
    <glyph glyph-name="M" unicode="M" horiz-adv-x="1000" 
d="M60 698h293l148 -464h2l155 464h282v-698h-182l3 536h-2l-178 -536h-171l-170 536h-2l4 -536h-182v698z" />
    <glyph glyph-name="N" unicode="N" horiz-adv-x="778" 
d="M68 698h237l236 -474h2l-3 474h170v-698h-231l-244 477h-2l6 -477h-171v698z" />
    <glyph glyph-name="O" unicode="O" horiz-adv-x="778" 
d="M39 349q0 84 22.5 151t66.5 113.5t109.5 71.5t151.5 25t151.5 -25t109.5 -71.5t66.5 -113.5t22.5 -151q0 -83 -22.5 -150t-67 -114t-109.5 -72t-151 -25q-85 0 -150.5 25t-110 72t-67 114t-22.5 150zM231 349q0 -43 9 -83.5t28 -71.5t49 -49.5t72 -18.5t72 18.5t49 49.5
t28 71.5t9 83.5q0 45 -9 85.5t-28 71t-49 48.5t-72 18t-72 -18t-49 -48.5t-28 -71t-9 -85.5z" />
    <glyph glyph-name="P" unicode="P" 
d="M55 698h222q161 0 237 -55.5t76 -173.5q0 -106 -73 -165.5t-204 -59.5h-72v-244h-186v698zM241 376h48q24 0 45 4.5t36.5 16t24.5 30t9 45.5t-9 45t-24.5 29t-36.5 15.5t-45 4.5h-48v-190z" />
    <glyph glyph-name="Q" unicode="Q" horiz-adv-x="778" 
d="M231 349q0 -43 9 -83.5t28 -71.5t49 -49.5t72 -18.5t72 18.5t49 49.5t28 71.5t9 83.5q0 45 -9 85.5t-28 71t-49 48.5t-72 18t-72 -18t-49 -48.5t-28 -71t-9 -85.5zM399 -12h-10q-85 0 -150.5 25t-110 72t-67 114t-22.5 150q0 84 22.5 151t66.5 113.5t109.5 71.5t151.5 25
t151.5 -25t109.5 -71.5t66.5 -113.5t22.5 -151q0 -118 -45 -202t-133 -124l165 -155h-210z" />
    <glyph glyph-name="R" unicode="R" horiz-adv-x="667" 
d="M60 698h332q47 0 87.5 -10.5t71.5 -32.5t48.5 -55t17.5 -78q0 -70 -33 -115t-101 -61v-2q23 -6 36 -19t23 -32.5t18.5 -45t21.5 -57.5l68 -190h-194l-40 126q-14 45 -26.5 74t-27 46t-33 23.5t-44.5 6.5h-39v-276h-186v698zM246 408h49q23 0 47 1.5t43.5 9.5t32.5 24
t13 46q0 24 -11.5 39.5t-30 23.5t-43 11t-51.5 3h-49v-158z" />
    <glyph glyph-name="S" unicode="S" 
d="M67 172q36 -20 85 -33t107 -13q22 0 43 3t37 10.5t25.5 20.5t9.5 34q0 33 -24.5 50t-61 29.5t-79.5 25t-79.5 35t-61 61t-24.5 101.5t28 104.5t71.5 65.5t98 34t106.5 10q51 0 98 -7t82 -19l-12 -144q-36 17 -75.5 24.5t-79.5 7.5q-18 0 -39.5 -1.5t-40.5 -8t-32 -19.5
t-13 -36q0 -28 24.5 -43t61 -26t79.5 -23t79.5 -35t61 -61t24.5 -101q0 -68 -26 -112.5t-69 -70.5t-98.5 -36.5t-113.5 -10.5q-49 0 -105 7.5t-103 22.5z" />
    <glyph glyph-name="T" unicode="T" horiz-adv-x="556" 
d="M185 560h-172v138h530v-138h-172v-560h-186v560z" />
    <glyph glyph-name="U" unicode="U" horiz-adv-x="722" 
d="M667 265q0 -72 -22 -124t-62.5 -86t-97 -50.5t-124.5 -16.5t-124.5 16.5t-97 50.5t-62.5 86t-22 124v433h186v-402q0 -34 5.5 -65t19 -54.5t36.5 -37t59 -13.5t59 13.5t36.5 37t19 54.5t5.5 65v402h186v-433z" />
    <glyph glyph-name="V" unicode="V" horiz-adv-x="722" 
d="M10 698h198l155 -548h2l156 548h191l-238 -698h-230z" />
    <glyph glyph-name="W" unicode="W" horiz-adv-x="1000" 
d="M8 698h190l90 -536h2l94 536h236l98 -536h2l91 536h181l-156 -698h-239l-99 536h-2l-92 -536h-241z" />
    <glyph glyph-name="X" unicode="X" horiz-adv-x="722" 
d="M236 367l-202 331h217l117 -230l120 230h204l-204 -331l224 -367h-222l-135 257l-134 -257h-211z" />
    <glyph glyph-name="Y" unicode="Y" horiz-adv-x="722" 
d="M269 263l-258 435h214l137 -280l135 280h214l-256 -435v-263h-186v263z" />
    <glyph glyph-name="Z" unicode="Z" 
d="M570 550l-342 -412h344v-138h-546v148l332 412h-323v138h535v-148z" />
    <glyph glyph-name="bracketleft" unicode="[" horiz-adv-x="389" 
d="M352 642h-114v-668h114v-114h-264v896h264v-114z" />
    <glyph glyph-name="backslash" unicode="\" horiz-adv-x="278" 
d="M-21 710h126l194 -722h-126z" />
    <glyph glyph-name="bracketright" unicode="]" horiz-adv-x="389" 
d="M37 -26h114v668h-114v114h264v-896h-264v114z" />
    <glyph glyph-name="asciicircum" unicode="^" horiz-adv-x="600" 
d="M244 698h112l174 -365h-122l-108 227l-108 -227h-122z" />
    <glyph glyph-name="underscore" unicode="_" horiz-adv-x="500" 
d="M0 -75h500v-50h-500v50z" />
    <glyph glyph-name="grave" unicode="`" horiz-adv-x="333" 
d="M120 585l-129 144h187l68 -144h-126z" />
    <glyph glyph-name="a" unicode="a" 
d="M397 0q-1 21 -2.5 41.5t-1.5 40.5h-2q-31 -49 -70 -71.5t-95 -22.5q-39 0 -74 9.5t-62 30t-43 51.5t-16 73q0 60 28.5 95t70 53.5t88 24t82.5 5.5q22 0 44.5 -2t39.5 -5q0 27 -9.5 44t-26 27.5t-38 14.5t-45.5 4q-44 0 -86 -9t-80 -30l-3 122q48 20 99 28.5t109 8.5
q50 0 95 -11.5t79 -37t54 -66.5t20 -101v-194q0 -31 2 -61.5t8 -61.5h-165zM199 165q0 -27 21 -42t53 -15q26 0 46.5 10.5t34.5 28t22 39.5t8 45q-17 1 -36.5 2t-39.5 1q-46 0 -77.5 -15.5t-31.5 -53.5z" />
    <glyph glyph-name="b" unicode="b" horiz-adv-x="668" 
d="M52 750h181v-296h2q35 44 80 61.5t99 17.5t95.5 -23.5t70 -61t43 -84.5t14.5 -94q0 -58 -15.5 -109t-45.5 -89.5t-74.5 -61t-102.5 -22.5q-31 0 -59.5 8.5t-52.5 22.5t-41 33t-26 41h-2v-93h-166v750zM451 266q0 26 -7 49.5t-21 41t-34.5 28t-46.5 10.5q-50 0 -80 -38.5
t-30 -97.5q0 -28 9 -52.5t24 -42.5t35 -28t42 -10q51 0 80 38.5t29 101.5z" />
    <glyph glyph-name="c" unicode="c" horiz-adv-x="500" 
d="M464 372q-25 15 -51 22t-58 7q-29 0 -54.5 -10t-44 -28.5t-29 -45t-10.5 -60.5q0 -31 12 -56.5t32.5 -43.5t47.5 -27.5t56 -9.5q31 0 60 6.5t52 18.5l4 -134q-34 -11 -72.5 -17t-74.5 -6q-64 0 -119.5 18.5t-96.5 53t-64 85.5t-23 115q0 65 23 115.5t64 85.5t96.5 53.5
t119.5 18.5q84 0 143 -29z" />
    <glyph glyph-name="d" unicode="d" horiz-adv-x="668" 
d="M616 0h-166v93h-2q-9 -22 -26 -41t-41 -33t-52.5 -22.5t-59.5 -8.5q-58 0 -102.5 22.5t-74.5 61t-45.5 89.5t-15.5 109q0 48 14.5 95t43 84.5t70 60.5t95.5 23t99 -17t80 -62h2v296h181v-750zM217 266q0 -63 29 -101.5t80 -38.5q23 0 43 10t35 28t23.5 42.5t8.5 52.5
q0 60 -30 98t-80 38q-26 0 -46.5 -10.5t-34.5 -28t-21 -41t-7 -49.5z" />
    <glyph glyph-name="e" unicode="e" 
d="M213 208q8 -54 47.5 -77t105.5 -23q37 0 77.5 9t81.5 31v-127q-44 -17 -92 -25t-99 -8q-64 0 -119.5 18.5t-96.5 53.5t-64 86t-23 115q0 65 21 115.5t58 85t88 53t112 18.5q72 0 122.5 -24t81.5 -64t45 -93t14 -111v-33h-360zM411 310q0 45 -23 77t-77 32q-49 0 -73 -32
t-27 -77h200z" />
    <glyph glyph-name="f" unicode="f" horiz-adv-x="444" 
d="M119 395h-106v126h109v32q0 58 13.5 98t41 64.5t68 35.5t94.5 11q29 0 52 -3.5t40 -6.5l-11 -124q-11 4 -24 6t-33 2q-35 0 -49.5 -22.5t-14.5 -60.5v-32h128v-126h-128v-395h-180v395z" />
    <glyph glyph-name="g" unicode="g" horiz-adv-x="668" 
d="M608 61q0 -80 -19.5 -134.5t-58.5 -87.5t-98 -47t-138 -14q-65 0 -116 11t-83 22l9 142q42 -20 80.5 -31.5t95.5 -11.5q78 0 119 37t41 114v28h-2q-32 -46 -76.5 -67.5t-98.5 -21.5t-97 19.5t-73 54t-46 82.5t-16 106t14 107.5t43 86t73 57t105 20.5q58 0 103 -29t74 -77
h2v94h163v-460zM217 265q0 -61 30.5 -94t71.5 -33q48 0 81.5 37t33.5 97q0 22 -6.5 44t-20.5 39.5t-36 28.5t-52 11q-25 0 -44 -10.5t-32 -28t-19.5 -41t-6.5 -50.5z" />
    <glyph glyph-name="h" unicode="h" horiz-adv-x="667" 
d="M56 750h180v-306h2q29 41 72 65t102 24q53 0 91 -17.5t62 -46t35 -66t11 -78.5v-325h-180v252q0 74 -23 102.5t-60 28.5q-56 0 -84 -39t-28 -124v-220h-180v750z" />
    <glyph glyph-name="i" unicode="i" horiz-adv-x="334" 
d="M77 521h180v-521h-180v521zM257 606h-180v132h180v-132z" />
    <glyph glyph-name="j" unicode="j" horiz-adv-x="334" 
d="M-21 -99q10 -2 19.5 -2.5t18.5 -0.5q21 0 33 9t18 23.5t7.5 32.5t1.5 37v521h180v-526q0 -49 -8.5 -89t-29.5 -68.5t-56 -44t-87 -15.5q-29 0 -53 2t-48 7zM257 606h-180v132h180v-132z" />
    <glyph glyph-name="k" unicode="k" 
d="M56 750h180v-448h2l150 219h197l-181 -239l196 -282h-218l-144 258h-2v-258h-180v750z" />
    <glyph glyph-name="l" unicode="l" horiz-adv-x="334" 
d="M77 750h180v-750h-180v750z" />
    <glyph glyph-name="m" unicode="m" horiz-adv-x="1000" 
d="M56 521h164v-96h2q27 57 77.5 82.5t112.5 25.5q56 0 99 -24.5t64 -75.5q32 53 80.5 76.5t104.5 23.5t92 -15.5t56.5 -44.5t28 -71t7.5 -95v-307h-180v280q0 45 -17 74t-55 29q-48 0 -75 -39t-27 -124v-220h-180v280q0 45 -17 74t-55 29q-48 0 -75 -39t-27 -124v-220h-180
v521z" />
    <glyph glyph-name="n" unicode="n" horiz-adv-x="667" 
d="M56 521h164v-96h2q27 57 77.5 82.5t112.5 25.5q53 0 91 -17.5t62 -46t35 -66t11 -78.5v-325h-180v252q0 74 -23 102.5t-60 28.5q-56 0 -84 -39t-28 -124v-220h-180v521z" />
    <glyph glyph-name="o" unicode="o" horiz-adv-x="668" 
d="M334 -12q-64 0 -119.5 18.5t-96.5 53t-64 85.5t-23 115q0 65 23 115.5t64 85.5t96.5 53.5t119.5 18.5q65 0 120 -18.5t96 -53.5t64 -85.5t23 -115.5q0 -64 -23 -115t-64 -85.5t-96 -53t-120 -18.5zM334 114q31 0 53 12t36.5 32t21 46.5t6.5 55.5t-6.5 56t-21 47t-36.5 32
t-53 12t-53 -12t-36.5 -32t-21 -47t-6.5 -56t6.5 -55.5t21 -46.5t36.5 -32t53 -12z" />
    <glyph glyph-name="p" unicode="p" horiz-adv-x="668" 
d="M52 521h166v-94h2q27 55 79.5 80.5t114.5 25.5q54 0 95.5 -23.5t70 -61t43 -84.5t14.5 -94q0 -58 -15.5 -109t-45.5 -89.5t-74.5 -61t-102.5 -22.5q-48 0 -93.5 19t-71.5 66h-2v-283h-180v731zM451 266q0 26 -7 49.5t-21 41t-34.5 28t-46.5 10.5q-50 0 -80 -38.5
t-30 -97.5q0 -28 9 -52.5t24 -42.5t35 -28t42 -10q51 0 80 38.5t29 101.5z" />
    <glyph glyph-name="q" unicode="q" horiz-adv-x="668" 
d="M616 -210h-180v283h-2q-26 -47 -71.5 -66t-93.5 -19q-58 0 -102.5 22.5t-74.5 61t-45.5 89.5t-15.5 109q0 48 14.5 95t43 84.5t70 60.5t95.5 23q62 0 114.5 -25t79.5 -81h2v94h166v-731zM217 266q0 -63 29 -101.5t80 -38.5q23 0 43 10t35 28t23.5 42.5t8.5 52.5
q0 60 -30 98t-80 38q-26 0 -46.5 -10.5t-34.5 -28t-21 -41t-7 -49.5z" />
    <glyph glyph-name="r" unicode="r" horiz-adv-x="444" 
d="M428 377q-15 5 -30 5.5t-31 0.5q-63 0 -97 -43t-34 -120v-220h-180v521h164v-96h2q23 50 59 79t95 29q16 0 31.5 -2t29.5 -4z" />
    <glyph glyph-name="s" unicode="s" horiz-adv-x="500" 
d="M46 144q32 -14 76 -25t93 -11q28 0 50.5 7.5t22.5 34.5q0 22 -19 33.5t-47.5 19.5t-61.5 16.5t-61.5 25t-47.5 44.5t-19 75q0 45 20 77t52 52.5t71.5 30t78.5 9.5q47 0 93 -6.5t90 -23.5l-14 -125q-29 17 -67.5 26t-72.5 9q-15 0 -29.5 -1.5t-26.5 -5.5t-19.5 -11
t-7.5 -18q0 -20 20 -30t49.5 -17.5t64.5 -16t64.5 -25.5t49.5 -46.5t20 -79.5q0 -52 -21.5 -86t-56 -53.5t-78 -27t-87.5 -7.5q-61 0 -105 6t-84 19z" />
    <glyph glyph-name="t" unicode="t" horiz-adv-x="444" 
d="M10 521h106v117l177 55v-172h126v-126h-126v-192q0 -48 14.5 -71.5t57.5 -23.5q14 0 27.5 2.5t27.5 4.5l6 -117q-26 -3 -52.5 -6.5t-60.5 -3.5q-60 0 -99 13t-61.5 38t-31 61.5t-8.5 82.5v212h-103v126z" />
    <glyph glyph-name="u" unicode="u" horiz-adv-x="667" 
d="M611 0h-164v96h-2q-27 -57 -77.5 -82.5t-112.5 -25.5q-53 0 -91 17.5t-62 46t-35 66.5t-11 78v325h180v-252q0 -73 23 -102t60 -29q56 0 84 39t28 124v220h180v-521z" />
    <glyph glyph-name="v" unicode="v" 
d="M10 521h193l108 -371h2l109 371h179l-193 -521h-205z" />
    <glyph glyph-name="w" unicode="w" horiz-adv-x="944" 
d="M9 521h188l84 -375h2l90 375h216l88 -375h2l82 375h174l-159 -521h-209l-88 377h-2l-99 -377h-209z" />
    <glyph glyph-name="x" unicode="x" 
d="M186 265l-163 256h213l77 -156l81 156h197l-163 -254l174 -267h-217l-87 162l-86 -162h-203z" />
    <glyph glyph-name="y" unicode="y" 
d="M57 -73q18 -6 35 -8.5t36 -2.5q33 0 57 18.5t34 53.5l-211 533h194l112 -340h2l107 340h180l-191 -485q-19 -49 -38 -95.5t-46.5 -82.5t-68 -58t-102.5 -22q-56 0 -112 12z" />
    <glyph glyph-name="z" unicode="z" horiz-adv-x="500" 
d="M26 144l238 245h-233v132h439v-144l-238 -245h242v-132h-448v144z" />
    <glyph glyph-name="braceleft" unicode="{" horiz-adv-x="389" 
d="M359 666h-47q-20 0 -31.5 -6t-17.5 -15.5t-7.5 -21t-1.5 -21.5v-183q0 -34 -12.5 -55t-30 -33t-37.5 -16.5t-36 -5.5v-2q16 -1 36 -4.5t37.5 -15t30 -34.5t12.5 -63v-176q0 -10 1.5 -21.5t7.5 -21t17.5 -15.5t31.5 -6h47v-90h-100q-27 0 -52.5 8t-46 25t-32.5 42.5
t-12 61.5v193q0 25 -10 39.5t-24 22t-28.5 9.5t-23.5 2v90q9 0 23.5 2t28.5 8.5t24 20t10 35.5v200q0 36 12 61.5t32.5 42.5t46 25t52.5 8h100v-90z" />
    <glyph glyph-name="bar" unicode="|" horiz-adv-x="222" 
d="M48 750h126v-762h-126v762z" />
    <glyph glyph-name="braceright" unicode="}" horiz-adv-x="389" 
d="M30 -50h47q20 0 31.5 6t17.5 15.5t7.5 21t1.5 21.5v183q0 34 12.5 55t30 33t37.5 16.5t36 5.5v2q-16 1 -36 4.5t-37.5 15t-30 34.5t-12.5 63v176q0 10 -1.5 21.5t-7.5 21t-17.5 15.5t-31.5 6h-47v90h100q27 0 52.5 -8t46 -25t32.5 -42.5t12 -61.5v-193q0 -25 10 -39.5
t24 -22t28.5 -9.5t23.5 -2v-90q-9 0 -23.5 -2t-28.5 -8.5t-24 -19.5t-10 -36v-200q0 -36 -12 -61.5t-32.5 -42.5t-46 -25t-52.5 -8h-100v90z" />
    <glyph glyph-name="asciitilde" unicode="~" horiz-adv-x="600" 
d="M531 244q-8 -16 -19.5 -31.5t-26.5 -27.5t-34.5 -19.5t-44.5 -7.5q-30 0 -58.5 10t-55 22t-51 22t-48.5 10q-30 0 -50.5 -21.5t-37.5 -47.5l-36 109q8 16 19.5 31.5t26.5 27.5t34.5 19.5t44.5 7.5q30 0 58.5 -10t55 -22t51 -22t48.5 -10q30 0 50.5 21.5t37.5 47.5z" />
    <glyph glyph-name="exclamdown" unicode="&#xa1;" horiz-adv-x="444" 
d="M155 284h134l26 -461h-186zM306 359h-168v162h168v-162z" />
    <glyph glyph-name="cent" unicode="&#xa2;" horiz-adv-x="612" 
d="M389 401q-56 -2 -93 -40t-37 -104q0 -35 15.5 -62.5t39.5 -44.5zM269 3q-88 25 -142 91t-54 166q0 65 23 115.5t64 85.5t96.5 53.5t119.5 18.5q27 0 52 -3l36 117h59l-39 -129q10 -3 18.5 -6.5t16.5 -7.5l-13 -132q-14 8 -28.5 14.5t-30.5 10.5l-81 -271q21 -6 41 -6
q31 0 60 6.5t52 18.5l4 -134q-34 -11 -72.5 -17t-74.5 -6q-26 0 -50 3l-40 -131h-60z" />
    <glyph glyph-name="sterling" unicode="&#xa3;" horiz-adv-x="612" 
d="M53 132h92v190h-84v90h86v53q0 126 75 185.5t207 59.5q35 0 68.5 -5t66.5 -13l-8 -132q-20 7 -40 9.5t-43 2.5q-41 0 -68.5 -8.5t-44 -25t-23 -40t-6.5 -53.5v-33h152v-90h-152v-190h225v-132h-503v132z" />
    <glyph glyph-name="currency" unicode="&#xa4;" horiz-adv-x="612" 
d="M104 208q-26 26 -36 66t-10 75t10 75t36 66l-58 57l63 62l57 -54q26 21 66.5 31.5t73.5 10.5t73.5 -10.5t66.5 -31.5l57 54l63 -62l-58 -57q26 -26 36 -66t10 -75t-10 -75t-36 -66l58 -57l-63 -62l-57 54q-26 -21 -66.5 -31.5t-73.5 -10.5t-73.5 10.5t-66.5 31.5l-57 -54
l-63 62zM306 227q51 0 83.5 34.5t32.5 87.5t-32.5 87.5t-83.5 34.5t-83.5 -34.5t-32.5 -87.5t32.5 -87.5t83.5 -34.5z" />
    <glyph glyph-name="yen" unicode="&#xa5;" horiz-adv-x="612" 
d="M216 136h-148v84h148v43l-9 19h-139v84h97l-165 332h186l120 -282l118 282h188l-165 -332h97v-84h-138l-10 -19v-43h148v-84h-148v-136h-180v136z" />
    <glyph glyph-name="brokenbar" unicode="&#xa6;" horiz-adv-x="222" 
d="M48 272h126v-284h-126v284zM48 750h126v-284h-126v284z" />
    <glyph glyph-name="section" unicode="&#xa7;" 
d="M93 22q38 -17 87.5 -28.5t90.5 -11.5q38 0 63 10t25 42q0 22 -22 37t-55.5 28.5t-72 28t-72 35.5t-55.5 51t-22 73q0 48 24 79t66 57q-34 15 -56.5 47t-22.5 69q0 54 24 87t61.5 52t84 25.5t90.5 6.5q41 0 82 -7t80 -18l-8 -124q-36 14 -76 21.5t-79 7.5q-31 0 -55 -8.5
t-24 -37.5q0 -20 22 -33.5t55.5 -26.5t72.5 -27t72.5 -36t55.5 -53.5t22 -78.5q0 -43 -23.5 -77t-58.5 -59q32 -17 51 -51.5t19 -69.5q0 -47 -25.5 -79.5t-64 -52.5t-84.5 -29t-87 -9q-60 0 -110.5 10t-83.5 19zM243 382q-12 -14 -22.5 -32t-10.5 -38q0 -25 17 -41
q27 -26 64.5 -39.5t79.5 -30.5q13 15 21.5 35.5t8.5 40.5q0 17 -10.5 28t-21.5 18q-26 16 -60 30.5t-66 28.5z" />
    <glyph glyph-name="dieresis" unicode="&#xa8;" horiz-adv-x="333" 
d="M209 729h144v-144h-144v144zM-19 729h144v-144h-144v144z" />
    <glyph glyph-name="copyright" unicode="&#xa9;" horiz-adv-x="800" 
d="M573 292q-2 -71 -46 -111t-122 -40q-45 0 -81 16t-61 43.5t-38.5 65.5t-13.5 83q0 44 13.5 82t38.5 66t61 43.5t81 15.5q78 0 122 -40t46 -111h-96q-8 27 -23 41t-49 14q-38 0 -59 -30t-21 -81t21 -81.5t59 -30.5q34 0 49 14t23 41h96zM39 349q0 75 28.5 140.5
t77.5 114.5t114.5 77.5t140.5 28.5t140.5 -28.5t114.5 -77.5t77.5 -114.5t28.5 -140.5t-28.5 -140.5t-77.5 -114.5t-114.5 -77.5t-140.5 -28.5t-140.5 28.5t-114.5 77.5t-77.5 114.5t-28.5 140.5zM153 349q0 -55 19.5 -102.5t53 -82.5t78.5 -54.5t96 -19.5t96 19.5
t78.5 54.5t53 82.5t19.5 102.5q0 56 -19.5 103t-53 82t-78.5 54.5t-96 19.5t-96 -19.5t-78.5 -54.5t-53 -82t-19.5 -103z" />
    <glyph glyph-name="ordfeminine" unicode="&#xaa;" horiz-adv-x="397" 
d="M63 688q60 22 135 22q32 0 63 -4t55 -16t39 -35t15 -62v-144q2 -31 6 -61h-118l-6 47h-2q-33 -55 -103 -55q-25 0 -48 6t-40 18t-27.5 31t-10.5 45q0 36 18 57.5t43.5 32.5t52.5 14.5t44 3.5q26 0 43 -1.5t28 -2.5q0 34 -22.5 45t-54.5 11q-29 0 -56.5 -5.5t-53.5 -19.5
v73zM207 524q-30 0 -48 -8t-18 -28q0 -19 11.5 -28.5t31.5 -9.5q29 0 47.5 22t18.5 52h-43z" />
    <glyph glyph-name="guillemotleft" unicode="&#xab;" 
d="M47 269l119 204h148l-110 -204l110 -204h-148zM285 269l119 204h148l-110 -204l110 -204h-148z" />
    <glyph glyph-name="logicalnot" unicode="&#xac;" horiz-adv-x="600" 
d="M47 431h506v-323h-126v197h-380v126z" />
    <glyph glyph-name="registered" unicode="&#xae;" horiz-adv-x="800" 
d="M400 -12q-75 0 -140.5 28.5t-114.5 77.5t-77.5 114.5t-28.5 140.5t28.5 140.5t77.5 114.5t114.5 77.5t140.5 28.5t140.5 -28.5t114.5 -77.5t77.5 -114.5t28.5 -140.5t-28.5 -140.5t-77.5 -114.5t-114.5 -77.5t-140.5 -28.5zM400 90q51 0 96 19.5t78.5 54.5t53 82.5
t19.5 102.5q0 56 -19.5 103t-53 82t-78.5 54.5t-96 19.5t-96 -19.5t-78.5 -54.5t-53 -82t-19.5 -103q0 -55 19.5 -102.5t53 -82.5t78.5 -54.5t96 -19.5zM257 547h160q74 0 112.5 -24.5t38.5 -90.5q0 -56 -31 -81t-79 -27l94 -170h-96l-86 164h-17v-164h-96v393zM353 394h58
q27 0 44 9.5t17 33.5q0 11 -6.5 18t-16.5 10.5t-22.5 4.5t-23.5 1h-50v-77z" />
    <glyph glyph-name="macron" unicode="&#xaf;" horiz-adv-x="333" 
d="M-21 707h375v-84h-375v84z" />
    <glyph glyph-name="degree" unicode="&#xb0;" horiz-adv-x="400" 
d="M53 563q0 30 11.5 57t31.5 47t47 31.5t57 11.5t57 -11.5t47 -31.5t31.5 -47t11.5 -57t-11.5 -57t-31.5 -47t-47 -31.5t-57 -11.5t-57 11.5t-47 31.5t-31.5 47t-11.5 57zM129 563q0 -29 21 -50t50 -21t50 21t21 50t-21 50t-50 21t-50 -21t-21 -50z" />
    <glyph glyph-name="plusminus" unicode="&#xb1;" horiz-adv-x="600" 
d="M47 394h190v112h126v-112h190v-126h-190v-112h-126v112h-190v126zM47 126h506v-126h-506v126z" />
    <glyph glyph-name="twosuperior" unicode="&#xb2;" horiz-adv-x="398" 
d="M30 372q32 22 66 48t62.5 52.5t47 52t18.5 45.5q0 22 -18 33t-43 11q-28 0 -59 -6t-57 -18l-5 96q36 11 76.5 17.5t90.5 6.5q31 0 60 -8t51 -23.5t35 -38.5t13 -53q0 -29 -12 -55t-31.5 -50t-45 -47.5t-51.5 -46.5l-18 -16h150v-90h-330v90z" />
    <glyph glyph-name="threesuperior" unicode="&#xb3;" horiz-adv-x="398" 
d="M43 692q32 9 64 13.5t76 4.5q32 0 64.5 -5t58 -18.5t41.5 -35.5t16 -57q0 -36 -23 -59t-62 -33v-2q42 -7 67 -31.5t25 -63.5t-18.5 -64.5t-47 -40t-64 -20.5t-70.5 -6q-45 0 -80.5 3t-61.5 11l6 104q23 -11 52 -16.5t58 -5.5q40 0 64 10.5t24 30.5q0 23 -23.5 30.5
t-55.5 7.5q-15 0 -27.5 -0.5t-23.5 -1.5v89q11 -2 25 -2.5t30 -0.5q33 0 50.5 12t17.5 32q0 11 -7.5 18t-18.5 11.5t-24 6t-25 1.5q-27 0 -54 -6t-47 -14z" />
    <glyph glyph-name="acute" unicode="&#xb4;" horiz-adv-x="333" 
d="M167 729h187l-129 -144h-126z" />
    <glyph glyph-name="mu" unicode="&#xb5;" horiz-adv-x="667" 
d="M611 0h-164v96h-2q-27 -57 -77.5 -82.5t-112.5 -25.5h-17v-198h-182v731h180v-252q0 -73 23 -102t60 -29q56 0 84 39t28 124v220h180v-521z" />
    <glyph glyph-name="paragraph" unicode="&#xb6;" horiz-adv-x="620" 
d="M241 348q-46 0 -87 8t-71 28.5t-47.5 54t-17.5 84.5t17.5 84.5t47.5 54t71 28.5t87 8h337v-824h-120v734h-97v-734h-120v474z" />
    <glyph glyph-name="periodcentered" unicode="&#xb7;" horiz-adv-x="306" 
d="M60 272q0 38 27.5 65.5t65.5 27.5t65.5 -27.5t27.5 -65.5t-27.5 -65.5t-65.5 -27.5t-65.5 27.5t-27.5 65.5z" />
    <glyph glyph-name="cedilla" unicode="&#xb8;" horiz-adv-x="333" 
d="M213 0l-27 -65q11 2 21 3.5t27 1.5q14 0 28 -4.5t25 -15t18 -27t7 -40.5q0 -21 -10.5 -35.5t-28.5 -23t-42 -12.5t-51 -4q-41 0 -70 6t-55 17l17 46q22 -10 43.5 -15.5t43.5 -5.5q24 0 37.5 7t13.5 24q0 21 -11.5 28t-26.5 7q-13 0 -28 -6l-39 24l42 90h66z" />
    <glyph glyph-name="onesuperior" unicode="&#xb9;" horiz-adv-x="398" 
d="M163 570l-79 -48l-54 87l152 93h113v-420h-132v288z" />
    <glyph glyph-name="ordmasculine" unicode="&#xba;" horiz-adv-x="434" 
d="M17 545q0 39 15 69.5t42 52t63.5 32.5t79.5 11t79.5 -11t63.5 -32.5t42 -52t15 -69.5t-15 -69.5t-42 -52t-63.5 -32.5t-79.5 -11t-79.5 11t-63.5 32.5t-42 52t-15 69.5zM143 545q0 -31 17.5 -56t56.5 -25t56.5 25t17.5 56q0 30 -17.5 55.5t-56.5 25.5t-56.5 -25.5
t-17.5 -55.5z" />
    <glyph glyph-name="guillemotright" unicode="&#xbb;" 
d="M326 269l-119 -204h-148l110 204l-110 204h148zM564 269l-119 -204h-148l110 204l-110 204h148z" />
    <glyph glyph-name="onequarter" unicode="&#xbc;" horiz-adv-x="916" 
d="M596 720h109l-387 -742h-109zM163 572l-79 -48l-54 87l152 93h113v-420h-132v288zM714 71h-210v101l179 248h151v-259h60v-90h-60v-71h-120v71zM714 333h-2l-121 -172h123v172z" />
    <glyph glyph-name="onehalf" unicode="&#xbd;" horiz-adv-x="916" 
d="M588 720h109l-387 -742h-109zM155 570l-79 -48l-54 87l152 93h113v-420h-132v288zM556 90q32 22 66 48t62.5 52.5t47 52t18.5 45.5q0 22 -18 33t-43 11q-28 0 -59 -6t-57 -18l-5 96q36 11 76.5 17.5t90.5 6.5q31 0 60 -8t51 -23.5t35 -38.5t13 -53q0 -29 -12 -55
t-31.5 -50t-45 -47.5t-51.5 -46.5l-18 -16h150v-90h-330v90z" />
    <glyph glyph-name="threequarters" unicode="&#xbe;" horiz-adv-x="916" 
d="M596 720h109l-387 -742h-109zM43 692q32 9 64 13.5t76 4.5q32 0 64.5 -5t58 -18.5t41.5 -35.5t16 -57q0 -36 -23 -59t-62 -33v-2q42 -7 67 -31.5t25 -63.5t-18.5 -64.5t-47 -40t-64 -20.5t-70.5 -6q-45 0 -80.5 3t-61.5 11l6 104q23 -11 52 -16.5t58 -5.5q40 0 64 10.5
t24 30.5q0 23 -23.5 30.5t-55.5 7.5q-15 0 -27.5 -0.5t-23.5 -1.5v89q11 -2 25 -2.5t30 -0.5q33 0 50.5 12t17.5 32q0 11 -7.5 18t-18.5 11.5t-24 6t-25 1.5q-27 0 -54 -6t-47 -14zM714 71h-210v101l179 248h151v-259h60v-90h-60v-71h-120v71zM714 333h-2l-121 -172h123v172
z" />
    <glyph glyph-name="questiondown" unicode="&#xbf;" horiz-adv-x="556" 
d="M491 -160q-51 -16 -103.5 -22.5t-106.5 -6.5q-41 0 -84 8.5t-78 28.5t-57 52t-22 79q0 51 24 86.5t53.5 67.5t55.5 66.5t30 84.5h146q0 -48 -20 -83.5t-44.5 -65.5t-44.5 -58.5t-20 -61.5q0 -19 10.5 -32.5t26.5 -22.5t35.5 -13t37.5 -4q84 0 157 37zM360 359h-168v162
h168v-162z" />
    <glyph glyph-name="Agrave" unicode="&#xc0;" horiz-adv-x="778" 
d="M273 698h228l269 -698h-204l-52 149h-262l-55 -149h-189zM387 554h-2l-90 -273h175zM341 738l-132 108h199l68 -108h-135z" />
    <glyph glyph-name="Aacute" unicode="&#xc1;" horiz-adv-x="778" 
d="M273 698h228l269 -698h-204l-52 149h-262l-55 -149h-189zM387 554h-2l-90 -273h175zM376 846h199l-132 -108h-135z" />
    <glyph glyph-name="Acircumflex" unicode="&#xc2;" horiz-adv-x="778" 
d="M273 698h228l269 -698h-204l-52 149h-262l-55 -149h-189zM387 554h-2l-90 -273h175zM462 738l-76 53l-80 -53h-119l113 108h172l109 -108h-119z" />
    <glyph glyph-name="Atilde" unicode="&#xc3;" horiz-adv-x="778" 
d="M273 698h228l269 -698h-204l-52 149h-262l-55 -149h-189zM387 554h-2l-90 -273h175zM588 869q-3 -28 -12 -54t-25 -45t-38.5 -30.5t-53.5 -11.5q-19 0 -39 5.5t-39 12.5t-35.5 12.5t-28.5 5.5q-23 0 -33.5 -10t-15.5 -29h-72q3 26 12 51.5t24.5 45.5t38 32t52.5 12
q20 0 39.5 -5.5t38 -12.5t35.5 -12.5t30 -5.5q43 0 50 39h72z" />
    <glyph glyph-name="Adieresis" unicode="&#xc4;" horiz-adv-x="778" 
d="M273 698h228l269 -698h-204l-52 149h-262l-55 -149h-189zM387 554h-2l-90 -273h175zM428 879h144v-144h-144v144zM200 879h144v-144h-144v144z" />
    <glyph glyph-name="Aring" unicode="&#xc5;" horiz-adv-x="778" 
d="M273 698h228l269 -698h-204l-52 149h-262l-55 -149h-189zM387 554h-2l-90 -273h175zM291 797q0 20 7.5 37t20.5 30t30.5 20.5t36.5 7.5q40 0 67.5 -28t27.5 -67t-27.5 -67t-67.5 -28q-19 0 -36.5 7.5t-30.5 20.5t-20.5 30.5t-7.5 36.5zM345 797q0 -17 12 -29t29 -12
t29 12t12 29t-12 29t-29 12t-29 -12t-12 -29z" />
    <glyph glyph-name="AE" unicode="&#xc6;" horiz-adv-x="1000" 
d="M361 698h588v-132h-286v-144h268v-132h-268v-158h298v-132h-484v149h-213l-73 -149h-195zM477 566h-9l-139 -285h148v285z" />
    <glyph glyph-name="Ccedilla" unicode="&#xc7;" horiz-adv-x="667" 
d="M410 -65q11 2 21 3.5t27 1.5q14 0 28 -4.5t25 -15t18 -27t7 -40.5q0 -21 -10.5 -35.5t-28.5 -23t-42 -12.5t-51 -4q-41 0 -70 6t-55 17l17 46q22 -10 43.5 -15.5t43.5 -5.5q24 0 37.5 7t13.5 24q0 21 -11.5 28t-26.5 7q-13 0 -28 -6l-39 24l39 83q-62 8 -121 32
t-105.5 66.5t-74.5 105t-28 149.5q0 91 30 159.5t83.5 114t127 68t159.5 22.5q54 0 105 -10.5t102 -25.5l-15 -151q-45 25 -89.5 37t-92.5 12q-49 0 -89.5 -17t-69 -47t-44 -71.5t-15.5 -90.5q0 -51 17.5 -92t48 -69.5t73.5 -43.5t94 -15q46 0 91 10.5t83 25.5l9 -146
q-40 -10 -87.5 -19t-119.5 -9h-8z" />
    <glyph glyph-name="Egrave" unicode="&#xc8;" 
d="M60 698h492v-132h-306v-144h289v-132h-289v-158h317v-132h-503v698zM289 738l-132 108h199l68 -108h-135z" />
    <glyph glyph-name="Eacute" unicode="&#xc9;" 
d="M60 698h492v-132h-306v-144h289v-132h-289v-158h317v-132h-503v698zM299 846h199l-132 -108h-135z" />
    <glyph glyph-name="Ecircumflex" unicode="&#xca;" 
d="M60 698h492v-132h-306v-144h289v-132h-289v-158h317v-132h-503v698zM398 738l-76 53l-80 -53h-119l113 108h172l109 -108h-119z" />
    <glyph glyph-name="Edieresis" unicode="&#xcb;" 
d="M60 698h492v-132h-306v-144h289v-132h-289v-158h317v-132h-503v698zM348 879h144v-144h-144v144zM120 879h144v-144h-144v144z" />
    <glyph glyph-name="Igrave" unicode="&#xcc;" horiz-adv-x="334" 
d="M74 698h186v-698h-186v698zM113 738l-132 108h199l68 -108h-135z" />
    <glyph glyph-name="Iacute" unicode="&#xcd;" horiz-adv-x="334" 
d="M74 698h186v-698h-186v698zM155 846h199l-132 -108h-135z" />
    <glyph glyph-name="Icircumflex" unicode="&#xce;" horiz-adv-x="334" 
d="M74 698h186v-698h-186v698zM248 738l-76 53l-80 -53h-119l113 108h172l109 -108h-119z" />
    <glyph glyph-name="Idieresis" unicode="&#xcf;" horiz-adv-x="334" 
d="M74 698h186v-698h-186v698zM210 879h144v-144h-144v144zM-18 879h144v-144h-144v144z" />
    <glyph glyph-name="Eth" unicode="&#xd0;" horiz-adv-x="778" 
d="M251 414h167v-102h-167v-174h72q105 0 161 53t56 158t-57 158t-160 53h-72v-146zM65 312h-67v102h67v284h254q91 0 167 -16t130.5 -55.5t85 -106.5t30.5 -168q0 -98 -31 -165t-86 -108.5t-131 -60t-165 -18.5h-254v312z" />
    <glyph glyph-name="Ntilde" unicode="&#xd1;" horiz-adv-x="778" 
d="M68 698h237l236 -474h2l-3 474h170v-698h-231l-244 477h-2l6 -477h-171v698zM586 869q-3 -28 -12 -54t-25 -45t-38.5 -30.5t-53.5 -11.5q-19 0 -39 5.5t-39 12.5t-35.5 12.5t-28.5 5.5q-23 0 -33.5 -10t-15.5 -29h-72q3 26 12 51.5t24.5 45.5t38 32t52.5 12
q20 0 39.5 -5.5t38 -12.5t35.5 -12.5t30 -5.5q43 0 50 39h72z" />
    <glyph glyph-name="Ograve" unicode="&#xd2;" horiz-adv-x="778" 
d="M39 349q0 84 22.5 151t66.5 113.5t109.5 71.5t151.5 25t151.5 -25t109.5 -71.5t66.5 -113.5t22.5 -151q0 -83 -22.5 -150t-67 -114t-109.5 -72t-151 -25q-85 0 -150.5 25t-110 72t-67 114t-22.5 150zM231 349q0 -43 9 -83.5t28 -71.5t49 -49.5t72 -18.5t72 18.5t49 49.5
t28 71.5t9 83.5q0 45 -9 85.5t-28 71t-49 48.5t-72 18t-72 -18t-49 -48.5t-28 -71t-9 -85.5zM355 738l-132 108h199l68 -108h-135z" />
    <glyph glyph-name="Oacute" unicode="&#xd3;" horiz-adv-x="778" 
d="M39 349q0 84 22.5 151t66.5 113.5t109.5 71.5t151.5 25t151.5 -25t109.5 -71.5t66.5 -113.5t22.5 -151q0 -83 -22.5 -150t-67 -114t-109.5 -72t-151 -25q-85 0 -150.5 25t-110 72t-67 114t-22.5 150zM231 349q0 -43 9 -83.5t28 -71.5t49 -49.5t72 -18.5t72 18.5t49 49.5
t28 71.5t9 83.5q0 45 -9 85.5t-28 71t-49 48.5t-72 18t-72 -18t-49 -48.5t-28 -71t-9 -85.5zM377 846h199l-132 -108h-135z" />
    <glyph glyph-name="Ocircumflex" unicode="&#xd4;" horiz-adv-x="778" 
d="M39 349q0 84 22.5 151t66.5 113.5t109.5 71.5t151.5 25t151.5 -25t109.5 -71.5t66.5 -113.5t22.5 -151q0 -83 -22.5 -150t-67 -114t-109.5 -72t-151 -25q-85 0 -150.5 25t-110 72t-67 114t-22.5 150zM231 349q0 -43 9 -83.5t28 -71.5t49 -49.5t72 -18.5t72 18.5t49 49.5
t28 71.5t9 83.5q0 45 -9 85.5t-28 71t-49 48.5t-72 18t-72 -18t-49 -48.5t-28 -71t-9 -85.5zM465 738l-76 53l-80 -53h-119l113 108h172l109 -108h-119z" />
    <glyph glyph-name="Otilde" unicode="&#xd5;" horiz-adv-x="778" 
d="M39 349q0 84 22.5 151t66.5 113.5t109.5 71.5t151.5 25t151.5 -25t109.5 -71.5t66.5 -113.5t22.5 -151q0 -83 -22.5 -150t-67 -114t-109.5 -72t-151 -25q-85 0 -150.5 25t-110 72t-67 114t-22.5 150zM231 349q0 -43 9 -83.5t28 -71.5t49 -49.5t72 -18.5t72 18.5t49 49.5
t28 71.5t9 83.5q0 45 -9 85.5t-28 71t-49 48.5t-72 18t-72 -18t-49 -48.5t-28 -71t-9 -85.5zM586 869q-3 -28 -12 -54t-25 -45t-38.5 -30.5t-53.5 -11.5q-19 0 -39 5.5t-39 12.5t-35.5 12.5t-28.5 5.5q-23 0 -33.5 -10t-15.5 -29h-72q3 26 12 51.5t24.5 45.5t38 32t52.5 12
q20 0 39.5 -5.5t38 -12.5t35.5 -12.5t30 -5.5q43 0 50 39h72z" />
    <glyph glyph-name="Odieresis" unicode="&#xd6;" horiz-adv-x="778" 
d="M39 349q0 84 22.5 151t66.5 113.5t109.5 71.5t151.5 25t151.5 -25t109.5 -71.5t66.5 -113.5t22.5 -151q0 -83 -22.5 -150t-67 -114t-109.5 -72t-151 -25q-85 0 -150.5 25t-110 72t-67 114t-22.5 150zM231 349q0 -43 9 -83.5t28 -71.5t49 -49.5t72 -18.5t72 18.5t49 49.5
t28 71.5t9 83.5q0 45 -9 85.5t-28 71t-49 48.5t-72 18t-72 -18t-49 -48.5t-28 -71t-9 -85.5zM432 879h144v-144h-144v144zM204 879h144v-144h-144v144z" />
    <glyph glyph-name="multiply" unicode="&#xd7;" horiz-adv-x="600" 
d="M62 405l86 86l152 -152l152 152l86 -86l-153 -152l153 -152l-86 -86l-152 153l-152 -153l-86 86l152 152z" />
    <glyph glyph-name="Oslash" unicode="&#xd8;" horiz-adv-x="778" 
d="M492 529q-19 20 -44.5 31.5t-58.5 11.5q-42 0 -72 -18t-49 -48.5t-28 -71t-9 -85.5q0 -23 2.5 -46t8.5 -43zM282 175q18 -23 44.5 -36t62.5 -13q42 0 72 18.5t49 49.5t28 71.5t9 83.5q0 55 -12 98zM106 114q-67 90 -67 235q0 84 22.5 151t66.5 113.5t109.5 71.5t151.5 25
q67 0 120.5 -15t95.5 -44l84 91l64 -60l-84 -91q70 -93 70 -242q0 -83 -22.5 -150t-67 -114t-109.5 -72t-151 -25q-137 0 -222 64l-88 -95l-64 60z" />
    <glyph glyph-name="Ugrave" unicode="&#xd9;" horiz-adv-x="722" 
d="M667 265q0 -72 -22 -124t-62.5 -86t-97 -50.5t-124.5 -16.5t-124.5 16.5t-97 50.5t-62.5 86t-22 124v433h186v-402q0 -34 5.5 -65t19 -54.5t36.5 -37t59 -13.5t59 13.5t36.5 37t19 54.5t5.5 65v402h186v-433zM326 738l-132 108h199l68 -108h-135z" />
    <glyph glyph-name="Uacute" unicode="&#xda;" horiz-adv-x="722" 
d="M667 265q0 -72 -22 -124t-62.5 -86t-97 -50.5t-124.5 -16.5t-124.5 16.5t-97 50.5t-62.5 86t-22 124v433h186v-402q0 -34 5.5 -65t19 -54.5t36.5 -37t59 -13.5t59 13.5t36.5 37t19 54.5t5.5 65v402h186v-433zM351 846h199l-132 -108h-135z" />
    <glyph glyph-name="Ucircumflex" unicode="&#xdb;" horiz-adv-x="722" 
d="M667 265q0 -72 -22 -124t-62.5 -86t-97 -50.5t-124.5 -16.5t-124.5 16.5t-97 50.5t-62.5 86t-22 124v433h186v-402q0 -34 5.5 -65t19 -54.5t36.5 -37t59 -13.5t59 13.5t36.5 37t19 54.5t5.5 65v402h186v-433zM437 738l-76 53l-80 -53h-119l113 108h172l109 -108h-119z
" />
    <glyph glyph-name="Udieresis" unicode="&#xdc;" horiz-adv-x="722" 
d="M667 265q0 -72 -22 -124t-62.5 -86t-97 -50.5t-124.5 -16.5t-124.5 16.5t-97 50.5t-62.5 86t-22 124v433h186v-402q0 -34 5.5 -65t19 -54.5t36.5 -37t59 -13.5t59 13.5t36.5 37t19 54.5t5.5 65v402h186v-433zM404 879h144v-144h-144v144zM176 879h144v-144h-144v144z" />
    <glyph glyph-name="Yacute" unicode="&#xdd;" horiz-adv-x="722" 
d="M269 263l-258 435h214l137 -280l135 280h214l-256 -435v-263h-186v263zM349 846h199l-132 -108h-135z" />
    <glyph glyph-name="Thorn" unicode="&#xde;" 
d="M55 698h186v-87h36q80 0 139 -12t97.5 -39.5t57.5 -71t19 -106.5q0 -115 -73 -170t-204 -55h-72v-157h-186v698zM241 289h48q24 0 45 4.5t36.5 16t24.5 30t9 45.5t-9 45t-24.5 29t-36.5 15.5t-45 4.5h-48v-190z" />
    <glyph glyph-name="germandbls" unicode="&#xdf;" horiz-adv-x="667" 
d="M56 494q0 84 26.5 136.5t68 82t91.5 39.5t98 10t95 -10t84 -34t59.5 -63.5t22.5 -98.5q0 -69 -31 -108t-94 -61v-2q82 -13 117 -58.5t35 -115.5q0 -64 -22.5 -106t-59 -67t-82.5 -34.5t-92 -9.5q-29 0 -50.5 2t-38.5 4l5 131q15 -2 31.5 -3.5t33.5 -1.5q19 0 36.5 5
t30.5 17t20.5 31.5t7.5 49.5q0 48 -26.5 73t-64.5 25h-25t-24 -2v128h25q38 0 63 26.5t25 68.5q0 47 -22.5 70.5t-63.5 23.5q-28 0 -47.5 -11.5t-30.5 -30t-16 -43t-5 -50.5v-507h-180v494z" />
    <glyph glyph-name="agrave" unicode="&#xe0;" 
d="M397 0q-1 21 -2.5 41.5t-1.5 40.5h-2q-31 -49 -70 -71.5t-95 -22.5q-39 0 -74 9.5t-62 30t-43 51.5t-16 73q0 60 28.5 95t70 53.5t88 24t82.5 5.5q22 0 44.5 -2t39.5 -5q0 27 -9.5 44t-26 27.5t-38 14.5t-45.5 4q-44 0 -86 -9t-80 -30l-3 122q48 20 99 28.5t109 8.5
q50 0 95 -11.5t79 -37t54 -66.5t20 -101v-194q0 -31 2 -61.5t8 -61.5h-165zM199 165q0 -27 21 -42t53 -15q26 0 46.5 10.5t34.5 28t22 39.5t8 45q-17 1 -36.5 2t-39.5 1q-46 0 -77.5 -15.5t-31.5 -53.5zM271 585l-129 144h187l68 -144h-126z" />
    <glyph glyph-name="aacute" unicode="&#xe1;" 
d="M397 0q-1 21 -2.5 41.5t-1.5 40.5h-2q-31 -49 -70 -71.5t-95 -22.5q-39 0 -74 9.5t-62 30t-43 51.5t-16 73q0 60 28.5 95t70 53.5t88 24t82.5 5.5q22 0 44.5 -2t39.5 -5q0 27 -9.5 44t-26 27.5t-38 14.5t-45.5 4q-44 0 -86 -9t-80 -30l-3 122q48 20 99 28.5t109 8.5
q50 0 95 -11.5t79 -37t54 -66.5t20 -101v-194q0 -31 2 -61.5t8 -61.5h-165zM199 165q0 -27 21 -42t53 -15q26 0 46.5 10.5t34.5 28t22 39.5t8 45q-17 1 -36.5 2t-39.5 1q-46 0 -77.5 -15.5t-31.5 -53.5zM299 729h187l-129 -144h-126z" />
    <glyph glyph-name="acircumflex" unicode="&#xe2;" 
d="M397 0q-1 21 -2.5 41.5t-1.5 40.5h-2q-31 -49 -70 -71.5t-95 -22.5q-39 0 -74 9.5t-62 30t-43 51.5t-16 73q0 60 28.5 95t70 53.5t88 24t82.5 5.5q22 0 44.5 -2t39.5 -5q0 27 -9.5 44t-26 27.5t-38 14.5t-45.5 4q-44 0 -86 -9t-80 -30l-3 122q48 20 99 28.5t109 8.5
q50 0 95 -11.5t79 -37t54 -66.5t20 -101v-194q0 -31 2 -61.5t8 -61.5h-165zM199 165q0 -27 21 -42t53 -15q26 0 46.5 10.5t34.5 28t22 39.5t8 45q-17 1 -36.5 2t-39.5 1q-46 0 -77.5 -15.5t-31.5 -53.5zM389 585l-76 78l-80 -78h-114l113 144h162l109 -144h-114z" />
    <glyph glyph-name="atilde" unicode="&#xe3;" 
d="M397 0q-1 21 -2.5 41.5t-1.5 40.5h-2q-31 -49 -70 -71.5t-95 -22.5q-39 0 -74 9.5t-62 30t-43 51.5t-16 73q0 60 28.5 95t70 53.5t88 24t82.5 5.5q22 0 44.5 -2t39.5 -5q0 27 -9.5 44t-26 27.5t-38 14.5t-45.5 4q-44 0 -86 -9t-80 -30l-3 122q48 20 99 28.5t109 8.5
q50 0 95 -11.5t79 -37t54 -66.5t20 -101v-194q0 -31 2 -61.5t8 -61.5h-165zM199 165q0 -27 21 -42t53 -15q26 0 46.5 10.5t34.5 28t22 39.5t8 45q-17 1 -36.5 2t-39.5 1q-46 0 -77.5 -15.5t-31.5 -53.5zM502 729q-3 -28 -12 -54t-25 -45t-38.5 -30.5t-53.5 -11.5
q-19 0 -39 5.5t-39 12.5t-35.5 12.5t-28.5 5.5q-23 0 -33.5 -10t-15.5 -29h-72q3 26 12 51.5t24.5 45.5t38 32t52.5 12q20 0 39.5 -5.5t38 -12.5t35.5 -12.5t30 -5.5q43 0 50 39h72z" />
    <glyph glyph-name="adieresis" unicode="&#xe4;" 
d="M397 0q-1 21 -2.5 41.5t-1.5 40.5h-2q-31 -49 -70 -71.5t-95 -22.5q-39 0 -74 9.5t-62 30t-43 51.5t-16 73q0 60 28.5 95t70 53.5t88 24t82.5 5.5q22 0 44.5 -2t39.5 -5q0 27 -9.5 44t-26 27.5t-38 14.5t-45.5 4q-44 0 -86 -9t-80 -30l-3 122q48 20 99 28.5t109 8.5
q50 0 95 -11.5t79 -37t54 -66.5t20 -101v-194q0 -31 2 -61.5t8 -61.5h-165zM199 165q0 -27 21 -42t53 -15q26 0 46.5 10.5t34.5 28t22 39.5t8 45q-17 1 -36.5 2t-39.5 1q-46 0 -77.5 -15.5t-31.5 -53.5zM348 729h144v-144h-144v144zM120 729h144v-144h-144v144z" />
    <glyph glyph-name="aring" unicode="&#xe5;" 
d="M397 0q-1 21 -2.5 41.5t-1.5 40.5h-2q-31 -49 -70 -71.5t-95 -22.5q-39 0 -74 9.5t-62 30t-43 51.5t-16 73q0 60 28.5 95t70 53.5t88 24t82.5 5.5q22 0 44.5 -2t39.5 -5q0 27 -9.5 44t-26 27.5t-38 14.5t-45.5 4q-44 0 -86 -9t-80 -30l-3 122q48 20 99 28.5t109 8.5
q50 0 95 -11.5t79 -37t54 -66.5t20 -101v-194q0 -31 2 -61.5t8 -61.5h-165zM199 165q0 -27 21 -42t53 -15q26 0 46.5 10.5t34.5 28t22 39.5t8 45q-17 1 -36.5 2t-39.5 1q-46 0 -77.5 -15.5t-31.5 -53.5zM200 662q0 23 9 43.5t24 35.5t35.5 24t43.5 9t43.5 -9t35.5 -24
t24 -35.5t9 -43.5t-9 -43.5t-24 -35.5t-35.5 -24t-43.5 -9t-43.5 9t-35.5 24t-24 35.5t-9 43.5zM264 662q0 -20 14 -34t34 -14t34 14t14 34t-14 34t-34 14t-34 -14t-14 -34z" />
    <glyph glyph-name="ae" unicode="&#xe6;" horiz-adv-x="944" 
d="M869 21q-44 -17 -92 -25t-99 -8q-33 0 -66.5 4t-64.5 16.5t-58 35.5t-48 61q-38 -69 -95.5 -93t-128.5 -24q-39 0 -74 10t-62 30t-43 51t-16 74q0 59 28.5 94t70 53.5t88 24t82.5 5.5q22 0 44.5 -1.5t39.5 -3.5q0 26 -9.5 43t-26 27t-38 14t-45.5 4q-44 0 -86 -9t-80 -30
l-3 123q48 19 99 27.5t109 8.5q53 -2 99.5 -16t75.5 -48q35 28 80.5 46t103.5 18q72 0 122.5 -24t81.5 -64t45 -93t14 -111v-33h-360q8 -54 47.5 -77t105.5 -23q37 0 77.5 9t81.5 31v-127zM190 166q0 -28 21 -43t53 -15q26 0 46.5 11t34.5 29t22 40.5t8 45.5h-69
q-51 0 -83.5 -15t-32.5 -53zM755 310q0 45 -23 77t-77 32q-49 0 -73 -32t-27 -77h200z" />
    <glyph glyph-name="ccedilla" unicode="&#xe7;" horiz-adv-x="500" 
d="M312 -65q11 2 21 3.5t27 1.5q14 0 28 -4.5t25 -15t18 -27t7 -40.5q0 -21 -10.5 -35.5t-28.5 -23t-42 -12.5t-51 -4q-41 0 -70 6t-55 17l17 46q22 -10 43.5 -15.5t43.5 -5.5q24 0 37.5 7t13.5 24q0 21 -11.5 28t-26.5 7q-13 0 -28 -6l-39 24l39 83q-52 8 -96 30
t-75.5 55.5t-49.5 79.5t-18 102q0 65 23 115.5t64 85.5t96.5 53.5t119.5 18.5q84 0 143 -29l-13 -132q-25 15 -51 22t-58 7q-29 0 -54.5 -10t-44 -28.5t-29 -45t-10.5 -60.5q0 -31 12 -56.5t32.5 -43.5t47.5 -27.5t56 -9.5q31 0 60 6.5t52 18.5l4 -134q-34 -11 -72.5 -17
t-74.5 -6z" />
    <glyph glyph-name="egrave" unicode="&#xe8;" 
d="M213 208q8 -54 47.5 -77t105.5 -23q37 0 77.5 9t81.5 31v-127q-44 -17 -92 -25t-99 -8q-64 0 -119.5 18.5t-96.5 53.5t-64 86t-23 115q0 65 21 115.5t58 85t88 53t112 18.5q72 0 122.5 -24t81.5 -64t45 -93t14 -111v-33h-360zM411 310q0 45 -23 77t-77 32q-49 0 -73 -32
t-27 -77h200zM284 585l-129 144h187l68 -144h-126z" />
    <glyph glyph-name="eacute" unicode="&#xe9;" 
d="M213 208q8 -54 47.5 -77t105.5 -23q37 0 77.5 9t81.5 31v-127q-44 -17 -92 -25t-99 -8q-64 0 -119.5 18.5t-96.5 53.5t-64 86t-23 115q0 65 21 115.5t58 85t88 53t112 18.5q72 0 122.5 -24t81.5 -64t45 -93t14 -111v-33h-360zM411 310q0 45 -23 77t-77 32q-49 0 -73 -32
t-27 -77h200zM301 729h187l-129 -144h-126z" />
    <glyph glyph-name="ecircumflex" unicode="&#xea;" 
d="M213 208q8 -54 47.5 -77t105.5 -23q37 0 77.5 9t81.5 31v-127q-44 -17 -92 -25t-99 -8q-64 0 -119.5 18.5t-96.5 53.5t-64 86t-23 115q0 65 21 115.5t58 85t88 53t112 18.5q72 0 122.5 -24t81.5 -64t45 -93t14 -111v-33h-360zM411 310q0 45 -23 77t-77 32q-49 0 -73 -32
t-27 -77h200zM392 585l-76 78l-80 -78h-114l113 144h162l109 -144h-114z" />
    <glyph glyph-name="edieresis" unicode="&#xeb;" 
d="M213 208q8 -54 47.5 -77t105.5 -23q37 0 77.5 9t81.5 31v-127q-44 -17 -92 -25t-99 -8q-64 0 -119.5 18.5t-96.5 53.5t-64 86t-23 115q0 65 21 115.5t58 85t88 53t112 18.5q72 0 122.5 -24t81.5 -64t45 -93t14 -111v-33h-360zM411 310q0 45 -23 77t-77 32q-49 0 -73 -32
t-27 -77h200zM348 729h144v-144h-144v144zM120 729h144v-144h-144v144z" />
    <glyph glyph-name="igrave" unicode="&#xec;" horiz-adv-x="334" 
d="M77 521h180v-521h-180v521zM133 585l-129 144h187l68 -144h-126z" />
    <glyph glyph-name="iacute" unicode="&#xed;" horiz-adv-x="334" 
d="M77 521h180v-521h-180v521zM156 729h187l-129 -144h-126z" />
    <glyph glyph-name="icircumflex" unicode="&#xee;" horiz-adv-x="334" 
d="M77 521h180v-521h-180v521zM245 585l-76 78l-80 -78h-114l113 144h162l109 -144h-114z" />
    <glyph glyph-name="idieresis" unicode="&#xef;" horiz-adv-x="334" 
d="M77 521h180v-521h-180v521zM210 729h144v-144h-144v144zM-18 729h144v-144h-144v144z" />
    <glyph glyph-name="eth" unicode="&#xf0;" horiz-adv-x="668" 
d="M217 249q0 -25 6 -49t19.5 -43t35 -31t52.5 -12q33 0 56 12t37.5 31t21 43.5t6.5 49.5t-6.5 48.5t-21 42t-37.5 29.5t-56 11q-31 0 -52.5 -11t-35 -29.5t-19.5 -42.5t-6 -49zM188 643q-23 10 -46 18t-43 16l104 109q84 -29 155 -66l146 66l62 -64l-120 -54
q43 -30 78.5 -67t60.5 -82t38.5 -98.5t13.5 -118.5q0 -72 -20.5 -130.5t-60.5 -99t-97.5 -62.5t-132.5 -22q-139 0 -217 64t-78 197q0 53 18 99.5t50.5 82t77.5 56t98 20.5q24 0 48.5 -4t46 -13.5t38.5 -25t27 -38.5l2 2q-17 55 -58.5 95.5t-93.5 71.5l-144 -66l-60 65z" />
    <glyph glyph-name="ntilde" unicode="&#xf1;" horiz-adv-x="667" 
d="M56 521h164v-96h2q27 57 77.5 82.5t112.5 25.5q53 0 91 -17.5t62 -46t35 -66t11 -78.5v-325h-180v252q0 74 -23 102.5t-60 28.5q-56 0 -84 -39t-28 -124v-220h-180v521zM537 729q-3 -28 -12 -54t-25 -45t-38.5 -30.5t-53.5 -11.5q-19 0 -39 5.5t-39 12.5t-35.5 12.5
t-28.5 5.5q-23 0 -33.5 -10t-15.5 -29h-72q3 26 12 51.5t24.5 45.5t38 32t52.5 12q20 0 39.5 -5.5t38 -12.5t35.5 -12.5t30 -5.5q43 0 50 39h72z" />
    <glyph glyph-name="ograve" unicode="&#xf2;" horiz-adv-x="668" 
d="M334 -12q-64 0 -119.5 18.5t-96.5 53t-64 85.5t-23 115q0 65 23 115.5t64 85.5t96.5 53.5t119.5 18.5q65 0 120 -18.5t96 -53.5t64 -85.5t23 -115.5q0 -64 -23 -115t-64 -85.5t-96 -53t-120 -18.5zM334 114q31 0 53 12t36.5 32t21 46.5t6.5 55.5t-6.5 56t-21 47t-36.5 32
t-53 12t-53 -12t-36.5 -32t-21 -47t-6.5 -56t6.5 -55.5t21 -46.5t36.5 -32t53 -12zM306 585l-129 144h187l68 -144h-126z" />
    <glyph glyph-name="oacute" unicode="&#xf3;" horiz-adv-x="668" 
d="M334 -12q-64 0 -119.5 18.5t-96.5 53t-64 85.5t-23 115q0 65 23 115.5t64 85.5t96.5 53.5t119.5 18.5q65 0 120 -18.5t96 -53.5t64 -85.5t23 -115.5q0 -64 -23 -115t-64 -85.5t-96 -53t-120 -18.5zM334 114q31 0 53 12t36.5 32t21 46.5t6.5 55.5t-6.5 56t-21 47t-36.5 32
t-53 12t-53 -12t-36.5 -32t-21 -47t-6.5 -56t6.5 -55.5t21 -46.5t36.5 -32t53 -12zM322 729h187l-129 -144h-126z" />
    <glyph glyph-name="ocircumflex" unicode="&#xf4;" horiz-adv-x="668" 
d="M334 -12q-64 0 -119.5 18.5t-96.5 53t-64 85.5t-23 115q0 65 23 115.5t64 85.5t96.5 53.5t119.5 18.5q65 0 120 -18.5t96 -53.5t64 -85.5t23 -115.5q0 -64 -23 -115t-64 -85.5t-96 -53t-120 -18.5zM334 114q31 0 53 12t36.5 32t21 46.5t6.5 55.5t-6.5 56t-21 47t-36.5 32
t-53 12t-53 -12t-36.5 -32t-21 -47t-6.5 -56t6.5 -55.5t21 -46.5t36.5 -32t53 -12zM409 585l-76 78l-80 -78h-114l113 144h162l109 -144h-114z" />
    <glyph glyph-name="otilde" unicode="&#xf5;" horiz-adv-x="668" 
d="M334 -12q-64 0 -119.5 18.5t-96.5 53t-64 85.5t-23 115q0 65 23 115.5t64 85.5t96.5 53.5t119.5 18.5q65 0 120 -18.5t96 -53.5t64 -85.5t23 -115.5q0 -64 -23 -115t-64 -85.5t-96 -53t-120 -18.5zM334 114q31 0 53 12t36.5 32t21 46.5t6.5 55.5t-6.5 56t-21 47t-36.5 32
t-53 12t-53 -12t-36.5 -32t-21 -47t-6.5 -56t6.5 -55.5t21 -46.5t36.5 -32t53 -12zM531 729q-3 -28 -12 -54t-25 -45t-38.5 -30.5t-53.5 -11.5q-19 0 -39 5.5t-39 12.5t-35.5 12.5t-28.5 5.5q-23 0 -33.5 -10t-15.5 -29h-72q3 26 12 51.5t24.5 45.5t38 32t52.5 12
q20 0 39.5 -5.5t38 -12.5t35.5 -12.5t30 -5.5q43 0 50 39h72z" />
    <glyph glyph-name="odieresis" unicode="&#xf6;" horiz-adv-x="668" 
d="M334 -12q-64 0 -119.5 18.5t-96.5 53t-64 85.5t-23 115q0 65 23 115.5t64 85.5t96.5 53.5t119.5 18.5q65 0 120 -18.5t96 -53.5t64 -85.5t23 -115.5q0 -64 -23 -115t-64 -85.5t-96 -53t-120 -18.5zM334 114q31 0 53 12t36.5 32t21 46.5t6.5 55.5t-6.5 56t-21 47t-36.5 32
t-53 12t-53 -12t-36.5 -32t-21 -47t-6.5 -56t6.5 -55.5t21 -46.5t36.5 -32t53 -12zM377 729h144v-144h-144v144zM149 729h144v-144h-144v144z" />
    <glyph glyph-name="divide" unicode="&#xf7;" horiz-adv-x="600" 
d="M47 316h506v-126h-506v126zM206 461q0 38 27.5 65.5t65.5 27.5t65.5 -27.5t27.5 -65.5t-27.5 -65.5t-65.5 -27.5t-65.5 27.5t-27.5 65.5zM206 45q0 38 27.5 65.5t65.5 27.5t65.5 -27.5t27.5 -65.5t-27.5 -65.5t-65.5 -27.5t-65.5 27.5t-27.5 65.5z" />
    <glyph glyph-name="oslash" unicode="&#xf8;" horiz-adv-x="668" 
d="M270 133q25 -19 64 -19q31 0 53 12t36.5 32t21 46.5t6.5 55.5t-6 54zM399 388q-27 19 -65 19q-31 0 -53 -12t-36.5 -32t-21 -47t-6.5 -56t6 -55zM100 77q-32 34 -50.5 80t-18.5 103q0 65 23 115.5t64 85.5t96.5 53.5t119.5 18.5q47 0 89.5 -9.5t77.5 -29.5l75 78l61 -58
l-68 -71q32 -35 50 -80.5t18 -102.5q0 -64 -23 -115t-64 -85.5t-96 -53t-120 -18.5q-94 0 -166 39l-75 -78l-61 58z" />
    <glyph glyph-name="ugrave" unicode="&#xf9;" horiz-adv-x="667" 
d="M611 0h-164v96h-2q-27 -57 -77.5 -82.5t-112.5 -25.5q-53 0 -91 17.5t-62 46t-35 66.5t-11 78v325h180v-252q0 -73 23 -102t60 -29q56 0 84 39t28 124v220h180v-521zM305 585l-129 144h187l68 -144h-126z" />
    <glyph glyph-name="uacute" unicode="&#xfa;" horiz-adv-x="667" 
d="M611 0h-164v96h-2q-27 -57 -77.5 -82.5t-112.5 -25.5q-53 0 -91 17.5t-62 46t-35 66.5t-11 78v325h180v-252q0 -73 23 -102t60 -29q56 0 84 39t28 124v220h180v-521zM329 729h187l-129 -144h-126z" />
    <glyph glyph-name="ucircumflex" unicode="&#xfb;" horiz-adv-x="667" 
d="M611 0h-164v96h-2q-27 -57 -77.5 -82.5t-112.5 -25.5q-53 0 -91 17.5t-62 46t-35 66.5t-11 78v325h180v-252q0 -73 23 -102t60 -29q56 0 84 39t28 124v220h180v-521zM411 585l-76 78l-80 -78h-114l113 144h162l109 -144h-114z" />
    <glyph glyph-name="udieresis" unicode="&#xfc;" horiz-adv-x="667" 
d="M611 0h-164v96h-2q-27 -57 -77.5 -82.5t-112.5 -25.5q-53 0 -91 17.5t-62 46t-35 66.5t-11 78v325h180v-252q0 -73 23 -102t60 -29q56 0 84 39t28 124v220h180v-521zM376 729h144v-144h-144v144zM148 729h144v-144h-144v144z" />
    <glyph glyph-name="yacute" unicode="&#xfd;" 
d="M57 -73q18 -6 35 -8.5t36 -2.5q33 0 57 18.5t34 53.5l-211 533h194l112 -340h2l107 340h180l-191 -485q-19 -49 -38 -95.5t-46.5 -82.5t-68 -58t-102.5 -22q-56 0 -112 12zM308 729h187l-129 -144h-126z" />
    <glyph glyph-name="thorn" unicode="&#xfe;" horiz-adv-x="668" 
d="M52 750h181v-296h2q35 44 80 61.5t99 17.5t95.5 -23.5t70 -61t43 -84.5t14.5 -94q0 -58 -15.5 -109t-45.5 -89.5t-74.5 -61t-102.5 -22.5q-48 0 -93.5 19t-71.5 66h-2v-283h-180v960zM451 266q0 26 -7 49.5t-21 41t-34.5 28t-46.5 10.5q-50 0 -80 -38.5t-30 -97.5
q0 -28 9 -52.5t24 -42.5t35 -28t42 -10q51 0 80 38.5t29 101.5z" />
    <glyph glyph-name="ydieresis" unicode="&#xff;" 
d="M57 -73q18 -6 35 -8.5t36 -2.5q33 0 57 18.5t34 53.5l-211 533h194l112 -340h2l107 340h180l-191 -485q-19 -49 -38 -95.5t-46.5 -82.5t-68 -58t-102.5 -22q-56 0 -112 12zM348 729h144v-144h-144v144zM120 729h144v-144h-144v144z" />
    <glyph glyph-name="Amacron" unicode="&#x100;" horiz-adv-x="778" 
d="M273 698h228l269 -698h-204l-52 149h-262l-55 -149h-189zM387 554h-2l-90 -273h175zM199 845h375v-84h-375v84z" />
    <glyph glyph-name="amacron" unicode="&#x101;" 
d="M397 0q-1 21 -2.5 41.5t-1.5 40.5h-2q-31 -49 -70 -71.5t-95 -22.5q-39 0 -74 9.5t-62 30t-43 51.5t-16 73q0 60 28.5 95t70 53.5t88 24t82.5 5.5q22 0 44.5 -2t39.5 -5q0 27 -9.5 44t-26 27.5t-38 14.5t-45.5 4q-44 0 -86 -9t-80 -30l-3 122q48 20 99 28.5t109 8.5
q50 0 95 -11.5t79 -37t54 -66.5t20 -101v-194q0 -31 2 -61.5t8 -61.5h-165zM199 165q0 -27 21 -42t53 -15q26 0 46.5 10.5t34.5 28t22 39.5t8 45q-17 1 -36.5 2t-39.5 1q-46 0 -77.5 -15.5t-31.5 -53.5zM134 707h375v-84h-375v84z" />
    <glyph glyph-name="Abreve" unicode="&#x102;" horiz-adv-x="778" 
d="M273 698h228l269 -698h-204l-52 149h-262l-55 -149h-189zM387 554h-2l-90 -273h175zM268 846q3 -16 14.5 -25t28 -13t36 -5t39.5 -1t39.5 1t36 5t28 13t14.5 25h75q-8 -55 -54.5 -88t-138.5 -33t-138.5 33t-54.5 88h75z" />
    <glyph glyph-name="abreve" unicode="&#x103;" 
d="M397 0q-1 21 -2.5 41.5t-1.5 40.5h-2q-31 -49 -70 -71.5t-95 -22.5q-39 0 -74 9.5t-62 30t-43 51.5t-16 73q0 60 28.5 95t70 53.5t88 24t82.5 5.5q22 0 44.5 -2t39.5 -5q0 27 -9.5 44t-26 27.5t-38 14.5t-45.5 4q-44 0 -86 -9t-80 -30l-3 122q48 20 99 28.5t109 8.5
q50 0 95 -11.5t79 -37t54 -66.5t20 -101v-194q0 -31 2 -61.5t8 -61.5h-165zM199 165q0 -27 21 -42t53 -15q26 0 46.5 10.5t34.5 28t22 39.5t8 45q-17 1 -36.5 2t-39.5 1q-46 0 -77.5 -15.5t-31.5 -53.5zM210 729q10 -42 42 -57.5t71 -15.5t71 15.5t42 57.5h76
q-8 -72 -53.5 -114.5t-135.5 -42.5t-135.5 42.5t-53.5 114.5h76z" />
    <glyph glyph-name="Aogonek" unicode="&#x104;" horiz-adv-x="778" 
d="M387 554h-2l-90 -273h175zM760 0q-22 0 -45 -12t-32 -21q-19 -18 -28 -37t-9 -36q0 -24 16.5 -37t39.5 -13q18 0 34 2.5t33 10.5v-67q-15 -5 -26.5 -7t-23.5 -3.5t-26 -1.5h-33q-62 0 -100 25t-38 73q0 22 8 41.5t20.5 35t28.5 27.5t32 20h-45l-52 149h-262l-55 -149
h-189l265 698h228l269 -698h-10z" />
    <glyph glyph-name="aogonek" unicode="&#x105;" 
d="M199 165q0 -27 21 -42t53 -15q26 0 46.5 10.5t34.5 28t22 39.5t8 45q-17 1 -36.5 2t-39.5 1q-46 0 -77.5 -15.5t-31.5 -53.5zM548 0q-22 0 -45 -12t-32 -21q-19 -18 -28 -37t-9 -36q0 -24 16.5 -37t39.5 -13q18 0 34 2.5t33 10.5v-67q-15 -5 -26.5 -7t-23.5 -3.5
t-26 -1.5h-33q-62 0 -100 25t-38 73q0 22 8 41.5t20.5 35t28.5 27.5t32 20h-2q-1 21 -2.5 41.5t-1.5 40.5h-2q-31 -49 -70 -71.5t-95 -22.5q-39 0 -74 9.5t-62 30t-43 51.5t-16 73q0 60 28.5 95t70 53.5t88 24t82.5 5.5q22 0 44.5 -2t39.5 -5q0 27 -9.5 44t-26 27.5
t-38 14.5t-45.5 4q-44 0 -86 -9t-80 -30l-3 122q48 20 99 28.5t109 8.5q50 0 95 -11.5t79 -37t54 -66.5t20 -101v-194q0 -31 2 -61.5t8 -61.5h-14z" />
    <glyph glyph-name="Cacute" unicode="&#x106;" horiz-adv-x="667" 
d="M647 16q-40 -10 -87.5 -19t-119.5 -9q-70 0 -141 19t-129 61t-94.5 110.5t-36.5 167.5q0 91 30 159.5t83.5 114t127 68t159.5 22.5q54 0 105 -10.5t102 -25.5l-15 -151q-45 25 -89.5 37t-92.5 12q-49 0 -89.5 -17t-69 -47t-44 -71.5t-15.5 -90.5q0 -51 17.5 -92t48 -69.5
t73.5 -43.5t94 -15q46 0 91 10.5t83 25.5zM410 846h199l-132 -108h-135z" />
    <glyph glyph-name="cacute" unicode="&#x107;" horiz-adv-x="500" 
d="M464 372q-25 15 -51 22t-58 7q-29 0 -54.5 -10t-44 -28.5t-29 -45t-10.5 -60.5q0 -31 12 -56.5t32.5 -43.5t47.5 -27.5t56 -9.5q31 0 60 6.5t52 18.5l4 -134q-34 -11 -72.5 -17t-74.5 -6q-64 0 -119.5 18.5t-96.5 53t-64 85.5t-23 115q0 65 23 115.5t64 85.5t96.5 53.5
t119.5 18.5q84 0 143 -29zM315 729h187l-129 -144h-126z" />
    <glyph glyph-name="Ccaron" unicode="&#x10c;" horiz-adv-x="667" 
d="M647 16q-40 -10 -87.5 -19t-119.5 -9q-70 0 -141 19t-129 61t-94.5 110.5t-36.5 167.5q0 91 30 159.5t83.5 114t127 68t159.5 22.5q54 0 105 -10.5t102 -25.5l-15 -151q-45 25 -89.5 37t-92.5 12q-49 0 -89.5 -17t-69 -47t-44 -71.5t-15.5 -90.5q0 -51 17.5 -92t48 -69.5
t73.5 -43.5t94 -15q46 0 91 10.5t83 25.5zM519 738h-172l-109 108h119l76 -53l80 53h119z" />
    <glyph glyph-name="ccaron" unicode="&#x10d;" horiz-adv-x="500" 
d="M464 372q-25 15 -51 22t-58 7q-29 0 -54.5 -10t-44 -28.5t-29 -45t-10.5 -60.5q0 -31 12 -56.5t32.5 -43.5t47.5 -27.5t56 -9.5q31 0 60 6.5t52 18.5l4 -134q-34 -11 -72.5 -17t-74.5 -6q-64 0 -119.5 18.5t-96.5 53t-64 85.5t-23 115q0 65 23 115.5t64 85.5t96.5 53.5
t119.5 18.5q84 0 143 -29zM402 585h-162l-109 144h114l76 -78l80 78h114z" />
    <glyph glyph-name="Dcaron" unicode="&#x10e;" horiz-adv-x="778" 
d="M65 698h254q91 0 167 -16t130.5 -55.5t85 -106.5t30.5 -168q0 -98 -31 -165t-86 -108.5t-131 -60t-165 -18.5h-254v698zM251 138h72q105 0 161 53t56 158t-57 158t-160 53h-72v-422zM428 738h-172l-109 108h119l76 -53l80 53h119z" />
    <glyph glyph-name="dcaron" unicode="&#x10f;" horiz-adv-x="758" 
d="M616 0h-166v93h-2q-9 -22 -26 -41t-41 -33t-52.5 -22.5t-59.5 -8.5q-58 0 -102.5 22.5t-74.5 61t-45.5 89.5t-15.5 109q0 48 14.5 95t43 84.5t70 60.5t95.5 23t99 -17t80 -62h2v296h181v-750zM217 266q0 -63 29 -101.5t80 -38.5q23 0 43 10t35 28t23.5 42.5t8.5 52.5
q0 60 -30 98t-80 38q-26 0 -46.5 -10.5t-34.5 -28t-21 -41t-7 -49.5zM691 750h107l-53 -172h-88z" />
    <glyph glyph-name="Dcroat" unicode="&#x110;" horiz-adv-x="778" 
d="M251 414h167v-102h-167v-174h72q105 0 161 53t56 158t-57 158t-160 53h-72v-146zM65 312h-67v102h67v284h254q91 0 167 -16t130.5 -55.5t85 -106.5t30.5 -168q0 -98 -31 -165t-86 -108.5t-131 -60t-165 -18.5h-254v312z" />
    <glyph glyph-name="dcroat" unicode="&#x111;" horiz-adv-x="668" 
d="M718 669v-102h-102v-567h-166v93h-2q-9 -22 -26 -41t-41 -33t-52.5 -22.5t-59.5 -8.5q-58 0 -102.5 22.5t-74.5 61t-45.5 89.5t-15.5 109q0 48 14.5 95t43 84.5t70 60.5t95.5 23t99 -17t80 -62h2v113h-188v102h188v81h181v-81h102zM217 266q0 -63 29 -101.5t80 -38.5
q23 0 43 10t35 28t23.5 42.5t8.5 52.5q0 60 -30 98t-80 38q-26 0 -46.5 -10.5t-34.5 -28t-21 -41t-7 -49.5z" />
    <glyph glyph-name="Emacron" unicode="&#x112;" 
d="M60 698h492v-132h-306v-144h289v-132h-289v-158h317v-132h-503v698zM127 845h375v-84h-375v84z" />
    <glyph glyph-name="emacron" unicode="&#x113;" 
d="M213 208q8 -54 47.5 -77t105.5 -23q37 0 77.5 9t81.5 31v-127q-44 -17 -92 -25t-99 -8q-64 0 -119.5 18.5t-96.5 53.5t-64 86t-23 115q0 65 21 115.5t58 85t88 53t112 18.5q72 0 122.5 -24t81.5 -64t45 -93t14 -111v-33h-360zM411 310q0 45 -23 77t-77 32q-49 0 -73 -32
t-27 -77h200zM114 707h375v-84h-375v84z" />
    <glyph glyph-name="Edotaccent" unicode="&#x116;" 
d="M60 698h492v-132h-306v-144h289v-132h-289v-158h317v-132h-503v698zM243 879h144v-144h-144v144z" />
    <glyph glyph-name="edotaccent" unicode="&#x117;" 
d="M213 208q8 -54 47.5 -77t105.5 -23q37 0 77.5 9t81.5 31v-127q-44 -17 -92 -25t-99 -8q-64 0 -119.5 18.5t-96.5 53.5t-64 86t-23 115q0 65 21 115.5t58 85t88 53t112 18.5q72 0 122.5 -24t81.5 -64t45 -93t14 -111v-33h-360zM411 310q0 45 -23 77t-77 32q-49 0 -73 -32
t-27 -77h200zM238 729h144v-144h-144v144z" />
    <glyph glyph-name="Eogonek" unicode="&#x118;" 
d="M554 0q-22 0 -45 -12t-32 -21q-19 -18 -28 -37t-9 -36q0 -24 16.5 -37t39.5 -13q18 0 34 2.5t33 10.5v-67q-15 -5 -26.5 -7t-23.5 -3.5t-26 -1.5h-33q-62 0 -100 25t-38 73q0 22 8 41.5t20.5 35t28.5 27.5t32 20h-345v698h492v-132h-306v-144h289v-132h-289v-158h317
v-132h-9z" />
    <glyph glyph-name="eogonek" unicode="&#x119;" 
d="M378 -33q-19 -18 -28 -37t-9 -36q0 -24 16.5 -37t39.5 -13q18 0 34 2.5t33 10.5v-67q-15 -5 -26.5 -7t-23.5 -3.5t-26 -1.5h-33q-62 0 -100 25t-38 73q0 38 22 68t50 47q-56 6 -103 26.5t-81.5 55t-54 82t-19.5 106.5q0 65 21 115.5t58 85t88 53t112 18.5q72 0 122.5 -24
t81.5 -64t45 -93t14 -111v-33h-360q8 -54 47.5 -77t105.5 -23q37 0 77.5 9t81.5 31v-127q-32 -13 -70 -21q-23 -5 -41.5 -11t-35.5 -22zM411 310q0 45 -23 77t-77 32q-49 0 -73 -32t-27 -77h200z" />
    <glyph glyph-name="Ecaron" unicode="&#x11a;" 
d="M60 698h492v-132h-306v-144h289v-132h-289v-158h317v-132h-503v698zM406 738h-172l-109 108h119l76 -53l80 53h119z" />
    <glyph glyph-name="ecaron" unicode="&#x11b;" 
d="M213 208q8 -54 47.5 -77t105.5 -23q37 0 77.5 9t81.5 31v-127q-44 -17 -92 -25t-99 -8q-64 0 -119.5 18.5t-96.5 53.5t-64 86t-23 115q0 65 21 115.5t58 85t88 53t112 18.5q72 0 122.5 -24t81.5 -64t45 -93t14 -111v-33h-360zM411 310q0 45 -23 77t-77 32q-49 0 -73 -32
t-27 -77h200zM389 585h-162l-109 144h114l76 -78l80 78h114z" />
    <glyph glyph-name="Gbreve" unicode="&#x11e;" horiz-adv-x="778" 
d="M710 20q-89 -23 -155.5 -27.5t-114.5 -4.5q-70 0 -141 19t-129 61t-94.5 110.5t-36.5 167.5t33 168t91.5 112.5t139.5 63.5t177 20q17 0 42.5 -1t54.5 -4.5t59 -9.5t55 -16l-15 -152q-44 26 -90.5 35.5t-79.5 9.5q-57 0 -107 -12.5t-87.5 -39.5t-59 -70t-21.5 -104
q0 -51 17.5 -92t48 -69.5t73.5 -43.5t94 -15q19 0 36 3t30 9v138h-109v132h289v-388zM340 846q3 -16 14.5 -25t28 -13t36 -5t39.5 -1t39.5 1t36 5t28 13t14.5 25h75q-8 -55 -54.5 -88t-138.5 -33t-138.5 33t-54.5 88h75z" />
    <glyph glyph-name="gbreve" unicode="&#x11f;" horiz-adv-x="668" 
d="M608 61q0 -80 -19.5 -134.5t-58.5 -87.5t-98 -47t-138 -14q-65 0 -116 11t-83 22l9 142q42 -20 80.5 -31.5t95.5 -11.5q78 0 119 37t41 114v28h-2q-32 -46 -76.5 -67.5t-98.5 -21.5t-97 19.5t-73 54t-46 82.5t-16 106t14 107.5t43 86t73 57t105 20.5q58 0 103 -29t74 -77
h2v94h163v-460zM217 265q0 -61 30.5 -94t71.5 -33q48 0 81.5 37t33.5 97q0 22 -6.5 44t-20.5 39.5t-36 28.5t-52 11q-25 0 -44 -10.5t-32 -28t-19.5 -41t-6.5 -50.5zM222 729q10 -42 42 -57.5t71 -15.5t71 15.5t42 57.5h76q-8 -72 -53.5 -114.5t-135.5 -42.5t-135.5 42.5
t-53.5 114.5h76z" />
    <glyph glyph-name="Gcommaaccent" unicode="&#x122;" horiz-adv-x="778" 
d="M710 20q-89 -23 -155.5 -27.5t-114.5 -4.5q-70 0 -141 19t-129 61t-94.5 110.5t-36.5 167.5t33 168t91.5 112.5t139.5 63.5t177 20q17 0 42.5 -1t54.5 -4.5t59 -9.5t55 -16l-15 -152q-44 26 -90.5 35.5t-79.5 9.5q-57 0 -107 -12.5t-87.5 -39.5t-59 -70t-21.5 -104
q0 -51 17.5 -92t48 -69.5t73.5 -43.5t94 -15q19 0 36 3t30 9v138h-109v132h289v-388zM365 -37h124l-51 -144h-109z" />
    <glyph glyph-name="gcommaaccent" unicode="&#x123;" horiz-adv-x="668" 
d="M608 61q0 -80 -19.5 -134.5t-58.5 -87.5t-98 -47t-138 -14q-65 0 -116 11t-83 22l9 142q42 -20 80.5 -31.5t95.5 -11.5q78 0 119 37t41 114v28h-2q-32 -46 -76.5 -67.5t-98.5 -21.5t-97 19.5t-73 54t-46 82.5t-16 106t14 107.5t43 86t73 57t105 20.5q58 0 103 -29t74 -77
h2v94h163v-460zM217 265q0 -61 30.5 -94t71.5 -33q48 0 81.5 37t33.5 97q0 22 -6.5 44t-20.5 39.5t-36 28.5t-52 11q-25 0 -44 -10.5t-32 -28t-19.5 -41t-6.5 -50.5zM387 585h-124l51 144h109z" />
    <glyph glyph-name="Imacron" unicode="&#x12a;" horiz-adv-x="334" 
d="M74 698h186v-698h-186v698zM20 845h303v-84h-303v84z" />
    <glyph glyph-name="imacron" unicode="&#x12b;" horiz-adv-x="334" 
d="M77 521h180v-521h-180v521zM15 707h303v-84h-303v84z" />
    <glyph glyph-name="Iogonek" unicode="&#x12e;" horiz-adv-x="334" 
d="M74 0v698h186v-698q-20 0 -40.5 -12t-29.5 -21q-19 -18 -28 -37t-9 -36q0 -24 16.5 -37t39.5 -13q18 0 34 2.5t33 10.5v-67q-15 -5 -26.5 -7t-23.5 -3.5t-26 -1.5h-33q-62 0 -100 25t-38 73q0 22 8 41.5t20.5 35t28.5 27.5t32 20h-44z" />
    <glyph glyph-name="iogonek" unicode="&#x12f;" horiz-adv-x="334" 
d="M257 606h-180v132h180v-132zM257 0q-7 0 -17 -3.5t-20 -8.5t-18 -11t-13 -10q-19 -18 -28 -37t-9 -36q0 -24 16.5 -37t39.5 -13q18 0 34 2.5t33 10.5v-67q-15 -5 -26.5 -7t-23.5 -3.5t-26 -1.5h-33q-62 0 -100 25t-38 73q0 22 8 41.5t20.5 35t28.5 27.5t32 20h-40v521
h180v-521z" />
    <glyph glyph-name="Idotaccent" unicode="&#x130;" horiz-adv-x="334" 
d="M74 698h186v-698h-186v698zM94 879h144v-144h-144v144z" />
    <glyph glyph-name="dotlessi" unicode="&#x131;" horiz-adv-x="334" 
d="M77 521h180v-521h-180v521z" />
    <glyph glyph-name="Kcommaaccent" unicode="&#x136;" horiz-adv-x="722" 
d="M65 698h186v-285h2l210 285h224l-258 -325l278 -373h-237l-217 317h-2v-317h-186v698zM317 -37h124l-51 -144h-109z" />
    <glyph glyph-name="kcommaaccent" unicode="&#x137;" 
d="M56 750h180v-448h2l150 219h197l-181 -239l196 -282h-218l-144 258h-2v-258h-180v750zM265 -37h124l-51 -144h-109z" />
    <glyph glyph-name="Lacute" unicode="&#x139;" horiz-adv-x="556" 
d="M65 698h186v-560h288v-138h-474v698zM260 846h199l-132 -108h-135z" />
    <glyph glyph-name="lacute" unicode="&#x13a;" horiz-adv-x="334" 
d="M77 750h180v-750h-180v750zM141 846h180l-114 -84h-119z" />
    <glyph glyph-name="Lcommaaccent" unicode="&#x13b;" horiz-adv-x="556" 
d="M65 698h186v-560h288v-138h-474v698zM266 -37h124l-51 -144h-109z" />
    <glyph glyph-name="lcommaaccent" unicode="&#x13c;" horiz-adv-x="334" 
d="M77 750h180v-750h-180v750zM130 -37h124l-51 -144h-109z" />
    <glyph glyph-name="Lcaron" unicode="&#x13d;" horiz-adv-x="556" 
d="M65 698h186v-560h288v-138h-474v698zM328 750h107l-53 -172h-88z" />
    <glyph glyph-name="lcaron" unicode="&#x13e;" horiz-adv-x="404" 
d="M77 750h180v-750h-180v750zM335 750h107l-53 -172h-88z" />
    <glyph glyph-name="Lslash" unicode="&#x141;" horiz-adv-x="556" 
d="M65 199l-65 -38v109l65 38v390h186v-280l183 108v-109l-183 -108v-171h288v-138h-474v199z" />
    <glyph glyph-name="lslash" unicode="&#x142;" horiz-adv-x="334" 
d="M77 338l-77 -46v100l77 46v312h180v-206l77 45v-100l-77 -45v-444h-180v338z" />
    <glyph glyph-name="Nacute" unicode="&#x143;" horiz-adv-x="778" 
d="M68 698h237l236 -474h2l-3 474h170v-698h-231l-244 477h-2l6 -477h-171v698zM376 846h199l-132 -108h-135z" />
    <glyph glyph-name="nacute" unicode="&#x144;" horiz-adv-x="667" 
d="M56 521h164v-96h2q27 57 77.5 82.5t112.5 25.5q53 0 91 -17.5t62 -46t35 -66t11 -78.5v-325h-180v252q0 74 -23 102.5t-60 28.5q-56 0 -84 -39t-28 -124v-220h-180v521zM328 729h187l-129 -144h-126z" />
    <glyph glyph-name="Ncommaaccent" unicode="&#x145;" horiz-adv-x="778" 
d="M68 698h237l236 -474h2l-3 474h170v-698h-231l-244 477h-2l6 -477h-171v698zM362 -37h124l-51 -144h-109z" />
    <glyph glyph-name="ncommaaccent" unicode="&#x146;" horiz-adv-x="667" 
d="M56 521h164v-96h2q27 57 77.5 82.5t112.5 25.5q53 0 91 -17.5t62 -46t35 -66t11 -78.5v-325h-180v252q0 74 -23 102.5t-60 28.5q-56 0 -84 -39t-28 -124v-220h-180v521zM292 -37h124l-51 -144h-109z" />
    <glyph glyph-name="Ncaron" unicode="&#x147;" horiz-adv-x="778" 
d="M68 698h237l236 -474h2l-3 474h170v-698h-231l-244 477h-2l6 -477h-171v698zM474 738h-172l-109 108h119l76 -53l80 53h119z" />
    <glyph glyph-name="ncaron" unicode="&#x148;" horiz-adv-x="667" 
d="M56 521h164v-96h2q27 57 77.5 82.5t112.5 25.5q53 0 91 -17.5t62 -46t35 -66t11 -78.5v-325h-180v252q0 74 -23 102.5t-60 28.5q-56 0 -84 -39t-28 -124v-220h-180v521zM427 585h-162l-109 144h114l76 -78l80 78h114z" />
    <glyph glyph-name="Omacron" unicode="&#x14c;" horiz-adv-x="778" 
d="M39 349q0 84 22.5 151t66.5 113.5t109.5 71.5t151.5 25t151.5 -25t109.5 -71.5t66.5 -113.5t22.5 -151q0 -83 -22.5 -150t-67 -114t-109.5 -72t-151 -25q-85 0 -150.5 25t-110 72t-67 114t-22.5 150zM231 349q0 -43 9 -83.5t28 -71.5t49 -49.5t72 -18.5t72 18.5t49 49.5
t28 71.5t9 83.5q0 45 -9 85.5t-28 71t-49 48.5t-72 18t-72 -18t-49 -48.5t-28 -71t-9 -85.5zM203 845h375v-84h-375v84z" />
    <glyph glyph-name="omacron" unicode="&#x14d;" horiz-adv-x="668" 
d="M334 -12q-64 0 -119.5 18.5t-96.5 53t-64 85.5t-23 115q0 65 23 115.5t64 85.5t96.5 53.5t119.5 18.5q65 0 120 -18.5t96 -53.5t64 -85.5t23 -115.5q0 -64 -23 -115t-64 -85.5t-96 -53t-120 -18.5zM334 114q31 0 53 12t36.5 32t21 46.5t6.5 55.5t-6.5 56t-21 47t-36.5 32
t-53 12t-53 -12t-36.5 -32t-21 -47t-6.5 -56t6.5 -55.5t21 -46.5t36.5 -32t53 -12zM150 707h375v-84h-375v84z" />
    <glyph glyph-name="Ohungarumlaut" unicode="&#x150;" horiz-adv-x="778" 
d="M39 349q0 84 22.5 151t66.5 113.5t109.5 71.5t151.5 25t151.5 -25t109.5 -71.5t66.5 -113.5t22.5 -151q0 -83 -22.5 -150t-67 -114t-109.5 -72t-151 -25q-85 0 -150.5 25t-110 72t-67 114t-22.5 150zM231 349q0 -43 9 -83.5t28 -71.5t49 -49.5t72 -18.5t72 18.5t49 49.5
t28 71.5t9 83.5q0 45 -9 85.5t-28 71t-49 48.5t-72 18t-72 -18t-49 -48.5t-28 -71t-9 -85.5zM266 846h181l-124 -108h-127zM510 846h189l-132 -108h-125z" />
    <glyph glyph-name="ohungarumlaut" unicode="&#x151;" horiz-adv-x="668" 
d="M334 -12q-64 0 -119.5 18.5t-96.5 53t-64 85.5t-23 115q0 65 23 115.5t64 85.5t96.5 53.5t119.5 18.5q65 0 120 -18.5t96 -53.5t64 -85.5t23 -115.5q0 -64 -23 -115t-64 -85.5t-96 -53t-120 -18.5zM334 114q31 0 53 12t36.5 32t21 46.5t6.5 55.5t-6.5 56t-21 47t-36.5 32
t-53 12t-53 -12t-36.5 -32t-21 -47t-6.5 -56t6.5 -55.5t21 -46.5t36.5 -32t53 -12zM203 729h185l-127 -144h-126zM447 729h187l-129 -144h-126z" />
    <glyph glyph-name="OE" unicode="&#x152;" horiz-adv-x="1000" 
d="M971 566h-290v-144h271v-132h-268v-158h298v-132h-416q-50 0 -98.5 -3t-99.5 -3q-85 0 -150.5 25t-110 71.5t-67 112t-22.5 146.5t22.5 147t66.5 112t109.5 71t151.5 25q70 0 139 -3t138 -3h326v-132zM492 562q-29 0 -60.5 2t-63.5 2q-48 0 -79 -17.5t-48.5 -47.5
t-24 -69.5t-6.5 -82.5q0 -41 10.5 -80t32 -69.5t54.5 -49t79 -18.5q31 0 58.5 2t47.5 2v426z" />
    <glyph glyph-name="oe" unicode="&#x153;" horiz-adv-x="1000" 
d="M27 260q0 69 23 120t61.5 85t90 51t108.5 17q66 0 117 -16t89 -63q21 23 45 38.5t49.5 24.5t51 12.5t48.5 3.5q72 0 122.5 -24t81.5 -64t45 -93t14 -111v-33h-360q8 -54 47.5 -77t105.5 -23q37 0 77.5 9t81.5 31v-127q-44 -17 -92 -25t-99 -8q-67 0 -122.5 17t-93.5 67
q-20 -27 -45 -43.5t-53 -25.5t-57.5 -12t-58.5 -3q-58 0 -109 17.5t-88 51.5t-58.5 85t-21.5 118zM213 260q0 -28 6.5 -55.5t20 -49t34 -34.5t48.5 -13t48.5 13t34 34.5t20 49t6.5 55.5q0 29 -6.5 56t-20 49t-34 35t-48.5 13t-48.5 -13t-34 -35t-20 -49t-6.5 -56zM811 310
q0 45 -23 77t-77 32q-49 0 -73 -32t-27 -77h200z" />
    <glyph glyph-name="Racute" unicode="&#x154;" horiz-adv-x="667" 
d="M60 698h332q47 0 87.5 -10.5t71.5 -32.5t48.5 -55t17.5 -78q0 -70 -33 -115t-101 -61v-2q23 -6 36 -19t23 -32.5t18.5 -45t21.5 -57.5l68 -190h-194l-40 126q-14 45 -26.5 74t-27 46t-33 23.5t-44.5 6.5h-39v-276h-186v698zM246 408h49q23 0 47 1.5t43.5 9.5t32.5 24
t13 46q0 24 -11.5 39.5t-30 23.5t-43 11t-51.5 3h-49v-158zM301 846h199l-132 -108h-135z" />
    <glyph glyph-name="racute" unicode="&#x155;" horiz-adv-x="444" 
d="M428 377q-15 5 -30 5.5t-31 0.5q-63 0 -97 -43t-34 -120v-220h-180v521h164v-96h2q23 50 59 79t95 29q16 0 31.5 -2t29.5 -4zM240 729h187l-129 -144h-126z" />
    <glyph glyph-name="Rcommaaccent" unicode="&#x156;" horiz-adv-x="667" 
d="M60 698h332q47 0 87.5 -10.5t71.5 -32.5t48.5 -55t17.5 -78q0 -70 -33 -115t-101 -61v-2q23 -6 36 -19t23 -32.5t18.5 -45t21.5 -57.5l68 -190h-194l-40 126q-14 45 -26.5 74t-27 46t-33 23.5t-44.5 6.5h-39v-276h-186v698zM246 408h49q23 0 47 1.5t43.5 9.5t32.5 24
t13 46q0 24 -11.5 39.5t-30 23.5t-43 11t-51.5 3h-49v-158zM309 -37h124l-51 -144h-109z" />
    <glyph glyph-name="rcommaaccent" unicode="&#x157;" horiz-adv-x="444" 
d="M428 377q-15 5 -30 5.5t-31 0.5q-63 0 -97 -43t-34 -120v-220h-180v521h164v-96h2q23 50 59 79t95 29q16 0 31.5 -2t29.5 -4zM190 -37h124l-51 -144h-109z" />
    <glyph glyph-name="Rcaron" unicode="&#x158;" horiz-adv-x="667" 
d="M60 698h332q47 0 87.5 -10.5t71.5 -32.5t48.5 -55t17.5 -78q0 -70 -33 -115t-101 -61v-2q23 -6 36 -19t23 -32.5t18.5 -45t21.5 -57.5l68 -190h-194l-40 126q-14 45 -26.5 74t-27 46t-33 23.5t-44.5 6.5h-39v-276h-186v698zM246 408h49q23 0 47 1.5t43.5 9.5t32.5 24
t13 46q0 24 -11.5 39.5t-30 23.5t-43 11t-51.5 3h-49v-158zM398 738h-172l-109 108h119l76 -53l80 53h119z" />
    <glyph glyph-name="rcaron" unicode="&#x159;" horiz-adv-x="444" 
d="M428 377q-15 5 -30 5.5t-31 0.5q-63 0 -97 -43t-34 -120v-220h-180v521h164v-96h2q23 50 59 79t95 29q16 0 31.5 -2t29.5 -4zM332 585h-162l-109 144h114l76 -78l80 78h114z" />
    <glyph glyph-name="Sacute" unicode="&#x15a;" 
d="M67 172q36 -20 85 -33t107 -13q22 0 43 3t37 10.5t25.5 20.5t9.5 34q0 33 -24.5 50t-61 29.5t-79.5 25t-79.5 35t-61 61t-24.5 101.5t28 104.5t71.5 65.5t98 34t106.5 10q51 0 98 -7t82 -19l-12 -144q-36 17 -75.5 24.5t-79.5 7.5q-18 0 -39.5 -1.5t-40.5 -8t-32 -19.5
t-13 -36q0 -28 24.5 -43t61 -26t79.5 -23t79.5 -35t61 -61t24.5 -101q0 -68 -26 -112.5t-69 -70.5t-98.5 -36.5t-113.5 -10.5q-49 0 -105 7.5t-103 22.5zM310 846h199l-132 -108h-135z" />
    <glyph glyph-name="sacute" unicode="&#x15b;" horiz-adv-x="500" 
d="M46 144q32 -14 76 -25t93 -11q28 0 50.5 7.5t22.5 34.5q0 22 -19 33.5t-47.5 19.5t-61.5 16.5t-61.5 25t-47.5 44.5t-19 75q0 45 20 77t52 52.5t71.5 30t78.5 9.5q47 0 93 -6.5t90 -23.5l-14 -125q-29 17 -67.5 26t-72.5 9q-15 0 -29.5 -1.5t-26.5 -5.5t-19.5 -11
t-7.5 -18q0 -20 20 -30t49.5 -17.5t64.5 -16t64.5 -25.5t49.5 -46.5t20 -79.5q0 -52 -21.5 -86t-56 -53.5t-78 -27t-87.5 -7.5q-61 0 -105 6t-84 19zM247 729h187l-129 -144h-126z" />
    <glyph glyph-name="Scedilla" unicode="&#x15e;" 
d="M309 -65q11 2 21 3.5t27 1.5q14 0 28 -4.5t25 -15t18 -27t7 -40.5q0 -21 -10.5 -35.5t-28.5 -23t-42 -12.5t-51 -4q-41 0 -70 6t-55 17l17 46q22 -10 43.5 -15.5t43.5 -5.5q24 0 37.5 7t13.5 24q0 21 -11.5 28t-26.5 7q-13 0 -28 -6l-39 24l36 78h-5q-49 0 -105 7.5
t-103 22.5l16 154q36 -20 85 -33t107 -13q22 0 43 3t37 10.5t25.5 20.5t9.5 34q0 33 -24.5 50t-61 29.5t-79.5 25t-79.5 35t-61 61t-24.5 101.5t28 104.5t71.5 65.5t98 34t106.5 10q51 0 98 -7t82 -19l-12 -144q-36 17 -75.5 24.5t-79.5 7.5q-18 0 -39.5 -1.5t-40.5 -8
t-32 -19.5t-13 -36q0 -28 24.5 -43t61 -26t79.5 -23t79.5 -35t61 -61t24.5 -101q0 -56 -18.5 -96t-50.5 -67t-74 -42t-90 -21z" />
    <glyph glyph-name="scedilla" unicode="&#x15f;" horiz-adv-x="500" 
d="M251 -65q11 2 21 3.5t27 1.5q14 0 28 -4.5t25 -15t18 -27t7 -40.5q0 -21 -10.5 -35.5t-28.5 -23t-42 -12.5t-51 -4q-41 0 -70 6t-55 17l17 46q22 -10 43.5 -15.5t43.5 -5.5q24 0 37.5 7t13.5 24q0 21 -11.5 28t-26.5 7q-13 0 -28 -6l-39 24l36 78q-54 1 -93.5 7t-76.5 18
l10 131q32 -14 76 -25t93 -11q28 0 50.5 7.5t22.5 34.5q0 22 -19 33.5t-47.5 19.5t-61.5 16.5t-61.5 25t-47.5 44.5t-19 75q0 45 20 77t52 52.5t71.5 30t78.5 9.5q47 0 93 -6.5t90 -23.5l-14 -125q-29 17 -67.5 26t-72.5 9q-15 0 -29.5 -1.5t-26.5 -5.5t-19.5 -11t-7.5 -18
q0 -20 20 -30t49.5 -17.5t64.5 -16t64.5 -25.5t49.5 -46.5t20 -79.5q0 -45 -16 -76t-43 -51t-62 -30.5t-73 -14.5z" />
    <glyph glyph-name="Scaron" unicode="&#x160;" 
d="M67 172q36 -20 85 -33t107 -13q22 0 43 3t37 10.5t25.5 20.5t9.5 34q0 33 -24.5 50t-61 29.5t-79.5 25t-79.5 35t-61 61t-24.5 101.5t28 104.5t71.5 65.5t98 34t106.5 10q51 0 98 -7t82 -19l-12 -144q-36 17 -75.5 24.5t-79.5 7.5q-18 0 -39.5 -1.5t-40.5 -8t-32 -19.5
t-13 -36q0 -28 24.5 -43t61 -26t79.5 -23t79.5 -35t61 -61t24.5 -101q0 -68 -26 -112.5t-69 -70.5t-98.5 -36.5t-113.5 -10.5q-49 0 -105 7.5t-103 22.5zM414 738h-172l-109 108h119l76 -53l80 53h119z" />
    <glyph glyph-name="scaron" unicode="&#x161;" horiz-adv-x="500" 
d="M46 144q32 -14 76 -25t93 -11q28 0 50.5 7.5t22.5 34.5q0 22 -19 33.5t-47.5 19.5t-61.5 16.5t-61.5 25t-47.5 44.5t-19 75q0 45 20 77t52 52.5t71.5 30t78.5 9.5q47 0 93 -6.5t90 -23.5l-14 -125q-29 17 -67.5 26t-72.5 9q-15 0 -29.5 -1.5t-26.5 -5.5t-19.5 -11
t-7.5 -18q0 -20 20 -30t49.5 -17.5t64.5 -16t64.5 -25.5t49.5 -46.5t20 -79.5q0 -52 -21.5 -86t-56 -53.5t-78 -27t-87.5 -7.5q-61 0 -105 6t-84 19zM337 585h-162l-109 144h114l76 -78l80 78h114z" />
    <glyph glyph-name="Tcommaaccent" unicode="&#x162;" horiz-adv-x="556" 
d="M185 560h-172v138h530v-138h-172v-560h-186v560zM241 -37h124l-51 -144h-109z" />
    <glyph glyph-name="tcommaaccent" unicode="&#x163;" horiz-adv-x="444" 
d="M10 521h106v117l177 55v-172h126v-126h-126v-192q0 -48 14.5 -71.5t57.5 -23.5q14 0 27.5 2.5t27.5 4.5l6 -117q-26 -3 -52.5 -6.5t-60.5 -3.5q-60 0 -99 13t-61.5 38t-31 61.5t-8.5 82.5v212h-103v126zM222 -37h124l-51 -144h-109z" />
    <glyph glyph-name="Tcaron" unicode="&#x164;" horiz-adv-x="556" 
d="M185 560h-172v138h530v-138h-172v-560h-186v560zM363 738h-172l-109 108h119l76 -53l80 53h119z" />
    <glyph glyph-name="tcaron" unicode="&#x165;" horiz-adv-x="444" 
d="M10 521h106v117l177 55v-172h126v-126h-126v-192q0 -48 14.5 -71.5t57.5 -23.5q14 0 27.5 2.5t27.5 4.5l6 -117q-26 -3 -52.5 -6.5t-60.5 -3.5q-60 0 -99 13t-61.5 38t-31 61.5t-8.5 82.5v212h-103v126zM378 750h107l-53 -172h-88z" />
    <glyph glyph-name="Umacron" unicode="&#x16a;" horiz-adv-x="722" 
d="M667 265q0 -72 -22 -124t-62.5 -86t-97 -50.5t-124.5 -16.5t-124.5 16.5t-97 50.5t-62.5 86t-22 124v433h186v-402q0 -34 5.5 -65t19 -54.5t36.5 -37t59 -13.5t59 13.5t36.5 37t19 54.5t5.5 65v402h186v-433zM179 845h375v-84h-375v84z" />
    <glyph glyph-name="umacron" unicode="&#x16b;" horiz-adv-x="667" 
d="M611 0h-164v96h-2q-27 -57 -77.5 -82.5t-112.5 -25.5q-53 0 -91 17.5t-62 46t-35 66.5t-11 78v325h180v-252q0 -73 23 -102t60 -29q56 0 84 39t28 124v220h180v-521zM161 707h375v-84h-375v84z" />
    <glyph glyph-name="Uring" unicode="&#x16e;" horiz-adv-x="722" 
d="M667 265q0 -72 -22 -124t-62.5 -86t-97 -50.5t-124.5 -16.5t-124.5 16.5t-97 50.5t-62.5 86t-22 124v433h186v-402q0 -34 5.5 -65t19 -54.5t36.5 -37t59 -13.5t59 13.5t36.5 37t19 54.5t5.5 65v402h186v-433zM266 797q0 20 7.5 37t20.5 30t30.5 20.5t36.5 7.5
q40 0 67.5 -28t27.5 -67t-27.5 -67t-67.5 -28q-19 0 -36.5 7.5t-30.5 20.5t-20.5 30.5t-7.5 36.5zM320 797q0 -17 12 -29t29 -12t29 12t12 29t-12 29t-29 12t-29 -12t-12 -29z" />
    <glyph glyph-name="uring" unicode="&#x16f;" horiz-adv-x="667" 
d="M611 0h-164v96h-2q-27 -57 -77.5 -82.5t-112.5 -25.5q-53 0 -91 17.5t-62 46t-35 66.5t-11 78v325h180v-252q0 -73 23 -102t60 -29q56 0 84 39t28 124v220h180v-521zM225 662q0 23 9 43.5t24 35.5t35.5 24t43.5 9t43.5 -9t35.5 -24t24 -35.5t9 -43.5t-9 -43.5t-24 -35.5
t-35.5 -24t-43.5 -9t-43.5 9t-35.5 24t-24 35.5t-9 43.5zM289 662q0 -20 14 -34t34 -14t34 14t14 34t-14 34t-34 14t-34 -14t-14 -34z" />
    <glyph glyph-name="Uhungarumlaut" unicode="&#x170;" horiz-adv-x="722" 
d="M667 265q0 -72 -22 -124t-62.5 -86t-97 -50.5t-124.5 -16.5t-124.5 16.5t-97 50.5t-62.5 86t-22 124v433h186v-402q0 -34 5.5 -65t19 -54.5t36.5 -37t59 -13.5t59 13.5t36.5 37t19 54.5t5.5 65v402h186v-433zM237 846h181l-124 -108h-127zM481 846h189l-132 -108h-125z
" />
    <glyph glyph-name="uhungarumlaut" unicode="&#x171;" horiz-adv-x="667" 
d="M611 0h-164v96h-2q-27 -57 -77.5 -82.5t-112.5 -25.5q-53 0 -91 17.5t-62 46t-35 66.5t-11 78v325h180v-252q0 -73 23 -102t60 -29q56 0 84 39t28 124v220h180v-521zM214 729h185l-127 -144h-126zM458 729h187l-129 -144h-126z" />
    <glyph glyph-name="Uogonek" unicode="&#x172;" horiz-adv-x="722" 
d="M401 -33q-19 -18 -28 -37t-9 -36q0 -24 16.5 -37t39.5 -13q18 0 34 2.5t33 10.5v-67q-15 -5 -26.5 -7t-23.5 -3.5t-26 -1.5h-33q-62 0 -100 25t-38 73q0 38 22 68t50 46q-55 6 -102.5 24t-81.5 51.5t-53.5 83t-19.5 116.5v433h186v-402q0 -34 5.5 -65t19 -54.5t36.5 -37
t59 -13.5t59 13.5t36.5 37t19 54.5t5.5 65v402h186v-433q0 -108 -48 -171.5t-132 -88.5q-6 -2 -16.5 -4.5t-22.5 -7t-24.5 -11t-22.5 -15.5z" />
    <glyph glyph-name="uogonek" unicode="&#x173;" horiz-adv-x="667" 
d="M604 0q-22 0 -45 -12t-32 -21q-19 -18 -28 -37t-9 -36q0 -24 16.5 -37t39.5 -13q18 0 34 2.5t33 10.5v-67q-15 -5 -26.5 -7t-23.5 -3.5t-26 -1.5h-33q-62 0 -100 25t-38 73q0 22 8 41.5t20.5 35t28.5 27.5t32 20h-8v96h-2q-27 -57 -77.5 -82.5t-112.5 -25.5
q-53 0 -91 17.5t-62 46t-35 66.5t-11 78v325h180v-252q0 -73 23 -102t60 -29q56 0 84 39t28 124v220h180v-521h-7z" />
    <glyph glyph-name="Ydieresis" unicode="&#x178;" horiz-adv-x="722" 
d="M269 263l-258 435h214l137 -280l135 280h214l-256 -435v-263h-186v263zM405 879h144v-144h-144v144zM177 879h144v-144h-144v144z" />
    <glyph glyph-name="Zacute" unicode="&#x179;" 
d="M570 550l-342 -412h344v-138h-546v148l332 412h-323v138h535v-148zM292 846h199l-132 -108h-135z" />
    <glyph glyph-name="zacute" unicode="&#x17a;" horiz-adv-x="500" 
d="M26 144l238 245h-233v132h439v-144l-238 -245h242v-132h-448v144zM252 729h187l-129 -144h-126z" />
    <glyph glyph-name="Zdotaccent" unicode="&#x17b;" 
d="M570 550l-342 -412h344v-138h-546v148l332 412h-323v138h535v-148zM238 879h144v-144h-144v144z" />
    <glyph glyph-name="zdotaccent" unicode="&#x17c;" horiz-adv-x="500" 
d="M26 144l238 245h-233v132h439v-144l-238 -245h242v-132h-448v144zM186 729h144v-144h-144v144z" />
    <glyph glyph-name="Zcaron" unicode="&#x17d;" 
d="M570 550l-342 -412h344v-138h-546v148l332 412h-323v138h535v-148zM396 738h-172l-109 108h119l76 -53l80 53h119z" />
    <glyph glyph-name="zcaron" unicode="&#x17e;" horiz-adv-x="500" 
d="M26 144l238 245h-233v132h439v-144l-238 -245h242v-132h-448v144zM343 585h-162l-109 144h114l76 -78l80 78h114z" />
    <glyph glyph-name="florin" unicode="&#x192;" horiz-adv-x="612" 
d="M103 422h128l23 108q8 40 22 73t36.5 57t55 37t77.5 13q32 0 63 -5t64 -21l-21 -126q-9 10 -24 18t-34 8q-16 0 -26 -7t-17 -18t-11 -25.5t-7 -28.5l-18 -83h99v-108h-124l-72 -336q-14 -65 -34.5 -104.5t-46.5 -60.5t-56.5 -28t-65.5 -7q-25 0 -55 6t-59 20l21 120
q8 -8 22.5 -14t28.5 -6q29 0 41.5 14t17.5 34l77 362h-105v108z" />
    <glyph glyph-name="Scommaaccent" unicode="&#x218;" 
d="M67 172q36 -20 85 -33t107 -13q22 0 43 3t37 10.5t25.5 20.5t9.5 34q0 33 -24.5 50t-61 29.5t-79.5 25t-79.5 35t-61 61t-24.5 101.5t28 104.5t71.5 65.5t98 34t106.5 10q51 0 98 -7t82 -19l-12 -144q-36 17 -75.5 24.5t-79.5 7.5q-18 0 -39.5 -1.5t-40.5 -8t-32 -19.5
t-13 -36q0 -28 24.5 -43t61 -26t79.5 -23t79.5 -35t61 -61t24.5 -101q0 -68 -26 -112.5t-69 -70.5t-98.5 -36.5t-113.5 -10.5q-49 0 -105 7.5t-103 22.5zM254 -37h124l-51 -144h-109z" />
    <glyph glyph-name="scommaaccent" unicode="&#x219;" horiz-adv-x="500" 
d="M46 144q32 -14 76 -25t93 -11q28 0 50.5 7.5t22.5 34.5q0 22 -19 33.5t-47.5 19.5t-61.5 16.5t-61.5 25t-47.5 44.5t-19 75q0 45 20 77t52 52.5t71.5 30t78.5 9.5q47 0 93 -6.5t90 -23.5l-14 -125q-29 17 -67.5 26t-72.5 9q-15 0 -29.5 -1.5t-26.5 -5.5t-19.5 -11
t-7.5 -18q0 -20 20 -30t49.5 -17.5t64.5 -16t64.5 -25.5t49.5 -46.5t20 -79.5q0 -52 -21.5 -86t-56 -53.5t-78 -27t-87.5 -7.5q-61 0 -105 6t-84 19zM197 -37h124l-51 -144h-109z" />
    <glyph glyph-name="circumflex" unicode="&#x2c6;" horiz-adv-x="333" 
d="M241 585l-76 78l-80 -78h-114l113 144h162l109 -144h-114z" />
    <glyph glyph-name="caron" unicode="&#x2c7;" horiz-adv-x="333" 
d="M246 585h-162l-109 144h114l76 -78l80 78h114z" />
    <glyph glyph-name="breve" unicode="&#x2d8;" horiz-adv-x="333" 
d="M54 729q10 -42 42 -57.5t71 -15.5t71 15.5t42 57.5h76q-8 -72 -53.5 -114.5t-135.5 -42.5t-135.5 42.5t-53.5 114.5h76z" />
    <glyph glyph-name="dotaccent" unicode="&#x2d9;" horiz-adv-x="333" 
d="M95 729h144v-144h-144v144z" />
    <glyph glyph-name="ring" unicode="&#x2da;" horiz-adv-x="333" 
d="M100 662q0 23 9 43.5t24 35.5t35.5 24t43.5 9t43.5 -9t35.5 -24t24 -35.5t9 -43.5t-9 -43.5t-24 -35.5t-35.5 -24t-43.5 -9t-43.5 9t-35.5 24t-24 35.5t-9 43.5zM164 662q0 -20 14 -34t34 -14t34 14t14 34t-14 34t-34 14t-34 -14t-14 -34z" />
    <glyph glyph-name="ogonek" unicode="&#x2db;" horiz-adv-x="333" 
d="M246 0q-42 -23 -62.5 -51.5t-20.5 -54.5q0 -24 16.5 -37t39.5 -13q18 0 34 2.5t33 10.5v-67q-15 -5 -26.5 -7t-23.5 -3.5t-26 -1.5h-33q-62 0 -100 25t-38 73q0 22 8 41.5t20.5 35t28.5 27.5t32 20h118z" />
    <glyph glyph-name="tilde" unicode="&#x2dc;" horiz-adv-x="333" 
d="M363 729q-3 -28 -12 -54t-25 -45t-38.5 -30.5t-53.5 -11.5q-19 0 -39 5.5t-39 12.5t-35.5 12.5t-28.5 5.5q-23 0 -33.5 -10t-15.5 -29h-72q3 26 12 51.5t24.5 45.5t38 32t52.5 12q20 0 39.5 -5.5t38 -12.5t35.5 -12.5t30 -5.5q43 0 50 39h72z" />
    <glyph glyph-name="hungarumlaut" unicode="&#x2dd;" horiz-adv-x="333" 
d="M47 729h185l-127 -144h-126zM291 729h187l-129 -144h-126z" />
    <glyph glyph-name="endash" unicode="&#x2013;" horiz-adv-x="500" 
d="M0 332h500v-126h-500v126z" />
    <glyph glyph-name="emdash" unicode="&#x2014;" horiz-adv-x="1000" 
d="M0 332h1000v-126h-1000v126z" />
    <glyph glyph-name="quoteleft" unicode="&#x2018;" horiz-adv-x="333" 
d="M217 427h-168l98 271h137z" />
    <glyph glyph-name="quoteright" unicode="&#x2019;" horiz-adv-x="333" 
d="M116 698h168l-98 -271h-137z" />
    <glyph glyph-name="quotesinglbase" unicode="&#x201a;" horiz-adv-x="333" 
d="M116 162h168l-98 -271h-137z" />
    <glyph glyph-name="quotedblleft" unicode="&#x201c;" 
d="M241 427h-168l98 271h137zM471 427h-168l98 271h137z" />
    <glyph glyph-name="quotedblright" unicode="&#x201d;" 
d="M140 698h168l-98 -271h-137zM370 698h168l-98 -271h-137z" />
    <glyph glyph-name="quotedblbase" unicode="&#x201e;" 
d="M140 162h169l-98 -271h-138zM369 162h169l-98 -271h-138z" />
    <glyph glyph-name="dagger" unicode="&#x2020;" 
d="M225 399h-173v132h173v167h162v-167h173v-132h-173v-399h-162v399z" />
    <glyph glyph-name="daggerdbl" unicode="&#x2021;" 
d="M225 135h-173v120h173v187h-173v120h173v136h162v-136h173v-120h-173v-187h173v-120h-173v-135h-162v135z" />
    <glyph glyph-name="bullet" unicode="&#x2022;" horiz-adv-x="500" 
d="M76 349q0 36 13.5 67.5t37.5 55.5t55.5 37.5t67.5 13.5t68 -13.5t55.5 -37.5t37.5 -55.5t14 -67.5t-14 -68t-37.5 -55.5t-55.5 -37.5t-68 -14t-67.5 14t-55.5 37.5t-37.5 55.5t-13.5 68z" />
    <glyph glyph-name="ellipsis" unicode="&#x2026;" horiz-adv-x="1000" 
d="M83 162h168v-162h-168v162zM416 162h168v-162h-168v162zM749 162h168v-162h-168v162z" />
    <glyph glyph-name="perthousand" unicode="&#x2030;" horiz-adv-x="1000" 
d="M505 72q15 0 23.5 11t12.5 27.5t4.5 34.5t0.5 33t-0.5 33t-4.5 34.5t-12.5 27.5t-23.5 11t-23.5 -11t-12.5 -27.5t-4.5 -34.5t-0.5 -33t0.5 -33t4.5 -34.5t12.5 -27.5t23.5 -11zM844 -12q-46 0 -76 16t-47.5 43t-24.5 62.5t-7 74.5q0 40 7 75.5t24.5 62.5t47.5 42.5
t76 15.5q43 0 72.5 -14.5t48 -41t26.5 -62.5t8 -78q0 -40 -7.5 -75.5t-25.5 -62.5t-48 -42.5t-74 -15.5zM844 72q15 0 23.5 11t12.5 27.5t4.5 34.5t0.5 33t-0.5 33t-4.5 34.5t-12.5 27.5t-23.5 11t-23.5 -11t-12.5 -27.5t-4.5 -34.5t-0.5 -33t0.5 -33t4.5 -34.5t12.5 -27.5
t23.5 -11zM484 720h80l-389 -742h-78zM156 318q-46 0 -76 16t-47.5 43t-24.5 62.5t-7 74.5q0 40 7 75.5t24.5 62.5t47.5 42.5t76 15.5q43 0 72.5 -14.5t48 -41t26.5 -62.5t8 -78q0 -40 -7.5 -75.5t-25.5 -62.5t-48 -42.5t-74 -15.5zM156 408q15 0 23.5 11t12.5 27.5
t4.5 34.5t0.5 33t-0.5 33t-4.5 34.5t-12.5 27.5t-23.5 11t-23.5 -11t-12.5 -27.5t-4.5 -34.5t-0.5 -33t0.5 -33t4.5 -34.5t12.5 -27.5t23.5 -11zM505 -12q-46 0 -76 16t-47.5 43t-24.5 62.5t-7 74.5q0 40 7 75.5t24.5 62.5t47.5 42.5t76 15.5q43 0 72.5 -14.5t48 -41
t26.5 -62.5t8 -78q0 -40 -7.5 -75.5t-25.5 -62.5t-48 -42.5t-74 -15.5z" />
    <glyph glyph-name="guilsinglleft" unicode="&#x2039;" horiz-adv-x="333" 
d="M28 269l119 204h148l-110 -204l110 -204h-148z" />
    <glyph glyph-name="guilsinglright" unicode="&#x203a;" horiz-adv-x="333" 
d="M305 269l-119 -204h-148l110 204l-110 204h148z" />
    <glyph glyph-name="fraction" unicode="&#x2044;" horiz-adv-x="167" 
d="M223 720h109l-387 -742h-109z" />
    <glyph glyph-name="trademark" unicode="&#x2122;" horiz-adv-x="1000" 
d="M155 608h-118v90h344v-90h-118v-326h-108v326zM477 698h154l89 -242l89 242h154v-416h-108v272h-2l-89 -272h-88l-89 272h-2v-272h-108v416z" />
    <glyph glyph-name="partialdiff" unicode="&#x2202;" horiz-adv-x="494" 
d="M65 717q15 6 35.5 13t44.5 11t50 4.5t51 -5.5q46 -11 89 -41t79 -93q17 -30 26.5 -63.5t14.5 -63.5t6 -53.5t1 -32.5q0 -15 -2.5 -46t-8.5 -68t-16 -76.5t-25 -71.5q-20 -43 -41 -74t-63 -54q-52 -29 -104.5 -23.5t-90.5 31.5q-29 20 -54 54t-30 91q-3 30 2 57.5t14 50
t19.5 39.5t19.5 28q26 32 60 52.5t82 18.5q22 -1 39 -4.5t33 -11t34.5 -20t43.5 -32.5q6 32 8 59.5t3 56.5q0 18 -3 41t-8 45t-10.5 41.5t-10.5 31.5q-4 11 -13.5 25.5t-23.5 28t-33 23.5t-42 12q-27 2 -43 1t-29.5 -5t-28 -11t-36.5 -16zM366 299q-8 9 -17 20t-22 21
t-29.5 16.5t-39.5 6.5q-57 -2 -96 -54q-30 -42 -40 -82.5t-10 -78.5q0 -11 1 -27.5t5.5 -34.5t13.5 -35t26 -28q21 -14 41 -14.5t42 9.5q28 12 47 35t34 58q18 45 28 92t16 96z" />
    <glyph glyph-name="Delta" unicode="&#x2206;" horiz-adv-x="612" 
d="M608 0h-602l320 688zM72 49h412l-194 468z" />
    <glyph glyph-name="summation" unicode="&#x2211;" horiz-adv-x="713" 
d="M623 586h-20q-7 24 -14 45t-22 36.5t-42 24t-75 8.5h-263l273 -358l-294 -339h371q29 0 49 5t34.5 18t26.5 35t25 55h23q-9 -38 -15 -63.5t-10.5 -48.5t-8.5 -48.5t-9 -63.5q-20 3 -39 7t-38 4h-503q-15 0 -29 -1.5t-29 -1.5l349 398l-347 454q26 -2 52 -4.5t52 -2.5h497
z" />
    <glyph glyph-name="minus" unicode="&#x2212;" horiz-adv-x="600" 
d="M47 316h506v-126h-506v126z" />
    <glyph glyph-name="radical" unicode="&#x221a;" horiz-adv-x="549" 
d="M10 450l146 72l197 -403l127 798l35 -5l-150 -950l-243 502l-96 -47z" />
    <glyph glyph-name="notequal" unicode="&#x2260;" horiz-adv-x="549" 
d="M451 521l-76 -136h165v-55h-195l-78 -139h273v-55h-303l-90 -161l-49 28l74 133h-157v55h188l77 139h-265v55h296l91 164z" />
    <glyph glyph-name="lessequal" unicode="&#x2264;" horiz-adv-x="549" 
d="M29 55h497v-55h-497v55zM29 409l497 230v-62l-433 -199l433 -199v-62l-497 230v62z" />
    <glyph glyph-name="greaterequal" unicode="&#x2265;" horiz-adv-x="549" 
d="M526 0h-497v55h497v-55zM526 347l-497 -230v62l433 199l-433 199v62l497 -230v-62z" />
    <glyph glyph-name="lozenge" unicode="&#x25ca;" horiz-adv-x="494" 
d="M212 0l-194 377l194 368h60l194 -368l-194 -377h-60zM242 691l-164 -314l164 -323l164 323z" />
    <glyph glyph-name="fi" unicode="&#xfb01;" horiz-adv-x="778" 
d="M119 395h-106v126h109v32q0 58 13.5 98t41 64.5t68 35.5t94.5 11q29 0 52 -3.5t40 -6.5l-11 -124q-11 4 -24 6t-33 2q-35 0 -49.5 -22.5t-14.5 -60.5v-32h128v-126h-128v-395h-180v395zM521 521h180v-521h-180v521zM701 606h-180v132h180v-132z" />
    <glyph glyph-name="fl" unicode="&#xfb02;" horiz-adv-x="778" 
d="M119 395h-106v126h109v32q0 58 13.5 98t41 64.5t68 35.5t94.5 11q29 0 52 -3.5t40 -6.5l-11 -124q-11 4 -24 6t-33 2q-35 0 -49.5 -22.5t-14.5 -60.5v-32h128v-126h-128v-395h-180v395zM521 750h180v-750h-180v750z" />
    <glyph glyph-name="commaaccent" horiz-adv-x="306" 
d="M111 -37h124l-51 -144h-109z" />
  </font>
</defs>
</svg>
