<?xml version="1.0" standalone="no"?>
<!DOCTYPE svg PUBLIC "-//W3C//DTD SVG 1.1//EN" "http://www.w3.org/Graphics/SVG/1.1/DTD/svg11.dtd" >
<svg>
<metadata>
Created by FontForge 20120731 at Mon Sep 12 10:39:39 2016
 By ,,,
 The digitally encoded machine readable software for producing the  Typefaces licensed to you is copyrighted (c) 1991 Adobe Systems.  All Rights Reserved. This software is the property of Adobe Systems  Incorporated and its licensors, and may not be reproduced, used,   displayed, modified, disclosed or transferred without the express   written approval of Adobe.    The digitally encoded machine readable outline data for producing  the Typefaces licensed to you is copyrighted (c) 1981 Linotype-Hell AG  and/or its subsidiaries. All Rights Reserved.  This data is the property of Linotype-Hell AG and/or its subsidiaries  and may not be reproduced, used, displayed, modified, disclosed or   transferred without the express written approval of Linotype-Hell AG   and/or its subsidiaries.  12 Frutiger* 57 Condensed 37103 
</metadata>
<defs>
<font id="FrutigerCE-Cn" horiz-adv-x="482" >
  <font-face 
    font-family="Frutiger CE 57Cn"
    font-weight="400"
    font-stretch="condensed"
    units-per-em="1000"
    panose-1="0 0 0 0 0 0 0 0 0 0"
    ascent="800"
    descent="-200"
    x-height="510"
    cap-height="698"
    bbox="-105 -250 1000 917"
    underline-thickness="50"
    underline-position="-50"
    unicode-range="U+000D-FB02"
  />
<missing-glyph horiz-adv-x="240" 
 />
    <glyph glyph-name=".notdef" horiz-adv-x="240" 
 />
    <glyph glyph-name=".null" horiz-adv-x="0" 
 />
    <glyph glyph-name=".null" horiz-adv-x="0" 
 />
    <glyph glyph-name="nonmarkingreturn" unicode="&#xd;" horiz-adv-x="250" 
 />
    <glyph glyph-name="space" unicode=" " horiz-adv-x="240" 
 />
    <glyph glyph-name="exclam" unicode="!" horiz-adv-x="352" 
d="M140 186l-14 512h100l-14 -512h-72zM128 112h96v-112h-96v112z" />
    <glyph glyph-name="quotedbl" unicode="&#x22;" horiz-adv-x="500" 
d="M289 750h72v-232h-72v232zM139 750h72v-232h-72v232z" />
    <glyph glyph-name="numbersign" unicode="#" horiz-adv-x="480" 
d="M170 272h119l21 154h-119zM103 218h-99v54h106l21 154h-99v54h106l30 218h60l-30 -218h119l30 218h60l-30 -218h99v-54h-106l-21 -154h99v-54h-106l-31 -218h-60l31 218h-119l-31 -218h-60z" />
    <glyph glyph-name="dollar" unicode="$" horiz-adv-x="480" 
d="M261 82q31 14 47.5 40t16.5 57q0 32 -11.5 57t-52.5 55v-209zM221 621q-32 -11 -49 -36.5t-17 -59.5q0 -26 12.5 -47t53.5 -50v193zM221 -6q-2 -1 -5.5 -1h-6.5q-38 0 -75.5 8t-65.5 22v91q30 -18 66 -31.5t67 -13.5h10t10 1v249l-29 18q-37 23 -62 44t-40 43t-21 47.5
t-6 58.5q0 38 12 68t33 51.5t50 35t63 18.5v82h40v-80q34 -1 66.5 -7t55.5 -16v-85q-25 15 -55.5 23.5t-61.5 8.5h-5v-227q12 -9 26 -17q70 -42 100 -88t30 -106q0 -73 -39.5 -126.5t-116.5 -66.5v-92h-40v88z" />
    <glyph glyph-name="percent" unicode="%" horiz-adv-x="814" 
d="M58 512q0 100 38 146.5t101 46.5t101 -46.5t38 -146.5t-38 -146.5t-101 -46.5t-101 46.5t-38 146.5zM130 512q0 -70 16 -101.5t51 -31.5t51 31.5t16 101.5t-16 101.5t-51 31.5t-51 -31.5t-16 -101.5zM478 186q0 100 38 146.5t101 46.5t101 -46.5t38 -146.5t-38 -146.5
t-101 -46.5t-101 46.5t-38 146.5zM550 186q0 -70 16 -101.5t51 -31.5t51 31.5t16 101.5t-16 101.5t-51 31.5t-51 -31.5t-16 -101.5zM532 731h64l-313 -764h-64z" />
    <glyph glyph-name="ampersand" unicode="&#x26;" horiz-adv-x="611" 
d="M237 340q-39 -26 -66 -62.5t-27 -84.5q0 -27 9 -50t25.5 -40.5t40 -27.5t53.5 -10q35 0 68.5 20.5t50.5 46.5zM489 0l-55 77q-26 -42 -73 -63t-100 -21q-50 0 -88.5 15.5t-64.5 41.5t-39 61.5t-13 74.5q0 74 34.5 124t103.5 88q-12 17 -24.5 35.5t-23 39t-17 42
t-6.5 42.5q0 34 12 61.5t33.5 46.5t51 29.5t64.5 10.5q36 0 65 -11t49.5 -30.5t31.5 -46t11 -57.5q0 -47 -30.5 -93t-102.5 -87l129 -179q20 43 29.5 90t12.5 101h84q-5 -66 -24 -133t-54 -121l108 -138h-104zM361 561q0 29 -19 52.5t-57 23.5q-35 0 -58.5 -20.5
t-23.5 -54.5q0 -13 6 -30t15.5 -34t21 -33.5t21.5 -29.5q52 32 73 61t21 65z" />
    <glyph glyph-name="quotesingle" unicode="'" horiz-adv-x="240" 
d="M84 750h72v-232h-72v232z" />
    <glyph glyph-name="parenleft" unicode="(" horiz-adv-x="278" 
d="M198 -140q-31 54 -57 111.5t-44 115t-28 114t-10 107.5t10 107.5t28 114.5t44 115t57 111l67 -6q-36 -69 -59.5 -126.5t-37.5 -109.5t-19.5 -102t-5.5 -104t5.5 -104t19.5 -102t37.5 -109.5t59.5 -126.5z" />
    <glyph glyph-name="parenright" unicode=")" horiz-adv-x="278" 
d="M13 -134q36 69 59.5 126.5t37.5 109.5t19.5 102t5.5 104t-5.5 104t-19.5 102t-37.5 109.5t-59.5 126.5l67 6q32 -54 57.5 -111t43.5 -115t28 -114.5t10 -107.5t-10 -107.5t-28 -114t-43.5 -115t-57.5 -111.5z" />
    <glyph glyph-name="asterisk" unicode="*" horiz-adv-x="500" 
d="M396 671l24 -72l-128 -29l86 -99l-62 -44l-66 112l-68 -112l-61 44l87 99l-128 29l23 72l120 -52l-11 131h76l-13 -130z" />
    <glyph glyph-name="plus" unicode="+" horiz-adv-x="600" 
d="M47 287h219v219h68v-219h219v-68h-219v-219h-68v219h-219v68z" />
    <glyph glyph-name="comma" unicode="," horiz-adv-x="240" 
d="M76 112h92l-66 -232h-76z" />
    <glyph glyph-name="hyphen" unicode="-" horiz-adv-x="296" 
d="M40 317h216v-72h-216v72z" />
    <glyph glyph-name="period" unicode="." horiz-adv-x="240" 
d="M72 112h96v-112h-96v112z" />
    <glyph glyph-name="slash" unicode="/" horiz-adv-x="259" 
d="M185 705h74l-185 -712h-74z" />
    <glyph glyph-name="zero" unicode="0" horiz-adv-x="480" 
d="M125 349q0 -148 27.5 -216t87.5 -68t87.5 68t27.5 216t-27.5 216t-87.5 68t-87.5 -68t-27.5 -216zM37 349q0 176 52 266t151 90t151 -90t52 -266t-52 -266t-151 -90t-151 90t-52 266z" />
    <glyph glyph-name="one" unicode="1" horiz-adv-x="480" 
d="M202 597l-89 -100l-46 65l143 136h80v-698h-88v597z" />
    <glyph glyph-name="two" unicode="2" horiz-adv-x="480" 
d="M37 77q134 153 199.5 259t65.5 176q0 47 -25.5 82t-77.5 35q-30 0 -67 -15t-67 -39l-11 88q45 22 88.5 32t75.5 10q41 0 73.5 -14t55 -38t35 -56t12.5 -68q0 -46 -19.5 -101t-54 -114.5t-82 -120t-104.5 -117.5h270v-76h-367v77z" />
    <glyph glyph-name="three" unicode="3" horiz-adv-x="480" 
d="M45 105q35 -19 69.5 -29.5t63.5 -10.5t54.5 10t45.5 28t31.5 44t11.5 58q0 54 -36 86.5t-100 32.5h-65v72h36q82 0 122.5 34.5t40.5 88.5q0 52 -34.5 83t-89.5 31q-28 0 -63 -10.5t-65 -28.5l-8 82q34 16 73 22.5t80 6.5t76.5 -10.5t62 -32t41.5 -54t15 -76.5
q0 -72 -36.5 -112.5t-92.5 -51.5v-2q32 -4 57.5 -19t42.5 -38t26 -52.5t9 -62.5q0 -41 -14 -77.5t-42.5 -64t-71 -43.5t-99.5 -16q-38 0 -79 7.5t-70 18.5z" />
    <glyph glyph-name="four" unicode="4" horiz-adv-x="480" 
d="M297 158h-274v84l251 456h107v-468h76v-72h-76v-158h-84v158zM297 610h-2l-198 -380h200v380z" />
    <glyph glyph-name="five" unicode="5" horiz-adv-x="480" 
d="M65 102q23 -14 57 -25.5t64 -11.5q33 0 60 12t46 33t29 50t10 63q0 72 -38.5 109.5t-109.5 37.5q-26 0 -52.5 -6t-62.5 -17v351h321v-72h-237v-195q17 5 38 8t41 3q39 0 73.5 -13t61 -39t42 -65t15.5 -91q0 -54 -14 -98.5t-42.5 -76t-70.5 -49t-98 -17.5q-34 0 -70 7
t-67 21z" />
    <glyph glyph-name="six" unicode="6" horiz-adv-x="480" 
d="M134 218q0 -28 7 -55.5t20.5 -49.5t34.5 -35t49 -13t48.5 13t34 35t20.5 49.5t7 55.5t-7 55t-20.5 48.5t-34 35t-48.5 13.5t-49 -13.5t-34.5 -35t-20.5 -48.5t-7 -55zM408 603q-23 14 -50.5 22t-56.5 8q-43 0 -77 -20t-56.5 -56.5t-34.5 -87.5t-12 -113h2q18 41 54 63.5
t84 22.5q44 0 78 -18.5t57 -49t35 -70t12 -80.5q0 -58 -15.5 -101t-42.5 -72t-64 -43.5t-79 -14.5q-56 0 -95 23t-63.5 65.5t-35.5 103t-11 136.5q0 384 259 384q32 0 62.5 -5.5t53.5 -14.5z" />
    <glyph glyph-name="seven" unicode="7" horiz-adv-x="480" 
d="M340 622h-284v76h368v-83l-216 -615h-97z" />
    <glyph glyph-name="eight" unicode="8" horiz-adv-x="480" 
d="M139 529q0 -35 23.5 -70.5t85.5 -62.5q42 29 67.5 64.5t25.5 74.5q0 19 -7.5 37t-21 31.5t-32 21.5t-40.5 8q-43 0 -72 -30t-29 -74zM125 194q0 -26 8 -49.5t24 -41t38.5 -28t50.5 -10.5q48 0 78.5 34.5t30.5 88.5q0 48 -27.5 81t-93.5 63q-33 -18 -54 -34.5t-33.5 -33
t-17 -33.5t-4.5 -37zM37 184q0 67 35.5 110.5t95.5 67.5q-32 15 -54 35.5t-36 43.5t-20.5 47.5t-6.5 46.5q0 32 12.5 62.5t36.5 54.5t59 38.5t81 14.5t81 -14.5t59 -38.5t36.5 -54.5t12.5 -62.5q0 -22 -6.5 -46.5t-20 -47.5t-35.5 -43.5t-54 -35.5q60 -24 95 -67.5
t35 -110.5q0 -40 -14 -75t-40 -61t-64 -40.5t-85 -14.5t-84.5 14.5t-64 40.5t-40.5 61t-14 75z" />
    <glyph glyph-name="nine" unicode="9" horiz-adv-x="480" 
d="M125 480q0 -28 7 -55t20.5 -48.5t34 -35t48.5 -13.5t49 13.5t34.5 35t20.5 48.5t7 55q0 29 -7 56t-20.5 49t-34.5 35t-49 13t-48.5 -13t-34 -35t-20.5 -49t-7 -56zM72 95q23 -14 50.5 -22t56.5 -8q44 0 77.5 20t56 56.5t34.5 87.5t12 113h-2q-18 -41 -54 -63.5t-84 -22.5
q-44 0 -78 18.5t-57 49t-35 70t-12 80.5q0 58 15.5 101t42.5 72t64 43.5t79 14.5q56 0 95 -23t63.5 -65.5t35.5 -103t11 -136.5q0 -384 -259 -384q-32 0 -62.5 5.5t-53.5 14.5z" />
    <glyph glyph-name="colon" unicode=":" horiz-adv-x="240" 
d="M72 510h96v-112h-96v112zM72 112h96v-112h-96v112z" />
    <glyph glyph-name="semicolon" unicode=";" horiz-adv-x="240" 
d="M76 112h92l-66 -232h-76zM72 510h96v-112h-96v112z" />
    <glyph glyph-name="less" unicode="&#x3c;" horiz-adv-x="600" 
d="M47 285l506 228v-64l-430 -196l430 -196v-64l-506 228v64z" />
    <glyph glyph-name="equal" unicode="=" horiz-adv-x="600" 
d="M47 388h506v-68h-506v68zM47 186h506v-68h-506v68z" />
    <glyph glyph-name="greater" unicode="&#x3e;" horiz-adv-x="600" 
d="M47 57l430 196l-430 196v64l506 -228v-64l-506 -228v64z" />
    <glyph glyph-name="question" unicode="?" horiz-adv-x="444" 
d="M72 677q29 13 63.5 20.5t65.5 7.5q84 0 133.5 -44t49.5 -128q0 -35 -12.5 -74.5t-38.5 -77.5l-58 -85q-10 -13 -16 -24t-9.5 -23t-4.5 -28t-1 -40h-76q0 34 2 58t9 45t20.5 42.5t36.5 49.5q33 42 46.5 72.5t13.5 67.5q0 51 -30 82t-76 31q-26 0 -58 -11t-56 -23zM158 112
h96v-112h-96v112z" />
    <glyph glyph-name="at" unicode="@" horiz-adv-x="800" 
d="M270 291q0 -45 20 -69.5t51 -24.5q36 0 66 21t51.5 52t33.5 67.5t12 66.5q0 42 -21.5 65t-56.5 23q-24 0 -51.5 -15t-50.5 -41.5t-38.5 -63.5t-15.5 -81zM532 267q-5 -12 -7.5 -24.5t-2.5 -23.5q0 -9 5 -15.5t17 -6.5q27 0 53 17t46.5 45.5t32.5 67t12 80.5
q0 54 -19.5 97t-54.5 73.5t-84 47t-108 16.5q-69 0 -126.5 -22t-98 -61t-63 -92.5t-22.5 -116.5t22 -116.5t61 -92.5t91.5 -61t113.5 -22q99 0 161.5 28t103.5 77h62q-48 -80 -133 -124.5t-194 -44.5q-74 0 -139 28t-113 76t-76 113t-28 139t28.5 139t78.5 113t119.5 76
t151.5 28q71 0 132 -23.5t106 -64t70.5 -94.5t25.5 -116q0 -63 -23.5 -113t-57.5 -85t-73 -53.5t-71 -18.5q-65 0 -79 60h-2q-29 -31 -60 -45.5t-70 -14.5q-31 0 -55 12.5t-39.5 33.5t-23.5 47.5t-8 54.5q0 48 16.5 95.5t46.5 86t72.5 62t94.5 23.5q35 0 64 -20t45 -56
l20 60h64z" />
    <glyph glyph-name="A" unicode="A" horiz-adv-x="574" 
d="M338 698l228 -698h-92l-56 182h-266l-56 -182h-88l234 698h96zM395 258l-107 348h-2l-110 -348h219z" />
    <glyph glyph-name="B" unicode="B" horiz-adv-x="519" 
d="M77 698h177q51 0 87.5 -13t60 -36.5t35 -56t11.5 -71.5q0 -57 -31 -98.5t-84 -56.5v-2q57 -8 93.5 -53.5t36.5 -119.5q0 -36 -12.5 -70.5t-39.5 -61.5t-68 -43t-98 -16h-168v698zM165 396h52q74 0 108.5 31.5t34.5 88.5q0 45 -29.5 77.5t-98.5 32.5h-67v-230zM165 72h75
q35 0 60.5 10.5t42 27.5t24.5 39.5t8 47.5q0 54 -30.5 90.5t-94.5 36.5h-85v-252z" />
    <glyph glyph-name="C" unicode="C" horiz-adv-x="537" 
d="M489 14q-32 -10 -64 -15.5t-63 -5.5q-83 0 -142.5 29t-97.5 78.5t-56 114t-18 135.5q0 82 22.5 147.5t63.5 111.5t98 71t125 25q38 0 73 -6.5t59 -18.5v-86q-55 35 -131 35q-43 0 -82.5 -17t-69.5 -50t-48 -81.5t-18 -112.5q0 -67 13.5 -122.5t41.5 -94.5t70 -60.5
t99 -21.5q34 0 66 8.5t59 24.5v-88z" />
    <glyph glyph-name="D" unicode="D" horiz-adv-x="574" 
d="M67 698h152q70 0 113 -14.5t73 -35.5q23 -16 46 -41t41.5 -60t30 -81.5t11.5 -105.5q0 -76 -19 -141.5t-61.5 -114t-111 -76.5t-166.5 -28h-109v698zM155 76h53q116 0 175 74.5t59 209.5q0 55 -12.5 102.5t-40 83t-72 56t-109.5 20.5h-53v-546z" />
    <glyph glyph-name="E" unicode="E" horiz-adv-x="463" 
d="M77 698h325v-76h-237v-222h226v-76h-226v-248h250v-76h-338v698z" />
    <glyph glyph-name="F" unicode="F" horiz-adv-x="426" 
d="M77 698h312v-76h-224v-222h213v-76h-213v-324h-88v698z" />
    <glyph glyph-name="G" unicode="G" horiz-adv-x="612" 
d="M535 29q-31 -11 -78.5 -23.5t-94.5 -12.5q-83 0 -142.5 29t-97.5 78.5t-56 114t-18 135.5q0 82 22.5 147.5t63.5 111.5t98 71t125 25q45 0 86.5 -7t77.5 -24v-88q-40 20 -82.5 31.5t-80.5 11.5q-43 0 -82.5 -17t-69.5 -50t-48 -81.5t-18 -112.5q0 -67 13.5 -122.5
t41.5 -94.5t70 -60.5t99 -21.5q21 0 45.5 5t41.5 14v220h-117v76h201v-355z" />
    <glyph glyph-name="H" unicode="H" horiz-adv-x="574" 
d="M77 698h88v-298h244v298h88v-698h-88v324h-244v-324h-88v698z" />
    <glyph glyph-name="I" unicode="I" horiz-adv-x="242" 
d="M77 698h88v-698h-88v698z" />
    <glyph glyph-name="J" unicode="J" horiz-adv-x="315" 
d="M23 87q11 -3 23.5 -6.5t25.5 -3.5q88 0 88 111v510h88v-515q0 -42 -9 -76.5t-27.5 -60t-47.5 -39.5t-68 -14q-17 0 -36.5 2.5t-36.5 4.5v87z" />
    <glyph glyph-name="K" unicode="K" horiz-adv-x="519" 
d="M67 698h88v-303h2l231 303h105l-262 -330l284 -368h-114l-244 338h-2v-338h-88v698z" />
    <glyph glyph-name="L" unicode="L" horiz-adv-x="407" 
d="M77 698h88v-622h229v-76h-317v698z" />
    <glyph glyph-name="M" unicode="M" horiz-adv-x="778" 
d="M77 698h136l175 -555h2l179 555h132v-698h-84v602h-2l-198 -602h-64l-190 602h-2v-602h-84v698z" />
    <glyph glyph-name="N" unicode="N" horiz-adv-x="612" 
d="M77 698h109l263 -576h2v576h84v-698h-109l-263 572h-2v-572h-84v698z" />
    <glyph glyph-name="O" unicode="O" horiz-adv-x="612" 
d="M48 342q0 182 68.5 272.5t193.5 90.5q58 0 105 -24t80 -69.5t51 -110t18 -145.5q0 -182 -68.5 -272.5t-193.5 -90.5q-58 0 -105 24t-80 69.5t-51 110t-18 145.5zM140 342q0 -53 8.5 -103t28 -88.5t50.5 -62t75 -23.5q35 0 65.5 15t54 49.5t37 90t13.5 136.5
q0 53 -8.5 103t-28 88.5t-50.5 62t-75 23.5q-34 0 -65 -15t-54.5 -49.5t-37 -90t-13.5 -136.5z" />
    <glyph glyph-name="P" unicode="P" horiz-adv-x="481" 
d="M77 698h168q53 0 88 -14t63 -40q26 -26 40.5 -62t14.5 -82q0 -103 -57.5 -155.5t-169.5 -52.5h-59v-292h-88v698zM165 364h48q80 0 113 35t33 93q0 72 -38 103t-106 31h-50v-262z" />
    <glyph glyph-name="Q" unicode="Q" horiz-adv-x="612" 
d="M442 -130l-105 127l-8 -2t-9 -1t-9 -0.5t-9 -0.5q-58 0 -105 24t-80 69.5t-51 110t-18 145.5q0 182 68.5 272.5t193.5 90.5q58 0 105 -24t80 -69.5t51 -110t18 -145.5q0 -134 -38 -218.5t-110 -119.5l134 -148h-108zM140 342q0 -53 8.5 -103t28 -88.5t50.5 -62t75 -23.5
q35 0 65.5 15t54 49.5t37 90t13.5 136.5q0 53 -8.5 103t-28 88.5t-50.5 62t-75 23.5q-34 0 -65 -15t-54.5 -49.5t-37 -90t-13.5 -136.5z" />
    <glyph glyph-name="R" unicode="R" horiz-adv-x="519" 
d="M77 698h179q56 0 89.5 -12.5t57.5 -35.5q27 -26 39.5 -60.5t12.5 -72.5q0 -28 -7 -54.5t-23.5 -48.5t-42.5 -39t-65 -25v-2q32 -6 48.5 -22t27.5 -46l98 -280h-95l-80 236q-15 44 -38 62t-73 18h-40v-316h-88v698zM165 388h68q35 0 60 10.5t40.5 28t22.5 39.5t7 45
q0 59 -35 87t-93 28h-70v-238z" />
    <glyph glyph-name="S" unicode="S" horiz-adv-x="444" 
d="M365 597q-25 15 -56 23.5t-63 8.5q-50 0 -79.5 -29.5t-29.5 -74.5q0 -17 4.5 -31.5t17 -29.5t36 -31.5t60.5 -38.5q81 -46 112.5 -94.5t31.5 -108.5q0 -42 -13 -78t-38.5 -62.5t-63.5 -42t-88 -15.5q-42 0 -80 8t-66 22v91q30 -18 66 -31.5t67 -13.5q30 0 53 9t38.5 24.5
t24 35.5t8.5 41q0 20 -3.5 37t-15 33t-33 33.5t-56.5 38.5q-47 29 -77 52.5t-47 47t-23.5 49.5t-6.5 60q0 43 15.5 76t42 55t61.5 33t75 11q35 0 69 -6.5t57 -16.5v-85z" />
    <glyph glyph-name="T" unicode="T" horiz-adv-x="444" 
d="M178 622h-160v76h408v-76h-160v-622h-88v622z" />
    <glyph glyph-name="U" unicode="U" horiz-adv-x="592" 
d="M515 257q0 -52 -5 -85.5t-23 -70.5q-22 -43 -68.5 -75.5t-122.5 -32.5t-122.5 32.5t-68.5 75.5q-18 37 -23 70.5t-5 85.5v441h88v-454q0 -82 34 -130.5t97 -48.5t97 48.5t34 130.5v454h88v-441z" />
    <glyph glyph-name="V" unicode="V" horiz-adv-x="537" 
d="M9 698h96l162 -569h2l171 569h88l-219 -698h-88z" />
    <glyph glyph-name="W" unicode="W" horiz-adv-x="796" 
d="M9 698h92l114 -566h2l125 566h112l125 -566h2l122 566h84l-152 -698h-104l-132 598h-2l-132 -598h-104z" />
    <glyph glyph-name="X" unicode="X" horiz-adv-x="537" 
d="M218 369l-187 329h104l146 -257l140 257h97l-195 -330l208 -368h-104l-164 291l-157 -291h-100z" />
    <glyph glyph-name="Y" unicode="Y" horiz-adv-x="518" 
d="M215 293l-209 405h100l154 -309l155 309h97l-209 -405v-293h-88v293z" />
    <glyph glyph-name="Z" unicode="Z" horiz-adv-x="463" 
d="M34 83l284 539h-275v76h380v-76l-293 -546h299v-76h-395v83z" />
    <glyph glyph-name="bracketleft" unicode="[" horiz-adv-x="278" 
d="M90 756h152v-60h-80v-776h80v-60h-152v896z" />
    <glyph glyph-name="backslash" unicode="\" horiz-adv-x="259" 
d="M0 705h74l185 -712h-74z" />
    <glyph glyph-name="bracketright" unicode="]" horiz-adv-x="278" 
d="M36 -80h80v776h-80v60h152v-896h-152v60z" />
    <glyph glyph-name="asciicircum" unicode="^" horiz-adv-x="600" 
d="M268 698h64l221 -433h-72l-181 365l-181 -365h-72z" />
    <glyph glyph-name="underscore" unicode="_" horiz-adv-x="500" 
d="M0 -75h500v-50h-500v50z" />
    <glyph glyph-name="grave" unicode="`" horiz-adv-x="204" 
d="M88 580l-102 145h94l72 -145h-64z" />
    <glyph glyph-name="a" unicode="a" horiz-adv-x="463" 
d="M81 475q32 20 69 31t75 11q28 0 50.5 -5t39.5 -12.5t28.5 -16t17.5 -14.5q17 -16 30.5 -43.5t13.5 -81.5v-266q0 -23 1 -43.5t3 -34.5h-76l-5 69h-2q-17 -29 -50.5 -52.5t-92.5 -23.5q-63 0 -105 37t-42 110q0 37 13 68.5t41.5 54.5t74 36t111.5 13h49v23q0 29 -3.5 47
t-15.5 35q-13 17 -36 24.5t-49 7.5q-39 0 -74 -14.5t-57 -38.5zM325 250q-11 2 -26.5 2h-32.5q-75 0 -110.5 -30.5t-35.5 -75.5q0 -41 21 -65t65 -24q27 0 49 10.5t37.5 28t24 41t8.5 49.5v64z" />
    <glyph glyph-name="b" unicode="b" horiz-adv-x="481" 
d="M137 255q0 -97 27 -145.5t85 -48.5t85 48.5t27 145.5t-27 145.5t-85 48.5t-85 -48.5t-27 -145.5zM53 750h84v-310h2q26 41 56 59t74 18q79 0 127.5 -65t48.5 -197t-48.5 -197t-127.5 -65q-28 0 -49 7t-37.5 19t-28 26.5t-19.5 29.5h-2l-3 -75h-81q1 23 2.5 47t1.5 47v656
z" />
    <glyph glyph-name="c" unicode="c" horiz-adv-x="389" 
d="M361 421q-22 12 -45 18t-52 6q-61 0 -100.5 -45.5t-39.5 -149.5q0 -89 38 -137t100 -48q30 0 55.5 8t47.5 19l4 -77q-19 -8 -49 -15t-58 -7q-57 0 -99.5 20t-70.5 54.5t-42 81.5t-14 101q0 62 15.5 111.5t45 84t72 53t95.5 18.5q26 0 53.5 -5t47.5 -15z" />
    <glyph glyph-name="d" unicode="d" horiz-adv-x="481" 
d="M344 255q0 97 -27 145.5t-85 48.5t-85 -48.5t-27 -145.5t27 -145.5t85 -48.5t85 48.5t27 145.5zM428 94q0 -23 1.5 -47t2.5 -47h-81l-3 75h-2q-8 -15 -19.5 -29.5t-28 -26.5t-37.5 -19t-49 -7q-79 0 -127.5 65t-48.5 197t48.5 197t127.5 65q44 0 74 -18t56 -59h2v310h84
v-656z" />
    <glyph glyph-name="e" unicode="e" horiz-adv-x="444" 
d="M124 230q0 -89 34.5 -131t104.5 -42q32 0 63.5 13t53.5 29l4 -76q-30 -14 -67.5 -22t-75.5 -8q-101 0 -153 71t-52 191q0 60 13 108.5t38 82.5t61.5 52.5t84.5 18.5q87 0 133 -64.5t46 -177.5v-45h-288zM328 294q0 159 -100 159q-20 0 -38.5 -8t-33 -27t-23 -49t-9.5 -75
h204z" />
    <glyph glyph-name="f" unicode="f" horiz-adv-x="278" 
d="M97 442h-81v68h81v114q0 63 30 100.5t97 37.5q36 0 66 -8v-72q-8 6 -20.5 9t-27.5 3q-35 0 -48 -19.5t-13 -57.5v-107h92v-68h-92v-442h-84v442z" />
    <glyph glyph-name="g" unicode="g" horiz-adv-x="481" 
d="M120 255q0 -97 27 -145.5t85 -48.5t85 48.5t27 145.5t-27 145.5t-85 48.5t-85 -48.5t-27 -145.5zM428 -22q0 -53 -18.5 -91t-48.5 -62t-69.5 -35.5t-81.5 -11.5q-16 0 -36 2.5t-40.5 7t-39.5 10t-33 11.5l4 85q27 -18 66 -31t74 -13q77 0 110 41.5t33 107.5v80h-2
q-49 -86 -134 -86q-79 0 -127.5 65t-48.5 197q0 133 49.5 197.5t135.5 64.5q38 0 71 -22t54 -59h2l3 74h81q-1 -23 -2.5 -46.5t-1.5 -46.5v-439z" />
    <glyph glyph-name="h" unicode="h" 
d="M61 750h84v-310h2q17 32 48.5 54.5t76.5 22.5q67 0 108 -39t41 -124v-354h-84v329q0 61 -21.5 88.5t-62.5 27.5q-50 0 -79 -34.5t-29 -103.5v-307h-84v750z" />
    <glyph glyph-name="i" unicode="i" horiz-adv-x="222" 
d="M69 510h84v-510h-84v510zM157 720v-100h-92v100h92z" />
    <glyph glyph-name="j" unicode="j" horiz-adv-x="222" 
d="M-12 -145q8 -2 17.5 -3.5t19.5 -1.5q26 0 35 14t9 53v593h84v-604q0 -65 -24 -96.5t-93 -31.5q-27 0 -48 9v68zM157 720v-100h-92v100h92z" />
    <glyph glyph-name="k" unicode="k" horiz-adv-x="444" 
d="M320 510h98l-200 -228l218 -282h-104l-185 257h-2v-257h-84v750h84v-445z" />
    <glyph glyph-name="l" unicode="l" horiz-adv-x="222" 
d="M69 750h84v-750h-84v750z" />
    <glyph glyph-name="m" unicode="m" horiz-adv-x="722" 
d="M61 400q0 28 -1.5 55.5t-2.5 54.5h81l3 -76h2q20 44 52 63.5t74 19.5q80 0 120 -80q20 38 50 59t74 21q66 0 107 -39t41 -124v-354h-84v350q0 49 -20 72t-58 23q-47 0 -71.5 -30.5t-24.5 -99.5v-315h-84v350q0 49 -20 72t-58 23q-47 0 -71.5 -30.5t-24.5 -99.5v-315h-84
v400z" />
    <glyph glyph-name="n" unicode="n" 
d="M61 400q0 28 -1.5 55.5t-2.5 54.5h81l3 -76h2q20 44 52 63.5t77 19.5q67 0 108 -39t41 -124v-354h-84v329q0 61 -21.5 88.5t-62.5 27.5q-50 0 -79 -34.5t-29 -103.5v-307h-84v400z" />
    <glyph glyph-name="o" unicode="o" 
d="M124 255q0 -97 28.5 -145.5t88.5 -48.5t88.5 48.5t28.5 145.5t-28.5 145.5t-88.5 48.5t-88.5 -48.5t-28.5 -145.5zM36 255q0 120 52 191t153 71t153 -71t52 -191t-52 -191t-153 -71t-153 71t-52 191z" />
    <glyph glyph-name="p" unicode="p" horiz-adv-x="481" 
d="M137 255q0 -97 27 -145.5t85 -48.5t85 48.5t27 145.5t-27 145.5t-85 48.5t-85 -48.5t-27 -145.5zM53 416q0 23 -1.5 47t-2.5 47h81l3 -75h2q8 15 19.5 29.5t28 26.5t37.5 19t49 7q79 0 127.5 -65t48.5 -197t-48.5 -197t-127.5 -65q-44 0 -74 18t-56 59h-2v-286h-84v632z
" />
    <glyph glyph-name="q" unicode="q" horiz-adv-x="481" 
d="M344 255q0 97 -27 145.5t-85 48.5t-85 -48.5t-27 -145.5t27 -145.5t85 -48.5t85 48.5t27 145.5zM344 70h-2q-26 -41 -56 -59t-74 -18q-79 0 -127.5 65t-48.5 197t48.5 197t127.5 65q28 0 49 -7t37.5 -19t28 -26.5t19.5 -29.5h2l3 75h81q-1 -23 -2.5 -47t-1.5 -47v-632
h-84v286z" />
    <glyph glyph-name="r" unicode="r" horiz-adv-x="296" 
d="M61 400q0 28 -1.5 55.5t-2.5 54.5h81l3 -80h2q20 47 54 67t91 20v-83q-15 3 -32 3q-49 0 -80 -41.5t-31 -125.5v-270h-84v400z" />
    <glyph glyph-name="s" unicode="s" horiz-adv-x="370" 
d="M39 99q29 -17 58.5 -27.5t61.5 -10.5q48 0 72.5 21.5t24.5 50.5q0 26 -15 45t-50 35l-56 25q-55 25 -77.5 53.5t-22.5 77.5q0 32 11.5 59t33 46.5t52 31t67.5 11.5q32 0 59 -5t49 -13l-4 -72q-20 9 -45.5 15.5t-54.5 6.5q-42 0 -63 -20t-21 -50q0 -31 22 -50t64 -36
l30 -12q47 -19 74 -50.5t27 -79.5q0 -33 -9 -62t-29 -50t-51 -33.5t-75 -12.5q-40 0 -75 8t-63 22z" />
    <glyph glyph-name="t" unicode="t" horiz-adv-x="296" 
d="M286 6q-15 -5 -34.5 -9t-36.5 -4q-58 0 -88 26.5t-30 94.5v328h-81v68h81v104l84 25v-129h105v-68h-105v-301q0 -44 12 -62t41 -18q16 0 28 4t24 9v-68z" />
    <glyph glyph-name="u" unicode="u" 
d="M421 110q0 -28 1.5 -55.5t2.5 -54.5h-81l-3 76h-2q-20 -44 -52 -63.5t-77 -19.5q-67 0 -108 39t-41 124v354h84v-329q0 -61 21.5 -88.5t62.5 -27.5q50 0 79 34.5t29 103.5v307h84v-400z" />
    <glyph glyph-name="v" unicode="v" horiz-adv-x="426" 
d="M9 510h92l112 -426h2l114 426h88l-153 -510h-100z" />
    <glyph glyph-name="w" unicode="w" horiz-adv-x="685" 
d="M543 0h-96l-107 431h-2l-98 -431h-96l-135 510h88l97 -426h2l97 426h100l101 -426h2l96 426h84z" />
    <glyph glyph-name="x" unicode="x" horiz-adv-x="426" 
d="M160 274l-136 236h92l98 -184l98 184h92l-142 -239l155 -271h-96l-113 211l-107 -211h-92z" />
    <glyph glyph-name="y" unicode="y" horiz-adv-x="407" 
d="M221 -104q-19 -66 -48 -92t-77 -26q-15 0 -30.5 1.5t-26.5 4.5l4 76q22 -10 46 -10q18 0 31.5 12t24.5 52l20 78l-161 518h88l114 -416h2l106 416h84z" />
    <glyph glyph-name="z" unicode="z" horiz-adv-x="389" 
d="M353 510v-76l-236 -362h241v-72h-327v76l236 362h-228v72h314z" />
    <glyph glyph-name="braceleft" unicode="{" horiz-adv-x="278" 
d="M269 710h-38q-29 0 -40 -15.5t-11 -57.5v-187q0 -36 -9 -62t-22 -42.5t-28 -25.5t-26 -11v-2q11 -2 26 -11t28 -25.5t22 -42.5t9 -62v-187q0 -42 11 -57.5t40 -15.5h38v-46h-59q-43 0 -72.5 31.5t-29.5 89.5v169q0 63 -18.5 99t-58.5 36v46q40 0 58.5 36t18.5 99v169
q0 58 29.5 89.5t72.5 31.5h59v-46z" />
    <glyph glyph-name="bar" unicode="|" horiz-adv-x="222" 
d="M73 750h76v-1000h-76v1000z" />
    <glyph glyph-name="braceright" unicode="}" horiz-adv-x="278" 
d="M9 -94h38q29 0 40 15.5t11 57.5v187q0 36 9 62t22 42.5t28 25.5t26 11v2q-11 2 -26 11t-28 25.5t-22 42.5t-9 62v187q0 42 -11 57.5t-40 15.5h-38v46h59q43 0 72.5 -31.5t29.5 -89.5v-169q0 -63 18.5 -99t58.5 -36v-46q-40 0 -58.5 -36t-18.5 -99v-169q0 -58 -29.5 -89.5
t-72.5 -31.5h-59v46z" />
    <glyph glyph-name="asciitilde" unicode="~" horiz-adv-x="600" 
d="M531 273q-26 -48 -58 -69.5t-67 -21.5q-21 0 -44.5 7.5t-69.5 29.5q-43 21 -64.5 29t-41.5 8q-18 0 -37 -16t-44 -58l-36 51q28 49 57.5 70t67.5 21q14 0 26 -2t24.5 -6t28 -11t35.5 -17q43 -21 64 -29.5t35 -8.5q17 0 40 17.5t48 56.5z" />
    <glyph glyph-name="exclamdown" unicode="&#xa1;" horiz-adv-x="352" 
d="M126 -188l14 512h72l14 -512h-100zM128 510h96v-112h-96v112z" />
    <glyph glyph-name="cent" unicode="&#xa2;" horiz-adv-x="480" 
d="M287 445q-58 -3 -95 -49t-37 -146q0 -65 21 -108t56 -62zM392 421q-29 17 -62 21l-56 -375q5 -2 9.5 -2h9.5q30 0 55.5 8t47.5 19l4 -77q-19 -8 -49 -15t-58 -7h-15t-15 2l-19 -123h-44l20 132q-39 11 -67.5 34t-47.5 55.5t-28.5 72t-9.5 84.5q0 62 15.5 111.5t45 84
t72 53t95.5 18.5h3l17 115h44l-18 -119q31 -5 55 -16z" />
    <glyph glyph-name="sterling" unicode="&#xa3;" horiz-adv-x="480" 
d="M52 72h70v264h-70v64h70v85q0 59 16.5 101t44.5 68.5t65 38.5t78 12q31 0 62.5 -7t54.5 -16l-9 -76q-17 11 -47 21t-55 10q-54 0 -90 -34.5t-36 -110.5v-92h160v-64h-160v-264h231v-72h-385v72z" />
    <glyph glyph-name="currency" unicode="&#xa4;" horiz-adv-x="480" 
d="M76 349q0 -37 12.5 -68t34 -53t51.5 -34.5t66 -12.5t66 12.5t51.5 34.5t34 53t12.5 68t-12.5 68t-34 53t-51.5 34.5t-66 12.5t-66 -12.5t-51.5 -34.5t-34 -53t-12.5 -68zM5 155l52 52q-23 29 -36 65t-13 77q0 40 13 76t36 66l-52 52l40 40l53 -52q29 24 65 37t77 13
t77.5 -13t65.5 -37l52 52l40 -40l-52 -52q23 -29 36 -65t13 -77t-13 -77t-37 -65l53 -52l-40 -40l-52 52q-29 -24 -65.5 -37t-77.5 -13t-77 13t-65 37l-53 -52z" />
    <glyph glyph-name="yen" unicode="&#xa5;" horiz-adv-x="480" 
d="M199 142h-152v64h152v72h-152v64h129l-170 356h92l142 -306l142 306h92l-168 -356h127v-64h-150v-72h150v-64h-150v-142h-84v142z" />
    <glyph glyph-name="brokenbar" unicode="&#xa6;" horiz-adv-x="222" 
d="M73 175h76v-350h-76v350zM73 675h76v-350h-76v350z" />
    <glyph glyph-name="section" unicode="&#xa7;" horiz-adv-x="480" 
d="M73 -16q59 -44 134 -44q49 0 77.5 23.5t28.5 63.5q0 21 -10.5 39t-37.5 35l-117 70q-47 28 -65 59.5t-18 64.5q0 34 17.5 68.5t72.5 75.5q-35 18 -51 47.5t-16 67.5q0 30 11 57t32 48t53 33.5t74 12.5q15 0 33.5 -2.5t36.5 -6.5t33.5 -9.5t23.5 -10.5l-10 -77
q-59 34 -110 34q-42 0 -67.5 -21t-25.5 -56q0 -19 10.5 -36.5t39.5 -35.5l90 -57q27 -17 47 -32t32.5 -31t19 -35t6.5 -44q0 -22 -10 -43.5t-23.5 -39.5t-28 -31.5t-24.5 -21.5q26 -16 46 -42.5t20 -76.5q0 -38 -14 -68t-39 -51t-58 -32t-71 -11q-40 0 -80 10.5t-72 27.5z
M149 310q0 -16 5.5 -30.5t20 -29.5t41 -32t68.5 -39q25 24 35 48t10 50q0 17 -6 32t-20.5 30t-39 32t-61.5 36q-29 -24 -41 -47.5t-12 -49.5z" />
    <glyph glyph-name="dieresis" unicode="&#xa8;" horiz-adv-x="204" 
d="M-18 715h80v-100h-80v100zM142 715h80v-100h-80v100z" />
    <glyph glyph-name="copyright" unicode="&#xa9;" horiz-adv-x="800" 
d="M588 281q-14 -72 -61.5 -113t-113.5 -41q-48 0 -87.5 17t-67.5 47t-43 70.5t-15 87.5q0 48 14.5 89t41.5 70.5t66 46.5t88 17q68 0 118 -37.5t60 -111.5h-60q-8 43 -39 69.5t-78 26.5q-70 0 -106.5 -47.5t-36.5 -121.5q0 -34 10 -65t29 -54.5t45.5 -37t60.5 -13.5
q47 0 77 28t38 73h60zM44 349q0 74 28 139t76 113t113 76t139 28t139 -28t113 -76t76 -113t28 -139t-28 -139t-76 -113t-113 -76t-139 -28t-139 28t-113 76t-76 113t-28 139zM112 349q0 -63 22 -116.5t61 -92.5t91.5 -61t113.5 -22t113.5 22t91.5 61t61 92.5t22 116.5
t-22 116.5t-61 92.5t-91.5 61t-113.5 22t-113.5 -22t-91.5 -61t-61 -92.5t-22 -116.5z" />
    <glyph glyph-name="ordfeminine" unicode="&#xaa;" horiz-adv-x="296" 
d="M52 680q42 25 98 25q121 0 121 -104v-159q0 -14 1 -26t2 -20h-54l-3 43h-2q-10 -21 -33.5 -34t-58.5 -13q-45 0 -73 21.5t-28 65.5q0 51 35.5 78.5t120.5 27.5h37v20q0 31 -18.5 42.5t-50.5 11.5q-28 0 -51 -8.5t-37 -22.5zM215 543q-7 2 -17 2h-21q-95 0 -95 -58
q0 -23 13.5 -37.5t42.5 -14.5q35 0 56 22.5t21 49.5v36z" />
    <glyph glyph-name="guillemotleft" unicode="&#xab;" horiz-adv-x="500" 
d="M236 260l112 206h72l-100 -206l100 -206h-72zM80 260l112 206h72l-100 -206l100 -206h-72z" />
    <glyph glyph-name="logicalnot" unicode="&#xac;" horiz-adv-x="600" 
d="M47 388h506v-274h-68v206h-438v68z" />
    <glyph glyph-name="registered" unicode="&#xae;" horiz-adv-x="800" 
d="M264 558h160q143 0 143 -117q0 -51 -29.5 -83t-78.5 -32l119 -185h-72l-115 185h-59v-185h-68v417zM332 379h81q39 0 62.5 12t23.5 53q0 35 -23.5 48t-62.5 13h-81v-126zM44 349q0 74 28 139t76 113t113 76t139 28t139 -28t113 -76t76 -113t28 -139t-28 -139t-76 -113
t-113 -76t-139 -28t-139 28t-113 76t-76 113t-28 139zM112 349q0 -63 22 -116.5t61 -92.5t91.5 -61t113.5 -22t113.5 22t91.5 61t61 92.5t22 116.5t-22 116.5t-61 92.5t-91.5 61t-113.5 22t-113.5 -22t-91.5 -61t-61 -92.5t-22 -116.5z" />
    <glyph glyph-name="macron" unicode="&#xaf;" horiz-adv-x="204" 
d="M-30 684h264v-60h-264v60z" />
    <glyph glyph-name="degree" unicode="&#xb0;" horiz-adv-x="400" 
d="M42 547q0 33 12.5 61.5t34 50t50 34t61.5 12.5t61.5 -12.5t50 -34t34 -50t12.5 -61.5t-12.5 -61.5t-34 -50t-50 -34t-61.5 -12.5t-61.5 12.5t-50 34t-34 50t-12.5 61.5zM98 547q0 -21 8 -39.5t22 -32.5t32.5 -22t39.5 -8t39.5 8t32.5 22t22 32.5t8 39.5t-8 39.5t-22 32.5
t-32.5 22t-39.5 8t-39.5 -8t-32.5 -22t-22 -32.5t-8 -39.5z" />
    <glyph glyph-name="plusminus" unicode="&#xb1;" horiz-adv-x="600" 
d="M47 338h219v168h68v-168h219v-68h-219v-169h-68v169h-219v68zM47 68h506v-68h-506v68z" />
    <glyph glyph-name="twosuperior" unicode="&#xb2;" horiz-adv-x="288" 
d="M20 328q87 92 129.5 155t42.5 103q0 26 -16.5 46.5t-50.5 20.5q-20 0 -43.5 -9t-43.5 -23l-7 57q29 14 57.5 20.5t49.5 6.5q59 0 90.5 -31t31.5 -75q0 -26 -12.5 -58.5t-35 -67.5t-53.5 -70.5t-68 -68.5h177v-52h-248v46z" />
    <glyph glyph-name="threesuperior" unicode="&#xb3;" horiz-adv-x="288" 
d="M25 350q23 -11 45 -17.5t42 -6.5q36 0 64 22.5t28 59.5q0 29 -23 47.5t-65 18.5h-42v48h23q52 0 78 19.5t26 48.5q0 30 -22 48.5t-56 18.5q-18 0 -40.5 -6.5t-42.5 -17.5l-6 55q23 9 49 13t55 4q54 0 90.5 -25.5t36.5 -78.5q0 -43 -24 -67t-60 -31v-2q42 -5 64.5 -34
t22.5 -69q0 -49 -36.5 -84.5t-110.5 -35.5q-28 0 -55 4t-46 11z" />
    <glyph glyph-name="acute" unicode="&#xb4;" horiz-adv-x="204" 
d="M124 725h94l-102 -145h-64z" />
    <glyph glyph-name="mu" unicode="&#xb5;" 
d="M61 510h84v-329q0 -61 21.5 -88.5t62.5 -27.5q50 0 79 34.5t29 103.5v307h84v-400q0 -28 1.5 -55.5t2.5 -54.5h-81l-3 76h-2q-20 -44 -51.5 -63.5t-71.5 -19.5q-24 0 -42 8.5t-27 22.5h-2v-240h-84v726z" />
    <glyph glyph-name="paragraph" unicode="&#xb6;" horiz-adv-x="555" 
d="M243 320q-45 0 -83.5 14.5t-66 39.5t-43 59t-15.5 73q0 98 61.5 145t166.5 47h215v-823h-64v767h-107v-767h-64v445z" />
    <glyph glyph-name="periodcentered" unicode="&#xb7;" horiz-adv-x="240" 
d="M56 298q0 26 19 45t45 19t45 -19t19 -45t-19 -45t-45 -19t-45 19t-19 45z" />
    <glyph glyph-name="cedilla" unicode="&#xb8;" horiz-adv-x="204" 
d="M153 0l-41 -60q14 3 29 3q35 0 60 -18.5t25 -53.5q0 -36 -30 -61.5t-89 -25.5q-26 0 -49.5 6t-38.5 12l14 35q15 -5 32 -9t31 -4q26 0 42 12.5t16 29.5q0 37 -44 37q-26 0 -43 -7l-15 19l57 85h44z" />
    <glyph glyph-name="onesuperior" unicode="&#xb9;" horiz-adv-x="288" 
d="M126 634l-58 -60l-29 45l93 82h62v-419h-68v352z" />
    <glyph glyph-name="ordmasculine" unicode="&#xba;" horiz-adv-x="314" 
d="M87 548q0 -110 70 -110t70 110q0 111 -70 111t-70 -111zM19 548q0 72 34.5 114.5t103.5 42.5t103.5 -42.5t34.5 -114.5t-34.5 -114t-103.5 -42t-103.5 42t-34.5 114z" />
    <glyph glyph-name="guillemotright" unicode="&#xbb;" horiz-adv-x="500" 
d="M180 260l-100 206h72l112 -206l-112 -206h-72zM336 260l-100 206h72l112 -206l-112 -206h-72z" />
    <glyph glyph-name="onequarter" unicode="&#xbc;" horiz-adv-x="721" 
d="M602 90h-178v55l163 274h79v-281h49v-48h-49v-90h-64v90zM602 359h-2l-122 -221h124v221zM485 731h64l-313 -764h-64zM126 634l-58 -60l-29 45l93 82h62v-419h-68v352z" />
    <glyph glyph-name="onehalf" unicode="&#xbd;" horiz-adv-x="721" 
d="M485 731h64l-313 -764h-64zM126 634l-58 -60l-29 45l93 82h62v-419h-68v352zM453 46q87 92 129.5 155t42.5 103q0 26 -16.5 46.5t-50.5 20.5q-20 0 -43.5 -9t-43.5 -23l-7 57q29 14 57.5 20.5t49.5 6.5q59 0 90.5 -31t31.5 -75q0 -26 -12.5 -58.5t-35 -67.5t-53.5 -70.5
t-68 -68.5h177v-52h-248v46z" />
    <glyph glyph-name="threequarters" unicode="&#xbe;" horiz-adv-x="721" 
d="M602 90h-178v55l163 274h79v-281h49v-48h-49v-90h-64v90zM602 359h-2l-122 -221h124v221zM485 731h64l-313 -764h-64zM25 350q23 -11 45 -17.5t42 -6.5q36 0 64 22.5t28 59.5q0 29 -23 47.5t-65 18.5h-42v48h23q52 0 78 19.5t26 48.5q0 30 -22 48.5t-56 18.5
q-18 0 -40.5 -6.5t-42.5 -17.5l-6 55q23 9 49 13t55 4q54 0 90.5 -25.5t36.5 -78.5q0 -43 -24 -67t-60 -31v-2q42 -5 64.5 -34t22.5 -69q0 -49 -36.5 -84.5t-110.5 -35.5q-28 0 -55 4t-46 11z" />
    <glyph glyph-name="questiondown" unicode="&#xbf;" horiz-adv-x="444" 
d="M276 329q0 -34 -2 -58t-9 -45t-20.5 -42t-36.5 -50q-33 -42 -46.5 -72.5t-13.5 -67.5q0 -51 30 -82t76 -31q26 0 58 11t56 23l4 -82q-29 -13 -63.5 -20.5t-65.5 -7.5q-84 0 -133.5 44t-49.5 128q0 35 12.5 74.5t38.5 77.5l58 85q10 14 16 24.5t9.5 22.5t4.5 28t1 40h76z
M286 398h-96v112h96v-112z" />
    <glyph glyph-name="Agrave" unicode="&#xc0;" horiz-adv-x="574" 
d="M338 698l228 -698h-92l-56 182h-266l-56 -182h-88l234 698h96zM395 258l-107 348h-2l-110 -348h219zM278 738l-102 109h103l67 -109h-68z" />
    <glyph glyph-name="Aacute" unicode="&#xc1;" horiz-adv-x="574" 
d="M338 698l228 -698h-92l-56 182h-266l-56 -182h-88l234 698h96zM395 258l-107 348h-2l-110 -348h219zM305 847h103l-102 -109h-68z" />
    <glyph glyph-name="Acircumflex" unicode="&#xc2;" horiz-adv-x="574" 
d="M338 698l228 -698h-92l-56 182h-266l-56 -182h-88l234 698h96zM395 258l-107 348h-2l-110 -348h219zM331 847l92 -109h-73l-65 66l-65 -66h-73l92 109h92z" />
    <glyph glyph-name="Atilde" unicode="&#xc3;" horiz-adv-x="574" 
d="M338 698l228 -698h-92l-56 182h-266l-56 -182h-88l234 698h96zM395 258l-107 348h-2l-110 -348h219zM433 848q-8 -50 -28.5 -78.5t-56.5 -28.5q-12 0 -26.5 3.5t-42.5 17.5q-23 11 -31 14t-16 3q-14 0 -25.5 -9.5t-13.5 -33.5h-52q5 51 29 79t66 28q14 0 30 -5t46 -20
q15 -8 22.5 -10.5t12.5 -2.5q25 0 34 43h52z" />
    <glyph glyph-name="Adieresis" unicode="&#xc4;" horiz-adv-x="574" 
d="M338 698l228 -698h-92l-56 182h-266l-56 -182h-88l234 698h96zM395 258l-107 348h-2l-110 -348h219zM167 841h80v-100h-80v100zM327 841h80v-100h-80v100z" />
    <glyph glyph-name="Aring" unicode="&#xc5;" horiz-adv-x="574" 
d="M338 698l228 -698h-92l-56 182h-266l-56 -182h-88l234 698h96zM395 258l-107 348h-2l-110 -348h219zM207 789q0 34 23.5 57.5t57.5 23.5t57.5 -23.5t23.5 -57.5t-23.5 -57.5t-57.5 -23.5t-57.5 23.5t-23.5 57.5zM242 789q0 -19 13.5 -32.5t32.5 -13.5t32.5 13.5
t13.5 32.5t-13.5 32.5t-32.5 13.5t-32.5 -13.5t-13.5 -32.5z" />
    <glyph glyph-name="AE" unicode="&#xc6;" horiz-adv-x="778" 
d="M356 698h365v-76h-221v-222h209v-76h-209v-248h230v-76h-318v182h-217l-89 -182h-98zM228 258h184v376h-2z" />
    <glyph glyph-name="Ccedilla" unicode="&#xc7;" horiz-adv-x="537" 
d="M489 14q-32 -10 -64 -15.5t-63 -5.5h-13.5t-12.5 1l-37 -54q14 3 29 3q35 0 60 -18.5t25 -53.5q0 -36 -30 -61.5t-89 -25.5q-26 0 -49.5 6t-38.5 12l14 35q15 -5 32 -9t31 -4q26 0 42 12.5t16 29.5q0 37 -44 37q-26 0 -43 -7l-15 19l56 84q-65 12 -111.5 44.5t-76.5 80
t-44.5 105.5t-14.5 121q0 82 22.5 147.5t63.5 111.5t98 71t125 25q38 0 73 -6.5t59 -18.5v-86q-55 35 -131 35q-43 0 -82.5 -17t-69.5 -50t-48 -81.5t-18 -112.5q0 -67 13.5 -122.5t41.5 -94.5t70 -60.5t99 -21.5q34 0 66 8.5t59 24.5v-88z" />
    <glyph glyph-name="Egrave" unicode="&#xc8;" horiz-adv-x="463" 
d="M77 698h325v-76h-237v-222h226v-76h-226v-248h250v-76h-338v698zM246 738l-102 109h103l67 -109h-68z" />
    <glyph glyph-name="Eacute" unicode="&#xc9;" horiz-adv-x="463" 
d="M77 698h325v-76h-237v-222h226v-76h-226v-248h250v-76h-338v698zM275 847h103l-102 -109h-68z" />
    <glyph glyph-name="Ecircumflex" unicode="&#xca;" horiz-adv-x="463" 
d="M77 698h325v-76h-237v-222h226v-76h-226v-248h250v-76h-338v698zM288 847l92 -109h-73l-65 66l-65 -66h-73l92 109h92z" />
    <glyph glyph-name="Edieresis" unicode="&#xcb;" horiz-adv-x="463" 
d="M77 698h325v-76h-237v-222h226v-76h-226v-248h250v-76h-338v698zM124 841h80v-100h-80v100zM284 841h80v-100h-80v100z" />
    <glyph glyph-name="Igrave" unicode="&#xcc;" horiz-adv-x="242" 
d="M77 698h88v-698h-88v698zM110 738l-102 109h103l67 -109h-68z" />
    <glyph glyph-name="Iacute" unicode="&#xcd;" horiz-adv-x="242" 
d="M77 698h88v-698h-88v698zM139 847h103l-102 -109h-68z" />
    <glyph glyph-name="Icircumflex" unicode="&#xce;" horiz-adv-x="242" 
d="M77 698h88v-698h-88v698zM166 847l92 -109h-73l-65 66l-65 -66h-73l92 109h92z" />
    <glyph glyph-name="Idieresis" unicode="&#xcf;" horiz-adv-x="242" 
d="M77 698h88v-698h-88v698zM1 841h80v-100h-80v100zM161 841h80v-100h-80v100z" />
    <glyph glyph-name="Eth" unicode="&#xd0;" horiz-adv-x="574" 
d="M67 338h-77v64h77v296h152q70 0 113 -14.5t73 -35.5q23 -16 46 -41t41.5 -60t30 -81.5t11.5 -105.5q0 -76 -19 -141.5t-61.5 -114t-111 -76.5t-166.5 -28h-109v338zM155 402h161v-64h-161v-262h53q116 0 175 74.5t59 209.5q0 55 -12.5 102.5t-40 83t-72 56t-109.5 20.5
h-53v-220z" />
    <glyph glyph-name="Ntilde" unicode="&#xd1;" horiz-adv-x="612" 
d="M77 698h109l263 -576h2v576h84v-698h-109l-263 572h-2v-572h-84v698zM452 848q-8 -50 -28.5 -78.5t-56.5 -28.5q-12 0 -26.5 3.5t-42.5 17.5q-23 11 -31 14t-16 3q-14 0 -25.5 -9.5t-13.5 -33.5h-52q5 51 29 79t66 28q14 0 30 -5t46 -20q15 -8 22.5 -10.5t12.5 -2.5
q25 0 34 43h52z" />
    <glyph glyph-name="Ograve" unicode="&#xd2;" horiz-adv-x="612" 
d="M48 342q0 182 68.5 272.5t193.5 90.5q58 0 105 -24t80 -69.5t51 -110t18 -145.5q0 -182 -68.5 -272.5t-193.5 -90.5q-58 0 -105 24t-80 69.5t-51 110t-18 145.5zM140 342q0 -53 8.5 -103t28 -88.5t50.5 -62t75 -23.5q35 0 65.5 15t54 49.5t37 90t13.5 136.5
q0 53 -8.5 103t-28 88.5t-50.5 62t-75 23.5q-34 0 -65 -15t-54.5 -49.5t-37 -90t-13.5 -136.5zM298 738l-102 109h103l67 -109h-68z" />
    <glyph glyph-name="Oacute" unicode="&#xd3;" horiz-adv-x="612" 
d="M48 342q0 182 68.5 272.5t193.5 90.5q58 0 105 -24t80 -69.5t51 -110t18 -145.5q0 -182 -68.5 -272.5t-193.5 -90.5q-58 0 -105 24t-80 69.5t-51 110t-18 145.5zM140 342q0 -53 8.5 -103t28 -88.5t50.5 -62t75 -23.5q35 0 65.5 15t54 49.5t37 90t13.5 136.5
q0 53 -8.5 103t-28 88.5t-50.5 62t-75 23.5q-34 0 -65 -15t-54.5 -49.5t-37 -90t-13.5 -136.5zM326 847h103l-102 -109h-68z" />
    <glyph glyph-name="Ocircumflex" unicode="&#xd4;" horiz-adv-x="612" 
d="M48 342q0 182 68.5 272.5t193.5 90.5q58 0 105 -24t80 -69.5t51 -110t18 -145.5q0 -182 -68.5 -272.5t-193.5 -90.5q-58 0 -105 24t-80 69.5t-51 110t-18 145.5zM140 342q0 -53 8.5 -103t28 -88.5t50.5 -62t75 -23.5q35 0 65.5 15t54 49.5t37 90t13.5 136.5
q0 53 -8.5 103t-28 88.5t-50.5 62t-75 23.5q-34 0 -65 -15t-54.5 -49.5t-37 -90t-13.5 -136.5zM359 847l92 -109h-73l-65 66l-65 -66h-73l92 109h92z" />
    <glyph glyph-name="Otilde" unicode="&#xd5;" horiz-adv-x="612" 
d="M48 342q0 182 68.5 272.5t193.5 90.5q58 0 105 -24t80 -69.5t51 -110t18 -145.5q0 -182 -68.5 -272.5t-193.5 -90.5q-58 0 -105 24t-80 69.5t-51 110t-18 145.5zM140 342q0 -53 8.5 -103t28 -88.5t50.5 -62t75 -23.5q35 0 65.5 15t54 49.5t37 90t13.5 136.5
q0 53 -8.5 103t-28 88.5t-50.5 62t-75 23.5q-34 0 -65 -15t-54.5 -49.5t-37 -90t-13.5 -136.5zM452 848q-8 -50 -28.5 -78.5t-56.5 -28.5q-12 0 -26.5 3.5t-42.5 17.5q-23 11 -31 14t-16 3q-14 0 -25.5 -9.5t-13.5 -33.5h-52q5 51 29 79t66 28q14 0 30 -5t46 -20
q15 -8 22.5 -10.5t12.5 -2.5q25 0 34 43h52z" />
    <glyph glyph-name="Odieresis" unicode="&#xd6;" horiz-adv-x="612" 
d="M48 342q0 182 68.5 272.5t193.5 90.5q58 0 105 -24t80 -69.5t51 -110t18 -145.5q0 -182 -68.5 -272.5t-193.5 -90.5q-58 0 -105 24t-80 69.5t-51 110t-18 145.5zM140 342q0 -53 8.5 -103t28 -88.5t50.5 -62t75 -23.5q35 0 65.5 15t54 49.5t37 90t13.5 136.5
q0 53 -8.5 103t-28 88.5t-50.5 62t-75 23.5q-34 0 -65 -15t-54.5 -49.5t-37 -90t-13.5 -136.5zM186 841h80v-100h-80v100zM346 841h80v-100h-80v100z" />
    <glyph glyph-name="multiply" unicode="&#xd7;" horiz-adv-x="600" 
d="M70 73l180 180l-180 180l49 50l181 -180l181 180l49 -50l-180 -180l180 -180l-49 -50l-181 180l-181 -180z" />
    <glyph glyph-name="Oslash" unicode="&#xd8;" horiz-adv-x="612" 
d="M435 546q-19 40 -49.5 63.5t-75.5 23.5q-34 0 -65 -15t-54.5 -49.5t-37 -90t-13.5 -136.5q0 -38 4.5 -75.5t14.5 -69.5zM177 152q19 -40 49.5 -63.5t75.5 -23.5q35 0 65.5 15t54 49.5t37 90t13.5 136.5q0 38 -4.5 75.5t-14.5 69.5zM97 118q-49 89 -49 224
q0 182 68.5 272.5t193.5 90.5q56 0 101.5 -22.5t79.5 -65.5l75 95l33 -26l-84 -106q49 -89 49 -224q0 -182 -68.5 -272.5t-193.5 -90.5q-57 0 -102.5 22.5t-78.5 65.5l-75 -95l-33 26z" />
    <glyph glyph-name="Ugrave" unicode="&#xd9;" horiz-adv-x="592" 
d="M515 257q0 -52 -5 -85.5t-23 -70.5q-22 -43 -68.5 -75.5t-122.5 -32.5t-122.5 32.5t-68.5 75.5q-18 37 -23 70.5t-5 85.5v441h88v-454q0 -82 34 -130.5t97 -48.5t97 48.5t34 130.5v454h88v-441zM292 738l-102 109h103l67 -109h-68z" />
    <glyph glyph-name="Uacute" unicode="&#xda;" horiz-adv-x="592" 
d="M515 257q0 -52 -5 -85.5t-23 -70.5q-22 -43 -68.5 -75.5t-122.5 -32.5t-122.5 32.5t-68.5 75.5q-18 37 -23 70.5t-5 85.5v441h88v-454q0 -82 34 -130.5t97 -48.5t97 48.5t34 130.5v454h88v-441zM311 847h103l-102 -109h-68z" />
    <glyph glyph-name="Ucircumflex" unicode="&#xdb;" horiz-adv-x="592" 
d="M515 257q0 -52 -5 -85.5t-23 -70.5q-22 -43 -68.5 -75.5t-122.5 -32.5t-122.5 32.5t-68.5 75.5q-18 37 -23 70.5t-5 85.5v441h88v-454q0 -82 34 -130.5t97 -48.5t97 48.5t34 130.5v454h88v-441zM339 847l92 -109h-73l-65 66l-65 -66h-73l92 109h92z" />
    <glyph glyph-name="Udieresis" unicode="&#xdc;" horiz-adv-x="592" 
d="M515 257q0 -52 -5 -85.5t-23 -70.5q-22 -43 -68.5 -75.5t-122.5 -32.5t-122.5 32.5t-68.5 75.5q-18 37 -23 70.5t-5 85.5v441h88v-454q0 -82 34 -130.5t97 -48.5t97 48.5t34 130.5v454h88v-441zM176 841h80v-100h-80v100zM336 841h80v-100h-80v100z" />
    <glyph glyph-name="Yacute" unicode="&#xdd;" horiz-adv-x="518" 
d="M215 293l-209 405h100l154 -309l155 309h97l-209 -405v-293h-88v293zM282 847h103l-102 -109h-68z" />
    <glyph glyph-name="Thorn" unicode="&#xde;" horiz-adv-x="481" 
d="M77 698h88v-120h80q53 0 88 -14t63 -40q26 -26 40.5 -62t14.5 -82q0 -103 -57.5 -155.5t-169.5 -52.5h-59v-172h-88v698zM165 244h48q80 0 113 35t33 93q0 72 -38 103t-106 31h-50v-262z" />
    <glyph glyph-name="germandbls" unicode="&#xdf;" horiz-adv-x="481" 
d="M57 545q0 48 10 87.5t32 68.5t57 45t85 16q46 0 79.5 -15t55 -41t32 -61.5t10.5 -77.5q0 -31 -5 -55.5t-18.5 -44t-35.5 -35.5t-57 -30v-2q35 -4 61.5 -14.5t44.5 -32.5t27.5 -58t9.5 -91q0 -41 -10 -79t-31.5 -67.5t-56 -47t-83.5 -17.5q-18 0 -35.5 2t-31.5 5l4 73
q12 -5 27 -8.5t38 -3.5q21 0 38.5 6t30 21t19.5 40t7 62q0 56 -8.5 89t-26.5 50t-46.5 22.5t-69.5 7.5v72q34 0 57.5 6.5t38.5 23.5t21.5 46t6.5 73q0 54 -21.5 84t-71.5 30q-33 0 -53 -13.5t-30.5 -35.5t-13.5 -50t-3 -57v-538h-84v545z" />
    <glyph glyph-name="agrave" unicode="&#xe0;" horiz-adv-x="463" 
d="M81 475q32 20 69 31t75 11q28 0 50.5 -5t39.5 -12.5t28.5 -16t17.5 -14.5q17 -16 30.5 -43.5t13.5 -81.5v-266q0 -23 1 -43.5t3 -34.5h-76l-5 69h-2q-17 -29 -50.5 -52.5t-92.5 -23.5q-63 0 -105 37t-42 110q0 37 13 68.5t41.5 54.5t74 36t111.5 13h49v23q0 29 -3.5 47
t-15.5 35q-13 17 -36 24.5t-49 7.5q-39 0 -74 -14.5t-57 -38.5zM325 250q-11 2 -26.5 2h-32.5q-75 0 -110.5 -30.5t-35.5 -75.5q0 -41 21 -65t65 -24q27 0 49 10.5t37.5 28t24 41t8.5 49.5v64zM230 580l-102 145h94l72 -145h-64z" />
    <glyph glyph-name="aacute" unicode="&#xe1;" horiz-adv-x="463" 
d="M81 475q32 20 69 31t75 11q28 0 50.5 -5t39.5 -12.5t28.5 -16t17.5 -14.5q17 -16 30.5 -43.5t13.5 -81.5v-266q0 -23 1 -43.5t3 -34.5h-76l-5 69h-2q-17 -29 -50.5 -52.5t-92.5 -23.5q-63 0 -105 37t-42 110q0 37 13 68.5t41.5 54.5t74 36t111.5 13h49v23q0 29 -3.5 47
t-15.5 35q-13 17 -36 24.5t-49 7.5q-39 0 -74 -14.5t-57 -38.5zM325 250q-11 2 -26.5 2h-32.5q-75 0 -110.5 -30.5t-35.5 -75.5q0 -41 21 -65t65 -24q27 0 49 10.5t37.5 28t24 41t8.5 49.5v64zM269 725h94l-102 -145h-64z" />
    <glyph glyph-name="acircumflex" unicode="&#xe2;" horiz-adv-x="463" 
d="M81 475q32 20 69 31t75 11q28 0 50.5 -5t39.5 -12.5t28.5 -16t17.5 -14.5q17 -16 30.5 -43.5t13.5 -81.5v-266q0 -23 1 -43.5t3 -34.5h-76l-5 69h-2q-17 -29 -50.5 -52.5t-92.5 -23.5q-63 0 -105 37t-42 110q0 37 13 68.5t41.5 54.5t74 36t111.5 13h49v23q0 29 -3.5 47
t-15.5 35q-13 17 -36 24.5t-49 7.5q-39 0 -74 -14.5t-57 -38.5zM325 250q-11 2 -26.5 2h-32.5q-75 0 -110.5 -30.5t-35.5 -75.5q0 -41 21 -65t65 -24q27 0 49 10.5t37.5 28t24 41t8.5 49.5v64zM278 725l87 -145h-70l-63 95l-63 -95h-70l87 145h92z" />
    <glyph glyph-name="atilde" unicode="&#xe3;" horiz-adv-x="463" 
d="M81 475q32 20 69 31t75 11q28 0 50.5 -5t39.5 -12.5t28.5 -16t17.5 -14.5q17 -16 30.5 -43.5t13.5 -81.5v-266q0 -23 1 -43.5t3 -34.5h-76l-5 69h-2q-17 -29 -50.5 -52.5t-92.5 -23.5q-63 0 -105 37t-42 110q0 37 13 68.5t41.5 54.5t74 36t111.5 13h49v23q0 29 -3.5 47
t-15.5 35q-13 17 -36 24.5t-49 7.5q-39 0 -74 -14.5t-57 -38.5zM325 250q-11 2 -26.5 2h-32.5q-75 0 -110.5 -30.5t-35.5 -75.5q0 -41 21 -65t65 -24q27 0 49 10.5t37.5 28t24 41t8.5 49.5v64zM380 710q-8 -50 -28.5 -78.5t-56.5 -28.5q-12 0 -26.5 3.5t-42.5 17.5
q-23 11 -31 14t-16 3q-14 0 -25.5 -9.5t-13.5 -33.5h-52q5 51 29 79t66 28q14 0 30 -5t46 -20q15 -8 22.5 -10.5t12.5 -2.5q25 0 34 43h52z" />
    <glyph glyph-name="adieresis" unicode="&#xe4;" horiz-adv-x="463" 
d="M81 475q32 20 69 31t75 11q28 0 50.5 -5t39.5 -12.5t28.5 -16t17.5 -14.5q17 -16 30.5 -43.5t13.5 -81.5v-266q0 -23 1 -43.5t3 -34.5h-76l-5 69h-2q-17 -29 -50.5 -52.5t-92.5 -23.5q-63 0 -105 37t-42 110q0 37 13 68.5t41.5 54.5t74 36t111.5 13h49v23q0 29 -3.5 47
t-15.5 35q-13 17 -36 24.5t-49 7.5q-39 0 -74 -14.5t-57 -38.5zM325 250q-11 2 -26.5 2h-32.5q-75 0 -110.5 -30.5t-35.5 -75.5q0 -41 21 -65t65 -24q27 0 49 10.5t37.5 28t24 41t8.5 49.5v64zM112 715h80v-100h-80v100zM272 715h80v-100h-80v100z" />
    <glyph glyph-name="aring" unicode="&#xe5;" horiz-adv-x="463" 
d="M81 475q32 20 69 31t75 11q28 0 50.5 -5t39.5 -12.5t28.5 -16t17.5 -14.5q17 -16 30.5 -43.5t13.5 -81.5v-266q0 -23 1 -43.5t3 -34.5h-76l-5 69h-2q-17 -29 -50.5 -52.5t-92.5 -23.5q-63 0 -105 37t-42 110q0 37 13 68.5t41.5 54.5t74 36t111.5 13h49v23q0 29 -3.5 47
t-15.5 35q-13 17 -36 24.5t-49 7.5q-39 0 -74 -14.5t-57 -38.5zM325 250q-11 2 -26.5 2h-32.5q-75 0 -110.5 -30.5t-35.5 -75.5q0 -41 21 -65t65 -24q27 0 49 10.5t37.5 28t24 41t8.5 49.5v64zM142 648q0 19 7.5 36t20.5 30t30 20.5t36 7.5t36 -7.5t30 -20.5t20.5 -30
t7.5 -36t-7.5 -36t-20.5 -30t-30 -20.5t-36 -7.5t-36 7.5t-30 20.5t-20.5 30t-7.5 36zM184 648q0 -22 15 -37t37 -15t37 15t15 37t-15 37t-37 15t-37 -15t-15 -37z" />
    <glyph glyph-name="ae" unicode="&#xe6;" horiz-adv-x="722" 
d="M606 316q0 63 -24.5 100t-75.5 37q-40 0 -71 -32t-33 -105h204zM81 475q32 20 69 31t75 11q46 0 85 -19t60 -67q20 38 52.5 62t88.5 24q87 0 133 -64.5t46 -177.5v-23h-288q0 -105 34.5 -150t104.5 -45q32 0 63.5 13t53.5 29l4 -76q-30 -14 -67.5 -22t-75.5 -8
q-63 0 -105.5 26.5t-60.5 77.5q-28 -55 -70 -79.5t-100 -24.5q-63 0 -105 37t-42 110q0 39 13 71t41.5 55.5t74 36.5t111.5 13h50v16q0 59 -29.5 88t-78.5 29q-37 0 -71.5 -14.5t-56.5 -38.5zM326 252h-32q-95 0 -134.5 -29.5t-39.5 -82.5q0 -36 21 -59.5t65 -23.5
q55 0 87.5 42t32.5 120v33z" />
    <glyph glyph-name="ccedilla" unicode="&#xe7;" horiz-adv-x="389" 
d="M149 -163q15 -5 32 -9t31 -4q26 0 42 12.5t16 29.5q0 37 -44 37q-26 0 -43 -7l-15 19l55 82q-47 6 -82 28t-58.5 55.5t-35 77t-11.5 92.5q0 62 15.5 111.5t44.5 84t70.5 53t93.5 18.5q29 0 57 -5t48 -15l-4 -76q-22 12 -45 18t-52 6q-61 0 -100.5 -45.5t-39.5 -149.5
q0 -89 38 -137t100 -48q30 0 55.5 8t47.5 19l4 -77q-19 -8 -48 -15t-57 -7l-36 -53q14 3 29 3q35 0 60 -18.5t25 -53.5q0 -36 -30 -61.5t-89 -25.5q-26 0 -49.5 6t-38.5 12z" />
    <glyph glyph-name="egrave" unicode="&#xe8;" horiz-adv-x="444" 
d="M124 230q0 -89 34.5 -131t104.5 -42q32 0 63.5 13t53.5 29l4 -76q-30 -14 -67.5 -22t-75.5 -8q-101 0 -153 71t-52 191q0 60 13 108.5t38 82.5t61.5 52.5t84.5 18.5q87 0 133 -64.5t46 -177.5v-45h-288zM328 294q0 159 -100 159q-20 0 -38.5 -8t-33 -27t-23 -49t-9.5 -75
h204zM232 580l-102 145h94l72 -145h-64z" />
    <glyph glyph-name="eacute" unicode="&#xe9;" horiz-adv-x="444" 
d="M124 230q0 -89 34.5 -131t104.5 -42q32 0 63.5 13t53.5 29l4 -76q-30 -14 -67.5 -22t-75.5 -8q-101 0 -153 71t-52 191q0 60 13 108.5t38 82.5t61.5 52.5t84.5 18.5q87 0 133 -64.5t46 -177.5v-45h-288zM328 294q0 159 -100 159q-20 0 -38.5 -8t-33 -27t-23 -49t-9.5 -75
h204zM257 725h94l-102 -145h-64z" />
    <glyph glyph-name="ecircumflex" unicode="&#xea;" horiz-adv-x="444" 
d="M124 230q0 -89 34.5 -131t104.5 -42q32 0 63.5 13t53.5 29l4 -76q-30 -14 -67.5 -22t-75.5 -8q-101 0 -153 71t-52 191q0 60 13 108.5t38 82.5t61.5 52.5t84.5 18.5q87 0 133 -64.5t46 -177.5v-45h-288zM328 294q0 159 -100 159q-20 0 -38.5 -8t-33 -27t-23 -49t-9.5 -75
h204zM276 725l87 -145h-70l-63 95l-63 -95h-70l87 145h92z" />
    <glyph glyph-name="edieresis" unicode="&#xeb;" horiz-adv-x="444" 
d="M124 230q0 -89 34.5 -131t104.5 -42q32 0 63.5 13t53.5 29l4 -76q-30 -14 -67.5 -22t-75.5 -8q-101 0 -153 71t-52 191q0 60 13 108.5t38 82.5t61.5 52.5t84.5 18.5q87 0 133 -64.5t46 -177.5v-45h-288zM328 294q0 159 -100 159q-20 0 -38.5 -8t-33 -27t-23 -49t-9.5 -75
h204zM107 715h80v-100h-80v100zM267 715h80v-100h-80v100z" />
    <glyph glyph-name="igrave" unicode="&#xec;" horiz-adv-x="222" 
d="M69 510h84v-510h-84v510zM104 580l-102 145h94l72 -145h-64z" />
    <glyph glyph-name="iacute" unicode="&#xed;" horiz-adv-x="222" 
d="M69 510h84v-510h-84v510zM142 725h94l-102 -145h-64z" />
    <glyph glyph-name="icircumflex" unicode="&#xee;" horiz-adv-x="222" 
d="M69 510h84v-510h-84v510zM157 725l87 -145h-70l-63 95l-63 -95h-70l87 145h92z" />
    <glyph glyph-name="idieresis" unicode="&#xef;" horiz-adv-x="222" 
d="M69 510h84v-510h-84v510zM-9 715h80v-100h-80v100zM151 715h80v-100h-80v100z" />
    <glyph glyph-name="eth" unicode="&#xf0;" 
d="M124 255q0 -97 28.5 -145.5t88.5 -48.5t88.5 48.5t28.5 145.5t-28.5 145.5t-88.5 48.5t-88.5 -48.5t-28.5 -145.5zM102 638l78 47q-19 12 -41.5 22t-44.5 17l30 38q31 -6 59 -17.5t54 -25.5l71 43l33 -27l-69 -42q81 -58 127.5 -154t46.5 -235q0 -158 -49.5 -234.5
t-155.5 -76.5q-101 0 -153 71t-52 191t52 191t153 71q45 0 67.5 -15.5t36.5 -29.5l2 2q-20 62 -56 110t-78 74l-78 -47z" />
    <glyph glyph-name="ntilde" unicode="&#xf1;" 
d="M61 400q0 28 -1.5 55.5t-2.5 54.5h81l3 -76h2q20 44 52 63.5t77 19.5q67 0 108 -39t41 -124v-354h-84v329q0 61 -21.5 88.5t-62.5 27.5q-50 0 -79 -34.5t-29 -103.5v-307h-84v400zM392 710q-8 -50 -28.5 -78.5t-56.5 -28.5q-12 0 -26.5 3.5t-42.5 17.5q-23 11 -31 14
t-16 3q-14 0 -25.5 -9.5t-13.5 -33.5h-52q5 51 29 79t66 28q14 0 30 -5t46 -20q15 -8 22.5 -10.5t12.5 -2.5q25 0 34 43h52z" />
    <glyph glyph-name="ograve" unicode="&#xf2;" 
d="M124 255q0 -97 28.5 -145.5t88.5 -48.5t88.5 48.5t28.5 145.5t-28.5 145.5t-88.5 48.5t-88.5 -48.5t-28.5 -145.5zM36 255q0 120 52 191t153 71t153 -71t52 -191t-52 -191t-153 -71t-153 71t-52 191zM242 580l-102 145h94l72 -145h-64z" />
    <glyph glyph-name="oacute" unicode="&#xf3;" 
d="M124 255q0 -97 28.5 -145.5t88.5 -48.5t88.5 48.5t28.5 145.5t-28.5 145.5t-88.5 48.5t-88.5 -48.5t-28.5 -145.5zM36 255q0 120 52 191t153 71t153 -71t52 -191t-52 -191t-153 -71t-153 71t-52 191zM272 725h94l-102 -145h-64z" />
    <glyph glyph-name="ocircumflex" unicode="&#xf4;" 
d="M124 255q0 -97 28.5 -145.5t88.5 -48.5t88.5 48.5t28.5 145.5t-28.5 145.5t-88.5 48.5t-88.5 -48.5t-28.5 -145.5zM36 255q0 120 52 191t153 71t153 -71t52 -191t-52 -191t-153 -71t-153 71t-52 191zM287 725l87 -145h-70l-63 95l-63 -95h-70l87 145h92z" />
    <glyph glyph-name="otilde" unicode="&#xf5;" 
d="M124 255q0 -97 28.5 -145.5t88.5 -48.5t88.5 48.5t28.5 145.5t-28.5 145.5t-88.5 48.5t-88.5 -48.5t-28.5 -145.5zM36 255q0 120 52 191t153 71t153 -71t52 -191t-52 -191t-153 -71t-153 71t-52 191zM387 710q-8 -50 -28.5 -78.5t-56.5 -28.5q-12 0 -26.5 3.5t-42.5 17.5
q-23 11 -31 14t-16 3q-14 0 -25.5 -9.5t-13.5 -33.5h-52q5 51 29 79t66 28q14 0 30 -5t46 -20q15 -8 22.5 -10.5t12.5 -2.5q25 0 34 43h52z" />
    <glyph glyph-name="odieresis" unicode="&#xf6;" 
d="M124 255q0 -97 28.5 -145.5t88.5 -48.5t88.5 48.5t28.5 145.5t-28.5 145.5t-88.5 48.5t-88.5 -48.5t-28.5 -145.5zM36 255q0 120 52 191t153 71t153 -71t52 -191t-52 -191t-153 -71t-153 71t-52 191zM121 715h80v-100h-80v100zM281 715h80v-100h-80v100z" />
    <glyph glyph-name="divide" unicode="&#xf7;" horiz-adv-x="600" 
d="M47 287h506v-68h-506v68zM236 449q0 26 19 45t45 19t45 -19t19 -45t-19 -45t-45 -19t-45 19t-19 45zM236 57q0 26 19 45t45 19t45 -19t19 -45t-19 -45t-45 -19t-45 19t-19 45z" />
    <glyph glyph-name="oslash" unicode="&#xf8;" 
d="M330 399q-30 50 -89 50q-60 0 -88.5 -48.5t-28.5 -145.5q0 -61 12 -102zM23 10l55 70q-42 65 -42 175q0 120 52 191t153 71q45 0 79.5 -14.5t59.5 -40.5l49 61l30 -23l-56 -69q22 -32 32.5 -77t10.5 -99q0 -120 -52 -191t-153 -71q-89 0 -139 56l-49 -62zM152 112
q30 -51 89 -51q60 0 88.5 48.5t28.5 145.5q0 61 -12 103z" />
    <glyph glyph-name="ugrave" unicode="&#xf9;" 
d="M421 110q0 -28 1.5 -55.5t2.5 -54.5h-81l-3 76h-2q-20 -44 -52 -63.5t-77 -19.5q-67 0 -108 39t-41 124v354h84v-329q0 -61 21.5 -88.5t62.5 -27.5q50 0 79 34.5t29 103.5v307h84v-400zM230 580l-102 145h94l72 -145h-64z" />
    <glyph glyph-name="uacute" unicode="&#xfa;" 
d="M421 110q0 -28 1.5 -55.5t2.5 -54.5h-81l-3 76h-2q-20 -44 -52 -63.5t-77 -19.5q-67 0 -108 39t-41 124v354h84v-329q0 -61 21.5 -88.5t62.5 -27.5q50 0 79 34.5t29 103.5v307h84v-400zM273 725h94l-102 -145h-64z" />
    <glyph glyph-name="ucircumflex" unicode="&#xfb;" 
d="M421 110q0 -28 1.5 -55.5t2.5 -54.5h-81l-3 76h-2q-20 -44 -52 -63.5t-77 -19.5q-67 0 -108 39t-41 124v354h84v-329q0 -61 21.5 -88.5t62.5 -27.5q50 0 79 34.5t29 103.5v307h84v-400zM287 725l87 -145h-70l-63 95l-63 -95h-70l87 145h92z" />
    <glyph glyph-name="udieresis" unicode="&#xfc;" 
d="M421 110q0 -28 1.5 -55.5t2.5 -54.5h-81l-3 76h-2q-20 -44 -52 -63.5t-77 -19.5q-67 0 -108 39t-41 124v354h84v-329q0 -61 21.5 -88.5t62.5 -27.5q50 0 79 34.5t29 103.5v307h84v-400zM121 715h80v-100h-80v100zM281 715h80v-100h-80v100z" />
    <glyph glyph-name="yacute" unicode="&#xfd;" horiz-adv-x="407" 
d="M221 -104q-19 -66 -48 -92t-77 -26q-15 0 -30.5 1.5t-26.5 4.5l4 76q22 -10 46 -10q18 0 31.5 12t24.5 52l20 78l-161 518h88l114 -416h2l106 416h84zM241 725h94l-102 -145h-64z" />
    <glyph glyph-name="thorn" unicode="&#xfe;" horiz-adv-x="481" 
d="M137 255q0 -97 27 -145.5t85 -48.5t85 48.5t27 145.5t-27 145.5t-85 48.5t-85 -48.5t-27 -145.5zM53 750h84v-311h2q7 14 17.5 27.5t26.5 25t37 18.5t49 7q79 0 127.5 -65t48.5 -197t-48.5 -197t-127.5 -65q-44 0 -74 18t-56 59h-2v-286h-84v966z" />
    <glyph glyph-name="ydieresis" unicode="&#xff;" horiz-adv-x="407" 
d="M221 -104q-19 -66 -48 -92t-77 -26q-15 0 -30.5 1.5t-26.5 4.5l4 76q22 -10 46 -10q18 0 31.5 12t24.5 52l20 78l-161 518h88l114 -416h2l106 416h84zM84 715h80v-100h-80v100zM244 715h80v-100h-80v100z" />
    <glyph glyph-name="Amacron" unicode="&#x100;" horiz-adv-x="574" 
d="M338 698l228 -698h-92l-56 182h-266l-56 -182h-88l234 698h96zM395 258l-107 348h-2l-110 -348h219zM157 814h264v-60h-264v60z" />
    <glyph glyph-name="amacron" unicode="&#x101;" horiz-adv-x="463" 
d="M81 475q32 20 69 31t75 11q28 0 50.5 -5t39.5 -12.5t28.5 -16t17.5 -14.5q17 -16 30.5 -43.5t13.5 -81.5v-266q0 -23 1 -43.5t3 -34.5h-76l-5 69h-2q-17 -29 -50.5 -52.5t-92.5 -23.5q-63 0 -105 37t-42 110q0 37 13 68.5t41.5 54.5t74 36t111.5 13h49v23q0 29 -3.5 47
t-15.5 35q-13 17 -36 24.5t-49 7.5q-39 0 -74 -14.5t-57 -38.5zM325 250q-11 2 -26.5 2h-32.5q-75 0 -110.5 -30.5t-35.5 -75.5q0 -41 21 -65t65 -24q27 0 49 10.5t37.5 28t24 41t8.5 49.5v64zM99 684h264v-60h-264v60z" />
    <glyph glyph-name="Abreve" unicode="&#x102;" horiz-adv-x="574" 
d="M338 698l228 -698h-92l-56 182h-266l-56 -182h-88l234 698h96zM395 258l-107 348h-2l-110 -348h219zM209 844q5 -26 26 -37.5t53 -11.5t53 11.5t26 37.5h52q-8 -54 -42.5 -79t-88.5 -25t-88.5 25t-42.5 79h52z" />
    <glyph glyph-name="abreve" unicode="&#x103;" horiz-adv-x="463" 
d="M81 475q32 20 69 31t75 11q28 0 50.5 -5t39.5 -12.5t28.5 -16t17.5 -14.5q17 -16 30.5 -43.5t13.5 -81.5v-266q0 -23 1 -43.5t3 -34.5h-76l-5 69h-2q-17 -29 -50.5 -52.5t-92.5 -23.5q-63 0 -105 37t-42 110q0 37 13 68.5t41.5 54.5t74 36t111.5 13h49v23q0 29 -3.5 47
t-15.5 35q-13 17 -36 24.5t-49 7.5q-39 0 -74 -14.5t-57 -38.5zM325 250q-11 2 -26.5 2h-32.5q-75 0 -110.5 -30.5t-35.5 -75.5q0 -41 21 -65t65 -24q27 0 49 10.5t37.5 28t24 41t8.5 49.5v64zM165 717q5 -33 24.5 -51t49.5 -18t49.5 18t24.5 51h52q-8 -66 -41.5 -97.5
t-84.5 -31.5t-84.5 31.5t-41.5 97.5h52z" />
    <glyph glyph-name="Aogonek" unicode="&#x104;" horiz-adv-x="574" 
d="M532 -20q-30 -33 -40 -57t-10 -47q0 -24 13.5 -33.5t24.5 -9.5q10 0 19 0.5t22 6.5v-43q-13 -5 -31.5 -6t-32.5 -1q-7 0 -20 2.5t-25.5 11t-22 24.5t-9.5 44q0 25 20 61t57 67h-23l-56 182h-266l-56 -182h-88l234 698h96l228 -698q-11 0 -20 -7.5t-14 -12.5zM395 258
l-107 348h-2l-110 -348h219z" />
    <glyph glyph-name="aogonek" unicode="&#x105;" horiz-adv-x="463" 
d="M379 -20q-30 -33 -40 -57t-10 -47q0 -24 13.5 -33.5t24.5 -9.5q10 0 19 0.5t22 6.5v-43q-13 -5 -31.5 -6t-32.5 -1q-7 0 -20 2.5t-25.5 11t-22 24.5t-9.5 44q0 25 20 61t57 67h-11l-5 69h-2q-17 -29 -50.5 -52.5t-92.5 -23.5q-63 0 -105 37t-42 110q0 37 13 68.5
t41.5 54.5t74 36t111.5 13h49v23q0 29 -3.5 47t-15.5 35q-13 17 -36 24.5t-49 7.5q-39 0 -74 -14.5t-57 -38.5l-9 79q32 20 69 31t75 11q28 0 50.5 -5t39.5 -12.5t28.5 -16t17.5 -14.5q17 -16 30.5 -43.5t13.5 -81.5v-266q0 -23 1 -43.5t3 -34.5q-7 0 -16 -7.5t-14 -12.5z
M325 250q-11 2 -26.5 2h-32.5q-75 0 -110.5 -30.5t-35.5 -75.5q0 -41 21 -65t65 -24q27 0 49 10.5t37.5 28t24 41t8.5 49.5v64z" />
    <glyph glyph-name="Cacute" unicode="&#x106;" horiz-adv-x="537" 
d="M489 14q-32 -10 -64 -15.5t-63 -5.5q-83 0 -142.5 29t-97.5 78.5t-56 114t-18 135.5q0 82 22.5 147.5t63.5 111.5t98 71t125 25q38 0 73 -6.5t59 -18.5v-86q-55 35 -131 35q-43 0 -82.5 -17t-69.5 -50t-48 -81.5t-18 -112.5q0 -67 13.5 -122.5t41.5 -94.5t70 -60.5
t99 -21.5q34 0 66 8.5t59 24.5v-88zM368 847h103l-102 -109h-68z" />
    <glyph glyph-name="cacute" unicode="&#x107;" horiz-adv-x="389" 
d="M361 421q-22 12 -45 18t-52 6q-61 0 -100.5 -45.5t-39.5 -149.5q0 -89 38 -137t100 -48q30 0 55.5 8t47.5 19l4 -77q-19 -8 -49 -15t-58 -7q-57 0 -99.5 20t-70.5 54.5t-42 81.5t-14 101q0 62 15.5 111.5t45 84t72 53t95.5 18.5q26 0 53.5 -5t47.5 -15zM282 725h94
l-102 -145h-64z" />
    <glyph glyph-name="Ccaron" unicode="&#x10c;" horiz-adv-x="537" 
d="M489 14q-32 -10 -64 -15.5t-63 -5.5q-83 0 -142.5 29t-97.5 78.5t-56 114t-18 135.5q0 82 22.5 147.5t63.5 111.5t98 71t125 25q38 0 73 -6.5t59 -18.5v-86q-55 35 -131 35q-43 0 -82.5 -17t-69.5 -50t-48 -81.5t-18 -112.5q0 -67 13.5 -122.5t41.5 -94.5t70 -60.5
t99 -21.5q34 0 66 8.5t59 24.5v-88zM216 847h73l65 -66l65 66h73l-92 -109h-92z" />
    <glyph glyph-name="ccaron" unicode="&#x10d;" horiz-adv-x="389" 
d="M361 421q-22 12 -45 18t-52 6q-61 0 -100.5 -45.5t-39.5 -149.5q0 -89 38 -137t100 -48q30 0 55.5 8t47.5 19l4 -77q-19 -8 -49 -15t-58 -7q-57 0 -99.5 20t-70.5 54.5t-42 81.5t-14 101q0 62 15.5 111.5t45 84t72 53t95.5 18.5q26 0 53.5 -5t47.5 -15zM120 725h70
l63 -95l63 95h70l-87 -145h-92z" />
    <glyph glyph-name="Dcaron" unicode="&#x10e;" horiz-adv-x="574" 
d="M67 698h152q70 0 113 -14.5t73 -35.5q23 -16 46 -41t41.5 -60t30 -81.5t11.5 -105.5q0 -76 -19 -141.5t-61.5 -114t-111 -76.5t-166.5 -28h-109v698zM155 76h53q116 0 175 74.5t59 209.5q0 55 -12.5 102.5t-40 83t-72 56t-109.5 20.5h-53v-546zM96 847h73l65 -66l65 66
h73l-92 -109h-92z" />
    <glyph glyph-name="dcaron" unicode="&#x10f;" horiz-adv-x="551" 
d="M344 255q0 97 -27 145.5t-85 48.5t-85 -48.5t-27 -145.5t27 -145.5t85 -48.5t85 48.5t27 145.5zM428 94q0 -23 1.5 -47t2.5 -47h-81l-3 75h-2q-8 -15 -19.5 -29.5t-28 -26.5t-37.5 -19t-49 -7q-79 0 -127.5 65t-48.5 197t48.5 197t127.5 65q44 0 74 -18t56 -59h2v310h84
v-656zM509 750h74l-60 -172h-52z" />
    <glyph glyph-name="Dcroat" unicode="&#x110;" horiz-adv-x="574" 
d="M67 338h-77v64h77v296h152q70 0 113 -14.5t73 -35.5q23 -16 46 -41t41.5 -60t30 -81.5t11.5 -105.5q0 -76 -19 -141.5t-61.5 -114t-111 -76.5t-166.5 -28h-109v338zM155 402h161v-64h-161v-262h53q116 0 175 74.5t59 209.5q0 55 -12.5 102.5t-40 83t-72 56t-109.5 20.5
h-53v-220z" />
    <glyph glyph-name="dcroat" unicode="&#x111;" horiz-adv-x="481" 
d="M344 255q0 97 -27 145.5t-85 48.5t-85 -48.5t-27 -145.5t27 -145.5t85 -48.5t85 48.5t27 145.5zM511 645v-64h-83v-487q0 -23 1.5 -47t2.5 -47h-81l-3 75h-2q-8 -15 -19.5 -29.5t-28 -26.5t-37.5 -19t-49 -7q-79 0 -127.5 65t-48.5 197t48.5 197t127.5 65q44 0 74 -18
t56 -59h2v141h-147v64h147v105h84v-105h83z" />
    <glyph glyph-name="Emacron" unicode="&#x112;" horiz-adv-x="463" 
d="M77 698h325v-76h-237v-222h226v-76h-226v-248h250v-76h-338v698zM108 814h264v-60h-264v60z" />
    <glyph glyph-name="emacron" unicode="&#x113;" horiz-adv-x="444" 
d="M124 230q0 -89 34.5 -131t104.5 -42q32 0 63.5 13t53.5 29l4 -76q-30 -14 -67.5 -22t-75.5 -8q-101 0 -153 71t-52 191q0 60 13 108.5t38 82.5t61.5 52.5t84.5 18.5q87 0 133 -64.5t46 -177.5v-45h-288zM328 294q0 159 -100 159q-20 0 -38.5 -8t-33 -27t-23 -49t-9.5 -75
h204zM98 684h264v-60h-264v60z" />
    <glyph glyph-name="Edotaccent" unicode="&#x116;" horiz-adv-x="463" 
d="M77 698h325v-76h-237v-222h226v-76h-226v-248h250v-76h-338v698zM214 841h80v-100h-80v100z" />
    <glyph glyph-name="edotaccent" unicode="&#x117;" horiz-adv-x="444" 
d="M124 230q0 -89 34.5 -131t104.5 -42q32 0 63.5 13t53.5 29l4 -76q-30 -14 -67.5 -22t-75.5 -8q-101 0 -153 71t-52 191q0 60 13 108.5t38 82.5t61.5 52.5t84.5 18.5q87 0 133 -64.5t46 -177.5v-45h-288zM328 294q0 159 -100 159q-20 0 -38.5 -8t-33 -27t-23 -49t-9.5 -75
h204zM193 715h80v-100h-80v100z" />
    <glyph glyph-name="Eogonek" unicode="&#x118;" horiz-adv-x="463" 
d="M77 0v698h325v-76h-237v-222h226v-76h-226v-248h250v-76h-6q-10 0 -19.5 -7.5t-14.5 -12.5q-30 -33 -40 -57t-10 -47q0 -24 13.5 -33.5t24.5 -9.5q10 0 19 0.5t22 6.5v-43q-13 -5 -31.5 -6t-32.5 -1q-7 0 -20 2.5t-25.5 11t-22 24.5t-9.5 44q0 25 20 61t57 67h-263z" />
    <glyph glyph-name="eogonek" unicode="&#x119;" horiz-adv-x="444" 
d="M285 -20q-30 -33 -40 -57t-10 -47q0 -24 13.5 -33.5t24.5 -9.5q10 0 19 0.5t22 6.5v-43q-13 -5 -31.5 -6t-32.5 -1q-7 0 -20 2.5t-25.5 11t-22 24.5t-9.5 44q0 23 18 57t52 64h-2q-101 0 -153 71t-52 191q0 60 13 108.5t38 82.5t61.5 52.5t84.5 18.5q87 0 133 -64.5
t46 -177.5v-45h-288q0 -89 34.5 -131t104.5 -42q32 0 63.5 13t53.5 29l4 -76q-14 -6 -29 -11.5t-33 -9.5q-13 -3 -21 -8t-16 -14zM328 294q0 159 -100 159q-20 0 -38.5 -8t-33 -27t-23 -49t-9.5 -75h204z" />
    <glyph glyph-name="Ecaron" unicode="&#x11a;" horiz-adv-x="463" 
d="M77 698h325v-76h-237v-222h226v-76h-226v-248h250v-76h-338v698zM117 847h73l65 -66l65 66h73l-92 -109h-92z" />
    <glyph glyph-name="ecaron" unicode="&#x11b;" horiz-adv-x="444" 
d="M124 230q0 -89 34.5 -131t104.5 -42q32 0 63.5 13t53.5 29l4 -76q-30 -14 -67.5 -22t-75.5 -8q-101 0 -153 71t-52 191q0 60 13 108.5t38 82.5t61.5 52.5t84.5 18.5q87 0 133 -64.5t46 -177.5v-45h-288zM328 294q0 159 -100 159q-20 0 -38.5 -8t-33 -27t-23 -49t-9.5 -75
h204zM101 725h70l63 -95l63 95h70l-87 -145h-92z" />
    <glyph glyph-name="Gbreve" unicode="&#x11e;" horiz-adv-x="612" 
d="M535 29q-31 -11 -78.5 -23.5t-94.5 -12.5q-83 0 -142.5 29t-97.5 78.5t-56 114t-18 135.5q0 82 22.5 147.5t63.5 111.5t98 71t125 25q45 0 86.5 -7t77.5 -24v-88q-40 20 -82.5 31.5t-80.5 11.5q-43 0 -82.5 -17t-69.5 -50t-48 -81.5t-18 -112.5q0 -67 13.5 -122.5
t41.5 -94.5t70 -60.5t99 -21.5q21 0 45.5 5t41.5 14v220h-117v76h201v-355zM281 844q5 -26 26 -37.5t53 -11.5t53 11.5t26 37.5h52q-8 -54 -42.5 -79t-88.5 -25t-88.5 25t-42.5 79h52z" />
    <glyph glyph-name="gbreve" unicode="&#x11f;" horiz-adv-x="481" 
d="M120 255q0 -97 27 -145.5t85 -48.5t85 48.5t27 145.5t-27 145.5t-85 48.5t-85 -48.5t-27 -145.5zM428 -22q0 -53 -18.5 -91t-48.5 -62t-69.5 -35.5t-81.5 -11.5q-16 0 -36 2.5t-40.5 7t-39.5 10t-33 11.5l4 85q27 -18 66 -31t74 -13q77 0 110 41.5t33 107.5v80h-2
q-49 -86 -134 -86q-79 0 -127.5 65t-48.5 197q0 133 49.5 197.5t135.5 64.5q38 0 71 -22t54 -59h2l3 74h81q-1 -23 -2.5 -46.5t-1.5 -46.5v-439zM174 717q5 -33 24.5 -51t49.5 -18t49.5 18t24.5 51h52q-8 -66 -41.5 -97.5t-84.5 -31.5t-84.5 31.5t-41.5 97.5h52z" />
    <glyph glyph-name="Gcommaaccent" unicode="&#x122;" horiz-adv-x="612" 
d="M535 29q-31 -11 -78.5 -23.5t-94.5 -12.5q-83 0 -142.5 29t-97.5 78.5t-56 114t-18 135.5q0 82 22.5 147.5t63.5 111.5t98 71t125 25q45 0 86.5 -7t77.5 -24v-88q-40 20 -82.5 31.5t-80.5 11.5q-43 0 -82.5 -17t-69.5 -50t-48 -81.5t-18 -112.5q0 -67 13.5 -122.5
t41.5 -94.5t70 -60.5t99 -21.5q21 0 45.5 5t41.5 14v220h-117v76h201v-355zM314 -37h79l-53 -144h-62z" />
    <glyph glyph-name="gcommaaccent" unicode="&#x123;" horiz-adv-x="481" 
d="M120 255q0 -97 27 -145.5t85 -48.5t85 48.5t27 145.5t-27 145.5t-85 48.5t-85 -48.5t-27 -145.5zM428 -22q0 -53 -18.5 -91t-48.5 -62t-69.5 -35.5t-81.5 -11.5q-16 0 -36 2.5t-40.5 7t-39.5 10t-33 11.5l4 85q27 -18 66 -31t74 -13q77 0 110 41.5t33 107.5v80h-2
q-49 -86 -134 -86q-79 0 -127.5 65t-48.5 197q0 133 49.5 197.5t135.5 64.5q38 0 71 -22t54 -59h2l3 74h81q-1 -23 -2.5 -46.5t-1.5 -46.5v-439zM257 724h62l-36 -144h-79z" />
    <glyph glyph-name="Imacron" unicode="&#x12a;" horiz-adv-x="242" 
d="M77 698h88v-698h-88v698zM24 814h192v-60h-192v60z" />
    <glyph glyph-name="imacron" unicode="&#x12b;" horiz-adv-x="222" 
d="M69 510h84v-510h-84v510zM15 684h192v-60h-192v60z" />
    <glyph glyph-name="Iogonek" unicode="&#x12e;" horiz-adv-x="242" 
d="M165 0q-4 0 -11.5 -7.5l-12.5 -12.5q-30 -33 -40 -57t-10 -47q0 -24 13.5 -33.5t24.5 -9.5q10 0 19 0.5t22 6.5v-43q-13 -5 -31.5 -6t-32.5 -1q-7 0 -20 2.5t-25.5 11t-22 24.5t-9.5 44q0 25 20 61t57 67h-29v698h88v-698z" />
    <glyph glyph-name="iogonek" unicode="&#x12f;" horiz-adv-x="222" 
d="M153 0q-3 0 -10 -7.5t-12 -12.5q-30 -33 -40 -57t-10 -47q0 -24 13.5 -33.5t24.5 -9.5q10 0 19 0.5t22 6.5v-43q-13 -5 -31.5 -6t-32.5 -1q-7 0 -20 2.5t-25.5 11t-22 24.5t-9.5 44q0 25 20 61t57 67h-27v510h84v-510zM157 720v-100h-92v100h92z" />
    <glyph glyph-name="Idotaccent" unicode="&#x130;" horiz-adv-x="242" 
d="M77 698h88v-698h-88v698zM80 841h80v-100h-80v100z" />
    <glyph glyph-name="dotlessi" unicode="&#x131;" horiz-adv-x="222" 
d="M69 510h84v-510h-84v510z" />
    <glyph glyph-name="Kcommaaccent" unicode="&#x136;" horiz-adv-x="519" 
d="M67 698h88v-303h2l231 303h105l-262 -330l284 -368h-114l-244 338h-2v-338h-88v698zM241 -37h79l-53 -144h-62z" />
    <glyph glyph-name="kcommaaccent" unicode="&#x137;" horiz-adv-x="444" 
d="M320 510h98l-200 -228l218 -282h-104l-185 257h-2v-257h-84v750h84v-445zM208 -37h79l-53 -144h-62z" />
    <glyph glyph-name="Lacute" unicode="&#x139;" horiz-adv-x="407" 
d="M77 698h88v-622h229v-76h-317v698zM214 847h103l-102 -109h-68z" />
    <glyph glyph-name="lacute" unicode="&#x13a;" horiz-adv-x="222" 
d="M69 750h84v-750h-84v750zM125 847h103l-94 -85h-61z" />
    <glyph glyph-name="Lcommaaccent" unicode="&#x13b;" horiz-adv-x="407" 
d="M77 698h88v-622h229v-76h-317v698zM227 -37h79l-53 -144h-62z" />
    <glyph glyph-name="lcommaaccent" unicode="&#x13c;" horiz-adv-x="222" 
d="M69 750h84v-750h-84v750zM98 -37h79l-53 -144h-62z" />
    <glyph glyph-name="Lcaron" unicode="&#x13d;" horiz-adv-x="407" 
d="M77 698h88v-622h229v-76h-317v698zM244 750h74l-60 -172h-52z" />
    <glyph glyph-name="lcaron" unicode="&#x13e;" horiz-adv-x="272" 
d="M69 750h84v-750h-84v750zM233 750h74l-60 -172h-52z" />
    <glyph glyph-name="Lslash" unicode="&#x141;" horiz-adv-x="407" 
d="M77 239l-67 -64v86l67 64v373h88v-289l127 121v-86l-127 -121v-247h229v-76h-317v239z" />
    <glyph glyph-name="lslash" unicode="&#x142;" horiz-adv-x="222" 
d="M69 361h-2l-67 -87v72l69 87v317h84v-210h2l67 84v-72l-69 -86v-466h-84v361z" />
    <glyph glyph-name="Nacute" unicode="&#x143;" horiz-adv-x="612" 
d="M77 698h109l263 -576h2v576h84v-698h-109l-263 572h-2v-572h-84v698zM329 847h103l-102 -109h-68z" />
    <glyph glyph-name="nacute" unicode="&#x144;" 
d="M61 400q0 28 -1.5 55.5t-2.5 54.5h81l3 -76h2q20 44 52 63.5t77 19.5q67 0 108 -39t41 -124v-354h-84v329q0 61 -21.5 88.5t-62.5 27.5q-50 0 -79 -34.5t-29 -103.5v-307h-84v400zM274 725h94l-102 -145h-64z" />
    <glyph glyph-name="Ncommaaccent" unicode="&#x145;" horiz-adv-x="612" 
d="M77 698h109l263 -576h2v576h84v-698h-109l-263 572h-2v-572h-84v698zM285 -37h79l-53 -144h-62z" />
    <glyph glyph-name="ncommaaccent" unicode="&#x146;" 
d="M61 400q0 28 -1.5 55.5t-2.5 54.5h81l3 -76h2q20 44 52 63.5t77 19.5q67 0 108 -39t41 -124v-354h-84v329q0 61 -21.5 88.5t-62.5 27.5q-50 0 -79 -34.5t-29 -103.5v-307h-84v400zM221 -37h79l-53 -144h-62z" />
    <glyph glyph-name="Ncaron" unicode="&#x147;" horiz-adv-x="612" 
d="M77 698h109l263 -576h2v576h84v-698h-109l-263 572h-2v-572h-84v698zM169 847h73l65 -66l65 66h73l-92 -109h-92z" />
    <glyph glyph-name="ncaron" unicode="&#x148;" 
d="M61 400q0 28 -1.5 55.5t-2.5 54.5h81l3 -76h2q20 44 52 63.5t77 19.5q67 0 108 -39t41 -124v-354h-84v329q0 61 -21.5 88.5t-62.5 27.5q-50 0 -79 -34.5t-29 -103.5v-307h-84v400zM110 725h70l63 -95l63 95h70l-87 -145h-92z" />
    <glyph glyph-name="Omacron" unicode="&#x14c;" horiz-adv-x="612" 
d="M48 342q0 182 68.5 272.5t193.5 90.5q58 0 105 -24t80 -69.5t51 -110t18 -145.5q0 -182 -68.5 -272.5t-193.5 -90.5q-58 0 -105 24t-80 69.5t-51 110t-18 145.5zM140 342q0 -53 8.5 -103t28 -88.5t50.5 -62t75 -23.5q35 0 65.5 15t54 49.5t37 90t13.5 136.5
q0 53 -8.5 103t-28 88.5t-50.5 62t-75 23.5q-34 0 -65 -15t-54.5 -49.5t-37 -90t-13.5 -136.5zM173 814h264v-60h-264v60z" />
    <glyph glyph-name="omacron" unicode="&#x14d;" 
d="M124 255q0 -97 28.5 -145.5t88.5 -48.5t88.5 48.5t28.5 145.5t-28.5 145.5t-88.5 48.5t-88.5 -48.5t-28.5 -145.5zM36 255q0 120 52 191t153 71t153 -71t52 -191t-52 -191t-153 -71t-153 71t-52 191zM109 684h264v-60h-264v60z" />
    <glyph glyph-name="Ohungarumlaut" unicode="&#x150;" horiz-adv-x="612" 
d="M48 342q0 182 68.5 272.5t193.5 90.5q58 0 105 -24t80 -69.5t51 -110t18 -145.5q0 -182 -68.5 -272.5t-193.5 -90.5q-58 0 -105 24t-80 69.5t-51 110t-18 145.5zM140 342q0 -53 8.5 -103t28 -88.5t50.5 -62t75 -23.5q35 0 65.5 15t54 49.5t37 90t13.5 136.5
q0 53 -8.5 103t-28 88.5t-50.5 62t-75 23.5q-34 0 -65 -15t-54.5 -49.5t-37 -90t-13.5 -136.5zM256 847h101l-102 -109h-66zM424 847h101l-102 -109h-66z" />
    <glyph glyph-name="ohungarumlaut" unicode="&#x151;" 
d="M124 255q0 -97 28.5 -145.5t88.5 -48.5t88.5 48.5t28.5 145.5t-28.5 145.5t-88.5 48.5t-88.5 -48.5t-28.5 -145.5zM36 255q0 120 52 191t153 71t153 -71t52 -191t-52 -191t-153 -71t-153 71t-52 191zM200 725h94l-102 -145h-64zM360 725h94l-102 -145h-64z" />
    <glyph glyph-name="OE" unicode="&#x152;" horiz-adv-x="778" 
d="M721 622h-221v-222h208v-76h-208v-248h230v-76h-281h-35.5t-40.5 -2q-20 -1 -42 -3t-40 -2q-54 0 -98.5 24t-77 69.5t-50 110t-17.5 145.5q0 182 70.5 272.5t206.5 90.5q21 0 55 -3q17 -2 34.5 -3t34.5 -1h272v-76zM412 622q-21 6 -45.5 8.5t-44.5 2.5q-39 0 -72.5 -15
t-57.5 -49.5t-38 -90t-14 -136.5q0 -273 182 -273q23 0 45 1t45 6v546z" />
    <glyph glyph-name="oe" unicode="&#x153;" horiz-adv-x="778" 
d="M124 255q0 -97 29 -145.5t93 -48.5t93 48.5t29 145.5t-29 145.5t-93 48.5t-93 -48.5t-29 -145.5zM662 294q0 80 -25.5 119.5t-79.5 39.5q-23 0 -42.5 -8t-34.5 -27t-23.5 -49t-8.5 -75h214zM448 230q1 -85 35 -129t104 -44q39 0 72 13t55 29l4 -76q-30 -14 -67.5 -22
t-75.5 -8q-59 0 -101 26.5t-66 83.5q-24 -57 -65.5 -83.5t-96.5 -26.5q-105 0 -157.5 71t-52.5 191t52.5 191t157.5 71q64 0 100.5 -26t61.5 -80q25 54 61 80t95 26q89 0 135.5 -64.5t46.5 -177.5v-45h-298z" />
    <glyph glyph-name="Racute" unicode="&#x154;" horiz-adv-x="519" 
d="M77 698h179q56 0 89.5 -12.5t57.5 -35.5q27 -26 39.5 -60.5t12.5 -72.5q0 -28 -7 -54.5t-23.5 -48.5t-42.5 -39t-65 -25v-2q32 -6 48.5 -22t27.5 -46l98 -280h-95l-80 236q-15 44 -38 62t-73 18h-40v-316h-88v698zM165 388h68q35 0 60 10.5t40.5 28t22.5 39.5t7 45
q0 59 -35 87t-93 28h-70v-238zM267 847h103l-102 -109h-68z" />
    <glyph glyph-name="racute" unicode="&#x155;" horiz-adv-x="296" 
d="M61 400q0 28 -1.5 55.5t-2.5 54.5h81l3 -80h2q20 47 54 67t91 20v-83q-15 3 -32 3q-49 0 -80 -41.5t-31 -125.5v-270h-84v400zM210 725h94l-102 -145h-64z" />
    <glyph glyph-name="Rcommaaccent" unicode="&#x156;" horiz-adv-x="519" 
d="M77 698h179q56 0 89.5 -12.5t57.5 -35.5q27 -26 39.5 -60.5t12.5 -72.5q0 -28 -7 -54.5t-23.5 -48.5t-42.5 -39t-65 -25v-2q32 -6 48.5 -22t27.5 -46l98 -280h-95l-80 236q-15 44 -38 62t-73 18h-40v-316h-88v698zM165 388h68q35 0 60 10.5t40.5 28t22.5 39.5t7 45
q0 59 -35 87t-93 28h-70v-238zM251 -37h79l-53 -144h-62z" />
    <glyph glyph-name="rcommaaccent" unicode="&#x157;" horiz-adv-x="296" 
d="M61 400q0 28 -1.5 55.5t-2.5 54.5h81l3 -80h2q20 47 54 67t91 20v-83q-15 3 -32 3q-49 0 -80 -41.5t-31 -125.5v-270h-84v400zM126 -37h79l-53 -144h-62z" />
    <glyph glyph-name="Rcaron" unicode="&#x158;" horiz-adv-x="519" 
d="M77 698h179q56 0 89.5 -12.5t57.5 -35.5q27 -26 39.5 -60.5t12.5 -72.5q0 -28 -7 -54.5t-23.5 -48.5t-42.5 -39t-65 -25v-2q32 -6 48.5 -22t27.5 -46l98 -280h-95l-80 236q-15 44 -38 62t-73 18h-40v-316h-88v698zM165 388h68q35 0 60 10.5t40.5 28t22.5 39.5t7 45
q0 59 -35 87t-93 28h-70v-238zM99 847h73l65 -66l65 66h73l-92 -109h-92z" />
    <glyph glyph-name="rcaron" unicode="&#x159;" horiz-adv-x="296" 
d="M61 400q0 28 -1.5 55.5t-2.5 54.5h81l3 -80h2q20 47 54 67t91 20v-83q-15 3 -32 3q-49 0 -80 -41.5t-31 -125.5v-270h-84v400zM44 725h70l63 -95l63 95h70l-87 -145h-92z" />
    <glyph glyph-name="Sacute" unicode="&#x15a;" horiz-adv-x="444" 
d="M365 597q-25 15 -56 23.5t-63 8.5q-50 0 -79.5 -29.5t-29.5 -74.5q0 -17 4.5 -31.5t17 -29.5t36 -31.5t60.5 -38.5q81 -46 112.5 -94.5t31.5 -108.5q0 -42 -13 -78t-38.5 -62.5t-63.5 -42t-88 -15.5q-42 0 -80 8t-66 22v91q30 -18 66 -31.5t67 -13.5q30 0 53 9t38.5 24.5
t24 35.5t8.5 41q0 20 -3.5 37t-15 33t-33 33.5t-56.5 38.5q-47 29 -77 52.5t-47 47t-23.5 49.5t-6.5 60q0 43 15.5 76t42 55t61.5 33t75 11q35 0 69 -6.5t57 -16.5v-85zM254 847h103l-102 -109h-68z" />
    <glyph glyph-name="sacute" unicode="&#x15b;" horiz-adv-x="370" 
d="M39 99q29 -17 58.5 -27.5t61.5 -10.5q48 0 72.5 21.5t24.5 50.5q0 26 -15 45t-50 35l-56 25q-55 25 -77.5 53.5t-22.5 77.5q0 32 11.5 59t33 46.5t52 31t67.5 11.5q32 0 59 -5t49 -13l-4 -72q-20 9 -45.5 15.5t-54.5 6.5q-42 0 -63 -20t-21 -50q0 -31 22 -50t64 -36
l30 -12q47 -19 74 -50.5t27 -79.5q0 -33 -9 -62t-29 -50t-51 -33.5t-75 -12.5q-40 0 -75 8t-63 22zM215 725h94l-102 -145h-64z" />
    <glyph glyph-name="Scedilla" unicode="&#x15e;" horiz-adv-x="444" 
d="M202 -60q14 3 29 3q35 0 60 -18.5t25 -53.5q0 -36 -30 -61.5t-89 -25.5q-26 0 -49.5 6t-38.5 12l14 35q15 -5 32 -9t31 -4q26 0 42 12.5t16 29.5q0 37 -44 37q-26 0 -43 -7l-15 19l52 78q-42 0 -79 8t-65 22v91q30 -18 66 -31.5t67 -13.5q30 0 53 9t38.5 24.5t24 35.5
t8.5 41q0 20 -3.5 37t-15 33t-33 33.5t-56.5 38.5q-47 29 -77 52.5t-47 47t-23.5 49.5t-6.5 60q0 43 15.5 76t42 55t61.5 33t75 11q35 0 69 -6.5t57 -16.5v-85q-25 15 -56 23.5t-63 8.5q-50 0 -79.5 -29.5t-29.5 -74.5q0 -17 4.5 -31.5t17 -29.5t36 -31.5t60.5 -38.5
q81 -46 112.5 -94.5t31.5 -108.5q0 -73 -40 -127t-118 -67z" />
    <glyph glyph-name="scedilla" unicode="&#x15f;" horiz-adv-x="370" 
d="M171 -60q14 3 29 3q35 0 60 -18.5t25 -53.5q0 -36 -30 -61.5t-89 -25.5q-26 0 -49.5 6t-38.5 12l14 35q15 -5 32 -9t31 -4q26 0 42 12.5t16 29.5q0 37 -44 37q-26 0 -43 -7l-15 19l52 78q-37 1 -70 8.5t-59 21.5l5 76q29 -17 58.5 -27.5t61.5 -10.5q48 0 72.5 21.5
t24.5 50.5q0 26 -15 45t-50 35l-56 25q-55 25 -77.5 53.5t-22.5 77.5q0 32 11.5 59t33 46.5t52 31t67.5 11.5q32 0 59 -5t49 -13l-4 -72q-20 9 -45.5 15.5t-54.5 6.5q-42 0 -63 -20t-21 -50q0 -31 22 -50t64 -36l30 -12q47 -19 74 -50.5t27 -79.5q0 -58 -29.5 -101.5
t-97.5 -53.5z" />
    <glyph glyph-name="Scaron" unicode="&#x160;" horiz-adv-x="444" 
d="M365 597q-25 15 -56 23.5t-63 8.5q-50 0 -79.5 -29.5t-29.5 -74.5q0 -17 4.5 -31.5t17 -29.5t36 -31.5t60.5 -38.5q81 -46 112.5 -94.5t31.5 -108.5q0 -42 -13 -78t-38.5 -62.5t-63.5 -42t-88 -15.5q-42 0 -80 8t-66 22v91q30 -18 66 -31.5t67 -13.5q30 0 53 9t38.5 24.5
t24 35.5t8.5 41q0 20 -3.5 37t-15 33t-33 33.5t-56.5 38.5q-47 29 -77 52.5t-47 47t-23.5 49.5t-6.5 60q0 43 15.5 76t42 55t61.5 33t75 11q35 0 69 -6.5t57 -16.5v-85zM94 847h73l65 -66l65 66h73l-92 -109h-92z" />
    <glyph glyph-name="scaron" unicode="&#x161;" horiz-adv-x="370" 
d="M39 99q29 -17 58.5 -27.5t61.5 -10.5q48 0 72.5 21.5t24.5 50.5q0 26 -15 45t-50 35l-56 25q-55 25 -77.5 53.5t-22.5 77.5q0 32 11.5 59t33 46.5t52 31t67.5 11.5q32 0 59 -5t49 -13l-4 -72q-20 9 -45.5 15.5t-54.5 6.5q-42 0 -63 -20t-21 -50q0 -31 22 -50t64 -36
l30 -12q47 -19 74 -50.5t27 -79.5q0 -33 -9 -62t-29 -50t-51 -33.5t-75 -12.5q-40 0 -75 8t-63 22zM59 725h70l63 -95l63 95h70l-87 -145h-92z" />
    <glyph glyph-name="Tcommaaccent" unicode="&#x162;" horiz-adv-x="444" 
d="M178 622h-160v76h408v-76h-160v-622h-88v622zM212 -37h79l-53 -144h-62z" />
    <glyph glyph-name="tcommaaccent" unicode="&#x163;" horiz-adv-x="296" 
d="M286 6q-15 -5 -34.5 -9t-36.5 -4q-58 0 -88 26.5t-30 94.5v328h-81v68h81v104l84 25v-129h105v-68h-105v-301q0 -44 12 -62t41 -18q16 0 28 4t24 9v-68zM162 -37h79l-53 -144h-62z" />
    <glyph glyph-name="Tcaron" unicode="&#x164;" horiz-adv-x="444" 
d="M178 622h-160v76h408v-76h-160v-622h-88v622zM85 847h73l65 -66l65 66h73l-92 -109h-92z" />
    <glyph glyph-name="tcaron" unicode="&#x165;" horiz-adv-x="316" 
d="M286 6q-15 -5 -34.5 -9t-36.5 -4q-58 0 -88 26.5t-30 94.5v328h-81v68h81v104l84 25v-129h105v-68h-105v-301q0 -44 12 -62t41 -18q16 0 28 4t24 9v-68zM265 750h74l-60 -172h-52z" />
    <glyph glyph-name="Umacron" unicode="&#x16a;" horiz-adv-x="592" 
d="M515 257q0 -52 -5 -85.5t-23 -70.5q-22 -43 -68.5 -75.5t-122.5 -32.5t-122.5 32.5t-68.5 75.5q-18 37 -23 70.5t-5 85.5v441h88v-454q0 -82 34 -130.5t97 -48.5t97 48.5t34 130.5v454h88v-441zM160 814h264v-60h-264v60z" />
    <glyph glyph-name="umacron" unicode="&#x16b;" 
d="M421 110q0 -28 1.5 -55.5t2.5 -54.5h-81l-3 76h-2q-20 -44 -52 -63.5t-77 -19.5q-67 0 -108 39t-41 124v354h84v-329q0 -61 21.5 -88.5t62.5 -27.5q50 0 79 34.5t29 103.5v307h84v-400zM110 684h264v-60h-264v60z" />
    <glyph glyph-name="Uring" unicode="&#x16e;" horiz-adv-x="592" 
d="M515 257q0 -52 -5 -85.5t-23 -70.5q-22 -43 -68.5 -75.5t-122.5 -32.5t-122.5 32.5t-68.5 75.5q-18 37 -23 70.5t-5 85.5v441h88v-454q0 -82 34 -130.5t97 -48.5t97 48.5t34 130.5v454h88v-441zM215 789q0 34 23.5 57.5t57.5 23.5t57.5 -23.5t23.5 -57.5t-23.5 -57.5
t-57.5 -23.5t-57.5 23.5t-23.5 57.5zM250 789q0 -19 13.5 -32.5t32.5 -13.5t32.5 13.5t13.5 32.5t-13.5 32.5t-32.5 13.5t-32.5 -13.5t-13.5 -32.5z" />
    <glyph glyph-name="uring" unicode="&#x16f;" 
d="M421 110q0 -28 1.5 -55.5t2.5 -54.5h-81l-3 76h-2q-20 -44 -52 -63.5t-77 -19.5q-67 0 -108 39t-41 124v354h84v-329q0 -61 21.5 -88.5t62.5 -27.5q50 0 79 34.5t29 103.5v307h84v-400zM148 648q0 19 7.5 36t20.5 30t30 20.5t36 7.5t36 -7.5t30 -20.5t20.5 -30t7.5 -36
t-7.5 -36t-20.5 -30t-30 -20.5t-36 -7.5t-36 7.5t-30 20.5t-20.5 30t-7.5 36zM190 648q0 -22 15 -37t37 -15t37 15t15 37t-15 37t-37 15t-37 -15t-15 -37z" />
    <glyph glyph-name="Uhungarumlaut" unicode="&#x170;" horiz-adv-x="592" 
d="M515 257q0 -52 -5 -85.5t-23 -70.5q-22 -43 -68.5 -75.5t-122.5 -32.5t-122.5 32.5t-68.5 75.5q-18 37 -23 70.5t-5 85.5v441h88v-454q0 -82 34 -130.5t97 -48.5t97 48.5t34 130.5v454h88v-441zM243 847h101l-102 -109h-66zM411 847h101l-102 -109h-66z" />
    <glyph glyph-name="uhungarumlaut" unicode="&#x171;" 
d="M421 110q0 -28 1.5 -55.5t2.5 -54.5h-81l-3 76h-2q-20 -44 -52 -63.5t-77 -19.5q-67 0 -108 39t-41 124v354h84v-329q0 -61 21.5 -88.5t62.5 -27.5q50 0 79 34.5t29 103.5v307h84v-400zM197 725h94l-102 -145h-64zM357 725h94l-102 -145h-64z" />
    <glyph glyph-name="Uogonek" unicode="&#x172;" horiz-adv-x="592" 
d="M284 -7q-67 2 -112 33t-67 75q-18 37 -23 70.5t-5 85.5v441h88v-454q0 -82 34 -130.5t97 -48.5t97 48.5t34 130.5v454h88v-441q0 -52 -5 -85.5t-23 -70.5q-15 -31 -42 -56.5t-69 -39.5q-21 -6 -30 -10.5t-19 -14.5q-30 -33 -40 -57.5t-10 -46.5q0 -24 13.5 -33.5
t24.5 -9.5q10 0 19 0.5t22 6.5v-43q-13 -5 -31.5 -6t-32.5 -1q-7 0 -20 2.5t-25.5 11t-22 24.5t-9.5 44q0 23 17.5 57t51.5 64z" />
    <glyph glyph-name="uogonek" unicode="&#x173;" 
d="M425 0q-8 0 -17 -7.5t-14 -12.5q-30 -33 -40 -57t-10 -47q0 -24 13.5 -33.5t24.5 -9.5q10 0 19 0.5t22 6.5v-43q-13 -5 -31.5 -6t-32.5 -1q-7 0 -20 2.5t-25.5 11t-22 24.5t-9.5 44q0 25 20 61t57 67h-15l-3 76h-2q-20 -44 -52 -63.5t-77 -19.5q-67 0 -108 39t-41 124
v354h84v-329q0 -61 21.5 -88.5t62.5 -27.5q50 0 79 34.5t29 103.5v307h84v-400q0 -28 1.5 -55.5t2.5 -54.5z" />
    <glyph glyph-name="Ydieresis" unicode="&#x178;" horiz-adv-x="518" 
d="M215 293l-209 405h100l154 -309l155 309h97l-209 -405v-293h-88v293zM139 841h80v-100h-80v100zM299 841h80v-100h-80v100z" />
    <glyph glyph-name="Zacute" unicode="&#x179;" horiz-adv-x="463" 
d="M34 83l284 539h-275v76h380v-76l-293 -546h299v-76h-395v83zM260 847h103l-102 -109h-68z" />
    <glyph glyph-name="zacute" unicode="&#x17a;" horiz-adv-x="389" 
d="M353 510v-76l-236 -362h241v-72h-327v76l236 362h-228v72h314zM227 725h94l-102 -145h-64z" />
    <glyph glyph-name="Zdotaccent" unicode="&#x17b;" horiz-adv-x="463" 
d="M34 83l284 539h-275v76h380v-76l-293 -546h299v-76h-395v83zM200 841h80v-100h-80v100z" />
    <glyph glyph-name="zdotaccent" unicode="&#x17c;" horiz-adv-x="389" 
d="M353 510v-76l-236 -362h241v-72h-327v76l236 362h-228v72h314zM161 715h80v-100h-80v100z" />
    <glyph glyph-name="Zcaron" unicode="&#x17d;" horiz-adv-x="463" 
d="M34 83l284 539h-275v76h380v-76l-293 -546h299v-76h-395v83zM102 847h73l65 -66l65 66h73l-92 -109h-92z" />
    <glyph glyph-name="zcaron" unicode="&#x17e;" horiz-adv-x="389" 
d="M353 510v-76l-236 -362h241v-72h-327v76l236 362h-228v72h314zM68 725h70l63 -95l63 95h70l-87 -145h-92z" />
    <glyph glyph-name="florin" unicode="&#x192;" horiz-adv-x="480" 
d="M32 -137q14 -5 28.5 -9t26.5 -4q14 0 24.5 7t20 29.5t19 65.5t19.5 115l41 281h-88v64h98l13 74q11 61 24.5 103t31.5 67.5t42 37t55 11.5q20 0 40 -4.5t31 -12.5l-11 -67q-11 8 -25 12t-26 4q-17 0 -29 -8.5t-21 -28.5t-15.5 -52.5t-13.5 -80.5l-8 -55h89v-64h-99
l-41 -272q-12 -80 -27 -136.5t-35.5 -92.5t-48 -52.5t-64.5 -16.5q-17 0 -33.5 5t-27.5 10z" />
    <glyph glyph-name="Scommaaccent" unicode="&#x218;" horiz-adv-x="444" 
d="M365 597q-25 15 -56 23.5t-63 8.5q-50 0 -79.5 -29.5t-29.5 -74.5q0 -17 4.5 -31.5t17 -29.5t36 -31.5t60.5 -38.5q81 -46 112.5 -94.5t31.5 -108.5q0 -42 -13 -78t-38.5 -62.5t-63.5 -42t-88 -15.5q-42 0 -80 8t-66 22v91q30 -18 66 -31.5t67 -13.5q30 0 53 9t38.5 24.5
t24 35.5t8.5 41q0 20 -3.5 37t-15 33t-33 33.5t-56.5 38.5q-47 29 -77 52.5t-47 47t-23.5 49.5t-6.5 60q0 43 15.5 76t42 55t61.5 33t75 11q35 0 69 -6.5t57 -16.5v-85zM190 -37h79l-53 -144h-62z" />
    <glyph glyph-name="scommaaccent" unicode="&#x219;" horiz-adv-x="370" 
d="M39 99q29 -17 58.5 -27.5t61.5 -10.5q48 0 72.5 21.5t24.5 50.5q0 26 -15 45t-50 35l-56 25q-55 25 -77.5 53.5t-22.5 77.5q0 32 11.5 59t33 46.5t52 31t67.5 11.5q32 0 59 -5t49 -13l-4 -72q-20 9 -45.5 15.5t-54.5 6.5q-42 0 -63 -20t-21 -50q0 -31 22 -50t64 -36
l30 -12q47 -19 74 -50.5t27 -79.5q0 -33 -9 -62t-29 -50t-51 -33.5t-75 -12.5q-40 0 -75 8t-63 22zM159 -37h79l-53 -144h-62z" />
    <glyph glyph-name="circumflex" unicode="&#x2c6;" horiz-adv-x="204" 
d="M148 725l87 -145h-70l-63 95l-63 -95h-70l87 145h92z" />
    <glyph glyph-name="caron" unicode="&#x2c7;" horiz-adv-x="204" 
d="M-31 725h70l63 -95l63 95h70l-87 -145h-92z" />
    <glyph glyph-name="breve" unicode="&#x2d8;" horiz-adv-x="204" 
d="M28 717q5 -33 24.5 -51t49.5 -18t49.5 18t24.5 51h52q-8 -66 -41.5 -97.5t-84.5 -31.5t-84.5 31.5t-41.5 97.5h52z" />
    <glyph glyph-name="dotaccent" unicode="&#x2d9;" horiz-adv-x="204" 
d="M62 715h80v-100h-80v100z" />
    <glyph glyph-name="ring" unicode="&#x2da;" horiz-adv-x="204" 
d="M9 648q0 19 7.5 36t20.5 30t30 20.5t36 7.5t36 -7.5t30 -20.5t20.5 -30t7.5 -36t-7.5 -36t-20.5 -30t-30 -20.5t-36 -7.5t-36 7.5t-30 20.5t-20.5 30t-7.5 36zM51 648q0 -22 15 -37t37 -15t37 15t15 37t-15 37t-37 15t-37 -15t-15 -37z" />
    <glyph glyph-name="ogonek" unicode="&#x2db;" horiz-adv-x="204" 
d="M187 0q-43 -42 -56.5 -70t-13.5 -54q0 -24 13.5 -33.5t24.5 -9.5q10 0 19 0.5t22 6.5v-43q-13 -5 -31.5 -6t-32.5 -1q-7 0 -20 2.5t-25.5 11t-22 24.5t-9.5 44q0 25 20 61t57 67h55z" />
    <glyph glyph-name="tilde" unicode="&#x2dc;" horiz-adv-x="204" 
d="M248 710q-8 -50 -28.5 -78.5t-56.5 -28.5q-12 0 -26.5 3.5t-42.5 17.5q-23 11 -31 14t-16 3q-14 0 -25.5 -9.5t-13.5 -33.5h-52q5 51 29 79t66 28q14 0 30 -5t46 -20q15 -8 22.5 -10.5t12.5 -2.5q25 0 34 43h52z" />
    <glyph glyph-name="hungarumlaut" unicode="&#x2dd;" horiz-adv-x="204" 
d="M44 725h94l-102 -145h-64zM204 725h94l-102 -145h-64z" />
    <glyph glyph-name="endash" unicode="&#x2013;" horiz-adv-x="500" 
d="M0 315h500v-68h-500v68z" />
    <glyph glyph-name="emdash" unicode="&#x2014;" horiz-adv-x="1000" 
d="M0 315h1000v-68h-1000v68z" />
    <glyph glyph-name="quoteleft" unicode="&#x2018;" horiz-adv-x="240" 
d="M115 750h76l-50 -232h-92z" />
    <glyph glyph-name="quoteright" unicode="&#x2019;" horiz-adv-x="240" 
d="M99 750h92l-66 -232h-76z" />
    <glyph glyph-name="quotesinglbase" unicode="&#x201a;" horiz-adv-x="240" 
d="M99 105h92l-66 -232h-76z" />
    <glyph glyph-name="quotedblleft" unicode="&#x201c;" horiz-adv-x="500" 
d="M320 750h76l-50 -232h-92zM170 750h76l-50 -232h-92z" />
    <glyph glyph-name="quotedblright" unicode="&#x201d;" horiz-adv-x="500" 
d="M154 750h92l-66 -232h-76zM304 750h92l-66 -232h-76z" />
    <glyph glyph-name="quotedblbase" unicode="&#x201e;" horiz-adv-x="500" 
d="M154 105h92l-66 -232h-76zM304 105h92l-66 -232h-76z" />
    <glyph glyph-name="dagger" unicode="&#x2020;" horiz-adv-x="480" 
d="M202 449h-138v68h138v181h76v-181h138v-68h-138v-449h-76v449z" />
    <glyph glyph-name="daggerdbl" unicode="&#x2021;" horiz-adv-x="480" 
d="M202 168h-138v68h138v226h-138v68h138v168h76v-168h138v-68h-138v-226h138v-68h-138v-168h-76v168z" />
    <glyph glyph-name="bullet" unicode="&#x2022;" horiz-adv-x="500" 
d="M75 349q0 36 13.5 68t37.5 56t56 37.5t68 13.5t68 -13.5t56 -37.5t37.5 -56t13.5 -68t-13.5 -68t-37.5 -56t-56 -37.5t-68 -13.5t-68 13.5t-56 37.5t-37.5 56t-13.5 68z" />
    <glyph glyph-name="ellipsis" unicode="&#x2026;" horiz-adv-x="1000" 
d="M119 112h96v-112h-96v112zM452 112h96v-112h-96v112zM785 112h96v-112h-96v112z" />
    <glyph glyph-name="perthousand" unicode="&#x2030;" horiz-adv-x="890" 
d="M680 180q0 -76 14 -103.5t41 -27.5t41 27.5t14 103.5q0 75 -14 103t-41 28t-41 -28t-14 -103zM407 705h51l-249 -712h-50zM100 518q0 -76 14 -103.5t41 -27.5t41 27.5t14 103.5q0 75 -14 103t-41 28t-41 -28t-14 -103zM620 180q0 98 28 142.5t87 44.5t87 -44.5t28 -142.5
t-28 -142.5t-87 -44.5t-87 44.5t-28 142.5zM40 518q0 98 28 142.5t87 44.5t87 -44.5t28 -142.5t-28 -142.5t-87 -44.5t-87 44.5t-28 142.5zM346 180q0 98 28 142.5t87 44.5t87 -44.5t28 -142.5t-28 -142.5t-87 -44.5t-87 44.5t-28 142.5zM406 180q0 -76 14 -103.5t41 -27.5
t41 27.5t14 103.5q0 75 -14 103t-41 28t-41 -28t-14 -103z" />
    <glyph glyph-name="guilsinglleft" unicode="&#x2039;" horiz-adv-x="278" 
d="M47 260l112 206h72l-100 -206l100 -206h-72z" />
    <glyph glyph-name="guilsinglright" unicode="&#x203a;" horiz-adv-x="278" 
d="M147 260l-100 206h72l112 -206l-112 -206h-72z" />
    <glyph glyph-name="fraction" unicode="&#x2044;" horiz-adv-x="167" 
d="M208 731h64l-313 -764h-64z" />
    <glyph glyph-name="trademark" unicode="&#x2122;" horiz-adv-x="1000" 
d="M184 652h-130v46h324v-46h-130v-370h-64v370zM458 698h102l122 -320l122 320h102v-416h-64v362h-2l-137 -362h-43l-136 362h-2v-362h-64v416z" />
    <glyph glyph-name="partialdiff" unicode="&#x2202;" horiz-adv-x="494" 
d="M65 717q15 6 35.5 13t44.5 11t50 4.5t51 -5.5q46 -11 89 -41t79 -93q17 -30 26.5 -63.5t14.5 -63.5t6 -53.5t1 -32.5q0 -15 -2.5 -46t-8.5 -68t-16 -76.5t-25 -71.5q-20 -43 -41 -74t-63 -54q-52 -29 -104.5 -23.5t-90.5 31.5q-29 20 -54 54t-30 91q-3 30 2 57.5t14 50
t19.5 39.5t19.5 28q26 32 60 52.5t82 18.5q22 -1 39 -4.5t33 -11t34.5 -20t43.5 -32.5q6 32 8 59.5t3 56.5q0 18 -3 41t-8 45t-10.5 41.5t-10.5 31.5q-4 11 -13.5 25.5t-23.5 28t-33 23.5t-42 12q-27 2 -43 1t-29.5 -5t-28 -11t-36.5 -16zM366 299q-8 9 -17 20t-22 21
t-29.5 16.5t-39.5 6.5q-57 -2 -96 -54q-30 -42 -40 -82.5t-10 -78.5q0 -11 1 -27.5t5.5 -34.5t13.5 -35t26 -28q21 -14 41 -14.5t42 9.5q28 12 47 35t34 58q18 45 28 92t16 96z" />
    <glyph glyph-name="Delta" unicode="&#x2206;" horiz-adv-x="612" 
d="M608 0h-602l320 688zM72 49h412l-194 468z" />
    <glyph glyph-name="summation" unicode="&#x2211;" horiz-adv-x="713" 
d="M623 586h-20q-7 24 -14 45t-22 36.5t-42 24t-75 8.5h-263l273 -358l-294 -339h371q29 0 49 5t34.5 18t26.5 35t25 55h23q-9 -38 -15 -63.5t-10.5 -48.5t-8.5 -48.5t-9 -63.5q-20 3 -39 7t-38 4h-503q-15 0 -29 -1.5t-29 -1.5l349 398l-347 454q26 -2 52 -4.5t52 -2.5h497
z" />
    <glyph glyph-name="minus" unicode="&#x2212;" horiz-adv-x="600" 
d="M47 287h506v-68h-506v68z" />
    <glyph glyph-name="radical" unicode="&#x221a;" horiz-adv-x="549" 
d="M10 450l146 72l197 -403l127 798l35 -5l-150 -950l-243 502l-96 -47z" />
    <glyph glyph-name="notequal" unicode="&#x2260;" horiz-adv-x="549" 
d="M451 521l-76 -136h165v-55h-195l-78 -139h273v-55h-303l-90 -161l-49 28l74 133h-157v55h188l77 139h-265v55h296l91 164z" />
    <glyph glyph-name="lessequal" unicode="&#x2264;" horiz-adv-x="549" 
d="M29 55h497v-55h-497v55zM29 409l497 230v-62l-433 -199l433 -199v-62l-497 230v62z" />
    <glyph glyph-name="greaterequal" unicode="&#x2265;" horiz-adv-x="549" 
d="M526 0h-497v55h497v-55zM526 347l-497 -230v62l433 199l-433 199v62l497 -230v-62z" />
    <glyph glyph-name="lozenge" unicode="&#x25ca;" horiz-adv-x="494" 
d="M212 0l-194 377l194 368h60l194 -368l-194 -377h-60zM242 691l-164 -314l164 -323l164 323z" />
    <glyph glyph-name="fi" unicode="&#xfb01;" horiz-adv-x="500" 
d="M347 510h84v-510h-84v510zM435 720v-100h-92v100h92zM97 442h-81v68h81v114q0 63 30 100.5t97 37.5q36 0 66 -8v-72q-8 6 -20.5 9t-27.5 3q-35 0 -48 -19.5t-13 -57.5v-107h92v-68h-92v-442h-84v442z" />
    <glyph glyph-name="fl" unicode="&#xfb02;" horiz-adv-x="500" 
d="M347 750h84v-750h-84v750zM97 442h-81v68h81v114q0 63 30 100.5t97 37.5q36 0 66 -8v-72q-8 6 -20.5 9t-27.5 3q-35 0 -48 -19.5t-13 -57.5v-107h92v-68h-92v-442h-84v442z" />
    <glyph glyph-name="commaaccent" horiz-adv-x="240" 
d="M111 -37h79l-53 -144h-62z" />
  </font>
</defs>
</svg>
