<?xml version="1.0" standalone="no"?>
<!DOCTYPE svg PUBLIC "-//W3C//DTD SVG 1.1//EN" "http://www.w3.org/Graphics/SVG/1.1/DTD/svg11.dtd" >
<svg>
<metadata>
Created by FontForge 20120731 at Mon Sep 12 10:39:37 2016
 By ,,,
 The digitally encoded machine readable software for producing   the Typefaces licensed to you is copyrighted (c) 1988, 1990 Adobe  Systems. All Rights Reserved. This software is the property of  Adobe Systems Incorporated and its licensors, and may not be  reproduced, used, displayed, modified, disclosed or transferred  without the express written approval of Adobe. 
</metadata>
<defs>
<font id="FrutigerCE-Light" horiz-adv-x="556" >
  <font-face 
    font-family="L Frutiger CE Light"
    font-weight="300"
    font-stretch="normal"
    units-per-em="1000"
    panose-1="0 0 0 0 0 0 0 0 0 0"
    ascent="800"
    descent="-200"
    x-height="510"
    cap-height="698"
    bbox="-152 -216 1000 917"
    underline-thickness="50"
    underline-position="-50"
    unicode-range="U+000D-FB02"
  />
<missing-glyph horiz-adv-x="278" 
 />
    <glyph glyph-name=".notdef" horiz-adv-x="278" 
 />
    <glyph glyph-name=".null" horiz-adv-x="0" 
 />
    <glyph glyph-name=".null" horiz-adv-x="0" 
 />
    <glyph glyph-name="nonmarkingreturn" unicode="&#xd;" horiz-adv-x="250" 
 />
    <glyph glyph-name="space" unicode=" " horiz-adv-x="278" 
 />
    <glyph glyph-name="exclam" unicode="!" horiz-adv-x="389" 
d="M223 169h-57l-12 529h81zM154 84h81v-84h-81v84z" />
    <glyph glyph-name="quotedbl" unicode="&#x22;" 
d="M179 698h63v-218h-63v218zM314 698h63v-218h-63v218z" />
    <glyph glyph-name="numbersign" unicode="#" 
d="M138 219h-104v54h111l22 152h-107v54h114l31 219h61l-31 -219h130l31 219h61l-31 -219h96v-54h-103l-21 -152h96v-54h-104l-31 -219h-61l31 219h-130l-31 -219h-61zM358 425h-130l-21 -152h130z" />
    <glyph glyph-name="dollar" unicode="$" 
d="M308 57q43 12 70 44.5t27 89.5q0 37 -27.5 64t-69.5 52v-250zM257 645q-41 -8 -72 -35t-31 -80q0 -39 29.5 -66t73.5 -51v232zM308 771v-61q26 0 63 -4.5t72 -18.5l-11 -63q-23 13 -56 19t-68 7v-265q31 -16 60.5 -35t53 -42.5t38 -53.5t14.5 -69q0 -42 -13.5 -74.5
t-36.5 -56t-53 -38.5t-63 -22v-83h-51v78q-4 -1 -12 -1q-51 0 -90.5 9t-67.5 21l7 71q31 -20 68 -30.5t86 -10.5q5 0 9 1v287q-31 17 -62 35.5t-55.5 41.5t-39.5 51t-15 64t13 66.5t36 53t54.5 37.5t68.5 21v65h51z" />
    <glyph glyph-name="percent" unicode="%" horiz-adv-x="1000" 
d="M579 180q0 40 9 74.5t28.5 59.5t49 39t71.5 14t71.5 -14t49 -39t28.5 -59.5t9 -74.5t-9 -74.5t-28.5 -59.5t-49 -39t-71.5 -14t-71.5 14t-49 39t-28.5 59.5t-9 74.5zM642 180q0 -23 4.5 -47t15 -43t29 -31t46.5 -12t46.5 12t29 31t15 43t4.5 47t-4.5 47t-15 43t-29 31
t-46.5 12t-46.5 -12t-29 -31t-15 -43t-4.5 -47zM105 518q0 40 9 74.5t28.5 59.5t49 39t71.5 14t71.5 -14t49 -39t28.5 -59.5t9 -74.5t-9 -74.5t-28.5 -59.5t-49 -39t-71.5 -14t-71.5 14t-49 39t-28.5 59.5t-9 74.5zM168 518q0 -23 4.5 -47t15 -43t29 -31t46.5 -12t46.5 12
t29 31t15 43t4.5 47t-4.5 47t-15 43t-29 31t-46.5 12t-46.5 -12t-29 -31t-15 -43t-4.5 -47zM677 720h58l-413 -742h-58z" />
    <glyph glyph-name="ampersand" unicode="&#x26;" horiz-adv-x="667" 
d="M492 171q33 48 46.5 101.5t13.5 110.5h60q0 -68 -19.5 -133.5t-58.5 -118.5l119 -129h-88l-74 78q-43 -48 -96.5 -70t-115.5 -22q-44 0 -85.5 11.5t-73.5 35.5t-51 60.5t-19 87.5q0 40 12.5 71.5t35 56.5t52.5 43.5t65 31.5q-16 18 -32.5 37.5t-29.5 40.5t-21 44.5
t-8 49.5q0 38 16.5 66t43 47.5t60.5 29t68 9.5q31 0 60.5 -8.5t52.5 -26.5t37 -45t14 -64q0 -41 -14.5 -70t-38 -50.5t-53.5 -37.5t-62 -32zM250 347q-25 -10 -48.5 -25.5t-42 -36t-29.5 -45.5t-11 -54q0 -36 13.5 -63t36 -45t52 -27t60.5 -9q48 0 95 22t77 59zM193 554
q0 -41 25.5 -75.5t53.5 -66.5q23 11 47 23t43.5 28.5t32 38.5t12.5 53q0 50 -27 75.5t-72 25.5q-22 0 -43 -6.5t-37 -19t-25.5 -31.5t-9.5 -45z" />
    <glyph glyph-name="quotesingle" unicode="'" horiz-adv-x="278" 
d="M108 698h63v-218h-63v218z" />
    <glyph glyph-name="parenleft" unicode="(" horiz-adv-x="278" 
d="M213 -140q-33 51 -63.5 104t-54.5 108.5t-38.5 114t-14.5 121.5t14.5 121.5t38.5 114t54.5 108.5t63.5 104h42q-27 -52 -54 -106t-48.5 -109.5t-34.5 -113.5t-13 -119t13 -119t34.5 -113.5t48.5 -109.5t54 -106h-42z" />
    <glyph glyph-name="parenright" unicode=")" horiz-adv-x="278" 
d="M65 756q33 -51 63.5 -104t54.5 -108.5t38.5 -114t14.5 -121.5t-14.5 -121.5t-38.5 -114t-54.5 -108.5t-63.5 -104h-42q27 52 54 106t48.5 109.5t34.5 113.5t13 119t-13 119t-34.5 113.5t-48.5 109.5t-54 106h42z" />
    <glyph glyph-name="asterisk" unicode="*" 
d="M307 698l-7 -153l145 56l19 -58l-147 -42l97 -119l-50 -38l-86 131l-84 -131l-49 38l94 119l-147 42l17 58l147 -56l-7 153h58z" />
    <glyph glyph-name="plus" unicode="+" horiz-adv-x="600" 
d="M46 288h219v219h69v-219h219v-69h-219v-219h-69v219h-219v69z" />
    <glyph glyph-name="comma" unicode="," horiz-adv-x="278" 
d="M112 84h84l-79 -218h-63z" />
    <glyph glyph-name="hyphen" unicode="-" horiz-adv-x="333" 
d="M41 304h251v-69h-251v69z" />
    <glyph glyph-name="period" unicode="." horiz-adv-x="278" 
d="M98 84h81v-84h-81v84z" />
    <glyph glyph-name="slash" unicode="/" horiz-adv-x="278" 
d="M240 710h69l-271 -722h-69z" />
    <glyph glyph-name="zero" unicode="0" 
d="M278 645q-54 0 -86 -30t-48.5 -74.5t-21 -96t-4.5 -95.5q0 -43 4.5 -95t21 -96.5t48.5 -74.5t86 -30t86 30t48.5 74.5t21 96.5t4.5 95q0 44 -4.5 95.5t-21 96t-48.5 74.5t-86 30zM278 705q70 0 114.5 -32.5t70 -84t35 -115t9.5 -124.5q0 -55 -8 -117.5t-32 -115.5
t-69 -88t-120 -35t-120 35t-69 88t-32 115.5t-8 117.5q0 61 9.5 124.5t35 115t70 84t114.5 32.5z" />
    <glyph glyph-name="one" unicode="1" 
d="M281 698h62v-698h-69v620l-113 -99l-38 45z" />
    <glyph glyph-name="two" unicode="2" 
d="M50 60l160 177q32 35 62 71.5t53.5 72.5t38 71t14.5 67q0 28 -9.5 51t-26 39.5t-39 26t-48.5 9.5q-48 0 -87 -13t-81 -37l-12 63q38 19 85.5 33t90.5 14q42 0 79 -11t64.5 -33.5t43 -57t15.5 -81.5q0 -39 -17.5 -80.5t-45 -83.5t-61.5 -82.5t-68 -77.5l-126 -138h334v-60
h-419v60z" />
    <glyph glyph-name="three" unicode="3" 
d="M150 392h18q36 0 77.5 3.5t77 17.5t59 42t23.5 77q0 29 -14.5 50.5t-37.5 35.5t-51.5 20.5t-56.5 6.5q-42 0 -80.5 -10t-75.5 -27l-6 65q38 14 81.5 23t87.5 9q43 0 83 -9.5t71 -30.5t49.5 -53.5t18.5 -79.5q0 -64 -40.5 -107.5t-104.5 -59.5v-2q35 -1 62 -15t45.5 -36.5
t28 -52.5t9.5 -65q0 -48 -19.5 -85t-54 -63t-80 -39.5t-98.5 -13.5q-45 0 -87.5 6t-84.5 22l8 66q43 -20 86.5 -27t81.5 -7q32 0 63.5 8t57.5 25.5t42 45.5t16 68q0 45 -19.5 71.5t-48 40t-62 17t-61.5 3.5h-64v60z" />
    <glyph glyph-name="four" unicode="4" 
d="M356 629h-2l-268 -408h270v408zM23 229l314 469h88v-477h103v-60h-103v-161h-69v161h-333v68z" />
    <glyph glyph-name="five" unicode="5" 
d="M458 638h-289l-5 -224q17 6 41 10.5t65 4.5q102 0 160.5 -53.5t58.5 -150.5q0 -58 -18.5 -101.5t-52.5 -72.5t-80.5 -43.5t-102.5 -14.5q-38 0 -76 5.5t-73 19.5v71q33 -18 72.5 -27t76.5 -9q34 0 67 9.5t59.5 29t42.5 49t16 70.5q0 81 -43 119.5t-132 38.5
q-45 0 -79 -5.5t-72 -16.5l7 351h357v-60z" />
    <glyph glyph-name="six" unicode="6" 
d="M279 -7q-69 0 -113 28.5t-68.5 75.5t-33.5 106.5t-9 120.5q0 79 16 148.5t53 121t97.5 81.5t148.5 30q29 0 56.5 -4.5t55.5 -11.5l-6 -66q-22 10 -53.5 16t-61.5 6q-68 1 -113.5 -24t-73 -66.5t-39 -94t-11.5 -105.5h2q27 45 71 65.5t93 20.5q35 0 73 -9.5t70 -34.5
t53 -67t21 -107q0 -51 -15.5 -93.5t-45 -72.5t-71.5 -47t-96 -17zM290 381q-75 0 -117 -43t-42 -112q0 -32 9 -63t27.5 -55.5t46.5 -39.5t67 -15q38 0 67.5 12.5t49.5 34.5t30 52.5t10 65.5q0 77 -37.5 120t-110.5 43z" />
    <glyph glyph-name="seven" unicode="7" 
d="M416 638h-358v60h426v-60l-270 -638h-76z" />
    <glyph glyph-name="eight" unicode="8" 
d="M68 542q0 44 21 75t52.5 50.5t68 28.5t68.5 9q41 0 78.5 -9.5t66.5 -29.5t46.5 -50.5t17.5 -73.5q0 -32 -13 -59t-33.5 -49t-46 -39.5t-50.5 -31.5q36 -13 66 -27.5t52.5 -35.5t35 -50.5t12.5 -70.5q0 -51 -20.5 -86.5t-53.5 -57.5t-74.5 -32t-83.5 -10t-83.5 11
t-74.5 34t-53.5 58t-20.5 83q0 40 12.5 69t34 50.5t51 37t63.5 27.5q-27 13 -52 29.5t-44.5 38.5t-31 49.5t-11.5 61.5zM441 185q0 33 -16.5 56t-41 40.5t-53 30.5t-52.5 25q-30 -12 -59.5 -25t-52.5 -30t-37 -42t-14 -61q0 -29 14 -52.5t37.5 -40t52.5 -25t59 -8.5
q31 0 60 7t52 23t37 41t14 61zM137 536q0 -30 14 -53t35 -40.5t46 -30.5t46 -24q24 12 48.5 26.5t45 32.5t33.5 40t13 49q0 28 -12.5 48.5t-33 34t-45.5 20t-49 6.5q-27 0 -52.5 -7t-45 -20.5t-31.5 -34t-12 -47.5z" />
    <glyph glyph-name="nine" unicode="9" 
d="M277 705q69 0 113 -28.5t68.5 -75.5t33.5 -106t9 -121q0 -79 -16 -148.5t-53 -121t-97 -81.5t-149 -30q-29 0 -56.5 4.5t-55.5 11.5l6 66q22 -10 53.5 -16t61.5 -6q68 -1 113.5 24t73 66.5t39 94t11.5 105.5h-2q-27 -45 -71 -65.5t-93 -20.5q-34 0 -72.5 9.5t-70.5 34.5
t-53 67t-21 107q0 51 15.5 93.5t45 72.5t71.5 47t96 17zM266 317q75 0 117 43t42 112q0 32 -9 63t-27.5 55.5t-46.5 39.5t-67 15q-38 0 -67.5 -12.5t-49.5 -34.5t-30 -52.5t-10 -65.5q0 -77 37.5 -120t110.5 -43z" />
    <glyph glyph-name="colon" unicode=":" horiz-adv-x="278" 
d="M179 426h-81v84h81v-84zM98 84h81v-84h-81v84z" />
    <glyph glyph-name="semicolon" unicode=";" horiz-adv-x="278" 
d="M112 84h84l-79 -218h-63zM179 426h-81v84h81v-84z" />
    <glyph glyph-name="less" unicode="&#x3c;" horiz-adv-x="600" 
d="M553 448l-430 -195l430 -195v-66l-507 230v62l507 230v-66z" />
    <glyph glyph-name="equal" unicode="=" horiz-adv-x="600" 
d="M46 388h507v-69h-507v69zM46 187h507v-69h-507v69z" />
    <glyph glyph-name="greater" unicode="&#x3e;" horiz-adv-x="600" 
d="M47 58l431 195l-431 195v66l507 -230v-62l-507 -230v66z" />
    <glyph glyph-name="question" unicode="?" horiz-adv-x="500" 
d="M86 685q35 11 72 18t74 7q39 0 73.5 -10.5t61 -32.5t42 -55.5t15.5 -80.5q0 -41 -12.5 -72t-31.5 -56t-41.5 -47.5t-41.5 -47t-31.5 -54.5t-12.5 -70v-15h-63v13q0 46 12 78.5t30.5 58t40 47t40 45t30.5 52t12 68.5q0 56 -36 87.5t-90 31.5q-41 0 -74.5 -8.5t-65.5 -19.5
zM182 84h81v-84h-81v84z" />
    <glyph glyph-name="at" unicode="@" horiz-adv-x="800" 
d="M266 290q2 -46 21 -71t51 -25q36 0 66.5 21.5t52 53t33.5 68.5t12 68q0 26 -7.5 43.5t-19 28t-25.5 14.5t-28 4q-24 0 -51.5 -15t-50.5 -42.5t-38.5 -65t-15.5 -82.5zM531 266q-5 -13 -7.5 -25.5t-2.5 -23.5q0 -9 5 -16t17 -7q28 0 54.5 17t47 46.5t33 68.5t12.5 82
q0 58 -24 103t-64 76t-92 47t-109 16q-63 0 -117 -22.5t-93.5 -62.5t-62 -95t-22.5 -120q0 -66 22.5 -121t62 -95.5t93.5 -63t117 -22.5q85 0 153.5 30t110.5 81h61q-47 -81 -132 -126t-193 -45q-90 0 -157.5 31t-113 82t-68 116t-22.5 132q0 68 22.5 133t68 115.5t113 81.5
t157.5 31q66 0 129.5 -19.5t113.5 -57.5t81 -94.5t31 -130.5q0 -64 -23.5 -115t-58 -86t-73.5 -54t-71 -19q-67 0 -79 61h-2q-9 -11 -20 -22t-25.5 -19.5t-33 -14t-44.5 -5.5q-30 0 -54.5 12t-42.5 32.5t-28 47.5t-10 58q0 49 16.5 97.5t47 87t73 62.5t94.5 24q35 0 64 -18
t46 -59l21 60h63z" />
    <glyph glyph-name="A" unicode="A" horiz-adv-x="667" 
d="M299 698h78l277 -698h-72l-75 187h-352l-75 -187h-67zM333 632l-152 -385h303z" />
    <glyph glyph-name="B" unicode="B" 
d="M80 698h166q43 0 83 -8t70.5 -27.5t49 -53t18.5 -83.5q0 -134 -127 -159v-2q66 -12 107 -54.5t41 -111.5q0 -57 -21.5 -95t-58.5 -61.5t-86 -33t-103 -9.5h-139v698zM149 60h72q35 0 70 5.5t63.5 20.5t46.5 41.5t18 68.5q0 47 -18.5 74t-48 41t-67 18t-75.5 4h-61v-273z
M151 393h77q27 0 57 4.5t55 18.5t41.5 39.5t16.5 67.5q0 38 -15.5 60.5t-38.5 34.5t-49.5 16t-48.5 4h-95v-245z" />
    <glyph glyph-name="C" unicode="C" horiz-adv-x="667" 
d="M565 620q-33 17 -76 23.5t-80 6.5q-68 0 -120.5 -22.5t-88.5 -63t-55 -95.5t-19 -120q0 -66 18.5 -121.5t54 -95t88.5 -62t122 -22.5q17 0 38 1.5t42 4.5t41 9t35 15l4 -60q-14 -9 -34.5 -14.5t-43 -9t-44 -5t-38.5 -1.5q-82 0 -147.5 26t-111 73.5t-69.5 114t-24 147.5
q0 80 24.5 146t70.5 114t111 74.5t146 26.5q15 0 37 -1.5t45 -4.5t44 -8t34 -12z" />
    <glyph glyph-name="D" unicode="D" horiz-adv-x="667" 
d="M149 60h57q74 0 134.5 16t103.5 51t66 91t23 136t-22.5 134.5t-60.5 87.5t-89.5 47.5t-110.5 14.5h-101v-578zM80 698h173q94 0 160 -25.5t108 -72t61.5 -110t19.5 -140.5q0 -95 -30 -161.5t-83.5 -108.5t-126.5 -61t-160 -19h-122v698z" />
    <glyph glyph-name="E" unicode="E" horiz-adv-x="500" 
d="M86 698h342v-60h-273v-249h259v-60h-259v-269h285v-60h-354v698z" />
    <glyph glyph-name="F" unicode="F" horiz-adv-x="444" 
d="M77 698h332v-60h-263v-249h251v-60h-251v-329h-69v698z" />
    <glyph glyph-name="G" unicode="G" horiz-adv-x="722" 
d="M564 318h-162v60h231v-347q-54 -23 -106.5 -33t-110.5 -10q-82 0 -147.5 26t-111 73.5t-69.5 114t-24 147.5q0 80 24.5 146t70.5 114t111 74.5t146 26.5q20 0 45 -2t50.5 -5.5t49.5 -10t42 -15.5l-8 -64q-41 23 -87 30t-92 7q-68 0 -120.5 -22.5t-88.5 -63t-55 -95.5
t-19 -120q0 -66 18.5 -121.5t54 -95t88.5 -62t122 -22.5q16 0 36.5 1t41 4t39.5 8t31 12v245z" />
    <glyph glyph-name="H" unicode="H" horiz-adv-x="667" 
d="M88 698h69v-309h353v309h69v-698h-69v329h-353v-329h-69v698z" />
    <glyph glyph-name="I" unicode="I" horiz-adv-x="222" 
d="M77 698h69v-698h-69v698z" />
    <glyph glyph-name="J" unicode="J" horiz-adv-x="333" 
d="M250 180q0 -40 -9.5 -75t-29 -61t-50.5 -41t-75 -15q-17 0 -36.5 3t-35.5 9v61q14 -7 32 -10t33 -3q29 0 48.5 10.5t31.5 28.5t17 41.5t5 49.5v520h69v-518z" />
    <glyph glyph-name="K" unicode="K" horiz-adv-x="611" 
d="M95 698h69v-313l314 313h90l-338 -329l367 -369h-95l-338 349v-349h-69v698z" />
    <glyph glyph-name="L" unicode="L" horiz-adv-x="444" 
d="M80 698h69v-638h280v-60h-349v698z" />
    <glyph glyph-name="M" unicode="M" horiz-adv-x="889" 
d="M86 698h107l255 -614l256 614h99v-698h-69v629h-2l-254 -629h-59l-262 629h-2v-629h-69v698z" />
    <glyph glyph-name="N" unicode="N" horiz-adv-x="667" 
d="M77 698h87l355 -614h2v614h69v-698h-93l-349 602h-2v-602h-69v698z" />
    <glyph glyph-name="O" unicode="O" horiz-adv-x="722" 
d="M54 349q-1 71 17.5 136t56.5 115t96 80t137 30t137 -30t96 -80t56.5 -115t17.5 -136q-1 -80 -20.5 -146.5t-58 -114t-96 -74t-132.5 -26.5t-132.5 26.5t-96 74t-58 114t-20.5 146.5zM361 650q-61 0 -106 -26t-74.5 -69t-43.5 -96.5t-14 -109.5q0 -55 14 -109t43.5 -97
t74.5 -69t106 -26q62 0 106.5 26t74 69t43.5 97t14 109q0 56 -14 109.5t-43.5 96.5t-74 69t-106.5 26z" />
    <glyph glyph-name="P" unicode="P" horiz-adv-x="500" 
d="M86 698h172q98 0 157 -49.5t59 -148.5q0 -49 -17.5 -86t-47.5 -62t-70.5 -37.5t-87.5 -12.5h-96v-302h-69v698zM155 362h48q39 0 75.5 4t64.5 18t45 41.5t17 74.5q0 66 -36 102t-102 36h-112v-276z" />
    <glyph glyph-name="Q" unicode="Q" horiz-adv-x="722" 
d="M542 -130l-124 123q-14 -3 -28 -4t-29 -1q-75 0 -132.5 26.5t-96 74t-58 114t-20.5 146.5q-1 71 17.5 136t56.5 115t96 80t137 30t137 -30t96 -80t56.5 -115t17.5 -136q-2 -124 -47 -212.5t-134 -124.5l147 -142h-92zM361 650q-61 0 -106 -26t-74.5 -69t-43.5 -96.5
t-14 -109.5q0 -55 14 -109t43.5 -97t74.5 -69t106 -26q62 0 106.5 26t74 69t43.5 97t14 109q0 56 -14 109.5t-43.5 96.5t-74 69t-106.5 26z" />
    <glyph glyph-name="R" unicode="R" 
d="M157 389h73q30 0 61 6.5t56 21.5t41 39.5t16 60.5q0 43 -14 67t-38 36t-56 15t-68 3h-71v-249zM88 698h180q93 0 149 -42.5t56 -138.5q0 -34 -12 -61.5t-33 -48.5t-49.5 -34t-60.5 -17v-2q21 -3 34.5 -9.5t23 -17.5t17 -25t15.5 -32l119 -270h-76l-101 236
q-15 34 -29 52.5t-29.5 27.5t-34 11t-43.5 2h-57v-329h-69v698z" />
    <glyph glyph-name="S" unicode="S" horiz-adv-x="500" 
d="M67 89q31 -20 68 -30.5t86 -10.5q32 0 60.5 8.5t50 26t34 44.5t12.5 64q0 34 -23.5 59.5t-59.5 48t-77 44t-77 47.5t-59.5 59t-23.5 79q0 42 17 75.5t47 57.5t70.5 36.5t86.5 12.5q26 0 63.5 -4.5t73.5 -18.5l-11 -63q-23 13 -57.5 19.5t-69.5 6.5q-27 0 -54 -6
t-48.5 -20t-35 -37t-13.5 -57q0 -35 23.5 -60t59.5 -46.5t77 -42t77 -47.5t59.5 -62.5t23.5 -86.5q0 -53 -20.5 -90.5t-53.5 -61t-73.5 -34.5t-81.5 -11q-51 0 -90.5 9t-67.5 21z" />
    <glyph glyph-name="T" unicode="T" horiz-adv-x="500" 
d="M216 638h-206v60h481v-60h-206v-638h-69v638z" />
    <glyph glyph-name="U" unicode="U" horiz-adv-x="667" 
d="M587 244q0 -77 -25 -127t-63 -78.5t-82.5 -39.5t-82.5 -11t-82.5 11t-82.5 39.5t-63 78.5t-25 127v454h69v-454q0 -43 11.5 -79t35 -62t58 -40.5t79.5 -14.5t79.5 14.5t58 40.5t35 62t11.5 79v454h69v-454z" />
    <glyph glyph-name="V" unicode="V" horiz-adv-x="611" 
d="M340 0h-74l-260 698h73l225 -629l233 629h68z" />
    <glyph glyph-name="W" unicode="W" horiz-adv-x="944" 
d="M733 0h-82l-177 620h-2l-180 -620h-83l-200 698h71l172 -620h2l179 620h83l176 -620h2l175 620h66z" />
    <glyph glyph-name="X" unicode="X" horiz-adv-x="611" 
d="M267 367l-234 331h81l196 -282l198 282h77l-235 -331l254 -367h-84l-213 318l-221 -318h-79z" />
    <glyph glyph-name="Y" unicode="Y" horiz-adv-x="611" 
d="M271 296l-259 402h80l213 -341l219 341h75l-259 -402v-296h-69v296z" />
    <glyph glyph-name="Z" unicode="Z" horiz-adv-x="500" 
d="M21 60l364 578h-355v60h428v-60l-362 -578h374v-60h-449v60z" />
    <glyph glyph-name="bracketleft" unicode="[" horiz-adv-x="278" 
d="M69 756h162v-48h-99v-800h99v-48h-162v896z" />
    <glyph glyph-name="backslash" unicode="\" horiz-adv-x="278" 
d="M309 -12h-69l-271 722h69z" />
    <glyph glyph-name="bracketright" unicode="]" horiz-adv-x="278" 
d="M209 -140h-162v48h99v800h-99v48h162v-896z" />
    <glyph glyph-name="asciicircum" unicode="^" horiz-adv-x="600" 
d="M268 698h64l218 -433h-71l-179 364l-179 -364h-71z" />
    <glyph glyph-name="underscore" unicode="_" horiz-adv-x="500" 
d="M0 -75h500v-50h-500v50z" />
    <glyph glyph-name="grave" unicode="`" horiz-adv-x="222" 
d="M168 572h-46l-126 144h79z" />
    <glyph glyph-name="a" unicode="a" horiz-adv-x="500" 
d="M372 82h-2q-10 -23 -28 -40.5t-40 -29.5t-46 -18t-48 -6q-54 0 -87 16t-51 38.5t-24 47.5t-6 42q0 64 30.5 100t77 53.5t102 21.5t104.5 4h12v26q0 66 -26 98.5t-90 32.5q-40 0 -77.5 -9.5t-72.5 -32.5v61q15 7 34 13.5t39 11t40 7.5t37 3q95 0 137 -45t42 -145v-225
q0 -31 0.5 -56t4.5 -51h-62v82zM366 257h-18q-41 0 -83.5 -3.5t-77 -16t-56.5 -37t-22 -66.5q0 -50 31.5 -71t74.5 -21q56 0 86.5 21t44.5 50.5t17 60.5t3 52v31z" />
    <glyph glyph-name="b" unicode="b" 
d="M73 750h63v-326h2q3 9 14.5 25.5t31 32.5t48 28t65.5 12q56 0 96 -20t65.5 -55.5t37 -84.5t11.5 -107q0 -57 -13 -105.5t-39.5 -84.5t-65.5 -56.5t-92 -20.5q-55 0 -94 22t-65 71h-2v-81h-63v750zM438 255q0 37 -6.5 75t-24 68.5t-46.5 50t-74 19.5q-43 0 -72 -20
t-46.5 -51.5t-25 -69t-7.5 -72.5t8 -72.5t25.5 -69t46.5 -51.5t71 -20q45 0 74 19.5t46.5 50t24 68.5t6.5 75z" />
    <glyph glyph-name="c" unicode="c" horiz-adv-x="444" 
d="M411 442q-26 11 -54.5 18.5t-54.5 7.5q-46 0 -82 -16t-60.5 -44t-37 -67t-12.5 -86q0 -43 12.5 -82t36.5 -68t58.5 -46t77.5 -17q30 0 58 6t57 17l6 -59q-32 -11 -63.5 -14.5t-67.5 -3.5q-61 0 -107 22t-76.5 58.5t-45.5 85t-15 101.5q0 59 18 108t51 84.5t79.5 55
t103.5 19.5q46 0 77.5 -7.5t45.5 -12.5z" />
    <glyph glyph-name="d" unicode="d" 
d="M483 0h-63v81h-2q-26 -49 -65 -71t-94 -22q-52 0 -91.5 20.5t-66 56.5t-39.5 84.5t-13 105.5q0 58 11.5 107t37 84.5t65.5 55.5t96 20q38 0 66 -12t47.5 -28t31 -32.5t14.5 -25.5h2v326h63v-750zM118 255q0 -37 6.5 -75t24 -68.5t46.5 -50t74 -19.5q42 0 71 20t46.5 51.5
t25.5 69t8 72.5t-8 72.5t-25.5 69t-46.5 51.5t-71 20q-45 0 -74 -19.5t-46.5 -50t-24 -68.5t-6.5 -75z" />
    <glyph glyph-name="e" unicode="e" horiz-adv-x="500" 
d="M421 16q-33 -14 -73 -21t-75 -7q-63 0 -107.5 20t-72 56t-40 85t-12.5 106q0 59 15.5 108t43.5 84t68 55t88 20q54 0 92.5 -20.5t63 -55t36 -80.5t11.5 -97v-32h-349q0 -40 11 -76t32 -62t52.5 -41.5t72.5 -15.5q17 0 37.5 3.5t40 8.5t37 12t28.5 14v-64zM390 291
q0 33 -7 65t-22.5 57t-40.5 40t-60 15t-62.5 -16t-47 -41t-30 -56.5t-10.5 -63.5h280z" />
    <glyph glyph-name="f" unicode="f" horiz-adv-x="333" 
d="M122 456h-103v54h103v37q0 40 2.5 78.5t15.5 69t40.5 49t76.5 18.5q15 0 32.5 -2.5t26.5 -7.5l-4 -55q-20 11 -50 11q-32 0 -48 -15.5t-22.5 -38.5t-6.5 -50v-50v-44h115v-54h-115v-456h-63v456z" />
    <glyph glyph-name="g" unicode="g" 
d="M118 255q0 -37 8 -73.5t25.5 -64.5t45.5 -45.5t68 -17.5q43 0 72.5 18.5t48 47.5t26.5 64.5t8 70.5q0 46 -7.5 85t-25 67.5t-46.5 44.5t-72 16q-45 0 -74 -19.5t-46.5 -50t-24 -68.5t-6.5 -75zM483 42q0 -53 -12.5 -100t-41 -82t-74 -55.5t-111.5 -20.5q-51 0 -92.5 10.5
t-61.5 16.5l5 63q29 -15 68.5 -25.5t81.5 -10.5q61 0 96 20.5t53 56.5t22.5 83.5t4.5 101.5h-2q-26 -56 -66 -78t-89 -22q-61 0 -102.5 24t-66.5 61t-35.5 82.5t-10.5 87.5q0 58 11.5 107t37 84.5t65.5 55.5t96 20q26 0 47 -2.5t40 -10t36.5 -21t35.5 -36.5h2v58h63v-468z
" />
    <glyph glyph-name="h" unicode="h" 
d="M79 750h63v-326h2q20 42 61 70t98 28q51 0 85 -16t53.5 -45t27.5 -69t8 -87v-305h-63v304q0 33 -4.5 63t-17 52.5t-36.5 35.5t-63 13q-42 0 -71 -18t-46.5 -46t-25.5 -63t-8 -68v-273h-63v750z" />
    <glyph glyph-name="i" unicode="i" horiz-adv-x="222" 
d="M79 510h63v-510h-63v510zM142 646h-63v84h63v-84z" />
    <glyph glyph-name="j" unicode="j" horiz-adv-x="222" 
d="M-28 -156q7 -2 18 -4t20 -2q24 0 38 8t20.5 21.5t8.5 31t2 37.5v574h63v-582q0 -31 -5 -57t-18 -45.5t-35 -30.5t-57 -11q-20 0 -33.5 1.5t-21.5 3.5v55zM142 646h-63v84h63v-84z" />
    <glyph glyph-name="k" unicode="k" horiz-adv-x="500" 
d="M79 750h63v-449l228 209h81l-249 -226l279 -284h-87l-252 262v-262h-63v750z" />
    <glyph glyph-name="l" unicode="l" horiz-adv-x="222" 
d="M79 750h63v-750h-63v750z" />
    <glyph glyph-name="m" unicode="m" horiz-adv-x="833" 
d="M695 0v339q0 27 -5.5 50.5t-18 41t-33.5 27.5t-51 10q-26 0 -50.5 -11t-44 -34t-31 -58t-11.5 -83v-282h-63v339q0 27 -5.5 50.5t-18 41t-33.5 27.5t-51 10q-26 0 -50.5 -11t-44 -34t-31 -58t-11.5 -83v-282h-63v390q0 29 -0.5 59t-3.5 61h61v-86l2 -1q8 13 18 30
t28 32.5t45 26t68 10.5q17 0 38 -4.5t40.5 -16.5t35 -33t21.5 -54h2q17 45 60 76.5t103 31.5q39 0 69 -13t50.5 -35.5t31 -54t10.5 -68.5v-351h-63z" />
    <glyph glyph-name="n" unicode="n" 
d="M79 390q0 29 -0.5 59t-3.5 61h61v-91h2q8 17 20 35.5t31 33.5t46.5 24.5t67.5 9.5q47 0 80 -15t54 -41t30.5 -62t9.5 -78v-326h-63v310q0 72 -27.5 115t-93.5 43q-43 0 -72 -17t-46.5 -44t-25 -60t-7.5 -65v-282h-63v390z" />
    <glyph glyph-name="o" unicode="o" 
d="M40 255q0 52 14 100.5t43 85.5t74 59t107 22t107 -22t74 -59t43 -85.5t14 -100.5t-14 -100.5t-43 -85.5t-74 -59t-107 -22t-107 22t-74 59t-43 85.5t-14 100.5zM109 255q0 -44 11 -83t32.5 -68t53 -45.5t72.5 -16.5t72.5 16.5t53 45.5t32.5 68t11 83t-11 83t-32.5 68
t-53 45.5t-72.5 16.5t-72.5 -16.5t-53 -45.5t-32.5 -68t-11 -83z" />
    <glyph glyph-name="p" unicode="p" 
d="M73 510h63l-4 -93h2q6 11 17 28.5t30 34.5t47.5 29.5t68.5 12.5q56 0 96 -20t65.5 -55.5t37 -84.5t11.5 -107q0 -57 -13 -105.5t-39.5 -84.5t-65.5 -56.5t-92 -20.5q-60 0 -98 24.5t-61 74.5h-2v-297h-63v720zM438 255q0 37 -6.5 75t-24 68.5t-46.5 50t-74 19.5
q-42 0 -71 -20t-46.5 -51.5t-25.5 -69t-8 -72.5t8 -72.5t25.5 -69t46.5 -51.5t71 -20q45 0 74 19.5t46.5 50t24 68.5t6.5 75z" />
    <glyph glyph-name="q" unicode="q" 
d="M483 -210h-63v297h-2q-23 -50 -61 -74.5t-98 -24.5q-52 0 -91.5 20.5t-66 56.5t-39.5 84.5t-13 105.5q0 58 11.5 107t37 84.5t65.5 55.5t96 20q41 0 69 -12.5t46.5 -28.5t29 -31.5t14.5 -22.5h2v83h63v-720zM118 255q0 -37 6.5 -75t24 -68.5t46.5 -50t74 -19.5
q42 0 71 20t46.5 51.5t25.5 69t8 72.5t-8 72.5t-25.5 69t-46.5 51.5t-71 20q-45 0 -74 -19.5t-46.5 -50t-24 -68.5t-6.5 -75z" />
    <glyph glyph-name="r" unicode="r" horiz-adv-x="333" 
d="M79 396v36t-0.5 28t-1 24.5t-2.5 25.5h63v-98h2q9 21 21 41t28.5 35.5t37 24.5t44.5 9q11 0 23.5 -2t20.5 -4v-66q-19 6 -46 6q-37 0 -62 -19t-39 -48.5t-20 -65.5t-6 -71v-252h-63v396z" />
    <glyph glyph-name="s" unicode="s" horiz-adv-x="389" 
d="M40 74q29 -14 62.5 -23t70.5 -9q23 0 43 6t36 17.5t25 28.5t9 39q0 30 -18 50t-45.5 35.5t-59 29.5t-59 31.5t-45.5 42t-18 61.5q0 38 14 64.5t37.5 43t53.5 24t61 7.5q20 0 56 -5t70 -18l-6 -55q-25 11 -56 17.5t-57 6.5q-49 0 -79.5 -18t-30.5 -67q0 -24 18.5 -40
t46.5 -30t60.5 -28t60.5 -34t46.5 -48t18.5 -70q0 -40 -17 -68t-43 -45t-57.5 -24.5t-60.5 -7.5q-37 0 -73 5t-70 19z" />
    <glyph glyph-name="t" unicode="t" horiz-adv-x="333" 
d="M299 456h-116v-330q0 -35 15 -59.5t53 -24.5q18 0 31 3.5t27 8.5l4 -52q-11 -5 -32.5 -9.5t-44.5 -4.5q-42 0 -65.5 13.5t-34.5 36.5t-13.5 54t-2.5 66v298h-100v54h100v123l63 22v-145h116v-54z" />
    <glyph glyph-name="u" unicode="u" 
d="M477 120q0 -29 0.5 -59t3.5 -61h-61v91h-2q-8 -17 -20 -35.5t-31 -33.5t-46.5 -24.5t-67.5 -9.5q-47 0 -80 15t-54 41t-30.5 62t-9.5 78v326h63v-310q0 -72 27.5 -115t93.5 -43q43 0 72 17t46.5 44t25 60t7.5 65v282h63v-390z" />
    <glyph glyph-name="v" unicode="v" horiz-adv-x="444" 
d="M256 0h-74l-173 510h69l141 -441h2l148 441h66z" />
    <glyph glyph-name="w" unicode="w" horiz-adv-x="778" 
d="M603 0h-76l-139 441h-2l-139 -441h-76l-164 510h69l134 -441h2l142 441h76l135 -441h2l141 441h63z" />
    <glyph glyph-name="x" unicode="x" horiz-adv-x="444" 
d="M187 270l-162 240h78l121 -190l123 190h72l-158 -240l175 -270h-78l-134 220l-143 -220h-73z" />
    <glyph glyph-name="y" unicode="y" horiz-adv-x="444" 
d="M231 -76q-9 -26 -20.5 -51.5t-27.5 -45t-36 -31.5t-47 -12q-34 0 -68 8l6 54q9 -3 19.5 -5.5t27.5 -2.5q41 0 59 30.5t33 80.5l13 45l-181 516h69l143 -426l-1 1h2l147 425h66z" />
    <glyph glyph-name="z" unicode="z" horiz-adv-x="444" 
d="M32 53l307 403h-295v54h368v-54l-307 -402h307v-54h-380v53z" />
    <glyph glyph-name="braceleft" unicode="{" horiz-adv-x="278" 
d="M273 708h-50q-24 0 -34 -28.5t-10 -64.5v-165q0 -36 -10 -62t-23.5 -42.5t-27.5 -25.5t-23 -11v-2q9 -2 23 -10.5t27.5 -25.5t23.5 -43t10 -64v-162q0 -37 10 -65.5t34 -28.5h50v-48h-56q-42 0 -71.5 32t-29.5 90v170q0 27 -4.5 51t-14 42t-24.5 28.5t-35 10.5v48
q20 0 35 10.5t24.5 29t14 43t4.5 52.5v168q0 58 29.5 89.5t72.5 31.5h55v-48z" />
    <glyph glyph-name="bar" unicode="|" horiz-adv-x="222" 
d="M77 750h69v-762h-69v762z" />
    <glyph glyph-name="braceright" unicode="}" horiz-adv-x="278" 
d="M5 -92h50q24 0 34 28.5t10 64.5v165q0 36 10 62t23.5 42.5t27.5 25.5t23 11v2q-9 2 -23 10.5t-27.5 25.5t-23.5 43.5t-10 63.5v162q0 37 -10 65.5t-34 28.5h-50v48h56q42 0 71.5 -32t29.5 -90v-170q0 -27 4.5 -51t14 -42t24.5 -28.5t35 -10.5v-48q-20 0 -35 -10.5
t-24.5 -29t-14 -43t-4.5 -52.5v-168q0 -58 -29.5 -89.5t-72.5 -31.5h-55v48z" />
    <glyph glyph-name="asciitilde" unicode="~" horiz-adv-x="600" 
d="M531 273q-8 -16 -19.5 -32t-26.5 -29t-34.5 -21.5t-44.5 -8.5q-28 0 -56.5 11.5t-57.5 25.5t-54 25t-45 11q-30 0 -50.5 -23t-37.5 -50l-36 51q8 16 19.5 32t26.5 29t34.5 21.5t44.5 8.5q28 0 57 -11t57 -25q29 -14 54 -25.5t45 -11.5q30 0 50.5 23t37.5 50z" />
    <glyph glyph-name="exclamdown" unicode="&#xa1;" horiz-adv-x="389" 
d="M166 341h57l12 -529h-81zM235 426h-81v84h81v-84z" />
    <glyph glyph-name="cent" unicode="&#xa2;" 
d="M367 467q-3 1 -7 1q-46 0 -82 -16t-60.5 -44t-37 -67t-12.5 -86q0 -53 18.5 -98t52.5 -74zM454 588l-25 -74q16 -3 27 -6.5t18 -5.5l-5 -60q-24 11 -57 19l-134 -402q36 -17 75 -17q30 0 58 6t57 17l6 -59q-32 -11 -63.5 -14.5t-67.5 -3.5q-48 0 -84 14l-31 -93h-47
l37 110q-60 33 -89.5 97t-29.5 139q0 59 18 108t51 84.5t79.5 55t103.5 19.5h17.5t16.5 -2l22 68h47z" />
    <glyph glyph-name="sterling" unicode="&#xa3;" 
d="M67 60h103v287h-91v54h91v49q0 48 9.5 94t34 81.5t67 57.5t108.5 22q39 0 69 -7t43 -14l-10 -62q-14 8 -39 15.5t-63 7.5q-51 0 -80.5 -18.5t-45 -47.5t-20 -64.5t-4.5 -70.5v-43h166v-54h-166v-287h246v-60h-418v60z" />
    <glyph glyph-name="currency" unicode="&#xa4;" 
d="M84 196q-54 68 -54 153q0 40 12.5 79.5t41.5 71.5l-57 55l43 45l57 -56q31 26 71 39.5t80 13.5q42 0 81 -13.5t71 -39.5l54 56l45 -45l-54 -55q26 -31 38.5 -70.5t12.5 -80.5q0 -42 -12.5 -81.5t-38.5 -71.5l54 -55l-45 -43l-54 56q-30 -26 -69.5 -39.5t-82.5 -13.5
q-42 0 -81 13t-70 40l-57 -56l-43 43zM278 161q40 0 73 15.5t56.5 41t36.5 60t13 71.5t-13 71t-37 60t-57 41.5t-72 15.5q-38 -1 -71 -17t-57 -41.5t-37.5 -59t-13.5 -70.5q0 -40 14 -75t38 -60.5t56.5 -39.5t70.5 -13z" />
    <glyph glyph-name="yen" unicode="&#xa5;" 
d="M244 175h-144v48h144v75l-3 6h-141v48h114l-195 346h76l183 -337l188 337h71l-194 -346h114v-48h-141l-3 -6v-75h144v-48h-144v-175h-69v175z" />
    <glyph glyph-name="brokenbar" unicode="&#xa6;" horiz-adv-x="222" 
d="M77 254h69v-266h-69v266zM77 750h69v-266h-69v266z" />
    <glyph glyph-name="section" unicode="&#xa7;" 
d="M414 630q-8 4 -21.5 8.5t-29.5 8.5t-33.5 6.5t-34.5 2.5q-18 0 -41 -4.5t-43 -14.5t-33.5 -26.5t-13.5 -39.5q0 -33 22 -54t55.5 -37.5t72.5 -31t72.5 -34.5t55.5 -48t22 -71q0 -23 -6 -41.5t-16.5 -34.5t-24 -30.5t-28.5 -29.5q31 -17 54.5 -46.5t23.5 -71.5
q0 -48 -22.5 -79t-54.5 -49.5t-67 -25.5t-59 -7q-88 0 -169 28l7 59q38 -17 79 -25t83 -8q23 0 46.5 6.5t43 19t32 32.5t12.5 47q0 31 -23 50.5t-57 35t-74.5 29.5t-74.5 34t-57 48.5t-23 73.5q0 41 25 72t54 57l9 8l-7 4q-31 18 -53 44t-22 65q0 41 17 69.5t43.5 46.5
t58.5 26t62 8q46 0 84 -7t61 -15zM226 423l-7 -4q-7 -4 -17.5 -14t-20 -23.5t-16.5 -31t-7 -36.5q0 -26 17.5 -46.5t47.5 -33.5l117 -51l21 21q17 17 27.5 36t10.5 43q0 21 -7 36t-18.5 26.5t-27 20t-33.5 16.5z" />
    <glyph glyph-name="dieresis" unicode="&#xa8;" horiz-adv-x="222" 
d="M159 688h75v-84h-75v84zM-12 688h75v-84h-75v84z" />
    <glyph glyph-name="copyright" unicode="&#xa9;" horiz-adv-x="800" 
d="M108 349q0 -65 22 -121t61.5 -97.5t93 -65t116.5 -23.5q62 0 115.5 23.5t92.5 65t61 97.5t22 121t-22 121t-61 97.5t-92.5 65t-115.5 23.5q-63 0 -116.5 -23.5t-93 -65t-61.5 -97.5t-22 -121zM591 280q-15 -72 -63.5 -114t-114.5 -42q-49 0 -89 17.5t-68 47.5t-43.5 71
t-15.5 89q0 49 14.5 90.5t42 71.5t67 47t89.5 17q34 0 64.5 -9.5t54.5 -28.5t40 -47.5t21 -65.5h-60q-9 44 -40 70.5t-79 26.5q-35 0 -62 -13t-45.5 -35.5t-28 -54t-9.5 -68.5q0 -35 10 -66t29 -54.5t46.5 -37.5t61.5 -14q48 0 78.5 28t38.5 74h61zM39 349q0 75 28.5 140.5
t77.5 114.5t114.5 77.5t140.5 28.5t140.5 -28.5t114.5 -77.5t77.5 -114.5t28.5 -140.5t-28.5 -140.5t-77.5 -114.5t-114.5 -77.5t-140.5 -28.5t-140.5 28.5t-114.5 77.5t-77.5 114.5t-28.5 140.5z" />
    <glyph glyph-name="ordfeminine" unicode="&#xaa;" horiz-adv-x="325" 
d="M242 444h-2q-11 -26 -40 -41t-61 -15q-63 0 -89 25t-26 66q0 40 20 62t50 33t66.5 13.5t69.5 2.5h8v15q0 9 -1.5 20t-8.5 20.5t-21.5 16t-39.5 6.5q-26 0 -50.5 -5.5t-47.5 -18.5v46q19 7 45.5 13.5t58.5 6.5q61 0 88.5 -29.5t27.5 -84.5v-135q0 -18 0.5 -33t2.5 -32h-50
v48zM238 548h-12q-25 0 -52 -2.5t-49 -9.5t-36 -19.5t-14 -32.5q0 -29 20 -41.5t49 -12.5q36 -1 55 10.5t28 28t10 34t1 27.5v18z" />
    <glyph glyph-name="guillemotleft" unicode="&#xab;" 
d="M157 269l133 -205h-59l-140 205l140 205h59zM332 269l133 -205h-59l-140 205l140 205h59z" />
    <glyph glyph-name="logicalnot" unicode="&#xac;" horiz-adv-x="600" 
d="M46 388h507v-274h-69v205h-438v69z" />
    <glyph glyph-name="registered" unicode="&#xae;" horiz-adv-x="800" 
d="M39 349q0 75 28.5 140.5t77.5 114.5t114.5 77.5t140.5 28.5t140.5 -28.5t114.5 -77.5t77.5 -114.5t28.5 -140.5t-28.5 -140.5t-77.5 -114.5t-114.5 -77.5t-140.5 -28.5t-140.5 28.5t-114.5 77.5t-77.5 114.5t-28.5 140.5zM108 349q0 -65 22 -121t61.5 -97.5t93 -65
t116.5 -23.5q62 0 115.5 23.5t92.5 65t61 97.5t22 121t-22 121t-61 97.5t-92.5 65t-115.5 23.5q-63 0 -116.5 -23.5t-93 -65t-61.5 -97.5t-22 -121zM262 561h162q145 0 145 -119q0 -51 -29.5 -84t-79.5 -33l120 -187h-73l-118 187h-58v-187h-69v423zM331 379h82
q40 0 63.5 12t23.5 54q0 18 -7.5 30t-19.5 19t-27.5 10t-32.5 3h-82v-128z" />
    <glyph glyph-name="macron" unicode="&#xaf;" horiz-adv-x="222" 
d="M-11 668h244v-54h-244v54z" />
    <glyph glyph-name="degree" unicode="&#xb0;" horiz-adv-x="400" 
d="M200 657q-46 0 -76.5 -26.5t-30.5 -74.5q0 -21 9 -39.5t24 -32t34 -21.5t40 -8t40 8t34 21.5t24 32t9 39.5q0 48 -30.5 74.5t-76.5 26.5zM200 705q32 0 60.5 -11t50.5 -30.5t34.5 -47t12.5 -60.5t-12.5 -60.5t-34.5 -47t-50.5 -30.5t-60.5 -11t-60.5 11t-50.5 30.5
t-34.5 47t-12.5 60.5t12.5 60.5t34.5 47t50.5 30.5t60.5 11z" />
    <glyph glyph-name="plusminus" unicode="&#xb1;" horiz-adv-x="600" 
d="M46 338h219v169h69v-169h219v-69h-219v-169h-69v169h-219v69zM46 69h507v-69h-507v69z" />
    <glyph glyph-name="twosuperior" unicode="&#xb2;" horiz-adv-x="361" 
d="M45 325l106 95q21 20 40 41t33.5 42.5t23 42.5t8.5 40q0 34 -23 52.5t-55 18.5q-30 0 -56.5 -8t-52.5 -22l-8 50q26 13 57 20.5t60 7.5t53.5 -6.5t42.5 -20.5t28.5 -36t10.5 -53t-11.5 -58t-28.5 -50.5t-38 -44.5t-41 -39l-74 -65h197v-48h-272v41z" />
    <glyph glyph-name="threesuperior" unicode="&#xb3;" horiz-adv-x="361" 
d="M99 524h28q16 0 39 2t44.5 9.5t36.5 22t15 38.5q0 21 -11 33t-26.5 18.5t-32.5 8t-30 1.5q-28 0 -54 -6t-49 -17l-4 52q24 10 59 14.5t60 4.5q26 0 51.5 -5.5t46.5 -18.5t34 -32.5t13 -48.5q0 -38 -26.5 -63.5t-68.5 -34.5v-2q48 -2 72.5 -32t24.5 -72q0 -31 -15.5 -54
t-39.5 -37t-53.5 -21t-58.5 -7q-34 0 -62.5 3.5t-57.5 13.5l5 52q30 -12 59.5 -16.5t60.5 -4.5q20 0 39 5.5t33.5 15t23.5 24t9 32.5q1 28 -14 43t-36.5 22t-45.5 8t-41 1h-28v48z" />
    <glyph glyph-name="acute" unicode="&#xb4;" horiz-adv-x="222" 
d="M146 716h79l-126 -144h-46z" />
    <glyph glyph-name="mu" unicode="&#xb5;" 
d="M79 510h63v-310q0 -72 27.5 -115t93.5 -43q43 0 72 17t46.5 44t25 60t7.5 65v282h63v-390q0 -29 0.5 -59t3.5 -61h-61v91h-2q-8 -17 -20 -35.5t-31 -33.5t-46.5 -24.5t-67.5 -9.5q-30 0 -57.5 6.5t-53.5 22.5v-227h-63v720z" />
    <glyph glyph-name="paragraph" unicode="&#xb6;" horiz-adv-x="600" 
d="M256 320q-45 0 -83.5 14.5t-66 39.5t-43 59t-15.5 73q0 98 61.5 145t166.5 47h240v-806h-63v752h-134v-752h-63v428z" />
    <glyph glyph-name="periodcentered" unicode="&#xb7;" horiz-adv-x="278" 
d="M92 311q0 23 15.5 35.5t32.5 12.5t32 -12.5t15 -35.5t-15 -35.5t-32 -11.5q-17 -1 -32.5 11.5t-15.5 35.5z" />
    <glyph glyph-name="cedilla" unicode="&#xb8;" horiz-adv-x="222" 
d="M104 0h27l-19 -54q7 1 16 2t17 1q30 0 51.5 -16.5t21.5 -48.5q0 -22 -10.5 -35.5t-27 -21t-36 -10t-36.5 -2.5q-16 0 -32.5 3t-31 7t-24.5 7.5t-13 4.5l7 37q10 -7 36 -18t53 -11q23 0 37.5 9t14.5 28q0 17 -10.5 27t-27.5 10q-23 0 -42 -4z" />
    <glyph glyph-name="onesuperior" unicode="&#xb9;" horiz-adv-x="361" 
d="M232 284h-57v366l-76 -58l-22 33l103 80h52v-421z" />
    <glyph glyph-name="ordmasculine" unicode="&#xba;" horiz-adv-x="361" 
d="M23 548q0 32 9 61.5t28.5 52t49 35.5t71.5 13q41 0 71 -13t49 -35t28 -51.5t9 -62.5q0 -31 -9 -59.5t-28 -51t-49 -36t-71 -13.5q-42 0 -71.5 13t-49 35t-28.5 51t-9 61zM74 548q0 -51 28 -84.5t79 -33.5t78.5 33.5t27.5 84.5q0 24 -7 46t-20.5 38.5t-33.5 26t-45 9.5
t-45 -9.5t-33.5 -26t-21 -38.5t-7.5 -46z" />
    <glyph glyph-name="guillemotright" unicode="&#xbb;" 
d="M399 269l-133 205h59l140 -205l-140 -205h-59zM224 269l-133 205h59l140 -205l-140 -205h-59z" />
    <glyph glyph-name="onequarter" unicode="&#xbc;" horiz-adv-x="834" 
d="M573 720h57l-443 -742h-57zM226 284h-57v366l-76 -58l-22 33l103 80h52v-421zM650 352h-2l-160 -213h162v213zM431 140l208 281h68v-282h56v-48h-56v-91h-57v91h-219v49z" />
    <glyph glyph-name="onehalf" unicode="&#xbd;" horiz-adv-x="834" 
d="M560 720h57l-443 -742h-57zM214 284h-57v366l-76 -58l-22 33l103 80h52v-421zM503 41l106 95q21 20 40 41t33.5 42.5t23 42.5t8.5 40q0 34 -23 52.5t-55 18.5q-30 0 -56.5 -8t-52.5 -22l-8 50q26 13 57 20.5t60 7.5t53.5 -6.5t42.5 -20.5t28.5 -36t10.5 -53t-11.5 -58
t-28.5 -50.5t-38 -44.5t-41 -39l-74 -65h197v-48h-272v41z" />
    <glyph glyph-name="threequarters" unicode="&#xbe;" horiz-adv-x="834" 
d="M650 720h58l-443 -742h-58zM669 352h-2l-160 -213h162v213zM450 140l208 281h68v-282h56v-48h-56v-91h-57v91h-219v49zM118 524h28q16 0 39 2t44.5 9.5t36.5 22t15 38.5q0 21 -11 33t-26.5 18.5t-32.5 8t-30 1.5q-28 0 -54 -6t-49 -17l-4 52q24 10 59 14.5t60 4.5
q26 0 51.5 -5.5t46.5 -18.5t34 -32.5t13 -48.5q0 -38 -26.5 -63.5t-68.5 -34.5v-2q48 -2 72.5 -32t24.5 -72q0 -31 -15.5 -54t-39.5 -37t-53.5 -21t-58.5 -7q-34 0 -62.5 3.5t-57.5 13.5l5 52q30 -12 59.5 -16.5t60.5 -4.5q20 0 39 5.5t33.5 15t23.5 24t9 32.5q1 28 -14 43
t-36.5 22t-45.5 8t-41 1h-28v48z" />
    <glyph glyph-name="questiondown" unicode="&#xbf;" horiz-adv-x="500" 
d="M414 -175q-35 -11 -72 -18t-74 -7q-39 0 -73.5 10.5t-61 32.5t-42 55.5t-15.5 80.5q0 41 12.5 72t31.5 56t41.5 47.5t41.5 47t31.5 54.5t12.5 70v15h63v-13q0 -45 -12 -78t-30.5 -58.5t-40 -47t-40 -45t-30.5 -52t-12 -68.5q0 -56 36 -87.5t90 -31.5q41 0 74.5 8.5
t65.5 19.5zM318 426h-81v84h81v-84z" />
    <glyph glyph-name="Agrave" unicode="&#xc0;" horiz-adv-x="667" 
d="M299 698h78l277 -698h-72l-75 187h-352l-75 -187h-67zM333 632l-152 -385h303zM345 738l-121 107h83l88 -107h-50z" />
    <glyph glyph-name="Aacute" unicode="&#xc1;" horiz-adv-x="667" 
d="M299 698h78l277 -698h-72l-75 187h-352l-75 -187h-67zM333 632l-152 -385h303zM381 845h83l-121 -107h-50z" />
    <glyph glyph-name="Acircumflex" unicode="&#xc2;" horiz-adv-x="667" 
d="M299 698h78l277 -698h-72l-75 187h-352l-75 -187h-67zM333 632l-152 -385h303zM426 738l-88 69l-88 -69h-49l93 107h88l93 -107h-49z" />
    <glyph glyph-name="Atilde" unicode="&#xc3;" horiz-adv-x="667" 
d="M299 698h78l277 -698h-72l-75 187h-352l-75 -187h-67zM333 632l-152 -385h303zM203 741q3 16 9.5 32t16.5 29t23.5 21t31.5 8q15 0 31 -3.5t30 -8.5t26 -9t18 -4q16 0 30 8.5t19 25.5h37q-4 -27 -14 -44.5t-22 -27t-25 -13t-22 -3.5q-17 0 -32.5 4t-29.5 9t-25.5 8.5
t-21.5 3.5q-20 0 -28.5 -9t-15.5 -27h-36z" />
    <glyph glyph-name="Adieresis" unicode="&#xc4;" horiz-adv-x="667" 
d="M299 698h78l277 -698h-72l-75 187h-352l-75 -187h-67zM333 632l-152 -385h303zM387 833h75v-84h-75v84zM216 833h75v-84h-75v84z" />
    <glyph glyph-name="Aring" unicode="&#xc5;" horiz-adv-x="667" 
d="M299 698h78l277 -698h-72l-75 187h-352l-75 -187h-67zM333 632l-152 -385h303zM254 779q0 34 23.5 57.5t58.5 23.5t58.5 -23.5t23.5 -57.5q0 -35 -23.5 -58t-58.5 -23t-58.5 23t-23.5 58zM285 779q0 -22 15.5 -36t35.5 -14q22 0 36.5 14t14.5 36q0 21 -14.5 35.5
t-36.5 14.5q-20 0 -35.5 -14.5t-15.5 -35.5z" />
    <glyph glyph-name="AE" unicode="&#xc6;" horiz-adv-x="889" 
d="M477 644h-2l-246 -397h248v397zM436 698h381v-60h-271v-249h257v-60h-257v-269h283v-60h-351v187h-286l-116 -187h-76z" />
    <glyph glyph-name="Ccedilla" unicode="&#xc7;" horiz-adv-x="667" 
d="M380 -54q7 1 16 2t17 1q30 0 51.5 -16.5t21.5 -48.5q0 -22 -10.5 -35.5t-27 -21t-36 -10t-36.5 -2.5q-16 0 -32.5 3t-31 7t-24.5 7.5t-13 4.5l7 37q10 -7 36 -18t53 -11q23 0 37.5 9t14.5 28q0 17 -10.5 27t-27.5 10q-23 0 -42 -4l26 75q-73 6 -131 34t-98.5 75
t-61.5 110.5t-21 139.5q0 80 24.5 146t70.5 114t111 74.5t146 26.5q15 0 37 -1.5t45 -4.5t44 -8t34 -12l-4 -64q-33 17 -76 23.5t-80 6.5q-68 0 -120.5 -22.5t-88.5 -63t-55 -95.5t-19 -120q0 -66 18.5 -121.5t54 -95t88.5 -62t122 -22.5q17 0 38 1.5t42 4.5t41 9t35 15
l4 -60q-14 -9 -34.5 -14.5t-43 -9t-44 -5t-38.5 -1.5h-14z" />
    <glyph glyph-name="Egrave" unicode="&#xc8;" horiz-adv-x="500" 
d="M86 698h342v-60h-273v-249h259v-60h-259v-269h285v-60h-354v698zM286 738l-121 107h83l88 -107h-50z" />
    <glyph glyph-name="Eacute" unicode="&#xc9;" horiz-adv-x="500" 
d="M86 698h342v-60h-273v-249h259v-60h-259v-269h285v-60h-354v698zM317 845h83l-121 -107h-50z" />
    <glyph glyph-name="Ecircumflex" unicode="&#xca;" horiz-adv-x="500" 
d="M86 698h342v-60h-273v-249h259v-60h-259v-269h285v-60h-354v698zM355 738l-88 69l-88 -69h-49l93 107h88l93 -107h-49z" />
    <glyph glyph-name="Edieresis" unicode="&#xcb;" horiz-adv-x="500" 
d="M86 698h342v-60h-273v-249h259v-60h-259v-269h285v-60h-354v698zM315 833h75v-84h-75v84zM144 833h75v-84h-75v84z" />
    <glyph glyph-name="Igrave" unicode="&#xcc;" horiz-adv-x="222" 
d="M77 698h69v-698h-69v698zM122 738l-121 107h83l88 -107h-50z" />
    <glyph glyph-name="Iacute" unicode="&#xcd;" horiz-adv-x="222" 
d="M77 698h69v-698h-69v698zM156 845h83l-121 -107h-50z" />
    <glyph glyph-name="Icircumflex" unicode="&#xce;" horiz-adv-x="222" 
d="M77 698h69v-698h-69v698zM199 738l-88 69l-88 -69h-49l93 107h88l93 -107h-49z" />
    <glyph glyph-name="Idieresis" unicode="&#xcf;" horiz-adv-x="222" 
d="M77 698h69v-698h-69v698zM159 833h75v-84h-75v84zM-12 833h75v-84h-75v84z" />
    <glyph glyph-name="Eth" unicode="&#xd0;" horiz-adv-x="667" 
d="M80 698h118q95 0 169.5 -19.5t127 -61.5t80 -108t27.5 -159q0 -95 -30 -161.5t-83.5 -108.5t-126.5 -61t-160 -19h-122v329h-69v60h69v309zM149 389h213v-60h-213v-269h57q74 0 134.5 16t103.5 51t66 91t23 136q0 84 -24 139t-68.5 87t-106.5 45t-139 13h-46v-249z" />
    <glyph glyph-name="Ntilde" unicode="&#xd1;" horiz-adv-x="667" 
d="M77 698h87l355 -614h2v614h69v-698h-93l-349 602h-2v-602h-69v698zM205 741q3 16 9.5 32t16.5 29t23.5 21t31.5 8q15 0 31 -3.5t30 -8.5t26 -9t18 -4q16 0 30 8.5t19 25.5h37q-4 -27 -14 -44.5t-22 -27t-25 -13t-22 -3.5q-17 0 -32.5 4t-29.5 9t-25.5 8.5t-21.5 3.5
q-20 0 -28.5 -9t-15.5 -27h-36z" />
    <glyph glyph-name="Ograve" unicode="&#xd2;" horiz-adv-x="722" 
d="M54 349q-1 71 17.5 136t56.5 115t96 80t137 30t137 -30t96 -80t56.5 -115t17.5 -136q-1 -80 -20.5 -146.5t-58 -114t-96 -74t-132.5 -26.5t-132.5 26.5t-96 74t-58 114t-20.5 146.5zM361 650q-61 0 -106 -26t-74.5 -69t-43.5 -96.5t-14 -109.5q0 -55 14 -109t43.5 -97
t74.5 -69t106 -26q62 0 106.5 26t74 69t43.5 97t14 109q0 56 -14 109.5t-43.5 96.5t-74 69t-106.5 26zM374 738l-121 107h83l88 -107h-50z" />
    <glyph glyph-name="Oacute" unicode="&#xd3;" horiz-adv-x="722" 
d="M54 349q-1 71 17.5 136t56.5 115t96 80t137 30t137 -30t96 -80t56.5 -115t17.5 -136q-1 -80 -20.5 -146.5t-58 -114t-96 -74t-132.5 -26.5t-132.5 26.5t-96 74t-58 114t-20.5 146.5zM361 650q-61 0 -106 -26t-74.5 -69t-43.5 -96.5t-14 -109.5q0 -55 14 -109t43.5 -97
t74.5 -69t106 -26q62 0 106.5 26t74 69t43.5 97t14 109q0 56 -14 109.5t-43.5 96.5t-74 69t-106.5 26zM407 845h83l-121 -107h-50z" />
    <glyph glyph-name="Ocircumflex" unicode="&#xd4;" horiz-adv-x="722" 
d="M54 349q-1 71 17.5 136t56.5 115t96 80t137 30t137 -30t96 -80t56.5 -115t17.5 -136q-1 -80 -20.5 -146.5t-58 -114t-96 -74t-132.5 -26.5t-132.5 26.5t-96 74t-58 114t-20.5 146.5zM361 650q-61 0 -106 -26t-74.5 -69t-43.5 -96.5t-14 -109.5q0 -55 14 -109t43.5 -97
t74.5 -69t106 -26q62 0 106.5 26t74 69t43.5 97t14 109q0 56 -14 109.5t-43.5 96.5t-74 69t-106.5 26zM453 738l-88 69l-88 -69h-49l93 107h88l93 -107h-49z" />
    <glyph glyph-name="Otilde" unicode="&#xd5;" horiz-adv-x="722" 
d="M54 349q-1 71 17.5 136t56.5 115t96 80t137 30t137 -30t96 -80t56.5 -115t17.5 -136q-1 -80 -20.5 -146.5t-58 -114t-96 -74t-132.5 -26.5t-132.5 26.5t-96 74t-58 114t-20.5 146.5zM361 650q-61 0 -106 -26t-74.5 -69t-43.5 -96.5t-14 -109.5q0 -55 14 -109t43.5 -97
t74.5 -69t106 -26q62 0 106.5 26t74 69t43.5 97t14 109q0 56 -14 109.5t-43.5 96.5t-74 69t-106.5 26zM223 741q3 16 9.5 32t16.5 29t23.5 21t31.5 8q15 0 31 -3.5t30 -8.5t26 -9t18 -4q16 0 30 8.5t19 25.5h37q-4 -27 -14 -44.5t-22 -27t-25 -13t-22 -3.5q-17 0 -32.5 4
t-29.5 9t-25.5 8.5t-21.5 3.5q-20 0 -28.5 -9t-15.5 -27h-36z" />
    <glyph glyph-name="Odieresis" unicode="&#xd6;" horiz-adv-x="722" 
d="M54 349q-1 71 17.5 136t56.5 115t96 80t137 30t137 -30t96 -80t56.5 -115t17.5 -136q-1 -80 -20.5 -146.5t-58 -114t-96 -74t-132.5 -26.5t-132.5 26.5t-96 74t-58 114t-20.5 146.5zM361 650q-61 0 -106 -26t-74.5 -69t-43.5 -96.5t-14 -109.5q0 -55 14 -109t43.5 -97
t74.5 -69t106 -26q62 0 106.5 26t74 69t43.5 97t14 109q0 56 -14 109.5t-43.5 96.5t-74 69t-106.5 26zM409 833h75v-84h-75v84zM238 833h75v-84h-75v84z" />
    <glyph glyph-name="multiply" unicode="&#xd7;" horiz-adv-x="600" 
d="M71 437l49 49l181 -181l179 181l50 -49l-180 -180l180 -181l-50 -50l-179 182l-181 -182l-49 50l181 181z" />
    <glyph glyph-name="Oslash" unicode="&#xd8;" horiz-adv-x="722" 
d="M523 577q-29 34 -69 53.5t-93 19.5q-61 0 -106 -26t-74.5 -69t-43.5 -96.5t-14 -109.5q0 -48 10.5 -94.5t32.5 -85.5zM196 124q29 -35 70 -55.5t95 -20.5q62 0 106.5 26t74 69t43.5 97t14 109q0 49 -11 96.5t-34 88.5zM693 694l-91 -105q34 -48 50.5 -110t15.5 -130
q-1 -80 -20.5 -146.5t-58 -114t-96 -74t-132.5 -26.5q-69 0 -122 21.5t-90 61.5l-81 -93l-39 33l88 101q-31 45 -46.5 105t-16.5 132q-1 71 17.5 136t56.5 115t96 80t137 30q66 0 117.5 -21.5t89.5 -59.5l86 98z" />
    <glyph glyph-name="Ugrave" unicode="&#xd9;" horiz-adv-x="667" 
d="M587 244q0 -77 -25 -127t-63 -78.5t-82.5 -39.5t-82.5 -11t-82.5 11t-82.5 39.5t-63 78.5t-25 127v454h69v-454q0 -43 11.5 -79t35 -62t58 -40.5t79.5 -14.5t79.5 14.5t58 40.5t35 62t11.5 79v454h69v-454zM355 738l-121 107h83l88 -107h-50z" />
    <glyph glyph-name="Uacute" unicode="&#xda;" horiz-adv-x="667" 
d="M587 244q0 -77 -25 -127t-63 -78.5t-82.5 -39.5t-82.5 -11t-82.5 11t-82.5 39.5t-63 78.5t-25 127v454h69v-454q0 -43 11.5 -79t35 -62t58 -40.5t79.5 -14.5t79.5 14.5t58 40.5t35 62t11.5 79v454h69v-454zM380 845h83l-121 -107h-50z" />
    <glyph glyph-name="Ucircumflex" unicode="&#xdb;" horiz-adv-x="667" 
d="M587 244q0 -77 -25 -127t-63 -78.5t-82.5 -39.5t-82.5 -11t-82.5 11t-82.5 39.5t-63 78.5t-25 127v454h69v-454q0 -43 11.5 -79t35 -62t58 -40.5t79.5 -14.5t79.5 14.5t58 40.5t35 62t11.5 79v454h69v-454zM425 738l-88 69l-88 -69h-49l93 107h88l93 -107h-49z" />
    <glyph glyph-name="Udieresis" unicode="&#xdc;" horiz-adv-x="667" 
d="M587 244q0 -77 -25 -127t-63 -78.5t-82.5 -39.5t-82.5 -11t-82.5 11t-82.5 39.5t-63 78.5t-25 127v454h69v-454q0 -43 11.5 -79t35 -62t58 -40.5t79.5 -14.5t79.5 14.5t58 40.5t35 62t11.5 79v454h69v-454zM382 833h75v-84h-75v84zM211 833h75v-84h-75v84z" />
    <glyph glyph-name="Yacute" unicode="&#xdd;" horiz-adv-x="611" 
d="M271 296l-259 402h80l213 -341l219 341h75l-259 -402v-296h-69v296zM345 845h83l-121 -107h-50z" />
    <glyph glyph-name="Thorn" unicode="&#xde;" horiz-adv-x="500" 
d="M86 698h69v-130h103q98 0 157 -49.5t59 -148.5q0 -49 -17.5 -86t-47.5 -62t-70.5 -37.5t-87.5 -12.5h-96v-172h-69v698zM155 232h48q39 0 75.5 4t64.5 18t45 41.5t17 74.5q0 66 -36 102t-102 36h-112v-276z" />
    <glyph glyph-name="germandbls" unicode="&#xdf;" 
d="M79 542q0 48 12 88.5t37 70t62.5 45.5t88.5 16q86 0 137.5 -49.5t51.5 -136.5q0 -68 -35.5 -114t-98.5 -60v-2q85 -7 128.5 -56t43.5 -129q0 -48 -15 -89t-43 -70.5t-68 -46t-91 -16.5q-15 0 -40 2t-45 10l4 59q16 -10 38.5 -13.5t43.5 -3.5q71 0 109 47t38 120
q0 44 -13.5 73.5t-38.5 47t-60.5 25t-78.5 7.5h-10v54h18q63 0 104 41.5t41 111.5q0 57 -31.5 95.5t-88.5 38.5q-27 0 -52 -8.5t-43.5 -29.5t-30 -57.5t-11.5 -92.5v-520h-63v542z" />
    <glyph glyph-name="agrave" unicode="&#xe0;" horiz-adv-x="500" 
d="M372 82h-2q-10 -23 -28 -40.5t-40 -29.5t-46 -18t-48 -6q-54 0 -87 16t-51 38.5t-24 47.5t-6 42q0 64 30.5 100t77 53.5t102 21.5t104.5 4h12v26q0 66 -26 98.5t-90 32.5q-40 0 -77.5 -9.5t-72.5 -32.5v61q15 7 34 13.5t39 11t40 7.5t37 3q95 0 137 -45t42 -145v-225
q0 -31 0.5 -56t4.5 -51h-62v82zM366 257h-18q-41 0 -83.5 -3.5t-77 -16t-56.5 -37t-22 -66.5q0 -50 31.5 -71t74.5 -21q56 0 86.5 21t44.5 50.5t17 60.5t3 52v31zM312 572h-46l-126 144h79z" />
    <glyph glyph-name="aacute" unicode="&#xe1;" horiz-adv-x="500" 
d="M372 82h-2q-10 -23 -28 -40.5t-40 -29.5t-46 -18t-48 -6q-54 0 -87 16t-51 38.5t-24 47.5t-6 42q0 64 30.5 100t77 53.5t102 21.5t104.5 4h12v26q0 66 -26 98.5t-90 32.5q-40 0 -77.5 -9.5t-72.5 -32.5v61q15 7 34 13.5t39 11t40 7.5t37 3q95 0 137 -45t42 -145v-225
q0 -31 0.5 -56t4.5 -51h-62v82zM366 257h-18q-41 0 -83.5 -3.5t-77 -16t-56.5 -37t-22 -66.5q0 -50 31.5 -71t74.5 -21q56 0 86.5 21t44.5 50.5t17 60.5t3 52v31zM305 716h79l-126 -144h-46z" />
    <glyph glyph-name="acircumflex" unicode="&#xe2;" horiz-adv-x="500" 
d="M372 82h-2q-10 -23 -28 -40.5t-40 -29.5t-46 -18t-48 -6q-54 0 -87 16t-51 38.5t-24 47.5t-6 42q0 64 30.5 100t77 53.5t102 21.5t104.5 4h12v26q0 66 -26 98.5t-90 32.5q-40 0 -77.5 -9.5t-72.5 -32.5v61q15 7 34 13.5t39 11t40 7.5t37 3q95 0 137 -45t42 -145v-225
q0 -31 0.5 -56t4.5 -51h-62v82zM366 257h-18q-41 0 -83.5 -3.5t-77 -16t-56.5 -37t-22 -66.5q0 -50 31.5 -71t74.5 -21q56 0 86.5 21t44.5 50.5t17 60.5t3 52v31zM212 716h82l93 -144h-46l-88 102l-88 -102h-46z" />
    <glyph glyph-name="atilde" unicode="&#xe3;" horiz-adv-x="500" 
d="M372 82h-2q-10 -23 -28 -40.5t-40 -29.5t-46 -18t-48 -6q-54 0 -87 16t-51 38.5t-24 47.5t-6 42q0 64 30.5 100t77 53.5t102 21.5t104.5 4h12v26q0 66 -26 98.5t-90 32.5q-40 0 -77.5 -9.5t-72.5 -32.5v61q15 7 34 13.5t39 11t40 7.5t37 3q95 0 137 -45t42 -145v-225
q0 -31 0.5 -56t4.5 -51h-62v82zM366 257h-18q-41 0 -83.5 -3.5t-77 -16t-56.5 -37t-22 -66.5q0 -50 31.5 -71t74.5 -21q56 0 86.5 21t44.5 50.5t17 60.5t3 52v31zM121 595q3 16 9.5 32t16.5 29t23.5 21t31.5 8q15 0 31 -3.5t30 -8.5t26 -9t18 -4q16 0 30 8.5t19 25.5h37
q-4 -27 -14 -44.5t-22 -27t-25 -13t-22 -3.5q-17 0 -32.5 4t-29.5 9t-25.5 8.5t-21.5 3.5q-20 0 -28.5 -9t-15.5 -27h-36z" />
    <glyph glyph-name="adieresis" unicode="&#xe4;" horiz-adv-x="500" 
d="M372 82h-2q-10 -23 -28 -40.5t-40 -29.5t-46 -18t-48 -6q-54 0 -87 16t-51 38.5t-24 47.5t-6 42q0 64 30.5 100t77 53.5t102 21.5t104.5 4h12v26q0 66 -26 98.5t-90 32.5q-40 0 -77.5 -9.5t-72.5 -32.5v61q15 7 34 13.5t39 11t40 7.5t37 3q95 0 137 -45t42 -145v-225
q0 -31 0.5 -56t4.5 -51h-62v82zM366 257h-18q-41 0 -83.5 -3.5t-77 -16t-56.5 -37t-22 -66.5q0 -50 31.5 -71t74.5 -21q56 0 86.5 21t44.5 50.5t17 60.5t3 52v31zM298 688h75v-84h-75v84zM127 688h75v-84h-75v84z" />
    <glyph glyph-name="aring" unicode="&#xe5;" horiz-adv-x="500" 
d="M372 82h-2q-10 -23 -28 -40.5t-40 -29.5t-46 -18t-48 -6q-54 0 -87 16t-51 38.5t-24 47.5t-6 42q0 64 30.5 100t77 53.5t102 21.5t104.5 4h12v26q0 66 -26 98.5t-90 32.5q-40 0 -77.5 -9.5t-72.5 -32.5v61q15 7 34 13.5t39 11t40 7.5t37 3q95 0 137 -45t42 -145v-225
q0 -31 0.5 -56t4.5 -51h-62v82zM366 257h-18q-41 0 -83.5 -3.5t-77 -16t-56.5 -37t-22 -66.5q0 -50 31.5 -71t74.5 -21q56 0 86.5 21t44.5 50.5t17 60.5t3 52v31zM160 634q0 40 27 67.5t69 27.5q41 0 68.5 -27.5t27.5 -67.5q0 -41 -27.5 -68t-68.5 -27q-42 0 -69 27t-27 68z
M196 634q0 -26 18 -42.5t42 -16.5q26 0 43 16.5t17 42.5q0 25 -17 42t-43 17q-24 0 -42 -17t-18 -42z" />
    <glyph glyph-name="ae" unicode="&#xe6;" horiz-adv-x="833" 
d="M372 237h-22q-30 0 -70 -2t-77 -12.5t-62.5 -33.5t-25.5 -65q0 -20 9.5 -35.5t24.5 -26t34 -15.5t38 -5q42 0 71 13t46.5 36t25.5 53.5t8 65.5v27zM749 16q-33 -14 -73 -21t-75 -7q-79 0 -127 29t-67 74q-21 -31 -45 -51t-48.5 -31.5t-50 -16t-49.5 -4.5q-76 0 -122 34
t-46 102q0 61 30 94.5t73.5 49.5t92 19.5t86.5 3.5h44v27q0 32 -5 59.5t-17.5 47.5t-35 31.5t-57.5 11.5q-41 0 -78.5 -9.5t-72.5 -32.5v61q15 7 34 13.5t39 11t40 7.5t37 3q57 0 97.5 -19t65.5 -73q27 42 70.5 67t94.5 25q54 0 92.5 -20.5t63 -55t36 -80.5t11.5 -97v-32
h-346v-23q0 -36 9 -67.5t29 -55t51.5 -36.5t75.5 -13q17 0 37.5 3.5t40 8.5t37 12t28.5 14v-64zM718 291q0 33 -7 65t-22.5 57t-40.5 40t-60 15q-33 0 -60.5 -15.5t-46.5 -40t-29.5 -56.5t-10.5 -65h277z" />
    <glyph glyph-name="ccedilla" unicode="&#xe7;" horiz-adv-x="444" 
d="M274 -54q7 1 16 2t17 1q30 0 51.5 -16.5t21.5 -48.5q0 -22 -10.5 -35.5t-27 -21t-36 -10t-36.5 -2.5q-16 0 -32.5 3t-31 7t-24.5 7.5t-13 4.5l7 37q10 -7 36 -18t53 -11q23 0 37.5 9t14.5 28q0 17 -10.5 27t-27.5 10q-23 0 -42 -4l25 74q-55 4 -96.5 27t-69.5 59
t-41.5 82.5t-13.5 97.5q0 59 18 108t51 84.5t79.5 55t103.5 19.5q46 0 77.5 -7.5t45.5 -12.5l-5 -60q-26 11 -54.5 18.5t-54.5 7.5q-46 0 -82 -16t-60.5 -44t-37 -67t-12.5 -86q0 -43 12.5 -82t36.5 -68t58.5 -46t77.5 -17q30 0 58 6t57 17l6 -59q-32 -11 -62 -14.5
t-65 -3.5z" />
    <glyph glyph-name="egrave" unicode="&#xe8;" horiz-adv-x="500" 
d="M421 16q-33 -14 -73 -21t-75 -7q-63 0 -107.5 20t-72 56t-40 85t-12.5 106q0 59 15.5 108t43.5 84t68 55t88 20q54 0 92.5 -20.5t63 -55t36 -80.5t11.5 -97v-32h-349q0 -40 11 -76t32 -62t52.5 -41.5t72.5 -15.5q17 0 37.5 3.5t40 8.5t37 12t28.5 14v-64zM390 291
q0 33 -7 65t-22.5 57t-40.5 40t-60 15t-62.5 -16t-47 -41t-30 -56.5t-10.5 -63.5h280zM311 572h-46l-126 144h79z" />
    <glyph glyph-name="eacute" unicode="&#xe9;" horiz-adv-x="500" 
d="M421 16q-33 -14 -73 -21t-75 -7q-63 0 -107.5 20t-72 56t-40 85t-12.5 106q0 59 15.5 108t43.5 84t68 55t88 20q54 0 92.5 -20.5t63 -55t36 -80.5t11.5 -97v-32h-349q0 -40 11 -76t32 -62t52.5 -41.5t72.5 -15.5q17 0 37.5 3.5t40 8.5t37 12t28.5 14v-64zM390 291
q0 33 -7 65t-22.5 57t-40.5 40t-60 15t-62.5 -16t-47 -41t-30 -56.5t-10.5 -63.5h280zM313 716h79l-126 -144h-46z" />
    <glyph glyph-name="ecircumflex" unicode="&#xea;" horiz-adv-x="500" 
d="M421 16q-33 -14 -73 -21t-75 -7q-63 0 -107.5 20t-72 56t-40 85t-12.5 106q0 59 15.5 108t43.5 84t68 55t88 20q54 0 92.5 -20.5t63 -55t36 -80.5t11.5 -97v-32h-349q0 -40 11 -76t32 -62t52.5 -41.5t72.5 -15.5q17 0 37.5 3.5t40 8.5t37 12t28.5 14v-64zM390 291
q0 33 -7 65t-22.5 57t-40.5 40t-60 15t-62.5 -16t-47 -41t-30 -56.5t-10.5 -63.5h280zM223 716h82l93 -144h-46l-88 102l-88 -102h-46z" />
    <glyph glyph-name="edieresis" unicode="&#xeb;" horiz-adv-x="500" 
d="M421 16q-33 -14 -73 -21t-75 -7q-63 0 -107.5 20t-72 56t-40 85t-12.5 106q0 59 15.5 108t43.5 84t68 55t88 20q54 0 92.5 -20.5t63 -55t36 -80.5t11.5 -97v-32h-349q0 -40 11 -76t32 -62t52.5 -41.5t72.5 -15.5q17 0 37.5 3.5t40 8.5t37 12t28.5 14v-64zM390 291
q0 33 -7 65t-22.5 57t-40.5 40t-60 15t-62.5 -16t-47 -41t-30 -56.5t-10.5 -63.5h280zM298 688h75v-84h-75v84zM127 688h75v-84h-75v84z" />
    <glyph glyph-name="igrave" unicode="&#xec;" horiz-adv-x="222" 
d="M79 510h63v-510h-63v510zM168 572h-46l-126 144h79z" />
    <glyph glyph-name="iacute" unicode="&#xed;" horiz-adv-x="222" 
d="M79 510h63v-510h-63v510zM166 716h79l-126 -144h-46z" />
    <glyph glyph-name="icircumflex" unicode="&#xee;" horiz-adv-x="222" 
d="M79 510h63v-510h-63v510zM70 716h82l93 -144h-46l-88 102l-88 -102h-46z" />
    <glyph glyph-name="idieresis" unicode="&#xef;" horiz-adv-x="222" 
d="M79 510h63v-510h-63v510zM159 688h75v-84h-75v84zM-12 688h75v-84h-75v84z" />
    <glyph glyph-name="eth" unicode="&#xf0;" 
d="M109 255q0 -44 11 -83t32.5 -68t53 -45.5t72.5 -16.5t72.5 16.5t53 45.5t32.5 68t11 83t-11 83t-32.5 68t-53 45.5t-72.5 16.5t-72.5 -16.5t-53 -45.5t-32.5 -68t-11 -83zM182 606l91 57q-59 36 -135 51l12 48q55 -8 100 -24t82 -39l107 66l30 -42l-93 -57
q74 -64 107 -159.5t33 -210.5q0 -149 -58 -228.5t-180 -79.5q-62 0 -107 22t-74 59t-43 85.5t-14 100.5t14 100.5t43 85.5t74 59t107 22q48 0 87 -20.5t70 -58.5h2q-14 59 -44 106t-73 82l-108 -67z" />
    <glyph glyph-name="ntilde" unicode="&#xf1;" 
d="M79 390q0 29 -0.5 59t-3.5 61h61v-91h2q8 17 20 35.5t31 33.5t46.5 24.5t67.5 9.5q47 0 80 -15t54 -41t30.5 -62t9.5 -78v-326h-63v310q0 72 -27.5 115t-93.5 43q-43 0 -72 -17t-46.5 -44t-25 -60t-7.5 -65v-282h-63v390zM153 595q3 16 9.5 32t16.5 29t23.5 21t31.5 8
q15 0 31 -3.5t30 -8.5t26 -9t18 -4q16 0 30 8.5t19 25.5h37q-4 -27 -14 -44.5t-22 -27t-25 -13t-22 -3.5q-17 0 -32.5 4t-29.5 9t-25.5 8.5t-21.5 3.5q-20 0 -28.5 -9t-15.5 -27h-36z" />
    <glyph glyph-name="ograve" unicode="&#xf2;" 
d="M40 255q0 52 14 100.5t43 85.5t74 59t107 22t107 -22t74 -59t43 -85.5t14 -100.5t-14 -100.5t-43 -85.5t-74 -59t-107 -22t-107 22t-74 59t-43 85.5t-14 100.5zM109 255q0 -44 11 -83t32.5 -68t53 -45.5t72.5 -16.5t72.5 16.5t53 45.5t32.5 68t11 83t-11 83t-32.5 68
t-53 45.5t-72.5 16.5t-72.5 -16.5t-53 -45.5t-32.5 -68t-11 -83zM338 572h-46l-126 144h79z" />
    <glyph glyph-name="oacute" unicode="&#xf3;" 
d="M40 255q0 52 14 100.5t43 85.5t74 59t107 22t107 -22t74 -59t43 -85.5t14 -100.5t-14 -100.5t-43 -85.5t-74 -59t-107 -22t-107 22t-74 59t-43 85.5t-14 100.5zM109 255q0 -44 11 -83t32.5 -68t53 -45.5t72.5 -16.5t72.5 16.5t53 45.5t32.5 68t11 83t-11 83t-32.5 68
t-53 45.5t-72.5 16.5t-72.5 -16.5t-53 -45.5t-32.5 -68t-11 -83zM331 716h79l-126 -144h-46z" />
    <glyph glyph-name="ocircumflex" unicode="&#xf4;" 
d="M40 255q0 52 14 100.5t43 85.5t74 59t107 22t107 -22t74 -59t43 -85.5t14 -100.5t-14 -100.5t-43 -85.5t-74 -59t-107 -22t-107 22t-74 59t-43 85.5t-14 100.5zM109 255q0 -44 11 -83t32.5 -68t53 -45.5t72.5 -16.5t72.5 16.5t53 45.5t32.5 68t11 83t-11 83t-32.5 68
t-53 45.5t-72.5 16.5t-72.5 -16.5t-53 -45.5t-32.5 -68t-11 -83zM238 716h82l93 -144h-46l-88 102l-88 -102h-46z" />
    <glyph glyph-name="otilde" unicode="&#xf5;" 
d="M40 255q0 52 14 100.5t43 85.5t74 59t107 22t107 -22t74 -59t43 -85.5t14 -100.5t-14 -100.5t-43 -85.5t-74 -59t-107 -22t-107 22t-74 59t-43 85.5t-14 100.5zM109 255q0 -44 11 -83t32.5 -68t53 -45.5t72.5 -16.5t72.5 16.5t53 45.5t32.5 68t11 83t-11 83t-32.5 68
t-53 45.5t-72.5 16.5t-72.5 -16.5t-53 -45.5t-32.5 -68t-11 -83zM142 595q3 16 9.5 32t16.5 29t23.5 21t31.5 8q15 0 31 -3.5t30 -8.5t26 -9t18 -4q16 0 30 8.5t19 25.5h37q-4 -27 -14 -44.5t-22 -27t-25 -13t-22 -3.5q-17 0 -32.5 4t-29.5 9t-25.5 8.5t-21.5 3.5
q-20 0 -28.5 -9t-15.5 -27h-36z" />
    <glyph glyph-name="odieresis" unicode="&#xf6;" 
d="M40 255q0 52 14 100.5t43 85.5t74 59t107 22t107 -22t74 -59t43 -85.5t14 -100.5t-14 -100.5t-43 -85.5t-74 -59t-107 -22t-107 22t-74 59t-43 85.5t-14 100.5zM109 255q0 -44 11 -83t32.5 -68t53 -45.5t72.5 -16.5t72.5 16.5t53 45.5t32.5 68t11 83t-11 83t-32.5 68
t-53 45.5t-72.5 16.5t-72.5 -16.5t-53 -45.5t-32.5 -68t-11 -83zM326 688h75v-84h-75v84zM155 688h75v-84h-75v84z" />
    <glyph glyph-name="divide" unicode="&#xf7;" horiz-adv-x="600" 
d="M46 288h507v-69h-507v69zM236 450q0 26 19 45t45 19t45 -19t19 -45q0 -24 -19 -44t-45 -20t-45 19t-19 45zM236 57q0 26 19 45t45 19t45 -19t19 -45q0 -24 -19 -44t-45 -20t-45 19t-19 45z" />
    <glyph glyph-name="oslash" unicode="&#xf8;" 
d="M393 419q-22 23 -51 36t-64 13q-41 0 -72.5 -16.5t-53 -45.5t-32.5 -68t-11 -83q0 -74 30 -128zM166 89q44 -47 112 -47q41 0 72.5 16.5t53 45.5t32.5 68t11 83q0 35 -7 67t-21 58zM537 516l-73 -84q27 -35 39.5 -81t12.5 -96q0 -52 -14 -100.5t-43 -85.5t-74 -59
t-107 -22q-49 0 -87 14t-67 39l-70 -81l-35 29l75 86q-28 37 -41 83t-13 97q0 52 14 100.5t43 85.5t74 59t107 22q51 0 90 -15t66 -41l68 79z" />
    <glyph glyph-name="ugrave" unicode="&#xf9;" 
d="M477 120q0 -29 0.5 -59t3.5 -61h-61v91h-2q-8 -17 -20 -35.5t-31 -33.5t-46.5 -24.5t-67.5 -9.5q-47 0 -80 15t-54 41t-30.5 62t-9.5 78v326h63v-310q0 -72 27.5 -115t93.5 -43q43 0 72 17t46.5 44t25 60t7.5 65v282h63v-390zM339 572h-46l-126 144h79z" />
    <glyph glyph-name="uacute" unicode="&#xfa;" 
d="M477 120q0 -29 0.5 -59t3.5 -61h-61v91h-2q-8 -17 -20 -35.5t-31 -33.5t-46.5 -24.5t-67.5 -9.5q-47 0 -80 15t-54 41t-30.5 62t-9.5 78v326h63v-310q0 -72 27.5 -115t93.5 -43q43 0 72 17t46.5 44t25 60t7.5 65v282h63v-390zM332 716h79l-126 -144h-46z" />
    <glyph glyph-name="ucircumflex" unicode="&#xfb;" 
d="M477 120q0 -29 0.5 -59t3.5 -61h-61v91h-2q-8 -17 -20 -35.5t-31 -33.5t-46.5 -24.5t-67.5 -9.5q-47 0 -80 15t-54 41t-30.5 62t-9.5 78v326h63v-310q0 -72 27.5 -115t93.5 -43q43 0 72 17t46.5 44t25 60t7.5 65v282h63v-390zM240 716h82l93 -144h-46l-88 102l-88 -102
h-46z" />
    <glyph glyph-name="udieresis" unicode="&#xfc;" 
d="M477 120q0 -29 0.5 -59t3.5 -61h-61v91h-2q-8 -17 -20 -35.5t-31 -33.5t-46.5 -24.5t-67.5 -9.5q-47 0 -80 15t-54 41t-30.5 62t-9.5 78v326h63v-310q0 -72 27.5 -115t93.5 -43q43 0 72 17t46.5 44t25 60t7.5 65v282h63v-390zM326 688h75v-84h-75v84zM155 688h75v-84h-75
v84z" />
    <glyph glyph-name="yacute" unicode="&#xfd;" horiz-adv-x="444" 
d="M231 -76q-9 -26 -20.5 -51.5t-27.5 -45t-36 -31.5t-47 -12q-34 0 -68 8l6 54q9 -3 19.5 -5.5t27.5 -2.5q41 0 59 30.5t33 80.5l13 45l-181 516h69l143 -426l-1 1h2l147 425h66zM284 716h79l-126 -144h-46z" />
    <glyph glyph-name="thorn" unicode="&#xfe;" 
d="M73 750h63v-333h2q5 11 15 28.5t28.5 34.5t47 29.5t68.5 12.5q56 0 96 -20t65.5 -55.5t37 -84.5t11.5 -107q0 -57 -13 -105.5t-39.5 -84.5t-65.5 -56.5t-92 -20.5q-60 0 -98 25.5t-61 79.5h-2v-303h-63v960zM438 255q0 37 -6.5 75t-24 68.5t-46.5 50t-74 19.5
q-42 0 -71 -20t-46.5 -51.5t-25.5 -69t-8 -72.5t8 -72.5t25.5 -69t46.5 -51.5t71 -20q45 0 74 19.5t46.5 50t24 68.5t6.5 75z" />
    <glyph glyph-name="ydieresis" unicode="&#xff;" horiz-adv-x="444" 
d="M231 -76q-9 -26 -20.5 -51.5t-27.5 -45t-36 -31.5t-47 -12q-34 0 -68 8l6 54q9 -3 19.5 -5.5t27.5 -2.5q41 0 59 30.5t33 80.5l13 45l-181 516h69l143 -426l-1 1h2l147 425h66zM270 688h75v-84h-75v84zM99 688h75v-84h-75v84z" />
    <glyph glyph-name="Amacron" unicode="&#x100;" horiz-adv-x="667" 
d="M299 698h78l277 -698h-72l-75 187h-352l-75 -187h-67zM333 632l-152 -385h303zM213 817h244v-54h-244v54z" />
    <glyph glyph-name="amacron" unicode="&#x101;" horiz-adv-x="500" 
d="M372 82h-2q-10 -23 -28 -40.5t-40 -29.5t-46 -18t-48 -6q-54 0 -87 16t-51 38.5t-24 47.5t-6 42q0 64 30.5 100t77 53.5t102 21.5t104.5 4h12v26q0 66 -26 98.5t-90 32.5q-40 0 -77.5 -9.5t-72.5 -32.5v61q15 7 34 13.5t39 11t40 7.5t37 3q95 0 137 -45t42 -145v-225
q0 -31 0.5 -56t4.5 -51h-62v82zM366 257h-18q-41 0 -83.5 -3.5t-77 -16t-56.5 -37t-22 -66.5q0 -50 31.5 -71t74.5 -21q56 0 86.5 21t44.5 50.5t17 60.5t3 52v31zM132 668h244v-54h-244v54z" />
    <glyph glyph-name="Abreve" unicode="&#x102;" horiz-adv-x="667" 
d="M299 698h78l277 -698h-72l-75 187h-352l-75 -187h-67zM333 632l-152 -385h303zM239 839q9 -26 37 -35t60 -9t60 9t37 35h31q-7 -42 -40 -69.5t-88 -27.5t-88 27.5t-40 69.5h31z" />
    <glyph glyph-name="abreve" unicode="&#x103;" horiz-adv-x="500" 
d="M372 82h-2q-10 -23 -28 -40.5t-40 -29.5t-46 -18t-48 -6q-54 0 -87 16t-51 38.5t-24 47.5t-6 42q0 64 30.5 100t77 53.5t102 21.5t104.5 4h12v26q0 66 -26 98.5t-90 32.5q-40 0 -77.5 -9.5t-72.5 -32.5v61q15 7 34 13.5t39 11t40 7.5t37 3q95 0 137 -45t42 -145v-225
q0 -31 0.5 -56t4.5 -51h-62v82zM366 257h-18q-41 0 -83.5 -3.5t-77 -16t-56.5 -37t-22 -66.5q0 -50 31.5 -71t74.5 -21q56 0 86.5 21t44.5 50.5t17 60.5t3 52v31zM165 699q9 -32 36 -44t57 -12t57 12t36 44h30q-7 -51 -38.5 -83.5t-84.5 -32.5t-84.5 32.5t-38.5 83.5h30z
" />
    <glyph glyph-name="Aogonek" unicode="&#x104;" horiz-adv-x="667" 
d="M333 632l-152 -385h303zM654 0q-11 0 -23.5 -10t-20.5 -16q-63 -54 -63 -97q0 -23 14 -36t40 -13q15 0 27.5 1.5t27.5 10.5v-41q-26 -7 -42.5 -8t-39.5 -1q-16 0 -31.5 5t-28 14t-20.5 22.5t-8 31.5q0 25 9 46t23.5 37.5t32.5 29.5t36 24h-5l-75 187h-352l-75 -187h-67
l286 698h78z" />
    <glyph glyph-name="aogonek" unicode="&#x105;" horiz-adv-x="500" 
d="M434 0q-7 0 -19 -10t-20 -16q-63 -54 -63 -97q0 -23 14 -36t40 -13q15 0 27.5 1.5t27.5 10.5v-41q-26 -7 -42.5 -8t-39.5 -1q-16 0 -31.5 5t-28 14t-20.5 22.5t-8 31.5q0 25 9 46t23.5 37.5t32.5 29.5t36 24v82h-2q-10 -23 -28 -40.5t-40 -29.5t-46 -18t-48 -6
q-54 0 -87 16t-51 38.5t-24 47.5t-6 42q0 64 30.5 100t77 53.5t102 21.5t104.5 4h12v26q0 66 -26 98.5t-90 32.5q-40 0 -77.5 -9.5t-72.5 -32.5v61q15 7 34 13.5t39 11t40 7.5t37 3q95 0 137 -45t42 -145v-225q0 -31 0.5 -56t4.5 -51zM366 257h-18q-41 0 -83.5 -3.5t-77 -16
t-56.5 -37t-22 -66.5q0 -50 31.5 -71t74.5 -21q56 0 86.5 21t44.5 50.5t17 60.5t3 52v31z" />
    <glyph glyph-name="Cacute" unicode="&#x106;" horiz-adv-x="667" 
d="M565 620q-33 17 -76 23.5t-80 6.5q-68 0 -120.5 -22.5t-88.5 -63t-55 -95.5t-19 -120q0 -66 18.5 -121.5t54 -95t88.5 -62t122 -22.5q17 0 38 1.5t42 4.5t41 9t35 15l4 -60q-14 -9 -34.5 -14.5t-43 -9t-44 -5t-38.5 -1.5q-82 0 -147.5 26t-111 73.5t-69.5 114t-24 147.5
q0 80 24.5 146t70.5 114t111 74.5t146 26.5q15 0 37 -1.5t45 -4.5t44 -8t34 -12zM440 845h83l-121 -107h-50z" />
    <glyph glyph-name="cacute" unicode="&#x107;" horiz-adv-x="444" 
d="M411 442q-26 11 -54.5 18.5t-54.5 7.5q-46 0 -82 -16t-60.5 -44t-37 -67t-12.5 -86q0 -43 12.5 -82t36.5 -68t58.5 -46t77.5 -17q30 0 58 6t57 17l6 -59q-32 -11 -63.5 -14.5t-67.5 -3.5q-61 0 -107 22t-76.5 58.5t-45.5 85t-15 101.5q0 59 18 108t51 84.5t79.5 55
t103.5 19.5q46 0 77.5 -7.5t45.5 -12.5zM338 716h79l-126 -144h-46z" />
    <glyph glyph-name="Ccaron" unicode="&#x10c;" horiz-adv-x="667" 
d="M565 620q-33 17 -76 23.5t-80 6.5q-68 0 -120.5 -22.5t-88.5 -63t-55 -95.5t-19 -120q0 -66 18.5 -121.5t54 -95t88.5 -62t122 -22.5q17 0 38 1.5t42 4.5t41 9t35 15l4 -60q-14 -9 -34.5 -14.5t-43 -9t-44 -5t-38.5 -1.5q-82 0 -147.5 26t-111 73.5t-69.5 114t-24 147.5
q0 80 24.5 146t70.5 114t111 74.5t146 26.5q15 0 37 -1.5t45 -4.5t44 -8t34 -12zM450 738h-88l-93 107h49l88 -69l88 69h49z" />
    <glyph glyph-name="ccaron" unicode="&#x10d;" horiz-adv-x="444" 
d="M411 442q-26 11 -54.5 18.5t-54.5 7.5q-46 0 -82 -16t-60.5 -44t-37 -67t-12.5 -86q0 -43 12.5 -82t36.5 -68t58.5 -46t77.5 -17q30 0 58 6t57 17l6 -59q-32 -11 -63.5 -14.5t-67.5 -3.5q-61 0 -107 22t-76.5 58.5t-45.5 85t-15 101.5q0 59 18 108t51 84.5t79.5 55
t103.5 19.5q46 0 77.5 -7.5t45.5 -12.5zM329 572h-82l-93 144h46l88 -102l88 102h46z" />
    <glyph glyph-name="Dcaron" unicode="&#x10e;" horiz-adv-x="667" 
d="M149 60h57q74 0 134.5 16t103.5 51t66 91t23 136t-22.5 134.5t-60.5 87.5t-89.5 47.5t-110.5 14.5h-101v-578zM80 698h173q94 0 160 -25.5t108 -72t61.5 -110t19.5 -140.5q0 -95 -30 -161.5t-83.5 -108.5t-126.5 -61t-160 -19h-122v698zM318 738h-88l-93 107h49l88 -69
l88 69h49z" />
    <glyph glyph-name="dcaron" unicode="&#x10f;" horiz-adv-x="611" 
d="M483 0h-63v81h-2q-26 -49 -65 -71t-94 -22q-52 0 -91.5 20.5t-66 56.5t-39.5 84.5t-13 105.5q0 58 11.5 107t37 84.5t65.5 55.5t96 20q38 0 66 -12t47.5 -28t31 -32.5t14.5 -25.5h2v326h63v-750zM118 255q0 -37 6.5 -75t24 -68.5t46.5 -50t74 -19.5q42 0 71 20t46.5 51.5
t25.5 69t8 72.5t-8 72.5t-25.5 69t-46.5 51.5t-71 20q-45 0 -74 -19.5t-46.5 -50t-24 -68.5t-6.5 -75zM575 750h65l-58 -172h-47z" />
    <glyph glyph-name="Dcroat" unicode="&#x110;" horiz-adv-x="667" 
d="M80 698h118q95 0 169.5 -19.5t127 -61.5t80 -108t27.5 -159q0 -95 -30 -161.5t-83.5 -108.5t-126.5 -61t-160 -19h-122v329h-69v60h69v309zM149 389h213v-60h-213v-269h57q74 0 134.5 16t103.5 51t66 91t23 136q0 84 -24 139t-68.5 87t-106.5 45t-139 13h-46v-249z" />
    <glyph glyph-name="dcroat" unicode="&#x111;" 
d="M483 0h-63v81h-2q-26 -49 -65 -71t-94 -22q-52 0 -91.5 20.5t-66 56.5t-39.5 84.5t-13 105.5q0 58 11.5 107t37 84.5t65.5 55.5t96 20q38 0 66 -12t47.5 -28t31 -32.5t14.5 -25.5h2v184h-190v60h190v82h63v-82h98v-60h-98v-608zM118 255q0 -37 6.5 -75t24 -68.5t46.5 -50
t74 -19.5q42 0 71 20t46.5 51.5t25.5 69t8 72.5t-8 72.5t-25.5 69t-46.5 51.5t-71 20q-45 0 -74 -19.5t-46.5 -50t-24 -68.5t-6.5 -75z" />
    <glyph glyph-name="Emacron" unicode="&#x112;" horiz-adv-x="500" 
d="M86 698h342v-60h-273v-249h259v-60h-259v-269h285v-60h-354v698zM148 817h244v-54h-244v54z" />
    <glyph glyph-name="emacron" unicode="&#x113;" horiz-adv-x="500" 
d="M421 16q-33 -14 -73 -21t-75 -7q-63 0 -107.5 20t-72 56t-40 85t-12.5 106q0 59 15.5 108t43.5 84t68 55t88 20q54 0 92.5 -20.5t63 -55t36 -80.5t11.5 -97v-32h-349q0 -40 11 -76t32 -62t52.5 -41.5t72.5 -15.5q17 0 37.5 3.5t40 8.5t37 12t28.5 14v-64zM390 291
q0 33 -7 65t-22.5 57t-40.5 40t-60 15t-62.5 -16t-47 -41t-30 -56.5t-10.5 -63.5h280zM129 668h244v-54h-244v54z" />
    <glyph glyph-name="Edotaccent" unicode="&#x116;" horiz-adv-x="500" 
d="M86 698h342v-60h-273v-249h259v-60h-259v-269h285v-60h-354v698zM232 833h75v-84h-75v84z" />
    <glyph glyph-name="edotaccent" unicode="&#x117;" horiz-adv-x="500" 
d="M421 16q-33 -14 -73 -21t-75 -7q-63 0 -107.5 20t-72 56t-40 85t-12.5 106q0 59 15.5 108t43.5 84t68 55t88 20q54 0 92.5 -20.5t63 -55t36 -80.5t11.5 -97v-32h-349q0 -40 11 -76t32 -62t52.5 -41.5t72.5 -15.5q17 0 37.5 3.5t40 8.5t37 12t28.5 14v-64zM390 291
q0 33 -7 65t-22.5 57t-40.5 40t-60 15t-62.5 -16t-47 -41t-30 -56.5t-10.5 -63.5h280zM227 688h75v-84h-75v84z" />
    <glyph glyph-name="Eogonek" unicode="&#x118;" horiz-adv-x="500" 
d="M440 0q-9 0 -23.5 -10t-22.5 -16q-63 -54 -63 -97q0 -23 14 -36t40 -13q15 0 27.5 1.5t27.5 10.5v-41q-26 -7 -42.5 -8t-39.5 -1q-16 0 -31.5 5t-28 14t-20.5 22.5t-8 31.5q0 25 9 46t23.5 37.5t32.5 29.5t36 24h-285v698h342v-60h-273v-249h259v-60h-259v-269h285v-60z
" />
    <glyph glyph-name="eogonek" unicode="&#x119;" horiz-adv-x="500" 
d="M313 -26q-63 -54 -63 -97q0 -23 14 -36t40 -13q15 0 27.5 1.5t27.5 10.5v-41q-26 -7 -42.5 -8t-39.5 -1q-16 0 -31.5 5t-28 14t-20.5 22.5t-8 31.5q0 45 25.5 74.5t57.5 50.5q-63 0 -107 20t-71.5 56t-40 85t-12.5 106q0 59 15.5 108t43.5 84t68 55t88 20
q54 0 92.5 -20.5t63 -55t36 -80.5t11.5 -97v-32h-349q0 -40 11 -76t32 -62t52.5 -41.5t72.5 -15.5q17 0 37.5 3.5t40 8.5t37 12t28.5 14v-64q-26 -11 -56 -17q-14 -3 -28 -9t-24 -16zM390 291q0 33 -7 65t-22.5 57t-40.5 40t-60 15t-62.5 -16t-47 -41t-30 -56.5t-10.5 -63.5
h280z" />
    <glyph glyph-name="Ecaron" unicode="&#x11a;" horiz-adv-x="500" 
d="M86 698h342v-60h-273v-249h259v-60h-259v-269h285v-60h-354v698zM312 738h-88l-93 107h49l88 -69l88 69h49z" />
    <glyph glyph-name="ecaron" unicode="&#x11b;" horiz-adv-x="500" 
d="M421 16q-33 -14 -73 -21t-75 -7q-63 0 -107.5 20t-72 56t-40 85t-12.5 106q0 59 15.5 108t43.5 84t68 55t88 20q54 0 92.5 -20.5t63 -55t36 -80.5t11.5 -97v-32h-349q0 -40 11 -76t32 -62t52.5 -41.5t72.5 -15.5q17 0 37.5 3.5t40 8.5t37 12t28.5 14v-64zM390 291
q0 33 -7 65t-22.5 57t-40.5 40t-60 15t-62.5 -16t-47 -41t-30 -56.5t-10.5 -63.5h280zM301 572h-82l-93 144h46l88 -102l88 102h46z" />
    <glyph glyph-name="Gbreve" unicode="&#x11e;" horiz-adv-x="722" 
d="M564 318h-162v60h231v-347q-54 -23 -106.5 -33t-110.5 -10q-82 0 -147.5 26t-111 73.5t-69.5 114t-24 147.5q0 80 24.5 146t70.5 114t111 74.5t146 26.5q20 0 45 -2t50.5 -5.5t49.5 -10t42 -15.5l-8 -64q-41 23 -87 30t-92 7q-68 0 -120.5 -22.5t-88.5 -63t-55 -95.5
t-19 -120q0 -66 18.5 -121.5t54 -95t88.5 -62t122 -22.5q16 0 36.5 1t41 4t39.5 8t31 12v245zM311 839q9 -26 37 -35t60 -9t60 9t37 35h31q-7 -42 -40 -69.5t-88 -27.5t-88 27.5t-40 69.5h31z" />
    <glyph glyph-name="gbreve" unicode="&#x11f;" 
d="M118 255q0 -37 8 -73.5t25.5 -64.5t45.5 -45.5t68 -17.5q43 0 72.5 18.5t48 47.5t26.5 64.5t8 70.5q0 46 -7.5 85t-25 67.5t-46.5 44.5t-72 16q-45 0 -74 -19.5t-46.5 -50t-24 -68.5t-6.5 -75zM483 42q0 -53 -12.5 -100t-41 -82t-74 -55.5t-111.5 -20.5q-51 0 -92.5 10.5
t-61.5 16.5l5 63q29 -15 68.5 -25.5t81.5 -10.5q61 0 96 20.5t53 56.5t22.5 83.5t4.5 101.5h-2q-26 -56 -66 -78t-89 -22q-61 0 -102.5 24t-66.5 61t-35.5 82.5t-10.5 87.5q0 58 11.5 107t37 84.5t65.5 55.5t96 20q26 0 47 -2.5t40 -10t36.5 -21t35.5 -36.5h2v58h63v-468z
M191 699q9 -32 36 -44t57 -12t57 12t36 44h30q-7 -51 -38.5 -83.5t-84.5 -32.5t-84.5 32.5t-38.5 83.5h30z" />
    <glyph glyph-name="Gcommaaccent" unicode="&#x122;" horiz-adv-x="722" 
d="M564 318h-162v60h231v-347q-54 -23 -106.5 -33t-110.5 -10q-82 0 -147.5 26t-111 73.5t-69.5 114t-24 147.5q0 80 24.5 146t70.5 114t111 74.5t146 26.5q20 0 45 -2t50.5 -5.5t49.5 -10t42 -15.5l-8 -64q-41 23 -87 30t-92 7q-68 0 -120.5 -22.5t-88.5 -63t-55 -95.5
t-19 -120q0 -66 18.5 -121.5t54 -95t88.5 -62t122 -22.5q16 0 36.5 1t41 4t39.5 8t31 12v245zM376 -37h65l-55 -144h-48z" />
    <glyph glyph-name="gcommaaccent" unicode="&#x123;" 
d="M118 255q0 -37 8 -73.5t25.5 -64.5t45.5 -45.5t68 -17.5q43 0 72.5 18.5t48 47.5t26.5 64.5t8 70.5q0 46 -7.5 85t-25 67.5t-46.5 44.5t-72 16q-45 0 -74 -19.5t-46.5 -50t-24 -68.5t-6.5 -75zM483 42q0 -53 -12.5 -100t-41 -82t-74 -55.5t-111.5 -20.5q-51 0 -92.5 10.5
t-61.5 16.5l5 63q29 -15 68.5 -25.5t81.5 -10.5q61 0 96 20.5t53 56.5t22.5 83.5t4.5 101.5h-2q-26 -56 -66 -78t-89 -22q-61 0 -102.5 24t-66.5 61t-35.5 82.5t-10.5 87.5q0 58 11.5 107t37 84.5t65.5 55.5t96 20q26 0 47 -2.5t40 -10t36.5 -21t35.5 -36.5h2v58h63v-468z
M311 572h-65l55 144h48z" />
    <glyph glyph-name="Imacron" unicode="&#x12a;" horiz-adv-x="222" 
d="M77 698h69v-698h-69v698zM7 817h204v-54h-204v54z" />
    <glyph glyph-name="imacron" unicode="&#x12b;" horiz-adv-x="222" 
d="M79 510h63v-510h-63v510zM9 668h204v-54h-204v54z" />
    <glyph glyph-name="Iogonek" unicode="&#x12e;" horiz-adv-x="222" 
d="M146 0q-4 0 -16.5 -9.5t-20.5 -16.5q-32 -26 -47.5 -51.5t-15.5 -45.5q0 -23 14 -36t40 -13q15 0 27.5 1.5t27.5 10.5v-41q-26 -7 -42.5 -8t-39.5 -1q-16 0 -31.5 5t-28 14t-20.5 22.5t-8 31.5q0 25 9 46t23.5 37.5t32.5 29.5t36 24h-9v698h69v-698z" />
    <glyph glyph-name="iogonek" unicode="&#x12f;" horiz-adv-x="222" 
d="M142 646h-63v84h63v-84zM142 0q-2 0 -14.5 -10t-20.5 -16q-63 -54 -63 -97q0 -23 14 -36t40 -13q15 0 27.5 1.5t27.5 10.5v-41q-26 -7 -42.5 -8t-39.5 -1q-16 0 -31.5 5t-28 14t-20.5 22.5t-8 31.5q0 25 9 46t23.5 37.5t32.5 29.5t36 24h-5v510h63v-510z" />
    <glyph glyph-name="Idotaccent" unicode="&#x130;" horiz-adv-x="222" 
d="M77 698h69v-698h-69v698zM72 833h75v-84h-75v84z" />
    <glyph glyph-name="dotlessi" unicode="&#x131;" horiz-adv-x="222" 
d="M79 510h63v-510h-63v510z" />
    <glyph glyph-name="Kcommaaccent" unicode="&#x136;" horiz-adv-x="611" 
d="M95 698h69v-313l314 313h90l-338 -329l367 -369h-95l-338 349v-349h-69v698zM307 -37h65l-55 -144h-48z" />
    <glyph glyph-name="kcommaaccent" unicode="&#x137;" horiz-adv-x="500" 
d="M79 750h63v-449l228 209h81l-249 -226l279 -284h-87l-252 262v-262h-63v750zM228 -37h65l-55 -144h-48z" />
    <glyph glyph-name="Lacute" unicode="&#x139;" horiz-adv-x="444" 
d="M80 698h69v-638h280v-60h-349v698zM231 845h83l-121 -107h-50z" />
    <glyph glyph-name="lacute" unicode="&#x13a;" horiz-adv-x="222" 
d="M79 750h63v-750h-63v750zM145 845h79l-102 -84h-46z" />
    <glyph glyph-name="Lcommaaccent" unicode="&#x13b;" horiz-adv-x="444" 
d="M80 698h69v-638h280v-60h-349v698zM250 -37h65l-55 -144h-48z" />
    <glyph glyph-name="lcommaaccent" unicode="&#x13c;" horiz-adv-x="222" 
d="M79 750h63v-750h-63v750zM101 -37h65l-55 -144h-48z" />
    <glyph glyph-name="Lcaron" unicode="&#x13d;" horiz-adv-x="444" 
d="M80 698h69v-638h280v-60h-349v698zM240 750h65l-58 -172h-47z" />
    <glyph glyph-name="lcaron" unicode="&#x13e;" horiz-adv-x="272" 
d="M79 750h63v-750h-63v750zM231 750h65l-58 -172h-47z" />
    <glyph glyph-name="Lslash" unicode="&#x141;" horiz-adv-x="444" 
d="M80 698h69v-338l175 123v-68l-175 -124v-231h280v-60h-349v242l-72 -51v69l72 51v387z" />
    <glyph glyph-name="lslash" unicode="&#x142;" horiz-adv-x="222" 
d="M79 412l-66 -53v69l66 53v269h63v-219l66 53v-69l-66 -53v-462h-63v412z" />
    <glyph glyph-name="Nacute" unicode="&#x143;" horiz-adv-x="667" 
d="M77 698h87l355 -614h2v614h69v-698h-93l-349 602h-2v-602h-69v698zM384 845h83l-121 -107h-50z" />
    <glyph glyph-name="nacute" unicode="&#x144;" 
d="M79 390q0 29 -0.5 59t-3.5 61h61v-91h2q8 17 20 35.5t31 33.5t46.5 24.5t67.5 9.5q47 0 80 -15t54 -41t30.5 -62t9.5 -78v-326h-63v310q0 72 -27.5 115t-93.5 43q-43 0 -72 -17t-46.5 -44t-25 -60t-7.5 -65v-282h-63v390zM332 716h79l-126 -144h-46z" />
    <glyph glyph-name="Ncommaaccent" unicode="&#x145;" horiz-adv-x="667" 
d="M77 698h87l355 -614h2v614h69v-698h-93l-349 602h-2v-602h-69v698zM313 -37h65l-55 -144h-48z" />
    <glyph glyph-name="ncommaaccent" unicode="&#x146;" 
d="M79 390q0 29 -0.5 59t-3.5 61h61v-91h2q8 17 20 35.5t31 33.5t46.5 24.5t67.5 9.5q47 0 80 -15t54 -41t30.5 -62t9.5 -78v-326h-63v310q0 72 -27.5 115t-93.5 43q-43 0 -72 -17t-46.5 -44t-25 -60t-7.5 -65v-282h-63v390zM256 -37h65l-55 -144h-48z" />
    <glyph glyph-name="Ncaron" unicode="&#x147;" horiz-adv-x="667" 
d="M77 698h87l355 -614h2v614h69v-698h-93l-349 602h-2v-602h-69v698zM378 738h-88l-93 107h49l88 -69l88 69h49z" />
    <glyph glyph-name="ncaron" unicode="&#x148;" 
d="M79 390q0 29 -0.5 59t-3.5 61h61v-91h2q8 17 20 35.5t31 33.5t46.5 24.5t67.5 9.5q47 0 80 -15t54 -41t30.5 -62t9.5 -78v-326h-63v310q0 72 -27.5 115t-93.5 43q-43 0 -72 -17t-46.5 -44t-25 -60t-7.5 -65v-282h-63v390zM321 572h-82l-93 144h46l88 -102l88 102h46z" />
    <glyph glyph-name="Omacron" unicode="&#x14c;" horiz-adv-x="722" 
d="M54 349q-1 71 17.5 136t56.5 115t96 80t137 30t137 -30t96 -80t56.5 -115t17.5 -136q-1 -80 -20.5 -146.5t-58 -114t-96 -74t-132.5 -26.5t-132.5 26.5t-96 74t-58 114t-20.5 146.5zM361 650q-61 0 -106 -26t-74.5 -69t-43.5 -96.5t-14 -109.5q0 -55 14 -109t43.5 -97
t74.5 -69t106 -26q62 0 106.5 26t74 69t43.5 97t14 109q0 56 -14 109.5t-43.5 96.5t-74 69t-106.5 26zM239 817h244v-54h-244v54z" />
    <glyph glyph-name="omacron" unicode="&#x14d;" 
d="M40 255q0 52 14 100.5t43 85.5t74 59t107 22t107 -22t74 -59t43 -85.5t14 -100.5t-14 -100.5t-43 -85.5t-74 -59t-107 -22t-107 22t-74 59t-43 85.5t-14 100.5zM109 255q0 -44 11 -83t32.5 -68t53 -45.5t72.5 -16.5t72.5 16.5t53 45.5t32.5 68t11 83t-11 83t-32.5 68
t-53 45.5t-72.5 16.5t-72.5 -16.5t-53 -45.5t-32.5 -68t-11 -83zM155 668h244v-54h-244v54z" />
    <glyph glyph-name="Ohungarumlaut" unicode="&#x150;" horiz-adv-x="722" 
d="M54 349q-1 71 17.5 136t56.5 115t96 80t137 30t137 -30t96 -80t56.5 -115t17.5 -136q-1 -80 -20.5 -146.5t-58 -114t-96 -74t-132.5 -26.5t-132.5 26.5t-96 74t-58 114t-20.5 146.5zM361 650q-61 0 -106 -26t-74.5 -69t-43.5 -96.5t-14 -109.5q0 -55 14 -109t43.5 -97
t74.5 -69t106 -26q62 0 106.5 26t74 69t43.5 97t14 109q0 56 -14 109.5t-43.5 96.5t-74 69t-106.5 26zM329 845h81l-121 -107h-48zM508 845h81l-121 -107h-48z" />
    <glyph glyph-name="ohungarumlaut" unicode="&#x151;" 
d="M40 255q0 52 14 100.5t43 85.5t74 59t107 22t107 -22t74 -59t43 -85.5t14 -100.5t-14 -100.5t-43 -85.5t-74 -59t-107 -22t-107 22t-74 59t-43 85.5t-14 100.5zM109 255q0 -44 11 -83t32.5 -68t53 -45.5t72.5 -16.5t72.5 16.5t53 45.5t32.5 68t11 83t-11 83t-32.5 68
t-53 45.5t-72.5 16.5t-72.5 -16.5t-53 -45.5t-32.5 -68t-11 -83zM423 716h79l-126 -144h-46zM253 716h79l-126 -144h-46z" />
    <glyph glyph-name="OE" unicode="&#x152;" horiz-adv-x="889" 
d="M817 638h-271v-249h257v-60h-257v-269h283v-60h-330q-42 0 -84 -3.5t-84 -3.5q-75 0 -127.5 31t-85.5 81.5t-48.5 114t-15.5 129.5t15.5 129.5t48.5 114t85.5 81.5t127.5 31q42 0 84 -3.5t84 -3.5h318v-60zM477 638q-28 2 -58 4t-69 2q-8 0 -28.5 -1.5t-45.5 -9.5
t-52 -26t-49.5 -50.5t-37 -83t-14.5 -124.5t14.5 -124.5t37 -83t49.5 -50.5t52 -26t45.5 -9.5t28.5 -1.5q39 0 69 2t58 4v578z" />
    <glyph glyph-name="oe" unicode="&#x153;" horiz-adv-x="889" 
d="M783 291q0 33 -8 65t-24 57t-40.5 40t-57.5 15q-72 0 -111 -49.5t-39 -127.5h280zM503 237q0 -40 11 -76t32 -62t52.5 -41.5t72.5 -15.5q17 0 37.5 3.5t40 8.5t37 12t28.5 14v-64q-33 -14 -73 -21t-75 -7q-75 0 -122.5 28t-73.5 76q-27 -47 -75.5 -75.5t-120.5 -28.5
q-62 0 -107 22t-74 59t-43 85.5t-14 100.5t14 100.5t43 85.5t74 59t107 22q65 0 115 -25.5t77 -84.5q57 110 183 110q54 0 92.5 -21t63 -56t36 -80t11.5 -94v-34h-349zM105 255q0 -44 11 -83t32.5 -68t53 -45.5t72.5 -16.5q47 0 78 17t49 46t25.5 68t7.5 82q0 41 -7 79
t-25 68t-49 48t-79 18q-41 0 -72.5 -16.5t-53 -45.5t-32.5 -68t-11 -83z" />
    <glyph glyph-name="Racute" unicode="&#x154;" 
d="M157 389h73q30 0 61 6.5t56 21.5t41 39.5t16 60.5q0 43 -14 67t-38 36t-56 15t-68 3h-71v-249zM88 698h180q93 0 149 -42.5t56 -138.5q0 -34 -12 -61.5t-33 -48.5t-49.5 -34t-60.5 -17v-2q21 -3 34.5 -9.5t23 -17.5t17 -25t15.5 -32l119 -270h-76l-101 236
q-15 34 -29 52.5t-29.5 27.5t-34 11t-43.5 2h-57v-329h-69v698zM310 845h83l-121 -107h-50z" />
    <glyph glyph-name="racute" unicode="&#x155;" horiz-adv-x="333" 
d="M79 396v36t-0.5 28t-1 24.5t-2.5 25.5h63v-98h2q9 21 21 41t28.5 35.5t37 24.5t44.5 9q11 0 23.5 -2t20.5 -4v-66q-19 6 -46 6q-37 0 -62 -19t-39 -48.5t-20 -65.5t-6 -71v-252h-63v396zM253 716h79l-126 -144h-46z" />
    <glyph glyph-name="Rcommaaccent" unicode="&#x156;" 
d="M157 389h73q30 0 61 6.5t56 21.5t41 39.5t16 60.5q0 43 -14 67t-38 36t-56 15t-68 3h-71v-249zM88 698h180q93 0 149 -42.5t56 -138.5q0 -34 -12 -61.5t-33 -48.5t-49.5 -34t-60.5 -17v-2q21 -3 34.5 -9.5t23 -17.5t17 -25t15.5 -32l119 -270h-76l-101 236
q-15 34 -29 52.5t-29.5 27.5t-34 11t-43.5 2h-57v-329h-69v698zM274 -37h65l-55 -144h-48z" />
    <glyph glyph-name="rcommaaccent" unicode="&#x157;" horiz-adv-x="333" 
d="M79 396v36t-0.5 28t-1 24.5t-2.5 25.5h63v-98h2q9 21 21 41t28.5 35.5t37 24.5t44.5 9q11 0 23.5 -2t20.5 -4v-66q-19 6 -46 6q-37 0 -62 -19t-39 -48.5t-20 -65.5t-6 -71v-252h-63v396zM142 -37h65l-55 -144h-48z" />
    <glyph glyph-name="Rcaron" unicode="&#x158;" 
d="M157 389h73q30 0 61 6.5t56 21.5t41 39.5t16 60.5q0 43 -14 67t-38 36t-56 15t-68 3h-71v-249zM88 698h180q93 0 149 -42.5t56 -138.5q0 -34 -12 -61.5t-33 -48.5t-49.5 -34t-60.5 -17v-2q21 -3 34.5 -9.5t23 -17.5t17 -25t15.5 -32l119 -270h-76l-101 236
q-15 34 -29 52.5t-29.5 27.5t-34 11t-43.5 2h-57v-329h-69v698zM298 738h-88l-93 107h49l88 -69l88 69h49z" />
    <glyph glyph-name="rcaron" unicode="&#x159;" horiz-adv-x="333" 
d="M79 396v36t-0.5 28t-1 24.5t-2.5 25.5h63v-98h2q9 21 21 41t28.5 35.5t37 24.5t44.5 9q11 0 23.5 -2t20.5 -4v-66q-19 6 -46 6q-37 0 -62 -19t-39 -48.5t-20 -65.5t-6 -71v-252h-63v396zM241 572h-82l-93 144h46l88 -102l88 102h46z" />
    <glyph glyph-name="Sacute" unicode="&#x15a;" horiz-adv-x="500" 
d="M67 89q31 -20 68 -30.5t86 -10.5q32 0 60.5 8.5t50 26t34 44.5t12.5 64q0 34 -23.5 59.5t-59.5 48t-77 44t-77 47.5t-59.5 59t-23.5 79q0 42 17 75.5t47 57.5t70.5 36.5t86.5 12.5q26 0 63.5 -4.5t73.5 -18.5l-11 -63q-23 13 -57.5 19.5t-69.5 6.5q-27 0 -54 -6
t-48.5 -20t-35 -37t-13.5 -57q0 -35 23.5 -60t59.5 -46.5t77 -42t77 -47.5t59.5 -62.5t23.5 -86.5q0 -53 -20.5 -90.5t-53.5 -61t-73.5 -34.5t-81.5 -11q-51 0 -90.5 9t-67.5 21zM319 845h83l-121 -107h-50z" />
    <glyph glyph-name="sacute" unicode="&#x15b;" horiz-adv-x="389" 
d="M40 74q29 -14 62.5 -23t70.5 -9q23 0 43 6t36 17.5t25 28.5t9 39q0 30 -18 50t-45.5 35.5t-59 29.5t-59 31.5t-45.5 42t-18 61.5q0 38 14 64.5t37.5 43t53.5 24t61 7.5q20 0 56 -5t70 -18l-6 -55q-25 11 -56 17.5t-57 6.5q-49 0 -79.5 -18t-30.5 -67q0 -24 18.5 -40
t46.5 -30t60.5 -28t60.5 -34t46.5 -48t18.5 -70q0 -40 -17 -68t-43 -45t-57.5 -24.5t-60.5 -7.5q-37 0 -73 5t-70 19zM249 716h79l-126 -144h-46z" />
    <glyph glyph-name="Scedilla" unicode="&#x15e;" horiz-adv-x="500" 
d="M244 -54q7 1 16 2t17 1q30 0 51.5 -16.5t21.5 -48.5q0 -22 -10.5 -35.5t-27 -21t-36 -10t-36.5 -2.5q-16 0 -32.5 3t-31 7t-24.5 7.5t-13 4.5l7 37q10 -7 36 -18t53 -11q23 0 37.5 9t14.5 28q0 17 -10.5 27t-27.5 10q-23 0 -42 -4l25 73h-14q-51 0 -90.5 9t-67.5 21l7 71
q31 -20 68 -30.5t86 -10.5q32 0 60.5 8.5t50 26t34 44.5t12.5 64q0 34 -23.5 59.5t-59.5 48t-77 44t-77 47.5t-59.5 59t-23.5 79q0 42 17 75.5t47 57.5t70.5 36.5t86.5 12.5q26 0 63.5 -4.5t73.5 -18.5l-11 -63q-23 13 -57.5 19.5t-69.5 6.5q-27 0 -54 -6t-48.5 -20t-35 -37
t-13.5 -57q0 -35 23.5 -60t59.5 -46.5t77 -42t77 -47.5t59.5 -62.5t23.5 -86.5q0 -46 -15.5 -80t-42 -58t-60 -37.5t-69.5 -18.5z" />
    <glyph glyph-name="scedilla" unicode="&#x15f;" horiz-adv-x="389" 
d="M184 -54q7 1 16 2t17 1q30 0 51.5 -16.5t21.5 -48.5q0 -22 -10.5 -35.5t-27 -21t-36 -10t-36.5 -2.5q-16 0 -32.5 3t-31 7t-24.5 7.5t-13 4.5l7 37q10 -7 36 -18t53 -11q23 0 37.5 9t14.5 28q0 17 -10.5 27t-27.5 10q-23 0 -42 -4l25 73q-35 0 -70 5.5t-68 18.5l6 62
q29 -14 62.5 -23t70.5 -9q23 0 43 6t36 17.5t25 28.5t9 39q0 30 -18 50t-45.5 35.5t-59 29.5t-59 31.5t-45.5 42t-18 61.5q0 38 14 64.5t37.5 43t53.5 24t61 7.5q20 0 56 -5t70 -18l-6 -55q-25 11 -56 17.5t-57 6.5q-49 0 -79.5 -18t-30.5 -67q0 -24 18.5 -40t46.5 -30
t60.5 -28t60.5 -34t46.5 -48t18.5 -70q0 -37 -14 -63t-36.5 -43.5t-50.5 -26.5t-55 -11z" />
    <glyph glyph-name="Scaron" unicode="&#x160;" horiz-adv-x="500" 
d="M67 89q31 -20 68 -30.5t86 -10.5q32 0 60.5 8.5t50 26t34 44.5t12.5 64q0 34 -23.5 59.5t-59.5 48t-77 44t-77 47.5t-59.5 59t-23.5 79q0 42 17 75.5t47 57.5t70.5 36.5t86.5 12.5q26 0 63.5 -4.5t73.5 -18.5l-11 -63q-23 13 -57.5 19.5t-69.5 6.5q-27 0 -54 -6
t-48.5 -20t-35 -37t-13.5 -57q0 -35 23.5 -60t59.5 -46.5t77 -42t77 -47.5t59.5 -62.5t23.5 -86.5q0 -53 -20.5 -90.5t-53.5 -61t-73.5 -34.5t-81.5 -11q-51 0 -90.5 9t-67.5 21zM310 738h-88l-93 107h49l88 -69l88 69h49z" />
    <glyph glyph-name="scaron" unicode="&#x161;" horiz-adv-x="389" 
d="M40 74q29 -14 62.5 -23t70.5 -9q23 0 43 6t36 17.5t25 28.5t9 39q0 30 -18 50t-45.5 35.5t-59 29.5t-59 31.5t-45.5 42t-18 61.5q0 38 14 64.5t37.5 43t53.5 24t61 7.5q20 0 56 -5t70 -18l-6 -55q-25 11 -56 17.5t-57 6.5q-49 0 -79.5 -18t-30.5 -67q0 -24 18.5 -40
t46.5 -30t60.5 -28t60.5 -34t46.5 -48t18.5 -70q0 -40 -17 -68t-43 -45t-57.5 -24.5t-60.5 -7.5q-37 0 -73 5t-70 19zM238 572h-82l-93 144h46l88 -102l88 102h46z" />
    <glyph glyph-name="Tcommaaccent" unicode="&#x162;" horiz-adv-x="500" 
d="M216 638h-206v60h481v-60h-206v-638h-69v638zM261 -37h65l-55 -144h-48z" />
    <glyph glyph-name="tcommaaccent" unicode="&#x163;" horiz-adv-x="333" 
d="M299 456h-116v-330q0 -35 15 -59.5t53 -24.5q18 0 31 3.5t27 8.5l4 -52q-11 -5 -32.5 -9.5t-44.5 -4.5q-42 0 -65.5 13.5t-34.5 36.5t-13.5 54t-2.5 66v298h-100v54h100v123l63 22v-145h116v-54zM186 -37h65l-55 -144h-48z" />
    <glyph glyph-name="Tcaron" unicode="&#x164;" horiz-adv-x="500" 
d="M216 638h-206v60h481v-60h-206v-638h-69v638zM293 738h-88l-93 107h49l88 -69l88 69h49z" />
    <glyph glyph-name="tcaron" unicode="&#x165;" horiz-adv-x="333" 
d="M299 456h-116v-330q0 -35 15 -59.5t53 -24.5q18 0 31 3.5t27 8.5l4 -52q-11 -5 -32.5 -9.5t-44.5 -4.5q-42 0 -65.5 13.5t-34.5 36.5t-13.5 54t-2.5 66v298h-100v54h100v123l63 22v-145h116v-54zM283 750h65l-58 -172h-47z" />
    <glyph glyph-name="Umacron" unicode="&#x16a;" horiz-adv-x="667" 
d="M587 244q0 -77 -25 -127t-63 -78.5t-82.5 -39.5t-82.5 -11t-82.5 11t-82.5 39.5t-63 78.5t-25 127v454h69v-454q0 -43 11.5 -79t35 -62t58 -40.5t79.5 -14.5t79.5 14.5t58 40.5t35 62t11.5 79v454h69v-454zM213 817h244v-54h-244v54z" />
    <glyph glyph-name="umacron" unicode="&#x16b;" 
d="M477 120q0 -29 0.5 -59t3.5 -61h-61v91h-2q-8 -17 -20 -35.5t-31 -33.5t-46.5 -24.5t-67.5 -9.5q-47 0 -80 15t-54 41t-30.5 62t-9.5 78v326h63v-310q0 -72 27.5 -115t93.5 -43q43 0 72 17t46.5 44t25 60t7.5 65v282h63v-390zM156 668h244v-54h-244v54z" />
    <glyph glyph-name="Uring" unicode="&#x16e;" horiz-adv-x="667" 
d="M587 244q0 -77 -25 -127t-63 -78.5t-82.5 -39.5t-82.5 -11t-82.5 11t-82.5 39.5t-63 78.5t-25 127v454h69v-454q0 -43 11.5 -79t35 -62t58 -40.5t79.5 -14.5t79.5 14.5t58 40.5t35 62t11.5 79v454h69v-454zM251 779q0 34 23.5 57.5t58.5 23.5t58.5 -23.5t23.5 -57.5
q0 -35 -23.5 -58t-58.5 -23t-58.5 23t-23.5 58zM282 779q0 -22 15.5 -36t35.5 -14q22 0 36.5 14t14.5 36q0 21 -14.5 35.5t-36.5 14.5q-20 0 -35.5 -14.5t-15.5 -35.5z" />
    <glyph glyph-name="uring" unicode="&#x16f;" 
d="M477 120q0 -29 0.5 -59t3.5 -61h-61v91h-2q-8 -17 -20 -35.5t-31 -33.5t-46.5 -24.5t-67.5 -9.5q-47 0 -80 15t-54 41t-30.5 62t-9.5 78v326h63v-310q0 -72 27.5 -115t93.5 -43q43 0 72 17t46.5 44t25 60t7.5 65v282h63v-390zM191 634q0 40 27 67.5t69 27.5
q41 0 68.5 -27.5t27.5 -67.5q0 -41 -27.5 -68t-68.5 -27q-42 0 -69 27t-27 68zM227 634q0 -26 18 -42.5t42 -16.5q26 0 43 16.5t17 42.5q0 25 -17 42t-43 17q-24 0 -42 -17t-18 -42z" />
    <glyph glyph-name="Uhungarumlaut" unicode="&#x170;" horiz-adv-x="667" 
d="M587 244q0 -77 -25 -127t-63 -78.5t-82.5 -39.5t-82.5 -11t-82.5 11t-82.5 39.5t-63 78.5t-25 127v454h69v-454q0 -43 11.5 -79t35 -62t58 -40.5t79.5 -14.5t79.5 14.5t58 40.5t35 62t11.5 79v454h69v-454zM296 845h81l-121 -107h-48zM475 845h81l-121 -107h-48z" />
    <glyph glyph-name="uhungarumlaut" unicode="&#x171;" 
d="M477 120q0 -29 0.5 -59t3.5 -61h-61v91h-2q-8 -17 -20 -35.5t-31 -33.5t-46.5 -24.5t-67.5 -9.5q-47 0 -80 15t-54 41t-30.5 62t-9.5 78v326h63v-310q0 -72 27.5 -115t93.5 -43q43 0 72 17t46.5 44t25 60t7.5 65v282h63v-390zM429 716h79l-126 -144h-46zM259 716h79
l-126 -144h-46z" />
    <glyph glyph-name="Uogonek" unicode="&#x172;" horiz-adv-x="667" 
d="M360 -26q-63 -54 -63 -97q0 -23 14 -36t40 -13q15 0 27.5 1.5t27.5 10.5v-41q-26 -7 -42.5 -8t-39.5 -1q-16 0 -31.5 5t-28 14t-20.5 22.5t-8 31.5q0 45 26 74.5t57 50.5q-32 1 -73.5 12.5t-78 39.5t-61.5 77t-25 127v454h69v-454q0 -43 11.5 -79t35 -62t58 -40.5
t79.5 -14.5t79.5 14.5t58 40.5t35 62t11.5 79v454h69v-454q0 -56 -14 -97.5t-36.5 -70.5t-52 -47t-60.5 -28q-23 -7 -37 -11t-27 -16z" />
    <glyph glyph-name="uogonek" unicode="&#x173;" 
d="M481 0q-5 0 -17.5 -10t-20.5 -16q-63 -54 -63 -97q0 -23 14 -36t40 -13q15 0 27.5 1.5t27.5 10.5v-41q-26 -7 -42.5 -8t-39.5 -1q-16 0 -31.5 5t-28 14t-20.5 22.5t-8 31.5q0 25 9 46t23.5 37.5t32.5 29.5t36 24v91h-2q-8 -17 -20 -35.5t-31 -33.5t-46.5 -24.5
t-67.5 -9.5q-47 0 -80 15t-54 41t-30.5 62t-9.5 78v326h63v-310q0 -72 27.5 -115t93.5 -43q43 0 72 17t46.5 44t25 60t7.5 65v282h63v-390q0 -29 0.5 -59t3.5 -61z" />
    <glyph glyph-name="Ydieresis" unicode="&#x178;" horiz-adv-x="611" 
d="M271 296l-259 402h80l213 -341l219 341h75l-259 -402v-296h-69v296zM354 833h75v-84h-75v84zM183 833h75v-84h-75v84z" />
    <glyph glyph-name="Zacute" unicode="&#x179;" horiz-adv-x="500" 
d="M21 60l364 578h-355v60h428v-60l-362 -578h374v-60h-449v60zM298 845h83l-121 -107h-50z" />
    <glyph glyph-name="zacute" unicode="&#x17a;" horiz-adv-x="444" 
d="M32 53l307 403h-295v54h368v-54l-307 -402h307v-54h-380v53zM285 716h79l-126 -144h-46z" />
    <glyph glyph-name="Zdotaccent" unicode="&#x17b;" horiz-adv-x="500" 
d="M21 60l364 578h-355v60h428v-60l-362 -578h374v-60h-449v60zM211 833h75v-84h-75v84z" />
    <glyph glyph-name="zdotaccent" unicode="&#x17c;" horiz-adv-x="444" 
d="M32 53l307 403h-295v54h368v-54l-307 -402h307v-54h-380v53zM192 688h75v-84h-75v84z" />
    <glyph glyph-name="Zcaron" unicode="&#x17d;" horiz-adv-x="500" 
d="M21 60l364 578h-355v60h428v-60l-362 -578h374v-60h-449v60zM297 738h-88l-93 107h49l88 -69l88 69h49z" />
    <glyph glyph-name="zcaron" unicode="&#x17e;" horiz-adv-x="444" 
d="M32 53l307 403h-295v54h368v-54l-307 -402h307v-54h-380v53zM276 572h-82l-93 144h46l88 -102l88 102h46z" />
    <glyph glyph-name="florin" unicode="&#x192;" 
d="M458 365h-126l-71 -363q-11 -56 -24.5 -97t-33.5 -68t-49 -40t-71 -13q-15 0 -31.5 3.5t-26.5 6.5l16 53q11 -2 21.5 -5.5t21.5 -3.5q29 0 47.5 13t31.5 36.5t21 55.5t15 70l67 352h-111v54h122l17 91q7 36 18 71t30.5 62.5t50 44.5t76.5 17q17 0 33 -4.5t31 -12.5
l-13 -50q-13 5 -27.5 9t-28.5 4q-18 0 -33.5 -6t-28 -22t-22.5 -43t-19 -69l-18 -92h115v-54z" />
    <glyph glyph-name="Scommaaccent" unicode="&#x218;" horiz-adv-x="500" 
d="M67 89q31 -20 68 -30.5t86 -10.5q32 0 60.5 8.5t50 26t34 44.5t12.5 64q0 34 -23.5 59.5t-59.5 48t-77 44t-77 47.5t-59.5 59t-23.5 79q0 42 17 75.5t47 57.5t70.5 36.5t86.5 12.5q26 0 63.5 -4.5t73.5 -18.5l-11 -63q-23 13 -57.5 19.5t-69.5 6.5q-27 0 -54 -6
t-48.5 -20t-35 -37t-13.5 -57q0 -35 23.5 -60t59.5 -46.5t77 -42t77 -47.5t59.5 -62.5t23.5 -86.5q0 -53 -20.5 -90.5t-53.5 -61t-73.5 -34.5t-81.5 -11q-51 0 -90.5 9t-67.5 21zM229 -37h65l-55 -144h-48z" />
    <glyph glyph-name="scommaaccent" unicode="&#x219;" horiz-adv-x="389" 
d="M40 74q29 -14 62.5 -23t70.5 -9q23 0 43 6t36 17.5t25 28.5t9 39q0 30 -18 50t-45.5 35.5t-59 29.5t-59 31.5t-45.5 42t-18 61.5q0 38 14 64.5t37.5 43t53.5 24t61 7.5q20 0 56 -5t70 -18l-6 -55q-25 11 -56 17.5t-57 6.5q-49 0 -79.5 -18t-30.5 -67q0 -24 18.5 -40
t46.5 -30t60.5 -28t60.5 -34t46.5 -48t18.5 -70q0 -40 -17 -68t-43 -45t-57.5 -24.5t-60.5 -7.5q-37 0 -73 5t-70 19zM168 -37h65l-55 -144h-48z" />
    <glyph glyph-name="circumflex" unicode="&#x2c6;" horiz-adv-x="222" 
d="M70 716h82l93 -144h-46l-88 102l-88 -102h-46z" />
    <glyph glyph-name="caron" unicode="&#x2c7;" horiz-adv-x="222" 
d="M152 572h-82l-93 144h46l88 -102l88 102h46z" />
    <glyph glyph-name="breve" unicode="&#x2d8;" horiz-adv-x="222" 
d="M18 699q9 -32 36 -44t57 -12t57 12t36 44h30q-7 -51 -38.5 -83.5t-84.5 -32.5t-84.5 32.5t-38.5 83.5h30z" />
    <glyph glyph-name="dotaccent" unicode="&#x2d9;" horiz-adv-x="222" 
d="M74 688h75v-84h-75v84z" />
    <glyph glyph-name="ring" unicode="&#x2da;" horiz-adv-x="222" 
d="M21 634q0 40 27 67.5t69 27.5q41 0 68.5 -27.5t27.5 -67.5q0 -41 -27.5 -68t-68.5 -27q-42 0 -69 27t-27 68zM57 634q0 -26 18 -42.5t42 -16.5q26 0 43 16.5t17 42.5q0 25 -17 42t-43 17q-24 0 -42 -17t-18 -42z" />
    <glyph glyph-name="ogonek" unicode="&#x2db;" horiz-adv-x="222" 
d="M148 -201q-26 -7 -42.5 -8t-39.5 -1q-16 0 -31.5 5t-28 14t-20.5 22.5t-8 31.5q0 25 9 46t23.5 37.5t32.5 29.5t36 24h57q-49 -34 -73 -65.5t-24 -57.5q0 -23 14 -36t40 -13q15 0 27.5 1.5t27.5 10.5v-41z" />
    <glyph glyph-name="tilde" unicode="&#x2dc;" horiz-adv-x="222" 
d="M-27 595q3 16 9.5 32t16.5 29t23.5 21t31.5 8q15 0 31 -3.5t30 -8.5t26 -9t18 -4q16 0 30 8.5t19 25.5h37q-4 -27 -14 -44.5t-22 -27t-25 -13t-22 -3.5q-17 0 -32.5 4t-29.5 9t-25.5 8.5t-21.5 3.5q-20 0 -28.5 -9t-15.5 -27h-36z" />
    <glyph glyph-name="hungarumlaut" unicode="&#x2dd;" horiz-adv-x="222" 
d="M231 716h79l-126 -144h-46zM61 716h79l-126 -144h-46z" />
    <glyph glyph-name="endash" unicode="&#x2013;" horiz-adv-x="500" 
d="M0 296h500v-54h-500v54z" />
    <glyph glyph-name="emdash" unicode="&#x2014;" horiz-adv-x="1000" 
d="M0 296h1000v-54h-1000v54z" />
    <glyph glyph-name="quoteleft" unicode="&#x2018;" horiz-adv-x="278" 
d="M147 480h-75l77 218h57z" />
    <glyph glyph-name="quoteright" unicode="&#x2019;" horiz-adv-x="278" 
d="M131 698h75l-77 -218h-57z" />
    <glyph glyph-name="quotesinglbase" unicode="&#x201a;" horiz-adv-x="278" 
d="M131 84h75l-77 -218h-57z" />
    <glyph glyph-name="quotedblleft" unicode="&#x201c;" 
d="M198 480h-75l77 218h57zM374 480h-75l77 218h57z" />
    <glyph glyph-name="quotedblright" unicode="&#x201d;" 
d="M358 698h75l-77 -218h-57zM182 698h75l-77 -218h-57z" />
    <glyph glyph-name="quotedblbase" unicode="&#x201e;" 
d="M182 84h75l-76 -218h-58zM358 84h75l-77 -218h-57z" />
    <glyph glyph-name="dagger" unicode="&#x2020;" 
d="M246 456h-175v54h175v188h63v-188h176v-54h-176v-456h-63v456z" />
    <glyph glyph-name="daggerdbl" unicode="&#x2021;" 
d="M71 242h175v214h-175v54h175v188h63v-188h176v-54h-176v-214h176v-54h-176v-188h-63v188h-175v54z" />
    <glyph glyph-name="bullet" unicode="&#x2022;" horiz-adv-x="500" 
d="M76 349q0 36 13.5 68t37.5 55.5t55.5 37.5t67.5 14t68 -14t55.5 -37.5t37.5 -55.5t14 -68t-14 -67.5t-37.5 -55.5t-55.5 -37.5t-68 -13.5t-67.5 13.5t-55.5 37.5t-37.5 55.5t-13.5 67.5z" />
    <glyph glyph-name="ellipsis" unicode="&#x2026;" horiz-adv-x="1000" 
d="M127 84h81v-84h-81v84zM460 84h81v-84h-81v84zM793 84h81v-84h-81v84z" />
    <glyph glyph-name="perthousand" unicode="&#x2030;" horiz-adv-x="1000" 
d="M42 528q0 35 5.5 67t20.5 56.5t40.5 39t65.5 14.5t65.5 -14.5t40.5 -39t20.5 -56.5t5.5 -67t-5.5 -67t-20.5 -56.5t-40.5 -39t-65.5 -14.5t-65.5 14.5t-40.5 39t-20.5 56.5t-5.5 67zM105 528q0 -19 1 -41.5t7.5 -42t20.5 -32.5t40 -13t40 13t20.5 32.5t7.5 42t1 41.5
t-1 41.5t-7.5 42t-20.5 32.5t-40 13t-40 -13t-20.5 -32.5t-7.5 -42t-1 -41.5zM380 170q0 32 5 63.5t19 57t40 41t68 15.5t68 -15.5t40 -41t19 -57t5 -63.5t-5 -63.5t-19 -57t-40 -41t-68 -15.5t-68 15.5t-40 41t-19 57t-5 63.5zM443 170q0 -19 1 -41.5t7.5 -42t20.5 -32.5
t40 -13t40 13t20.5 32.5t7.5 42t1 41.5t-1 41.5t-7.5 42t-20.5 32.5t-40 13t-40 -13t-20.5 -32.5t-7.5 -42t-1 -41.5zM694 170q0 32 5 63.5t19 57t40 41t68 15.5t68 -15.5t40 -41t19 -57t5 -63.5t-5 -63.5t-19 -57t-40 -41t-68 -15.5t-68 15.5t-40 41t-19 57t-5 63.5z
M757 170q0 -19 1 -41.5t7.5 -42t20.5 -32.5t40 -13t40 13t20.5 32.5t7.5 42t1 41.5t-1 41.5t-7.5 42t-20.5 32.5t-40 13t-40 -13t-20.5 -32.5t-7.5 -42t-1 -41.5zM521 720h58l-413 -742h-58z" />
    <glyph glyph-name="guilsinglleft" unicode="&#x2039;" horiz-adv-x="278" 
d="M105 269l133 -205h-59l-140 205l140 205h59z" />
    <glyph glyph-name="guilsinglright" unicode="&#x203a;" horiz-adv-x="278" 
d="M173 269l-133 205h59l140 -205l-140 -205h-59z" />
    <glyph glyph-name="fraction" unicode="&#x2044;" horiz-adv-x="167" 
d="M261 720h57l-413 -742h-57z" />
    <glyph glyph-name="trademark" unicode="&#x2122;" horiz-adv-x="990" 
d="M195 650h-131v48h325v-48h-131v-366h-63v366zM478 698h102l122 -319l122 319h102v-414h-63v360h-2l-138 -360h-43l-137 360h-2v-360h-63v414z" />
    <glyph glyph-name="partialdiff" unicode="&#x2202;" horiz-adv-x="494" 
d="M65 717q15 6 35.5 13t44.5 11t50 4.5t51 -5.5q46 -11 89 -41t79 -93q17 -30 26.5 -63.5t14.5 -63.5t6 -53.5t1 -32.5q0 -15 -2.5 -46t-8.5 -68t-16 -76.5t-25 -71.5q-20 -43 -41 -74t-63 -54q-52 -29 -104.5 -23.5t-90.5 31.5q-29 20 -54 54t-30 91q-3 30 2 57.5t14 50
t19.5 39.5t19.5 28q26 32 60 52.5t82 18.5q22 -1 39 -4.5t33 -11t34.5 -20t43.5 -32.5q6 32 8 59.5t3 56.5q0 18 -3 41t-8 45t-10.5 41.5t-10.5 31.5q-4 11 -13.5 25.5t-23.5 28t-33 23.5t-42 12q-27 2 -43 1t-29.5 -5t-28 -11t-36.5 -16zM366 299q-8 9 -17 20t-22 21
t-29.5 16.5t-39.5 6.5q-57 -2 -96 -54q-30 -42 -40 -82.5t-10 -78.5q0 -11 1 -27.5t5.5 -34.5t13.5 -35t26 -28q21 -14 41 -14.5t42 9.5q28 12 47 35t34 58q18 45 28 92t16 96z" />
    <glyph glyph-name="Delta" unicode="&#x2206;" horiz-adv-x="612" 
d="M608 0h-602l320 688zM72 49h412l-194 468z" />
    <glyph glyph-name="summation" unicode="&#x2211;" horiz-adv-x="713" 
d="M623 586h-20q-7 24 -14 45t-22 36.5t-42 24t-75 8.5h-263l273 -358l-294 -339h371q29 0 49 5t34.5 18t26.5 35t25 55h23q-9 -38 -15 -63.5t-10.5 -48.5t-8.5 -48.5t-9 -63.5q-20 3 -39 7t-38 4h-503q-15 0 -29 -1.5t-29 -1.5l349 398l-347 454q26 -2 52 -4.5t52 -2.5h497
z" />
    <glyph glyph-name="minus" unicode="&#x2212;" horiz-adv-x="600" 
d="M46 288h507v-69h-507v69z" />
    <glyph glyph-name="radical" unicode="&#x221a;" horiz-adv-x="549" 
d="M10 450l146 72l197 -403l127 798l35 -5l-150 -950l-243 502l-96 -47z" />
    <glyph glyph-name="notequal" unicode="&#x2260;" horiz-adv-x="549" 
d="M451 521l-76 -136h165v-55h-195l-78 -139h273v-55h-303l-90 -161l-49 28l74 133h-157v55h188l77 139h-265v55h296l91 164z" />
    <glyph glyph-name="lessequal" unicode="&#x2264;" horiz-adv-x="549" 
d="M29 55h497v-55h-497v55zM29 409l497 230v-62l-433 -199l433 -199v-62l-497 230v62z" />
    <glyph glyph-name="greaterequal" unicode="&#x2265;" horiz-adv-x="549" 
d="M526 0h-497v55h497v-55zM526 347l-497 -230v62l433 199l-433 199v62l497 -230v-62z" />
    <glyph glyph-name="lozenge" unicode="&#x25ca;" horiz-adv-x="494" 
d="M212 0l-194 377l194 368h60l194 -368l-194 -377h-60zM242 691l-164 -314l164 -323l164 323z" />
    <glyph glyph-name="fi" unicode="&#xfb01;" 
d="M403 510h63v-510h-63v510zM466 646h-63v84h63v-84zM122 456h-103v54h103v37q0 40 2.5 78.5t15.5 69t40.5 49t76.5 18.5q15 0 32.5 -2.5t26.5 -7.5l-4 -55q-20 11 -50 11q-32 0 -48 -15.5t-22.5 -38.5t-6.5 -50v-50v-44h115v-54h-115v-456h-63v456z" />
    <glyph glyph-name="fl" unicode="&#xfb02;" 
d="M403 750h63v-750h-63v750zM122 456h-103v54h103v37q0 40 2.5 78.5t15.5 69t40.5 49t76.5 18.5q15 0 32.5 -2.5t26.5 -7.5l-4 -55q-20 11 -50 11q-32 0 -48 -15.5t-22.5 -38.5t-6.5 -50v-50v-44h115v-54h-115v-456h-63v456z" />
    <glyph glyph-name="commaaccent" horiz-adv-x="278" 
d="M111 -37h65l-55 -144h-48z" />
  </font>
</defs>
</svg>
