<?xml version="1.0" encoding="iso-8859-1"?>
<!-- Generator: Adobe Illustrator 16.0.0, SVG Export Plug-In . SVG Version: 6.00 Build 0)  -->
<!DOCTYPE svg PUBLIC "-//W3C//DTD SVG 1.1//EN" "http://www.w3.org/Graphics/SVG/1.1/DTD/svg11.dtd">
<svg version="1.1" id="Vrstva_1" xmlns="http://www.w3.org/2000/svg" xmlns:xlink="http://www.w3.org/1999/xlink" x="0px" y="0px"
	 width="16.398px" height="20.499px" viewBox="0 0 16.398 20.499" style="enable-background:new 0 0 16.398 20.499;"
	 xml:space="preserve">
<path style="fill:#A9A8A8;" d="M14.349,18.859c0,0.452-0.368,0.82-0.82,0.82H2.87c-0.452,0-0.82-0.368-0.82-0.82V3.28h12.299V18.859
	z M5.74,1.641c0-0.452,0.367-0.82,0.819-0.82h3.28c0.451,0,0.818,0.368,0.818,0.82V2.46H5.74V1.641z M15.988,2.46h-4.51V1.641
	C11.479,0.736,10.744,0,9.84,0H6.56C5.654,0,4.92,0.736,4.92,1.641V2.46H0.41C0.184,2.46,0,2.645,0,2.87
	c0,0.227,0.184,0.41,0.41,0.41h0.819v15.579c0,0.904,0.736,1.64,1.641,1.64h10.658c0.905,0,1.641-0.735,1.641-1.64V3.28h0.819
	c0.228,0,0.41-0.184,0.41-0.41C16.398,2.645,16.216,2.46,15.988,2.46"/>
<path style="fill:#A9A8A8;" d="M8.199,18.039c0.228,0,0.41-0.184,0.41-0.41V5.33c0-0.226-0.183-0.41-0.41-0.41
	c-0.227,0-0.41,0.185-0.41,0.41v12.299C7.789,17.855,7.973,18.039,8.199,18.039"/>
<path style="fill:#A9A8A8;" d="M11.479,18.039c0.227,0,0.409-0.184,0.409-0.41V5.33c0-0.226-0.183-0.41-0.409-0.41
	c-0.228,0-0.41,0.185-0.41,0.41v12.299C11.069,17.855,11.252,18.039,11.479,18.039"/>
<path style="fill:#A9A8A8;" d="M4.92,18.039c0.227,0,0.41-0.184,0.41-0.41V5.33c0-0.226-0.184-0.41-0.41-0.41
	c-0.228,0-0.41,0.185-0.41,0.41v12.299C4.51,17.855,4.692,18.039,4.92,18.039"/>
</svg>
