<?xml version="1.0" encoding="iso-8859-1"?>
<!-- Generator: Adobe Illustrator 16.0.0, SVG Export Plug-In . SVG Version: 6.00 Build 0)  -->
<!DOCTYPE svg PUBLIC "-//W3C//DTD SVG 1.1//EN" "http://www.w3.org/Graphics/SVG/1.1/DTD/svg11.dtd">
<svg version="1.1" id="Vrstva_1" xmlns="http://www.w3.org/2000/svg" xmlns:xlink="http://www.w3.org/1999/xlink" x="0px" y="0px"
	 width="21px" height="18.2px" viewBox="0 0 21 18.2" style="enable-background:new 0 0 21 18.2;" xml:space="preserve">
<path style="fill:#A9A8A8;" d="M4.2,16.799l1.471-3.622l2.152,2.152L4.2,16.799z M6.077,12.594l6.86-6.86l2.33,2.328l-6.86,6.861
	L6.077,12.594z M17.827,0.844C17.919,0.751,18.042,0.7,18.187,0.7h0.001c0.125,0.004,0.243,0.055,0.332,0.144l1.638,1.636
	c0.089,0.09,0.14,0.207,0.143,0.332c0.004,0.138-0.047,0.266-0.143,0.361l-4.395,4.395l-2.33-2.329L17.827,0.844z M20.165,4.155
	l0.486-0.487c0.23-0.23,0.357-0.55,0.349-0.876c-0.009-0.305-0.133-0.591-0.349-0.807l-1.637-1.637
	C18.8,0.133,18.513,0.01,18.213,0.001C18.208,0,18.178,0,18.174,0c-0.318,0-0.617,0.124-0.842,0.349L5.248,12.433
	c-0.033,0.033-0.06,0.073-0.077,0.116l-1.609,3.965C3.52,16.608,3.5,16.706,3.5,16.805c0.003,0.381,0.314,0.693,0.698,0.695H4.2
	c0.097,0,0.193-0.021,0.274-0.057l3.977-1.613c0.044-0.019,0.083-0.044,0.116-0.077L19.67,4.65l0.528,0.527
	c0.136,0.137,0.136,0.358,0.005,0.49l-2.945,2.83c-0.14,0.134-0.144,0.354-0.01,0.495C17.317,9.064,17.408,9.1,17.5,9.1
	c0.087,0,0.175-0.031,0.243-0.098l2.949-2.834c0.409-0.41,0.409-1.076,0-1.485L20.165,4.155z"/>
<rect y="17.5" style="fill:#A9A8A8;" width="18.9" height="0.7"/>
</svg>
