<?xml version="1.0" encoding="utf-8"?>
<!-- Generator: Adobe Illustrator 16.0.0, SVG Export Plug-In . SVG Version: 6.00 Build 0)  -->
<!DOCTYPE svg PUBLIC "-//W3C//DTD SVG 1.1//EN" "http://www.w3.org/Graphics/SVG/1.1/DTD/svg11.dtd">
<svg version="1.1" id="Vrstva_1" xmlns="http://www.w3.org/2000/svg" xmlns:xlink="http://www.w3.org/1999/xlink" x="0px" y="0px"
	 width="8.744px" height="10.673px" viewBox="0 0 8.744 10.673" enable-background="new 0 0 8.744 10.673" xml:space="preserve">
<path fill="#083A5A" d="M7.921,3.58L4.886,6.615v-6.07c0-0.267-0.216-0.482-0.481-0.482c-0.268,0-0.483,0.216-0.483,0.482v6.07
	L0.887,3.58c-0.188-0.188-0.493-0.188-0.682,0c-0.188,0.188-0.188,0.494,0,0.682L4.063,8.12C4.157,8.214,4.28,8.261,4.404,8.261
	c0.123,0,0.247-0.047,0.341-0.141l3.858-3.858c0.188-0.188,0.188-0.494,0-0.682C8.415,3.392,8.109,3.392,7.921,3.58"/>
<path fill="#083A5A" d="M8.262,9.708H0.546c-0.267,0-0.482,0.216-0.482,0.482s0.216,0.482,0.482,0.482h7.716
	c0.268,0,0.482-0.216,0.482-0.482S8.529,9.708,8.262,9.708"/>
</svg>
