<?xml version="1.0" encoding="utf-8"?>
<!-- Generator: Adobe Illustrator 16.0.0, SVG Export Plug-In . SVG Version: 6.00 Build 0)  -->
<!DOCTYPE svg PUBLIC "-//W3C//DTD SVG 1.1//EN" "http://www.w3.org/Graphics/SVG/1.1/DTD/svg11.dtd">
<svg version="1.1" id="Vrstva_1" xmlns="http://www.w3.org/2000/svg" xmlns:xlink="http://www.w3.org/1999/xlink" x="0px" y="0px"
	 width="56.414px" height="49.038px" viewBox="0 0 56.414 49.038" enable-background="new 0 0 56.414 49.038" xml:space="preserve">
<path fill="#A9A8A8" d="M28.583,26.585c-4.875,0-8.842-3.966-8.842-8.842s3.967-8.841,8.842-8.841c4.875,0,8.842,3.966,8.842,8.841
	S33.458,26.585,28.583,26.585 M38.393,17.743c0-5.41-4.402-9.811-9.811-9.811c-5.411,0-9.812,4.401-9.812,9.811
	c0,5.41,4.401,9.811,9.812,9.811C33.991,27.554,38.393,23.153,38.393,17.743"/>
<path fill="#A9A8A8" d="M38.456,41.862c-0.182-0.025-0.363,0.058-0.466,0.212l-2.812,4.266l-5.775-12.615
	c0.564-0.214,1.068-0.617,1.563-1.011c0.488-0.391,0.951-0.76,1.393-0.878c0.154-0.041,0.334-0.063,0.545-0.063
	c0.361,0,0.754,0.059,1.17,0.12c0.429,0.063,0.873,0.13,1.297,0.13c0.514,0,0.936-0.098,1.284-0.301
	c0.604-0.35,0.948-0.961,1.227-1.617l5.645,12.416L38.456,41.862z M28.583,32.915c-0.579,0-1.161-0.466-1.779-0.958
	c-0.545-0.437-1.11-0.887-1.747-1.059c-0.238-0.063-0.499-0.094-0.794-0.094c-0.433,0-0.88,0.066-1.312,0.131
	c-0.413,0.063-0.803,0.119-1.157,0.119c-0.338,0-0.6-0.055-0.798-0.17c-0.481-0.279-0.75-0.965-1.035-1.691
	c-0.26-0.66-0.528-1.343-1.006-1.821c-0.479-0.479-1.162-0.747-1.823-1.006c-0.727-0.286-1.412-0.555-1.69-1.035
	c-0.271-0.47-0.164-1.191-0.051-1.955c0.105-0.708,0.213-1.441,0.036-2.106c-0.17-0.638-0.62-1.203-1.056-1.749
	c-0.493-0.618-0.958-1.201-0.958-1.778c0-0.578,0.465-1.161,0.958-1.778c0.436-0.546,0.886-1.11,1.056-1.748
	c0.178-0.666,0.069-1.398-0.036-2.106c-0.113-0.764-0.22-1.486,0.051-1.955c0.279-0.481,0.964-0.751,1.69-1.036
	c0.661-0.26,1.344-0.527,1.823-1.006c0.478-0.478,0.746-1.162,1.006-1.822c0.285-0.726,0.554-1.412,1.035-1.69
	c0.198-0.115,0.459-0.17,0.798-0.17c0.354,0,0.744,0.058,1.157,0.119c0.431,0.065,0.878,0.13,1.312,0.13
	c0.296,0,0.557-0.03,0.794-0.094c0.637-0.17,1.202-0.621,1.747-1.057c0.618-0.493,1.201-0.958,1.779-0.958
	c0.577,0,1.16,0.465,1.777,0.958c0.546,0.436,1.111,0.887,1.748,1.057c0.238,0.063,0.5,0.094,0.795,0.094
	c0.434,0,0.879-0.065,1.311-0.13c0.414-0.061,0.803-0.119,1.156-0.119c0.34,0,0.602,0.055,0.801,0.17
	c0.48,0.278,0.749,0.964,1.035,1.69c0.26,0.66,0.526,1.344,1.006,1.822c0.479,0.479,1.16,0.747,1.821,1.006
	c0.728,0.285,1.412,0.555,1.69,1.036c0.271,0.469,0.165,1.19,0.052,1.955c-0.105,0.708-0.214,1.441-0.037,2.106
	c0.171,0.637,0.622,1.201,1.058,1.748c0.492,0.618,0.957,1.201,0.957,1.778c0,0.577-0.465,1.16-0.957,1.778
	c-0.436,0.546-0.887,1.11-1.058,1.749c-0.177,0.665-0.068,1.397,0.037,2.106c0.113,0.764,0.22,1.485-0.052,1.955
	c-0.278,0.48-0.963,0.749-1.69,1.035c-0.661,0.259-1.343,0.528-1.821,1.006c-0.479,0.479-0.746,1.161-1.006,1.821
	c-0.286,0.727-0.555,1.412-1.035,1.691c-0.199,0.115-0.461,0.17-0.801,0.17c-0.354,0-0.742-0.057-1.156-0.119
	c-0.432-0.064-0.877-0.131-1.311-0.131c-0.295,0-0.557,0.031-0.795,0.094c-0.637,0.172-1.202,0.622-1.748,1.059
	C29.743,32.449,29.16,32.915,28.583,32.915 M21.987,46.34l-2.812-4.266c-0.101-0.154-0.283-0.237-0.467-0.212l-5.065,0.659
	l5.661-12.367c0.276,0.637,0.617,1.227,1.207,1.568c0.35,0.203,0.769,0.301,1.283,0.301c0.426,0,0.87-0.066,1.299-0.13
	c0.416-0.062,0.809-0.12,1.17-0.12c0.21,0,0.39,0.021,0.544,0.063c0.442,0.118,0.904,0.487,1.394,0.878
	c0.494,0.394,0.999,0.797,1.563,1.011L21.987,46.34z M44.768,42.913l-6.383-14.04c0.146-0.326,0.309-0.612,0.51-0.816
	c0.336-0.335,0.898-0.556,1.492-0.789c0.85-0.332,1.728-0.678,2.175-1.451c0.441-0.762,0.304-1.688,0.171-2.583
	c-0.096-0.64-0.184-1.243-0.059-1.714c0.117-0.441,0.486-0.904,0.879-1.394c0.574-0.72,1.17-1.466,1.17-2.382
	c0-0.917-0.596-1.661-1.17-2.383c-0.393-0.49-0.762-0.952-0.879-1.394c-0.125-0.472-0.037-1.076,0.059-1.715
	c0.133-0.895,0.271-1.819-0.171-2.581c-0.447-0.775-1.325-1.12-2.175-1.453c-0.594-0.234-1.156-0.454-1.492-0.79
	c-0.334-0.335-0.557-0.896-0.788-1.491c-0.334-0.849-0.679-1.726-1.453-2.175c-0.349-0.201-0.769-0.3-1.284-0.3
	c-0.424,0-0.868,0.066-1.297,0.129c-0.416,0.062-0.809,0.12-1.17,0.12c-0.211,0-0.391-0.02-0.545-0.061
	c-0.441-0.118-0.904-0.487-1.393-0.878c-0.723-0.575-1.466-1.169-2.383-1.169c-0.917,0-1.662,0.595-2.383,1.169
	c-0.49,0.392-0.952,0.76-1.394,0.878c-0.155,0.042-0.334,0.061-0.544,0.061c-0.361,0-0.754-0.058-1.17-0.12
	c-0.429-0.063-0.873-0.129-1.299-0.129c-0.514,0-0.933,0.099-1.283,0.3c-0.775,0.449-1.119,1.326-1.453,2.175
	c-0.233,0.595-0.454,1.156-0.789,1.491c-0.336,0.336-0.897,0.556-1.492,0.79c-0.849,0.333-1.727,0.678-2.174,1.453
	c-0.441,0.761-0.304,1.686-0.171,2.581c0.095,0.639,0.184,1.243,0.058,1.715c-0.118,0.442-0.487,0.903-0.877,1.394
	c-0.576,0.722-1.171,1.466-1.171,2.383s0.595,1.662,1.171,2.382c0.391,0.49,0.76,0.953,0.877,1.394
	c0.125,0.472,0.037,1.075-0.058,1.714c-0.133,0.895-0.27,1.82,0.171,2.583c0.447,0.773,1.325,1.117,2.174,1.451
	c0.595,0.233,1.156,0.454,1.491,0.789c0.214,0.215,0.381,0.52,0.535,0.865l-6.404,13.99c-0.073,0.16-0.054,0.348,0.05,0.489
	c0.104,0.142,0.278,0.217,0.453,0.192l5.632-0.732l3.125,4.742c0.09,0.136,0.243,0.219,0.404,0.219c0.012,0,0.025-0.002,0.037-0.003
	c0.176-0.013,0.331-0.12,0.404-0.28l6.079-13.277l6.076,13.277c0.074,0.16,0.229,0.268,0.405,0.28
	c0.013,0.001,0.024,0.003,0.037,0.003c0.161,0,0.315-0.083,0.404-0.219l3.126-4.742l5.632,0.732
	c0.175,0.023,0.349-0.051,0.452-0.192C44.82,43.26,44.84,43.074,44.768,42.913"/>
<path fill="none" stroke="#9C9C9B" stroke-width="0.4" stroke-miterlimit="10" d="M38.456,41.862
	c-0.182-0.025-0.363,0.058-0.466,0.212l-2.812,4.266l-5.775-12.615c0.564-0.214,1.068-0.617,1.563-1.011
	c0.488-0.391,0.951-0.76,1.393-0.878c0.154-0.041,0.334-0.063,0.545-0.063c0.361,0,0.754,0.059,1.17,0.12
	c0.429,0.063,0.873,0.13,1.297,0.13c0.514,0,0.936-0.098,1.284-0.301c0.604-0.35,0.948-0.961,1.227-1.617l5.645,12.416
	L38.456,41.862z M28.583,32.915c-0.579,0-1.161-0.466-1.779-0.958c-0.545-0.437-1.11-0.887-1.747-1.059
	c-0.238-0.063-0.499-0.094-0.794-0.094c-0.433,0-0.88,0.066-1.312,0.131c-0.413,0.063-0.803,0.119-1.157,0.119
	c-0.338,0-0.6-0.055-0.798-0.17c-0.481-0.279-0.75-0.965-1.035-1.691c-0.26-0.66-0.528-1.343-1.006-1.821
	c-0.479-0.479-1.162-0.747-1.823-1.006c-0.727-0.286-1.412-0.555-1.69-1.035c-0.271-0.47-0.164-1.191-0.051-1.955
	c0.105-0.708,0.213-1.441,0.036-2.106c-0.17-0.638-0.62-1.203-1.056-1.749c-0.493-0.618-0.958-1.201-0.958-1.778
	c0-0.578,0.465-1.161,0.958-1.778c0.436-0.546,0.886-1.11,1.056-1.748c0.178-0.666,0.069-1.398-0.036-2.106
	c-0.113-0.764-0.22-1.486,0.051-1.955c0.279-0.481,0.964-0.751,1.69-1.036c0.661-0.26,1.344-0.527,1.823-1.006
	c0.478-0.478,0.746-1.162,1.006-1.822c0.285-0.726,0.554-1.412,1.035-1.69c0.198-0.115,0.459-0.17,0.798-0.17
	c0.354,0,0.744,0.058,1.157,0.119c0.431,0.065,0.878,0.13,1.312,0.13c0.296,0,0.557-0.03,0.794-0.094
	c0.637-0.17,1.202-0.621,1.747-1.057c0.618-0.493,1.201-0.958,1.779-0.958c0.577,0,1.16,0.465,1.777,0.958
	c0.546,0.436,1.111,0.887,1.748,1.057c0.238,0.063,0.5,0.094,0.795,0.094c0.434,0,0.879-0.065,1.311-0.13
	c0.414-0.061,0.803-0.119,1.156-0.119c0.34,0,0.602,0.055,0.801,0.17c0.48,0.278,0.749,0.964,1.035,1.69
	c0.26,0.66,0.526,1.344,1.006,1.822c0.479,0.479,1.16,0.747,1.821,1.006c0.728,0.285,1.412,0.555,1.69,1.036
	c0.271,0.469,0.165,1.19,0.052,1.955c-0.105,0.708-0.214,1.441-0.037,2.106c0.171,0.637,0.622,1.201,1.058,1.748
	c0.492,0.618,0.957,1.201,0.957,1.778c0,0.577-0.465,1.16-0.957,1.778c-0.436,0.546-0.887,1.11-1.058,1.749
	c-0.177,0.665-0.068,1.397,0.037,2.106c0.113,0.764,0.22,1.485-0.052,1.955c-0.278,0.48-0.963,0.749-1.69,1.035
	c-0.661,0.259-1.343,0.528-1.821,1.006c-0.479,0.479-0.746,1.161-1.006,1.821c-0.286,0.727-0.555,1.412-1.035,1.691
	c-0.199,0.115-0.461,0.17-0.801,0.17c-0.354,0-0.742-0.057-1.156-0.119c-0.432-0.064-0.877-0.131-1.311-0.131
	c-0.295,0-0.557,0.031-0.795,0.094c-0.637,0.172-1.202,0.622-1.748,1.059C29.743,32.449,29.16,32.915,28.583,32.915z M21.987,46.34
	l-2.812-4.266c-0.101-0.154-0.283-0.237-0.467-0.212l-5.065,0.659l5.661-12.367c0.276,0.637,0.617,1.227,1.207,1.568
	c0.35,0.203,0.769,0.301,1.283,0.301c0.426,0,0.87-0.066,1.299-0.13c0.416-0.062,0.809-0.12,1.17-0.12
	c0.21,0,0.39,0.021,0.544,0.063c0.442,0.118,0.904,0.487,1.394,0.878c0.494,0.394,0.999,0.797,1.563,1.011L21.987,46.34z
	 M44.768,42.913l-6.383-14.04c0.146-0.326,0.309-0.612,0.51-0.816c0.336-0.335,0.898-0.556,1.492-0.789
	c0.85-0.332,1.728-0.678,2.175-1.451c0.441-0.762,0.304-1.688,0.171-2.583c-0.096-0.64-0.184-1.243-0.059-1.714
	c0.117-0.441,0.486-0.904,0.879-1.394c0.574-0.72,1.17-1.466,1.17-2.382c0-0.917-0.596-1.661-1.17-2.383
	c-0.393-0.49-0.762-0.952-0.879-1.394c-0.125-0.472-0.037-1.076,0.059-1.715c0.133-0.895,0.271-1.819-0.171-2.581
	c-0.447-0.775-1.325-1.12-2.175-1.453c-0.594-0.234-1.156-0.454-1.492-0.79c-0.334-0.335-0.557-0.896-0.788-1.491
	c-0.334-0.849-0.679-1.726-1.453-2.175c-0.349-0.201-0.769-0.3-1.284-0.3c-0.424,0-0.868,0.066-1.297,0.129
	c-0.416,0.062-0.809,0.12-1.17,0.12c-0.211,0-0.391-0.02-0.545-0.061c-0.441-0.118-0.904-0.487-1.393-0.878
	c-0.723-0.575-1.466-1.169-2.383-1.169c-0.917,0-1.662,0.595-2.383,1.169c-0.49,0.392-0.952,0.76-1.394,0.878
	c-0.155,0.042-0.334,0.061-0.544,0.061c-0.361,0-0.754-0.058-1.17-0.12c-0.429-0.063-0.873-0.129-1.299-0.129
	c-0.514,0-0.933,0.099-1.283,0.3c-0.775,0.449-1.119,1.326-1.453,2.175c-0.233,0.595-0.454,1.156-0.789,1.491
	c-0.336,0.336-0.897,0.556-1.492,0.79c-0.849,0.333-1.727,0.678-2.174,1.453c-0.441,0.761-0.304,1.686-0.171,2.581
	c0.095,0.639,0.184,1.243,0.058,1.715c-0.118,0.442-0.487,0.903-0.877,1.394c-0.576,0.722-1.171,1.466-1.171,2.383
	s0.595,1.662,1.171,2.382c0.391,0.49,0.76,0.953,0.877,1.394c0.125,0.472,0.037,1.075-0.058,1.714
	c-0.133,0.895-0.27,1.82,0.171,2.583c0.447,0.773,1.325,1.117,2.174,1.451c0.595,0.233,1.156,0.454,1.491,0.789
	c0.214,0.215,0.381,0.52,0.535,0.865l-6.404,13.99c-0.073,0.16-0.054,0.348,0.05,0.489c0.104,0.142,0.278,0.217,0.453,0.192
	l5.632-0.732l3.125,4.742c0.09,0.136,0.243,0.219,0.404,0.219c0.012,0,0.025-0.002,0.037-0.003c0.176-0.013,0.331-0.12,0.404-0.28
	l6.079-13.277l6.076,13.277c0.074,0.16,0.229,0.268,0.405,0.28c0.013,0.001,0.024,0.003,0.037,0.003
	c0.161,0,0.315-0.083,0.404-0.219l3.126-4.742l5.632,0.732c0.175,0.023,0.349-0.051,0.452-0.192
	C44.82,43.26,44.84,43.074,44.768,42.913z"/>
<path fill="#E3E3E3" d="M34.823,14.277c-0.169-0.206-0.475-0.236-0.682-0.066l-7.872,6.484l-3.083-3.522
	c-0.176-0.201-0.482-0.221-0.684-0.045c-0.202,0.176-0.222,0.482-0.045,0.684l3.392,3.876c0.096,0.11,0.229,0.166,0.364,0.166
	c0.107,0,0.217-0.036,0.308-0.11l8.237-6.783C34.963,14.789,34.993,14.484,34.823,14.277"/>
<path fill="none" stroke="#D0D1D1" stroke-width="0.6" stroke-miterlimit="10" d="M34.823,14.277
	c-0.169-0.206-0.475-0.236-0.682-0.066l-7.872,6.484l-3.083-3.522c-0.176-0.201-0.482-0.221-0.684-0.045
	c-0.202,0.176-0.222,0.482-0.045,0.684l3.392,3.876c0.096,0.11,0.229,0.166,0.364,0.166c0.107,0,0.217-0.036,0.308-0.11l8.237-6.783
	C34.963,14.789,34.993,14.484,34.823,14.277z"/>
</svg>
