<?xml version="1.0" encoding="utf-8"?>
<!-- Generator: Adobe Illustrator 16.0.0, SVG Export Plug-In . SVG Version: 6.00 Build 0)  -->
<!DOCTYPE svg PUBLIC "-//W3C//DTD SVG 1.1//EN" "http://www.w3.org/Graphics/SVG/1.1/DTD/svg11.dtd">
<svg version="1.1" id="Vrstva_1" xmlns="http://www.w3.org/2000/svg" xmlns:xlink="http://www.w3.org/1999/xlink" x="0px" y="0px"
	 width="56.414px" height="49.038px" viewBox="0 0 56.414 49.038" enable-background="new 0 0 56.414 49.038" xml:space="preserve">
<path fill="#083A5A" d="M48.671,38.936c-1.061,0.717-5.99,1.889-8.359,2.188c-5.697,0.756-14.874-5.004-16.102-5.795l-4.61-0.268
	c-0.301-0.02-0.53-0.277-0.513-0.578c0.018-0.301,0.278-0.531,0.577-0.514l4.755,0.277c0.095,0.006,0.187,0.037,0.268,0.088
	c0.097,0.066,9.895,6.453,15.484,5.707c2.543-0.322,7.113-1.486,7.889-2.01c1.537-1.041,5.831-4.242,7.259-6.555
	c-0.022-0.07-0.262-0.313-0.84-0.471c-0.765-0.211-1.938-0.213-2.715,0.477c-0.042,0.039-4.455,3.963-5.368,4.297
	c-2.587,0.945-3.719,0.711-6.74,0.086c-0.445-0.092-0.935-0.193-1.533-0.314l-0.332-0.102c-0.26-0.088-1.584-0.555-2.127-1.064
	c-0.219-0.207-0.229-0.553-0.021-0.771s0.551-0.229,0.771-0.023c0.272,0.258,1.174,0.637,1.713,0.82l0.261,0.082
	c0.549,0.109,1.042,0.211,1.489,0.303c2.957,0.613,3.85,0.797,6.143-0.041c0.543-0.217,4.088-3.23,5.013-4.082
	c0.706-0.627,1.638-0.879,2.523-0.879c0.985,0,1.913,0.313,2.417,0.773c0.49,0.449,0.574,1.055,0.242,1.5
	C54.417,35.029,48.729,38.896,48.671,38.936"/>
<path fill="#083A5A" d="M38.554,35.605l-0.129-0.012c-0.301-0.029-0.521-0.293-0.494-0.594c0.028-0.301,0.297-0.521,0.595-0.492
	l0.131,0.012c1.306,0.123,4.366,0.412,4.629-1.234c0.206-0.93-2.44-1.703-4.567-2.326c-0.771-0.227-1.568-0.459-2.289-0.705
	c-2.055-0.584-2.59-1.117-3.561-2.086c-0.551-0.549-1.236-1.232-2.451-2.189c-4.364-3.266-8.499,1.379-8.673,1.58
	c-0.113,0.131-0.283,0.201-0.454,0.186l-1.533-0.121c-0.301-0.023-0.526-0.285-0.502-0.586c0.024-0.301,0.29-0.527,0.587-0.502
	l1.274,0.1c0.684-0.695,3.089-2.899,6.07-2.899c1.228,0,2.553,0.373,3.896,1.378c1.276,1.002,2.017,1.742,2.558,2.281
	c0.924,0.922,1.306,1.303,3.115,1.818c0.723,0.246,1.51,0.477,2.268,0.699c2.961,0.865,5.757,1.684,5.336,3.576
	C43.942,36.115,40.167,35.76,38.554,35.605"/>
<path fill="#083A5A" d="M18.708,25.584l-2.943,0.008l0.021,9.828l2.942-0.006L18.708,25.584z M19.276,36.504l-4.035,0.01h-0.001
	c-0.301,0-0.545-0.244-0.546-0.545l-0.023-10.92c0-0.146,0.056-0.284,0.159-0.388c0.102-0.102,0.241-0.16,0.385-0.16l4.035-0.009
	h0.001c0.301,0,0.545,0.244,0.546,0.545l0.024,10.92c0,0.146-0.057,0.285-0.16,0.387C19.56,36.447,19.42,36.504,19.276,36.504"/>
<path fill="#083A5A" d="M14.587,24.27L1.093,24.3l0.026,12.577l13.496-0.029L14.587,24.27z M15.164,37.938L0.576,37.969
	c-0.145,0-0.284-0.057-0.386-0.158c-0.103-0.102-0.161-0.242-0.161-0.387L0,23.756c-0.001-0.302,0.243-0.547,0.544-0.547
	l14.587-0.032h0.001c0.301,0,0.545,0.243,0.546,0.545l0.031,13.668c0,0.146-0.057,0.285-0.16,0.387
	C15.448,37.881,15.308,37.938,15.164,37.938"/>
<path fill="#F8972B" d="M44.095,27.1c-2.207,0-4.004-1.795-4.004-4.003s1.797-4.004,4.004-4.004s4.004,1.796,4.004,4.004
	S46.302,27.1,44.095,27.1 M44.095,18C41.286,18,39,20.287,39,23.096c0,2.81,2.286,5.095,5.096,5.095
	c2.811,0,5.096-2.285,5.096-5.095C49.191,20.287,46.906,18,44.095,18"/>
<path fill="#F8972B" d="M33.976,19.873c-1.766,0-3.203-1.438-3.203-3.203c0-1.766,1.438-3.203,3.203-3.203s3.203,1.437,3.203,3.203
	C37.179,18.435,35.742,19.873,33.976,19.873 M33.976,12.592c-2.248,0-4.076,1.829-4.076,4.077s1.828,4.077,4.076,4.077
	s4.077-1.829,4.077-4.077S36.224,12.592,33.976,12.592"/>
<path fill="#F8972B" d="M42.746,13.368c-1.061,0-1.922-0.862-1.922-1.922c0-1.06,0.861-1.922,1.922-1.922s1.922,0.862,1.922,1.922
	C44.667,12.506,43.806,13.368,42.746,13.368 M42.746,9c-1.35,0-2.446,1.097-2.446,2.446c0,1.35,1.097,2.446,2.446,2.446
	s2.445-1.097,2.445-2.446C45.191,10.097,44.095,9,42.746,9"/>
</svg>
