<?xml version="1.0" encoding="utf-8"?>
<!-- Generator: Adobe Illustrator 16.0.0, SVG Export Plug-In . SVG Version: 6.00 Build 0)  -->
<!DOCTYPE svg PUBLIC "-//W3C//DTD SVG 1.1//EN" "http://www.w3.org/Graphics/SVG/1.1/DTD/svg11.dtd">
<svg version="1.1" id="Vrstva_1" xmlns="http://www.w3.org/2000/svg" xmlns:xlink="http://www.w3.org/1999/xlink" x="0px" y="0px"
	 width="56.414px" height="49.038px" viewBox="0 0 56.414 49.038" enable-background="new 0 0 56.414 49.038" xml:space="preserve">
<path fill="#A9A8A8" d="M22.134,5.604c-4.274,0-7.752,3.477-7.752,7.751v6.307c0,4.274,3.478,7.752,7.752,7.752h0.467
	c4.274,0,7.751-3.478,7.751-7.752v-6.307c0-4.274-3.478-7.751-7.751-7.751H22.134z M22.601,28.729h-0.467
	c-4.999,0-9.066-4.067-9.066-9.066v-6.307c0-4.998,4.067-9.065,9.066-9.065h0.467c5,0,9.066,4.067,9.066,9.065v6.307
	C31.667,24.661,27.6,28.729,22.601,28.729"/>
<path fill="#A9A8A8" d="M40.352,44.805H4.382c-0.363,0-0.657-0.293-0.657-0.656v-9.109c0-4.999,4.066-9.065,9.065-9.065h4.438
	c0.363,0,0.657,0.294,0.657,0.657c0,0.362-0.294,0.656-0.657,0.656H12.79c-4.274,0-7.751,3.478-7.751,7.752v8.452h34.657v-8.452
	c0-4.274-3.478-7.752-7.752-7.752h-4.75c-0.363,0-0.656-0.294-0.656-0.656c0-0.363,0.293-0.657,0.656-0.657h4.75
	c4.998,0,9.065,4.066,9.065,9.065v9.109C41.009,44.512,40.715,44.805,40.352,44.805"/>
<path fill="#A9A8A8" d="M18.405,44.572c-0.046,0-0.093-0.005-0.14-0.016c-0.354-0.076-0.58-0.426-0.503-0.78l2.245-10.388
	l-1.666-1.721c-0.194-0.199-0.24-0.502-0.114-0.752l1.364-2.712c0.163-0.324,0.557-0.455,0.882-0.292
	c0.324,0.163,0.455,0.559,0.292,0.882L19.61,31.09l1.585,1.639c0.153,0.156,0.217,0.381,0.17,0.596l-2.318,10.73
	C18.98,44.362,18.708,44.572,18.405,44.572"/>
<path fill="#A9A8A8" d="M26.329,44.572c-0.303,0-0.575-0.21-0.642-0.518l-2.319-10.73c-0.046-0.215,0.018-0.439,0.17-0.596
	l1.586-1.639l-1.155-2.296c-0.163-0.323-0.032-0.719,0.292-0.882c0.325-0.163,0.719-0.032,0.882,0.292l1.364,2.712
	c0.127,0.25,0.08,0.553-0.113,0.752l-1.667,1.721l2.245,10.388c0.078,0.354-0.148,0.704-0.502,0.78
	C26.422,44.567,26.375,44.572,26.329,44.572"/>
<path fill="#A9A8A8" d="M30.18,14.356c-0.084,0-0.17-0.017-0.254-0.052c-1.977-0.832-3.008-2.023-3.49-2.76
	c-1.8,0.98-7.327,3.593-12.861,2.21c-0.352-0.088-0.566-0.445-0.478-0.797c0.088-0.353,0.445-0.566,0.797-0.479
	c6.048,1.514,12.384-2.355,12.446-2.395c0.166-0.104,0.371-0.126,0.557-0.065c0.186,0.063,0.334,0.204,0.404,0.387
	c0.024,0.063,0.693,1.658,3.135,2.687c0.335,0.141,0.492,0.526,0.352,0.861C30.68,14.206,30.437,14.356,30.18,14.356"/>
<path fill="#E3E3E3" d="M43.504,8.713c-4.486,0-8.136,3.65-8.136,8.137c0,4.485,3.649,8.136,8.136,8.136s8.137-3.65,8.137-8.136
	C51.641,12.363,47.991,8.713,43.504,8.713 M43.504,26.036c-5.066,0-9.188-4.121-9.188-9.187c0-5.066,4.121-9.188,9.188-9.188
	s9.188,4.121,9.188,9.188C52.692,21.915,48.571,26.036,43.504,26.036"/>
<path fill="#E3E3E3" d="M43.032,22.667v-1.415c-0.813-0.014-1.652-0.267-2.143-0.617l0.334-0.938
	c0.506,0.336,1.234,0.604,2.019,0.604c0.995,0,1.668-0.576,1.668-1.374c0-0.771-0.547-1.247-1.584-1.667
	c-1.429-0.562-2.312-1.206-2.312-2.424c0-1.163,0.826-2.045,2.117-2.255v-1.416h0.867v1.36c0.84,0.027,1.416,0.252,1.821,0.489
	l-0.351,0.926c-0.295-0.168-0.867-0.477-1.764-0.477c-1.08,0-1.486,0.644-1.486,1.205c0,0.729,0.519,1.093,1.738,1.598
	c1.442,0.587,2.17,1.316,2.17,2.563c0,1.107-0.77,2.143-2.213,2.382v1.457H43.032z"/>
</svg>
