<?xml version="1.0" encoding="utf-8"?>
<!-- Generator: Adobe Illustrator 16.0.0, SVG Export Plug-In . SVG Version: 6.00 Build 0)  -->
<!DOCTYPE svg PUBLIC "-//W3C//DTD SVG 1.1//EN" "http://www.w3.org/Graphics/SVG/1.1/DTD/svg11.dtd">
<svg version="1.1" id="Vrstva_1" xmlns="http://www.w3.org/2000/svg" xmlns:xlink="http://www.w3.org/1999/xlink" x="0px" y="0px"
	 width="56.414px" height="49.038px" viewBox="0 0 56.414 49.038" enable-background="new 0 0 56.414 49.038" xml:space="preserve">
<path fill="#9C9C9B" d="M48.67,38.935c-1.061,0.718-5.99,1.89-8.359,2.189c-5.697,0.755-14.873-5.005-16.101-5.795l-4.61-0.27
	c-0.301-0.018-0.53-0.275-0.513-0.577c0.018-0.302,0.278-0.531,0.577-0.514l4.755,0.278c0.095,0.005,0.187,0.036,0.268,0.088
	c0.097,0.065,9.896,6.453,15.485,5.706c2.543-0.322,7.113-1.487,7.887-2.01c1.537-1.04,5.832-4.241,7.26-6.556
	c-0.021-0.069-0.262-0.311-0.84-0.47c-0.766-0.211-1.938-0.212-2.715,0.477c-0.043,0.039-4.455,3.964-5.369,4.297
	c-2.586,0.945-3.717,0.712-6.74,0.087c-0.445-0.093-0.934-0.194-1.533-0.315l-0.33-0.101c-0.262-0.089-1.586-0.556-2.127-1.065
	c-0.221-0.207-0.23-0.552-0.023-0.771c0.207-0.219,0.551-0.229,0.773-0.023c0.271,0.257,1.174,0.637,1.711,0.82l0.262,0.083
	c0.549,0.108,1.041,0.211,1.49,0.303c2.957,0.612,3.848,0.796,6.141-0.042c0.543-0.217,4.088-3.23,5.014-4.082
	c0.705-0.626,1.637-0.879,2.523-0.879c0.984,0,1.914,0.313,2.416,0.773c0.492,0.449,0.576,1.056,0.242,1.5
	C54.417,35.029,48.729,38.896,48.67,38.935"/>
<path fill="#9C9C9B" d="M38.553,35.606l-0.129-0.013c-0.301-0.028-0.521-0.293-0.492-0.595c0.027-0.3,0.295-0.52,0.594-0.491
	l0.131,0.012c1.307,0.124,4.367,0.413,4.629-1.235c0.205-0.928-2.441-1.702-4.568-2.325c-0.771-0.226-1.568-0.459-2.287-0.705
	c-2.057-0.584-2.59-1.117-3.563-2.086c-0.551-0.55-1.234-1.232-2.451-2.188c-4.363-3.267-8.498,1.379-8.672,1.579
	c-0.113,0.131-0.283,0.201-0.454,0.186l-1.533-0.121c-0.301-0.022-0.526-0.285-0.502-0.587c0.024-0.3,0.29-0.526,0.587-0.501
	l1.274,0.1c0.684-0.695,3.089-2.899,6.071-2.899c1.228,0,2.551,0.373,3.895,1.378c1.275,1.003,2.018,1.742,2.557,2.282
	c0.924,0.921,1.307,1.303,3.115,1.817c0.725,0.246,1.51,0.477,2.27,0.698c2.959,0.866,5.756,1.685,5.334,3.577
	C43.942,36.116,40.167,35.76,38.553,35.606"/>
<path fill="#9C9C9B" d="M18.708,25.585l-2.943,0.007l0.021,9.829l2.942-0.007L18.708,25.585z M19.276,36.505l-4.035,0.009h-0.001
	c-0.301,0-0.545-0.244-0.546-0.545l-0.023-10.921c0-0.145,0.056-0.284,0.159-0.387c0.102-0.102,0.241-0.16,0.385-0.16l4.035-0.009
	h0.001c0.301,0,0.545,0.244,0.546,0.545l0.024,10.921c0,0.146-0.057,0.284-0.16,0.386C19.56,36.447,19.42,36.505,19.276,36.505"/>
<path fill="#9C9C9B" d="M14.587,24.271L1.093,24.3l0.026,12.577l13.496-0.029L14.587,24.271z M15.164,37.938l-14.588,0.03
	c-0.145,0-0.284-0.057-0.386-0.158c-0.103-0.103-0.161-0.241-0.161-0.387L0,23.756c-0.001-0.302,0.243-0.547,0.544-0.547
	l14.587-0.032h0.001c0.301,0,0.545,0.243,0.546,0.545l0.031,13.669c0,0.145-0.057,0.284-0.16,0.386
	C15.448,37.881,15.308,37.938,15.164,37.938"/>
<path fill="#D0D1D1" d="M44.096,27.1c-2.207,0-4.006-1.795-4.006-4.003s1.799-4.004,4.006-4.004c2.205,0,4.004,1.796,4.004,4.004
	S46.301,27.1,44.096,27.1 M44.096,18c-2.811,0-5.098,2.286-5.098,5.096s2.287,5.096,5.098,5.096c2.809,0,5.096-2.286,5.096-5.096
	S46.905,18,44.096,18"/>
<path fill="#D0D1D1" d="M33.975,19.872c-1.766,0-3.201-1.437-3.201-3.203c0-1.766,1.436-3.203,3.201-3.203
	c1.768,0,3.203,1.438,3.203,3.203C37.178,18.435,35.743,19.872,33.975,19.872 M33.975,12.592c-2.246,0-4.076,1.829-4.076,4.077
	s1.83,4.077,4.076,4.077c2.248,0,4.078-1.829,4.078-4.077S36.223,12.592,33.975,12.592"/>
<path fill="#D0D1D1" d="M42.745,13.368c-1.059,0-1.922-0.862-1.922-1.922s0.863-1.922,1.922-1.922c1.061,0,1.922,0.862,1.922,1.922
	S43.805,13.368,42.745,13.368 M42.745,9c-1.348,0-2.445,1.097-2.445,2.446s1.098,2.446,2.445,2.446c1.35,0,2.447-1.097,2.447-2.446
	S44.094,9,42.745,9"/>
</svg>
