<?xml version="1.0" encoding="utf-8"?>
<!-- Generator: Adobe Illustrator 16.0.0, SVG Export Plug-In . SVG Version: 6.00 Build 0)  -->
<!DOCTYPE svg PUBLIC "-//W3C//DTD SVG 1.1//EN" "http://www.w3.org/Graphics/SVG/1.1/DTD/svg11.dtd">
<svg version="1.1" id="Vrstva_1" xmlns="http://www.w3.org/2000/svg" xmlns:xlink="http://www.w3.org/1999/xlink" x="0px" y="0px"
	 width="56.414px" height="49.038px" viewBox="0 0 56.414 49.038" enable-background="new 0 0 56.414 49.038" xml:space="preserve">
<path fill="#E3E3E3" d="M31.211,18.155c-0.332,0-0.613,0.365-0.613,0.797v5.118c0,0.432,0.281,0.797,0.613,0.797H42.79
	c0.332,0,0.613-0.365,0.613-0.797v-5.118c0-0.432-0.281-0.797-0.613-0.797h-1.086v4.496h-3.762v-4.496h-1.883v4.496h-3.762v-4.496
	H31.211z M42.79,26.063H31.211c-0.998,0-1.809-0.894-1.809-1.992v-5.118c0-1.099,0.811-1.993,1.809-1.993h2.281v4.497h1.369v-4.497
	h4.277v4.497h1.369v-4.497h2.281c0.998,0,1.811,0.894,1.811,1.993v5.118C44.6,25.169,43.788,26.063,42.79,26.063"/>
<path fill="#E3E3E3" d="M28.788,40.751c-0.043,0-0.088-0.005-0.133-0.015c-0.322-0.073-0.523-0.395-0.451-0.717L31.5,25.523
	c0.074-0.322,0.396-0.523,0.717-0.45c0.322,0.074,0.523,0.394,0.449,0.716l-3.295,14.496C29.307,40.563,29.061,40.751,28.788,40.751
	"/>
<path fill="#E3E3E3" d="M45.903,47.246H28.098c-0.33,0-0.598-0.268-0.598-0.598s0.268-0.598,0.598-0.598h17.205v-3.263
	l-3.969-16.862c-0.076-0.32,0.123-0.643,0.445-0.719s0.643,0.124,0.719,0.445l3.986,16.93c0.01,0.045,0.016,0.091,0.016,0.137v3.93
	C46.5,46.979,46.233,47.246,45.903,47.246"/>
<path fill="#E3E3E3" d="M45.631,43.326H29.284c-0.33,0-0.598-0.268-0.598-0.598s0.268-0.598,0.598-0.598h16.348
	c0.33,0,0.598,0.268,0.598,0.598S45.961,43.326,45.631,43.326"/>
<path fill="#E3E3E3" d="M42.708,31.48h-4.182c-0.33,0-0.598-0.268-0.598-0.598s0.268-0.598,0.598-0.598h4.182
	c0.33,0,0.598,0.268,0.598,0.598S43.038,31.48,42.708,31.48"/>
<path fill="#E3E3E3" d="M43.637,34.566h-5.111c-0.33,0-0.598-0.269-0.598-0.599s0.268-0.598,0.598-0.598h5.111
	c0.33,0,0.598,0.268,0.598,0.598S43.967,34.566,43.637,34.566"/>
<path fill="#E3E3E3" d="M44.301,37.651h-5.775c-0.33,0-0.598-0.269-0.598-0.599s0.268-0.598,0.598-0.598h5.775
	c0.33,0,0.6,0.268,0.6,0.598S44.631,37.651,44.301,37.651"/>
<path fill="#E3E3E3" d="M45.1,40.736h-6.574c-0.33,0-0.598-0.268-0.598-0.598s0.268-0.598,0.598-0.598H45.1
	c0.328,0,0.598,0.268,0.598,0.598S45.428,40.736,45.1,40.736"/>
<path fill="#E3E3E3" d="M42.309,28.396h-3.783c-0.33,0-0.598-0.269-0.598-0.599s0.268-0.598,0.598-0.598h3.783
	c0.33,0,0.598,0.268,0.598,0.598S42.639,28.396,42.309,28.396"/>
<path fill="#E3E3E3" d="M42.708,31.48h-4.182c-0.33,0-0.598-0.268-0.598-0.598s0.268-0.598,0.598-0.598h4.182
	c0.33,0,0.598,0.268,0.598,0.598S43.038,31.48,42.708,31.48"/>
<path fill="#A9A8A8" d="M13.688,11.33c-0.244,0-0.479-0.136-0.592-0.37c-0.158-0.326-0.022-0.719,0.304-0.878l6.894-3.352
	l6.895,3.352c0.326,0.158,0.461,0.551,0.303,0.878c-0.158,0.326-0.553,0.462-0.877,0.303l-6.321-3.072l-6.318,3.073
	C13.881,11.31,13.783,11.33,13.688,11.33"/>
<path fill="#A9A8A8" d="M11.643,45.933h17.301v-3.985l-6.047-18.735c-0.063-0.2-0.028-0.419,0.096-0.589
	c0.123-0.169,0.32-0.27,0.531-0.27h1.323l-1.338-1.365c-0.168-0.172-0.229-0.421-0.159-0.651l2.629-8.642h-11.37l2.629,8.642
	c0.069,0.23,0.009,0.479-0.159,0.651l-1.338,1.365h1.324c0.21,0,0.407,0.101,0.53,0.27c0.124,0.17,0.159,0.389,0.095,0.589
	l-6.047,18.735V45.933z M29.602,47.246H10.986c-0.363,0-0.657-0.294-0.657-0.656v-4.745c0-0.068,0.01-0.138,0.032-0.202
	l5.801-17.975h-1.985c-0.265,0-0.503-0.159-0.605-0.403c-0.103-0.243-0.05-0.525,0.136-0.714l2.159-2.204l-2.774-9.117
	c-0.06-0.199-0.022-0.415,0.102-0.582c0.124-0.168,0.319-0.266,0.527-0.266h13.145c0.209,0,0.404,0.098,0.527,0.266
	c0.125,0.167,0.162,0.383,0.102,0.582l-2.775,9.117l2.117,2.16c0.145,0.121,0.234,0.302,0.234,0.504
	c0,0.363-0.293,0.657-0.656,0.657h-0.004h-1.986l5.802,17.975c0.02,0.064,0.031,0.134,0.031,0.202v4.745
	C30.258,46.952,29.963,47.246,29.602,47.246"/>
<path fill="#A9A8A8" d="M20.293,3.228c-0.805,0-1.46,0.655-1.46,1.46c0,0.805,0.655,1.46,1.46,1.46c0.806,0,1.461-0.655,1.461-1.46
	C21.754,3.882,21.099,3.228,20.293,3.228 M20.293,7.461c-1.529,0-2.773-1.244-2.773-2.773c0-1.53,1.244-2.774,2.773-2.774
	c1.53,0,2.774,1.244,2.774,2.774C23.067,6.217,21.823,7.461,20.293,7.461"/>
<path fill="#A9A8A8" d="M29.461,42.939H11.126c-0.363,0-0.657-0.294-0.657-0.657c0-0.362,0.294-0.657,0.657-0.657h18.335
	c0.363,0,0.656,0.295,0.656,0.657C30.118,42.646,29.825,42.939,29.461,42.939"/>
<path fill="#A9A8A8" d="M23.682,21.186h-6.775c-0.363,0-0.657-0.294-0.657-0.657c0-0.363,0.294-0.657,0.657-0.657h6.775
	c0.362,0,0.656,0.294,0.656,0.657C24.338,20.892,24.044,21.186,23.682,21.186"/>
<path fill="#A9A8A8" d="M23.794,23.667h-7.001c-0.363,0-0.657-0.294-0.657-0.657s0.294-0.657,0.657-0.657h7.001
	c0.362,0,0.657,0.294,0.657,0.657S24.156,23.667,23.794,23.667"/>
<path fill="#A9A8A8" d="M24.939,29.922h-4.303c-0.363,0-0.657-0.294-0.657-0.657c0-0.362,0.294-0.657,0.657-0.657h4.303
	c0.363,0,0.657,0.295,0.657,0.657C25.597,29.628,25.303,29.922,24.939,29.922"/>
<path fill="#A9A8A8" d="M26.545,33.313h-5.909c-0.363,0-0.657-0.295-0.657-0.657c0-0.363,0.294-0.657,0.657-0.657h5.909
	c0.363,0,0.658,0.294,0.658,0.657C27.204,33.018,26.909,33.313,26.545,33.313"/>
<path fill="#A9A8A8" d="M27.129,36.702h-6.493c-0.363,0-0.657-0.294-0.657-0.657c0-0.362,0.294-0.656,0.657-0.656h6.493
	c0.363,0,0.656,0.294,0.656,0.656C27.786,36.408,27.493,36.702,27.129,36.702"/>
<path fill="#A9A8A8" d="M28.745,40.093h-8.109c-0.362,0-0.657-0.294-0.657-0.657c0-0.362,0.295-0.656,0.657-0.656h8.109
	c0.363,0,0.658,0.294,0.658,0.656C29.403,39.799,29.108,40.093,28.745,40.093"/>
<path fill="#A9A8A8" d="M24.063,26.531h-3.427c-0.363,0-0.657-0.294-0.657-0.657c0-0.362,0.294-0.657,0.657-0.657h3.427
	c0.363,0,0.657,0.295,0.657,0.657C24.721,26.237,24.427,26.531,24.063,26.531"/>
<path fill="#A9A8A8" d="M24.939,29.922h-4.303c-0.363,0-0.657-0.294-0.657-0.657c0-0.362,0.294-0.657,0.657-0.657h4.303
	c0.363,0,0.657,0.295,0.657,0.657C25.597,29.628,25.303,29.922,24.939,29.922"/>
<path fill="#F8972B" d="M31.21,18.155c-0.332,0-0.613,0.365-0.613,0.797v5.118c0,0.432,0.281,0.797,0.613,0.797h11.578
	c0.333,0,0.614-0.365,0.614-0.797v-5.118c0-0.432-0.281-0.797-0.614-0.797h-1.085v4.496h-3.762v-4.496h-1.884v4.496h-3.762v-4.496
	H31.21z M42.789,26.063H31.21c-0.998,0-1.809-0.894-1.809-1.992v-5.118c0-1.099,0.811-1.993,1.809-1.993h2.281v4.497h1.37v-4.497
	h4.276v4.497h1.37v-4.497h2.28c0.998,0,1.811,0.894,1.811,1.993v5.118C44.599,25.169,43.787,26.063,42.789,26.063"/>
<path fill="#F8972B" d="M28.788,40.751c-0.044,0-0.089-0.005-0.133-0.015c-0.322-0.073-0.524-0.395-0.451-0.717L31.5,25.523
	c0.074-0.322,0.396-0.523,0.717-0.45c0.321,0.074,0.522,0.394,0.449,0.716l-3.296,14.496C29.307,40.563,29.061,40.751,28.788,40.751
	"/>
<path fill="#F8972B" d="M45.902,47.246H28.098c-0.331,0-0.598-0.268-0.598-0.598s0.267-0.598,0.598-0.598h17.205v-3.263
	l-3.97-16.862c-0.075-0.32,0.124-0.643,0.445-0.719c0.322-0.076,0.644,0.124,0.719,0.445l3.986,16.93
	c0.011,0.045,0.016,0.091,0.016,0.137v3.93C46.5,46.979,46.232,47.246,45.902,47.246"/>
<path fill="#F8972B" d="M45.63,43.326H29.284c-0.33,0-0.598-0.268-0.598-0.598s0.268-0.598,0.598-0.598H45.63
	c0.33,0,0.598,0.268,0.598,0.598S45.96,43.326,45.63,43.326"/>
<path fill="#F8972B" d="M42.708,31.48h-4.183c-0.33,0-0.598-0.268-0.598-0.598s0.268-0.598,0.598-0.598h4.183
	c0.329,0,0.598,0.268,0.598,0.598S43.037,31.48,42.708,31.48"/>
<path fill="#F8972B" d="M43.637,34.566h-5.112c-0.33,0-0.598-0.269-0.598-0.599s0.268-0.598,0.598-0.598h5.112
	c0.33,0,0.598,0.268,0.598,0.598S43.967,34.566,43.637,34.566"/>
<path fill="#F8972B" d="M44.301,37.651h-5.775c-0.33,0-0.599-0.269-0.599-0.599s0.269-0.598,0.599-0.598h5.775
	c0.33,0,0.599,0.268,0.599,0.598S44.631,37.651,44.301,37.651"/>
<path fill="#F8972B" d="M45.099,40.736h-6.573c-0.331,0-0.599-0.268-0.599-0.598s0.268-0.598,0.599-0.598h6.573
	c0.329,0,0.598,0.268,0.598,0.598S45.428,40.736,45.099,40.736"/>
<path fill="#F8972B" d="M42.308,28.396h-3.782c-0.331,0-0.599-0.269-0.599-0.599s0.268-0.598,0.599-0.598h3.782
	c0.33,0,0.599,0.268,0.599,0.598S42.638,28.396,42.308,28.396"/>
<path fill="#F8972B" d="M42.708,31.48h-4.183c-0.33,0-0.598-0.268-0.598-0.598s0.268-0.598,0.598-0.598h4.183
	c0.329,0,0.598,0.268,0.598,0.598S43.037,31.48,42.708,31.48"/>
<path fill="#083A5A" d="M13.687,11.33c-0.244,0-0.479-0.136-0.592-0.37c-0.158-0.326-0.022-0.719,0.304-0.878l6.894-3.352
	l6.895,3.352c0.326,0.158,0.462,0.551,0.304,0.878c-0.159,0.326-0.553,0.462-0.878,0.303l-6.32-3.072l-6.318,3.073
	C13.88,11.31,13.783,11.33,13.687,11.33"/>
<path fill="#083A5A" d="M11.642,45.933h17.302v-3.985l-6.048-18.735c-0.063-0.2-0.028-0.419,0.096-0.589
	c0.123-0.169,0.32-0.27,0.531-0.27h1.323l-1.338-1.365c-0.168-0.172-0.229-0.421-0.159-0.651l2.629-8.642h-11.37l2.629,8.642
	c0.069,0.23,0.009,0.479-0.159,0.651l-1.338,1.365h1.324c0.21,0,0.407,0.101,0.53,0.27c0.124,0.17,0.159,0.389,0.095,0.589
	l-6.047,18.735V45.933z M29.601,47.246H10.986c-0.363,0-0.657-0.294-0.657-0.656v-4.745c0-0.068,0.01-0.138,0.032-0.202
	l5.801-17.975h-1.985c-0.265,0-0.503-0.159-0.605-0.403c-0.103-0.243-0.05-0.525,0.136-0.714l2.159-2.204l-2.774-9.117
	c-0.06-0.199-0.022-0.415,0.102-0.582c0.124-0.168,0.319-0.266,0.527-0.266h13.146c0.208,0,0.403,0.098,0.526,0.266
	c0.125,0.167,0.162,0.383,0.102,0.582l-2.774,9.117l2.116,2.16c0.145,0.121,0.235,0.302,0.235,0.504
	c0,0.363-0.294,0.657-0.657,0.657H26.41h-1.985l5.802,17.975c0.021,0.064,0.031,0.134,0.031,0.202v4.745
	C30.257,46.952,29.963,47.246,29.601,47.246"/>
<path fill="#083A5A" d="M20.292,3.228c-0.805,0-1.46,0.655-1.46,1.46c0,0.805,0.655,1.46,1.46,1.46c0.806,0,1.461-0.655,1.461-1.46
	C21.753,3.882,21.098,3.228,20.292,3.228 M20.292,7.461c-1.529,0-2.773-1.244-2.773-2.773c0-1.53,1.244-2.774,2.773-2.774
	c1.53,0,2.774,1.244,2.774,2.774C23.067,6.217,21.823,7.461,20.292,7.461"/>
<path fill="#083A5A" d="M29.46,42.939H11.125c-0.363,0-0.657-0.294-0.657-0.657c0-0.362,0.294-0.657,0.657-0.657H29.46
	c0.363,0,0.657,0.295,0.657,0.657C30.118,42.646,29.824,42.939,29.46,42.939"/>
<path fill="#083A5A" d="M23.681,21.186h-6.775c-0.363,0-0.657-0.294-0.657-0.657c0-0.363,0.294-0.657,0.657-0.657h6.775
	c0.362,0,0.656,0.294,0.656,0.657C24.337,20.892,24.043,21.186,23.681,21.186"/>
<path fill="#083A5A" d="M23.793,23.667h-7.001c-0.363,0-0.657-0.294-0.657-0.657s0.294-0.657,0.657-0.657h7.001
	c0.362,0,0.657,0.294,0.657,0.657S24.156,23.667,23.793,23.667"/>
<path fill="#083A5A" d="M24.939,29.922h-4.303c-0.363,0-0.657-0.294-0.657-0.657c0-0.362,0.294-0.657,0.657-0.657h4.303
	c0.363,0,0.657,0.295,0.657,0.657C25.596,29.628,25.302,29.922,24.939,29.922"/>
<path fill="#083A5A" d="M26.545,33.313h-5.909c-0.363,0-0.657-0.295-0.657-0.657c0-0.363,0.294-0.657,0.657-0.657h5.909
	c0.362,0,0.657,0.294,0.657,0.657C27.203,33.018,26.908,33.313,26.545,33.313"/>
<path fill="#083A5A" d="M27.128,36.702h-6.492c-0.363,0-0.657-0.294-0.657-0.657c0-0.362,0.294-0.656,0.657-0.656h6.492
	c0.363,0,0.657,0.294,0.657,0.656C27.786,36.408,27.492,36.702,27.128,36.702"/>
<path fill="#083A5A" d="M28.745,40.093h-8.109c-0.362,0-0.657-0.294-0.657-0.657c0-0.362,0.295-0.656,0.657-0.656h8.109
	c0.362,0,0.657,0.294,0.657,0.656C29.402,39.799,29.107,40.093,28.745,40.093"/>
<path fill="#083A5A" d="M24.063,26.531h-3.427c-0.363,0-0.657-0.294-0.657-0.657c0-0.362,0.294-0.657,0.657-0.657h3.427
	c0.363,0,0.657,0.294,0.657,0.657C24.72,26.237,24.426,26.531,24.063,26.531"/>
<path fill="#083A5A" d="M24.939,29.922h-4.303c-0.363,0-0.657-0.294-0.657-0.657c0-0.362,0.294-0.657,0.657-0.657h4.303
	c0.363,0,0.657,0.295,0.657,0.657C25.596,29.628,25.302,29.922,24.939,29.922"/>
</svg>
