<?xml version="1.0" encoding="utf-8"?>
<!-- Generator: Adobe Illustrator 16.0.0, SVG Export Plug-In . SVG Version: 6.00 Build 0)  -->
<!DOCTYPE svg PUBLIC "-//W3C//DTD SVG 1.1//EN" "http://www.w3.org/Graphics/SVG/1.1/DTD/svg11.dtd">
<svg version="1.1" id="Vrstva_1" xmlns="http://www.w3.org/2000/svg" xmlns:xlink="http://www.w3.org/1999/xlink" x="0px" y="0px"
	 width="22px" height="14.667px" viewBox="0 0 22 14.667" enable-background="new 0 0 22 14.667" xml:space="preserve">
<path fill="#083A5A" d="M14.605,7.334l6.58-5.806V13.14L14.605,7.334z M8.011,7.878l1.557,1.373
	c0.395,0.349,0.914,0.523,1.433,0.523c0.518,0,1.036-0.175,1.431-0.523l1.559-1.373l6.771,5.975H1.239L8.011,7.878z M7.395,7.333
	l-6.58,5.807V1.527L7.395,7.333z M11.893,8.64c-0.484,0.429-1.302,0.428-1.785,0L1.24,0.815h19.521L11.893,8.64z M20.778,0H1.222
	C0.548,0,0,0.548,0,1.222v12.222c0,0.675,0.548,1.223,1.222,1.223h19.556c0.674,0,1.222-0.548,1.222-1.223V1.222
	C22,0.548,21.452,0,20.778,0"/>
</svg>
