<?xml version="1.0" encoding="utf-8"?>
<!-- Generator: Adobe Illustrator 16.0.0, SVG Export Plug-In . SVG Version: 6.00 Build 0)  -->
<!DOCTYPE svg PUBLIC "-//W3C//DTD SVG 1.1//EN" "http://www.w3.org/Graphics/SVG/1.1/DTD/svg11.dtd">
<svg version="1.1" id="Vrstva_1" xmlns="http://www.w3.org/2000/svg" xmlns:xlink="http://www.w3.org/1999/xlink" x="0px" y="0px"
	 width="18.271px" height="18.854px" viewBox="0 0 18.271 18.854" enable-background="new 0 0 18.271 18.854" xml:space="preserve">
<path fill="#A8A8A8" d="M13.541,7.912c0,3.066-2.55,5.562-5.685,5.562S2.171,10.98,2.171,7.912c0-3.066,2.551-5.562,5.686-5.562
	S13.541,4.846,13.541,7.912 M14.002,12.118c0.855-1.193,1.368-2.641,1.368-4.206c0-4.054-3.37-7.351-7.514-7.351
	c-4.145,0-7.515,3.297-7.515,7.351s3.37,7.351,7.515,7.351c1.378,0,2.653-0.392,3.767-1.027l4.058,4.057l2.248-2.247L14.002,12.118z
	"/>
</svg>
