<?xml version="1.0" encoding="iso-8859-1"?>
<!-- Generator: Adobe Illustrator 16.0.0, SVG Export Plug-In . SVG Version: 6.00 Build 0)  -->
<!DOCTYPE svg PUBLIC "-//W3C//DTD SVG 1.1//EN" "http://www.w3.org/Graphics/SVG/1.1/DTD/svg11.dtd">
<svg version="1.1" id="Vrstva_1" xmlns="http://www.w3.org/2000/svg" xmlns:xlink="http://www.w3.org/1999/xlink" x="0px" y="0px"
	 width="18.271px" height="18.854px" viewBox="0 0 18.271 18.854" style="enable-background:new 0 0 18.271 18.854;"
	 xml:space="preserve">
<path d="M13.541,7.912c0,3.067-2.55,5.562-5.685,5.562s-5.685-2.494-5.685-5.562c0-3.066,2.55-5.561,5.685-5.561
	S13.541,4.846,13.541,7.912 M14.002,12.118c0.855-1.193,1.368-2.64,1.368-4.206c0-4.053-3.37-7.35-7.514-7.35
	s-7.514,3.297-7.514,7.35c0,4.054,3.37,7.351,7.514,7.351c1.378,0,2.654-0.392,3.767-1.027l4.057,4.056l2.248-2.247L14.002,12.118z"
	/>
</svg>
