<?xml version="1.0" encoding="utf-8"?>
<!-- Generator: Adobe Illustrator 16.0.0, SVG Export Plug-In . SVG Version: 6.00 Build 0)  -->
<!DOCTYPE svg PUBLIC "-//W3C//DTD SVG 1.1//EN" "http://www.w3.org/Graphics/SVG/1.1/DTD/svg11.dtd">
<svg version="1.1" id="Vrstva_1" xmlns="http://www.w3.org/2000/svg" xmlns:xlink="http://www.w3.org/1999/xlink" x="0px" y="0px"
	 width="19.542px" height="19.625px" viewBox="0 0 19.542 19.625" enable-background="new 0 0 19.542 19.625" xml:space="preserve">
<path fill="none" stroke="#FFFFFF" stroke-miterlimit="10" d="M14.324,9.707c0,2.523-2.048,4.567-4.575,4.567
	c-2.526,0-4.575-2.044-4.575-4.567c0-2.522,2.05-4.567,4.575-4.567C12.276,5.14,14.324,7.185,14.324,9.707z M19.011,7.186
	l-0.894-2.157c-0.237-0.109-0.379-0.172-0.615-0.281l-1.057,0.353c-0.202-0.063-0.345-0.108-0.547-0.171
	c-0.389-0.496-0.833-0.937-1.319-1.316c-0.063-0.202-0.107-0.346-0.171-0.547l0.354-1.061c-0.107-0.237-0.174-0.377-0.28-0.614
	l-2.158-0.893c-0.243,0.091-0.388,0.145-0.631,0.237l-0.501,0.999c-0.186,0.098-0.319,0.167-0.508,0.265
	c-0.612-0.075-1.236-0.077-1.862,0C8.635,1.9,8.502,1.831,8.314,1.733l-0.5-0.997C7.572,0.644,7.427,0.59,7.184,0.499L5.027,1.392
	C4.918,1.629,4.853,1.769,4.746,2.006l0.352,1.059C5.036,3.267,4.99,3.411,4.926,3.612C4.431,4,3.99,4.444,3.61,4.93
	C3.408,4.993,3.264,5.038,3.064,5.102l-1.06-0.354C1.768,4.856,1.625,4.92,1.39,5.029L0.497,7.186
	c0.091,0.243,0.145,0.389,0.236,0.632l0.999,0.5c0.098,0.187,0.167,0.321,0.265,0.507c-0.074,0.615-0.077,1.238,0,1.863
	c-0.1,0.188-0.169,0.32-0.266,0.509l-0.997,0.499c-0.091,0.243-0.145,0.388-0.236,0.632l0.893,2.158
	c0.236,0.106,0.378,0.172,0.615,0.279l1.058-0.353c0.202,0.063,0.345,0.108,0.546,0.173c0.39,0.496,0.833,0.936,1.318,1.315
	c0.064,0.202,0.109,0.345,0.172,0.547l-0.353,1.059c0.106,0.237,0.172,0.378,0.28,0.614l2.157,0.895
	c0.243-0.092,0.388-0.146,0.631-0.235l0.5-0.999c0.187-0.1,0.321-0.167,0.507-0.266c0.614,0.074,1.238,0.076,1.865,0.002
	c0.186,0.098,0.319,0.167,0.506,0.266l0.5,0.997c0.243,0.092,0.388,0.144,0.631,0.235l2.157-0.895
	c0.107-0.236,0.174-0.377,0.281-0.614l-0.354-1.058c0.063-0.201,0.107-0.344,0.172-0.546c0.496-0.39,0.936-0.833,1.317-1.319
	c0.201-0.063,0.344-0.106,0.546-0.172l1.059,0.354c0.237-0.108,0.378-0.173,0.615-0.279l0.894-2.158
	c-0.091-0.244-0.145-0.389-0.235-0.632l-0.999-0.5c-0.099-0.187-0.168-0.319-0.267-0.507c0.075-0.613,0.078-1.238,0.002-1.863
	c0.099-0.187,0.169-0.321,0.266-0.508l0.998-0.5C18.867,7.574,18.921,7.429,19.011,7.186z"/>
</svg>
