<?xml version="1.0" encoding="iso-8859-1"?>
<!-- Generator: Adobe Illustrator 16.0.0, SVG Export Plug-In . SVG Version: 6.00 Build 0)  -->
<!DOCTYPE svg PUBLIC "-//W3C//DTD SVG 1.1//EN" "http://www.w3.org/Graphics/SVG/1.1/DTD/svg11.dtd">
<svg version="1.1" id="Vrstva_1" xmlns="http://www.w3.org/2000/svg" xmlns:xlink="http://www.w3.org/1999/xlink" x="0px" y="0px"
	 width="41.75px" height="39.625px" viewBox="0 0 41.75 39.625" style="enable-background:new 0 0 41.75 39.625;"
	 xml:space="preserve">
<polygon style="display:none;fill:#F8972B;" points="20.838,0.504 25.699,15.462 41.426,15.462 28.703,24.707 33.563,39.666 
	20.838,30.422 8.114,39.666 12.975,24.707 0.25,15.462 15.979,15.462 "/>
<polygon style="fill:#FFFFFF;" points="20.839,1.318 25.497,15.655 40.572,15.655 28.375,24.516 33.034,38.854 20.839,29.993 
	8.642,38.854 13.3,24.516 1.104,15.655 16.18,15.655 "/>
<polygon style="fill:none;stroke:#AAA9A8;stroke-width:0.63;stroke-miterlimit:10;" points="20.839,1.318 25.497,15.655 
	40.572,15.655 28.375,24.516 33.034,38.854 20.839,29.993 8.642,38.854 13.3,24.516 1.104,15.655 16.18,15.655 "/>
</svg>
