<?xml version="1.0" encoding="iso-8859-1"?>
<!-- Generator: Adobe Illustrator 16.0.0, SVG Export Plug-In . SVG Version: 6.00 Build 0)  -->
<!DOCTYPE svg PUBLIC "-//W3C//DTD SVG 1.1//EN" "http://www.w3.org/Graphics/SVG/1.1/DTD/svg11.dtd">
<svg version="1.1" id="Vrstva_1" xmlns="http://www.w3.org/2000/svg" xmlns:xlink="http://www.w3.org/1999/xlink" x="0px" y="0px"
	 width="26.219px" height="24.906px" viewBox="0 0 26.219 24.906" style="enable-background:new 0 0 26.219 24.906;"
	 xml:space="preserve">
<polygon style="fill:#FFFFFF;" points="13.074,1.021 15.933,9.82 25.185,9.82 17.699,15.258 20.559,24.057 13.074,18.619 
	5.589,24.057 8.448,15.258 0.963,9.82 10.215,9.82 "/>
<polygon style="fill:none;stroke:#A9A8A8;stroke-width:0.63;stroke-miterlimit:10;" points="13.074,1.021 15.933,9.82 25.185,9.82 
	17.699,15.258 20.559,24.057 13.074,18.619 5.589,24.057 8.448,15.258 0.963,9.82 10.215,9.82 "/>
<polygon style="fill:#F8972B;" points="13.075,0.53 16.033,9.639 25.611,9.639 17.863,15.268 20.823,24.377 13.075,18.748 
	5.325,24.377 8.285,15.268 0.536,9.639 10.114,9.639 "/>
</svg>
