<?xml version="1.0" encoding="iso-8859-1"?>
<!-- Generator: Adobe Illustrator 16.0.0, SVG Export Plug-In . SVG Version: 6.00 Build 0)  -->
<!DOCTYPE svg PUBLIC "-//W3C//DTD SVG 1.1//EN" "http://www.w3.org/Graphics/SVG/1.1/DTD/svg11.dtd">
<svg version="1.1" id="Vrstva_1" xmlns="http://www.w3.org/2000/svg" xmlns:xlink="http://www.w3.org/1999/xlink" x="0px" y="0px"
	 width="41.75px" height="39.25px" viewBox="0 0 41.75 39.25" style="enable-background:new 0 0 41.75 39.25;" xml:space="preserve"
	>
<polygon style="fill:#F8972B;" points="20.838,0.129 25.699,15.087 41.426,15.087 28.703,24.332 33.563,39.291 20.838,30.047 
	8.114,39.291 12.975,24.332 0.25,15.087 15.979,15.087 "/>
<polygon style="display:none;fill:#FFFFFF;" points="20.839,0.943 25.497,15.28 40.572,15.28 28.375,24.141 33.034,38.479 
	20.839,29.618 8.642,38.479 13.3,24.141 1.104,15.28 16.18,15.28 "/>
<polygon style="display:none;fill:none;stroke:#AAA9A8;stroke-width:0.63;stroke-miterlimit:10;" points="20.839,0.943 
	25.497,15.28 40.572,15.28 28.375,24.141 33.034,38.479 20.839,29.618 8.642,38.479 13.3,24.141 1.104,15.28 16.18,15.28 "/>
</svg>
