<?xml version="1.0" encoding="iso-8859-1"?>
<!-- Generator: Adobe Illustrator 16.0.0, SVG Export Plug-In . SVG Version: 6.00 Build 0)  -->
<!DOCTYPE svg PUBLIC "-//W3C//DTD SVG 1.1//EN" "http://www.w3.org/Graphics/SVG/1.1/DTD/svg11.dtd">
<svg version="1.1" id="Vrstva_1" xmlns="http://www.w3.org/2000/svg" xmlns:xlink="http://www.w3.org/1999/xlink" x="0px" y="0px"
	 width="16.219px" height="16.104px" viewBox="0 0 16.219 16.104" style="enable-background:new 0 0 16.219 16.104;"
	 xml:space="preserve">
<path style="fill:#A9A8A8;" d="M8.094,15.947c4.404,0,7.973-3.57,7.973-7.973C16.067,3.57,12.498,0,8.094,0S0.122,3.57,0.122,7.974
	C0.122,12.377,3.69,15.947,8.094,15.947"/>
<g>
	<path style="fill:#FFFFFF;" d="M10.596,5.584c0,0.383-0.063,0.724-0.189,1.022s-0.297,0.562-0.508,0.788S9.449,7.83,9.181,8.021
		c-0.268,0.191-0.55,0.377-0.847,0.557v1.336H7.286V8.127C7.504,7.994,7.759,7.835,8.05,7.649s0.519-0.358,0.683-0.519
		c0.211-0.199,0.375-0.417,0.492-0.653s0.176-0.505,0.176-0.806c0-0.441-0.139-0.771-0.416-0.987S8.346,4.359,7.901,4.359
		c-0.391,0-0.759,0.065-1.104,0.196S6.17,4.822,5.956,4.963H5.891V3.768c0.262-0.105,0.592-0.2,0.99-0.284s0.775-0.126,1.131-0.126
		c0.801,0,1.431,0.204,1.892,0.612S10.596,4.916,10.596,5.584z M8.428,12.258H7.233v-1.236h1.195V12.258z"/>
</g>
</svg>
