<?xml version="1.0" encoding="utf-8"?>
<!-- Generator: Adobe Illustrator 16.0.0, SVG Export Plug-In . SVG Version: 6.00 Build 0)  -->
<!DOCTYPE svg PUBLIC "-//W3C//DTD SVG 1.1//EN" "http://www.w3.org/Graphics/SVG/1.1/DTD/svg11.dtd">
<svg version="1.1" id="Vrstva_1" xmlns="http://www.w3.org/2000/svg" xmlns:xlink="http://www.w3.org/1999/xlink" x="0px" y="0px"
	 width="16.271px" height="17.521px" viewBox="0 0 16.271 17.521" enable-background="new 0 0 16.271 17.521" xml:space="preserve">
<path fill="#E21F26" d="M2.281,9.248H0.724v1.993h1.558V9.248z M0,0l1.018,8.002h0.969L3.005,0H0z"/>
<path fill="#E21F26" d="M15.104,14.576c-1.448-0.465-3.123-0.469-3.412-1.706c0,0,0.145-0.312,0.289-0.775s0.218-0.929,0.218-0.929
	s0.159,0.415,0.29-0.001c0.144-0.464,0.289-1.392,0.289-1.702c0-0.31-0.287-0.31-0.287-0.31s0.153-1.037-0.123-2.077
	c0.103,0.041,0.161,0.065,0.161,0.065c-0.317-0.675-0.173-1.352-1.357-1.789c-0.392-0.233-0.896-0.377-1.54-0.377
	c-0.107,0-0.212,0.005-0.312,0.012C9.28,4.983,9.24,4.98,9.198,4.975c-3.33-0.309-2.407,4.178-2.407,4.178s-0.271,0-0.271,0.309
	c0,0.31,0.146,1.239,0.29,1.703c0.129,0.415,0.288,0,0.288,0s0.073,0.464,0.219,0.929c0.144,0.463,0.289,0.774,0.289,0.774
	c-0.289,1.237-1.964,1.243-3.412,1.708c-1.447,0.464-1.167,2.945-1.167,2.945h6.605h6.64C16.271,17.521,16.552,15.04,15.104,14.576"
	/>
</svg>
