<?xml version="1.0" encoding="utf-8"?>
<!-- Generator: Adobe Illustrator 16.0.0, SVG Export Plug-In . SVG Version: 6.00 Build 0)  -->
<!DOCTYPE svg PUBLIC "-//W3C//DTD SVG 1.1//EN" "http://www.w3.org/Graphics/SVG/1.1/DTD/svg11.dtd">
<svg version="1.1" id="Vrstva_1" xmlns="http://www.w3.org/2000/svg" xmlns:xlink="http://www.w3.org/1999/xlink" x="0px" y="0px"
	 width="13.289px" height="12.563px" viewBox="0 0 13.289 12.563" enable-background="new 0 0 13.289 12.563" xml:space="preserve">
<path fill="#F89728" d="M12.1,9.616c-1.448-0.464-3.123-0.468-3.412-1.705c0,0,0.145-0.313,0.289-0.775
	c0.144-0.463,0.218-0.929,0.218-0.929s0.159,0.415,0.29-0.001C9.63,5.742,9.774,4.814,9.774,4.504c0-0.311-0.287-0.311-0.287-0.311
	S9.64,3.156,9.364,2.116c0.104,0.041,0.161,0.064,0.161,0.064C9.208,1.506,9.352,0.829,8.168,0.392
	c-0.392-0.232-0.896-0.377-1.54-0.377c-0.107,0-0.212,0.005-0.312,0.012c-0.04-0.004-0.08-0.007-0.122-0.012
	c-3.33-0.309-2.407,4.178-2.407,4.178s-0.271,0-0.271,0.31s0.146,1.239,0.29,1.703c0.129,0.415,0.289,0,0.289,0
	s0.072,0.464,0.218,0.929c0.144,0.463,0.289,0.774,0.289,0.774C4.312,9.147,2.637,9.153,1.189,9.616
	c-1.447,0.465-1.167,2.946-1.167,2.946h6.605h6.64C13.267,12.563,13.547,10.081,12.1,9.616"/>
</svg>
